<?xml version="1.0" encoding="utf-8"?>
<!-- Generator: Adobe Illustrator 16.0.0, SVG Export Plug-In . SVG Version: 6.00 Build 0)  -->
<!DOCTYPE svg PUBLIC "-//W3C//DTD SVG 1.1//EN" "http://www.w3.org/Graphics/SVG/1.1/DTD/svg11.dtd">
<svg version="1.1" id="Calque_1" xmlns="http://www.w3.org/2000/svg" xmlns:xlink="http://www.w3.org/1999/xlink" x="0px" y="0px"
	 width="624.393px" height="587.971px" viewBox="-24.393 -14.895 624.393 587.971"
	 enable-background="new -24.393 -14.895 624.393 587.971" xml:space="preserve">
<g id="Cercle">
	<g>
		<circle fill="#00AEEF" cx="350.5" cy="74.5" r="50"/>
		<circle fill="#F0494A" cx="230" cy="498.5" r="50"/>
		<ellipse fill="none" cx="289" cy="290" rx="222" ry="215.5"/>
		<g>
			<path d="M542.88,184.881c-5.22,1.804-9.617,3.297-13.116,4.45c-3.498,1.153-6.848,2.25-10.3,3.299
				c-3.349,1.097-5.903,1.807-7.663,2.13c-3.416,0.694-6.646,0.976-9.661,0.919c-2.94-0.084-5.582-0.283-7.98-0.744
				c-1.274-0.202-2.559-0.657-3.871-1.187c-1.238-0.559-2.345-0.995-3.376-1.46c-1.031-0.465-2.147-1.155-3.424-2.041l-1.563-3.001
				c2.196,1.735,4.86,3.123,7.916,4.19c3.056,1.068,5.735,1.593,7.982,1.427c2.351-0.119,5-0.352,8.07-0.83
				c1.534-0.239,4.313-1.034,8.261-2.357c4.023-1.352,8.018-2.777,12.133-4.335c4.219-1.511,9.561-3.447,15.995-5.883
				L542.88,184.881z M520.615,192.281l12.953,19.308c-2.019,1.448-4.132,2.419-6.358,3.091c-2.227,0.671-5.194,1.195-8.826,1.543
				s-7.416,0.069-11.512-1.033c-2.1-0.574-4.209-1.401-6.507-2.499c-2.194-1.052-4.136-2.113-5.928-3.231
				c-1.764-1.043-3.716-2.358-5.959-3.99c0.15-0.057,0.245,0.42,0.436,1.375c0.189,0.955,0.406,1.3,0.556,1.244
				s0.779,0.476,1.859,1.521c1.183,1.092,2.601,2.352,4.403,3.723c1.904,1.417,3.988,2.854,6.324,4.279
				c2.439,1.472,4.68,2.42,7.061,3.06s5.331,0.977,8.721,0.891c3.493-0.039,6.677-0.217,9.803-0.545
				c3.155-0.253,7.03-0.864,11.561-1.552c1.066-0.575,1.832-1.036,2.317-1.562c0.514-0.451,0.953-0.874,1.082-1.436
				c0.232-0.516,0.034-1.04-0.669-1.543c-0.732-0.578-2.011-2.147-4.014-4.726c-1.898-2.532-3.78-5.242-5.793-8.073
				c-1.938-2.859-4.515-6.504-7.609-11.064L520.615,192.281z M517.013,193.388c-1.681,1.663-3.137,3.24-4.293,4.705
				c-1.157,1.464-2.378,3.21-3.665,5.236c-1.285,2.027-2.365,4.146-3.183,6.509c-0.92,2.316-1.577,4.874-2.046,7.704
				c-0.366,2.876-0.639,5.546-0.818,8.009c-0.077,2.51-0.012,5.394,0.073,8.784l4.386,7.066c0.028,0.075-0.334-2.012-0.938-6.318
				c-0.172-1.132-0.232-2.649-0.211-4.625c0.126-1.929,0.241-4.111,0.402-6.397c0.236-2.313,0.501-4.552,0.841-6.82
				c0.442-2.221,0.793-4.235,1.181-5.922c0.389-1.687,1.197-3.618,2.398-5.869c1.229-2.176,2.516-4.203,3.83-6.155
				c1.343-1.877,3.124-4.177,5.195-6.842L517.013,193.388z M503.792,218.581l0.722,0.326l1.135,0.512l-1.554-2.749L503.792,218.581z
				 M504.538,214.449l-0.443,2.221l1.554,2.749l1.622,0.669L504.538,214.449z M504.538,214.449l2.704,5.563l0.68-4.535l-1.612-0.416
				L504.538,214.449z M565.738,212.502c-1.193-1.345-2.489-2.736-3.786-4.127c-1.222-1.42-2.152-2.522-2.848-3.457
				c-0.696-0.934-1.938-2.859-3.933-5.869c-1.891-2.963-3.735-6.029-5.712-9.216c-1.901-3.216-4.367-7.244-7.351-12.189l0.771,7.236
				l20.198,33.931l7.441-1.361C568.594,215.528,567.034,213.894,565.738,212.502z"/>
			<path d="M541.105,228.741c0.012,0.079,0.353,0.189,1.216,0.543c0.863,0.354,1.817,0.775,2.862,1.263
				c1.046,0.488,2.103,1.056,2.99,1.568c0.979,0.58,1.616,1.049,1.926,1.487c0.619,0.876,0.873,1.485,0.447,1.874
				c-0.336,0.456-0.92,0.868-1.766,1.159c-0.463,0.151-2.507,0.543-6.474,1.066c-3.875,0.59-7.987,1.216-12.587,1.835
				c-4.508,0.687-8.553,1.221-12.361,1.72c-3.717,0.566-5.627,0.775-5.706,0.788c-0.158,0.024-1.368,0.046-3.564-0.024l7.146,35.245
				l37.045-7.015l0.112-1.393l-1.042-2.593l6.271,2.93c0.65,0.548,1.13,1.042,1.36,1.492c0.31,0.438,0.449,0.822,0.521,1.296
				c0.15,0.462-0.026,0.894-0.465,1.203c-0.518,0.322-2.945,0.853-7.203,1.583c-4.247,0.808-8.822,1.585-13.805,2.344
				c-4.891,0.825-9.478,1.523-13.67,2.161c-4.1,0.705-6.382,1.134-6.698,1.182c-0.396,0.061-0.937,0.224-1.545,0.479
				c-0.609,0.254-1.241,0.351-1.898,0.289c-0.656-0.063-1.101-0.318-1.671-0.879c-0.479-0.493-0.795-1.497-1.012-2.921
				s-0.784-4.088-1.872-8.05c-0.998-3.894-2.099-7.934-3.223-12.133c-1.125-4.198-2.02-7.946-3.012-11.274
				c-0.9-3.262-1.336-5.057-1.305-5.385c0.062-0.657,0.574-1.544,1.671-2.844c1.109-1.221,2.588-1.608,4.447-1.082
				c1.86,0.526,3.198,0.808,4.172,0.822c0.984,0.093,1.867,0.04,2.499-0.057c0.316-0.048,1.819-0.277,4.667-0.71
				c2.847-0.434,5.931-0.903,9.253-1.409c3.321-0.506,7.762-1.101,13.152-1.84l0.435-1.927
				C541.407,229.666,540.947,228.765,541.105,228.741z M504.203,256.368l-0.593,5.674l61.276-11.027l-1.503-3.494L504.203,256.368z
				 M510.768,255.369l1.111,5.171l-4.247,0.808l-1.451-5.281L510.768,255.369z M525.772,244.427
				c-0.513,0.887-0.982,1.525-1.305,2.06c-0.244,0.523-0.488,1.045-0.824,1.501c-0.244,0.523-0.445,0.796-0.5,0.966
				c-0.134,0.182-0.402,0.547-0.828,0.936c-0.415,0.467-0.854,0.777-1.315,0.928c-0.913,0.382-1.74,0.265-2.493-0.43
				c-0.389-0.426-0.723-1.023-1.08-1.778c1.279-1.166,2.199-2.034,2.826-2.696c0.628-0.662,1.213-1.075,1.65-1.384
				c0.53-0.242,1.249-0.837,2.102-1.614c0.853-0.777,1.454-0.545,1.781,0.538L525.772,244.427z M529.247,269.387
				c-1.051-1.054-1.815-1.827-2.489-2.534c-0.583-0.64-1.166-1.279-1.737-1.84c-0.57-0.561-0.855-0.84-0.947-0.908
				c-0.182-0.134-0.547-0.402-1.081-0.726c-0.522-0.244-1.033-0.409-1.52-0.416c-0.985-0.093-1.74,0.265-2.253,1.152
				c-0.244,0.522-0.385,1.191-0.502,2.019c1.568,0.732,2.705,1.288,3.501,1.733c0.796,0.445,1.616,1.048,2.606,1.707
				c1.081,0.726,2.139,1.292,3.185,1.781c1.045,0.488,1.563,0.167,1.54-1.043L529.247,269.387z M531.906,242.198l8.448,30.515
				l0.762,2.877c-2.761-0.064-4.359-0.469-4.979-1.346c-0.31-0.438-0.824-2.221-1.487-5.519c-0.652-3.219-1.261-6.687-1.985-10.379
				c-0.712-3.614-1.537-8.505-2.531-14.503L531.906,242.198z M534.585,251.824l1.239,4.424l-3.389,0.597l-0.856-4.563
				L534.585,251.824z M540.318,272.476l-4.472,0.923l0.176,0.621l0.218,0.372l0.194,0.213l0.365,0.268l0.784,0.366l0.93,0.263
				l1.064,0.081l0.973,0.014l0.565-0.006L540.318,272.476z M560.3,244.269l-0.51-1.217l5.113,1.164
				c2.305,0.782,3.367,1.915,3.164,3.241s-1.232,2.534-3.181,3.559l-1.503-3.494L560.3,244.269z"/>
			<path d="M554.153,322.835l0.502,5.317c-9.275-0.362-16.704-0.781-22.455-1.105c-5.672-0.319-10.944-0.616-15.963-1.14
				c-4.943-0.439-7.797-1.001-8.484-1.601c-1.375-1.199-2.074-3.001-1.859-5.394c0.295-2.387,0.967-4.353,2.175-5.887
				c0.524-0.772,1.195-1.295,2.012-1.57c0.813-0.194,1.54-0.313,2.175-0.197c0.63,0.195,1.024,0.298,1.167,0.626
				c0.222,0.333-0.036,0.64-0.693,0.923c-0.652,0.204-1.314,0.567-1.998,1.33c-0.685,0.763-1.133,1.619-1.502,2.479
				c-0.374,0.94-0.499,1.734-0.384,2.543c0.19,0.892,0.718,1.482,1.578,1.852c0.781,0.364,3.164,0.739,7.167,0.805
				c4.078,0.149,8.321,0.229,12.883,0.325c4.643,0.102,8.801,0.256,12.493,0.143c3.768-0.027,5.773-0.075,6.014-0.062
				c0.483-0.053,2.192-0.518,4.962-1.323L554.153,322.835z M554.99,290.909c-9.47-1.175-17.111-2.086-22.845-2.73
				c-5.733-0.644-10.992-1.18-15.767-1.77c-4.779-0.51-7.251-0.729-7.411-0.738c-0.324,0.063-0.542,1.092-0.734,3.084l0.576,1.154
				c10.672,1.162,19.116,2.039,25.489,2.719c6.367,0.759,14.888,1.72,25.396,2.953c0,0-0.306-0.258-0.838-0.769
				c-0.452-0.506-0.989-0.937-1.592-1.612C556.657,292.605,555.899,291.842,554.99,290.909z M552.768,294.79
				c-5.301,3.067-9.523,5.474-12.676,7.38c-3.152,1.905-5.981,3.749-8.716,5.358c-2.66,1.693-4.076,2.655-4.25,2.886
				c-0.347,0.461-0.697,1.002-1.363,1.445c-0.591,0.527-1.048,0.102-1.286-1.354s0.157-2.796,1.112-4.104
				c1.031-1.224,1.729-2.227,2.244-2.838c0.258-0.307,1.491-0.878,3.721-2.034c2.304-1.072,4.688-2.14,7.32-3.354
				c2.708-1.13,5.092-2.197,7.392-3.189c2.296-0.913,3.609-1.479,3.938-1.622C550.781,293.076,551.633,293.604,552.768,294.79z
				 M550.204,293.363l0.647-0.123l1.012,0.537l-3.795,0.508L550.204,293.363z M552.24,294.199l0.527,0.591l-4.699-0.505l3.795-0.508
				L552.24,294.199z M551.044,279.868c-0.004,0.08,0.054,0.484,0.013,1.203c0.035,0.804,0.149,1.611,0.256,2.578
				c0.186,0.973,0.366,2.024,0.712,3.006c0.421,1.065,0.854,1.891,1.458,2.566c0.603,0.675,1.281,1.434,2.19,2.367
				c0.904,1.012,1.738,1.86,2.651,2.713c0.909,0.933,2.049,2.039,3.335,3.394c1.304,1.035,2.235,1.568,2.874,1.604
				c0.64,0.036,1.656-0.948,3.132-2.949c-2.991-0.97-5.022-1.886-6.256-2.756c-1.232-0.871-2.23-1.648-3.148-2.422
				c-0.843-0.688-1.588-1.691-2.314-3.015s-1.409-3.445-2.205-6.375C551.972,280.481,551.044,279.868,551.044,279.868z
				 M556.659,301.1c0.075,0.085,0.141,1.771,0.267,5.224c0.201,3.537,0.313,7.229,0.479,11.406
				c0.245,4.181,0.353,7.953,0.479,11.406c0.122,3.532,0.183,5.299,0.183,5.299c-0.085,0.075-0.174,0.23-0.44,0.696
				c-0.187,0.471-0.604,0.768-1.088,0.82c-0.483,0.053-0.944-0.294-1.384-1.04c-0.646-7.008-1.13-12.645-1.526-16.994
				c-0.32-4.265-0.499-8.201-0.767-11.982c-0.192-3.697-0.23-5.863-0.044-6.333c0.373-0.941,0.884-1.473,1.363-1.446
				c0.56,0.031,0.879,0.05,1.038,0.059c0.16,0.009,1.025,0.298,2.601,0.788C556.948,300.234,556.509,300.931,556.659,301.1z
				 M567.762,308.857c0.075,0.084,0.087,1.287,0.121,3.532c0.029,2.326,0.05,4.812,0.056,7.536c0.007,2.725-0.053,5.206-0.099,7.446
				c0.029,2.326-0.038,3.524-0.038,3.524c-0.085,0.075-0.174,0.23-0.44,0.696c-0.187,0.47-0.604,0.768-1.088,0.82
				c-0.483,0.053-0.945-0.294-1.384-1.04c-0.378-4.669-0.646-8.45-0.803-11.344s-0.249-5.543-0.345-8.113
				c-0.016-2.564-0.01-4.087,0.177-4.558c0.374-0.94,0.885-1.473,1.364-1.445c0.559,0.031,0.878,0.05,1.038,0.059
				s1.024,0.298,2.6,0.787C568.051,307.992,567.611,308.688,567.762,308.857z M569.022,280.802c0.075,0.084,0.04,0.723,0.048,2.006
				c0.087,1.287,0.082,2.81,0.147,4.495c0.061,1.767,0.205,3.458,0.431,5.153c0.3,1.78,0.707,3.085,1.292,4.079
				c1.18,1.83,2.319,2.936,3.588,3.168c1.207-0.093,1.869-0.456,2.064-1.086c0.196-0.63-0.145-1.691-1.182-3.192l-2.147-1.724
				c-0.553-1.554-1.04-2.863-1.297-3.999c-0.257-1.137-0.357-2.184-0.609-3.4c-0.177-1.132-0.198-2.175,0.011-3.044
				c0.33-1.584,0.309-2.627-0.148-3.054c-0.461-0.347-0.688-0.6-0.767-0.604c-0.08-0.004-0.409,0.138-0.91,0.51
				C569.035,280.562,568.863,280.792,569.022,280.802z"/>
			<path d="M542.203,377.203l-0.616,5.304c-8.995-2.285-16.173-4.24-21.729-5.754c-5.479-1.493-10.573-2.881-15.373-4.438
				c-4.742-1.458-7.416-2.601-7.963-3.33c-1.096-1.459-1.404-3.367-0.696-5.661c0.785-2.273,1.851-4.056,3.352-5.305
				c0.674-0.646,1.438-1.018,2.294-1.116c0.835-0.021,1.572,0.014,2.168,0.259c0.575,0.322,0.94,0.505,1.011,0.855
				c0.147,0.372-0.168,0.617-0.87,0.758c-0.68,0.063-1.402,0.281-2.23,0.885s-1.445,1.348-1.984,2.112
				c-0.562,0.842-0.849,1.593-0.905,2.406c0.001,0.912,0.394,1.6,1.158,2.14c0.688,0.52,2.94,1.382,6.842,2.278
				c3.957,0.995,8.089,1.955,12.53,3c4.519,1.064,8.553,2.081,12.188,2.739c3.69,0.757,5.662,1.128,5.894,1.191
				c0.484,0.049,2.252-0.05,5.128-0.261L542.203,377.203z M549.666,346.156c-9.016-3.12-16.299-5.602-21.771-7.424
				c-5.473-1.823-10.504-3.442-15.05-5.013c-4.568-1.493-6.939-2.222-7.094-2.264c-0.33-0.007-0.758,0.954-1.36,2.862l0.323,1.249
				c10.194,3.357,18.271,5.973,24.36,7.963c6.069,2.068,14.201,4.781,24.221,8.174c0,0-0.246-0.315-0.66-0.926
				c-0.337-0.589-0.771-1.122-1.221-1.907C550.944,348.162,550.362,347.257,549.666,346.156z M546.686,349.489
				c-5.822,1.896-10.452,3.37-13.932,4.578s-6.63,2.422-9.64,3.426c-2.953,1.103-4.538,1.749-4.756,1.938
				c-0.435,0.379-0.891,0.835-1.634,1.13c-0.688,0.393-1.046-0.119-0.976-1.593c0.069-1.474,0.735-2.701,1.942-3.782
				c1.262-0.982,2.153-1.817,2.784-2.309c0.315-0.246,1.642-0.548,4.062-1.215c2.477-0.569,5.03-1.117,7.857-1.756
				c2.884-0.541,5.437-1.089,7.893-1.581c2.434-0.414,3.837-0.695,4.188-0.766C545.1,347.399,545.823,348.094,546.686,349.489z
				 M549.178,356.47c0.057,0.098-0.23,1.761-0.826,5.163c-0.539,3.501-1.198,7.136-1.905,11.254c-0.63,4.14-1.31,7.852-1.905,11.254
				c-0.616,3.48-0.925,5.22-0.925,5.22c-0.099,0.057-0.218,0.189-0.575,0.59c-0.28,0.421-0.75,0.625-1.234,0.575
				c-0.484-0.049-0.863-0.483-1.137-1.305c0.826-6.987,1.525-12.601,2.044-16.937c0.574-4.237,1.219-8.124,1.743-11.878
				c0.582-3.655,0.995-5.781,1.275-6.202c0.562-0.842,1.172-1.256,1.635-1.13c0.54,0.147,0.849,0.231,1.003,0.273
				s0.94,0.505,2.379,1.312C549.641,355.684,549.066,356.272,549.178,356.47z M544.475,347.561l0.66,0.014l0.877,0.736l-3.816-0.293
				L544.475,347.561z M546.292,348.802l0.394,0.688l-4.49-1.472l3.816,0.293L546.292,348.802z M548.106,334.538
				c-0.021,0.077-0.049,0.484-0.238,1.179c-0.133,0.793-0.188,1.606-0.287,2.575c-0.021,0.989-0.063,2.056,0.071,3.087
				c0.189,1.129,0.442,2.027,0.892,2.813c0.449,0.786,0.955,1.67,1.649,2.771c0.674,1.179,1.313,2.182,2.028,3.205
				c0.695,1.102,1.58,2.42,2.556,4.013c1.06,1.283,1.859,1.999,2.477,2.167s1.817-0.583,3.676-2.231
				c-2.723-1.571-4.519-2.89-5.544-3.998c-1.024-1.108-1.838-2.076-2.575-3.022c-0.681-0.85-1.2-1.985-1.636-3.431
				s-0.66-3.662-0.829-6.692C548.885,335.331,548.106,334.538,548.106,334.538z M558.42,366.366
				c0.057,0.098-0.182,1.276-0.616,3.479c-0.455,2.28-0.953,4.715-1.514,7.381c-0.561,2.667-1.135,5.08-1.646,7.262
				c-0.455,2.28-0.771,3.438-0.771,3.438c-0.099,0.056-0.218,0.189-0.575,0.59c-0.28,0.421-0.751,0.624-1.234,0.575
				c-0.484-0.049-0.863-0.483-1.138-1.305c0.603-4.645,1.128-8.398,1.576-11.261s0.91-5.473,1.352-8.005
				c0.519-2.512,0.841-4,1.121-4.421c0.562-0.842,1.172-1.256,1.635-1.13c0.54,0.147,0.849,0.231,1.003,0.273
				c0.155,0.042,0.94,0.505,2.379,1.312C558.883,365.58,558.308,366.17,558.42,366.366z M565.492,339.192
				c0.056,0.098-0.112,0.716-0.371,1.972c-0.183,1.276-0.505,2.764-0.792,4.427c-0.309,1.74-0.519,3.424-0.651,5.129
				c-0.076,1.803,0.05,3.164,0.415,4.258c0.772,2.035,1.657,3.354,2.85,3.845c1.2,0.16,1.923-0.057,2.245-0.633
				c0.322-0.575,0.21-1.684-0.492-3.367l-1.74-2.132c-0.218-1.635-0.422-3.017-0.437-4.182c-0.014-1.165,0.104-2.21,0.111-3.452
				c0.063-1.144,0.259-2.168,0.645-2.975c0.652-1.48,0.849-2.505,0.49-3.017c-0.379-0.435-0.547-0.729-0.624-0.751
				c-0.077-0.021-0.428,0.05-0.996,0.31C565.555,338.961,565.338,339.15,565.492,339.192z"/>
		</g>
	</g>
</g>
<g id="Calque_2">
	<ellipse fill="#FFFFFF" stroke="#000000" stroke-width="5" stroke-miterlimit="10" cx="289" cy="290.5" rx="222" ry="215"/>
</g>
<g id="Kevin">
	<g enable-background="new    ">
		<path d="M239.61,229.407c7.721,9.972,14.707,18.85,20.956,26.643c6.246,7.792,11.689,14.077,16.322,18.85
			c4.633,4.771,8.424,7.72,11.373,8.846c2.948,1.122,5.054,0.068,6.318-3.159c1.264,2.808,1.475,5.509,0.632,8.108
			c-0.842,2.596-2.422,4.455-4.739,5.58c-2.316,1.123-5.16,1.229-8.529,0.315c-3.37-0.915-6.881-3.475-10.53-7.688
			c-1.826-2.104-4.038-4.948-6.635-8.528c-2.6-3.58-5.442-7.615-8.528-12.11c-3.09-4.491-6.318-9.23-9.688-14.216
			c-3.37-4.982-6.602-9.862-9.688-14.638c-3.653,15.727-5.582,27.942-5.792,36.646c-0.21,8.704,1.858,13.406,6.213,14.11
			c-0.704,0.701-1.862,1.297-3.476,1.791c-1.615,0.49-3.3,0.49-5.055,0c-1.757-0.494-3.406-1.827-4.949-4.002
			c-1.546-2.18-2.563-5.653-3.054-10.426c-0.49-4.771-0.316-11.089,0.526-18.954c0.843-7.861,2.807-17.829,5.896-29.906
			c3.087-12.074,7.404-26.465,12.953-43.175c5.545-16.708,12.811-36.294,21.798-58.761c0.279-0.421,0.771-0.385,1.475,0.105
			c0.7,0.494,1.438,1.194,2.211,2.106c0.77,0.915,1.438,2.073,2,3.475c0.56,1.405,0.843,2.811,0.843,4.213
			c-5.056,13.762-9.866,27.941-14.427,42.543c-4.564,14.604-8.53,27.941-11.899,40.016c9.405-8.003,18.181-16.566,26.326-25.694
			c8.141-9.126,15.197-18.04,21.166-26.748c5.966-8.704,10.669-16.671,14.11-23.903c3.438-7.23,5.298-12.953,5.58-17.165
			c0.981,0.984,1.93,2.316,2.844,4.002c0.912,1.685,1.754,3.475,2.527,5.37c0.771,1.896,1.333,3.722,1.687,5.476
			c0.348,1.758,0.524,3.195,0.524,4.317c-0.563,4.354-2.353,9.129-5.37,14.322c-3.021,5.195-6.739,10.566-11.162,16.111
			c-4.423,5.548-9.339,11.057-14.742,16.532c-5.407,5.477-10.883,10.709-16.429,15.69c-5.548,4.986-10.882,9.55-16.006,13.69
			C248.067,223.336,243.539,226.742,239.61,229.407z"/>
		<path d="M330.802,220.983c0.979-1.823,2.212-2.527,3.686-2.106c1.475,0.421,1.929,1.475,1.369,3.159
			c-1.126,2.669-2.669,5.792-4.634,9.372c-1.968,3.58-4.212,7.303-6.739,11.162c-2.527,3.863-5.231,7.688-8.108,11.479
			c-2.879,3.791-5.827,7.092-8.846,9.898c-3.021,2.811-6.002,4.985-8.951,6.529c-2.948,1.546-5.759,2.105-8.425,1.685
			c-4.212-0.701-7.442-3.054-9.688-7.056c-2.244-4.001-3.58-8.772-4.001-14.321c-0.421-5.545,0-11.405,1.264-17.586
			c1.265-6.177,3.231-11.794,5.897-16.849c2.666-5.055,5.93-9.089,9.793-12.11c3.859-3.018,8.247-4.106,13.163-3.264
			c3.369,0.563,5.86,2.105,7.478,4.633c1.611,2.527,2.49,5.617,2.633,9.267c0.138,3.653-0.422,7.688-1.686,12.11
			c-1.265,4.422-3.126,8.846-5.581,13.269c-2.458,4.423-5.442,8.602-8.951,12.531c-3.511,3.933-7.442,7.233-11.794,9.898
			c0.561,0.563,1.086,0.948,1.58,1.158c0.49,0.211,1.086,0.458,1.79,0.737c2.666,0.563,5.896-0.77,9.688-4.002
			c3.791-3.228,7.546-7.193,11.269-11.899c3.719-4.702,7.193-9.651,10.425-14.848C326.657,228.638,329.116,224.353,330.802,220.983z
			 M303.422,211.506c-1.265,0-2.948,1.685-5.055,5.055c-2.105,3.369-4.179,7.443-6.213,12.215
			c-2.036,4.775-3.758,9.655-5.159,14.638c-1.405,4.985-1.896,9.161-1.476,12.531c4.071-2.948,7.51-6.914,10.32-11.899
			c2.807-4.982,4.948-9.898,6.423-14.743c1.475-4.844,2.315-9.02,2.526-12.531C305.002,213.263,304.545,211.506,303.422,211.506z"/>
		<path d="M383.03,220.772c0.422-0.843,0.98-1.401,1.687-1.685c0.7-0.28,1.369-0.28,2,0c0.633,0.283,1.086,0.773,1.369,1.474
			c0.28,0.704,0.211,1.547-0.21,2.527c-3.512,7.724-7.303,13.446-11.373,17.165c-4.073,3.722-7.936,5.864-11.583,6.424h-0.212
			c-1.264,3.652-2.772,7.091-4.527,10.319c-1.757,3.231-3.652,6.039-5.688,8.425c-2.037,2.389-4.212,4.179-6.528,5.37
			c-2.316,1.194-4.738,1.648-7.267,1.369c-3.23-0.421-5.934-1.965-8.106-4.634c-2.181-2.665-3.828-6.035-4.95-10.108
			c-1.122-4.071-1.79-8.636-2.001-13.69c-0.211-5.054,0.072-10.142,0.843-15.269c0.773-5.124,1.929-10.143,3.477-15.059
			c1.543-4.913,3.508-9.267,5.896-13.058c0.56,0.142,1.297,0.599,2.211,1.368c0.912,0.773,1.824,1.686,2.738,2.738
			c0.912,1.053,1.718,2.179,2.422,3.37c0.701,1.194,1.053,2.283,1.053,3.264c-1.403,2.248-2.737,5.091-4.001,8.53
			c-1.264,3.442-2.316,7.056-3.159,10.847c-0.842,3.791-1.44,7.618-1.79,11.478c-0.353,3.863-0.353,7.408,0,10.636
			c0.35,3.231,1.086,5.897,2.212,8.003c1.121,2.106,2.808,3.37,5.056,3.791c2.807,0.422,5.438-1.264,7.896-5.054
			c2.455-3.791,4.529-8.425,6.214-13.9c-3.23-1.823-5.581-4.982-7.056-9.478c-1.475-4.492-2.104-9.162-1.896-14.006
			c0.209-4.844,1.264-9.336,3.158-13.479c1.896-4.14,4.666-6.703,8.318-7.688c3.371-0.843,6.003,0.105,7.898,2.843
			s2.633,8.74,2.211,18.008c0,5.896-0.843,11.794-2.527,17.69c2.387-0.7,5.02-2.49,7.898-5.37
			C377.587,231.06,380.362,226.67,383.03,220.772z M358.811,237.41c0.42-1.822,0.77-3.965,1.053-6.423
			c0.279-2.455,0.526-4.949,0.736-7.477c0.211-2.527,0.316-5.019,0.316-7.477c0-2.455-0.143-4.598-0.423-6.424
			c-1.825,0.983-3.229,2.737-4.211,5.265c-0.983,2.527-1.58,5.196-1.791,8.004c-0.211,2.81,0.033,5.581,0.737,8.318
			C355.931,233.936,357.125,236.009,358.811,237.41z"/>
		<path d="M408.303,220.772c0.42-0.843,1.016-1.369,1.789-1.579c0.771-0.211,1.475-0.211,2.106,0
			c0.631,0.21,1.054,0.668,1.265,1.368c0.209,0.704,0.104,1.547-0.316,2.527c-1.125,2.39-2.633,5.302-4.529,8.74
			c-1.895,3.442-3.967,7.022-6.213,10.741c-2.246,3.722-4.563,7.408-6.949,11.058c-2.389,3.652-4.67,6.881-6.846,9.688
			c-2.178,2.811-4.178,5.055-6.002,6.739c-1.822,1.686-3.228,2.386-4.212,2.106c-1.543-0.421-2.56-2.106-3.054-5.055
			c-0.49-2.948-0.561-6.598-0.211-10.951c0.353-4.351,0.983-9.162,1.896-14.427c0.914-5.266,1.933-10.458,3.053-15.586
			c1.125-5.123,2.281-9.931,3.476-14.427c1.19-4.491,2.281-8.141,3.266-10.951c0.14-0.279,0.631-0.139,1.476,0.421
			c0.842,0.563,1.754,1.369,2.737,2.422c0.98,1.054,1.857,2.248,2.631,3.581c0.771,1.336,1.229,2.705,1.369,4.106
			c0,2.106-0.352,4.812-1.053,8.108c-0.703,3.301-1.58,6.845-2.633,10.636s-2.211,7.582-3.476,11.373
			c-1.264,3.791-2.422,7.233-3.475,10.32c-1.053,3.09-1.863,5.617-2.422,7.582c-0.563,1.968-0.701,2.948-0.422,2.948
			c0.422,0.142,1.332-0.737,2.737-2.633c1.402-1.896,3.054-4.281,4.949-7.161c1.896-2.876,3.896-6.071,6.002-9.582
			c2.105-3.508,4.07-6.809,5.896-9.898c1.824-3.087,3.404-5.756,4.74-8.004C407.213,222.74,408.02,221.335,408.303,220.772z
			 M396.508,207.294c-0.703-2.527-1.968-4.634-3.791-6.318c-1.826-1.686-3.301-2.597-4.422-2.738
			c0.559-1.965,1.053-3.719,1.475-5.266c0.42-1.543,0.842-2.948,1.264-4.212c0.138-0.279,0.664-0.138,1.578,0.421
			c0.912,0.563,1.824,1.369,2.738,2.423c0.912,1.053,1.791,2.283,2.633,3.686c0.842,1.405,1.264,2.81,1.264,4.212
			c-0.282,0.843-0.668,1.968-1.157,3.37C397.594,204.275,397.069,205.75,396.508,207.294z"/>
		<path d="M459.692,220.352c0.559-0.701,1.191-1.158,1.896-1.369c0.7-0.211,1.368-0.211,2.002,0
			c0.631,0.211,1.053,0.668,1.264,1.369c0.211,0.704,0.033,1.546-0.527,2.527c-1.264,2.389-2.844,5.37-4.737,8.95
			c-1.896,3.581-3.933,7.372-6.107,11.373c-2.18,4.002-4.459,8.003-6.846,12.005c-2.39,4.002-4.705,7.549-6.949,10.636
			c-2.248,3.09-4.318,5.476-6.213,7.161c-1.896,1.685-3.406,2.244-4.529,1.685c-2.527-1.125-4-3.334-4.422-6.634
			c-0.422-3.298-0.283-7.089,0.422-11.373c0.699-4.281,1.754-8.846,3.158-13.689c1.402-4.845,2.701-9.3,3.896-13.374
			c1.191-4.07,2.033-7.51,2.527-10.32c0.49-2.807,0.174-4.423-0.947-4.844c-1.547-0.56-3.758,0.81-6.635,4.107
			c-2.879,3.3-5.828,7.723-8.846,13.268c-3.021,5.549-5.896,11.867-8.635,18.955c-2.738,7.092-4.671,14.078-5.791,20.956
			c-1.123,0.7-2.562,0.77-4.318,0.21c-1.754-0.56-2.771-1.191-3.055-1.896c-0.138-1.964-0.031-4.877,0.315-8.74
			c0.353-3.859,0.844-8.141,1.476-12.847c0.633-4.703,1.368-9.616,2.211-14.743c0.844-5.123,1.721-9.968,2.633-14.531
			c0.916-4.562,1.791-8.636,2.633-12.216s1.613-6.141,2.316-7.688c0.561,0,1.297,0.353,2.211,1.054
			c0.912,0.704,1.791,1.579,2.633,2.632c0.844,1.054,1.58,2.179,2.213,3.37c0.631,1.194,1.016,2.212,1.158,3.054
			c-0.705,2.39-1.369,4.844-2.002,7.371c-0.631,2.527-1.299,5.055-2,7.582c2.104-3.791,4.387-7.266,6.844-10.425
			c2.455-3.159,4.949-5.825,7.477-8.003c2.527-2.176,5.056-3.686,7.582-4.528c2.527-0.842,5.056-0.843,7.582,0
			c2.388,0.843,3.757,2.948,4.107,6.318c0.35,3.369,0.139,7.338-0.631,11.899c-0.773,4.564-1.933,9.408-3.478,14.532
			c-1.547,5.127-3.053,9.898-4.526,14.321c-1.475,4.423-2.634,8.181-3.476,11.268c-0.844,3.09-0.916,4.844-0.211,5.265
			c0.422,0.283,1.297-0.559,2.633-2.527c1.332-1.964,2.912-4.527,4.738-7.687c1.822-3.159,3.791-6.635,5.896-10.426
			c2.106-3.791,4.069-7.371,5.897-10.74c1.822-3.37,3.369-6.282,4.633-8.741C458.428,222.425,459.27,220.914,459.692,220.352z"/>
	</g>
</g>
<g id="Nguyen">
	<g id="Calque_5">
	</g>
	<g enable-background="new    ">
		<path fill="#F0494A" d="M179.711,370.646c-0.566,1.696-1.77,3.146-3.605,4.348c-1.839,1.199-3.854,1.624-6.043,1.271
			c-2.192-0.354-4.276-1.662-6.255-3.923c-1.98-2.263-3.254-6.079-3.816-11.45c-0.285-2.406-0.53-6.256-0.742-11.558
			s-0.392-11.558-0.53-18.767c-0.143-7.211-0.318-15.021-0.53-23.434c-0.212-8.408-0.46-16.928-0.742-25.552
			c-0.284-8.622-0.603-16.965-0.953-25.022c-0.354-8.059-0.742-15.338-1.167-21.842c-4.241,11.735-8.164,23.293-11.77,34.671
			c-3.604,11.381-6.786,22.196-9.542,32.444c-2.757,10.251-5.056,19.721-6.892,28.415c-1.839,8.694-3.005,16.224-3.499,22.584
			c-0.497,6.36-0.285,11.451,0.636,15.269c0.918,3.816,2.651,5.864,5.195,6.148c-0.709,0.706-1.875,1.307-3.499,1.803
			c-1.627,0.494-3.323,0.494-5.089,0c-1.77-0.496-3.394-1.803-4.878-3.923c-1.483-2.121-2.512-5.514-3.074-10.179
			c-0.563-4.665-0.458-10.885,0.317-18.661c0.775-7.772,2.651-17.563,5.62-29.369c2.969-11.802,7.138-25.903,12.511-42.305
			c5.371-16.398,12.438-35.625,21.205-57.679c-0.709-2.402-1.415-3.605-2.121-3.605c0.425-0.563,1.448-1.06,3.075-1.484
			c1.624-0.424,3.394-0.105,5.302,0.954c1.907,1.061,3.604,3.254,5.089,6.574c1.483,3.323,2.227,8.376,2.227,15.162
			c0,2.544,0,7.104,0,13.677c0,6.574,0.069,14.175,0.212,22.796c0.14,8.625,0.389,17.813,0.742,27.567
			c0.351,9.755,0.812,19.158,1.378,28.203c0.563,9.049,1.342,17.281,2.333,24.703c0.987,7.423,2.19,13.111,3.605,17.07
			c0.281-3.959,1.023-9.966,2.227-18.023c1.199-8.059,2.684-17.141,4.453-27.249c1.766-10.104,3.711-20.744,5.832-31.914
			c2.121-11.166,4.241-21.875,6.362-32.126c2.119-10.248,4.135-19.542,6.043-27.886c1.907-8.339,3.499-14.701,4.771-19.084
			c0.139-0.425,0.706-0.282,1.696,0.424c0.988,0.709,2.015,1.696,3.075,2.969c1.06,1.272,2.047,2.687,2.969,4.241
			c0.917,1.557,1.448,3.041,1.59,4.453c-0.709,2.405-1.733,6.292-3.075,11.663c-1.345,5.374-2.863,11.593-4.56,18.66
			c-1.696,7.071-3.535,14.774-5.514,23.114c-1.98,8.343-3.923,16.72-5.832,25.128c-1.907,8.413-3.747,16.646-5.513,24.705
			c-1.77,8.059-3.359,15.305-4.771,21.735c-1.415,6.435-2.512,11.802-3.287,16.116C180.098,366.794,179.711,369.516,179.711,370.646
			z"/>
		<path fill="#F0494A" d="M257.956,306.184c0.424-0.849,1.023-1.484,1.803-1.908c0.775-0.424,1.484-0.563,2.121-0.424
			c0.636,0.143,1.06,0.496,1.271,1.06c0.212,0.567,0.106,1.346-0.317,2.333c-3.679,8.482-8.201,16.328-13.571,23.538
			c-5.375,7.21-10.746,13.782-16.116,19.721c-0.709,3.254-1.345,6.397-1.909,9.437c-0.565,3.039-1.133,5.76-1.695,8.164
			c-1.133,5.515-2.863,9.756-5.195,12.725s-4.808,4.877-7.422,5.727c-2.618,0.848-5.021,0.774-7.21-0.213
			c-2.193-0.99-3.711-2.617-4.56-4.878c-0.848-2.263-0.709-5.089,0.425-8.481c1.13-3.394,3.744-7.07,7.846-11.026
			c1.13-0.99,2.26-2.051,3.393-3.181c1.131-1.133,2.261-2.26,3.394-3.394c-2.969,1.839-5.938,2.472-8.906,1.908
			c-4.241-0.849-7.389-3.319-9.437-7.422c-2.048-4.099-3.215-8.906-3.499-14.42c-0.282-5.515,0.249-11.378,1.59-17.601
			c1.345-6.22,3.25-11.803,5.726-16.752c2.473-4.947,5.44-8.906,8.906-11.875c3.462-2.97,7.173-4.029,11.133-3.182
			c2.121,0.424,3.956,1.378,5.513,2.861c1.555,1.484,2.826,3.359,3.817,5.619c0.424-2.119,0.775-3.955,1.062-5.513
			c0.281-1.555,0.563-2.685,0.848-3.394c0.563-0.139,1.271,0.143,2.121,0.849c0.848,0.709,1.66,1.558,2.438,2.545
			c0.775,0.99,1.484,2.087,2.121,3.286c0.636,1.203,1.024,2.227,1.167,3.075c-0.566,2.12-1.203,4.808-1.909,8.058
			c-0.709,3.254-1.483,6.822-2.333,10.709c-0.848,3.891-1.695,7.988-2.545,12.299c-0.848,4.314-1.695,8.662-2.544,13.043
			c3.817-4.522,7.667-9.506,11.558-14.951C250.922,319.085,254.563,312.969,257.956,306.184z M213.425,349.441
			c2.26,0.709,4.38-0.032,6.362-2.227c1.978-2.189,3.711-5.123,5.194-8.801c1.484-3.675,2.65-7.773,3.499-12.299
			c0.85-4.523,1.342-8.834,1.484-12.936c0.14-4.1-0.179-7.599-0.954-10.498c-0.778-2.896-2.087-4.559-3.923-4.982
			c-1.839-0.424-3.678,0.461-5.514,2.65c-1.84,2.193-3.499,5.127-4.983,8.801c-1.484,3.678-2.757,7.707-3.817,12.086
			c-1.06,4.385-1.695,8.59-1.907,12.617c-0.213,4.029,0,7.496,0.636,10.393C210.138,347.146,211.443,348.879,213.425,349.441z
			 M222.331,369.163c0.281-1.134,0.6-2.513,0.954-4.136c0.352-1.627,0.669-3.359,0.954-5.194c-1.271,1.411-2.475,2.685-3.604,3.815
			c-1.133,1.131-2.193,2.19-3.181,3.182c-2.83,2.969-4.314,5.439-4.453,7.422c-0.144,1.979,0.317,3.214,1.378,3.711
			c1.061,0.494,2.438,0.07,4.135-1.271C220.21,375.346,221.483,372.838,222.331,369.163z"/>
		<path fill="#F0494A" d="M314.998,305.759c0.425-0.849,1.023-1.378,1.802-1.591c0.774-0.212,1.483-0.212,2.121,0
			c0.637,0.213,1.061,0.673,1.272,1.379c0.211,0.709,0.105,1.557-0.317,2.545c-1.134,2.405-2.65,5.338-4.562,8.801
			c-1.908,3.465-3.994,7.069-6.254,10.813c-2.264,3.748-4.596,7.459-6.998,11.133c-2.406,3.679-4.703,6.929-6.893,9.755
			c-2.193,2.829-4.207,5.09-6.043,6.786c-1.84,1.696-3.254,2.401-4.242,2.12c-1.133-0.281-1.908-1.271-2.332-2.969
			s-0.566-3.956-0.424-6.786c-1.982,4.666-4.49,7.952-7.527,9.86c-3.042,1.908-6.117,2.508-9.225,1.803
			c-3.959-0.848-6.893-3.674-8.8-8.481c-1.908-4.805-2.896-10.741-2.97-17.813c-0.068-7.067,0.709-14.771,2.333-23.113
			c1.624-8.34,4.063-16.468,7.316-24.387c0.706,0,1.59,0.392,2.651,1.167c1.06,0.777,2.12,1.695,3.181,2.756
			s2.015,2.088,2.863,3.074c0.849,0.99,1.342,1.771,1.483,2.334c-1.133,2.687-2.333,5.904-3.604,9.648
			c-1.272,3.746-2.405,7.633-3.394,11.662c-0.991,4.028-1.77,8.024-2.333,11.98c-0.565,3.96-0.884,7.563-0.954,10.813
			c-0.072,3.255,0.212,6.011,0.849,8.271c0.636,2.263,1.803,3.678,3.499,4.241c1.978,0.709,3.923-0.389,5.831-3.287
			c1.907-2.896,3.743-6.713,5.514-11.451c1.766-4.734,3.393-9.967,4.877-15.691s2.896-11.097,4.242-16.115
			c1.342-5.018,2.471-9.258,3.393-12.725c0.918-3.462,1.729-5.266,2.438-5.406c0.141-0.425,0.637-0.352,1.483,0.211
			c0.851,0.566,1.697,1.379,2.545,2.438c0.851,1.062,1.625,2.264,2.334,3.604c0.705,1.346,1.06,2.725,1.06,4.135
			c-0.144,0.85-0.636,2.65-1.484,5.408c-0.848,2.756-1.838,5.975-2.969,9.647c-1.133,3.679-2.262,7.528-3.393,11.558
			c-1.134,4.028-2.156,7.776-3.074,11.238c-0.922,3.467-1.627,6.362-2.121,8.694c-0.496,2.333-0.529,3.571-0.105,3.711
			c0.425,0.144,1.343-0.705,2.757-2.544c1.411-1.836,3.075-4.205,4.983-7.104c1.908-2.896,3.922-6.113,6.043-9.648
			c2.121-3.532,4.1-6.855,5.938-9.967c1.836-3.107,3.427-5.832,4.771-8.164C313.902,307.773,314.714,306.325,314.998,305.759z"/>
		<path fill="#F0494A" d="M368.859,305.971c0.424-0.848,1.023-1.447,1.803-1.803c0.775-0.352,1.484-0.493,2.12-0.424
			c0.638,0.072,1.095,0.424,1.379,1.061c0.281,0.637,0.212,1.451-0.213,2.438c-3.678,8.481-8.235,16.327-13.677,23.538
			c-5.444,7.21-10.852,13.783-16.223,19.721c-1.272,6.93-2.476,12.725-3.604,17.389c-0.991,5.09-2.581,8.977-4.771,11.664
			c-2.193,2.684-4.526,4.416-6.998,5.194c-2.476,0.774-4.809,0.742-6.998-0.106c-2.193-0.848-3.711-2.332-4.56-4.453
			c-0.849-2.119-0.814-4.771,0.105-7.951c0.918-3.182,3.287-6.609,7.104-10.284c1.272-1.272,2.685-2.617,4.241-4.029
			c1.554-1.411,3.107-2.896,4.665-4.452c-1.839,1.558-3.748,2.688-5.726,3.394c-1.981,0.704-3.96,0.848-5.938,0.424
			c-3.96-0.849-6.892-3.567-8.801-8.164c-1.908-4.593-2.896-10.285-2.969-17.069c-0.069-6.787,0.709-14.242,2.333-22.373
			c1.624-8.127,4.063-16.148,7.314-24.067c0.706,0,1.591,0.425,2.651,1.272c1.06,0.848,2.12,1.803,3.181,2.862
			c1.062,1.06,2.016,2.12,2.862,3.181c0.849,1.061,1.342,1.875,1.484,2.438c-1.84,4.103-3.642,9.085-5.407,14.95
			c-1.771,5.867-3.111,11.557-4.029,17.07c-0.921,5.512-1.202,10.391-0.848,14.631c0.352,4.24,1.803,6.717,4.347,7.422
			c1.412,0.425,2.934,0.213,4.561-0.637c1.623-0.848,3.181-2.227,4.665-4.135c1.483-1.908,2.862-4.24,4.135-6.998
			c1.271-2.757,2.333-5.759,3.182-9.013c0.849-4.946,1.659-9.754,2.438-14.419c0.774-4.665,1.518-8.939,2.227-12.83
			c0.705-3.887,1.305-7.209,1.802-9.966c0.494-2.757,0.882-4.698,1.167-5.832c0.563-0.14,1.272,0.143,2.12,0.849
			c0.85,0.709,1.66,1.559,2.438,2.545c0.774,0.99,1.483,2.088,2.121,3.286c0.636,1.203,1.022,2.228,1.166,3.075
			c-0.566,2.12-1.203,4.809-1.908,8.059c-0.709,3.254-1.451,6.821-2.228,10.709c-0.778,3.89-1.627,7.987-2.545,12.299
			c-0.921,4.313-1.803,8.66-2.649,13.041c3.956-4.521,7.846-9.543,11.663-15.056C361.861,318.906,365.466,312.757,368.859,305.971z
			 M333.446,368.951c0.424-2.405,0.987-5.444,1.696-9.118c-1.272,1.271-2.475,2.472-3.604,3.604
			c-1.134,1.129-2.192,2.26-3.182,3.393c-2.829,2.969-4.313,5.439-4.453,7.422c-0.142,1.979,0.318,3.214,1.379,3.711
			c1.062,0.494,2.438,0.07,4.136-1.271C331.113,375.346,332.453,372.768,333.446,368.951z M336.838,349.654
			c-0.285,0.283-0.46,0.496-0.53,0.636c-0.072,0.144-0.248,0.285-0.529,0.424c0.281-0.139,0.457-0.28,0.529-0.424
			c0.07-0.14,0.245-0.281,0.53-0.424V349.654z"/>
		<path fill="#F0494A" d="M416.359,305.971c0.987-1.836,2.228-2.545,3.711-2.119c1.484,0.424,1.941,1.483,1.378,3.181
			c-1.133,2.687-2.688,5.831-4.665,9.437c-1.98,3.604-4.241,7.352-6.786,11.238c-2.544,3.891-5.268,7.74-8.164,11.559
			c-2.897,3.815-5.866,7.14-8.905,9.965c-3.041,2.83-6.043,5.021-9.013,6.574c-2.969,1.558-5.799,2.12-8.481,1.696
			c-4.241-0.706-7.495-3.075-9.755-7.104c-2.26-4.028-3.604-8.834-4.028-14.42c-0.425-5.582,0-11.483,1.271-17.707
			c1.271-6.219,3.254-11.875,5.938-16.963c2.685-5.091,5.971-9.151,9.861-12.193c3.886-3.038,8.303-4.135,13.253-3.287
			c3.393,0.566,5.9,2.121,7.527,4.666c1.623,2.544,2.509,5.654,2.65,9.33c0.14,3.678-0.424,7.74-1.696,12.193
			c-1.271,4.453-3.146,8.905-5.619,13.358c-2.476,4.453-5.479,8.661-9.013,12.617c-3.535,3.959-7.495,7.282-11.875,9.967
			c0.563,0.565,1.094,0.954,1.59,1.166c0.494,0.212,1.095,0.46,1.804,0.742c2.684,0.565,5.938-0.775,9.755-4.029
			c3.815-3.25,7.598-7.243,11.345-11.981c3.744-4.733,7.243-9.717,10.497-14.948C412.187,313.678,414.66,309.363,416.359,305.971z
			 M388.79,296.43c-1.271,0-2.969,1.695-5.09,5.088c-2.12,3.394-4.207,7.496-6.255,12.299c-2.051,4.809-3.784,9.723-5.195,14.738
			c-1.414,5.021-1.908,9.225-1.483,12.617c4.099-2.969,7.561-6.961,10.391-11.98c2.826-5.017,4.983-9.967,6.468-14.844
			s2.332-9.082,2.545-12.617C390.382,298.197,389.921,296.43,388.79,296.43z"/>
		<path fill="#F0494A" d="M467.248,305.335c0.563-0.706,1.199-1.167,1.908-1.379c0.706-0.212,1.379-0.212,2.016,0
			s1.061,0.673,1.271,1.379c0.212,0.709,0.033,1.558-0.53,2.544c-1.271,2.406-2.861,5.408-4.771,9.014
			c-1.908,3.604-3.959,7.422-6.149,11.45c-2.192,4.028-4.488,8.058-6.892,12.087c-2.405,4.029-4.738,7.602-6.998,10.709
			c-2.263,3.111-4.347,5.514-6.255,7.211c-1.909,1.695-3.43,2.26-4.561,1.695c-2.545-1.134-4.028-3.355-4.452-6.68
			c-0.425-3.32-0.285-7.139,0.424-11.451c0.706-4.311,1.767-8.906,3.181-13.783c1.412-4.878,2.721-9.363,3.924-13.466
			c1.199-4.099,2.047-7.562,2.544-10.392c0.494-2.825,0.177-4.453-0.954-4.877c-1.558-0.563-3.783,0.814-6.68,4.136
			c-2.898,3.323-5.868,7.776-8.906,13.358c-3.042,5.586-5.938,11.948-8.693,19.086c-2.757,7.141-4.701,14.174-5.831,21.1
			c-1.13,0.705-2.578,0.775-4.349,0.212c-1.766-0.563-2.79-1.199-3.073-1.908c-0.141-1.979-0.033-4.911,0.316-8.801
			c0.354-3.888,0.85-8.197,1.484-12.937c0.637-4.733,1.379-9.682,2.227-14.844c0.85-5.158,1.733-10.035,2.651-14.632
			c0.921-4.592,1.802-8.694,2.65-12.299c0.848-3.604,1.624-6.183,2.333-7.74c0.563,0,1.305,0.354,2.227,1.062
			c0.917,0.709,1.802,1.591,2.65,2.649c0.848,1.062,1.59,2.193,2.227,3.394c0.636,1.203,1.023,2.228,1.166,3.074
			c-0.709,2.405-1.378,4.877-2.015,7.422s-1.31,5.09-2.016,7.635c2.121-3.816,4.417-7.315,6.894-10.496
			c2.472-3.182,4.982-5.865,7.526-8.059c2.545-2.189,5.091-3.711,7.635-4.56c2.545-0.849,5.09-0.849,7.635,0
			c2.4,0.849,3.78,2.97,4.135,6.36c0.353,3.394,0.139,7.39-0.637,11.981c-0.778,4.597-1.944,9.474-3.498,14.632
			c-1.559,5.162-3.075,9.967-4.561,14.42c-1.484,4.453-2.649,8.236-3.499,11.346c-0.848,3.109-0.921,4.877-0.212,5.301
			c0.425,0.285,1.307-0.563,2.65-2.545c1.342-1.979,2.933-4.559,4.771-7.739c1.836-3.182,3.817-6.68,5.938-10.497
			c2.121-3.816,4.099-7.422,5.938-10.814c1.837-3.394,3.394-6.324,4.665-8.801C465.977,307.422,466.824,305.9,467.248,305.335z"/>
		<path fill="#F0494A" d="M472.972,366.618c0.143,0-0.106,0.706-0.742,2.121c-0.636,1.411-1.378,2.896-2.227,4.452
			c-0.85,1.555-1.729,3.002-2.65,4.348c-0.918,1.342-1.591,2.016-2.015,2.016c-3.108-0.566-8.87-1.027-17.282-1.379
			c-8.409-0.355-18.588-0.637-30.536-0.849c-11.944-0.212-25.198-0.392-39.761-0.53c-14.56-0.143-29.509-0.248-44.85-0.318
			c-15.338-0.071-30.643-0.104-45.909-0.104c-15.269,0-29.615,0.069-43.047,0.212c-13.43,0.139-25.48,0.281-36.155,0.424
			c-10.672,0.141-19.049,0.282-25.128,0.426c-0.282,0-0.318-0.355-0.106-1.062c0.212-0.709,0.567-1.415,1.062-2.121
			c0.497-0.709,1.026-1.414,1.59-2.12c0.565-0.709,1.06-1.061,1.483-1.061c7.92-1.133,17.886-2.12,29.9-2.969
			c12.017-0.849,25.201-1.558,39.548-2.121c14.351-0.565,29.406-1.026,45.167-1.379c15.765-0.354,31.352-0.565,46.758-0.635
			c15.411-0.074,30.255-0.074,44.532,0c14.28,0.068,27.036,0.211,38.275,0.424c11.238,0.211,20.604,0.529,28.098,0.953
			C466.471,365.771,471.136,366.193,472.972,366.618z"/>
	</g>
</g>
</svg>
