<?xml version="1.0" encoding="utf-8"?>
<!-- Generator: Adobe Illustrator 16.0.0, SVG Export Plug-In . SVG Version: 6.00 Build 0)  -->
<!DOCTYPE svg PUBLIC "-//W3C//DTD SVG 1.1//EN" "http://www.w3.org/Graphics/SVG/1.1/DTD/svg11.dtd">
<svg version="1.1" id="Calque_1" xmlns="http://www.w3.org/2000/svg" xmlns:xlink="http://www.w3.org/1999/xlink" x="0px" y="0px"
	 width="600px" height="550px" viewBox="0 0 600 550" enable-background="new 0 0 600 550" xml:space="preserve">
<g id="Cercle">
	<g>
		<circle fill="#00AEEF" cx="350.5" cy="74.5" r="50"/>
		<circle fill="#F0494A" cx="230" cy="498.5" r="50"/>
		<ellipse fill="none" cx="289" cy="290" rx="222" ry="215.5"/>
		<g enable-background="new    ">
			<path d="M500.105,133.067c-3.414,2.344-6.295,4.299-8.595,5.83c-2.3,1.53-4.503,2.99-6.789,4.437
				c-2.204,1.461-3.908,2.482-5.116,3.067c-2.33,1.182-4.609,2.028-6.801,2.589c-2.143,0.524-4.092,0.907-5.918,1.052
				c-0.961,0.107-1.979,0.035-3.035-0.086c-1.005-0.158-1.893-0.252-2.73-0.384c-0.838-0.13-1.783-0.407-2.883-0.792l-1.728-1.859
				c1.935,0.817,4.136,1.289,6.559,1.452c2.421,0.163,4.464,0.009,6.055-0.559c1.675-0.555,3.544-1.251,5.667-2.207
				c1.064-0.478,2.914-1.606,5.504-3.35c2.639-1.778,5.242-3.605,7.908-5.552c2.748-1.932,6.224-4.396,10.391-7.439L500.105,133.067
				z M485.484,142.852l13.21,11.377c-1.171,1.449-2.505,2.572-3.981,3.501c-1.475,0.929-3.516,1.899-6.072,2.874
				c-2.557,0.976-5.348,1.528-8.527,1.547c-1.633,0.004-3.322-0.174-5.203-0.51c-1.795-0.323-3.41-0.704-4.929-1.155
				c-1.482-0.403-3.155-0.966-5.103-1.697c0.098-0.071,0.262,0.255,0.589,0.907s0.553,0.859,0.649,0.789
				c0.098-0.071,0.658,0.188,1.646,0.729c1.073,0.553,2.35,1.182,3.926,1.814c1.659,0.645,3.451,1.268,5.424,1.833
				c2.057,0.579,3.867,0.817,5.715,0.806c1.848-0.013,4.049-0.356,6.48-1.094c2.518-0.723,4.785-1.486,6.98-2.347
				c2.229-0.812,4.908-2.024,8.047-3.425c0.656-0.627,1.119-1.113,1.365-1.591c0.28-0.429,0.514-0.821,0.495-1.253
				c0.065-0.42-0.183-0.758-0.792-0.982c-0.644-0.272-1.881-1.152-3.842-2.617c-1.877-1.451-3.777-3.037-5.797-4.683
				c-1.97-1.682-4.559-3.802-7.704-6.483L485.484,142.852z M483.1,144.369c-0.883,1.536-1.622,2.967-2.166,4.256
				c-0.545,1.289-1.08,2.795-1.605,4.516c-0.526,1.722-0.885,3.469-1.004,5.34c-0.204,1.856-0.17,3.838,0.055,5.977
				c0.309,2.151,0.643,4.137,1.004,5.953c0.445,1.829,1.066,3.902,1.803,6.335l4.578,4.234c0.035,0.048-0.643-1.388-1.936-4.38
				c-0.35-0.785-0.697-1.869-1.074-3.303c-0.294-1.42-0.646-3.02-0.983-4.705c-0.29-1.719-0.545-3.391-0.751-5.098
				c-0.123-1.693-0.271-3.219-0.326-4.516s0.145-2.855,0.564-4.721c0.455-1.818,0.98-3.54,1.543-5.213
				c0.596-1.625,1.426-3.642,2.393-5.981L483.1,144.369z M478.277,162.08l3.063,3.482l-0.411-3.412l-1.249,0.02L478.277,162.08z
				 M478.277,162.08l0.123,1.693l1.67,1.678l1.306,0.16L478.277,162.08z M478.561,165.215l0.588,0.092l0.922,0.145l-1.67-1.678
				L478.561,165.215z M522.133,148.481c-1.131-0.734-2.346-1.482-3.56-2.23c-1.167-0.782-2.06-1.393-2.747-1.93
				c-0.689-0.537-1.972-1.682-4.012-3.46c-1.958-1.766-3.902-3.614-5.966-5.524c-2.016-1.945-4.601-4.367-7.741-7.348l1.998,5.078
				l21.361,20.506l5.108-2.467C524.801,150.098,523.348,149.228,522.133,148.481z"/>
		</g>
		<g enable-background="new    ">
			<path d="M507.164,166.308c1.505,0.535,2.749,0.814,3.865,0.816c1.199,0.016,2.289,0.186,3.354,0.523s1.871,0.936,2.279,1.901
				c0.492,0.978,0.232,1.538-0.755,1.813c-0.495,0.139-1.253,0.32-2.394,0.486c-1.059,0.178-2.299,0.414-3.621,0.637
				c-1.322,0.224-2.563,0.459-3.911,0.851c-1.301,0.354-2.398,0.786-3.28,1.206c-0.881,0.421-1.92,1.031-3.128,1.615
				c-1.173,0.634-2.226,1.328-3.339,2.143c-1.031,0.826-1.99,1.75-2.846,2.819c-0.77,1.082-1.301,2.287-1.51,3.628
				c-0.209,1.342-0.141,2.555,0.144,3.759c0.368,1.217,0.812,2.229,1.484,3.15c0.756,0.935,1.552,1.616,2.442,2.228
				c0.978,0.625,1.859,1.02,2.697,1.15c1.678,0.262,3.529-0.05,5.438-0.998c1.992-0.935,3.504-1.815,4.57-2.594
				c0.533-0.389,1.227-1.268,2.072-2.553c0.928-1.273,1.785-2.642,2.691-4.047c0.955-1.439,1.848-2.76,2.561-4.023
				c0.76-1.298,1.274-2.119,1.494-2.429c0.418-0.751,0.924-0.972,1.641-0.603c0.715,0.369,0.99,1.356,0.825,2.963
				c-0.082,0.803-0.274,1.76-0.589,2.957c-0.281,1.244-0.548,2.404-0.828,3.648c-0.23,1.209-0.352,2.264-0.475,3.318
				c-0.037,1.067,0.062,1.813,0.345,2.2c0.601,0.823,0.881,1.511,0.644,2.205c-0.153,0.706-0.47,1.085-0.832,1.2
				c-0.36,0.115-0.855,0.254-1.454,0.246c-0.565,0.041-1.108-0.602-1.693-1.81c-0.292-0.604-0.439-1.313-0.476-2.179
				c0.047-0.852,0.08-1.619,0.211-2.457c0.166-0.789,0.443-1.734,0.744-2.847l0.91-3.636c-0.879,1.236-1.345,2.022-1.42,2.226
				c-0.074,0.202-0.422,1.05-1.186,2.648c-0.681,1.611-1.6,3.101-2.771,4.55c-0.585,0.724-1.339,1.422-2.438,2.152
				c-1.02,0.742-2.155,1.424-3.363,2.008c-1.207,0.586-2.27,1.063-3.451,1.48c-1.133,0.382-2.07,0.621-2.852,0.671
				c-0.865,0.038-1.857-0.203-3.219-0.845c-1.324-0.593-2.645-1.485-3.926-2.631c-1.281-1.145-2.319-2.465-3.259-4.156
				c-0.902-1.645-1.298-3.51-1.188-5.596c0.076-2.135,0.435-3.883,1.102-5.41c0.703-1.479,1.535-2.682,2.424-3.701
				c0.973-1.008,1.92-1.848,2.875-2.472c1.041-0.61,1.852-1.128,2.552-1.491c0.653-0.328,1.735-0.674,3.421-1.013
				c1.72-0.289,3.439-0.579,5.195-0.821c1.754-0.241,3.342-0.509,4.736-0.635c1.441-0.162,2.235-0.296,2.395-0.486
				c0.158-0.189-0.284-0.388-1.41-0.605c-1.076-0.254-2.285-0.485-3.794-0.721c-1.425-0.223-2.767-0.432-4.192-0.653
				c-1.341-0.21-2.299-0.401-2.873-0.577c-1.063-0.338-1.5-0.835-1.348-1.541c0.237-0.693,0.783-1.166,1.674-1.371
				c0.891-0.204,1.945-0.083,3.045,0.303C504.355,165.312,505.658,165.773,507.164,166.308z"/>
		</g>
		<g enable-background="new    ">
			<path d="M497.181,210.926c5.042-2.047,9.168-3.723,12.245-5.003c3.16-1.268,6.056-2.49,8.783-3.74
				c2.813-1.235,4.443-2.055,4.927-2.409c0.484-0.354,1.079-0.861,1.758-1.356c0.728-0.531,1.454-1.062,2.132-1.557
				c0.727-0.531,1.393-0.942,1.938-1.415c0.581-0.425,0.981-0.792,1.105-1.031c0.123-0.238,0.365-0.414,0.753-0.697
				c0.423-0.234,0.832-0.385,1.194-0.502c0.396-0.066,0.745-0.098,1.019,0.074c0.357,0.184,0.474,0.545,0.43,1.098
				c-0.078,0.502-0.434,1.134-1.081,1.979c-0.563,0.855-1.378,1.674-2.241,2.526c-0.826,0.901-1.676,1.671-2.646,2.379
				c-0.886,0.72-1.695,1.237-2.348,1.565c-0.653,0.328-2.257,0.979-4.646,1.98c-2.39,1.002-4.959,2.061-7.709,3.178
				s-5.223,2.105-7.682,3.01c-2.412,0.869-3.955,1.401-4.652,1.465c-1.455,0.244-2.332,0.365-2.668,0.313s-0.658-0.188-0.967-0.409
				c-0.261-0.254-0.342-0.567-0.156-0.926C496.891,211.139,497.049,210.949,497.181,210.926z M517.065,196.853
				c0.066,0.397,0.43,1.097,1.198,1.948c0.805,0.897,1.693,1.809,2.688,2.865c1.043,1.021,2.038,2.078,3.02,3.219
				c1.064,1.154,1.857,2.136,2.375,2.947c0.469,0.846,0.938,1.691,1.479,2.635c0.539,0.941,0.947,1.907,1.222,2.896
				c0.312,1.036,0.454,2.046,0.381,3.065c0.011,1.031-0.361,2.047-1.035,3.059c-0.708,0.963-1.633,1.935-2.725,2.881
				c-1.093,0.945-2.207,1.76-3.44,2.512c-1.234,0.752-2.405,1.385-3.516,1.899c-1.111,0.514-2.028,0.886-2.822,1.02
				c-1.552,0.316-2.884,0.323-4.08,0.008c-1.147-0.351-1.727-1.042-1.725-2.157c0.004-1.117,0.35-1.965,0.983-2.725
				c0.669-0.711,1.277-1.304,1.726-1.705c0.449-0.402,0.418-0.751-0.156-0.926c-0.574-0.176-1.199-0.017-1.878,0.479
				c-0.679,0.496-1.444,1.277-2.324,2.516c-0.88,1.236-0.944,2.472-0.288,3.776c0.752,1.233,1.893,2.185,3.588,2.878
				c1.779,0.706,3.648,0.826,5.659,0.324c0.987-0.275,2.218-0.728,3.69-1.357c1.506-0.58,3.005-1.377,4.48-2.307
				c1.524-0.964,2.93-1.99,4.109-3.223c1.264-1.221,2.121-2.59,2.595-3.975c0.878-2.869,0.97-5.389,0.206-7.654
				c-0.728-2.218-1.958-4.513-3.705-6.804c-1.746-2.29-3.497-4.28-5.371-6.032c-1.837-1.704-2.928-2.69-3.238-2.91
				c-0.309-0.22-1.135-0.434-2.309-0.617C517.178,195.582,516.932,196.059,517.065,196.853z M523.779,199.231l-0.644,0.543
				l-0.291,0.213l-0.374,0.199l-1.908,0.947l2.463,2.66l2.124-0.957l0.798-0.434l0.436-0.318l-1.207-1.348L523.779,199.231z
				 M536.115,207.681c0.402,2.381,0.701,4.317,0.898,5.808c0.195,1.49,0.357,2.933,0.484,4.326c0.126,1.394,0.149,2.342,0.035,2.797
				c-0.275,0.944-0.486,1.469-0.596,1.624c-0.027,0.167-0.247,0.477-0.576,0.94c-0.33,0.464-0.646,0.844-0.965,1.225
				c-0.268,0.344-0.007,0.6,0.734,0.801c0.742,0.201,1.367,0.041,1.984-0.334c0.652-0.329,1.246-0.836,1.854-1.429
				s0.902-1.104,1.008-1.775c0.139-0.622,0.187-1.474,0.008-2.532c-0.088-0.529-0.236-1.239-0.512-2.227s-0.55-1.975-0.826-2.963
				c-0.275-0.987-0.479-1.878-0.781-2.697c-0.218-0.807-0.355-1.301-0.399-1.565c-0.187-0.458-0.253-0.855-0.294-1.419
				c0.043-0.553-0.072-0.914-0.213-1.107c-0.143-0.194-0.535-0.427-1.158-0.566C536.264,207.275,536.079,207.632,536.115,207.681z"
				/>
		</g>
		<g enable-background="new    ">
			<path d="M507.705,243.987c5.043-2.047,9.168-3.723,12.244-5.003c3.16-1.268,6.057-2.49,8.785-3.74
				c2.812-1.235,4.441-2.055,4.926-2.409c0.484-0.354,1.08-0.861,1.758-1.356c0.727-0.531,1.453-1.062,2.132-1.557
				c0.728-0.531,1.392-0.942,1.938-1.415c0.581-0.425,0.982-0.792,1.105-1.031c0.123-0.238,0.365-0.414,0.752-0.697
				c0.424-0.234,0.834-0.385,1.195-0.502c0.396-0.066,0.744-0.098,1.019,0.074c0.356,0.184,0.474,0.545,0.431,1.098
				c-0.08,0.502-0.435,1.134-1.082,1.979c-0.563,0.855-1.377,1.674-2.24,2.526c-0.828,0.901-1.678,1.671-2.646,2.379
				c-0.885,0.72-1.695,1.237-2.348,1.565c-0.653,0.328-2.258,0.979-4.646,1.98c-2.39,1.002-4.958,2.061-7.71,3.178
				c-2.75,1.117-5.223,2.105-7.682,3.01c-2.411,0.869-3.955,1.401-4.65,1.465c-1.457,0.244-2.334,0.365-2.668,0.313
				c-0.336-0.052-0.658-0.188-0.968-0.409c-0.261-0.254-0.341-0.567-0.156-0.926C507.414,244.199,507.572,244.01,507.705,243.987z
				 M527.59,229.913c0.066,0.397,0.43,1.097,1.198,1.948c0.805,0.897,1.694,1.809,2.688,2.865c1.043,1.021,2.037,2.078,3.019,3.219
				c1.065,1.154,1.856,2.136,2.374,2.947c0.469,0.846,0.939,1.691,1.479,2.635c0.54,0.941,0.947,1.907,1.223,2.896
				c0.312,1.036,0.454,2.046,0.381,3.065c0.011,1.031-0.361,2.047-1.035,3.059c-0.708,0.963-1.633,1.935-2.725,2.881
				c-1.093,0.945-2.207,1.76-3.44,2.512s-2.405,1.385-3.517,1.899c-1.109,0.514-2.027,0.886-2.82,1.02
				c-1.553,0.316-2.885,0.323-4.08,0.008c-1.148-0.351-1.728-1.042-1.725-2.157c0.002-1.117,0.349-1.965,0.982-2.725
				c0.669-0.711,1.277-1.304,1.727-1.705c0.448-0.402,0.418-0.751-0.156-0.926c-0.574-0.176-1.2-0.017-1.879,0.479
				c-0.678,0.496-1.443,1.277-2.324,2.516c-0.879,1.236-0.943,2.472-0.289,3.776c0.753,1.233,1.893,2.185,3.588,2.878
				c1.779,0.706,3.65,0.826,5.66,0.324c0.988-0.275,2.217-0.728,3.689-1.357c1.508-0.58,3.006-1.377,4.481-2.307
				c1.524-0.964,2.931-1.99,4.11-3.223c1.264-1.221,2.121-2.59,2.594-3.975c0.877-2.869,0.969-5.389,0.206-7.654
				c-0.728-2.218-1.958-4.513-3.704-6.804c-1.746-2.29-3.498-4.28-5.371-6.032c-1.838-1.704-2.93-2.69-3.239-2.91
				s-1.134-0.434-2.308-0.617C527.702,228.643,527.455,229.119,527.59,229.913z M534.303,232.291l-0.643,0.543l-0.291,0.213
				l-0.374,0.199l-1.908,0.947l2.462,2.66l2.125-0.957l0.797-0.434l0.437-0.318l-1.207-1.348L534.303,232.291z M546.639,240.741
				c0.403,2.381,0.701,4.317,0.898,5.808s0.359,2.933,0.484,4.326c0.127,1.394,0.15,2.342,0.036,2.797
				c-0.276,0.944-0.486,1.469-0.596,1.624c-0.026,0.167-0.247,0.477-0.577,0.94s-0.646,0.844-0.963,1.225
				c-0.27,0.344-0.008,0.6,0.733,0.801s1.368,0.041,1.983-0.334c0.653-0.329,1.248-0.836,1.855-1.429s0.902-1.104,1.006-1.775
				c0.141-0.622,0.188-1.474,0.01-2.532c-0.09-0.529-0.236-1.239-0.513-2.227c-0.274-0.987-0.55-1.975-0.826-2.963
				c-0.274-0.987-0.479-1.878-0.781-2.697c-0.218-0.807-0.354-1.301-0.399-1.565c-0.186-0.458-0.253-0.855-0.294-1.419
				c0.044-0.553-0.071-0.914-0.214-1.107c-0.141-0.194-0.535-0.427-1.157-0.566C546.789,240.335,546.604,240.693,546.639,240.741z"
				/>
		</g>
		<circle fill="#FFFFFF" stroke="#000000" stroke-width="4" stroke-miterlimit="10" cx="289.5" cy="293" r="217.5"/>
	</g>
</g>
<g id="Kevin">
	<text transform="matrix(1 0 0 1 220.4443 272.1614)" font-family="'Stardust'" font-size="210.6092">Kevin</text>
</g>
<g id="Nguyen">
	<g id="Calque_5">
	</g>
	<text transform="matrix(1 0 0 1 112.4897 357.5002)" fill="#F0494A" font-family="'Stardust'" font-size="212.0544">Nguyen &gt;</text>
</g>
</svg>
