<?xml version="1.0" encoding="utf-8"?>
<!-- Generator: Adobe Illustrator 16.0.0, SVG Export Plug-In . SVG Version: 6.00 Build 0)  -->
<!DOCTYPE svg PUBLIC "-//W3C//DTD SVG 1.1//EN" "http://www.w3.org/Graphics/SVG/1.1/DTD/svg11.dtd">
<svg version="1.1" id="Calque_1" xmlns="http://www.w3.org/2000/svg" xmlns:xlink="http://www.w3.org/1999/xlink" x="0px" y="0px"
	 width="600px" height="550px" viewBox="0 0 600 550" enable-background="new 0 0 600 550" xml:space="preserve">
<g id="Cercle">
	<g>
		<circle fill="#00AEEF" cx="350.5" cy="74.5" r="50"/>
		<circle fill="#F0494A" cx="230" cy="498.5" r="50"/>
		<ellipse fill="none" cx="289" cy="290" rx="222" ry="215.5"/>
		<g enable-background="new    ">
			<path d="M500.105,133.067c-3.414,2.344-6.295,4.299-8.595,5.83c-2.3,1.53-4.503,2.99-6.789,4.437
				c-2.204,1.461-3.908,2.482-5.116,3.067c-2.33,1.182-4.609,2.028-6.801,2.589c-2.144,0.524-4.092,0.907-5.918,1.052
				c-0.961,0.107-1.979,0.035-3.035-0.086c-1.005-0.158-1.894-0.252-2.73-0.384c-0.838-0.13-1.782-0.407-2.883-0.792l-1.728-1.859
				c1.935,0.817,4.136,1.289,6.559,1.452c2.421,0.163,4.464,0.009,6.055-0.559c1.676-0.555,3.545-1.251,5.667-2.207
				c1.064-0.478,2.914-1.606,5.505-3.35c2.639-1.778,5.241-3.605,7.907-5.552c2.748-1.932,6.225-4.396,10.392-7.439L500.105,133.067
				z M485.484,142.852l13.21,11.377c-1.171,1.449-2.505,2.572-3.98,3.501s-3.517,1.899-6.072,2.874
				c-2.557,0.976-5.348,1.528-8.527,1.547c-1.633,0.004-3.321-0.174-5.203-0.51c-1.795-0.323-3.409-0.704-4.929-1.155
				c-1.481-0.403-3.155-0.966-5.103-1.697c0.098-0.071,0.262,0.255,0.589,0.907c0.327,0.652,0.553,0.859,0.648,0.789
				c0.099-0.071,0.658,0.188,1.646,0.729c1.073,0.553,2.35,1.182,3.926,1.814c1.659,0.645,3.451,1.268,5.424,1.833
				c2.058,0.579,3.867,0.817,5.715,0.806c1.849-0.013,4.05-0.356,6.48-1.094c2.518-0.723,4.785-1.486,6.979-2.347
				c2.229-0.812,4.908-2.024,8.048-3.425c0.655-0.627,1.118-1.113,1.364-1.591c0.28-0.429,0.515-0.821,0.495-1.253
				c0.065-0.42-0.183-0.758-0.792-0.982c-0.644-0.272-1.881-1.152-3.842-2.617c-1.877-1.451-3.777-3.037-5.797-4.683
				c-1.97-1.682-4.56-3.802-7.704-6.483L485.484,142.852z M483.1,144.369c-0.883,1.536-1.622,2.967-2.166,4.256
				c-0.545,1.289-1.08,2.795-1.605,4.516c-0.525,1.722-0.885,3.469-1.004,5.34c-0.204,1.856-0.17,3.838,0.056,5.977
				c0.309,2.151,0.643,4.137,1.004,5.953c0.444,1.829,1.065,3.902,1.803,6.335l4.578,4.234c0.035,0.048-0.644-1.388-1.937-4.38
				c-0.35-0.785-0.696-1.869-1.073-3.303c-0.294-1.42-0.646-3.02-0.983-4.705c-0.29-1.719-0.545-3.391-0.751-5.098
				c-0.123-1.693-0.271-3.219-0.326-4.516c-0.055-1.297,0.146-2.855,0.564-4.721c0.455-1.818,0.979-3.54,1.543-5.213
				c0.596-1.625,1.426-3.642,2.393-5.981L483.1,144.369z M478.277,162.08l3.063,3.482l-0.411-3.412l-1.249,0.02L478.277,162.08z
				 M478.277,162.08l0.123,1.693l1.67,1.678l1.307,0.16L478.277,162.08z M478.561,165.215l0.588,0.092l0.922,0.145l-1.67-1.678
				L478.561,165.215z M522.133,148.481c-1.131-0.734-2.347-1.482-3.561-2.23c-1.167-0.782-2.06-1.393-2.747-1.93
				c-0.688-0.537-1.972-1.682-4.012-3.46c-1.958-1.766-3.902-3.614-5.966-5.524c-2.017-1.945-4.602-4.367-7.741-7.348l1.998,5.078
				l21.361,20.506l5.107-2.467C524.801,150.098,523.348,149.228,522.133,148.481z"/>
		</g>
		<g enable-background="new    ">
			<path d="M507.163,166.308c1.506,0.535,2.749,0.814,3.865,0.816c1.199,0.016,2.289,0.186,3.354,0.523
				c1.064,0.337,1.871,0.936,2.278,1.901c0.492,0.978,0.232,1.538-0.755,1.813c-0.495,0.139-1.253,0.32-2.394,0.486
				c-1.06,0.178-2.299,0.414-3.621,0.637c-1.322,0.224-2.563,0.459-3.911,0.851c-1.301,0.354-2.398,0.786-3.28,1.206
				c-0.881,0.421-1.92,1.031-3.128,1.615c-1.173,0.634-2.226,1.328-3.339,2.143c-1.031,0.826-1.99,1.75-2.846,2.819
				c-0.771,1.082-1.301,2.287-1.51,3.628c-0.209,1.342-0.142,2.555,0.144,3.759c0.368,1.217,0.813,2.229,1.484,3.15
				c0.756,0.935,1.552,1.616,2.441,2.228c0.979,0.625,1.859,1.02,2.697,1.15c1.678,0.262,3.529-0.05,5.438-0.998
				c1.992-0.935,3.505-1.815,4.57-2.594c0.533-0.389,1.228-1.268,2.072-2.553c0.928-1.273,1.785-2.642,2.69-4.047
				c0.955-1.439,1.849-2.76,2.562-4.023c0.76-1.298,1.273-2.119,1.494-2.429c0.418-0.751,0.924-0.972,1.641-0.603
				c0.715,0.369,0.99,1.356,0.825,2.963c-0.082,0.803-0.274,1.76-0.589,2.957c-0.281,1.244-0.548,2.404-0.828,3.648
				c-0.23,1.209-0.352,2.264-0.475,3.318c-0.037,1.067,0.062,1.813,0.345,2.2c0.601,0.823,0.881,1.511,0.644,2.205
				c-0.152,0.706-0.47,1.085-0.832,1.2c-0.359,0.115-0.854,0.254-1.454,0.246c-0.564,0.041-1.107-0.602-1.692-1.81
				c-0.292-0.604-0.439-1.313-0.477-2.179c0.047-0.852,0.08-1.619,0.211-2.457c0.166-0.789,0.443-1.734,0.744-2.847l0.91-3.636
				c-0.879,1.236-1.345,2.022-1.42,2.226c-0.074,0.202-0.422,1.05-1.186,2.648c-0.682,1.611-1.601,3.101-2.771,4.55
				c-0.585,0.724-1.339,1.422-2.438,2.152c-1.021,0.742-2.155,1.424-3.363,2.008c-1.207,0.586-2.271,1.063-3.451,1.48
				c-1.133,0.382-2.07,0.621-2.852,0.671c-0.865,0.038-1.857-0.203-3.22-0.845c-1.323-0.593-2.645-1.485-3.926-2.631
				c-1.281-1.145-2.318-2.465-3.259-4.156c-0.902-1.645-1.298-3.51-1.188-5.596c0.076-2.135,0.436-3.883,1.103-5.41
				c0.703-1.479,1.535-2.682,2.424-3.701c0.973-1.008,1.92-1.848,2.875-2.472c1.041-0.61,1.853-1.128,2.552-1.491
				c0.653-0.328,1.735-0.674,3.421-1.013c1.721-0.289,3.439-0.579,5.195-0.821c1.754-0.241,3.342-0.509,4.736-0.635
				c1.44-0.162,2.234-0.296,2.395-0.486c0.158-0.189-0.284-0.388-1.41-0.605c-1.075-0.254-2.284-0.485-3.794-0.721
				c-1.425-0.223-2.767-0.432-4.191-0.653c-1.341-0.21-2.299-0.401-2.873-0.577c-1.063-0.338-1.5-0.835-1.349-1.541
				c0.237-0.693,0.783-1.166,1.675-1.371c0.891-0.204,1.944-0.083,3.045,0.303C504.355,165.312,505.657,165.773,507.163,166.308z"/>
		</g>
		<g enable-background="new    ">
			<path d="M497.181,210.926c5.042-2.047,9.168-3.723,12.245-5.003c3.16-1.268,6.056-2.49,8.783-3.74
				c2.813-1.235,4.442-2.055,4.927-2.409c0.483-0.354,1.079-0.861,1.758-1.356c0.728-0.531,1.454-1.062,2.132-1.557
				c0.728-0.531,1.394-0.942,1.938-1.415c0.581-0.425,0.98-0.792,1.104-1.031c0.123-0.238,0.365-0.414,0.753-0.697
				c0.423-0.234,0.832-0.385,1.194-0.502c0.396-0.066,0.745-0.098,1.019,0.074c0.357,0.184,0.475,0.545,0.431,1.098
				c-0.078,0.502-0.435,1.134-1.081,1.979c-0.563,0.855-1.378,1.674-2.241,2.526c-0.826,0.901-1.676,1.671-2.646,2.379
				c-0.886,0.72-1.694,1.237-2.348,1.565s-2.257,0.979-4.646,1.98c-2.39,1.002-4.959,2.061-7.709,3.178
				c-2.75,1.117-5.223,2.105-7.682,3.01c-2.412,0.869-3.955,1.401-4.652,1.465c-1.455,0.244-2.332,0.365-2.668,0.313
				c-0.336-0.052-0.657-0.188-0.967-0.409c-0.261-0.254-0.342-0.567-0.156-0.926C496.891,211.139,497.049,210.949,497.181,210.926z
				 M517.065,196.853c0.066,0.397,0.43,1.097,1.198,1.948c0.805,0.897,1.692,1.809,2.688,2.865c1.043,1.021,2.038,2.078,3.021,3.219
				c1.063,1.154,1.856,2.136,2.375,2.947c0.469,0.846,0.938,1.691,1.479,2.635c0.539,0.941,0.947,1.907,1.223,2.896
				c0.312,1.036,0.453,2.046,0.381,3.065c0.011,1.031-0.361,2.047-1.035,3.059c-0.708,0.963-1.633,1.935-2.725,2.881
				c-1.094,0.945-2.207,1.76-3.44,2.512c-1.234,0.752-2.405,1.385-3.516,1.899c-1.111,0.514-2.028,0.886-2.822,1.02
				c-1.552,0.316-2.884,0.323-4.08,0.008c-1.147-0.351-1.727-1.042-1.725-2.157c0.004-1.117,0.35-1.965,0.982-2.725
				c0.669-0.711,1.277-1.304,1.727-1.705c0.448-0.402,0.418-0.751-0.156-0.926c-0.574-0.176-1.199-0.017-1.878,0.479
				c-0.68,0.496-1.444,1.277-2.324,2.516c-0.88,1.236-0.944,2.472-0.288,3.776c0.752,1.233,1.894,2.185,3.588,2.878
				c1.779,0.706,3.648,0.826,5.659,0.324c0.987-0.275,2.218-0.728,3.69-1.357c1.506-0.58,3.005-1.377,4.479-2.307
				c1.524-0.964,2.93-1.99,4.109-3.223c1.264-1.221,2.121-2.59,2.595-3.975c0.878-2.869,0.97-5.389,0.206-7.654
				c-0.729-2.218-1.958-4.513-3.705-6.804c-1.746-2.29-3.497-4.28-5.371-6.032c-1.837-1.704-2.928-2.69-3.238-2.91
				c-0.309-0.22-1.135-0.434-2.309-0.617C517.178,195.582,516.932,196.059,517.065,196.853z M523.779,199.231l-0.644,0.543
				l-0.291,0.213l-0.374,0.199l-1.908,0.947l2.463,2.66l2.124-0.957l0.798-0.434l0.437-0.318l-1.207-1.348L523.779,199.231z
				 M536.115,207.681c0.402,2.381,0.701,4.317,0.898,5.808c0.194,1.49,0.356,2.933,0.483,4.326c0.126,1.394,0.149,2.342,0.035,2.797
				c-0.274,0.944-0.485,1.469-0.596,1.624c-0.027,0.167-0.247,0.477-0.576,0.94c-0.33,0.464-0.646,0.844-0.965,1.225
				c-0.268,0.344-0.007,0.6,0.734,0.801c0.741,0.201,1.366,0.041,1.983-0.334c0.652-0.329,1.246-0.836,1.854-1.429
				c0.607-0.593,0.901-1.104,1.008-1.775c0.139-0.622,0.187-1.474,0.008-2.532c-0.088-0.529-0.236-1.239-0.512-2.227
				c-0.276-0.988-0.55-1.975-0.826-2.963c-0.275-0.987-0.479-1.878-0.781-2.697c-0.218-0.807-0.354-1.301-0.398-1.565
				c-0.188-0.458-0.253-0.855-0.294-1.419c0.043-0.553-0.072-0.914-0.214-1.107c-0.143-0.194-0.534-0.427-1.157-0.566
				C536.264,207.275,536.078,207.632,536.115,207.681z"/>
		</g>
		<g enable-background="new    ">
			<path d="M507.704,243.987c5.043-2.047,9.168-3.723,12.244-5.003c3.16-1.268,6.058-2.49,8.785-3.74
				c2.813-1.235,4.441-2.055,4.926-2.409s1.08-0.861,1.759-1.356c0.727-0.531,1.452-1.062,2.132-1.557
				c0.728-0.531,1.392-0.942,1.938-1.415c0.581-0.425,0.982-0.792,1.105-1.031c0.123-0.238,0.364-0.414,0.752-0.697
				c0.424-0.234,0.834-0.385,1.194-0.502c0.396-0.066,0.744-0.098,1.02,0.074c0.355,0.184,0.474,0.545,0.431,1.098
				c-0.08,0.502-0.435,1.134-1.082,1.979c-0.563,0.855-1.377,1.674-2.239,2.526c-0.828,0.901-1.679,1.671-2.646,2.379
				c-0.885,0.72-1.695,1.237-2.348,1.565c-0.653,0.328-2.258,0.979-4.646,1.98c-2.39,1.002-4.958,2.061-7.71,3.178
				c-2.75,1.117-5.223,2.105-7.682,3.01c-2.411,0.869-3.955,1.401-4.65,1.465c-1.457,0.244-2.334,0.365-2.668,0.313
				c-0.336-0.052-0.658-0.188-0.968-0.409c-0.261-0.254-0.341-0.567-0.156-0.926C507.413,244.199,507.572,244.01,507.704,243.987z
				 M527.59,229.913c0.065,0.397,0.43,1.097,1.197,1.948c0.806,0.897,1.694,1.809,2.688,2.865c1.043,1.021,2.037,2.078,3.019,3.219
				c1.065,1.154,1.856,2.136,2.374,2.947c0.47,0.846,0.939,1.691,1.479,2.635c0.54,0.941,0.947,1.907,1.223,2.896
				c0.313,1.036,0.454,2.046,0.381,3.065c0.012,1.031-0.36,2.047-1.034,3.059c-0.708,0.963-1.634,1.935-2.726,2.881
				c-1.093,0.945-2.207,1.76-3.439,2.512c-1.233,0.752-2.405,1.385-3.518,1.899c-1.108,0.514-2.026,0.886-2.82,1.02
				c-1.553,0.316-2.885,0.323-4.079,0.008c-1.148-0.351-1.729-1.042-1.726-2.157c0.002-1.117,0.35-1.965,0.982-2.725
				c0.669-0.711,1.276-1.304,1.727-1.705c0.448-0.402,0.418-0.751-0.156-0.926c-0.573-0.176-1.199-0.017-1.879,0.479
				c-0.678,0.496-1.442,1.277-2.323,2.516c-0.88,1.236-0.943,2.472-0.289,3.776c0.753,1.233,1.893,2.185,3.588,2.878
				c1.778,0.706,3.649,0.826,5.66,0.324c0.987-0.275,2.217-0.728,3.688-1.357c1.508-0.58,3.006-1.377,4.481-2.307
				c1.523-0.964,2.931-1.99,4.109-3.223c1.265-1.221,2.121-2.59,2.595-3.975c0.877-2.869,0.969-5.389,0.205-7.654
				c-0.728-2.218-1.957-4.513-3.703-6.804c-1.746-2.29-3.498-4.28-5.371-6.032c-1.838-1.704-2.931-2.69-3.239-2.91
				s-1.134-0.434-2.308-0.617C527.701,228.643,527.454,229.119,527.59,229.913z M534.303,232.291l-0.644,0.543l-0.291,0.213
				l-0.374,0.199l-1.908,0.947l2.463,2.66l2.125-0.957l0.797-0.434l0.437-0.318l-1.207-1.348L534.303,232.291z M546.639,240.741
				c0.402,2.381,0.701,4.317,0.897,5.808c0.197,1.491,0.359,2.933,0.484,4.326c0.127,1.394,0.15,2.342,0.036,2.797
				c-0.276,0.944-0.486,1.469-0.596,1.624c-0.026,0.167-0.247,0.477-0.577,0.94c-0.33,0.463-0.646,0.844-0.963,1.225
				c-0.271,0.344-0.009,0.6,0.732,0.801c0.741,0.201,1.368,0.041,1.983-0.334c0.652-0.329,1.248-0.836,1.854-1.429
				c0.607-0.593,0.902-1.104,1.006-1.775c0.142-0.622,0.188-1.474,0.011-2.532c-0.091-0.529-0.236-1.239-0.514-2.227
				c-0.273-0.987-0.55-1.975-0.826-2.963c-0.273-0.987-0.479-1.878-0.78-2.697c-0.219-0.807-0.354-1.301-0.399-1.565
				c-0.186-0.458-0.253-0.855-0.294-1.419c0.044-0.553-0.071-0.914-0.214-1.107c-0.141-0.194-0.535-0.427-1.157-0.566
				C546.788,240.335,546.604,240.693,546.639,240.741z"/>
		</g>
		<circle fill="#FFFFFF" stroke="#000000" stroke-width="4" stroke-miterlimit="10" cx="289.5" cy="293" r="217.5"/>
	</g>
</g>
<g id="Kevin">
	<g enable-background="new    ">
		<path d="M239.61,229.407c7.72,9.972,14.707,18.85,20.956,26.643c6.246,7.792,11.689,14.077,16.322,18.85
			c4.633,4.771,8.424,7.72,11.373,8.846c2.948,1.122,5.054,0.068,6.318-3.159c1.264,2.807,1.475,5.509,0.632,8.108
			c-0.842,2.596-2.422,4.455-4.739,5.581c-2.316,1.122-5.16,1.228-8.529,0.315c-3.37-0.915-6.881-3.475-10.531-7.688
			c-1.826-2.105-4.038-4.949-6.634-8.529c-2.6-3.58-5.443-7.615-8.529-12.11c-3.09-4.491-6.318-9.23-9.688-14.216
			c-3.37-4.982-6.602-9.862-9.688-14.638c-3.653,15.727-5.582,27.942-5.792,36.646s1.859,13.406,6.213,14.11
			c-0.704,0.701-1.862,1.297-3.475,1.791c-1.616,0.49-3.3,0.49-5.055,0c-1.757-0.494-3.406-1.827-4.949-4.002
			c-1.546-2.179-2.563-5.653-3.054-10.425c-0.49-4.772-0.316-11.09,0.526-18.955c0.843-7.861,2.807-17.829,5.897-29.906
			c3.087-12.074,7.404-26.465,12.953-43.175c5.545-16.708,12.811-36.294,21.798-58.761c0.279-0.421,0.77-0.385,1.474,0.105
			c0.701,0.494,1.438,1.194,2.211,2.106c0.77,0.915,1.438,2.073,2,3.475c0.56,1.405,0.843,2.811,0.843,4.213
			c-5.055,13.762-9.866,27.941-14.427,42.543c-4.564,14.604-8.53,27.941-11.899,40.016c9.405-8.003,18.181-16.566,26.326-25.694
			c8.141-9.126,15.197-18.04,21.166-26.748c5.966-8.704,10.669-16.671,14.111-23.903c3.438-7.23,5.298-12.953,5.58-17.165
			c0.981,0.984,1.93,2.316,2.844,4.002c0.912,1.685,1.754,3.475,2.527,5.37c0.77,1.896,1.333,3.722,1.686,5.476
			c0.348,1.758,0.525,3.195,0.525,4.317c-0.563,4.354-2.353,9.129-5.37,14.322c-3.021,5.195-6.739,10.566-11.162,16.111
			c-4.423,5.548-9.339,11.057-14.743,16.532c-5.407,5.477-10.883,10.709-16.428,15.69c-5.548,4.986-10.882,9.55-16.006,13.69
			C248.067,223.336,243.539,226.742,239.61,229.407z"/>
		<path d="M330.802,220.983c0.98-1.823,2.212-2.527,3.686-2.106s1.929,1.475,1.369,3.159c-1.126,2.669-2.669,5.792-4.634,9.372
			c-1.968,3.58-4.212,7.303-6.739,11.162c-2.527,3.863-5.232,7.688-8.108,11.479c-2.879,3.791-5.828,7.092-8.846,9.898
			c-3.021,2.811-6.002,4.985-8.951,6.529c-2.949,1.546-5.759,2.105-8.425,1.685c-4.212-0.701-7.443-3.054-9.688-7.056
			c-2.244-4.001-3.58-8.772-4.001-14.321c-0.421-5.545,0-11.405,1.264-17.586c1.264-6.177,3.231-11.794,5.897-16.849
			s5.93-9.089,9.793-12.11c3.86-3.018,8.247-4.106,13.164-3.264c3.369,0.563,5.86,2.105,7.477,4.633
			c1.611,2.527,2.49,5.617,2.633,9.267c0.138,3.653-0.422,7.688-1.686,12.11s-3.126,8.846-5.581,13.269
			c-2.458,4.423-5.442,8.602-8.951,12.531c-3.511,3.933-7.443,7.233-11.794,9.898c0.56,0.563,1.086,0.948,1.58,1.158
			c0.49,0.211,1.086,0.458,1.79,0.737c2.666,0.563,5.897-0.77,9.688-4.002c3.791-3.228,7.546-7.193,11.268-11.899
			c3.719-4.702,7.194-9.651,10.425-14.848C326.658,228.638,329.117,224.353,330.802,220.983z M303.422,211.506
			c-1.264,0-2.948,1.685-5.054,5.055c-2.106,3.369-4.179,7.443-6.213,12.215c-2.037,4.775-3.758,9.655-5.16,14.638
			c-1.405,4.985-1.896,9.161-1.475,12.531c4.071-2.948,7.51-6.914,10.32-11.899c2.807-4.982,4.949-9.898,6.423-14.743
			c1.475-4.844,2.316-9.02,2.527-12.531C305.002,213.263,304.545,211.506,303.422,211.506z"/>
		<path d="M383.03,220.772c0.422-0.843,0.98-1.401,1.686-1.685c0.701-0.28,1.369-0.28,2,0c0.633,0.283,1.086,0.773,1.369,1.474
			c0.281,0.704,0.211,1.547-0.209,2.527c-3.512,7.724-7.303,13.446-11.374,17.165c-4.073,3.722-7.935,5.864-11.583,6.424h-0.211
			c-1.264,3.652-2.773,7.091-4.528,10.319c-1.757,3.231-3.652,6.039-5.687,8.425c-2.037,2.389-4.212,4.179-6.529,5.37
			c-2.316,1.194-4.738,1.648-7.266,1.369c-3.231-0.421-5.934-1.965-8.107-4.634c-2.18-2.665-3.828-6.035-4.95-10.108
			c-1.122-4.071-1.79-8.636-2.001-13.69s0.072-10.142,0.843-15.269c0.773-5.124,1.929-10.143,3.476-15.059
			c1.543-4.913,3.508-9.267,5.896-13.058c0.56,0.142,1.297,0.599,2.211,1.368c0.912,0.773,1.824,1.686,2.738,2.738
			c0.912,1.053,1.718,2.179,2.422,3.37c0.701,1.194,1.053,2.283,1.053,3.264c-1.404,2.248-2.737,5.091-4.001,8.53
			c-1.264,3.442-2.317,7.056-3.159,10.847s-1.441,7.618-1.79,11.478c-0.353,3.863-0.353,7.408,0,10.636
			c0.349,3.231,1.086,5.897,2.212,8.003c1.121,2.106,2.807,3.37,5.055,3.791c2.807,0.422,5.439-1.264,7.896-5.054
			c2.455-3.791,4.529-8.425,6.214-13.9c-3.231-1.823-5.581-4.982-7.056-9.478c-1.475-4.492-2.105-9.162-1.896-14.006
			s1.264-9.336,3.159-13.479c1.896-4.14,4.666-6.703,8.318-7.688c3.371-0.843,6.003,0.105,7.898,2.843
			c1.896,2.738,2.633,8.74,2.211,18.008c0,5.896-0.842,11.794-2.527,17.69c2.387-0.7,5.02-2.49,7.898-5.37
			C377.587,231.06,380.362,226.67,383.03,220.772z M358.811,237.41c0.42-1.822,0.77-3.965,1.053-6.423
			c0.279-2.455,0.526-4.949,0.736-7.477c0.211-2.527,0.316-5.019,0.316-7.477c0-2.455-0.142-4.598-0.422-6.424
			c-1.826,0.983-3.23,2.737-4.211,5.265c-0.984,2.527-1.58,5.196-1.791,8.004c-0.211,2.81,0.033,5.581,0.737,8.318
			C355.931,233.936,357.125,236.009,358.811,237.41z"/>
		<path d="M408.303,220.772c0.42-0.843,1.016-1.369,1.789-1.579c0.771-0.211,1.475-0.211,2.107,0
			c0.631,0.21,1.053,0.668,1.264,1.368c0.209,0.704,0.105,1.547-0.316,2.527c-1.125,2.39-2.633,5.302-4.529,8.74
			c-1.895,3.442-3.967,7.022-6.213,10.741c-2.246,3.722-4.563,7.408-6.949,11.058c-2.389,3.652-4.67,6.881-6.846,9.688
			c-2.178,2.811-4.178,5.055-6.002,6.739c-1.822,1.686-3.228,2.386-4.212,2.106c-1.543-0.421-2.56-2.106-3.054-5.055
			c-0.49-2.948-0.56-6.598-0.211-10.951c0.353-4.351,0.984-9.162,1.896-14.427c0.914-5.266,1.932-10.458,3.053-15.586
			c1.125-5.123,2.281-9.931,3.475-14.427c1.191-4.491,2.281-8.141,3.266-10.951c0.139-0.279,0.631-0.139,1.475,0.421
			c0.842,0.563,1.754,1.369,2.738,2.422c0.98,1.054,1.857,2.248,2.631,3.581c0.771,1.336,1.229,2.705,1.369,4.106
			c0,2.106-0.352,4.812-1.053,8.108c-0.703,3.301-1.58,6.845-2.633,10.636s-2.211,7.582-3.475,11.373s-2.422,7.233-3.475,10.32
			c-1.053,3.09-1.863,5.617-2.422,7.582c-0.563,1.968-0.701,2.948-0.422,2.948c0.422,0.142,1.332-0.737,2.738-2.633
			c1.402-1.896,3.053-4.281,4.949-7.161c1.895-2.876,3.896-6.071,6.002-9.582c2.105-3.508,4.07-6.809,5.896-9.898
			c1.824-3.087,3.404-5.756,4.74-8.004C407.213,222.74,408.02,221.335,408.303,220.772z M396.508,207.294
			c-0.703-2.527-1.967-4.634-3.791-6.318c-1.826-1.686-3.301-2.597-4.422-2.738c0.559-1.965,1.053-3.719,1.475-5.266
			c0.42-1.543,0.842-2.948,1.264-4.212c0.137-0.279,0.664-0.138,1.578,0.421c0.912,0.563,1.824,1.369,2.738,2.423
			c0.912,1.053,1.791,2.283,2.633,3.686c0.842,1.405,1.264,2.81,1.264,4.212c-0.283,0.843-0.668,1.968-1.158,3.37
			C397.594,204.275,397.069,205.75,396.508,207.294z"/>
		<path d="M459.692,220.352c0.559-0.701,1.191-1.158,1.895-1.369c0.701-0.211,1.369-0.211,2.002,0
			c0.631,0.211,1.053,0.668,1.264,1.369c0.211,0.704,0.033,1.546-0.527,2.527c-1.264,2.389-2.844,5.37-4.738,8.95
			c-1.896,3.581-3.932,7.372-6.107,11.373c-2.18,4.002-4.459,8.003-6.846,12.005c-2.389,4.002-4.705,7.549-6.949,10.636
			c-2.248,3.09-4.318,5.476-6.213,7.161c-1.896,1.685-3.406,2.244-4.529,1.685c-2.527-1.125-4-3.334-4.422-6.634
			c-0.422-3.298-0.283-7.089,0.422-11.373c0.699-4.281,1.754-8.846,3.158-13.689c1.402-4.845,2.701-9.3,3.896-13.374
			c1.191-4.07,2.033-7.51,2.527-10.32c0.49-2.807,0.174-4.423-0.947-4.844c-1.547-0.56-3.758,0.81-6.635,4.107
			c-2.879,3.3-5.828,7.723-8.846,13.268c-3.021,5.549-5.896,11.867-8.635,18.955c-2.738,7.092-4.67,14.078-5.791,20.956
			c-1.123,0.7-2.561,0.77-4.318,0.21c-1.754-0.56-2.771-1.191-3.055-1.896c-0.137-1.964-0.031-4.877,0.316-8.74
			c0.352-3.859,0.844-8.141,1.475-12.847c0.633-4.703,1.369-9.616,2.211-14.743c0.844-5.123,1.721-9.968,2.633-14.531
			c0.916-4.562,1.791-8.636,2.633-12.216s1.613-6.141,2.316-7.688c0.561,0,1.297,0.353,2.211,1.054
			c0.912,0.704,1.791,1.579,2.633,2.632c0.844,1.054,1.58,2.179,2.213,3.37c0.631,1.194,1.016,2.212,1.158,3.054
			c-0.705,2.39-1.369,4.844-2.002,7.371c-0.631,2.527-1.299,5.055-2,7.582c2.105-3.791,4.387-7.266,6.844-10.425
			c2.455-3.159,4.949-5.825,7.477-8.003c2.527-2.176,5.055-3.686,7.582-4.528s5.055-0.843,7.582,0
			c2.387,0.843,3.756,2.948,4.107,6.318c0.35,3.369,0.139,7.338-0.631,11.899c-0.773,4.564-1.932,9.408-3.477,14.532
			c-1.547,5.127-3.053,9.898-4.527,14.321s-2.633,8.181-3.475,11.268c-0.844,3.09-0.916,4.844-0.211,5.265
			c0.422,0.283,1.297-0.559,2.633-2.527c1.332-1.964,2.912-4.527,4.738-7.687c1.822-3.159,3.791-6.635,5.896-10.426
			c2.107-3.791,4.07-7.371,5.898-10.74c1.822-3.37,3.369-6.282,4.633-8.741C458.428,222.425,459.27,220.914,459.692,220.352z"/>
	</g>
</g>
<g id="Nguyen">
	<g id="Calque_5">
	</g>
	<g enable-background="new    ">
		<path fill="#F0494A" d="M179.711,370.647c-0.566,1.696-1.769,3.145-3.605,4.347c-1.839,1.2-3.854,1.624-6.043,1.272
			c-2.193-0.354-4.277-1.663-6.255-3.923c-1.981-2.263-3.254-6.08-3.817-11.451c-0.285-2.405-0.53-6.255-0.742-11.557
			c-0.212-5.302-0.391-11.557-0.53-18.767c-0.143-7.21-0.318-15.02-0.53-23.433c-0.212-8.409-0.46-16.928-0.742-25.552
			c-0.285-8.622-0.603-16.965-0.954-25.022c-0.354-8.059-0.742-15.338-1.167-21.842c-4.241,11.735-8.164,23.293-11.769,34.671
			c-3.605,11.381-6.786,22.196-9.542,32.444c-2.757,10.251-5.056,19.721-6.892,28.415c-1.839,8.694-3.005,16.223-3.499,22.584
			c-0.497,6.361-0.285,11.451,0.636,15.268c0.918,3.817,2.651,5.865,5.195,6.149c-0.709,0.706-1.875,1.306-3.499,1.803
			c-1.627,0.494-3.323,0.494-5.089,0c-1.769-0.497-3.393-1.803-4.877-3.923c-1.484-2.121-2.512-5.514-3.075-10.179
			c-0.563-4.665-0.458-10.885,0.318-18.661c0.775-7.772,2.651-17.563,5.62-29.369c2.969-11.802,7.137-25.903,12.511-42.305
			c5.371-16.398,12.438-35.625,21.205-57.679c-0.709-2.402-1.415-3.605-2.121-3.605c0.424-0.563,1.448-1.06,3.075-1.484
			c1.624-0.424,3.393-0.105,5.301,0.954c1.908,1.061,3.605,3.254,5.089,6.574c1.484,3.323,2.227,8.376,2.227,15.162
			c0,2.544,0,7.104,0,13.677c0,6.574,0.069,14.175,0.212,22.796c0.139,8.625,0.388,17.813,0.742,27.567
			c0.351,9.755,0.812,19.158,1.378,28.203c0.563,9.049,1.342,17.282,2.333,24.704c0.987,7.422,2.19,13.111,3.605,17.07
			c0.282-3.959,1.024-9.966,2.227-18.024c1.199-8.058,2.684-17.14,4.453-27.249c1.766-10.105,3.711-20.744,5.832-31.914
			c2.121-11.166,4.241-21.875,6.362-32.126c2.12-10.248,4.135-19.542,6.043-27.886c1.908-8.339,3.499-14.701,4.771-19.084
			c0.139-0.425,0.706-0.282,1.696,0.424c0.988,0.709,2.015,1.696,3.075,2.969c1.06,1.272,2.047,2.687,2.969,4.241
			c0.917,1.557,1.448,3.041,1.59,4.453c-0.709,2.405-1.733,6.292-3.075,11.663c-1.345,5.374-2.863,11.593-4.56,18.66
			c-1.696,7.071-3.535,14.774-5.513,23.114c-1.981,8.343-3.923,16.719-5.832,25.128c-1.908,8.413-3.748,16.646-5.513,24.705
			c-1.77,8.058-3.36,15.304-4.771,21.735c-1.415,6.435-2.511,11.802-3.287,16.116C180.098,366.794,179.711,369.515,179.711,370.647z
			"/>
		<path fill="#F0494A" d="M257.956,306.183c0.424-0.848,1.024-1.484,1.803-1.908c0.775-0.424,1.484-0.563,2.121-0.424
			c0.636,0.143,1.06,0.497,1.272,1.06c0.212,0.567,0.106,1.346-0.318,2.333c-3.678,8.482-8.201,16.328-13.571,23.538
			c-5.375,7.21-10.746,13.783-16.116,19.721c-0.709,3.254-1.345,6.398-1.909,9.437c-0.566,3.038-1.133,5.759-1.696,8.164
			c-1.133,5.514-2.863,9.755-5.195,12.724s-4.808,4.877-7.422,5.726c-2.618,0.848-5.02,0.775-7.21-0.212
			c-2.193-0.991-3.711-2.618-4.559-4.878c-0.848-2.263-0.709-5.089,0.424-8.482c1.13-3.393,3.744-7.07,7.846-11.026
			c1.13-0.99,2.26-2.051,3.393-3.181c1.13-1.133,2.26-2.26,3.393-3.393c-2.969,1.839-5.938,2.472-8.906,1.908
			c-4.241-0.849-7.389-3.32-9.437-7.422c-2.047-4.099-3.214-8.906-3.499-14.42c-0.282-5.514,0.249-11.378,1.59-17.601
			c1.345-6.219,3.25-11.802,5.726-16.752c2.472-4.947,5.44-8.906,8.906-11.875c3.462-2.969,7.173-4.029,11.133-3.181
			c2.121,0.424,3.956,1.378,5.513,2.862c1.554,1.484,2.826,3.359,3.817,5.619c0.424-2.12,0.775-3.956,1.061-5.513
			c0.282-1.555,0.563-2.685,0.848-3.394c0.563-0.139,1.272,0.143,2.121,0.849c0.848,0.709,1.66,1.558,2.438,2.545
			c0.775,0.99,1.484,2.087,2.121,3.286c0.636,1.203,1.024,2.227,1.167,3.075c-0.567,2.12-1.203,4.808-1.909,8.058
			c-0.709,3.254-1.484,6.822-2.333,10.709c-0.848,3.89-1.696,7.988-2.545,12.299c-0.848,4.314-1.696,8.661-2.544,13.042
			c3.817-4.522,7.667-9.506,11.557-14.95C250.922,319.085,254.563,312.969,257.956,306.183z M213.425,349.442
			c2.26,0.709,4.38-0.033,6.362-2.227c1.978-2.19,3.711-5.123,5.195-8.801c1.484-3.675,2.65-7.773,3.499-12.299
			c0.849-4.523,1.342-8.834,1.484-12.936c0.14-4.099-0.179-7.598-0.954-10.497c-0.778-2.896-2.087-4.559-3.923-4.983
			c-1.839-0.424-3.678,0.461-5.514,2.651c-1.839,2.193-3.499,5.126-4.983,8.8c-1.484,3.678-2.757,7.707-3.817,12.087
			c-1.06,4.384-1.696,8.589-1.908,12.617c-0.212,4.029,0,7.495,0.636,10.392C210.138,347.146,211.443,348.879,213.425,349.442z
			 M222.331,369.163c0.282-1.133,0.6-2.512,0.954-4.135c0.352-1.627,0.669-3.36,0.955-5.195c-1.272,1.411-2.475,2.684-3.605,3.816
			c-1.133,1.13-2.193,2.19-3.181,3.181c-2.83,2.969-4.314,5.44-4.453,7.422c-0.143,1.979,0.318,3.214,1.378,3.711
			c1.061,0.494,2.439,0.07,4.135-1.271C220.21,375.346,221.483,372.838,222.331,369.163z"/>
		<path fill="#F0494A" d="M314.999,305.759c0.424-0.849,1.023-1.378,1.801-1.591c0.775-0.212,1.484-0.212,2.121,0
			c0.637,0.213,1.061,0.673,1.273,1.379c0.211,0.709,0.105,1.557-0.318,2.545c-1.133,2.405-2.65,5.337-4.561,8.8
			c-1.908,3.466-3.994,7.07-6.254,10.814c-2.264,3.748-4.596,7.459-6.998,11.133c-2.406,3.678-4.703,6.929-6.893,9.755
			c-2.193,2.829-4.207,5.089-6.043,6.786c-1.84,1.696-3.254,2.401-4.242,2.12c-1.133-0.281-1.908-1.272-2.332-2.969
			s-0.566-3.956-0.424-6.786c-1.982,4.666-4.49,7.952-7.527,9.861c-3.042,1.908-6.117,2.508-9.225,1.802
			c-3.959-0.848-6.892-3.674-8.8-8.481c-1.908-4.805-2.896-10.742-2.969-17.813c-0.069-7.067,0.709-14.771,2.333-23.113
			c1.624-8.34,4.063-16.468,7.316-24.387c0.706,0,1.59,0.392,2.651,1.167c1.06,0.778,2.121,1.696,3.181,2.756
			c1.061,1.061,2.015,2.088,2.863,3.075c0.849,0.99,1.342,1.77,1.484,2.333c-1.133,2.687-2.333,5.904-3.605,9.648
			c-1.272,3.747-2.405,7.634-3.393,11.663c-0.991,4.028-1.77,8.024-2.333,11.98c-0.566,3.96-0.884,7.564-0.954,10.814
			c-0.073,3.254,0.212,6.011,0.848,8.271c0.636,2.263,1.803,3.678,3.499,4.241c1.978,0.709,3.923-0.388,5.831-3.287
			c1.908-2.896,3.744-6.713,5.514-11.451c1.766-4.734,3.393-9.966,4.877-15.691s2.896-11.097,4.242-16.116
			c1.342-5.017,2.471-9.258,3.393-12.724c0.918-3.462,1.729-5.265,2.438-5.407c0.141-0.424,0.637-0.351,1.484,0.212
			c0.85,0.566,1.697,1.379,2.545,2.438c0.85,1.061,1.625,2.264,2.334,3.605c0.705,1.345,1.059,2.724,1.059,4.135
			c-0.143,0.849-0.635,2.65-1.484,5.407c-0.848,2.757-1.838,5.975-2.969,9.648c-1.133,3.678-2.262,7.528-3.393,11.558
			c-1.133,4.028-2.156,7.776-3.074,11.238c-0.922,3.466-1.627,6.362-2.121,8.694c-0.496,2.333-0.529,3.572-0.105,3.711
			c0.424,0.143,1.342-0.705,2.756-2.544c1.412-1.836,3.076-4.205,4.984-7.104c1.908-2.896,3.922-6.113,6.043-9.648
			c2.121-3.532,4.1-6.855,5.938-9.967c1.836-3.107,3.426-5.831,4.771-8.164C313.902,307.773,314.714,306.325,314.999,305.759z"/>
		<path fill="#F0494A" d="M368.859,305.971c0.424-0.848,1.023-1.448,1.803-1.803c0.775-0.351,1.484-0.493,2.12-0.424
			c0.637,0.073,1.094,0.424,1.379,1.061c0.281,0.636,0.212,1.451-0.213,2.438c-3.678,8.482-8.236,16.328-13.677,23.538
			c-5.444,7.21-10.852,13.783-16.223,19.721c-1.272,6.929-2.475,12.724-3.604,17.389c-0.991,5.089-2.581,8.976-4.771,11.663
			c-2.193,2.684-4.526,4.417-6.998,5.195c-2.475,0.775-4.808,0.742-6.998-0.106c-2.193-0.848-3.711-2.332-4.559-4.453
			c-0.849-2.12-0.815-4.771,0.105-7.952c0.918-3.181,3.287-6.609,7.104-10.284c1.272-1.272,2.684-2.617,4.241-4.029
			c1.554-1.411,3.107-2.896,4.665-4.453c-1.839,1.558-3.748,2.688-5.726,3.394c-1.981,0.705-3.96,0.848-5.938,0.424
			c-3.96-0.849-6.892-3.568-8.801-8.164c-1.908-4.593-2.896-10.285-2.969-17.07c-0.069-6.786,0.709-14.241,2.333-22.372
			c1.624-8.128,4.063-16.149,7.315-24.068c0.706,0,1.591,0.425,2.651,1.272c1.06,0.849,2.12,1.803,3.181,2.863
			c1.061,1.06,2.015,2.12,2.862,3.181c0.849,1.06,1.342,1.875,1.484,2.438c-1.839,4.102-3.641,9.085-5.407,14.95
			c-1.77,5.867-3.111,11.557-4.029,17.07c-0.921,5.513-1.202,10.391-0.848,14.632c0.352,4.24,1.803,6.716,4.347,7.422
			c1.412,0.424,2.933,0.212,4.56-0.637c1.623-0.848,3.181-2.227,4.665-4.135s2.863-4.241,4.135-6.998
			c1.272-2.757,2.333-5.759,3.182-9.013c0.848-4.946,1.659-9.754,2.438-14.419c0.775-4.665,1.518-8.939,2.227-12.83
			c0.705-3.886,1.305-7.209,1.802-9.966c0.494-2.757,0.882-4.698,1.167-5.832c0.563-0.139,1.272,0.143,2.12,0.849
			c0.849,0.709,1.66,1.558,2.438,2.545c0.775,0.99,1.484,2.087,2.121,3.286c0.636,1.203,1.023,2.227,1.166,3.075
			c-0.566,2.12-1.203,4.808-1.908,8.058c-0.709,3.254-1.451,6.822-2.227,10.709c-0.779,3.89-1.627,7.988-2.545,12.299
			c-0.921,4.314-1.803,8.661-2.65,13.042c3.956-4.522,7.846-9.543,11.663-15.056C361.861,318.906,365.466,312.757,368.859,305.971z
			 M333.446,368.951c0.424-2.405,0.987-5.444,1.696-9.118c-1.272,1.271-2.475,2.472-3.604,3.604c-1.134,1.13-2.193,2.26-3.182,3.393
			c-2.829,2.969-4.313,5.44-4.453,7.422c-0.142,1.979,0.318,3.214,1.379,3.711c1.061,0.494,2.438,0.07,4.135-1.271
			C331.113,375.346,332.454,372.768,333.446,368.951z M336.838,349.654c-0.285,0.284-0.46,0.497-0.53,0.636
			c-0.072,0.143-0.248,0.285-0.529,0.424c0.281-0.139,0.457-0.281,0.529-0.424c0.07-0.139,0.245-0.281,0.53-0.424V349.654z"/>
		<path fill="#F0494A" d="M416.359,305.971c0.987-1.836,2.227-2.545,3.711-2.12c1.484,0.424,1.941,1.484,1.378,3.181
			c-1.133,2.687-2.688,5.831-4.665,9.437c-1.981,3.604-4.241,7.352-6.786,11.238c-2.544,3.891-5.268,7.74-8.164,11.558
			c-2.898,3.816-5.867,7.14-8.906,9.966c-3.041,2.83-6.043,5.021-9.012,6.574c-2.969,1.557-5.799,2.12-8.482,1.696
			c-4.241-0.706-7.495-3.075-9.755-7.104c-2.26-4.029-3.604-8.834-4.028-14.42c-0.425-5.583,0-11.484,1.271-17.707
			c1.272-6.219,3.254-11.875,5.938-16.964c2.685-5.09,5.971-9.151,9.861-12.193c3.886-3.038,8.303-4.135,13.253-3.287
			c3.393,0.567,5.901,2.121,7.528,4.666c1.623,2.544,2.508,5.655,2.65,9.33c0.14,3.678-0.424,7.74-1.696,12.193
			s-3.147,8.906-5.619,13.359c-2.476,4.453-5.48,8.661-9.013,12.617c-3.535,3.959-7.495,7.282-11.875,9.967
			c0.563,0.566,1.094,0.954,1.59,1.166c0.494,0.212,1.094,0.46,1.803,0.742c2.684,0.566,5.938-0.775,9.755-4.029
			c3.816-3.25,7.598-7.243,11.345-11.981c3.744-4.734,7.243-9.718,10.497-14.949C412.187,313.678,414.661,309.363,416.359,305.971z
			 M388.791,296.429c-1.272,0-2.969,1.696-5.09,5.089c-2.12,3.393-4.207,7.495-6.255,12.299c-2.051,4.808-3.784,9.722-5.195,14.738
			c-1.415,5.02-1.909,9.225-1.484,12.617c4.099-2.969,7.561-6.961,10.391-11.981c2.826-5.016,4.983-9.966,6.468-14.844
			c1.484-4.877,2.332-9.082,2.544-12.617C390.382,298.197,389.921,296.429,388.791,296.429z"/>
		<path fill="#F0494A" d="M467.249,305.335c0.563-0.706,1.199-1.167,1.908-1.379c0.706-0.212,1.379-0.212,2.015,0
			c0.637,0.212,1.061,0.673,1.272,1.379c0.212,0.709,0.033,1.557-0.53,2.544c-1.272,2.406-2.862,5.408-4.771,9.013
			c-1.908,3.604-3.959,7.422-6.149,11.451c-2.193,4.028-4.489,8.058-6.892,12.087c-2.405,4.029-4.738,7.601-6.998,10.709
			c-2.263,3.111-4.347,5.513-6.255,7.21c-1.909,1.696-3.43,2.26-4.56,1.696c-2.545-1.134-4.029-3.356-4.453-6.68
			c-0.424-3.32-0.285-7.138,0.424-11.451c0.706-4.311,1.767-8.906,3.181-13.783c1.412-4.878,2.721-9.364,3.924-13.466
			c1.199-4.099,2.047-7.562,2.544-10.391c0.494-2.826,0.176-4.453-0.954-4.877c-1.558-0.563-3.784,0.814-6.68,4.135
			c-2.899,3.323-5.868,7.776-8.906,13.359c-3.042,5.586-5.938,11.948-8.694,19.085c-2.757,7.141-4.701,14.175-5.831,21.1
			c-1.13,0.705-2.578,0.775-4.348,0.212c-1.766-0.563-2.79-1.199-3.074-1.908c-0.14-1.979-0.033-4.911,0.317-8.801
			c0.354-3.887,0.849-8.197,1.484-12.936c0.637-4.734,1.379-9.682,2.227-14.844c0.849-5.158,1.733-10.036,2.651-14.632
			c0.921-4.592,1.802-8.694,2.65-12.299s1.624-6.183,2.333-7.74c0.563,0,1.305,0.354,2.227,1.061c0.917,0.709,1.802,1.591,2.65,2.65
			c0.848,1.061,1.59,2.193,2.227,3.394c0.636,1.202,1.023,2.227,1.166,3.074c-0.709,2.405-1.378,4.877-2.015,7.422
			c-0.636,2.545-1.309,5.09-2.015,7.634c2.121-3.816,4.417-7.315,6.893-10.496c2.472-3.181,4.983-5.865,7.527-8.059
			c2.545-2.189,5.09-3.711,7.634-4.559c2.545-0.849,5.09-0.849,7.635,0c2.401,0.848,3.78,2.969,4.135,6.361
			c0.352,3.393,0.139,7.389-0.637,11.981c-0.778,4.596-1.944,9.473-3.498,14.632c-1.558,5.162-3.075,9.966-4.56,14.419
			s-2.65,8.237-3.499,11.346c-0.848,3.11-0.921,4.877-0.212,5.301c0.424,0.285,1.306-0.563,2.65-2.545
			c1.342-1.978,2.933-4.559,4.771-7.739c1.836-3.182,3.817-6.68,5.938-10.497s4.099-7.422,5.938-10.814
			c1.836-3.394,3.393-6.325,4.665-8.801C465.977,307.422,466.825,305.901,467.249,305.335z"/>
		<path fill="#F0494A" d="M472.972,366.618c0.143,0-0.106,0.706-0.742,2.121c-0.636,1.411-1.378,2.896-2.227,4.453
			c-0.849,1.554-1.729,3.002-2.65,4.347c-0.918,1.342-1.591,2.015-2.015,2.015c-3.108-0.566-8.87-1.027-17.282-1.378
			c-8.409-0.355-18.588-0.637-30.536-0.849c-11.944-0.212-25.198-0.391-39.761-0.53c-14.559-0.143-29.508-0.248-44.849-0.318
			c-15.338-0.072-30.643-0.105-45.91-0.105c-15.268,0-29.615,0.069-43.047,0.212c-13.429,0.139-25.48,0.281-36.155,0.424
			c-10.672,0.14-19.049,0.282-25.128,0.425c-0.282,0-0.318-0.355-0.106-1.061c0.212-0.709,0.567-1.415,1.061-2.121
			c0.497-0.709,1.027-1.414,1.59-2.12c0.566-0.709,1.06-1.061,1.484-1.061c7.919-1.133,17.885-2.12,29.9-2.969
			c12.017-0.848,25.201-1.557,39.548-2.12c14.35-0.566,29.406-1.027,45.167-1.379c15.765-0.354,31.352-0.566,46.758-0.636
			c15.411-0.073,30.255-0.073,44.532,0c14.28,0.069,27.036,0.212,38.275,0.424s20.605,0.53,28.098,0.954
			C466.471,365.771,471.136,366.194,472.972,366.618z"/>
	</g>
</g>
</svg>
