<?xml version="1.0" encoding="utf-8"?>
<!-- Generator: Adobe Illustrator 16.0.0, SVG Export Plug-In . SVG Version: 6.00 Build 0)  -->
<!DOCTYPE svg PUBLIC "-//W3C//DTD SVG 1.1//EN" "http://www.w3.org/Graphics/SVG/1.1/DTD/svg11.dtd">
<svg version="1.1" id="Calque_1" xmlns="http://www.w3.org/2000/svg" xmlns:xlink="http://www.w3.org/1999/xlink" x="0px" y="0px"
	 width="56.693px" height="56.693px" viewBox="0 0 56.693 56.693" enable-background="new 0 0 56.693 56.693" xml:space="preserve">
<g>
	<g>
		<path fill="#F3C50F" d="M9.454,31.254c0,3.078,2.521,5.597,5.598,5.597h25.622c3.079,0,5.599-2.519,5.599-5.595V5.599
			c0-3.08-2.521-5.599-5.599-5.599H16.916L9.454,7.458V31.254z"/>
		<path fill="#FFD637" d="M9.454,7.458h4.916c1.399,0,2.546-1.144,2.546-2.542V0L9.454,7.458z"/>
		<polygon fill="#D5B01F" points="9.454,11.381 9.454,7.469 13.373,7.469 		"/>
		<path opacity="0.52" fill="#B2B2B2" d="M35.224,11.685l-2.522,1.894l2.465,2.462l-0.931,3.449l-6.906-6.904l-6.827,12.581
			l11.683,11.685h8.488c3.079,0,5.599-2.519,5.599-5.595v-8.524L35.224,11.685z"/>
		<g>
			<path fill="#FFFFFF" d="M28.065,22.452h-4.08l-0.848,2.714h-2.634l4.244-12.581h2.583l4.225,12.581h-2.637L28.065,22.452z
				 M24.604,20.474h2.847l-1.391-4.433h-0.055L24.604,20.474z"/>
			<path fill="#FFFFFF" d="M35.224,13.579h-2.522v-1.894h2.522V13.579z M35.224,25.166h-2.522v-9.351h2.522V25.166z"/>
		</g>
	</g>
	<g>
		<path fill="#010202" d="M7.149,49.271h0.728v7.284H7.149V49.271z"/>
		<path fill="#010202" d="M9.328,49.088h0.693v7.467H9.328V49.088z"/>
		<path fill="#010202" d="M11.358,49.088h0.693v7.467h-0.693V49.088z"/>
		<path fill="#010202" d="M13.403,51.167h0.693v2.515c0,0.614,0.033,1.036,0.099,1.268c0.099,0.331,0.289,0.59,0.568,0.782
			c0.279,0.192,0.612,0.287,0.999,0.287c0.387,0,0.715-0.093,0.984-0.28c0.27-0.187,0.456-0.432,0.559-0.735
			c0.069-0.208,0.104-0.649,0.104-1.322v-2.515h0.708v2.644c0,0.743-0.087,1.302-0.26,1.678c-0.173,0.376-0.434,0.671-0.782,0.884
			c-0.349,0.213-0.785,0.32-1.31,0.32s-0.963-0.106-1.315-0.32c-0.352-0.213-0.614-0.51-0.787-0.891s-0.26-0.954-0.26-1.721V51.167z
			"/>
		<path fill="#010202" d="M22.365,51.756l-0.445,0.46c-0.371-0.36-0.733-0.54-1.087-0.54c-0.226,0-0.418,0.074-0.579,0.223
			c-0.16,0.149-0.241,0.322-0.241,0.52c0,0.175,0.066,0.342,0.199,0.5c0.132,0.163,0.41,0.352,0.834,0.57
			c0.516,0.267,0.866,0.524,1.051,0.772c0.182,0.251,0.273,0.533,0.273,0.847c0,0.442-0.155,0.817-0.466,1.124
			c-0.311,0.307-0.7,0.461-1.166,0.461c-0.311,0-0.608-0.068-0.89-0.203c-0.283-0.135-0.517-0.322-0.702-0.56l0.436-0.495
			c0.354,0.4,0.73,0.599,1.126,0.599c0.278,0,0.515-0.089,0.71-0.268c0.195-0.178,0.293-0.387,0.293-0.629
			c0-0.198-0.064-0.375-0.194-0.53c-0.129-0.152-0.42-0.343-0.874-0.574c-0.486-0.251-0.817-0.499-0.992-0.743
			c-0.175-0.244-0.263-0.523-0.263-0.837c0-0.41,0.14-0.749,0.419-1.02s0.632-0.406,1.059-0.406
			C21.363,51.029,21.863,51.271,22.365,51.756z"/>
		<path fill="#010202" d="M24.197,49.167h0.693v2h1.099v0.599h-1.099v4.788h-0.693v-4.788h-0.946v-0.599h0.946V49.167z"/>
		<path fill="#010202" d="M26.767,51.167h0.708v0.787c0.211-0.311,0.434-0.542,0.668-0.696c0.235-0.153,0.479-0.23,0.733-0.23
			c0.191,0,0.396,0.061,0.614,0.183l-0.361,0.584c-0.146-0.063-0.267-0.094-0.366-0.094c-0.231,0-0.454,0.095-0.668,0.285
			s-0.378,0.484-0.49,0.884c-0.086,0.307-0.129,0.927-0.129,1.862v1.822h-0.708V51.167z"/>
		<path fill="#010202" d="M35.447,51.167v5.387h-0.684v-0.926c-0.29,0.353-0.616,0.619-0.978,0.797
			c-0.361,0.178-0.757,0.268-1.186,0.268c-0.763,0-1.414-0.276-1.954-0.83c-0.54-0.553-0.81-1.226-0.81-2.018
			c0-0.776,0.272-1.44,0.817-1.991c0.544-0.551,1.2-0.827,1.965-0.827c0.443,0,0.842,0.094,1.201,0.282
			c0.358,0.188,0.673,0.47,0.943,0.847v-0.99H35.447z M32.677,51.697c-0.386,0-0.742,0.095-1.068,0.285
			c-0.327,0.189-0.586,0.456-0.779,0.798c-0.192,0.343-0.289,0.706-0.289,1.088c0,0.38,0.097,0.742,0.292,1.088
			c0.195,0.347,0.457,0.616,0.784,0.808c0.328,0.193,0.68,0.29,1.056,0.29c0.379,0,0.738-0.095,1.078-0.287
			c0.34-0.19,0.601-0.449,0.784-0.776c0.183-0.327,0.274-0.693,0.274-1.103c0-0.623-0.205-1.144-0.616-1.563
			C33.782,51.906,33.277,51.697,32.677,51.697z"/>
		<path fill="#010202" d="M37.611,49.167h0.693v2h1.099v0.599h-1.099v4.788h-0.693v-4.788h-0.946v-0.599h0.946V49.167z"/>
		<path fill="#010202" d="M42.993,51.029c0.83,0,1.518,0.301,2.063,0.901c0.496,0.548,0.744,1.197,0.744,1.946
			c0,0.752-0.263,1.41-0.786,1.973c-0.524,0.563-1.198,0.844-2.021,0.844c-0.827,0-1.502-0.281-2.026-0.844
			c-0.524-0.563-0.786-1.221-0.786-1.973c0-0.747,0.248-1.393,0.744-1.941C41.471,51.331,42.16,51.029,42.993,51.029z
			 M42.991,51.707c-0.576,0-1.072,0.213-1.485,0.639c-0.415,0.426-0.622,0.941-0.622,1.545c0,0.39,0.094,0.752,0.283,1.089
			c0.189,0.336,0.444,0.597,0.765,0.78s0.674,0.275,1.059,0.275s0.737-0.092,1.058-0.275s0.576-0.443,0.765-0.78
			c0.189-0.337,0.284-0.699,0.284-1.089c0-0.604-0.208-1.119-0.624-1.545C44.058,51.92,43.564,51.707,42.991,51.707z"/>
		<path fill="#010202" d="M46.821,51.167h0.708v0.787c0.211-0.311,0.434-0.542,0.668-0.696c0.234-0.153,0.478-0.23,0.732-0.23
			c0.191,0,0.396,0.061,0.614,0.183l-0.361,0.584c-0.146-0.063-0.268-0.094-0.367-0.094c-0.231,0-0.454,0.095-0.668,0.285
			s-0.378,0.484-0.49,0.884c-0.086,0.307-0.128,0.927-0.128,1.862v1.822h-0.708V51.167z"/>
	</g>
</g>
</svg>
