<?xml version="1.0" encoding="utf-8"?>
<!-- Generator: Adobe Illustrator 16.0.0, SVG Export Plug-In . SVG Version: 6.00 Build 0)  -->
<!DOCTYPE svg PUBLIC "-//W3C//DTD SVG 1.1//EN" "http://www.w3.org/Graphics/SVG/1.1/DTD/svg11.dtd">
<svg version="1.1" id="Calque_1" xmlns="http://www.w3.org/2000/svg" xmlns:xlink="http://www.w3.org/1999/xlink" x="0px" y="0px"
	 width="56.693px" height="56.693px" viewBox="0 0 56.693 56.693" enable-background="new 0 0 56.693 56.693" xml:space="preserve">
<g>
	<g>
		<path fill="#010202" d="M9.709,49.026h1.189c0.478,0,0.846,0.057,1.104,0.17c0.256,0.113,0.459,0.288,0.609,0.523
			c0.148,0.235,0.224,0.497,0.224,0.784c0,0.268-0.066,0.512-0.197,0.732c-0.13,0.22-0.322,0.398-0.575,0.535
			c0.314,0.106,0.555,0.231,0.724,0.375c0.169,0.144,0.3,0.317,0.395,0.521c0.094,0.204,0.141,0.425,0.141,0.663
			c0,0.484-0.177,0.894-0.531,1.229c-0.354,0.335-0.83,0.502-1.425,0.502H9.709V49.026z M10.3,49.617v1.932h0.345
			c0.419,0,0.728-0.039,0.925-0.117c0.197-0.078,0.354-0.201,0.469-0.369c0.116-0.168,0.173-0.355,0.173-0.56
			c0-0.276-0.097-0.493-0.291-0.65c-0.194-0.157-0.501-0.236-0.923-0.236H10.3z M10.3,52.156v2.313h0.747
			c0.442,0,0.765-0.043,0.97-0.129s0.371-0.221,0.495-0.404c0.124-0.183,0.188-0.382,0.188-0.595c0-0.268-0.088-0.502-0.263-0.701
			c-0.175-0.2-0.416-0.336-0.723-0.41c-0.205-0.049-0.562-0.074-1.073-0.074H10.3z"/>
		<path fill="#010202" d="M16.535,50.482c0.688,0,1.257,0.249,1.708,0.747c0.412,0.454,0.618,0.991,0.618,1.612
			c0,0.624-0.218,1.169-0.652,1.635c-0.434,0.466-0.993,0.7-1.674,0.7c-0.685,0-1.245-0.233-1.68-0.7
			c-0.434-0.466-0.65-1.011-0.65-1.635c0-0.618,0.205-1.154,0.615-1.608C15.274,50.732,15.844,50.482,16.535,50.482z M16.533,51.044
			c-0.478,0-0.888,0.176-1.23,0.529c-0.345,0.353-0.515,0.779-0.515,1.28c0,0.322,0.078,0.624,0.233,0.902
			c0.157,0.279,0.368,0.494,0.634,0.646c0.267,0.152,0.559,0.228,0.878,0.228c0.318,0,0.61-0.076,0.876-0.228
			c0.267-0.152,0.478-0.367,0.634-0.646c0.157-0.279,0.236-0.58,0.236-0.902c0-0.5-0.172-0.927-0.517-1.28
			C17.417,51.221,17.007,51.044,16.533,51.044z"/>
		<path fill="#010202" d="M22.036,50.482c0.687,0,1.257,0.249,1.708,0.747c0.411,0.454,0.617,0.991,0.617,1.612
			c0,0.624-0.217,1.169-0.652,1.635c-0.434,0.466-0.993,0.7-1.674,0.7c-0.685,0-1.245-0.233-1.68-0.7
			c-0.434-0.466-0.65-1.011-0.65-1.635c0-0.618,0.205-1.154,0.615-1.608C20.775,50.732,21.345,50.482,22.036,50.482z M22.034,51.044
			c-0.478,0-0.888,0.176-1.23,0.529c-0.345,0.353-0.515,0.779-0.515,1.28c0,0.322,0.078,0.624,0.234,0.902
			c0.157,0.279,0.368,0.494,0.634,0.646c0.267,0.152,0.559,0.228,0.878,0.228c0.318,0,0.61-0.076,0.876-0.228
			c0.267-0.152,0.478-0.367,0.633-0.646c0.157-0.279,0.236-0.58,0.236-0.902c0-0.5-0.172-0.927-0.517-1.28
			C22.918,51.221,22.508,51.044,22.034,51.044z"/>
		<path fill="#010202" d="M25.925,48.94h0.574v1.657h0.911v0.497h-0.911v3.966h-0.574v-3.966h-0.783v-0.497h0.783V48.94z"/>
		<path fill="#010202" d="M30.515,51.085l-0.369,0.381c-0.308-0.298-0.607-0.447-0.9-0.447c-0.187,0-0.347,0.062-0.48,0.185
			c-0.133,0.123-0.199,0.267-0.199,0.431c0,0.145,0.054,0.283,0.164,0.414c0.108,0.134,0.339,0.292,0.691,0.472
			c0.427,0.222,0.718,0.435,0.871,0.64c0.151,0.208,0.227,0.441,0.227,0.701c0,0.367-0.129,0.677-0.386,0.931
			c-0.258,0.254-0.58,0.382-0.965,0.382c-0.258,0-0.504-0.056-0.738-0.168s-0.428-0.267-0.581-0.463l0.361-0.41
			c0.293,0.331,0.604,0.496,0.933,0.496c0.229,0,0.425-0.074,0.587-0.221c0.161-0.148,0.243-0.322,0.243-0.521
			c0-0.164-0.053-0.311-0.161-0.439c-0.106-0.125-0.348-0.285-0.723-0.476c-0.403-0.208-0.677-0.413-0.823-0.615
			s-0.217-0.433-0.217-0.693c0-0.339,0.115-0.621,0.347-0.845s0.524-0.336,0.878-0.336C29.685,50.482,30.099,50.684,30.515,51.085z"
			/>
		<path fill="#010202" d="M32.033,48.94h0.574v1.657h0.911v0.497h-0.911v3.966h-0.574v-3.966H31.25v-0.497h0.783V48.94z"/>
		<path fill="#010202" d="M34.162,50.597h0.587v0.652c0.174-0.257,0.359-0.449,0.554-0.576c0.194-0.127,0.396-0.191,0.607-0.191
			c0.158,0,0.328,0.051,0.509,0.152l-0.299,0.484c-0.121-0.052-0.222-0.078-0.304-0.078c-0.192,0-0.376,0.079-0.554,0.236
			c-0.179,0.157-0.314,0.401-0.406,0.732c-0.072,0.254-0.106,0.769-0.106,1.542v1.509h-0.587V50.597z"/>
		<path fill="#010202" d="M41.353,50.597v4.463h-0.566v-0.767c-0.241,0.293-0.511,0.513-0.81,0.661s-0.627,0.222-0.982,0.222
			c-0.632,0-1.171-0.229-1.618-0.687c-0.447-0.458-0.671-1.016-0.671-1.672c0-0.643,0.226-1.192,0.677-1.649
			s0.994-0.685,1.628-0.685c0.366,0,0.698,0.078,0.995,0.234c0.296,0.156,0.557,0.39,0.781,0.701v-0.82H41.353z M39.058,51.036
			c-0.32,0-0.615,0.079-0.886,0.236c-0.271,0.157-0.485,0.377-0.645,0.662c-0.159,0.284-0.239,0.584-0.239,0.901
			c0,0.314,0.08,0.615,0.241,0.901c0.161,0.287,0.378,0.51,0.649,0.669c0.273,0.16,0.564,0.24,0.876,0.24
			c0.313,0,0.611-0.079,0.892-0.238c0.282-0.158,0.499-0.373,0.65-0.643c0.152-0.271,0.228-0.575,0.228-0.914
			c0-0.517-0.17-0.948-0.511-1.295C39.972,51.209,39.554,51.036,39.058,51.036z"/>
		<path fill="#010202" d="M42.653,50.597h0.574v0.82c0.226-0.312,0.487-0.545,0.781-0.701c0.295-0.156,0.625-0.234,0.989-0.234
			c0.634,0,1.175,0.228,1.626,0.685s0.677,1.006,0.677,1.649c0,0.656-0.224,1.214-0.671,1.672c-0.447,0.458-0.985,0.687-1.616,0.687
			c-0.354,0-0.682-0.074-0.98-0.222c-0.297-0.147-0.566-0.368-0.806-0.661v2.4h-0.574V50.597z M44.95,51.036
			c-0.496,0-0.915,0.173-1.255,0.521c-0.339,0.347-0.508,0.778-0.508,1.295c0,0.339,0.076,0.643,0.227,0.914
			c0.151,0.27,0.368,0.485,0.651,0.643c0.282,0.159,0.581,0.238,0.895,0.238c0.308,0,0.597-0.08,0.87-0.24
			c0.271-0.159,0.487-0.383,0.648-0.669c0.161-0.287,0.242-0.587,0.242-0.901c0-0.317-0.08-0.617-0.24-0.901
			c-0.16-0.284-0.374-0.505-0.644-0.662C45.563,51.115,45.268,51.036,44.95,51.036z"/>
	</g>
	<g>
		<path fill="#5A4581" d="M49.069,5.667C48.745,2.495,46.045,0,42.791,0h-26.79h-2.098c-3.471,0-6.311,2.838-6.311,6.31v2.099
			v26.828c0,3.471,2.84,6.31,6.311,6.31h26.79h2.098c3.472,0,6.311-2.838,6.311-6.31v-2.1V6.31
			C49.102,6.094,49.089,5.878,49.069,5.667z"/>
		<g>
			<path fill="#FFFFFF" d="M18.792,9.367h9.118c1.807,0,3.153,0.076,4.041,0.227c0.886,0.148,1.68,0.464,2.379,0.941
				c0.701,0.476,1.284,1.112,1.751,1.905c0.466,0.794,0.699,1.683,0.699,2.669c0,1.066-0.287,2.048-0.863,2.94
				c-0.576,0.894-1.358,1.562-2.342,2.008c1.391,0.405,2.459,1.094,3.206,2.068c0.747,0.974,1.12,2.123,1.12,3.439
				c0,1.037-0.242,2.046-0.722,3.027c-0.484,0.979-1.14,1.763-1.977,2.35c-0.837,0.585-1.864,0.946-3.089,1.081
				c-0.767,0.083-2.619,0.135-5.556,0.156h-7.764V9.367z M23.4,13.164v5.275h3.017c1.795,0,2.911-0.024,3.345-0.078
				c0.79-0.092,1.409-0.365,1.86-0.816s0.677-1.045,0.677-1.781c0-0.706-0.195-1.279-0.583-1.72c-0.39-0.441-0.97-0.708-1.737-0.802
				c-0.454-0.052-1.768-0.078-3.936-0.078H23.4z M23.4,22.236v6.1h4.262c1.661,0,2.711-0.047,3.161-0.14
				c0.683-0.125,1.239-0.429,1.671-0.911c0.433-0.483,0.644-1.128,0.644-1.937c0-0.685-0.166-1.267-0.496-1.743
				c-0.33-0.477-0.813-0.826-1.44-1.043c-0.625-0.218-1.987-0.326-4.083-0.326H23.4z"/>
		</g>
	</g>
</g>
</svg>
