<?xml version="1.0" encoding="utf-8"?>
<!-- Generator: Adobe Illustrator 16.0.0, SVG Export Plug-In . SVG Version: 6.00 Build 0)  -->
<!DOCTYPE svg PUBLIC "-//W3C//DTD SVG 1.1//EN" "http://www.w3.org/Graphics/SVG/1.1/DTD/svg11.dtd">
<svg version="1.1" id="Layer_1" xmlns="http://www.w3.org/2000/svg" xmlns:xlink="http://www.w3.org/1999/xlink" x="0px" y="0px"
	 width="320px" height="480px" viewBox="0 0 320 480" enable-background="new 0 0 320 480" xml:space="preserve">
<g>
	<path fill="#FFFFFF" d="M172.5,219c-16.125-6.75-34.5-10.625-54.063-10.625c-62.813,0-113.875,39.688-114.688,88.875H180.5
		L172.5,219z M28.375,272.188l-0.938-1l3.5-3.063l0.938,1L28.375,272.188z M75,248.063l-0.938-1l3.5-3.063l0.938,1L75,248.063z
		 M90.438,286.188l-0.938-1l3.5-3.063l0.938,1L90.438,286.188z M94.813,262.563l-0.938-1l3.5-3.063l0.938,1L94.813,262.563z
		 M106.375,230.563l-0.938-1l3.5-3.063l0.938,1L106.375,230.563z M135.875,253.875l3.5-3.063l0.938,1l-3.5,3.063L135.875,253.875z
		 M139,284.125l-0.938-1l3.5-3.063l0.938,1L139,284.125z M151.438,235.688l-0.938-1l3.5-3.063l0.938,1L151.438,235.688z
		 M169.188,255.938l3.5-3.063l0.938,1l-3.5,3.063L169.188,255.938z"/>
	<path fill="#FFFFFF" d="M185.563,347c-1.563,0.938-3.313,1.75-5.25,2.5c-7.563,2.875-16.938,3.813-24.875,1.563
		c-17.188-4.875-22.438-22.313-43.5-21.938c-7.563,0.125-14.625,2.688-20.75,5.688c-7.438,3.688-14.25,7.875-22,11.313
		c-10.25,4.5-23.688,7.375-34.688,3.688c-10.813-3.625-15.688-14.25-19-22.125H3.75v14.625C3.75,361.438,13.375,377,25.188,377
		h165.438c-1.5-2.188-2.5-4.75-2.75-7.563L185.563,347z"/>
	<path fill="#FFFFFF" d="M8.375,305.313c0,1.5,1.188,2.688,2.688,2.688h170.563l-0.563-5.375h-170
		C9.563,302.625,8.375,303.813,8.375,305.313z"/>
	<path fill="#FFFFFF" d="M8.563,322.313h174.5l-1-9.625H8.563c-2.625,0-4.813,2.125-4.813,4.813S5.875,322.313,8.563,322.313z"/>
	<path fill="#FFFFFF" d="M285.625,107.688h30.625v-4.625h-30.625c-7.5,0-14,4.813-16.188,12L258.5,150.938h-75.75
		c-5.438,0-9.688,4.688-9.125,10.125l21.25,207.688c0.5,4.688,4.438,8.25,9.125,8.25h28.563h0.688h28.563
		c4.688,0,8.688-3.563,9.125-8.25l21.25-207.688c0.563-5.438-3.688-10.125-9.125-10.125h-19.625l10.563-34.5
		C275.438,111.188,280.188,107.688,285.625,107.688z"/>
</g>
</svg>
