<?xml version="1.0" encoding="utf-8"?>
<!-- Generator: Adobe Illustrator 16.0.0, SVG Export Plug-In . SVG Version: 6.00 Build 0)  -->
<!DOCTYPE svg PUBLIC "-//W3C//DTD SVG 1.1//EN" "http://www.w3.org/Graphics/SVG/1.1/DTD/svg11.dtd">
<svg version="1.1" id="Layer_1" xmlns="http://www.w3.org/2000/svg" xmlns:xlink="http://www.w3.org/1999/xlink" x="0px" y="0px"
	 width="320px" height="480px" viewBox="0 0 320 480" enable-background="new 0 0 320 480" xml:space="preserve">
<path fill="#FFFDFD" d="M295.792,345.6c0,3.84-3.199,6.4-6.4,6.4h-256c-3.2,0-6.4-2.561-6.4-6.4V144c0-8.96,7.04-16,16-16h236.8
	c8.959,0,16,7.04,16,16V345.6z"/>
<path d="M36.593,153.24h249.599v179.199c0,1.92-1.28,3.201-3.2,3.201h-243.2c-1.92,0-3.199-1.281-3.199-3.201V153.24z"/>
<g>
	<polygon fill="#FFFFFF" points="108.84,312.172 48.68,286.572 48.68,271.852 108.84,245.612 108.84,262.893 67.24,278.893 
		108.84,295.531 	"/>
	<polygon fill="#FFFFFF" points="143.04,324.332 164.8,233.452 176.96,233.452 155.2,324.332 	"/>
	<polygon fill="#FFFFFF" points="211.16,312.492 211.16,295.211 252.76,278.572 211.16,262.572 211.16,245.292 271.321,271.531 
		271.321,286.252 	"/>
</g>
</svg>
