<?xml version="1.0" encoding="utf-8"?>
<!-- Generator: Adobe Illustrator 16.0.0, SVG Export Plug-In . SVG Version: 6.00 Build 0)  -->
<!DOCTYPE svg PUBLIC "-//W3C//DTD SVG 1.1//EN" "http://www.w3.org/Graphics/SVG/1.1/DTD/svg11.dtd">
<svg version="1.1" id="Layer_1" xmlns="http://www.w3.org/2000/svg" xmlns:xlink="http://www.w3.org/1999/xlink" x="0px" y="0px"
	 width="320px" height="480px" viewBox="0 0 320 480" enable-background="new 0 0 320 480" xml:space="preserve">
<g>
	<path fill="#FFFFFF" d="M258.176,127.161h-81.521v0.028H39.293v52.881c0,56.859,46.089,102.95,102.943,102.95
		c41.804,0,77.7-24.959,93.833-60.738h22.106c26.226,0,47.563-21.333,47.563-47.563S284.402,127.161,258.176,127.161z
		 M258.176,197.251H243.64c0.941-5.598,1.547-11.308,1.547-17.181v-27.878h12.989c12.417,0,22.526,10.104,22.526,22.527
		C280.702,187.142,270.593,197.251,258.176,197.251z"/>
	<path fill="#FFFFFF" d="M34.075,327.07c2.881,4.724,9.7,8.551,15.23,8.551h185.873c5.525,0,12.346-3.827,15.225-8.551l19.82-32.474
		H14.261L34.075,327.07z"/>
</g>
</svg>
