<?xml version="1.0" encoding="utf-8"?>
<!-- Generator: Adobe Illustrator 16.0.0, SVG Export Plug-In . SVG Version: 6.00 Build 0)  -->
<!DOCTYPE svg PUBLIC "-//W3C//DTD SVG 1.1//EN" "http://www.w3.org/Graphics/SVG/1.1/DTD/svg11.dtd">
<svg version="1.1" id="Calque_1" xmlns="http://www.w3.org/2000/svg" xmlns:xlink="http://www.w3.org/1999/xlink" x="0px" y="0px"
	 width="56.693px" height="56.693px" viewBox="0 0 56.693 56.693" enable-background="new 0 0 56.693 56.693" xml:space="preserve">
<g>
	<g>
		<g>
			<g>
				<polygon fill="#66BDEB" points="11.853,50.351 8.673,12.648 48.02,12.648 44.841,50.351 28.346,54.878 				"/>
				<g>
					<path fill="#309DD8" d="M46.116,14.398L43.2,48.986l-14.854,4.078l-14.853-4.078l-2.917-34.588H46.116 M49.924,10.898H6.77
						l3.442,40.817l18.135,4.979l18.136-4.979L49.924,10.898L49.924,10.898z"/>
				</g>
			</g>
			<polygon fill="#309DD8" points="28.346,56.693 10.211,51.715 6.77,10.898 28.346,10.898 			"/>
		</g>
		<polygon fill="#FFFDFE" points="41.325,19.766 15.367,19.766 15.603,24.409 35.989,24.409 35.673,29.632 21.292,29.632 
			21.523,34.275 35.395,34.275 34.951,41.408 28.739,42.976 22.26,40.994 21.994,37.137 16.959,37.137 17.449,44.413 28.6,47.824 
			39.769,45.003 		"/>
	</g>
	<g>
		<path d="M22.082,4.438l2.146,0.597c-0.144,0.554-0.37,1.016-0.68,1.39c-0.312,0.371-0.696,0.652-1.155,0.84
			c-0.459,0.191-1.044,0.285-1.753,0.285c-0.863,0-1.565-0.114-2.111-0.345c-0.545-0.23-1.019-0.635-1.413-1.217
			c-0.397-0.581-0.595-1.324-0.595-2.23c0-1.207,0.35-2.135,1.046-2.784C18.263,0.325,19.248,0,20.523,0
			c1,0,1.785,0.186,2.356,0.559c0.57,0.369,0.995,0.941,1.273,1.711L21.99,2.714c-0.076-0.222-0.155-0.386-0.238-0.488
			c-0.136-0.173-0.306-0.306-0.503-0.4c-0.199-0.091-0.419-0.139-0.665-0.139c-0.555,0-0.98,0.207-1.275,0.618
			c-0.223,0.305-0.334,0.785-0.334,1.438c0,0.81,0.131,1.364,0.399,1.664c0.266,0.3,0.641,0.449,1.123,0.449
			c0.469,0,0.823-0.119,1.062-0.363C21.8,5.25,21.974,4.898,22.082,4.438z"/>
		<path d="M24.988,5.008l2.332-0.132c0.049,0.347,0.153,0.615,0.306,0.795c0.251,0.296,0.613,0.443,1.083,0.443
			c0.348,0,0.617-0.073,0.806-0.226C29.704,5.737,29.8,5.562,29.8,5.363c0-0.19-0.089-0.357-0.27-0.506
			c-0.179-0.151-0.599-0.292-1.252-0.424c-1.076-0.223-1.842-0.52-2.297-0.888c-0.464-0.368-0.693-0.836-0.693-1.408
			c0-0.375,0.118-0.73,0.354-1.065c0.234-0.332,0.591-0.593,1.066-0.785C27.181,0.095,27.83,0,28.655,0
			c1.012,0,1.785,0.173,2.315,0.52c0.53,0.348,0.848,0.9,0.949,1.657L29.61,2.3c-0.061-0.329-0.191-0.566-0.386-0.716
			c-0.196-0.15-0.468-0.224-0.813-0.224c-0.284,0-0.5,0.055-0.642,0.166c-0.142,0.113-0.217,0.247-0.217,0.405
			c0,0.119,0.062,0.222,0.178,0.315c0.118,0.095,0.391,0.184,0.823,0.268c1.07,0.212,1.835,0.43,2.3,0.647
			c0.462,0.217,0.799,0.485,1.009,0.808c0.212,0.322,0.316,0.684,0.316,1.08c0,0.468-0.141,0.901-0.419,1.297
			c-0.283,0.396-0.678,0.694-1.179,0.897c-0.507,0.205-1.143,0.307-1.909,0.307c-1.348,0-2.281-0.238-2.799-0.715
			C25.352,6.354,25.059,5.747,24.988,5.008z"/>
		<path d="M32.983,5.008l2.331-0.132c0.05,0.347,0.152,0.615,0.306,0.795c0.254,0.296,0.613,0.443,1.083,0.443
			c0.35,0,0.617-0.073,0.806-0.226c0.19-0.151,0.284-0.327,0.284-0.525c0-0.19-0.092-0.357-0.269-0.506
			c-0.181-0.151-0.599-0.292-1.256-0.424c-1.072-0.223-1.837-0.52-2.295-0.888c-0.462-0.368-0.693-0.836-0.693-1.408
			c0-0.375,0.117-0.73,0.354-1.065c0.235-0.332,0.592-0.593,1.066-0.785C35.173,0.095,35.822,0,36.648,0
			c1.012,0,1.784,0.173,2.316,0.52c0.531,0.348,0.847,0.9,0.949,1.657L37.604,2.3c-0.062-0.329-0.189-0.566-0.386-0.716
			c-0.196-0.15-0.468-0.224-0.816-0.224c-0.283,0-0.496,0.055-0.641,0.166c-0.143,0.113-0.215,0.247-0.215,0.405
			c0,0.119,0.059,0.222,0.177,0.315c0.117,0.095,0.39,0.184,0.821,0.268c1.072,0.212,1.837,0.43,2.301,0.647
			c0.461,0.217,0.8,0.485,1.01,0.808c0.21,0.322,0.315,0.684,0.315,1.08c0,0.468-0.14,0.901-0.422,1.297
			c-0.279,0.396-0.672,0.694-1.178,0.897c-0.503,0.205-1.138,0.307-1.907,0.307c-1.348,0-2.28-0.238-2.8-0.715
			C33.347,6.354,33.052,5.747,32.983,5.008z"/>
	</g>
</g>
</svg>
