<?xml version="1.0" encoding="utf-8"?>
<!-- Generator: Adobe Illustrator 16.0.0, SVG Export Plug-In . SVG Version: 6.00 Build 0)  -->
<!DOCTYPE svg PUBLIC "-//W3C//DTD SVG 1.1//EN" "http://www.w3.org/Graphics/SVG/1.1/DTD/svg11.dtd">
<svg version="1.1" id="Layer_1" xmlns="http://www.w3.org/2000/svg" xmlns:xlink="http://www.w3.org/1999/xlink" x="0px" y="0px"
	 width="320px" height="480px" viewBox="0 0 320 480" enable-background="new 0 0 320 480" xml:space="preserve">
<path fill="#FCFCFC" d="M161.002,80c-88.372,0-160,71.634-160,160c0,88.367,71.628,160,160,160c88.366,0,160-71.633,160-160
	C321.002,151.634,249.368,80,161.002,80z M161.002,392.5c-84.087,0-152.5-68.407-152.5-152.5s68.413-152.5,152.5-152.5
	c84.093,0,152.5,68.407,152.5,152.5S245.095,392.5,161.002,392.5z"/>
<path fill="#FCFCFC" d="M161,104.304c-74.95,0-135.701,60.747-135.701,135.696c0,74.95,60.762,135.696,135.701,135.696
	c74.95,0,135.705-60.757,135.705-135.696C296.705,165.051,235.95,104.304,161,104.304z M161,368.196
	c-70.69,0-128.201-57.511-128.201-128.196S90.31,111.804,161,111.804c70.686,0,128.205,57.51,128.205,128.196
	S231.686,368.196,161,368.196z"/>
<path fill="#FCFCFC" d="M142.122,312.73h30.05V240h20.05l2.66-25.061h-22.7l0.03-12.549c0-6.531,0.62-10.041,10-10.041h12.53v-25.08
	h-20.05c-24.091,0-32.561,12.16-32.561,32.61v15.05h-15.01V240h15.01v72.73H142.122L142.122,312.73z"/>
</svg>
