<?xml version="1.0" encoding="utf-8"?>
<!-- Generator: Adobe Illustrator 16.0.0, SVG Export Plug-In . SVG Version: 6.00 Build 0)  -->
<!DOCTYPE svg PUBLIC "-//W3C//DTD SVG 1.1//EN" "http://www.w3.org/Graphics/SVG/1.1/DTD/svg11.dtd">
<svg version="1.1" id="Calque_1" xmlns="http://www.w3.org/2000/svg" xmlns:xlink="http://www.w3.org/1999/xlink" x="0px" y="0px"
	 width="73.63px" height="75.673px" viewBox="0 0 73.63 75.673" enable-background="new 0 0 73.63 75.673" xml:space="preserve">
<g>
	<path fill="#EF484A" d="M46.705,29.172h-8.09c0-2.75-2.102-4.854-4.854-4.854h-6.471c-0.971,0-1.618-0.646-1.618-1.617
		s0.647-1.617,1.618-1.617h21.841c0.484,0,0.809-0.324,0.809-0.811c0-0.484-0.324-0.809-0.809-0.809H27.291
		c-1.78,0-3.236,1.457-3.236,3.236s1.456,3.234,3.236,3.234h6.471c1.781,0,3.236,1.457,3.236,3.236h-9.707
		c-5.339,0-9.707,4.37-9.707,9.708v12.943c0,3.559,2.911,6.473,6.471,6.473c1.78,0,3.398-0.648,4.53-1.943l7.442-7.604
		c0.324-0.162,0.486-0.322,0.809-0.322c0.324,0,0.647,0.16,0.809,0.322l7.443,7.604c1.133,1.135,2.75,1.943,4.528,1.943
		c3.561,0,6.473-2.914,6.473-6.473V38.879C56.412,33.542,52.044,29.172,46.705,29.172z M53.177,51.823
		c0,1.779-1.457,3.234-3.236,3.234c-0.97,0-1.778-0.322-2.265-0.969l-7.281-7.279c0,0-1.455-1.457-3.396-1.457
		s-3.397,1.457-3.397,1.457l-7.28,7.279c-0.485,0.646-1.294,0.969-2.266,0.969c-1.779,0-3.235-1.455-3.235-3.234V38.879
		c0-3.559,2.911-6.471,6.472-6.471h19.414c3.56,0,6.472,2.912,6.472,6.471V51.823z"/>
	<circle fill="#EF484A" cx="45.088" cy="43.734" r="1.618"/>
	<circle fill="#EF484A" cx="45.088" cy="37.261" r="1.618"/>
	<circle fill="#EF484A" cx="41.852" cy="40.498" r="1.618"/>
	<circle fill="#EF484A" cx="48.323" cy="40.498" r="1.618"/>
	<path fill="#EF484A" d="M32.145,38.879h-1.618v-1.617c0-0.971-0.646-1.619-1.618-1.619c-0.971,0-1.617,0.648-1.617,1.619v1.617
		h-1.618c-0.971,0-1.618,0.646-1.618,1.619c0,0.969,0.647,1.617,1.618,1.617h1.618v1.617c0,0.971,0.646,1.619,1.617,1.619
		c0.972,0,1.618-0.648,1.618-1.619v-1.617h1.618c0.971,0,1.617-0.648,1.617-1.617C33.762,39.526,33.115,38.879,32.145,38.879z"/>
</g>
<circle fill="none" stroke="#EF484A" stroke-width="3" stroke-miterlimit="10" cx="36.846" cy="38.879" r="35"/>
</svg>
