<?xml version="1.0" encoding="utf-8"?>
<!-- Generator: Adobe Illustrator 16.0.0, SVG Export Plug-In . SVG Version: 6.00 Build 0)  -->
<!DOCTYPE svg PUBLIC "-//W3C//DTD SVG 1.1//EN" "http://www.w3.org/Graphics/SVG/1.1/DTD/svg11.dtd">
<svg version="1.1" id="Layer_1" xmlns="http://www.w3.org/2000/svg" xmlns:xlink="http://www.w3.org/1999/xlink" x="0px" y="0px"
	 width="320px" height="480px" viewBox="0 0 320 480" enable-background="new 0 0 320 480" xml:space="preserve">
<path fill="#FFFFFF" d="M161,80C72.628,80,1,151.633,1,240c0,88.367,71.628,160,160,160c88.366,0,160-71.633,160-160
	C321,151.633,249.366,80,161,80z M161,392.5C76.913,392.5,8.5,324.093,8.5,240S76.913,87.5,161,87.5
	c84.093,0,152.5,68.407,152.5,152.5S245.093,392.5,161,392.5z"/>
<path fill="#FFFFFF" d="M161,104.304c-74.95,0-135.701,60.747-135.701,135.696c0,74.95,60.762,135.696,135.701,135.696
	c74.95,0,135.705-60.757,135.705-135.696C296.705,165.051,235.95,104.304,161,104.304z M161,368.196
	c-70.69,0-128.201-57.511-128.201-128.196S90.31,111.804,161,111.804c70.686,0,128.205,57.51,128.205,128.196
	S231.686,368.196,161,368.196z"/>
<path fill="#FFFFFF" d="M100.467,266.2c0,0,5.24,5.239,10.479,15.72c0,0,8,21.891,36.681,15.721c0.06,8.529,0,20.959,0,20.959
	h20.959h20.93v-36.68c0-4.14-2.29-13.16-5.24-15.72c22.891-2.58,41.92-15.72,41.92-41.92s-5.239-31.44-10.479-36.681
	c1.06-2.58,5.439-12.129-0.16-26.199c0,0-10.32,0-20.8,15.72c-5.19-5.19-20.96-5.24-26.19-5.24c-5.239,0-21.009,0.05-26.199,5.24
	c-10.48-15.72-20.78-15.72-20.78-15.72c-5.61,14.07-1.22,23.619-0.16,26.199c-5.24,5.24-10.5,10.48-10.5,36.68
	c0,26.201,19.05,39.341,41.94,41.921c-2.94,2.56-5.24,10.479-5.24,15.72c-5.88,2.62-22.24,5.13-31.44-10.48
	c0,0-5.24-10.479-15.72-10.479C100.467,260.96,89.986,259.971,100.467,266.2z"/>
</svg>
