<?xml version="1.0" encoding="utf-8"?>
<!-- Generator: Adobe Illustrator 16.0.0, SVG Export Plug-In . SVG Version: 6.00 Build 0)  -->
<!DOCTYPE svg PUBLIC "-//W3C//DTD SVG 1.1//EN" "http://www.w3.org/Graphics/SVG/1.1/DTD/svg11.dtd">
<svg version="1.1" id="Action" xmlns="http://www.w3.org/2000/svg" xmlns:xlink="http://www.w3.org/1999/xlink" x="0px" y="0px"
	 width="512px" height="512px" viewBox="0 0 512 512" enable-background="new 0 0 512 512" xml:space="preserve">
<g id="XMLID_1_">
	<g>
		<path fill="#ED5758" d="M256,0c141.35,0,256,114.65,256,256c0,141.36-114.65,256-256,256C114.64,512,0,397.36,0,256
			C0,114.65,114.64,0,256,0z"/>
	</g>
	<g>
	</g>
</g>
<g id="Action_1_">
	<g>
		<rect x="62.125" y="223.887" fill="#4D4D4D" width="408.757" height="236.791"/>
		<polygon fill="#4D4D4D" points="80.732,223.887 62.125,223.887 62.125,242.494 		"/>
		<polygon fill="#4D4D4D" points="178.268,223.887 131.15,223.887 62.125,293.214 62.125,302.52 80.732,321.427 154.862,247.297 
			154.862,247.297 		"/>
		<polygon fill="#4D4D4D" points="275.808,223.887 228.69,223.887 154.862,297.716 178.268,321.427 252.397,247.297 
			252.397,247.297 		"/>
		<polygon fill="#4D4D4D" points="373.348,223.887 326.226,223.887 252.397,297.716 275.808,321.427 349.938,247.297 
			349.938,247.297 		"/>
		<polygon fill="#4D4D4D" points="470.883,223.887 423.766,223.887 349.938,297.716 373.348,321.427 447.473,247.297 
			447.473,247.297 		"/>
		<polygon fill="#E6E6E6" points="80.732,223.887 62.125,223.887 62.125,242.494 		"/>
		<polygon fill="#E6E6E6" points="178.268,223.887 131.15,223.887 62.125,293.214 62.125,297.716 104.443,297.716 154.862,247.297 
			154.862,247.297 		"/>
		<polygon fill="#E6E6E6" points="275.808,223.887 228.69,223.887 154.862,297.716 201.979,297.716 252.397,247.297 
			252.397,247.297 		"/>
		<polygon fill="#E6E6E6" points="373.348,223.887 326.226,223.887 252.397,297.716 299.218,297.716 349.938,247.297 
			349.938,247.297 		"/>
		<polygon fill="#E6E6E6" points="470.883,223.887 423.766,223.887 349.938,297.716 396.753,297.716 447.473,247.297 
			447.473,247.297 		"/>
		
			<rect x="43.232" y="102.958" transform="matrix(0.9659 -0.2588 0.2588 0.9659 -27.261 68.8016)" fill="#4D4D4D" width="408.898" height="69.964"/>
		<polygon fill="#E6E6E6" points="77.431,219.686 59.122,224.789 54.322,206.18 		"/>
		<polygon fill="#E6E6E6" points="41.113,156.962 86.134,144.956 171.666,194.477 171.364,194.477 126.05,206.78 126.05,206.481 
			41.414,157.561 		"/>
		<polygon fill="#E6E6E6" points="134.753,132.052 180.071,119.747 265.903,169.266 265.603,169.266 220.285,181.571 
			220.285,181.27 		"/>
		<polygon fill="#E6E6E6" points="228.987,106.841 274.306,94.538 359.841,144.057 359.841,144.057 314.523,156.362 
			314.523,156.061 		"/>
		<polygon fill="#E6E6E6" points="323.226,81.632 368.544,69.326 454.074,118.847 454.074,118.847 408.46,131.15 408.762,130.852 		
			"/>
		<rect x="81.029" y="352.339" fill="#E6E6E6" width="196.88" height="43.815"/>
		<rect x="289.615" y="321.725" fill="#E6E6E6" width="171.967" height="105.041"/>
		<polygon fill="#DDE8EE" points="275.808,301.018 278.511,316.322 293.214,311.223 281.511,321.427 293.214,331.33 
			278.511,326.227 275.808,341.531 273.104,326.227 258.401,331.33 270.104,321.427 258.401,311.223 273.104,316.322 		"/>
		<polygon fill="#DDE8EE" points="303.418,430.067 304.921,438.473 313.021,435.77 306.72,441.172 313.021,446.874 304.921,443.874 
			303.418,452.577 301.915,443.874 293.815,446.874 300.418,441.172 293.815,435.77 301.915,438.473 		"/>
		<polygon fill="#DDE8EE" points="261.703,392.553 264.401,406.359 277.606,401.557 266.804,410.861 277.606,420.163 
			264.401,415.364 261.703,429.167 259.301,415.364 245.795,420.163 256.599,410.861 245.795,401.557 259.301,406.359 		"/>
		<path fill="#4E5A62" d="M470.883,216.385H118.247L456.18,126.05c1.8-0.601,3.302-1.801,4.498-3.603
			c0.903-1.801,1.201-3.601,0.603-5.703L443.272,49.22c-1.201-3.902-5.101-6.303-9.302-5.103L39.314,150.059
			c-3.899,0.899-6.301,5.103-5.397,9.004l18.302,67.525c0.301,1.502,1.205,3.002,2.401,3.902v230.188
			c0,4.205,3.306,7.506,7.506,7.506h408.757c4.2,0,7.502-3.301,7.502-7.506V223.887
			C478.385,219.686,475.084,216.385,470.883,216.385z M470.883,460.678H62.125V302.52v-4.804v-4.502v-50.72v-18.606l-3.004,0.901
			l-4.8-18.609l-12.907-48.619l-0.302-0.598l45.021-12.006l48.619-12.904l45.317-12.305l48.916-12.906l45.318-12.303l48.92-12.906
			l45.318-12.306l67.526-18.006l18.004,67.527L408.46,131.15l-48.619,12.906l-45.317,12.305l-48.921,12.904l-45.317,12.306
			l-48.92,12.906L126.05,206.78l-48.619,12.906l-15.306,4.201h18.606h50.418h47.118h50.422h47.117h50.418h47.122h50.418h47.117
			L470.883,460.678L470.883,460.678z"/>
	</g>
</g>
</svg>
