<?xml version="1.0" encoding="utf-8"?>
<!-- Generator: Adobe Illustrator 16.0.0, SVG Export Plug-In . SVG Version: 6.00 Build 0)  -->
<!DOCTYPE svg PUBLIC "-//W3C//DTD SVG 1.1//EN" "http://www.w3.org/Graphics/SVG/1.1/DTD/svg11.dtd">
<svg version="1.1" id="Calque_1" xmlns="http://www.w3.org/2000/svg" xmlns:xlink="http://www.w3.org/1999/xlink" x="0px" y="0px"
	 width="56.693px" height="56.693px" viewBox="0 0 56.693 56.693" enable-background="new 0 0 56.693 56.693" xml:space="preserve">
<g>
	<g>
		<g>
			<g>
				<polygon fill="#EF795D" points="11.797,50.335 8.606,12.504 48.087,12.504 44.896,50.335 28.348,54.878 				"/>
				<g>
					<path fill="#DA5231" d="M46.183,14.254l-2.928,34.717l-14.908,4.093l-14.91-4.093L10.51,14.254H46.183 M49.991,10.754H6.703
						l3.453,40.945l18.192,4.994l18.19-4.994L49.991,10.754L49.991,10.754z"/>
				</g>
			</g>
			<polygon fill="#DA5231" points="28.348,56.693 10.156,51.699 6.703,10.754 28.348,10.754 			"/>
		</g>
		<g>
			<polygon fill="#FFFFFF" points="28.507,47.551 17.319,44.13 16.827,36.828 21.879,36.828 22.145,40.699 28.648,42.686 
				34.873,41.115 35.323,33.958 15.973,33.958 15.233,19.407 41.459,19.407 41.459,24.061 20.529,24.061 20.795,29.3 40.675,29.3 
				39.713,44.724 			"/>
		</g>
	</g>
	<g>
		<path d="M10.7,0h2.547v2.588h2.785V0h2.559v7.396h-2.559v-2.99h-2.785v2.99H10.7V0z"/>
		<path d="M19.702,0h7.745v1.826H24.85v5.569H22.3V1.826h-2.598V0z"/>
		<path d="M28.572,0h3.351l1.293,4.499L34.496,0h3.353v7.396h-2.086V1.754L34.15,7.396h-1.888l-1.602-5.642v5.642h-2.089V0z"/>
		<path d="M39.471,0h2.548v5.574h3.975v1.821h-6.522V0z"/>
	</g>
</g>
</svg>
