<?xml version="1.0" encoding="utf-8"?>
<!-- Generator: Adobe Illustrator 16.0.0, SVG Export Plug-In . SVG Version: 6.00 Build 0)  -->
<!DOCTYPE svg PUBLIC "-//W3C//DTD SVG 1.1//EN" "http://www.w3.org/Graphics/SVG/1.1/DTD/svg11.dtd">
<svg version="1.1" id="Calque_1" xmlns="http://www.w3.org/2000/svg" xmlns:xlink="http://www.w3.org/1999/xlink" x="0px" y="0px"
	 width="56.693px" height="56.693px" viewBox="0 0 56.693 56.693" enable-background="new 0 0 56.693 56.693" xml:space="preserve">
<g>
	<g>
		<g>
			<polygon fill="#FCCC5A" points="11.854,50.351 8.673,12.646 48.02,12.646 44.84,50.351 28.349,54.878 			"/>
			<g>
				<path fill="#D9A730" d="M46.116,14.396l-2.917,34.59l-14.851,4.077l-14.854-4.077l-2.918-34.59H46.116 M49.924,10.896H6.77
					l3.443,40.819l18.136,4.978l18.133-4.978L49.924,10.896L49.924,10.896z"/>
			</g>
		</g>
		<polygon fill="#D9A730" points="28.349,56.693 10.213,51.715 6.77,10.896 28.349,10.896 		"/>
	</g>
	<g>
		<g>
			<g>
				<polygon fill="#FFFEFD" points="27.268,47.806 17.496,45.42 17.496,40.618 22.234,41.775 22.234,18.292 27.268,18.292 				"/>
			</g>
		</g>
		<g>
			<g>
				<polygon fill="#FFFEFD" points="29.621,47.799 29.621,42.941 34.605,41.515 35.536,33.862 29.621,33.862 29.621,18.371 
					42.488,18.371 41.913,23.014 34.658,23.014 34.658,29.222 41.17,29.222 39.245,45.046 				"/>
			</g>
		</g>
	</g>
</g>
</svg>
