<?xml version="1.0" encoding="utf-8"?>
<!-- Generator: Adobe Illustrator 16.0.0, SVG Export Plug-In . SVG Version: 6.00 Build 0)  -->
<!DOCTYPE svg PUBLIC "-//W3C//DTD SVG 1.1//EN" "http://www.w3.org/Graphics/SVG/1.1/DTD/svg11.dtd">
<svg version="1.1" id="Calque_1" xmlns="http://www.w3.org/2000/svg" xmlns:xlink="http://www.w3.org/1999/xlink" x="0px" y="0px"
	 width="73.63px" height="75.673px" viewBox="0 0 73.63 75.673" enable-background="new 0 0 73.63 75.673" xml:space="preserve">
<g>
	<path fill="#EF484A" stroke="#EF484A" stroke-miterlimit="10" d="M34.023,42.79c-0.017,0.052-0.125,0.048-0.326-0.013
		c-0.2-0.062-0.474-0.162-0.822-0.301l-0.521-0.234c-0.766-0.349-1.521-0.775-2.27-1.279c-0.122-0.088-0.479-0.361-1.07-0.822
		c-0.592-0.461-0.923-0.709-0.992-0.744c-1.166,1.792-2.331,3.367-3.497,4.725c-1.409,1.652-2.323,2.609-2.741,2.871
		c-0.069,0.034-0.239,0.069-0.508,0.104c-0.271,0.035-0.432,0.035-0.483,0c0.104-0.069,0.817-0.87,2.14-2.4
		c0.365-0.418,1.109-1.418,2.231-3.002c1.123-1.583,1.806-2.61,2.05-3.079c0.295-0.522,0.739-1.38,1.33-2.571
		c0.592-1.191,0.905-1.866,0.94-2.022c-0.14-0.018-1.097,0.27-2.871,0.861c-0.14,0.035-0.379,0.101-0.718,0.195
		c-0.34,0.096-0.64,0.179-0.9,0.248c-0.262,0.069-0.409,0.113-0.444,0.131c-0.034,0.034-0.052,0.126-0.052,0.273
		c0,0.148-0.009,0.231-0.026,0.248c-0.087,0.174-0.356,0.305-0.809,0.392c-0.4,0.122-0.81,0.122-1.228,0
		c-0.313-0.069-0.556-0.252-0.73-0.548c-0.069-0.104-0.112-0.304-0.13-0.6c0.104-0.036,0.317-0.079,0.64-0.131
		c0.321-0.053,0.577-0.104,0.77-0.157c1.009-0.277,1.923-0.557,2.74-0.835c1.74-0.608,2.627-0.914,2.662-0.914
		c0.174-0.034,0.548-0.204,1.122-0.508c0.575-0.305,0.957-0.492,1.149-0.562c0.156-0.052,0.343-0.122,0.561-0.209
		s0.344-0.135,0.378-0.144c0.035-0.009,0.088-0.004,0.157,0.014c0.034,0.209,0.025,0.496-0.026,0.861
		c0,0.034-0.109,0.27-0.326,0.704c-0.218,0.435-0.448,0.9-0.692,1.396c-0.243,0.496-0.391,0.787-0.443,0.874
		c-0.435,0.87-1.104,2.01-2.01,3.419l1.671,0.731c0.209,0.104,0.857,0.382,1.944,0.834c1.088,0.453,1.675,0.697,1.762,0.731
		c0.07,0.018,0.161,0.239,0.273,0.666C34.02,42.419,34.06,42.685,34.023,42.79z M28.674,30.105c0.053,0.261,0.018,0.505-0.104,0.73
		c-0.208,0.4-0.644,0.73-1.305,0.992c-0.522,0.209-1.044,0.313-1.565,0.313c-0.453-0.053-0.879-0.278-1.279-0.679
		c-0.243-0.262-0.4-0.617-0.471-1.07l0.026-0.078c0.053,0.052,0.222,0.096,0.509,0.131c0.287,0.034,0.518,0.034,0.692,0
		c0.175-0.035,0.679-0.175,1.514-0.418c0.626-0.209,1.105-0.331,1.436-0.365C28.422,29.662,28.604,29.809,28.674,30.105z
		 M46.891,33.472l1.645,5.924L44.908,38.3L46.891,33.472z M17.973,54.351l18.113-6.055V21.362l-18.113,6.081V54.351z M50.362,46.078
		l2.663,0.81L48.301,29.74l-2.609-0.81l-5.638,13.989l2.662,0.81l1.175-2.871l5.506,1.696L50.362,46.078z M37.235,20.97
		l14.954,4.803v-9.918L37.235,20.97z M45.352,55.5l4.123,0.339l-1.409,4.177l-1.044-1.723c-2.262,1.444-4.663,2.384-7.203,2.818
		c-1.01,0.209-1.801,0.313-2.375,0.313h-2.192c-1.375,0-3.11-0.34-5.207-1.018c-2.097-0.679-3.692-1.419-4.789-2.22
		c-0.139-0.121-0.209-0.26-0.209-0.417c0-0.14,0.043-0.257,0.131-0.353c0.087-0.095,0.199-0.144,0.339-0.144
		c0.069,0,0.226,0.066,0.47,0.196c0.243,0.13,0.509,0.273,0.796,0.431c0.287,0.156,0.466,0.252,0.535,0.286
		c1.271,0.645,2.658,1.18,4.163,1.606c1.505,0.426,2.876,0.639,4.111,0.639c1.653,0,3.105-0.126,4.358-0.378
		s2.618-0.692,4.098-1.318c0.261-0.121,0.526-0.256,0.796-0.404c0.27-0.147,0.565-0.313,0.888-0.496
		c0.321-0.183,0.568-0.326,0.743-0.431L45.352,55.5z M57.044,27.338V55.5l-20.201-6.42c-0.243,0.104-3.506,1.213-9.787,3.327
		s-9.483,3.171-9.604,3.171c-0.227,0-0.383-0.112-0.47-0.339c0-0.018-0.009-0.044-0.026-0.079V27.025
		c0.053-0.156,0.087-0.243,0.105-0.261c0.086-0.104,0.26-0.199,0.521-0.287c1.845-0.608,3.141-1.044,3.889-1.305V15.15l14.563,5.168
		c0.035,0,1.431-0.479,4.188-1.436c2.759-0.957,5.508-1.901,8.248-2.832s4.146-1.396,4.215-1.396c0.348,0,0.521,0.184,0.521,0.549
		v10.909L57.044,27.338z"/>
	<circle fill="none" stroke="#EF484A" stroke-width="3" stroke-miterlimit="10" cx="37" cy="38.039" r="35"/>
</g>
</svg>
