<?xml version="1.0" encoding="utf-8"?>
<!-- Generator: Adobe Illustrator 16.0.0, SVG Export Plug-In . SVG Version: 6.00 Build 0)  -->
<!DOCTYPE svg PUBLIC "-//W3C//DTD SVG 1.1//EN" "http://www.w3.org/Graphics/SVG/1.1/DTD/svg11.dtd">
<svg version="1.1" id="Layer_1" xmlns="http://www.w3.org/2000/svg" xmlns:xlink="http://www.w3.org/1999/xlink" x="0px" y="0px"
	 width="320px" height="480px" viewBox="0 0 320 480" enable-background="new 0 0 320 480" xml:space="preserve">
<path fill="#FFFFFF" d="M161.002,80c-88.372,0-160,71.634-160,160c0,88.367,71.628,160,160,160c88.366,0,160-71.633,160-160
	C321.002,151.634,249.368,80,161.002,80z M161.002,392.5c-84.087,0-152.5-68.407-152.5-152.5s68.413-152.5,152.5-152.5
	c84.093,0,152.5,68.407,152.5,152.5S245.095,392.5,161.002,392.5z"/>
<path fill="#FFFFFF" d="M161,104.304c-74.95,0-135.701,60.747-135.701,135.696c0,74.95,60.762,135.696,135.701,135.696
	c74.95,0,135.705-60.757,135.705-135.696C296.705,165.051,235.95,104.304,161,104.304z M161,368.196
	c-70.69,0-128.201-57.511-128.201-128.196S90.31,111.804,161,111.804c70.686,0,128.205,57.51,128.205,128.196
	S231.686,368.196,161,368.196z"/>
<g>
	<path fill="#FFFFFF" d="M169.147,304.74v-48.801c0-2.6,0.19-5.209,0.96-7.08c2.101-5.219,6.87-10.619,14.891-10.619
		c10.51,0,14.71,8.01,14.71,19.75v46.75h29.04l0,0v-50.1c0-26.841-14.33-39.33-33.431-39.33c-15.42,0-22.32,8.479-26.17,14.43
		v-12.381h-29.04c0.39,8.201,0,87.371,0,87.371L169.147,304.74L169.147,304.74z"/>
	<path fill="#FFFFFF" d="M109.317,205.45h0.181c10.119,0,16.43-6.72,16.43-15.101c-0.19-8.57-6.311-15.09-16.24-15.09
		s-16.43,6.52-16.43,15.09C93.267,198.73,99.567,205.45,109.317,205.45z"/>
	<rect x="94.987" y="217.37" fill="#FFFFFF" width="29.04" height="87.37"/>
</g>
</svg>
