<!--?xml version="1.0" encoding="utf-8"?-->
<!-- Generator: Adobe Illustrator 21.0.2, SVG Export Plug-In . SVG Version: 6.00 Build 0)  -->
<svg version="1.1" id="Calque_1" xmlns="http://www.w3.org/2000/svg" xmlns:xlink="http://www.w3.org/1999/xlink" x="0px" y="0px" viewBox="0 0 904 278" xml:space="preserve">
<style type="text/css">
	.st0{fill:#F0494A;}
	.st1{fill:none;stroke:#000000;stroke-width:5;stroke-miterlimit:10;}
</style>
<g>
	<path d="M114.9,123.8V167h-7.8V75.5h7.8v28.8l14.2-28.8h9.8l-18.4,37.6l22.9,53.9h-9.4l-18.6-44.2L114.9,123.8z" class="ukNLfeRf_0"></path>
	<path d="M197.9,80.9v11.1h-23.1v26.3h23.1v11.1h-23.1v26.3h23.1V167h-30.4V80.9H197.9z" class="ukNLfeRf_1"></path>
	<path d="M239.1,167l-20.5-86.1h7.8l14.7,61.7l14.8-61.7h7.8L243.1,167H239.1z" class="ukNLfeRf_2"></path>
	<path d="M293.2,80.9V167h-7.3V80.9H293.2z" class="ukNLfeRf_3"></path>
	<path d="M319,80.9h6.7l23.3,61.4V80.9h7.3V167h-6.4l-23.6-62.2V167H319V80.9z" class="ukNLfeRf_4"></path>
	<path class="st0 ukNLfeRf_5" d="M423.7,75.5h7.1l24.8,65.3V75.5h7.8V167h-6.8l-25.1-66.1V167h-7.8V75.5z"></path>
	<path class="st0 ukNLfeRf_6" d="M537.6,155.2c-5.8,8.5-12.5,12.7-20,12.7c-8,0-14.8-4.3-20.4-12.9c-5.6-8.6-8.4-18.9-8.4-31.1
		c0-12.1,2.8-22.5,8.4-31.1c5.6-8.6,12.4-12.9,20.4-12.9c7.5,0,14.5,4.6,21.2,13.9l-5.5,7.6c-5-6.8-10.3-10.2-15.7-10.2
		c-5.9,0-11,3.2-15.2,9.6c-4.2,6.4-6.3,14.1-6.3,23.1c0,9.1,2.1,16.8,6.3,23.2c4.2,6.4,9.3,9.6,15.2,9.6c5.1,0,9.3-2,12.6-6.1v-26
		h7.3V155.2z"></path>
	<path class="st0 ukNLfeRf_7" d="M594.1,80.9h7.3v60.6c-0.6,6.9-2.5,12.8-5.6,17.5c-3.8,5.7-8.3,8.6-13.6,8.6c-5.3,0-9.8-2.9-13.6-8.6
		c-3.8-5.7-5.6-12.6-5.6-20.7V80.9h7.3v57.5c0,4.9,1.2,9.2,3.5,12.7c2.3,3.5,5.1,5.3,8.4,5.3c3.3,0,6.1-1.8,8.4-5.3
		c2.3-3.5,3.5-7.8,3.5-12.7V80.9z"></path>
	<path class="st0 ukNLfeRf_8" d="M642.5,132.5L623,80.9h8.4l14.8,38.9l14.8-38.9h8.4l-19.6,51.5V167h-7.3V132.5z"></path>
	<path class="st0 ukNLfeRf_9" d="M721.3,80.9v11.1h-23.1v26.3h23.1v11.1h-23.1v26.3h23.1V167h-30.4V80.9H721.3z"></path>
	<path class="st0 ukNLfeRf_10" d="M745.5,80.9h6.7l23.3,61.4V80.9h7.3V167h-6.4l-23.6-62.2V167h-7.3V80.9z"></path>
</g>
<g>
	<path d="M320,245.1c0.3-0.3,0.6-0.4,1-0.4s0.7,0.1,1,0.4c0.2,0.2,0.3,0.3,0.3,0.5l5.7,20.5l5.7-20.5c0.1-0.2,0.2-0.4,0.4-0.5
		c0.3-0.3,0.6-0.4,1-0.4s0.7,0.1,1,0.4s0.4,0.6,0.4,1c0,0.2,0,0.4-0.1,0.6l-6.9,24.9c-0.1,0.3-0.2,0.5-0.4,0.8
		c-0.3,0.3-0.6,0.4-1,0.4s-0.7-0.1-1-0.4c-0.2-0.2-0.4-0.5-0.4-0.7l-5.6-20.3l-5.6,20.2c-0.1,0.3-0.2,0.5-0.4,0.8
		c-0.3,0.3-0.6,0.4-1,0.4s-0.7-0.1-1-0.4c-0.2-0.2-0.4-0.5-0.4-0.7l-6.9-24.9c-0.1-0.2-0.1-0.4-0.1-0.6c0-0.4,0.1-0.7,0.4-1
		s0.6-0.4,1-0.4s0.7,0.1,1,0.4c0.2,0.2,0.3,0.3,0.3,0.5l5.7,20.5l5.7-20.5C319.6,245.4,319.8,245.2,320,245.1z" class="ukNLfeRf_11"></path>
	<path d="M353.1,268c0.4,0,0.7,0.1,1,0.4s0.4,0.6,0.4,1s-0.1,0.7-0.4,1c-1.8,1.6-4,2.4-6.4,2.4c-2.7,0-5-1-7-2.9s-2.9-4.2-2.9-7
		s1-5,2.9-7s4.2-2.9,7-2.9s5,1,7,2.9s2.9,4.2,2.9,7c0,0.4-0.1,0.7-0.4,1s-0.6,0.4-1,0.4h-15.3c0.3,1.3,0.9,2.5,1.9,3.6
		c1.4,1.4,3,2.1,5,2.1c1.8,0,3.3-0.6,4.5-1.7C352.5,268.1,352.8,268,353.1,268z M354.6,261.5c-0.3-1.3-0.9-2.5-1.9-3.6
		c-1.4-1.4-3-2.1-5-2.1s-3.6,0.7-5,2.1c-1,1-1.7,2.2-1.9,3.6H354.6z" class="ukNLfeRf_12"></path>
	<path d="M363.2,256.1C363.2,256,363.2,256,363.2,256.1c2-2,4.3-3,7-3s5,1,7,2.9s2.9,4.2,2.9,7s-1,5-2.9,7s-4.2,2.9-7,2.9
		s-5-1-7-2.9s-2.9-4.2-2.9-7V246c0-0.4,0.1-0.7,0.4-1s0.6-0.4,1-0.4s0.7,0.1,1,0.4s0.4,0.6,0.4,1V256.1z M370.2,270
		c1.9,0,3.6-0.7,5-2.1s2.1-3,2.1-5s-0.7-3.6-2.1-5s-3-2.1-5-2.1s-3.6,0.7-5,2.1s-2.1,3-2.1,5s0.7,3.6,2.1,5S368.3,270,370.2,270z" class="ukNLfeRf_13"></path>
	<path d="M400.5,244.7c3.9,0,7.2,1.4,9.9,4.1s4.1,6.1,4.1,9.9s-1.4,7.2-4.1,9.9s-6.1,4.1-9.9,4.1h-5.6c-0.4,0-0.7-0.1-1-0.4
		s-0.4-0.6-0.4-1v-25.3c0-0.4,0.1-0.7,0.4-1s0.6-0.4,1-0.4H400.5z M400.5,270c3.1,0,5.8-1.1,8-3.3s3.3-4.8,3.3-8s-1.1-5.8-3.3-8
		s-4.8-3.3-8-3.3h-4.2V270H400.5z" class="ukNLfeRf_14"></path>
	<path d="M432.6,268c0.4,0,0.7,0.1,1,0.4s0.4,0.6,0.4,1s-0.1,0.7-0.4,1c-1.8,1.6-4,2.4-6.4,2.4c-2.7,0-5-1-7-2.9s-2.9-4.2-2.9-7
		s1-5,2.9-7s4.2-2.9,7-2.9s5,1,7,2.9s2.9,4.2,2.9,7c0,0.4-0.1,0.7-0.4,1s-0.6,0.4-1,0.4h-15.3c0.3,1.3,0.9,2.5,1.9,3.6
		c1.4,1.4,3,2.1,5,2.1c1.8,0,3.3-0.6,4.5-1.7C432,268.1,432.3,268,432.6,268z M434.1,261.5c-0.3-1.3-0.9-2.5-1.9-3.6
		c-1.4-1.4-3-2.1-5-2.1s-3.6,0.7-5,2.1c-1,1-1.7,2.2-1.9,3.6H434.1z" class="ukNLfeRf_15"></path>
	<path d="M450,272.4c-0.3,0.3-0.6,0.4-1,0.4s-0.7-0.1-1-0.4c-0.1-0.1-0.2-0.2-0.2-0.3l-7.8-17c-0.1-0.2-0.1-0.3-0.1-0.5
		c0-0.4,0.1-0.7,0.4-1s0.6-0.4,1-0.4s0.7,0.1,1,0.4c0.1,0.1,0.2,0.2,0.3,0.4L449,268l6.5-14.1c0.1-0.2,0.2-0.3,0.3-0.4
		c0.3-0.3,0.6-0.4,1-0.4s0.7,0.1,1,0.4s0.4,0.6,0.4,1c0,0.2,0,0.4-0.1,0.5l-7.8,17C450.1,272.2,450.1,272.3,450,272.4z" class="ukNLfeRf_16"></path>
	<path d="M476.2,268c0.4,0,0.7,0.1,1,0.4s0.4,0.6,0.4,1s-0.1,0.7-0.4,1c-1.8,1.6-4,2.4-6.4,2.4c-2.7,0-5-1-7-2.9s-2.9-4.2-2.9-7
		s1-5,2.9-7s4.2-2.9,7-2.9s5,1,7,2.9s2.9,4.2,2.9,7c0,0.4-0.1,0.7-0.4,1s-0.6,0.4-1,0.4h-15.3c0.3,1.3,0.9,2.5,1.9,3.6
		c1.4,1.4,3,2.1,5,2.1c1.8,0,3.3-0.6,4.5-1.7C475.6,268.1,475.9,268,476.2,268z M477.7,261.5c-0.3-1.3-0.9-2.5-1.9-3.6
		c-1.4-1.4-3-2.1-5-2.1s-3.6,0.7-5,2.1c-1,1-1.7,2.2-1.9,3.6H477.7z" class="ukNLfeRf_17"></path>
	<path d="M483.4,246.1c0-0.4,0.1-0.7,0.4-1s0.6-0.4,1-0.4s0.7,0.1,1,0.4s0.4,0.6,0.4,1V270h1.4c0.4,0,0.7,0.1,1,0.4s0.4,0.6,0.4,1
		s-0.1,0.7-0.4,1s-0.6,0.4-1,0.4h-2.8c-0.4,0-0.7-0.1-1-0.4s-0.4-0.6-0.4-1V246.1z" class="ukNLfeRf_18"></path>
	<path d="M511.6,262.9c0,2.7-1,5-2.9,7s-4.2,2.9-7,2.9s-5-1-7-2.9s-2.9-4.2-2.9-7s1-5,2.9-7s4.2-2.9,7-2.9s5,1,7,2.9
		S511.6,260.2,511.6,262.9z M501.7,255.9c-1.9,0-3.6,0.7-5,2.1s-2.1,3-2.1,5s0.7,3.6,2.1,5s3,2.1,5,2.1s3.6-0.7,5-2.1s2.1-3,2.1-5
		s-0.7-3.6-2.1-5S503.7,255.9,501.7,255.9z" class="ukNLfeRf_19"></path>
	<path d="M517.2,279.8c0,0.4-0.1,0.7-0.4,1s-0.6,0.4-1,0.4s-0.7-0.1-1-0.4s-0.4-0.6-0.4-1v-16.9c0-2.7,1-5,2.9-7s4.2-2.9,7-2.9
		s5,1,7,2.9s2.9,4.2,2.9,7s-1,5-2.9,7s-4.2,2.9-7,2.9s-5-1-7-2.9c0,0,0,0-0.1-0.1V279.8z M517.2,262.9c0,1.9,0.7,3.6,2.1,5
		s3,2.1,5,2.1s3.6-0.7,5-2.1s2.1-3,2.1-5s-0.7-3.6-2.1-5s-3-2.1-5-2.1s-3.6,0.7-5,2.1S517.2,261,517.2,262.9z" class="ukNLfeRf_20"></path>
	<path d="M539.7,279.8c0,0.4-0.1,0.7-0.4,1s-0.6,0.4-1,0.4s-0.7-0.1-1-0.4s-0.4-0.6-0.4-1v-16.9c0-2.7,1-5,2.9-7s4.2-2.9,7-2.9
		s5,1,7,2.9s2.9,4.2,2.9,7s-1,5-2.9,7s-4.2,2.9-7,2.9s-5-1-7-2.9c0,0,0,0-0.1-0.1V279.8z M539.7,262.9c0,1.9,0.7,3.6,2.1,5
		s3,2.1,5,2.1s3.6-0.7,5-2.1c1.4-1.4,2.1-3,2.1-5s-0.7-3.6-2.1-5c-1.4-1.4-3-2.1-5-2.1s-3.6,0.7-5,2.1S539.7,261,539.7,262.9z" class="ukNLfeRf_21"></path>
	<path d="M574.6,268c0.4,0,0.7,0.1,1,0.4s0.4,0.6,0.4,1s-0.1,0.7-0.4,1c-1.8,1.6-4,2.4-6.4,2.4c-2.7,0-5-1-7-2.9s-2.9-4.2-2.9-7
		s1-5,2.9-7s4.2-2.9,7-2.9s5,1,7,2.9s2.9,4.2,2.9,7c0,0.4-0.1,0.7-0.4,1s-0.6,0.4-1,0.4h-15.3c0.3,1.3,0.9,2.5,1.9,3.6
		c1.4,1.4,3,2.1,5,2.1c1.8,0,3.3-0.6,4.5-1.7C574,268.1,574.3,268,574.6,268z M576.1,261.5c-0.3-1.3-0.9-2.5-1.9-3.6
		c-1.4-1.4-3-2.1-5-2.1s-3.6,0.7-5,2.1c-1,1-1.7,2.2-1.9,3.6H576.1z" class="ukNLfeRf_22"></path>
	<path d="M581.9,254.5c0-0.4,0.1-0.7,0.4-1s0.6-0.4,1-0.4s0.7,0.1,1,0.4s0.4,0.6,0.4,1v1.5c2-2,4.3-3,7-3c1.4,0,2.6,0.2,3.8,0.7
		c0.2,0.1,0.4,0.2,0.6,0.4c0.3,0.3,0.4,0.6,0.4,1s-0.1,0.7-0.4,1s-0.6,0.4-1,0.4c-0.2,0-0.4,0-0.6-0.1c-0.8-0.4-1.7-0.5-2.7-0.5
		c-1.9,0-3.6,0.7-5,2.1s-2.1,3-2.1,5v8.4c0,0.4-0.1,0.7-0.4,1s-0.6,0.4-1,0.4s-0.7-0.1-1-0.4s-0.4-0.6-0.4-1V254.5z" class="ukNLfeRf_23"></path>
</g>
<path class="st1 ukNLfeRf_24" d="M626.6,256.5L895.6,256.5L895.6,6.5L8.6,6.5L8.6,256.5L278.6,256.5"></path>
<style>.ukNLfeRf_0{stroke-dasharray:380 382;stroke-dashoffset:381;animation:ukNLfeRf_draw_0 5100ms ease 0ms infinite,ukNLfeRf_fade 5100ms linear 0ms infinite;}.ukNLfeRf_1{stroke-dasharray:326 328;stroke-dashoffset:327;animation:ukNLfeRf_draw_1 5100ms ease 0ms infinite,ukNLfeRf_fade 5100ms linear 0ms infinite;}.ukNLfeRf_2{stroke-dasharray:324 326;stroke-dashoffset:325;animation:ukNLfeRf_draw_2 5100ms ease 0ms infinite,ukNLfeRf_fade 5100ms linear 0ms infinite;}.ukNLfeRf_3{stroke-dasharray:187 189;stroke-dashoffset:188;animation:ukNLfeRf_draw_3 5100ms ease 0ms infinite,ukNLfeRf_fade 5100ms linear 0ms infinite;}.ukNLfeRf_4{stroke-dasharray:456 458;stroke-dashoffset:457;animation:ukNLfeRf_draw_4 5100ms ease 0ms infinite,ukNLfeRf_fade 5100ms linear 0ms infinite;}.ukNLfeRf_5{stroke-dasharray:485 487;stroke-dashoffset:486;animation:ukNLfeRf_draw_5 5100ms ease 0ms infinite,ukNLfeRf_fade 5100ms linear 0ms infinite;}.ukNLfeRf_6{stroke-dasharray:361 363;stroke-dashoffset:362;animation:ukNLfeRf_draw_6 5100ms ease 0ms infinite,ukNLfeRf_fade 5100ms linear 0ms infinite;}.ukNLfeRf_7{stroke-dasharray:370 372;stroke-dashoffset:371;animation:ukNLfeRf_draw_7 5100ms ease 0ms infinite,ukNLfeRf_fade 5100ms linear 0ms infinite;}.ukNLfeRf_8{stroke-dasharray:287 289;stroke-dashoffset:288;animation:ukNLfeRf_draw_8 5100ms ease 0ms infinite,ukNLfeRf_fade 5100ms linear 0ms infinite;}.ukNLfeRf_9{stroke-dasharray:326 328;stroke-dashoffset:327;animation:ukNLfeRf_draw_9 5100ms ease 0ms infinite,ukNLfeRf_fade 5100ms linear 0ms infinite;}.ukNLfeRf_10{stroke-dasharray:456 458;stroke-dashoffset:457;animation:ukNLfeRf_draw_10 5100ms ease 0ms infinite,ukNLfeRf_fade 5100ms linear 0ms infinite;}.ukNLfeRf_11{stroke-dasharray:200 202;stroke-dashoffset:201;animation:ukNLfeRf_draw_11 5100ms ease 0ms infinite,ukNLfeRf_fade 5100ms linear 0ms infinite;}.ukNLfeRf_12{stroke-dasharray:124 126;stroke-dashoffset:125;animation:ukNLfeRf_draw_12 5100ms ease 0ms infinite,ukNLfeRf_fade 5100ms linear 0ms infinite;}.ukNLfeRf_13{stroke-dasharray:131 133;stroke-dashoffset:132;animation:ukNLfeRf_draw_13 5100ms ease 0ms infinite,ukNLfeRf_fade 5100ms linear 0ms infinite;}.ukNLfeRf_14{stroke-dasharray:152 154;stroke-dashoffset:153;animation:ukNLfeRf_draw_14 5100ms ease 0ms infinite,ukNLfeRf_fade 5100ms linear 0ms infinite;}.ukNLfeRf_15{stroke-dasharray:124 126;stroke-dashoffset:125;animation:ukNLfeRf_draw_15 5100ms ease 0ms infinite,ukNLfeRf_fade 5100ms linear 0ms infinite;}.ukNLfeRf_16{stroke-dasharray:81 83;stroke-dashoffset:82;animation:ukNLfeRf_draw_16 5100ms ease 0ms infinite,ukNLfeRf_fade 5100ms linear 0ms infinite;}.ukNLfeRf_17{stroke-dasharray:124 126;stroke-dashoffset:125;animation:ukNLfeRf_draw_17 5100ms ease 0ms infinite,ukNLfeRf_fade 5100ms linear 0ms infinite;}.ukNLfeRf_18{stroke-dasharray:65 67;stroke-dashoffset:66;animation:ukNLfeRf_draw_18 5100ms ease 0ms infinite,ukNLfeRf_fade 5100ms linear 0ms infinite;}.ukNLfeRf_19{stroke-dasharray:107 109;stroke-dashoffset:108;animation:ukNLfeRf_draw_19 5100ms ease 0ms infinite,ukNLfeRf_fade 5100ms linear 0ms infinite;}.ukNLfeRf_20{stroke-dasharray:131 133;stroke-dashoffset:132;animation:ukNLfeRf_draw_20 5100ms ease 0ms infinite,ukNLfeRf_fade 5100ms linear 0ms infinite;}.ukNLfeRf_21{stroke-dasharray:131 133;stroke-dashoffset:132;animation:ukNLfeRf_draw_21 5100ms ease 0ms infinite,ukNLfeRf_fade 5100ms linear 0ms infinite;}.ukNLfeRf_22{stroke-dasharray:124 126;stroke-dashoffset:125;animation:ukNLfeRf_draw_22 5100ms ease 0ms infinite,ukNLfeRf_fade 5100ms linear 0ms infinite;}.ukNLfeRf_23{stroke-dasharray:66 68;stroke-dashoffset:67;animation:ukNLfeRf_draw_23 5100ms ease 0ms infinite,ukNLfeRf_fade 5100ms linear 0ms infinite;}.ukNLfeRf_24{stroke-dasharray:1926 1928;stroke-dashoffset:1927;animation:ukNLfeRf_draw_24 5100ms ease 0ms infinite,ukNLfeRf_fade 5100ms linear 0ms infinite;}@keyframes ukNLfeRf_draw{100%{stroke-dashoffset:0;}}@keyframes ukNLfeRf_fade{0%{stroke-opacity:1;}92.15686274509804%{stroke-opacity:1;}100%{stroke-opacity:0;}}@keyframes ukNLfeRf_draw_0{15.686274509803921%{stroke-dashoffset: 381}54.90196078431373%{ stroke-dashoffset: 0;}100%{ stroke-dashoffset: 0;}}@keyframes ukNLfeRf_draw_1{16.503267973856207%{stroke-dashoffset: 327}55.71895424836602%{ stroke-dashoffset: 0;}100%{ stroke-dashoffset: 0;}}@keyframes ukNLfeRf_draw_2{17.320261437908496%{stroke-dashoffset: 325}56.5359477124183%{ stroke-dashoffset: 0;}100%{ stroke-dashoffset: 0;}}@keyframes ukNLfeRf_draw_3{18.137254901960784%{stroke-dashoffset: 188}57.35294117647059%{ stroke-dashoffset: 0;}100%{ stroke-dashoffset: 0;}}@keyframes ukNLfeRf_draw_4{18.954248366013072%{stroke-dashoffset: 457}58.16993464052287%{ stroke-dashoffset: 0;}100%{ stroke-dashoffset: 0;}}@keyframes ukNLfeRf_draw_5{19.77124183006536%{stroke-dashoffset: 486}58.986928104575156%{ stroke-dashoffset: 0;}100%{ stroke-dashoffset: 0;}}@keyframes ukNLfeRf_draw_6{20.588235294117645%{stroke-dashoffset: 362}59.80392156862745%{ stroke-dashoffset: 0;}100%{ stroke-dashoffset: 0;}}@keyframes ukNLfeRf_draw_7{21.40522875816993%{stroke-dashoffset: 371}60.62091503267973%{ stroke-dashoffset: 0;}100%{ stroke-dashoffset: 0;}}@keyframes ukNLfeRf_draw_8{22.22222222222222%{stroke-dashoffset: 288}61.43790849673202%{ stroke-dashoffset: 0;}100%{ stroke-dashoffset: 0;}}@keyframes ukNLfeRf_draw_9{23.03921568627451%{stroke-dashoffset: 327}62.254901960784316%{ stroke-dashoffset: 0;}100%{ stroke-dashoffset: 0;}}@keyframes ukNLfeRf_draw_10{23.856209150326794%{stroke-dashoffset: 457}63.0718954248366%{ stroke-dashoffset: 0;}100%{ stroke-dashoffset: 0;}}@keyframes ukNLfeRf_draw_11{24.673202614379083%{stroke-dashoffset: 201}63.888888888888886%{ stroke-dashoffset: 0;}100%{ stroke-dashoffset: 0;}}@keyframes ukNLfeRf_draw_12{25.49019607843137%{stroke-dashoffset: 125}64.70588235294117%{ stroke-dashoffset: 0;}100%{ stroke-dashoffset: 0;}}@keyframes ukNLfeRf_draw_13{26.307189542483655%{stroke-dashoffset: 132}65.52287581699346%{ stroke-dashoffset: 0;}100%{ stroke-dashoffset: 0;}}@keyframes ukNLfeRf_draw_14{27.124183006535947%{stroke-dashoffset: 153}66.33986928104575%{ stroke-dashoffset: 0;}100%{ stroke-dashoffset: 0;}}@keyframes ukNLfeRf_draw_15{27.941176470588236%{stroke-dashoffset: 125}67.15686274509804%{ stroke-dashoffset: 0;}100%{ stroke-dashoffset: 0;}}@keyframes ukNLfeRf_draw_16{28.75816993464052%{stroke-dashoffset: 82}67.97385620915031%{ stroke-dashoffset: 0;}100%{ stroke-dashoffset: 0;}}@keyframes ukNLfeRf_draw_17{29.575163398692812%{stroke-dashoffset: 125}68.7908496732026%{ stroke-dashoffset: 0;}100%{ stroke-dashoffset: 0;}}@keyframes ukNLfeRf_draw_18{30.392156862745097%{stroke-dashoffset: 66}69.6078431372549%{ stroke-dashoffset: 0;}100%{ stroke-dashoffset: 0;}}@keyframes ukNLfeRf_draw_19{31.20915032679738%{stroke-dashoffset: 108}70.42483660130718%{ stroke-dashoffset: 0;}100%{ stroke-dashoffset: 0;}}@keyframes ukNLfeRf_draw_20{32.02614379084967%{stroke-dashoffset: 132}71.24183006535947%{ stroke-dashoffset: 0;}100%{ stroke-dashoffset: 0;}}@keyframes ukNLfeRf_draw_21{32.84313725490196%{stroke-dashoffset: 132}72.05882352941177%{ stroke-dashoffset: 0;}100%{ stroke-dashoffset: 0;}}@keyframes ukNLfeRf_draw_22{33.66013071895424%{stroke-dashoffset: 125}72.87581699346404%{ stroke-dashoffset: 0;}100%{ stroke-dashoffset: 0;}}@keyframes ukNLfeRf_draw_23{34.47712418300654%{stroke-dashoffset: 67}73.69281045751633%{ stroke-dashoffset: 0;}100%{ stroke-dashoffset: 0;}}@keyframes ukNLfeRf_draw_24{35.294117647058826%{stroke-dashoffset: 1927}74.50980392156863%{ stroke-dashoffset: 0;}100%{ stroke-dashoffset: 0;}}</style></svg>
