<?xml version="1.0" encoding="utf-8"?>
<!-- Generator: Adobe Illustrator 16.0.0, SVG Export Plug-In . SVG Version: 6.00 Build 0)  -->
<!DOCTYPE svg PUBLIC "-//W3C//DTD SVG 1.1//EN" "http://www.w3.org/Graphics/SVG/1.1/DTD/svg11.dtd">
<svg version="1.1" xmlns="http://www.w3.org/2000/svg" xmlns:xlink="http://www.w3.org/1999/xlink" x="0px" y="0px" width="100px"
	 height="100px" viewBox="110 190 100 100" enable-background="new 110 190 100 100" xml:space="preserve">
<g id="Calque_1">
	<g>
		<path fill="#FFFFFF" stroke="#FFFFFF" stroke-miterlimit="10" d="M140.117,261.421v7.23h-1.306v-15.314h1.306v4.82l2.376-4.82
			h1.64l-3.08,6.293l3.833,9.021h-1.573l-3.113-7.397L140.117,261.421z"/>
		<path fill="#FFFFFF" stroke="#FFFFFF" stroke-miterlimit="10" d="M154.009,254.24v1.858h-3.867v4.401h3.867v1.857h-3.867v4.402
			h3.867v1.892h-5.088V254.24H154.009z"/>
		<path fill="#FFFFFF" stroke="#FFFFFF" stroke-miterlimit="10" d="M160.905,268.651l-3.432-14.411h1.306l2.46,10.327l2.477-10.327
			h1.307l-3.448,14.411H160.905z"/>
		<path fill="#FFFFFF" stroke="#FFFFFF" stroke-miterlimit="10" d="M169.959,254.24v14.411h-1.223V254.24H169.959z"/>
		<path fill="#FFFFFF" stroke="#FFFFFF" stroke-miterlimit="10" d="M174.277,254.24h1.122l3.899,10.276V254.24h1.222v14.411h-1.071
			l-3.95-10.411v10.411h-1.222V254.24z"/>
	</g>
	<path fill="none" stroke="#FFFFFF" stroke-width="5" stroke-miterlimit="10" d="M179.055,286.582H206.5V196.46H116v90.122h27.548"
		/>
</g>
<g id="Calque_2">
	<g>
		<path fill="#F0494A" d="M127.645,218.809h1.279l4.47,13.962v-13.962h1.405v19.564h-1.226l-4.523-14.131v14.131h-1.405V218.809z"/>
		<path fill="#F0494A" d="M148.169,235.852c-1.045,1.816-2.252,2.718-3.604,2.718c-1.441,0-2.667-0.923-3.676-2.76
			c-1.01-1.843-1.515-4.043-1.515-6.653c0-2.585,0.505-4.811,1.515-6.648c1.009-1.837,2.234-2.756,3.676-2.756
			c1.352,0,2.612,0.982,3.82,2.97l-0.991,1.624c-0.9-1.453-1.856-2.18-2.829-2.18c-1.063,0-1.982,0.684-2.739,2.055
			c-0.757,1.367-1.136,3.013-1.136,4.936c0,1.948,0.379,3.593,1.136,4.965c0.757,1.367,1.676,2.051,2.739,2.051
			c0.919,0,1.676-0.427,2.271-1.304v-5.559h1.315v6.542H148.169z"/>
		<path fill="#F0494A" d="M158.351,219.966h1.315v12.954c-0.108,1.475-0.45,2.74-1.009,3.744c-0.685,1.217-1.496,1.837-2.451,1.837
			s-1.766-0.62-2.45-1.837c-0.685-1.218-1.01-2.697-1.01-4.428v-12.271h1.316v12.292c0,1.047,0.216,1.965,0.63,2.719
			c0.414,0.747,0.919,1.132,1.514,1.132c0.596,0,1.099-0.385,1.514-1.132c0.415-0.754,0.631-1.672,0.631-2.719V219.966
			L158.351,219.966z"/>
		<path fill="#F0494A" d="M167.073,230.999l-3.515-11.032h1.514l2.667,8.314l2.668-8.314h1.514l-3.533,11.011v7.396h-1.314V230.999
			L167.073,230.999z"/>
		<path fill="#F0494A" d="M181.275,219.966v2.371h-4.164v5.623h4.164v2.375h-4.164v5.624h4.164v2.414h-5.479v-18.407H181.275z"/>
		<path fill="#F0494A" d="M185.634,219.966h1.207l4.199,13.125v-13.125h1.316v18.407h-1.154l-4.252-13.297v13.297h-1.316V219.966z"
			/>
	</g>
</g>
</svg>
