<?xml version="1.0" encoding="utf-8"?>
<!-- Generator: Adobe Illustrator 16.0.0, SVG Export Plug-In . SVG Version: 6.00 Build 0)  -->
<!DOCTYPE svg PUBLIC "-//W3C//DTD SVG 1.1//EN" "http://www.w3.org/Graphics/SVG/1.1/DTD/svg11.dtd">
<svg version="1.1" id="Layer_1" xmlns="http://www.w3.org/2000/svg" xmlns:xlink="http://www.w3.org/1999/xlink" x="0px" y="0px"
	 width="320px" height="480px" viewBox="0 0 320 480" enable-background="new 0 0 320 480" xml:space="preserve">
<path fill="#FFFFFF" d="M161,80C72.628,80,1,151.633,1,240c0,88.367,71.628,160,160,160c88.366,0,160-71.633,160-160
	C321,151.633,249.366,80,161,80z M161,392.5C76.913,392.5,8.5,324.093,8.5,240S76.913,87.5,161,87.5
	c84.093,0,152.5,68.407,152.5,152.5S245.093,392.5,161,392.5z"/>
<path fill="#FFFFFF" d="M161,104.304c-74.95,0-135.701,60.747-135.701,135.696c0,74.95,60.762,135.696,135.701,135.696
	c74.95,0,135.705-60.757,135.705-135.696C296.705,165.051,235.95,104.304,161,104.304z M161,368.196
	c-70.69,0-128.201-57.511-128.201-128.196S90.31,111.804,161,111.804c70.686,0,128.205,57.51,128.205,128.196
	S231.686,368.196,161,368.196z"/>
<g>
	<polygon fill="#FFFFFF" points="66.181,298.155 118.072,232.914 66.181,201.189 	"/>
	<polygon fill="#FFFFFF" points="196,237.459 160.89,259.082 125.723,237.581 72.099,305 249.669,305 	"/>
	<polygon fill="#FFFFFF" points="160.879,248.64 255.819,190.171 255.819,175 66.181,175 66.181,190.756 	"/>
	<polygon fill="#FFFFFF" points="203.631,232.762 255.819,298.427 255.819,200.625 	"/>
</g>
</svg>
