<?xml version="1.0" encoding="utf-8"?>
<!-- Generator: Adobe Illustrator 16.0.0, SVG Export Plug-In . SVG Version: 6.00 Build 0)  -->
<!DOCTYPE svg PUBLIC "-//W3C//DTD SVG 1.1//EN" "http://www.w3.org/Graphics/SVG/1.1/DTD/svg11.dtd">
<svg version="1.1" id="Layer_1" xmlns="http://www.w3.org/2000/svg" xmlns:xlink="http://www.w3.org/1999/xlink" x="0px" y="0px"
	 width="320px" height="480px" viewBox="0 0 320 480" enable-background="new 0 0 320 480" xml:space="preserve">
<path fill="#414753" d="M160,400c88.37,0,160-71.63,160-160S248.37,80,160,80S0,151.63,0,240S71.63,400,160,400z M160,87.5
	c84.09,0,152.5,68.41,152.5,152.5S244.09,392.5,160,392.5S7.5,324.09,7.5,240S75.91,87.5,160,87.5z"/>
<path fill="#414753" d="M160,375.7c74.95,0,135.7-60.761,135.7-135.7c0-74.95-60.761-135.7-135.7-135.7
	c-74.94,0-135.7,60.75-135.7,135.7S85.05,375.7,160,375.7z M160,111.8c70.689,0,128.2,57.51,128.2,128.2
	c0,70.689-57.511,128.2-128.2,128.2c-70.69,0-128.2-57.511-128.2-128.2C31.8,169.31,89.31,111.8,160,111.8z"/>
<g>
	<polygon fill="#333333" points="81.34,288.24 124.386,234.119 81.34,207.804 	"/>
	<polygon fill="#333333" points="189.035,237.893 159.909,255.828 130.733,237.993 86.251,293.922 233.559,293.922 	"/>
	<polygon fill="#333333" points="159.901,247.168 238.66,198.662 238.66,186.078 81.34,186.078 81.34,199.151 	"/>
	<polygon fill="#333333" points="195.365,233.994 238.66,288.473 238.66,207.332 	"/>
</g>
</svg>
