<?xml version="1.0" encoding="utf-8"?>
<!-- Generator: Adobe Illustrator 16.0.0, SVG Export Plug-In . SVG Version: 6.00 Build 0)  -->
<!DOCTYPE svg PUBLIC "-//W3C//DTD SVG 1.1//EN" "http://www.w3.org/Graphics/SVG/1.1/DTD/svg11.dtd">
<svg version="1.1" id="Calque_1" xmlns="http://www.w3.org/2000/svg" xmlns:xlink="http://www.w3.org/1999/xlink" x="0px" y="0px"
	 width="56.693px" height="56.693px" viewBox="0 0 56.693 56.693" enable-background="new 0 0 56.693 56.693" xml:space="preserve">
<g>
	<g>
		<path fill="#010202" d="M9.869,50.169l0.739-5.163h0.083l2.099,4.236l2.079-4.236h0.083l0.743,5.163h-0.506l-0.51-3.692
			l-1.826,3.692h-0.132l-1.847-3.72l-0.507,3.72H9.869z"/>
		<path fill="#010202" d="M20.434,46.351v3.818H19.95v-0.656c-0.206,0.25-0.437,0.439-0.693,0.565
			c-0.256,0.126-0.537,0.189-0.841,0.189c-0.541,0-1.002-0.196-1.385-0.588c-0.382-0.392-0.574-0.869-0.574-1.43
			c0-0.55,0.193-1.021,0.579-1.411c0.386-0.391,0.851-0.586,1.394-0.586c0.313,0,0.597,0.067,0.851,0.2
			c0.254,0.133,0.478,0.333,0.669,0.6v-0.702H20.434z M18.47,46.727c-0.273,0-0.526,0.067-0.757,0.202
			c-0.232,0.134-0.416,0.323-0.553,0.566c-0.136,0.243-0.205,0.5-0.205,0.771c0,0.269,0.069,0.526,0.207,0.771
			c0.138,0.246,0.323,0.437,0.556,0.573c0.233,0.137,0.482,0.205,0.749,0.205c0.269,0,0.523-0.067,0.765-0.203
			c0.241-0.135,0.426-0.319,0.556-0.55c0.13-0.231,0.195-0.492,0.195-0.782c0-0.442-0.146-0.811-0.437-1.108
			C19.253,46.875,18.896,46.727,18.47,46.727z"/>
		<path fill="#010202" d="M21.968,44.933h0.492v1.418h0.779v0.424h-0.779v3.394h-0.492v-3.394h-0.67v-0.424h0.67V44.933z"/>
		<path fill="#010202" d="M27.19,48.903l0.415,0.217c-0.136,0.267-0.293,0.482-0.471,0.646c-0.178,0.164-0.378,0.288-0.601,0.374
			c-0.223,0.086-0.474,0.128-0.755,0.128c-0.623,0-1.11-0.204-1.461-0.613c-0.352-0.408-0.527-0.87-0.527-1.384
			c0-0.484,0.149-0.916,0.446-1.295c0.377-0.482,0.882-0.723,1.514-0.723c0.651,0,1.171,0.247,1.56,0.741
			c0.276,0.349,0.417,0.784,0.421,1.306h-3.436c0.009,0.444,0.151,0.807,0.425,1.091c0.274,0.284,0.613,0.425,1.016,0.425
			c0.194,0,0.383-0.034,0.568-0.101c0.184-0.067,0.34-0.158,0.469-0.27C26.901,49.333,27.041,49.152,27.19,48.903z M27.19,47.874
			c-0.065-0.262-0.161-0.472-0.286-0.628c-0.125-0.157-0.291-0.283-0.497-0.379c-0.207-0.096-0.423-0.144-0.65-0.144
			c-0.375,0-0.697,0.121-0.966,0.361c-0.197,0.175-0.346,0.439-0.446,0.79H27.19z"/>
		<path fill="#010202" d="M28.461,46.351h0.501v0.558c0.15-0.22,0.308-0.384,0.474-0.493c0.166-0.109,0.339-0.164,0.52-0.164
			c0.135,0,0.281,0.043,0.435,0.13l-0.256,0.415c-0.103-0.044-0.189-0.067-0.26-0.067c-0.164,0-0.321,0.067-0.474,0.202
			c-0.152,0.135-0.268,0.344-0.348,0.626c-0.061,0.218-0.091,0.658-0.091,1.32v1.292h-0.501V46.351z"/>
		<path fill="#010202" d="M30.979,44.778c0.112,0,0.208,0.04,0.287,0.12c0.079,0.079,0.119,0.175,0.119,0.288
			c0,0.11-0.04,0.205-0.119,0.284c-0.079,0.08-0.175,0.12-0.287,0.12c-0.11,0-0.204-0.04-0.283-0.12
			c-0.079-0.079-0.119-0.174-0.119-0.284c0-0.112,0.04-0.208,0.119-0.288C30.775,44.818,30.87,44.778,30.979,44.778z M30.735,46.351
			h0.492v3.818h-0.492V46.351z"/>
		<path fill="#010202" d="M36.053,46.351v3.818h-0.484v-0.656c-0.206,0.25-0.437,0.439-0.693,0.565
			c-0.256,0.126-0.537,0.189-0.841,0.189c-0.541,0-1.002-0.196-1.384-0.588c-0.383-0.392-0.574-0.869-0.574-1.43
			c0-0.55,0.193-1.021,0.579-1.411c0.386-0.391,0.851-0.586,1.394-0.586c0.314,0,0.597,0.067,0.851,0.2s0.477,0.333,0.669,0.6
			v-0.702H36.053z M34.089,46.727c-0.273,0-0.526,0.067-0.757,0.202c-0.232,0.134-0.416,0.323-0.552,0.566s-0.205,0.5-0.205,0.771
			c0,0.269,0.069,0.526,0.207,0.771c0.138,0.246,0.323,0.437,0.556,0.573c0.232,0.137,0.482,0.205,0.749,0.205
			c0.269,0,0.523-0.067,0.764-0.203c0.241-0.135,0.426-0.319,0.555-0.55c0.13-0.231,0.195-0.492,0.195-0.782
			c0-0.442-0.146-0.811-0.437-1.108C34.873,46.875,34.515,46.727,34.089,46.727z"/>
		<path fill="#010202" d="M37.085,44.877h0.492v5.292h-0.492V44.877z"/>
		<path fill="#010202" d="M38.769,44.778c0.112,0,0.208,0.04,0.286,0.12c0.08,0.079,0.119,0.175,0.119,0.288
			c0,0.11-0.04,0.205-0.119,0.284c-0.079,0.08-0.174,0.12-0.286,0.12c-0.11,0-0.204-0.04-0.283-0.12
			c-0.08-0.079-0.119-0.174-0.119-0.284c0-0.112,0.039-0.208,0.119-0.288C38.564,44.818,38.659,44.778,38.769,44.778z
			 M38.524,46.351h0.491v3.818h-0.491V46.351z"/>
		<path fill="#010202" d="M39.725,46.351h2.805l-2.162,3.383h2.092v0.435h-2.938l2.161-3.387h-1.957V46.351z"/>
		<path fill="#010202" d="M46.306,48.903l0.414,0.217c-0.136,0.267-0.292,0.482-0.471,0.646c-0.178,0.164-0.378,0.288-0.601,0.374
			c-0.223,0.086-0.474,0.128-0.755,0.128c-0.623,0-1.11-0.204-1.461-0.613c-0.352-0.408-0.527-0.87-0.527-1.384
			c0-0.484,0.148-0.916,0.446-1.295c0.377-0.482,0.882-0.723,1.514-0.723c0.651,0,1.171,0.247,1.56,0.741
			c0.276,0.349,0.417,0.784,0.421,1.306H43.41c0.009,0.444,0.151,0.807,0.425,1.091c0.274,0.284,0.613,0.425,1.016,0.425
			c0.194,0,0.383-0.034,0.567-0.101s0.34-0.158,0.469-0.27C46.016,49.333,46.156,49.152,46.306,48.903z M46.306,47.874
			c-0.066-0.262-0.161-0.472-0.287-0.628c-0.125-0.157-0.291-0.283-0.497-0.379c-0.206-0.096-0.423-0.144-0.65-0.144
			c-0.375,0-0.697,0.121-0.967,0.361c-0.196,0.175-0.345,0.439-0.446,0.79H46.306z"/>
	</g>
	<g>
		<g>
			<g>
				<path fill="#F3A0AC" d="M7.839,22.056h-7.84c5.011,0,3.6,13.184,6.633,13.184h7.839C11.438,35.24,12.849,22.056,7.839,22.056z"
					/>
				<path fill="#F3A0AC" d="M23.364,6.425h-7.833c2.566,0,6.334,28.815,8.901,28.815h7.831C29.697,35.24,25.929,6.425,23.364,6.425z
					"/>
				<path fill="#F3A0AC" d="M41.163,6.425h-7.831c2.566,0,6.334,28.815,8.9,28.815h7.832C47.498,35.24,43.73,6.425,41.163,6.425z"/>
			</g>
		</g>
		<g>
			<path fill="#EC6F78" d="M6.632,35.24h7.832c2.564,0,6.334-28.815,8.9-28.815h-7.833C12.965,6.425,9.197,35.24,6.632,35.24z"/>
			<path fill="#EC6F78" d="M48.854,22.056c-5.01,0-3.598,13.184-6.63,13.184h7.839c3.033,0,1.62-13.184,6.631-13.184H48.854z"/>
			<path fill="#EC6F78" d="M24.432,35.24h7.831c2.566,0,6.334-28.815,8.9-28.815h-7.831C30.766,6.425,26.998,35.24,24.432,35.24z"/>
		</g>
	</g>
</g>
</svg>
