<?xml version="1.0" encoding="utf-8"?>
<!-- Generator: Adobe Illustrator 16.0.0, SVG Export Plug-In . SVG Version: 6.00 Build 0)  -->
<!DOCTYPE svg PUBLIC "-//W3C//DTD SVG 1.1//EN" "http://www.w3.org/Graphics/SVG/1.1/DTD/svg11.dtd">
<svg version="1.1" id="Calque_1" xmlns="http://www.w3.org/2000/svg" xmlns:xlink="http://www.w3.org/1999/xlink" x="0px" y="0px"
	 width="56.693px" height="56.693px" viewBox="0 0 56.693 56.693" enable-background="new 0 0 56.693 56.693" xml:space="preserve">
<g>
	<g>
		<path fill="#010202" d="M30.715,26.15c0.037,1.768,0.372,3.217,1.029,4.329c0.657,1.113,1.55,1.854,2.691,2.225
			c1.14,0.371,3.086,0.561,5.85,0.586c2.767,0.026,4.577,0.095,5.456,0.207c1.389,0.207,2.504,0.595,3.347,1.155
			c0.844,0.561,1.513,1.259,2.021,2.087c0.508,0.827,0.892,1.888,1.153,3.172c0.161,0.872,0.248,2.303,0.248,4.277v1.932h-3.893
			v-1.069c0-2.389-0.311-3.976-0.931-4.76c-0.62-0.785-2.008-1.172-4.153-1.172c-4.326,0-7.067-0.129-8.208-0.38
			c-1.772-0.413-3.135-1.121-4.092-2.121c-0.954-1.001-1.81-2.57-2.553-4.708c-0.756,2.526-1.92,4.363-3.482,5.501
			c-1.562,1.138-4.116,1.708-7.675,1.708c-3.224,0-5.146,0.042-5.753,0.138c-1.127,0.181-1.908,0.647-2.355,1.396
			c-0.446,0.751-0.669,2.216-0.669,4.398v1.069H4.854v-1.932c0-2.25,0.136-3.888,0.396-4.897c0.384-1.475,0.992-2.69,1.848-3.656
			c0.854-0.965,1.934-1.595,3.234-1.879c1.303-0.285,3.447-0.44,6.422-0.466c2.976-0.025,5.034-0.215,6.173-0.586
			c1.142-0.371,2.047-1.112,2.704-2.225c0.657-1.112,1.003-2.561,1.041-4.329H30.715z"/>
	</g>
	<g>
		<path fill="#010202" d="M0,14.671c0.181-0.006,0.328-0.042,0.44-0.107c0.146-0.086,0.256-0.206,0.332-0.357
			c0.075-0.152,0.121-0.367,0.136-0.644c0.006-0.137,0.011-0.452,0.016-0.943c0.004-0.491,0.036-0.843,0.096-1.055
			c0.06-0.211,0.152-0.38,0.277-0.505s0.284-0.216,0.478-0.272c0.116-0.033,0.302-0.049,0.559-0.049h0.25v0.702H2.445
			c-0.311,0-0.517,0.058-0.615,0.172c-0.1,0.115-0.149,0.364-0.149,0.749c0,0.694-0.011,1.137-0.031,1.327
			c-0.039,0.367-0.125,0.647-0.262,0.842c-0.136,0.195-0.349,0.363-0.641,0.503c0.328,0.14,0.565,0.351,0.713,0.632
			c0.147,0.282,0.221,0.743,0.221,1.383c0,0.572,0.006,0.91,0.018,1.015c0.018,0.161,0.055,0.284,0.111,0.371
			c0.042,0.06,0.107,0.106,0.198,0.141c0.091,0.034,0.282,0.051,0.576,0.051v0.702h-0.25c-0.297,0-0.514-0.025-0.651-0.076
			c-0.199-0.075-0.359-0.195-0.479-0.36c-0.121-0.166-0.198-0.387-0.234-0.664c-0.027-0.197-0.042-0.563-0.045-1.1
			c-0.003-0.548-0.033-0.919-0.091-1.113s-0.157-0.344-0.297-0.449S0.218,15.406,0,15.4V14.671z"/>
		<path fill="#010202" d="M3.214,14.671c0.181-0.006,0.327-0.042,0.44-0.107c0.146-0.086,0.256-0.206,0.332-0.357
			c0.075-0.152,0.121-0.367,0.136-0.644c0.006-0.137,0.011-0.452,0.016-0.943c0.004-0.491,0.036-0.843,0.096-1.055
			c0.06-0.211,0.152-0.38,0.277-0.505s0.284-0.216,0.478-0.272c0.116-0.033,0.302-0.049,0.559-0.049h0.25v0.702H5.659
			c-0.311,0-0.517,0.058-0.615,0.172c-0.1,0.115-0.149,0.364-0.149,0.749c0,0.694-0.011,1.137-0.031,1.327
			c-0.039,0.367-0.125,0.647-0.261,0.842c-0.136,0.195-0.35,0.363-0.642,0.503c0.328,0.14,0.565,0.351,0.713,0.632
			c0.147,0.282,0.221,0.743,0.221,1.383c0,0.572,0.006,0.91,0.018,1.015c0.018,0.161,0.055,0.284,0.111,0.371
			c0.042,0.06,0.107,0.106,0.198,0.141c0.091,0.034,0.282,0.051,0.576,0.051v0.702h-0.25c-0.297,0-0.514-0.025-0.651-0.076
			c-0.199-0.075-0.359-0.195-0.479-0.36c-0.121-0.166-0.198-0.387-0.234-0.664c-0.027-0.197-0.042-0.563-0.045-1.1
			c-0.002-0.548-0.033-0.919-0.091-1.113S3.89,15.673,3.75,15.567S3.431,15.406,3.214,15.4V14.671z"/>
		<path fill="#010202" d="M6.785,12.45H7.41v0.84c0.218-0.31,0.441-0.536,0.671-0.679c0.316-0.19,0.649-0.286,0.999-0.286
			c0.235,0,0.459,0.046,0.671,0.139s0.385,0.215,0.519,0.369c0.134,0.154,0.25,0.374,0.349,0.659
			c0.208-0.381,0.468-0.671,0.78-0.869c0.313-0.198,0.648-0.297,1.008-0.297c0.336,0,0.632,0.085,0.89,0.255s0.448,0.407,0.573,0.71
			c0.125,0.304,0.187,0.76,0.187,1.368v2.655h-0.639v-2.655c0-0.521-0.037-0.88-0.111-1.075c-0.074-0.195-0.202-0.353-0.381-0.472
			c-0.18-0.119-0.395-0.179-0.644-0.179c-0.303,0-0.58,0.089-0.831,0.268c-0.251,0.179-0.435,0.417-0.55,0.715
			s-0.174,0.795-0.174,1.493v1.904h-0.626v-2.489c0-0.587-0.036-0.985-0.109-1.196c-0.073-0.21-0.201-0.378-0.382-0.505
			c-0.182-0.127-0.398-0.19-0.648-0.19c-0.289,0-0.559,0.087-0.811,0.262s-0.438,0.409-0.559,0.704S7.41,14.645,7.41,15.252v2.06
			H6.785V12.45z"/>
		<path fill="#010202" d="M15.294,12.45h0.626v2.27c0,0.554,0.029,0.936,0.089,1.145c0.089,0.297,0.26,0.533,0.513,0.706
			c0.252,0.172,0.553,0.259,0.902,0.259s0.645-0.084,0.888-0.252c0.244-0.168,0.411-0.39,0.504-0.664
			c0.063-0.188,0.094-0.585,0.094-1.193v-2.27h0.639v2.386c0,0.67-0.078,1.176-0.234,1.515c-0.157,0.34-0.392,0.606-0.707,0.798
			c-0.314,0.192-0.708,0.288-1.182,0.288c-0.474,0-0.869-0.096-1.187-0.288c-0.317-0.192-0.554-0.46-0.71-0.804
			c-0.156-0.344-0.235-0.862-0.235-1.553V12.45z"/>
		<path fill="#010202" d="M23.383,12.982l-0.402,0.416C22.646,13.073,22.32,12.91,22,12.91c-0.204,0-0.378,0.067-0.522,0.201
			c-0.145,0.134-0.217,0.291-0.217,0.469c0,0.158,0.06,0.309,0.179,0.452c0.119,0.146,0.37,0.317,0.752,0.514
			c0.465,0.242,0.782,0.474,0.949,0.697c0.164,0.227,0.247,0.481,0.247,0.765c0,0.399-0.141,0.737-0.421,1.014
			c-0.28,0.277-0.631,0.416-1.052,0.416c-0.281,0-0.549-0.061-0.804-0.183c-0.255-0.122-0.466-0.291-0.633-0.505l0.393-0.447
			c0.32,0.36,0.659,0.541,1.017,0.541c0.25,0,0.464-0.081,0.641-0.241c0.176-0.161,0.264-0.351,0.264-0.568
			c0-0.179-0.058-0.338-0.175-0.478c-0.116-0.137-0.379-0.31-0.788-0.519c-0.438-0.226-0.737-0.45-0.896-0.67
			s-0.238-0.472-0.238-0.755c0-0.369,0.126-0.676,0.378-0.92s0.571-0.367,0.956-0.367C22.479,12.325,22.93,12.544,23.383,12.982z"/>
		<path fill="#010202" d="M25.037,10.645h0.626v1.806h0.992v0.541h-0.992v4.322h-0.626v-4.322h-0.854V12.45h0.854V10.645z"/>
		<path fill="#010202" d="M32.438,12.45v4.862h-0.617v-0.835c-0.262,0.319-0.557,0.559-0.883,0.719
			c-0.326,0.161-0.683,0.241-1.07,0.241c-0.688,0-1.276-0.25-1.763-0.749c-0.487-0.499-0.731-1.106-0.731-1.821
			c0-0.7,0.246-1.299,0.737-1.796c0.492-0.498,1.083-0.747,1.774-0.747c0.399,0,0.76,0.085,1.084,0.255
			c0.323,0.17,0.607,0.425,0.852,0.764V12.45H32.438z M29.938,12.928c-0.348,0-0.67,0.085-0.964,0.257
			c-0.295,0.171-0.529,0.411-0.704,0.721c-0.174,0.31-0.261,0.637-0.261,0.982c0,0.342,0.088,0.669,0.263,0.982
			c0.176,0.313,0.412,0.556,0.708,0.729c0.296,0.174,0.614,0.262,0.953,0.262c0.343,0,0.667-0.086,0.973-0.259
			c0.307-0.172,0.542-0.406,0.708-0.701c0.166-0.294,0.248-0.626,0.248-0.996c0-0.563-0.186-1.032-0.556-1.411
			C30.936,13.117,30.479,12.928,29.938,12.928z"/>
		<path fill="#010202" d="M38.566,13.46l-0.496,0.309c-0.429-0.569-1.014-0.854-1.754-0.854c-0.592,0-1.084,0.19-1.476,0.571
			c-0.392,0.381-0.587,0.844-0.587,1.388c0,0.354,0.09,0.688,0.27,1c0.181,0.313,0.428,0.555,0.742,0.728
			c0.314,0.173,0.666,0.259,1.056,0.259c0.714,0,1.297-0.285,1.75-0.854l0.496,0.326c-0.232,0.35-0.545,0.621-0.937,0.814
			c-0.392,0.193-0.838,0.289-1.338,0.289c-0.769,0-1.406-0.244-1.913-0.733c-0.507-0.489-0.76-1.083-0.76-1.783
			c0-0.471,0.119-0.908,0.355-1.312s0.563-0.719,0.977-0.945s0.877-0.34,1.39-0.34c0.322,0,0.632,0.049,0.932,0.147
			c0.299,0.099,0.554,0.227,0.762,0.385C38.242,13.015,38.42,13.216,38.566,13.46z"/>
		<path fill="#010202" d="M39.768,10.573h0.625v2.749c0.253-0.333,0.532-0.583,0.836-0.749c0.304-0.165,0.633-0.248,0.988-0.248
			c0.363,0,0.686,0.092,0.967,0.277c0.282,0.185,0.49,0.433,0.624,0.744c0.134,0.311,0.201,0.799,0.201,1.463v2.503h-0.625v-2.319
			c0-0.561-0.022-0.934-0.067-1.122c-0.078-0.322-0.218-0.563-0.422-0.726c-0.204-0.163-0.471-0.244-0.802-0.244
			c-0.378,0-0.717,0.125-1.017,0.375s-0.497,0.561-0.592,0.93c-0.06,0.238-0.089,0.679-0.089,1.323v1.783h-0.625V10.573z"/>
		<path fill="#010202" d="M49.444,15.699l0.527,0.277c-0.173,0.34-0.373,0.614-0.599,0.823c-0.227,0.208-0.482,0.367-0.765,0.476
			c-0.284,0.109-0.604,0.163-0.962,0.163c-0.793,0-1.414-0.26-1.861-0.78s-0.671-1.108-0.671-1.763c0-0.617,0.189-1.167,0.568-1.649
			c0.48-0.614,1.123-0.921,1.928-0.921c0.829,0,1.491,0.314,1.986,0.943c0.352,0.444,0.531,0.998,0.537,1.663h-4.375
			c0.012,0.564,0.192,1.028,0.542,1.389c0.349,0.361,0.78,0.542,1.293,0.542c0.248,0,0.488-0.043,0.723-0.129
			c0.234-0.086,0.433-0.2,0.597-0.343C49.075,16.247,49.253,16.017,49.444,15.699z M49.444,14.39
			c-0.083-0.333-0.205-0.601-0.365-0.8c-0.16-0.2-0.37-0.36-0.633-0.483c-0.263-0.122-0.539-0.183-0.828-0.183
			c-0.477,0-0.888,0.153-1.23,0.46c-0.25,0.223-0.44,0.559-0.568,1.005H49.444z"/>
		<path fill="#010202" d="M53.479,14.671V15.4c-0.181,0.002-0.329,0.037-0.442,0.103c-0.146,0.087-0.257,0.206-0.333,0.357
			c-0.076,0.152-0.121,0.367-0.136,0.644c-0.006,0.137-0.011,0.452-0.016,0.945c-0.004,0.494-0.036,0.845-0.096,1.055
			c-0.06,0.21-0.152,0.378-0.277,0.505s-0.284,0.217-0.478,0.271c-0.116,0.033-0.302,0.049-0.559,0.049h-0.25v-0.702h0.138
			c0.312,0,0.517-0.056,0.616-0.17c0.1-0.113,0.149-0.362,0.149-0.746c0-0.712,0.012-1.165,0.036-1.359
			c0.042-0.36,0.136-0.642,0.284-0.845c0.147-0.203,0.353-0.36,0.615-0.474c-0.349-0.167-0.592-0.387-0.729-0.659
			c-0.137-0.272-0.206-0.724-0.206-1.352c0-0.659-0.014-1.044-0.041-1.157c-0.032-0.152-0.095-0.261-0.188-0.327
			c-0.093-0.065-0.272-0.098-0.536-0.098h-0.138v-0.702h0.25c0.297,0,0.514,0.027,0.651,0.081c0.199,0.071,0.359,0.19,0.479,0.357
			c0.121,0.167,0.198,0.387,0.234,0.662c0.027,0.196,0.042,0.563,0.045,1.099c0.002,0.548,0.033,0.92,0.092,1.115
			c0.058,0.195,0.158,0.346,0.298,0.451C53.082,14.609,53.261,14.665,53.479,14.671z"/>
		<path fill="#010202" d="M56.693,14.671V15.4c-0.182,0.002-0.329,0.037-0.443,0.103c-0.146,0.087-0.257,0.206-0.333,0.357
			c-0.076,0.152-0.121,0.367-0.136,0.644c-0.006,0.137-0.011,0.452-0.016,0.945c-0.004,0.494-0.036,0.845-0.096,1.055
			c-0.06,0.21-0.152,0.378-0.277,0.505s-0.284,0.217-0.478,0.271c-0.116,0.033-0.302,0.049-0.559,0.049h-0.25v-0.702h0.138
			c0.311,0,0.517-0.056,0.615-0.17c0.1-0.113,0.149-0.362,0.149-0.746c0-0.712,0.012-1.165,0.036-1.359
			c0.042-0.36,0.136-0.642,0.284-0.845c0.147-0.203,0.353-0.36,0.615-0.474c-0.349-0.167-0.592-0.387-0.729-0.659
			s-0.206-0.724-0.206-1.352c0-0.659-0.014-1.044-0.041-1.157c-0.032-0.152-0.095-0.261-0.188-0.327
			c-0.093-0.065-0.272-0.098-0.536-0.098h-0.138v-0.702h0.25c0.297,0,0.514,0.027,0.651,0.081c0.199,0.071,0.359,0.19,0.479,0.357
			c0.121,0.167,0.198,0.387,0.234,0.662c0.027,0.196,0.042,0.563,0.045,1.099c0.002,0.548,0.033,0.92,0.092,1.115
			c0.058,0.195,0.158,0.346,0.298,0.451C56.295,14.609,56.475,14.665,56.693,14.671z"/>
	</g>
</g>
</svg>
