<?xml version="1.0" ?><svg enable-background="new 0 0 32 32" id="Layer_1" version="1.1" viewBox="0 0 32 32" xml:space="preserve" xmlns="http://www.w3.org/2000/svg" xmlns:xlink="http://www.w3.org/1999/xlink"><path d="M16,0C7.163,0,0,7.163,0,16s7.163,16,16,16s16-7.163,16-16S24.837,0,16,0z M16,31.25  C7.591,31.25,0.75,24.409,0.75,16S7.591,0.75,16,0.75S31.25,7.591,31.25,16S24.409,31.25,16,31.25z" fill="#414753"/><path d="M16,2.43C8.505,2.43,2.43,8.505,2.43,16S8.506,29.57,16,29.57c7.495,0,13.57-6.076,13.57-13.57  C29.57,8.505,23.495,2.43,16,2.43z M16,28.82C8.931,28.82,3.18,23.069,3.18,16S8.931,3.18,16,3.18S28.82,8.931,28.82,16  S23.069,28.82,16,28.82z" fill="#414753"/><path d="M20.574,16.628l-1.609-0.742c-0.143-0.079-0.284-0.016-0.426,0.158c-0.173,0.237-0.253,0.331-0.457,0.583  c-0.11,0.142-0.19,0.237-0.316,0.252c-0.143,0.031-0.331-0.047-0.363-0.047c-0.505-0.174-1.089-0.6-1.531-0.994  c-0.426-0.394-0.899-0.947-1.104-1.436c-0.031-0.064-0.095-0.221,0-0.347c0.19-0.252,0.221-0.269,0.426-0.505  c0.142-0.174,0.252-0.331,0.205-0.474l-0.71-1.846c-0.064-0.126-0.252-0.143-0.473-0.158c-0.19,0-0.394,0-0.537,0.031  c-0.316,0.11-0.963,0.963-1.041,1.579c-0.174,1.341,1.041,3.125,2.256,4.231c1.215,1.121,3.093,2.179,4.417,1.879  c0.615-0.142,1.405-0.852,1.467-1.184c0.031-0.142,0.016-0.347-0.016-0.537C20.748,16.849,20.7,16.692,20.574,16.628z" fill="#414753"/><path d="M16.551,6.463c-4.623,0-8.362,3.741-8.362,8.35c0,1.625,0.473,3.142,1.262,4.42l-1.262,5.051l4.512-2.053  c1.151,0.6,2.461,0.947,3.85,0.947c4.607,0,8.346-3.742,8.346-8.366C24.897,10.204,21.157,6.463,16.551,6.463z M16.551,21.506  c-1.483,0-2.84-0.474-3.944-1.294l-2.035,1.294l0.915-2.321c-1.01-1.168-1.625-2.7-1.625-4.372c0-3.694,2.998-6.677,6.689-6.677  s6.674,2.983,6.674,6.677S20.242,21.506,16.551,21.506z" fill="#414753"/></svg>