<?xml version="1.0" encoding="utf-8"?>
<!-- Generator: Adobe Illustrator 16.0.0, SVG Export Plug-In . SVG Version: 6.00 Build 0)  -->
<!DOCTYPE svg PUBLIC "-//W3C//DTD SVG 1.1//EN" "http://www.w3.org/Graphics/SVG/1.1/DTD/svg11.dtd">
<svg version="1.1" id="Layer_1" xmlns="http://www.w3.org/2000/svg" xmlns:xlink="http://www.w3.org/1999/xlink" x="0px" y="0px"
	 width="320px" height="480px" viewBox="0 0 320 480" enable-background="new 0 0 320 480" xml:space="preserve">
<path fill="#FFFFFF" d="M161.002,80c-88.372,0-160,71.634-160,160c0,88.367,71.628,160,160,160c88.366,0,160-71.633,160-160
	C321.002,151.634,249.368,80,161.002,80z M161.002,392.5c-84.087,0-152.5-68.407-152.5-152.5s68.413-152.5,152.5-152.5
	c84.093,0,152.5,68.407,152.5,152.5S245.095,392.5,161.002,392.5z"/>
<path fill="#FFFFFF" d="M161,104.304c-74.95,0-135.701,60.747-135.701,135.696c0,74.95,60.762,135.696,135.701,135.696
	c74.95,0,135.705-60.757,135.705-135.696C296.705,165.051,235.95,104.304,161,104.304z M161,368.196
	c-70.69,0-128.201-57.511-128.201-128.196S90.31,111.804,161,111.804c70.686,0,128.205,57.51,128.205,128.196
	S231.686,368.196,161,368.196z"/>
<g>
	<path fill="#FFFFFF" d="M201.312,252.545l-16.09-7.42c-1.43-0.789-2.84-0.159-4.26,1.58c-1.729,2.371-2.53,3.311-4.57,5.83
		c-1.1,1.42-1.899,2.371-3.159,2.521c-1.431,0.31-3.311-0.47-3.631-0.47c-5.05-1.74-10.89-6-15.31-9.94
		c-4.26-3.94-8.99-9.47-11.04-14.36c-0.31-0.64-0.95-2.209,0-3.47c1.9-2.521,2.21-2.69,4.26-5.05c1.42-1.74,2.521-3.311,2.05-4.74
		l-7.1-18.46c-0.64-1.26-2.52-1.43-4.729-1.579c-1.9,0-3.94,0-5.37,0.309c-3.16,1.101-9.63,9.631-10.41,15.791
		c-1.74,13.41,10.41,31.25,22.56,42.31c12.15,11.21,30.931,21.79,44.17,18.79c6.15-1.42,14.051-8.52,14.67-11.84
		c0.311-1.42,0.16-3.471-0.159-5.37C203.052,254.756,202.573,253.186,201.312,252.545z"/>
	<path fill="#FFFFFF" d="M161.082,150.896c-46.23,0-83.62,37.41-83.62,83.5c0,16.25,4.73,31.42,12.62,44.2l-12.62,50.51
		l45.12-20.529c11.51,6,24.61,9.47,38.5,9.47c46.07,0,83.46-37.421,83.46-83.66C244.542,188.306,207.142,150.896,161.082,150.896z
		 M161.082,301.326c-14.83,0-28.4-4.74-39.44-12.94l-20.35,12.94l9.15-23.211c-10.101-11.68-16.25-27-16.25-43.72
		c0-36.94,29.979-66.771,66.89-66.771s66.74,29.83,66.74,66.771S197.992,301.326,161.082,301.326z"/>
</g>
</svg>
