<?xml version="1.0" encoding="utf-8"?>
<!-- Generator: Adobe Illustrator 16.0.0, SVG Export Plug-In . SVG Version: 6.00 Build 0)  -->
<!DOCTYPE svg PUBLIC "-//W3C//DTD SVG 1.1//EN" "http://www.w3.org/Graphics/SVG/1.1/DTD/svg11.dtd">
<svg version="1.1" id="Calque_1" xmlns="http://www.w3.org/2000/svg" xmlns:xlink="http://www.w3.org/1999/xlink" x="0px" y="0px"
	 width="56.693px" height="56.693px" viewBox="0 0 56.693 56.693" enable-background="new 0 0 56.693 56.693" xml:space="preserve">
<g>
	<g>
		<g>
			<g>
				<polygon fill="#8563A7" points="11.986,50.388 8.833,12.987 47.86,12.987 44.706,50.388 28.344,54.879 				"/>
				<g>
					<path fill="#7B579F" d="M45.956,14.737l-2.891,34.287l-14.721,4.041l-14.717-4.041l-2.89-34.287H45.956 M49.764,11.237H6.93
						l3.416,40.515l17.999,4.942l18.003-4.942L49.764,11.237L49.764,11.237z"/>
				</g>
			</g>
			<polygon fill="#7B579F" points="28.344,56.694 10.345,51.752 6.93,11.237 28.344,11.237 			"/>
		</g>
		<g>
			<polygon fill="#FFFFFF" points="28.504,47.648 17.436,44.261 16.946,37.038 21.945,37.038 22.21,40.868 28.643,42.834 
				34.805,41.278 35.249,34.197 16.105,34.197 15.37,19.798 41.324,19.798 41.324,24.404 20.611,24.404 20.876,29.588 
				40.544,29.588 39.592,44.847 			"/>
		</g>
	</g>
	<g>
		<path d="M15.545-0.001h4.411c0.963,0,1.683,0.21,2.16,0.631c0.48,0.421,0.719,1.021,0.719,1.799c0,0.798-0.26,1.424-0.781,1.873
			c-0.522,0.449-1.32,0.675-2.39,0.675H18.21v2.937h-2.665V-0.001z M18.21,3.373h0.65c0.514,0,0.875-0.08,1.079-0.245
			C20.146,2.963,20.25,2.753,20.25,2.5c0-0.249-0.089-0.459-0.269-0.632c-0.181-0.172-0.519-0.258-1.015-0.258H18.21V3.373z"/>
		<path d="M24.235-0.001h2.653v2.769h2.902v-2.769h2.665v7.915h-2.665V4.712h-2.902v3.202h-2.653V-0.001z"/>
		<path d="M34.206-0.001h4.413c0.962,0,1.682,0.21,2.162,0.631c0.477,0.421,0.716,1.021,0.716,1.799
			c0,0.798-0.261,1.424-0.782,1.873c-0.521,0.449-1.316,0.675-2.388,0.675h-1.454v2.937h-2.667V-0.001z M36.874,3.373h0.652
			c0.511,0,0.871-0.08,1.076-0.245c0.208-0.165,0.313-0.375,0.313-0.628c0-0.249-0.091-0.459-0.272-0.632
			c-0.179-0.172-0.517-0.258-1.012-0.258h-0.757V3.373z"/>
	</g>
</g>
</svg>
