<?xml version="1.0" encoding="utf-8"?>
<!-- Generator: Adobe Illustrator 16.0.0, SVG Export Plug-In . SVG Version: 6.00 Build 0)  -->
<!DOCTYPE svg PUBLIC "-//W3C//DTD SVG 1.1//EN" "http://www.w3.org/Graphics/SVG/1.1/DTD/svg11.dtd">
<svg version="1.1" id="Calque_1" xmlns="http://www.w3.org/2000/svg" xmlns:xlink="http://www.w3.org/1999/xlink" x="0px" y="0px"
	 width="73.63px" height="75.673px" viewBox="0 0 73.63 75.673" enable-background="new 0 0 73.63 75.673" xml:space="preserve">
<g>
	<g>
		<g>
			<path fill="#EF484A" d="M28.187,19.461c-4.888,2.689-6.36,9.391-3.287,14.969c2.227,4.045,6.229,6.396,10.129,6.348l4.955,3.67
				l2.981-1.643l-0.414-6.172c2.112-3.271,2.272-7.903,0.046-11.947C39.522,19.105,33.073,16.769,28.187,19.461z M38.48,38.098
				c-4.042,2.227-9.419,0.215-12.01-4.486c-2.589-4.706-1.414-10.325,2.627-12.55c4.042-2.226,9.421-0.216,12.012,4.488
				C43.699,30.253,42.521,35.872,38.48,38.098z"/>
		</g>
		<path fill="#EF484A" d="M43.669,44.106l6.47,11.748c0.254,0.463,0.084,1.049-0.379,1.305l-1.305,0.719
			c-0.463,0.256-1.05,0.084-1.305-0.379l-6.469-11.746L43.669,44.106z"/>
	</g>
	<g>
		<path fill="#EF484A" d="M37.243,46.69c-0.706,0.463-2.26,1.625-2.34,4.221c-0.02,1.357,0.646,3.104,2.34,4.221
			c0.877-1.178,1.404-2.637,1.404-4.221S38.12,47.87,37.243,46.69z"/>
		<g>
			<path fill="#EF484A" d="M27.711,50.918c-0.068-2.242-1.238-3.412-2.011-3.988c-0.771,1.135-1.224,2.506-1.224,3.98
				c0,1.477,0.451,2.846,1.224,3.98C27.143,53.774,27.73,52.184,27.711,50.918z"/>
			<path fill="#EF484A" d="M33.364,53.231c-0.781-2.16-0.41-4.145,0.576-5.844c0.721-1.137,1.501-1.775,1.91-2.107
				c-1.19-0.91-2.674-1.455-4.288-1.455c-1.736,0-3.325,0.627-4.559,1.666c0.435,0.365,1.067,0.955,1.671,1.904
				c0.984,1.703,1.357,3.684,0.576,5.848c-0.591,1.635-1.725,2.68-2.243,3.092c1.231,1.035,2.818,1.662,4.555,1.662
				c1.624,0,3.117-0.555,4.312-1.475C35.841,56.502,34.137,55.374,33.364,53.231z"/>
		</g>
	</g>
</g>
<circle fill="none" stroke="#EF484A" stroke-width="3" stroke-miterlimit="10" cx="36.776" cy="37.844" r="35.344"/>
</svg>
