<?xml version="1.0" encoding="utf-8"?>
<!-- Generator: Adobe Illustrator 16.0.0, SVG Export Plug-In . SVG Version: 6.00 Build 0)  -->
<!DOCTYPE svg PUBLIC "-//W3C//DTD SVG 1.1//EN" "http://www.w3.org/Graphics/SVG/1.1/DTD/svg11.dtd">
<svg version="1.1" id="Layer_1" xmlns="http://www.w3.org/2000/svg" xmlns:xlink="http://www.w3.org/1999/xlink" x="0px" y="0px"
	 width="320px" height="480px" viewBox="0 0 320 480" enable-background="new 0 0 320 480" xml:space="preserve">
<g id="XMLID_174_">
	<path id="XMLID_3390_" fill="#FCFCFC" d="M25.625,277.375c-3.625,0-7.125-1-10.25-2.875l-11.625-7v107.813h42.188V265.688
		l-6.875,6.375C35.438,275.5,30.625,277.375,25.625,277.375z"/>
	<polygon id="XMLID_183_" fill="#FCFCFC" points="89.5,225.25 89.5,375.375 131.75,375.375 131.75,220.938 110.063,206.125 	"/>
	<path id="XMLID_182_" fill="#FCFCFC" d="M181.375,250.688c-4,0-7.875-1.188-11.188-3.438l-8.313-5.688v133.75h42.188V237.375
		l-9.688,8.5C190.75,249,186.125,250.688,181.375,250.688z"/>
	<polygon id="XMLID_175_" fill="#FCFCFC" points="236.563,375.375 278.75,375.375 278.75,172.5 236.563,209.188 	"/>
	<path id="XMLID_498_" fill="#FCFCFC" d="M250.688,123.313l17.438,16.938L180.5,215.938l-65.688-44.875
		c-4.563-3.125-10.75-2.688-14.813,1.125l-76,70.625l-20.188-12.25v27.75L19.5,267.75c4.563,2.75,10.313,2.125,14.25-1.5
		L109.313,196l65.375,44.688c4.438,3.063,10.438,2.688,14.5-0.813l96.063-83.063l14.375,13.938l16.625-66.125L250.688,123.313z"/>
</g>
</svg>
