<?xml version="1.0" encoding="utf-8"?>
<!-- Generator: Adobe Illustrator 16.0.0, SVG Export Plug-In . SVG Version: 6.00 Build 0)  -->
<!DOCTYPE svg PUBLIC "-//W3C//DTD SVG 1.1//EN" "http://www.w3.org/Graphics/SVG/1.1/DTD/svg11.dtd">
<svg version="1.1" id="Calque_1" xmlns="http://www.w3.org/2000/svg" xmlns:xlink="http://www.w3.org/1999/xlink" x="0px" y="0px"
	 width="56.693px" height="56.693px" viewBox="0 0 56.693 56.693" enable-background="new 0 0 56.693 56.693" xml:space="preserve">
<g>
	<g>
		<path fill="#36A9E1" d="M9.768,31.253c0,3.079,2.519,5.598,5.596,5.598h25.623c3.08,0,5.596-2.519,5.596-5.598V5.598
			C46.582,2.52,44.065,0,40.986,0H17.225L9.768,7.458V31.253z"/>
		<path fill="#73BAE8" d="M9.768,7.458h4.913c1.4,0,2.544-1.144,2.544-2.543V0L9.768,7.458z"/>
		<polygon opacity="0.52" fill="#B2B2B2" points="9.768,11.382 9.768,7.468 13.684,7.468 		"/>
		<path opacity="0.52" fill="#B2B2B2" d="M46.582,31.253V26.71l-9.702-9.704l-1.256-0.179l-3.021-0.329l-1.642,1.043l-3.853-3.854
			l-3.092-0.032l-3.589,0.15l-1.545,11.357l11.689,11.687h10.415C44.065,36.851,46.582,34.332,46.582,31.253z"/>
		<g>
			<path fill="#FFFFFF" d="M21.405,20.6v4.563h-2.524V12.583h4.812c1.446,0,2.585,0.368,3.415,1.105
				c0.829,0.738,1.243,1.71,1.243,2.912c0,1.205-0.414,2.171-1.243,2.903c-0.83,0.732-1.968,1.097-3.415,1.097H21.405z
				 M21.405,18.656h2.288c0.703,0,1.235-0.191,1.601-0.573c0.363-0.385,0.543-0.872,0.543-1.465c0-0.606-0.178-1.105-0.541-1.499
				c-0.36-0.394-0.892-0.594-1.603-0.594h-2.288V18.656z"/>
			<path fill="#FFFFFF" d="M35.025,22.572c0-0.277-0.137-0.515-0.403-0.713c-0.269-0.2-0.764-0.373-1.489-0.522
				c-1.096-0.22-1.925-0.551-2.496-0.995c-0.568-0.443-0.85-1.044-0.85-1.806c0-0.799,0.34-1.484,1.02-2.047
				c0.68-0.566,1.583-0.848,2.712-0.848c1.182,0,2.126,0.282,2.838,0.848c0.713,0.563,1.053,1.267,1.025,2.107l-0.018,0.052h-2.435
				c0-0.375-0.125-0.681-0.366-0.917c-0.241-0.234-0.588-0.353-1.045-0.353c-0.403,0-0.723,0.099-0.957,0.299
				c-0.238,0.203-0.357,0.451-0.357,0.745c0,0.288,0.124,0.524,0.368,0.704c0.246,0.182,0.744,0.345,1.492,0.489
				c1.146,0.231,2.001,0.568,2.562,1.015c0.561,0.448,0.842,1.062,0.842,1.847c0,0.837-0.36,1.53-1.081,2.065
				c-0.721,0.533-1.669,0.802-2.852,0.802c-1.245,0-2.229-0.315-2.95-0.946c-0.726-0.629-1.065-1.35-1.032-2.155l0.018-0.052h2.309
				c0.015,0.502,0.18,0.865,0.49,1.088c0.312,0.226,0.718,0.336,1.22,0.336c0.467,0,0.822-0.093,1.065-0.28
				C34.901,23.147,35.025,22.894,35.025,22.572z"/>
		</g>
	</g>
	<g>
		<path fill="#010202" d="M3.561,47.729h1.405c0.806,0,1.35,0.035,1.631,0.105c0.403,0.1,0.732,0.304,0.988,0.612
			c0.256,0.308,0.383,0.696,0.383,1.163c0,0.47-0.125,0.857-0.374,1.163s-0.593,0.511-1.031,0.616
			c-0.319,0.077-0.918,0.115-1.794,0.115H4.266v3.281H3.561V47.729z M4.266,48.419v2.393l1.194,0.015
			c0.482,0,0.836-0.044,1.06-0.132c0.224-0.088,0.4-0.229,0.527-0.426c0.128-0.197,0.192-0.415,0.192-0.658
			c0-0.236-0.064-0.452-0.192-0.649c-0.127-0.197-0.296-0.336-0.506-0.418s-0.552-0.125-1.029-0.125H4.266z"/>
		<path fill="#010202" d="M9.269,47.551H9.94v2.95c0.271-0.358,0.571-0.626,0.897-0.804c0.326-0.177,0.679-0.266,1.06-0.266
			c0.39,0,0.736,0.1,1.038,0.297c0.302,0.198,0.525,0.464,0.669,0.799c0.144,0.334,0.216,0.857,0.216,1.571v2.686h-0.672v-2.489
			c0-0.601-0.024-1.002-0.072-1.204c-0.083-0.345-0.234-0.605-0.453-0.779s-0.506-0.262-0.861-0.262
			c-0.406,0-0.77,0.135-1.091,0.403s-0.533,0.601-0.636,0.998c-0.064,0.255-0.096,0.729-0.096,1.42v1.914H9.269V47.551z"/>
		<path fill="#010202" d="M17.729,49.431c0.804,0,1.47,0.292,1.999,0.873c0.48,0.531,0.721,1.16,0.721,1.885
			c0,0.729-0.254,1.366-0.761,1.911c-0.508,0.546-1.161,0.818-1.958,0.818c-0.801,0-1.455-0.272-1.963-0.818
			c-0.508-0.545-0.761-1.182-0.761-1.911c0-0.723,0.24-1.349,0.721-1.88C16.255,49.724,16.923,49.431,17.729,49.431z M17.728,50.088
			c-0.559,0-1.039,0.206-1.439,0.619c-0.402,0.413-0.602,0.912-0.602,1.497c0,0.378,0.091,0.729,0.274,1.055
			c0.183,0.326,0.43,0.578,0.741,0.755c0.311,0.178,0.653,0.267,1.025,0.267c0.372,0,0.714-0.089,1.025-0.267
			c0.312-0.177,0.558-0.429,0.741-0.755c0.183-0.326,0.274-0.677,0.274-1.055c0-0.585-0.201-1.084-0.604-1.497
			C18.762,50.294,18.283,50.088,17.728,50.088z"/>
		<path fill="#010202" d="M22.277,47.628h0.671v1.938h1.065v0.581h-1.065v4.638h-0.671v-4.638h-0.916v-0.581h0.916V47.628z"/>
		<path fill="#010202" d="M27.491,49.431c0.804,0,1.47,0.292,1.999,0.873c0.48,0.531,0.721,1.16,0.721,1.885
			c0,0.729-0.254,1.366-0.761,1.911c-0.508,0.546-1.161,0.818-1.958,0.818c-0.801,0-1.456-0.272-1.963-0.818
			c-0.508-0.545-0.761-1.182-0.761-1.911c0-0.723,0.24-1.349,0.721-1.88C26.016,49.724,26.684,49.431,27.491,49.431z M27.488,50.088
			c-0.559,0-1.039,0.206-1.439,0.619c-0.402,0.413-0.602,0.912-0.602,1.497c0,0.378,0.091,0.729,0.274,1.055s0.43,0.578,0.741,0.755
			c0.311,0.178,0.653,0.267,1.025,0.267c0.372,0,0.714-0.089,1.025-0.267c0.312-0.177,0.559-0.429,0.741-0.755
			c0.183-0.326,0.274-0.677,0.274-1.055c0-0.585-0.201-1.084-0.604-1.497C28.522,50.294,28.043,50.088,27.488,50.088z"/>
		<path fill="#010202" d="M34.076,50.136l-0.432,0.446c-0.359-0.349-0.71-0.523-1.053-0.523c-0.218,0-0.405,0.072-0.561,0.216
			s-0.233,0.312-0.233,0.504c0,0.169,0.064,0.331,0.192,0.484c0.127,0.157,0.397,0.34,0.808,0.551
			c0.5,0.259,0.839,0.509,1.019,0.749c0.176,0.243,0.265,0.517,0.265,0.82c0,0.428-0.151,0.791-0.452,1.088
			s-0.678,0.446-1.129,0.446c-0.301,0-0.589-0.066-0.862-0.197c-0.274-0.13-0.5-0.312-0.68-0.542L31.38,53.7
			c0.343,0.387,0.707,0.581,1.091,0.581c0.269,0,0.498-0.086,0.688-0.259c0.189-0.173,0.284-0.375,0.284-0.609
			c0-0.192-0.063-0.364-0.188-0.514c-0.125-0.147-0.407-0.332-0.846-0.556c-0.471-0.244-0.792-0.483-0.961-0.72
			c-0.17-0.236-0.255-0.507-0.255-0.811c0-0.397,0.136-0.725,0.406-0.988c0.271-0.263,0.613-0.394,1.026-0.394
			C33.105,49.431,33.589,49.667,34.076,50.136z"/>
		<path fill="#010202" d="M35.266,47.551h0.671v2.95c0.271-0.358,0.571-0.626,0.897-0.804c0.326-0.177,0.679-0.266,1.06-0.266
			c0.39,0,0.736,0.1,1.039,0.297c0.302,0.198,0.525,0.464,0.669,0.799s0.216,0.857,0.216,1.571v2.686h-0.671v-2.489
			c0-0.601-0.024-1.002-0.072-1.204c-0.083-0.345-0.234-0.605-0.453-0.779s-0.506-0.262-0.861-0.262
			c-0.406,0-0.77,0.135-1.091,0.403s-0.533,0.601-0.635,0.998c-0.064,0.255-0.096,0.729-0.096,1.42v1.914h-0.671V47.551z"/>
		<path fill="#010202" d="M43.727,49.431c0.804,0,1.47,0.292,1.999,0.873c0.48,0.531,0.721,1.16,0.721,1.885
			c0,0.729-0.254,1.366-0.762,1.911c-0.508,0.546-1.161,0.818-1.958,0.818c-0.801,0-1.455-0.272-1.963-0.818
			c-0.508-0.545-0.762-1.182-0.762-1.911c0-0.723,0.241-1.349,0.721-1.88C42.251,49.724,42.919,49.431,43.727,49.431z
			 M43.724,50.088c-0.558,0-1.039,0.206-1.439,0.619c-0.402,0.413-0.602,0.912-0.602,1.497c0,0.378,0.091,0.729,0.275,1.055
			c0.183,0.326,0.43,0.578,0.741,0.755c0.312,0.178,0.653,0.267,1.025,0.267s0.714-0.089,1.025-0.267
			c0.311-0.177,0.558-0.429,0.741-0.755c0.183-0.326,0.275-0.677,0.275-1.055c0-0.585-0.202-1.084-0.604-1.497
			C44.758,50.294,44.279,50.088,43.724,50.088z"/>
		<path fill="#010202" d="M47.698,49.565h0.672v0.959c0.265-0.365,0.57-0.638,0.915-0.82c0.346-0.182,0.73-0.273,1.155-0.273
			c0.741,0,1.375,0.268,1.903,0.801c0.527,0.534,0.791,1.176,0.791,1.928c0,0.767-0.261,1.418-0.784,1.955
			c-0.522,0.536-1.152,0.803-1.89,0.803c-0.415,0-0.797-0.086-1.146-0.259c-0.348-0.173-0.662-0.431-0.943-0.772v2.806h-0.672
			V49.565z M50.384,50.079c-0.58,0-1.069,0.203-1.466,0.608c-0.397,0.406-0.596,0.911-0.596,1.514c0,0.397,0.089,0.752,0.266,1.068
			c0.177,0.317,0.431,0.567,0.761,0.752c0.33,0.186,0.679,0.278,1.045,0.278c0.36,0,0.699-0.094,1.017-0.281
			c0.317-0.186,0.57-0.447,0.758-0.783c0.188-0.336,0.282-0.686,0.282-1.054c0-0.371-0.093-0.722-0.28-1.054
			s-0.438-0.59-0.754-0.773C51.102,50.171,50.757,50.079,50.384,50.079z"/>
	</g>
</g>
</svg>
