<?xml version="1.0" encoding="utf-8"?>
<!-- Generator: Adobe Illustrator 16.0.0, SVG Export Plug-In . SVG Version: 6.00 Build 0)  -->
<!DOCTYPE svg PUBLIC "-//W3C//DTD SVG 1.1//EN" "http://www.w3.org/Graphics/SVG/1.1/DTD/svg11.dtd">
<svg version="1.1" id="Calque_1" xmlns="http://www.w3.org/2000/svg" xmlns:xlink="http://www.w3.org/1999/xlink" x="0px" y="0px"
	 width="56.693px" height="56.693px" viewBox="0 0 56.693 56.693" enable-background="new 0 0 56.693 56.693" xml:space="preserve">
<g>
	<g>
		<path fill="#010202" d="M20.607,55.06l0.523-0.314c0.369,0.678,0.794,1.018,1.277,1.018c0.207,0,0.4-0.048,0.582-0.145
			c0.182-0.096,0.32-0.226,0.415-0.387s0.143-0.333,0.143-0.515c0-0.207-0.07-0.409-0.209-0.607
			c-0.193-0.274-0.544-0.603-1.055-0.988c-0.514-0.388-0.833-0.668-0.959-0.842c-0.218-0.291-0.327-0.604-0.327-0.942
			c0-0.268,0.064-0.512,0.192-0.733c0.128-0.22,0.31-0.394,0.542-0.521c0.233-0.127,0.486-0.191,0.76-0.191
			c0.291,0,0.562,0.072,0.815,0.216c0.252,0.144,0.52,0.408,0.802,0.793l-0.502,0.381c-0.232-0.308-0.429-0.509-0.593-0.607
			c-0.163-0.098-0.341-0.146-0.534-0.146c-0.249,0-0.452,0.075-0.609,0.226s-0.237,0.336-0.237,0.557
			c0,0.134,0.028,0.264,0.084,0.389c0.056,0.126,0.158,0.262,0.306,0.411c0.081,0.078,0.346,0.283,0.795,0.615
			c0.534,0.394,0.899,0.744,1.097,1.051c0.199,0.307,0.297,0.616,0.297,0.925c0,0.447-0.169,0.835-0.509,1.165
			c-0.339,0.329-0.751,0.494-1.237,0.494c-0.374,0-0.713-0.1-1.018-0.3C21.145,55.863,20.865,55.529,20.607,55.06z"/>
		<path fill="#010202" d="M30.678,55.538l0.914,1.155h-0.758l-0.627-0.796c-0.503,0.311-1.07,0.466-1.7,0.466
			c-0.912,0-1.682-0.313-2.31-0.938c-0.627-0.625-0.941-1.382-0.941-2.27c0-0.592,0.143-1.141,0.431-1.648
			c0.288-0.506,0.679-0.902,1.174-1.187c0.495-0.285,1.038-0.427,1.63-0.427c0.912,0,1.682,0.312,2.308,0.936
			c0.627,0.624,0.94,1.391,0.94,2.301c0,0.475-0.086,0.909-0.258,1.302C31.309,54.825,31.042,55.194,30.678,55.538z M30.296,55.056
			c0.537-0.522,0.805-1.167,0.805-1.932c0-0.489-0.114-0.932-0.341-1.327s-0.548-0.711-0.961-0.949s-0.849-0.356-1.307-0.356
			c-0.46,0-0.895,0.118-1.302,0.354c-0.408,0.236-0.726,0.556-0.955,0.959c-0.229,0.403-0.344,0.853-0.344,1.347
			c0,0.732,0.253,1.351,0.758,1.854c0.505,0.504,1.115,0.756,1.83,0.756c0.489,0,0.936-0.119,1.341-0.356l-1.372-1.742h0.747
			L30.296,55.056z"/>
		<path fill="#010202" d="M32.986,50.047h0.616v5.565h2.37v0.595h-2.986V50.047z"/>
	</g>
	<g>
		<path fill="#1D71B8" d="M49.5,5.785C49.17,2.547,46.414,0,43.092,0H15.745h-2.142C10.059,0,7.16,2.898,7.16,6.441v2.143v27.386
			c0,3.543,2.899,6.441,6.442,6.441h27.346h2.143c3.543,0,6.441-2.898,6.441-6.441v-2.143V6.441
			C49.533,6.221,49.521,6.001,49.5,5.785z"/>
		<g>
			<ellipse fill="#FFFFFF" cx="28.346" cy="11.813" rx="10.126" ry="3.284"/>
			<path fill="#FFFFFF" d="M28.347,16.472c-5.592,0-10.127-1.471-10.127-3.284v4.887c0,1.813,4.535,3.285,10.127,3.285
				s10.126-1.471,10.126-3.285v-4.887C38.473,15.001,33.939,16.472,28.347,16.472z"/>
			<path fill="#FFFFFF" d="M28.347,22.734c-5.592,0-10.127-1.471-10.127-3.285v4.889c0,1.813,4.535,3.284,10.127,3.284
				s10.126-1.472,10.126-3.284v-4.889C38.473,21.263,33.939,22.734,28.347,22.734z"/>
			<path fill="#FFFFFF" d="M28.347,28.996c-5.592,0-10.127-1.471-10.127-3.284V30.6c0,1.813,4.535,3.284,10.127,3.284
				s10.126-1.471,10.126-3.284v-4.888C38.473,27.525,33.939,28.996,28.347,28.996z"/>
		</g>
	</g>
</g>
</svg>
