<?xml version="1.0" encoding="utf-8"?>
<!-- Generator: Adobe Illustrator 16.0.0, SVG Export Plug-In . SVG Version: 6.00 Build 0)  -->
<!DOCTYPE svg PUBLIC "-//W3C//DTD SVG 1.1//EN" "http://www.w3.org/Graphics/SVG/1.1/DTD/svg11.dtd">
<svg version="1.1" id="Build" xmlns="http://www.w3.org/2000/svg" xmlns:xlink="http://www.w3.org/1999/xlink" x="0px" y="0px"
	 width="512px" height="512px" viewBox="0 0 512 512" enable-background="new 0 0 512 512" xml:space="preserve">
<g id="Build_1_">
	<g id="XMLID_1_">
		<g>
			<path fill="#4E5A62" d="M445.37,265.9v1.199v0.9c-0.3,1.51-1.8,3-3.3,2.71c-1.801,0-3-1.5-3-3.3v-0.61v-1.2V264.4l0.3-1.2V262
				v-0.6c0-1.801,1.5-3,3-3c1.8,0,3.3,1.5,3,3.3v0.6v1.2v1.2V265.9z"/>
			<path fill="#4E5A62" d="M445.071,242.49c0.3,1.8-1.2,3.3-2.7,3.3c-1.8,0.31-3.3-0.89-3.3-2.69l-0.301-1.2v-1.21v-0.9l-0.3-1.2
				v-1.2v-0.3c-0.3-1.8,0.9-3.3,2.7-3.6c1.8,0,3.3,1.2,3.3,2.7v0.6l0.3,1.2v1.2l0.301,1.2v1.21V242.49z"/>
			<path fill="#4E5A62" d="M443.27,286.61l-0.3,0.6v1.21l-0.3,1.2l-0.3,1.189l-0.3,1.2v0.91c-0.301,1.8-2.101,2.7-3.601,2.39
				c-1.8-0.29-3-1.8-2.7-3.6l0.301-0.9l0.3-1.189v-1.21l0.3-0.9l0.3-1.2v-0.6c0.3-1.8,1.8-2.7,3.601-2.7
				C442.37,283.31,443.27,285.11,443.27,286.61z"/>
			<path fill="#4E5A62" d="M441.77,217.59c0.301,1.79-0.899,3.3-2.399,3.6c-1.8,0.3-3.3-0.6-3.9-2.4v-0.91l-0.3-0.89l-0.3-1.21
				l-0.3-1.19v-0.91l-0.301-0.9c-0.3-1.5,0.601-3.3,2.4-3.6c1.5-0.3,3.3,0.6,3.6,2.1l0.301,0.9l0.3,1.2v0.91l0.3,1.19l0.3,1.21
				L441.77,217.59z"/>
			<path fill="#ED5758" d="M256,0c141.38,0,256,114.62,256,256S397.38,512,256,512S0,397.38,0,256S114.62,0,256,0z M445.37,261.7
				c0.3-1.8-1.2-3.3-3-3.3c-1.5,0-3,1.199-3,3v0.6v1.2l-0.3,1.2v1.199v1.2v0.61c0,1.8,1.199,3.3,3,3.3c1.5,0.29,3-1.2,3.3-2.71v-0.9
				V265.9v-1.2v-1.2v-1.2V261.7z M442.37,245.79c1.5,0,3-1.5,2.7-3.3v-0.89v-1.21l-0.301-1.2v-1.2l-0.3-1.2v-0.6
				c0-1.5-1.5-2.7-3.3-2.7c-1.8,0.3-3,1.8-2.7,3.6v0.3v1.2l0.3,1.2v0.9v1.21l0.301,1.2C439.071,244.9,440.571,246.1,442.37,245.79z
				 M442.97,287.21l0.3-0.6c0-1.5-0.899-3.301-2.699-3.601c-1.801,0-3.301,0.9-3.601,2.7v0.6l-0.3,1.2l-0.3,0.9v1.21l-0.3,1.189
				l-0.301,0.9c-0.3,1.8,0.9,3.31,2.7,3.6c1.5,0.311,3.3-0.59,3.601-2.39v-0.91l0.3-1.2l0.3-1.189l0.3-1.2V287.21z M439.37,221.19
				c1.5-0.3,2.7-1.81,2.399-3.6l-0.3-0.9l-0.3-1.21l-0.3-1.19v-0.91l-0.3-1.2l-0.301-0.9c-0.3-1.5-2.1-2.4-3.6-2.1
				c-1.8,0.3-2.7,2.1-2.4,3.6l0.301,0.9v0.91l0.3,1.19l0.3,1.21l0.3,0.89v0.91C436.071,220.59,437.571,221.49,439.37,221.19z
				 M437.571,311.22c0.3-1.5-0.601-3.3-2.101-3.899c-0.229-0.04-0.47-0.061-0.689-0.061c-1.55,0-2.95,0.851-3.21,2.16l-0.301,1.2
				l-0.6,1.2l-0.3,0.899l-0.3,1.2l-0.301,0.9l-0.3,0.6c-0.3,1.5,0.601,3.3,2.101,3.91c1.5,0.59,3.3-0.3,3.899-2.11l0.3-0.3
				l0.301-1.2l0.3-1.2l0.3-0.899l0.3-1.2l0.3-1.2H437.571z M433.071,197.18c1.5-0.6,2.399-2.4,1.8-3.9v-0.3l-0.3-0.9l-0.601-1.2
				l-0.3-1.21l-0.3-0.9l-0.601-1.2v-0.3c-0.6-1.5-2.399-2.4-4.199-1.8c-1.5,0.61-2.101,2.41-1.5,4.2v0.31l0.3,0.89l0.6,1.21l0.3,0.9
				l0.301,1.2l0.3,0.9l0.3,0.3C429.76,196.88,431.571,197.78,433.071,197.18z M428.571,334.93c0.6-1.5,0-3.3-1.5-4.199
				c-1.801-0.601-3.601,0-4.2,1.5v0.3l-0.61,0.899l-0.59,1.2l-0.31,0.9l-0.591,0.899l-0.31,1.2l-0.3,0.3c-0.601,1.5,0,3.301,1.5,4.2
				c1.5,0.601,3.31,0,4.21-1.5v-0.3l0.6-0.9l0.3-1.199l0.601-0.9l0.6-1.2l0.3-0.899L428.571,334.93z M423.77,174.37
				c1.5-0.9,2.101-2.7,1.2-4.2v-0.3l-0.609-1.21l-0.601-0.89l-0.6-0.9l-0.601-1.2l-0.3-0.91l-0.3-0.3c-0.9-1.5-2.7-2.1-4.2-1.2
				c-1.5,0.9-2.1,2.71-1.2,4.2l0.301,0.31l0.3,0.9l0.6,0.89l0.601,1.21l0.6,0.9l0.3,0.9l0.3,0.3
				C420.16,174.37,421.97,174.97,423.77,174.37z M416.56,357.14c0.91-1.5,0.301-3.3-1.189-4.199c-0.57-0.341-1.17-0.511-1.76-0.511
				c-0.971,0-1.891,0.471-2.45,1.41l-0.601,1.2l-0.6,0.9l-0.6,0.899l-0.601,0.9l-0.6,0.899l-0.3,0.301
				c-0.9,1.5-0.601,3.3,0.899,4.199c1.2,1.2,3.3,0.601,4.2-0.6l0.3-0.6l0.601-0.9l0.6-0.9l0.6-0.899l0.601-0.9l0.609-0.899
				L416.56,357.14z M411.16,152.76c1.5-0.9,1.8-3,0.899-4.5l-0.899-0.91l-0.601-0.89l-0.6-0.9l-0.6-1.21l-0.601-0.89l-0.3-0.3
				c-1.2-1.2-3-1.5-4.5-0.6c-1.2,1.2-1.5,3-0.61,4.5l0.311,0.3l0.6,0.9l0.601,0.9l0.6,0.9l0.6,0.9l0.9,0.9
				C407.861,153.36,409.96,153.66,411.16,152.76z M401.56,377.55c1.2-1.2,0.9-3.3-0.31-4.5c-1.49-0.899-3.3-0.899-4.5,0.601
				l-0.6,0.899l-0.9,0.601l-0.6,0.899l-0.601,0.9l-0.899,0.899l-0.301,0.301c-1.199,1.199-1.199,3.3,0.301,4.5
				c1.199,1.199,3.31,0.899,4.199-0.301l0.601-0.6l0.609-0.9l0.9-0.6l0.59-0.9l0.91-0.899L401.56,377.55z M398.85,343.03
				c0.301-0.59,0.301-1.8-0.6-2.4L283.611,262.9l77.43-77.13c0-0.3,0.3-0.3,0.3-0.3l16.51-31.81c0.301-0.9,0.301-1.5-0.3-2.1
				c-0.609-0.6-1.2-0.6-1.81-0.3l-7.5,3.9l-23.71,12c-0.3,0-0.3,0.3-0.3,0.3l-81.33,81.34l-56.42-38.41l26.71-39.32
				c3.3-5.1,2.1-12.01-3-15.31l-34.21-23.41c-5.1-3.3-12-2.1-15.31,3.01l-26.71,39.31l-10.2-6.9c-0.91-0.3-1.8-0.3-2.4,0.6
				l-14.41,21c-0.3,0.91-0.3,1.81,0.6,2.4l10.2,6.91l-22.8,33.61c-3.61,4.8-2.1,11.71,2.7,15.01l34.51,23.41
				c5.1,3.6,11.71,2.1,15.31-2.71l22.81-33.61l51.91,35.12l-90.63,90.63c-0.3,0.301-0.6,0.301-0.6,0.601c-0.3,0-0.3,0.3-0.6,0.6
				c-3.9,4.8-3.3,11.11,0.6,15.91c1.8,1.8,3.9,3,6.31,3.9c4.2,1.199,8.7-0.301,11.7-3.301l93.94-93.939l119.14,80.729
				c0.9,0.601,1.8,0.301,2.4-0.3L398.85,343.03z M396.151,132.95c1.199-1.2,1.199-3,0.31-4.5l-0.9-0.6l-0.609-0.9l-0.9-0.9
				l-0.899-0.9l-0.601-0.6l-0.6-0.6c-1.2-1.2-3-1.2-4.5,0c-1.2,1.2-1.2,3.3,0,4.5l0.6,0.3l0.601,0.9l0.899,0.6l0.601,0.9l0.899,0.9
				l0.601,0.6C392.85,134.15,394.95,134.15,396.151,132.95z M384.151,395.85c1.199-1.199,1.199-3.3,0.3-4.5
				c-1.2-1.199-3.3-1.199-4.5,0l-0.601,0.301l-0.899,0.899l-0.9,0.601l-0.6,0.899l-0.9,0.601l-0.6,0.6c-1.5,1.21-1.5,3-0.3,4.51
				c0.899,1.2,3,1.49,4.199,0.29l0.601-0.59l0.899-0.9l0.9-0.609l0.9-0.9l0.899-0.59L384.151,395.85z M378.45,115.55
				c1.2-1.51,0.899-3.3-0.3-4.51l-0.601-0.6l-0.899-0.6l-0.91-0.9l-0.891-0.6l-0.899-0.6l-0.601-0.6c-1.51-1.2-3.3-0.9-4.51,0.6
				c-0.89,1.2-0.89,3.3,0.601,4.2l0.609,0.6l0.9,0.6l0.89,0.9l0.9,0.6l0.899,0.6l0.61,0.6
				C375.45,117.05,377.55,116.75,378.45,115.55z M364.34,411.46c1.5-0.9,1.8-2.7,0.9-4.2c-0.9-1.5-3-1.8-4.5-0.6l-0.3,0.3l-0.9,0.6
				l-0.9,0.601l-0.899,0.6l-0.9,0.601l-0.899,0.6c-1.5,0.9-2.101,3-0.9,4.2c0.9,1.5,2.7,1.8,4.2,0.899l0.899-0.6l0.9-0.6l0.9-0.601
				l0.899-0.6l1.2-0.601L364.34,411.46z M358.64,100.54c0.9-1.5,0.601-3.6-0.899-4.5l-0.601-0.3l-0.899-0.6l-0.9-0.6l-0.899-0.6
				l-1.2-0.6l-0.9-0.6c-1.5-0.9-3.3-0.3-4.21,1.2c-0.899,1.5-0.29,3.3,1.21,4.2l0.9,0.6l0.899,0.6l0.9,0.6l0.9,0.6l0.899,0.6
				l0.601,0.3C355.941,102.34,357.74,101.74,358.64,100.54z M342.731,424.66c1.5-0.9,2.1-2.7,1.5-4.2c-0.9-1.5-2.7-2.1-4.2-1.2
				h-0.601l-0.899,0.601l-0.9,0.6l-1.2,0.31l-0.899,0.591l-0.9,0.609c-1.8,0.59-2.399,2.391-1.5,3.9c0.601,1.8,2.4,2.399,3.9,1.5
				l1.2-0.3l0.899-0.601l1.2-0.6l0.9-0.311l1.199-0.6L342.731,424.66z M337.031,88.23c0.899-1.8,0.3-3.6-1.5-4.2l-0.3-0.3l-1.2-0.6
				l-0.9-0.3l-1.2-0.6l-0.899-0.3l-1.2-0.6c-1.5-0.6-3.3,0.3-3.9,1.8c-0.899,1.5,0,3.3,1.5,3.9l0.9,0.6l1.2,0.31l0.899,0.6l1.2,0.29
				l0.9,0.61l0.6,0.29C334.63,90.33,336.43,89.73,337.031,88.23z M319.62,434.57c1.5-0.301,2.399-2.101,1.81-3.9
				c-0.609-1.5-2.41-2.4-3.91-1.8l-0.6,0.3l-0.9,0.3l-1.199,0.29l-1.2,0.311l-0.9,0.3l-0.899,0.3c-1.801,0.6-2.7,2.4-2.101,4.2
				c0.601,1.5,2.4,2.399,3.9,1.8l0.899-0.3l1.2-0.3l1.2-0.301l0.9-0.6l1.199-0.3L319.62,434.57z M314.22,78.93
				c0.3-1.8-0.6-3.6-2.1-3.9l-0.9-0.3l-1.2-0.3l-0.899-0.3l-1.2-0.3l-1.2-0.3l-0.6-0.3c-1.8-0.6-3.601,0.6-3.9,2.1
				c-0.6,1.8,0.601,3.3,2.101,3.9l0.899,0.3l0.9,0.3l1.2,0.3l1.199,0.3l0.9,0.3h0.9C311.821,81.33,313.62,80.43,314.22,78.93z
				 M297.41,446.57v-13.5c0-0.9-0.601-1.5-1.49-1.5h-6.31c0-0.601-0.301-1.2-0.301-1.5l5.4-3.311c0.6-0.29,0.9-1.2,0.6-1.79
				l-6.899-11.71c-0.3-0.899-1.2-0.899-1.8-0.6l-5.7,3.3c-0.601-0.3-0.9-0.6-1.2-0.9l3.3-6c0.3-0.6,0.3-1.5-0.6-1.8l-11.7-6.899
				c-0.61-0.311-1.5,0-1.81,0.6l-3.301,6c-0.6-0.3-0.899-0.3-1.5-0.3v-6.9c0-0.91-0.6-1.51-1.5-1.51h-13.2c-0.9,0-1.5,0.6-1.5,1.51
				v6.9c-1.21,0.3-2.7,0.6-3.9,0.899l-3.61-5.399c-0.6-0.601-1.5-0.91-2.1-0.3l-11.1,7.5c-0.6,0.3-0.9,1.199-0.3,1.8l3.6,5.7
				c-0.3,0.3-0.6,0.6-0.9,0.899l-6-2.7c-0.6-0.3-1.51,0-1.8,0.601l-6.01,12.31c-0.3,0.601,0,1.5,0.61,1.8l3.9,1.801h-4.21
				c-0.9,0-1.49,0.6-1.49,1.5v13.5c0,0.609,0.6,1.21,1.49,1.21h5.71c0.29,0.6,0.29,1.2,0.6,1.8l-5.1,3c-0.6,0.3-0.9,1.2-0.6,1.8
				l6.9,11.7c0.3,0.91,1.2,0.91,1.8,0.6l4.8-2.699c0.6,0.6,0.9,0.899,1.5,1.5l-2.7,4.81c-0.3,0.59-0.3,1.49,0.6,1.8l11.71,6.9
				c0.6,0.3,1.5,0,1.8-0.601l2.7-4.51c0.59,0,1.2,0.311,2.1,0.61v5.1c0,0.9,0.6,1.5,1.5,1.5h13.2c0.9,0,1.5-0.6,1.5-1.5v-5.1
				c1.5-0.61,3.311-0.9,4.511-1.5l3,4.2c0.6,0.899,1.489,0.899,2.1,0.6l11.1-7.8c0.601-0.311,0.9-1.21,0.301-1.8l-3-4.811
				c0.6-0.3,0.899-0.899,1.199-1.5l5.101,2.4c0.6,0.3,1.5,0,1.8-0.601l6.01-12c0.29-0.91,0-1.8-0.609-2.1l-3.891-1.811h4.2
				C296.81,447.77,297.41,447.18,297.41,446.57z M289.91,69.33v-9c0-0.91-0.601-1.51-1.49-1.51h-4.81l-0.9-2.4l4.2-2.7
				c0.899-0.3,0.899-1.2,0.6-1.8l-4.5-7.8c-0.3-0.6-1.2-0.9-1.8-0.6l-4.5,2.7l-2.1-1.8l2.699-4.5c0.301-0.9,0.301-1.8-0.6-2.11
				l-7.81-4.5c-0.601-0.3-1.49,0-1.801,0.6l-2.699,4.5l-2.4-0.6v-5.4c0-0.6-0.6-1.5-1.5-1.5h-9c-0.9,0-1.5,0.9-1.5,1.5v5.4
				l-4.21,1.51l-3-4.51c-0.6-0.6-1.49-0.9-2.1-0.3l-7.5,5.11c-0.6,0.3-0.9,1.2-0.3,1.8l3,4.2l-1.8,2.1l-4.8-2.4
				c-0.6-0.3-1.5,0-1.8,0.9l-3.9,8.1c-0.3,0.6,0,1.5,0.6,1.8l4.5,2.1l-0.3,0.6h-4.8c-0.9,0-1.51,0.6-1.51,1.51v9
				c0,0.9,0.61,1.5,1.51,1.5h4.5l0.9,2.7l-3.9,2.4c-0.9,0.3-0.9,1.2-0.6,1.8l4.5,8.1c0.3,0.6,1.2,0.91,1.8,0.3l3.6-2.1l5.11,6.61
				c0,0.3,0,0.6,0.29,0.9v2.1c-1.19,0.9-2.1,2.1-2.1,3.3c0,1.5,0.91,2.7,2.1,3.3v2.1c-1.19,0.6-2.1,2.1-2.1,3.3
				c0,1.5,0.91,2.7,2.1,3.3v1.5c-1.19,0.6-2.1,2.1-2.1,3.31c0,1.8,1.21,3,2.7,3.6c1.2,3,3.61,5.4,6.91,5.4h17.101
				c3.3,0,5.71-2.4,6.6-5.4c1.81-0.3,3.31-1.8,3.31-3.6c0-1.5-0.899-3.01-2.399-3.61v-1.2c1.5-0.3,2.399-1.8,2.399-3.3
				s-0.899-3-2.399-3.6v-1.8c1.2-0.3,2.399-1.8,2.399-3.3s-1.199-3-2.399-3.3v-2.1c0-0.3,0-0.3,0-0.3l6.899-8.71l3.9,1.8
				c0.6,0.3,1.5,0,1.8-0.6l3.91-8.1c0.29-0.9,0-1.8-0.61-2.1l-4.199-1.8l0.3-0.9h4.51C289.31,70.83,289.91,70.23,289.91,69.33z
				 M210.38,78.33c1.8-0.3,2.7-2.1,2.4-3.6c-0.6-1.8-2.1-2.7-3.9-2.4l-0.3,0.3l-1.2,0.3l-0.9,0.3l-1.2,0.3l-1.2,0.3l-1.2,0.3
				c-1.8,0.3-2.7,2.1-2.1,3.9c0.52,1.31,1.73,2.16,3.22,2.16c0.22,0,0.45-0.02,0.68-0.06l1.2-0.3l0.9-0.3l1.2-0.3l1.2-0.3l0.9-0.3
				L210.38,78.33z M199.58,433.97c0.59-1.8-0.3-3.6-2.1-4.2h-0.3l-0.9-0.3l-1.2-0.3l-0.9-0.6l-1.21-0.301l-0.89-0.3h-0.31
				c-1.49-0.6-3.3,0-3.89,1.8c-0.61,1.5,0,3.301,1.79,3.9l1.2,0.6l1.2,0.301l0.9,0.3l1.2,0.3l1.21,0.6h0.29
				C197.18,436.37,198.98,435.47,199.58,433.97z M187.27,86.13c1.5-0.6,2.4-2.4,1.8-4.2c-0.6-1.5-2.4-2.4-4.2-1.5h-0.6l-0.9,0.6
				l-1.2,0.3l-0.9,0.6l-1.2,0.3l-0.9,0.6c-1.5,0.6-2.4,2.4-1.5,3.9c0.6,1.81,2.4,2.4,3.9,1.81l0.9-0.6l1.2-0.31l0.9-0.6l1.2-0.3
				l0.9-0.6H187.27z M176.47,424.67c0.6-1.5,0-3.3-1.5-4.2h-0.3l-1.2-0.609l-0.9-0.591l-0.9-0.31l-1.2-0.59l-0.91-0.61
				c-1.49-0.899-3.29-0.3-4.2,1.2c-0.9,1.5-0.3,3.6,1.2,4.2l1.21,0.609l0.9,0.601l1.2,0.6l0.9,0.601l0.9,0.3l0.6,0.3
				C173.77,427.07,175.57,426.17,176.47,424.67z M165.36,96.64c1.51-0.9,2.1-2.7,1.2-4.2c-0.89-1.5-2.69-2.11-4.2-1.2l-0.6,0.3
				l-1.2,0.6l-0.9,0.6l-0.9,0.6l-0.9,0.6l-1.2,0.6c-1.2,0.9-1.8,2.7-0.9,4.2c0.9,1.5,2.7,2.1,4.2,1.2l0.9-0.6l0.9-0.6l1.2-0.6
				l0.91-0.6l0.89-0.6L165.36,96.64z M154.56,412.66c1.2-1.5,0.6-3.3-0.6-4.2l-0.3-0.3l-1.2-0.601l-0.9-0.6l-0.9-0.6l-0.9-0.9
				l-0.9-0.6c-1.51-0.9-3.3-0.601-4.51,0.6c-0.89,1.5-0.59,3.3,0.9,4.5l0.91,0.6l1.2,0.9l0.9,0.6l0.9,0.601l0.9,0.6l0.3,0.3
				C151.86,414.46,153.66,414.16,154.56,412.66z M144.95,110.14c1.51-0.9,1.51-3,0.61-4.2c-1.21-1.5-3-1.8-4.51-0.6l-0.3,0.3
				l-0.9,0.6l-0.9,0.6l-0.9,0.9l-0.9,0.6l-0.9,0.6v0.3c-1.5,0.9-1.5,3.01-0.6,4.2c0.68,0.85,1.64,1.22,2.56,1.22
				c0.72,0,1.42-0.22,1.94-0.62l0.9-0.89l0.91-0.61l0.89-0.6l0.91-0.9l0.9-0.6L144.95,110.14z M134.75,397.66
				c1.2-1.2,1.2-3.01-0.3-4.21v-0.3l-0.9-0.601l-0.9-0.899l-0.6-0.601l-0.9-0.6l-0.9-0.9l-0.3-0.3c-1.2-1.2-3.3-1.2-4.2,0
				c-1.2,1.5-1.2,3.3,0,4.5l0.3,0.31l0.9,0.9l0.9,0.6l0.6,0.9l0.9,0.6l0.9,0.9h0.3C131.75,399.16,133.55,399.16,134.75,397.66z
				 M126.65,126.35c1.2-1.2,1.2-3.3,0-4.5c-1.2-1.2-3.3-1.2-4.5,0l-0.3,0.3l-0.6,0.6l-0.9,0.9l-0.6,0.9l-0.91,0.6l-0.9,0.9
				l-0.29,0.3c-1.21,1.2-0.91,3.3,0.29,4.5c1.21,1.2,3.31,1.2,4.51-0.3v-0.3l0.9-0.6l0.6-0.9l0.9-0.9l0.9-0.6l0.6-0.9H126.65z
				 M117.05,380.55c1.2-1.2,1.49-3.3,0.3-4.51l-0.6-0.89l-0.9-0.601l-0.6-0.91l-0.61-0.89l-0.89-0.9l-0.31-0.6
				c-1.2-1.2-3-1.5-4.49-0.3c-1.21,0.89-1.51,3-0.31,4.2l0.3,0.6l0.9,0.9l0.6,0.899l0.9,0.9l0.6,0.899l0.6,0.601
				C113.75,381.45,115.85,381.45,117.05,380.55z M110.44,144.66c0.9-1.51,0.9-3.31-0.6-4.51c-1.5-0.9-3.3-0.59-4.5,0.6l-0.6,0.91
				l-0.6,0.9l-0.6,0.9l-0.9,0.89l-0.6,1.21l-0.3,0.3c-0.9,1.49-0.6,3.3,0.6,4.5c1.5,0.9,3.6,0.6,4.5-0.9l0.3-0.3l0.6-0.9l0.6-0.91
				l0.9-0.89l0.6-0.9L110.44,144.66z M101.74,360.74c1.5-0.9,1.8-2.7,0.9-4.2l-0.6-0.6l-0.6-0.9l-0.6-1.2l-0.6-0.899l-0.3-0.9
				l-0.6-0.6c-0.9-1.5-2.7-2.11-4.2-1.2c-1.5,0.899-2.1,3-1.2,4.5l0.6,0.6l0.6,0.9l0.6,1.2l0.6,0.899l0.6,0.9l0.6,0.6
				C98.44,361.34,100.24,361.64,101.74,360.74z M96.94,165.06c0.9-1.5,0.3-3.6-1.2-4.5c-1.51-0.6-3.31-0.3-4.2,1.21l-0.6,0.89
				l-0.61,1.21l-0.3,0.89l-0.6,0.91l-0.59,1.2l-0.3,0.59c-0.91,1.51-0.31,3.31,1.19,4.21c1.51,0.6,3.31,0.3,4.21-1.5l0.29-0.61
				l0.61-0.9l0.6-0.89l0.3-0.9l0.6-1.2L96.94,165.06z M89.13,339.43c1.51-0.899,2.11-2.699,1.51-4.199l-0.31-0.601l-0.6-1.2
				l-0.3-0.899l-0.59-0.9l-0.3-1.2l-0.61-0.6c-0.6-1.8-2.4-2.4-3.9-1.8c-1.5,0.899-2.4,2.7-1.8,4.2l0.6,0.899l0.3,0.9l0.6,1.2
				l0.3,0.899l0.61,1.2l0.29,0.6C85.83,339.43,87.63,340.03,89.13,339.43z M86.13,186.97c0.61-1.8,0-3.6-1.8-4.2
				c-1.5-0.6-3.3,0.3-3.9,1.8l-0.3,0.9l-0.6,1.2l-0.3,0.9l-0.6,1.2l-0.3,0.9l-0.3,0.91c-0.6,1.5,0.3,3.29,2.1,3.9
				c1.5,0.6,3.3-0.3,3.9-1.8l0.3-0.6l0.31-1.21l0.29-0.89l0.6-1.21l0.3-0.89L86.13,186.97z M79.53,316.62c1.8-0.59,2.4-2.4,2.1-3.9
				l-0.3-0.899l-0.3-1.2l-0.3-1.2l-0.6-0.9l-0.3-1.199v-0.601c-0.6-1.5-2.4-2.7-3.9-2.1c-1.8,0.6-2.7,2.1-2.1,3.899l0.3,0.601
				l0.3,1.2l0.3,0.899l0.3,1.2l0.3,1.2l0.3,0.899C76.23,316.03,78.03,316.92,79.53,316.62z M78.63,210.08c0.3-1.5-0.6-3.3-2.4-3.9
				c-1.5-0.3-3.3,0.6-3.9,2.4l-0.3,1.2l-0.3,1.2v1.21l-0.3,1.19l-0.3,0.91v0.3c-0.6,1.79,0.6,3.29,2.1,3.9c1.8,0.3,3.6-0.9,3.9-2.41
				v-0.3l0.3-1.19l0.3-0.91l0.3-1.19v-1.21l0.3-0.9L78.63,210.08z M73.23,292.61c1.5-0.301,2.7-2.101,2.4-3.601v-0.6l-0.3-0.9
				l-0.3-1.2v-1.199l-0.3-1.2v-0.9v-0.3c-0.3-1.5-1.8-2.7-3.6-2.4c-1.8,0.301-3,1.801-2.7,3.301v0.3l0.3,0.899v1.2l0.3,1.2l0.3,1.2
				v1.2l0.3,0.3C69.92,291.71,71.43,292.92,73.23,292.61z M73.83,234.99l0.3-0.9c0-1.8-1.2-3.3-3-3.3c-1.5-0.3-3.01,0.9-3.31,2.7
				h0.01v0.9l-0.3,1.2v1.2l-0.3,1.2v1.2v0.6c-0.3,1.51,1.2,3.01,2.7,3.31c1.8,0,3.3-1.2,3.3-3.01l0.3-0.3v-1.19v-1.21l0.3-1.2
				V234.99z M72.93,264.7v-0.3v-1.2l-0.3-1.2v-1.2v-1.2V258.4c0-1.5-1.5-3-3-3c-1.81,0-3.3,1.5-3,3.3v1.2v1.199v1.2v1.2v1.2v0.3
				c0,1.5,1.49,3,3.29,3C71.73,267.7,72.93,266.2,72.93,264.7z"/>
			<path fill="#4E5A62" d="M435.47,307.32c1.5,0.6,2.4,2.399,2.101,3.899h-0.301l-0.3,1.2l-0.3,1.2l-0.3,0.899l-0.3,1.2l-0.301,1.2
				l-0.3,0.3c-0.6,1.811-2.399,2.7-3.899,2.11c-1.5-0.61-2.4-2.41-2.101-3.91l0.3-0.6l0.301-0.9l0.3-1.2l0.3-0.899l0.6-1.2
				l0.301-1.2c0.26-1.31,1.66-2.16,3.21-2.16C435,307.26,435.24,307.28,435.47,307.32z"/>
			<path fill="#4E5A62" d="M434.87,193.28c0.6,1.5-0.3,3.3-1.8,3.9c-1.5,0.6-3.311-0.3-3.9-1.8l-0.3-0.3l-0.3-0.9l-0.301-1.2
				l-0.3-0.9l-0.6-1.21l-0.3-0.89v-0.31c-0.601-1.79,0-3.59,1.5-4.2c1.8-0.6,3.6,0.3,4.199,1.8v0.3l0.601,1.2l0.3,0.9l0.3,1.21
				l0.601,1.2l0.3,0.9V193.28z"/>
			<path fill="#4E5A62" d="M427.071,330.73c1.5,0.899,2.1,2.699,1.5,4.199l-0.301,0.301l-0.3,0.899l-0.6,1.2l-0.601,0.9l-0.3,1.199
				l-0.6,0.9v0.3c-0.9,1.5-2.71,2.101-4.21,1.5c-1.5-0.899-2.101-2.7-1.5-4.2l0.3-0.3l0.31-1.2l0.591-0.899l0.31-0.9l0.59-1.2
				l0.61-0.899v-0.3C423.47,330.73,425.27,330.13,427.071,330.73z"/>
			<path fill="#4E5A62" d="M424.97,170.17c0.9,1.5,0.3,3.3-1.2,4.2c-1.8,0.6-3.609,0-4.21-1.5l-0.3-0.3l-0.3-0.9l-0.6-0.9
				l-0.601-1.21l-0.6-0.89l-0.3-0.9l-0.301-0.31c-0.899-1.49-0.3-3.3,1.2-4.2c1.5-0.9,3.3-0.3,4.2,1.2l0.3,0.3l0.3,0.91l0.601,1.2
				l0.6,0.9l0.601,0.89l0.609,1.21V170.17z"/>
			<path fill="#4E5A62" d="M415.37,352.94c1.49,0.899,2.1,2.699,1.189,4.199l-0.29,0.301l-0.609,0.899l-0.601,0.9l-0.6,0.899
				l-0.6,0.9l-0.601,0.9l-0.3,0.6c-0.9,1.2-3,1.8-4.2,0.6c-1.5-0.899-1.8-2.699-0.899-4.199l0.3-0.301l0.6-0.899l0.601-0.9
				l0.6-0.899l0.6-0.9l0.601-1.2c0.56-0.939,1.479-1.41,2.45-1.41C414.2,352.43,414.8,352.6,415.37,352.94z"/>
			<path fill="#4E5A62" d="M412.06,148.26c0.9,1.5,0.601,3.6-0.899,4.5c-1.2,0.9-3.3,0.6-4.2-0.9l-0.9-0.9l-0.6-0.9l-0.6-0.9
				l-0.601-0.9l-0.6-0.9l-0.311-0.3c-0.89-1.5-0.59-3.3,0.61-4.5c1.5-0.9,3.3-0.6,4.5,0.6l0.3,0.3l0.601,0.89l0.6,1.21l0.6,0.9
				l0.601,0.89L412.06,148.26z"/>
			<path fill="#4E5A62" d="M401.25,373.05c1.21,1.2,1.51,3.3,0.31,4.5l-0.6,0.9l-0.91,0.899l-0.59,0.9l-0.9,0.6l-0.609,0.9
				l-0.601,0.6c-0.89,1.2-3,1.5-4.199,0.301c-1.5-1.2-1.5-3.301-0.301-4.5l0.301-0.301l0.899-0.899l0.601-0.9l0.6-0.899l0.9-0.601
				l0.6-0.899C397.95,372.15,399.76,372.15,401.25,373.05z"/>
			<polygon fill="#51A8B1" points="281.21,263.2 397.35,342.14 394.93,345.66 397.321,342.15 281.17,263.25 			"/>
			<polygon fill="#FED267" points="397.321,342.15 394.93,345.66 390.151,352.64 272.02,272.4 281.17,263.25 			"/>
			<path fill="#4E5A62" d="M396.46,128.45c0.89,1.5,0.89,3.3-0.31,4.5c-1.2,1.2-3.301,1.2-4.5-0.3l-0.601-0.6l-0.899-0.9l-0.601-0.9
				l-0.899-0.6l-0.601-0.9l-0.6-0.3c-1.2-1.2-1.2-3.3,0-4.5c1.5-1.2,3.3-1.2,4.5,0l0.6,0.6l0.601,0.6l0.899,0.9l0.9,0.9l0.609,0.9
				L396.46,128.45z"/>
			<polygon fill="#E5BD5D" points="390.151,352.64 382.95,363.14 262.85,281.57 272.02,272.4 			"/>
			<path fill="#4E5A62" d="M384.45,391.35c0.899,1.2,0.899,3.301-0.3,4.5l-0.601,0.61l-0.899,0.59l-0.9,0.9l-0.9,0.609l-0.899,0.9
				l-0.601,0.59c-1.199,1.2-3.3,0.91-4.199-0.29c-1.2-1.51-1.2-3.3,0.3-4.51l0.6-0.6l0.9-0.601l0.6-0.899l0.9-0.601l0.899-0.899
				l0.601-0.301C381.151,390.15,383.25,390.15,384.45,391.35z"/>
			<polygon fill="#2A2D40" points="382.97,363.28 263.93,282.41 382.95,363.14 390.151,352.64 394.93,345.66 			"/>
			<polygon fill="#FED267" points="382.95,363.14 263.93,282.41 262.781,281.63 262.85,281.57 			"/>
			<path fill="#4E5A62" d="M378.151,111.04c1.199,1.21,1.5,3,0.3,4.51c-0.9,1.2-3,1.5-4.2,0.29l-0.61-0.6l-0.899-0.6l-0.9-0.6
				l-0.89-0.9l-0.9-0.6l-0.609-0.6c-1.49-0.9-1.49-3-0.601-4.2c1.21-1.5,3-1.8,4.51-0.6l0.601,0.6l0.899,0.6l0.891,0.6l0.91,0.9
				l0.899,0.6L378.151,111.04z"/>
			<polygon fill="#4D4D4D" points="376.35,152.76 376.3,152.86 372.441,159.96 369.14,156.66 			"/>
			<polygon fill="#2A2D40" points="376.3,152.86 359.84,184.57 361.04,182.17 			"/>
			<polygon fill="#2A2D40" points="369.14,156.66 346.06,168.35 376.35,152.76 			"/>
			<path fill="#4E5A62" d="M365.24,407.26c0.899,1.5,0.6,3.3-0.9,4.2l-0.3,0.6l-1.2,0.601l-0.899,0.6l-0.9,0.601l-0.9,0.6
				l-0.899,0.6c-1.5,0.9-3.3,0.601-4.2-0.899c-1.2-1.2-0.6-3.3,0.9-4.2l0.899-0.6l0.9-0.601l0.899-0.6l0.9-0.601l0.9-0.6l0.3-0.3
				C362.24,405.46,364.34,405.76,365.24,407.26z"/>
			<polygon fill="#E6B800" points="354.99,179.22 359.84,184.57 281.09,263.19 275.09,259.12 			"/>
			<path fill="#E6B800" d="M359.64,176.32c0.32,0.04,0.5,0.17,0.5,0.45C360.14,176.53,359.95,176.38,359.64,176.32z"/>
			<path fill="#E6B800" d="M359.84,184.57l-4.85-5.35l2.72-2.72c0.78-0.13,1.47-0.25,1.91-0.18c0.01-0.01,0.01,0,0.02,0
				c0.311,0.06,0.5,0.21,0.5,0.45C359.84,178.27,359.84,181.27,359.84,184.57z"/>
			<path fill="#E6B800" d="M357.74,176.47c0.71-0.18,1.42-0.25,1.88-0.15c-0.44-0.07-1.13,0.05-1.91,0.18L357.74,176.47z"/>
			<path fill="#4E5A62" d="M357.74,96.04c1.5,0.9,1.8,3,0.899,4.5c-0.899,1.2-2.699,1.8-4.199,0.9l-0.601-0.3l-0.899-0.6l-0.9-0.6
				l-0.9-0.6l-0.899-0.6l-0.9-0.6c-1.5-0.9-2.109-2.7-1.21-4.2c0.91-1.5,2.71-2.1,4.21-1.2l0.9,0.6l1.2,0.6l0.899,0.6l0.9,0.6
				l0.899,0.6L357.74,96.04z"/>
			<path fill="#FFCC00" d="M357.71,176.5c-1.57,0.27-3.52,0.62-4.57-0.16c0.99,0.69,2.92,0.41,4.601,0.13L357.71,176.5z"/>
			<polygon fill="#FFCC00" points="350.151,173.87 354.99,179.22 275.09,259.12 269.1,255.05 			"/>
			<path fill="#E6B800" d="M352.34,171.67l-2.189,2.2l-4.71-5.2l0.01-0.01c2.689,1.21,6.29-0.29,6.89,0.6
				c0.43,0.29,0.18,1.54-0.01,2.93C352.34,172.02,352.34,171.84,352.34,171.67z"/>
			<path fill="#FFCC00" d="M352.33,172.21c-0.04,1.61-0.2,3.15,0.61,3.96C352,175.39,352.12,173.72,352.33,172.21z"/>
			<path fill="#FFCC00" d="M350.151,173.87l2.189-2.2c0,0.17,0,0.35-0.01,0.52c0,0.01,0,0.01,0,0.02c-0.21,1.51-0.33,3.18,0.61,3.96
				c0.06,0.06,0.13,0.12,0.199,0.17c1.051,0.78,3,0.43,4.57,0.16l-2.72,2.72L350.151,173.87z"/>
			<path fill="#FFCC99" d="M352.34,169.26c-0.6-0.89-4.2,0.61-6.89-0.6l0.609-0.31l1.78-0.89c1.49-0.3,3.9-0.3,5.4,0
				c1.8,0.91,0,5.71,0.899,7.21c0.9,1.5,5.7-0.3,7.2,0.3c0.601,0.3,0.3,4.2-0.3,7.2l-1.2,2.4c0-3.3,0-6.3,0.3-7.8
				c0-0.28-0.18-0.41-0.5-0.45c-0.01,0-0.01-0.01-0.02,0c-0.46-0.1-1.17-0.03-1.88,0.15c-1.681,0.28-3.61,0.56-4.601-0.13
				c-0.069-0.05-0.14-0.11-0.199-0.17c-0.811-0.81-0.65-2.35-0.61-3.96c0-0.01,0-0.01,0-0.02
				C352.52,170.8,352.77,169.55,352.34,169.26z"/>
			<path fill="#FFCC99" d="M346.06,168.35l23.08-11.69l3.301,3.3l3.859-7.1l-15.26,29.31c0.6-3,0.9-6.9,0.3-7.2
				c-1.5-0.6-6.3,1.2-7.2-0.3c-0.899-1.5,0.9-6.3-0.899-7.21c-1.5-0.3-3.91-0.3-5.4,0L346.06,168.35z"/>
			<path fill="#E6B800" d="M345.45,168.66l-0.01,0.01L345.45,168.66z"/>
			<polygon fill="#E6B800" points="345.441,168.67 350.151,173.87 269.1,255.05 263.12,250.98 345.43,168.67 			"/>
			<polygon fill="#51A8B1" points="345.43,168.67 263.12,250.98 262.941,250.86 			"/>
			<path fill="#4E5A62" d="M344.231,420.46c0.6,1.5,0,3.3-1.5,4.2l-0.301,0.3l-1.199,0.6l-0.9,0.311l-1.2,0.6l-0.899,0.601l-1.2,0.3
				c-1.5,0.899-3.3,0.3-3.9-1.5c-0.899-1.51-0.3-3.311,1.5-3.9l0.9-0.609l0.899-0.591l1.2-0.31l0.9-0.6l0.899-0.601h0.601
				C341.531,418.36,343.33,418.96,344.231,420.46z"/>
			<path fill="#4E5A62" d="M335.531,84.03c1.8,0.6,2.399,2.4,1.5,4.2c-0.601,1.5-2.4,2.1-3.9,1.5l-0.6-0.29l-0.9-0.61l-1.2-0.29
				l-0.899-0.6l-1.2-0.31l-0.9-0.6c-1.5-0.6-2.399-2.4-1.5-3.9c0.601-1.5,2.4-2.4,3.9-1.8l1.2,0.6l0.899,0.3l1.2,0.6l0.9,0.3
				l1.2,0.6L335.531,84.03z"/>
			<path fill="#4E5A62" d="M321.43,430.67c0.59,1.8-0.31,3.6-1.81,3.9l-0.601,0.3l-1.199,0.3l-0.9,0.6l-1.2,0.301l-1.2,0.3
				l-0.899,0.3c-1.5,0.6-3.3-0.3-3.9-1.8c-0.6-1.8,0.3-3.601,2.101-4.2l0.899-0.3l0.9-0.3l1.2-0.311l1.199-0.29l0.9-0.3l0.6-0.3
				C319.02,428.27,320.821,429.17,321.43,430.67z"/>
			<path fill="#4E5A62" d="M312.12,75.03c1.5,0.3,2.399,2.1,2.1,3.9c-0.6,1.5-2.399,2.4-3.899,1.8h-0.9l-0.9-0.3l-1.199-0.3
				l-1.2-0.3l-0.9-0.3l-0.899-0.3c-1.5-0.6-2.7-2.1-2.101-3.9c0.3-1.5,2.101-2.7,3.9-2.1l0.6,0.3l1.2,0.3l1.2,0.3l0.899,0.3l1.2,0.3
				L312.12,75.03z"/>
			<path fill="#B3B3B3" d="M294.71,434.27v10.811h-6.9c-0.3,1.2-0.6,2.39-0.899,3.59l6.3,3.01l-4.8,9.601l-6-2.7
				c-0.9,1.5-2.4,3.3-3.9,4.8l3.601,5.101l-8.7,6.01l-3.61-5.101c-2.7,1.2-5.399,2.101-8.399,2.7v6.3h-10.8v-6.3
				c-2.1-0.31-4.21-0.899-6.01-1.8l-3.29,5.4l-9.31-5.4l3.3-5.41c-1.8-1.2-3-2.7-4.5-4.5l-5.4,3.3l-5.41-9.3l5.71-3.3
				c-0.6-2.1-1.2-3.9-1.5-6h-6.9V434.27h7.2c0.3-1.199,0.6-2.399,0.9-3.3l-6.6-3.3l4.8-9.61l6.6,3.311c1.2-1.51,2.4-3,3.9-4.21
				l-4.2-6.3l8.7-6l4.51,6.3c2.4-1.2,4.8-1.8,7.5-2.4v-7.5h10.8v7.5c1.8,0.3,3.6,0.9,5.399,1.5l3.91-6.6l9.3,5.399l-3.899,6.301
				c1.5,1.199,3,2.699,4.199,4.199l6.301-3.899l5.399,9.31l-6.3,3.601c0.9,1.8,1.5,3.899,1.8,5.699H294.71z M269.21,439.67
				c0-0.28-0.01-0.55-0.03-0.82c0-0.149-0.01-0.31-0.04-0.46c0.011-0.029,0.011-0.05,0-0.08c-0.02-0.21-0.05-0.42-0.08-0.63
				c-0.06-0.439-0.149-0.859-0.27-1.279c-0.05-0.21-0.11-0.42-0.18-0.62c-0.061-0.21-0.13-0.41-0.21-0.61
				c-0.07-0.2-0.15-0.4-0.24-0.6c-0.17-0.41-0.37-0.811-0.59-1.21c-0.051-0.101-0.101-0.19-0.16-0.29
				c-0.01-0.011-0.03-0.021-0.04-0.03c-2.3-3.91-6.57-6.57-11.37-6.57c-7.21,0-13.21,6-13.21,13.2c0,3.88,1.74,7.42,4.48,9.86
				c0.01,0.02,0.02,0.029,0.03,0.05c1.74,1.52,3.8,2.57,6.06,3.03c0.21,0.05,0.43,0.09,0.65,0.12c0.18,0.029,0.37,0.05,0.56,0.069
				c0.25,0.03,0.5,0.05,0.76,0.061c0.22,0.01,0.45,0.02,0.67,0.02C263.2,452.88,269.21,446.87,269.21,439.67z"/>
			<rect x="282.71" y="69.32" fill="#FFCA28" width="5.7" height="0.01"/>
			<path fill="#FFCA28" d="M288.41,60.32v9h-5.7v0.01l-0.6,3l5.1,2.4l-3.9,8.4l-5.1-2.4l-7.81,10.2v0.01H241.59l-6.6-8.71l-4.8,2.7
				l-4.5-7.8l4.8-2.7l-1.2-5.1h-5.7v-9.01h6l0.6-2.7l-5.4-2.7l3.9-8.1l5.7,2.7l3.3-3.6l-3.6-5.4l7.5-5.11l3.61,5.4v0.01l6.3-1.8
				v-0.01v-6.6h9v6.6v0.01l3.49,0.92l1.01,0.27l3.31-5.7l7.801,4.51l-3.301,5.7l3.601,3.3l5.399-3.3l4.5,7.8l-5.1,3l1.2,4.8H288.41z
				 M267.1,64.82v-0.01c0-0.26-0.01-0.51-0.029-0.76c-0.011-0.21-0.03-0.41-0.07-0.61c-0.06-0.58-0.19-1.13-0.35-1.66
				c-0.051-0.18-0.11-0.37-0.181-0.55c-1.529-4.31-5.72-7.51-10.47-7.51c-6,0-11.1,5.1-11.1,11.11c0,5.81,4.79,10.78,10.54,11.09
				c0.19,0,0.37,0.01,0.56,0.01C262,75.93,267.1,70.83,267.1,64.82z"/>
			<polygon fill="#E6B800" points="281.21,263.2 281.17,263.25 281.09,263.19 359.84,184.57 			"/>
			<polygon fill="#FED267" points="281.17,263.25 272.02,272.4 271.93,272.34 281.09,263.19 			"/>
			<polygon fill="#FED267" points="281.09,263.19 271.93,272.34 265.941,268.27 275.09,259.12 			"/>
			<polygon fill="#FFCA28" points="278.21,80.73 270.41,90.94 270.401,90.94 270.401,90.93 			"/>
			<polygon fill="#2A2D40" points="276.111,39.01 276.111,39.02 268.31,34.51 			"/>
			<polygon fill="#FED267" points="269.1,255.05 275.09,259.12 265.941,268.27 259.96,264.21 			"/>
			<path fill="#A9ABAE" d="M270.41,99.04v-4.2h0.3c1.2,0,2.1,0.9,2.1,2.1c0,0.6-0.229,1.12-0.6,1.5s-0.9,0.6-1.5,0.6H270.41z"/>
			<polygon fill="#E5BD5D" points="272.02,272.4 262.85,281.57 262.75,281.5 271.93,272.34 			"/>
			<polygon fill="#E5BD5D" points="271.93,272.34 262.75,281.5 256.77,277.44 265.941,268.27 			"/>
			<path fill="#A9ABAE" d="M270.41,107.74v-4.38h0.5c0.33,0,0.64,0.09,0.91,0.26c0.01,0,0.01,0.01,0.02,0.01
				c0.59,0.46,0.97,1.23,0.97,2.01c0,0.6-0.229,1.12-0.6,1.5c-0.37,0.38-0.9,0.6-1.5,0.6H270.41z"/>
			<path fill="#A9ABAE" d="M270.941,115.93h-0.86c0.01-0.03,0.01-0.05,0.02-0.08h0.61c0.6,0,1.13-0.23,1.5-0.6s0.6-0.9,0.6-1.5
				c0-0.76-0.35-1.51-0.909-1.97c0.569,0.38,0.96,1.1,0.96,1.92c0,0.61-0.221,1.16-0.561,1.57
				C271.95,115.67,271.47,115.92,270.941,115.93z"/>
			<path fill="#2A2D40" d="M270.93,111.48h-0.52v-0.14h0.3c0.43,0,0.83,0.16,1.15,0.41C271.58,111.57,271.26,111.48,270.93,111.48z"
				/>
			<path fill="#A9ABAE" d="M270.92,107.81h-0.51v-0.07h0.3c0.6,0,1.13-0.22,1.5-0.6c0.37-0.38,0.6-0.9,0.6-1.5
				c0-0.78-0.38-1.55-0.97-2.01c0.59,0.37,1,1.11,1,1.95c0,0.62-0.21,1.17-0.56,1.58C271.941,107.56,271.46,107.81,270.92,107.81z"
				/>
			<path fill="#2A2D40" d="M270.91,103.36h-0.5v-0.12h0.3c0.41,0,0.79,0.14,1.11,0.38C271.55,103.45,271.24,103.36,270.91,103.36z"
				/>
			<path fill="#A9ABAE" d="M270.41,94.84V94.7h0.479c1.061-0.01,1.931,0.99,1.931,2.22c0,0.01,0,0.01,0,0.02
				c0,1.22-0.86,2.21-1.92,2.21h-0.49v-0.11h0.3c0.6,0,1.13-0.22,1.5-0.6s0.6-0.9,0.6-1.5c0-1.2-0.899-2.1-2.1-2.1H270.41z"/>
			<path fill="#BDBFC1" d="M270.41,107.81v3.53v0.14l-29.31,0.08c-0.03,0-0.07,0-0.1,0v-3.66c0.03,0,0.06,0,0.09,0L270.41,107.81z"
				/>
			<path fill="#BDBFC1" d="M270.41,99.15v4.09v0.12l-29.33,0.09c-0.03,0-0.05,0-0.08,0v-4.11v-0.1c0.02,0,0.05,0,0.07,0
				L270.41,99.15z"/>
			<rect x="270.401" y="94.7" fill="#A9ABAE" width="0.01" height="0.14"/>
			<path fill="#BDBFC1" d="M270.41,90.94c0,0.3,0,0,0,0.6v3.16h-0.01v-3.17c0-0.59,0-0.31,0-0.59H270.41z"/>
			<path fill="#A9ABAE" d="M241,94.79c0.02,0,0.04,0,0.06,0l29.34-0.09v0.14h0.01v4.2v0.11l-29.34,0.09c-0.02,0-0.05,0-0.07,0v-4.4
				V94.79z"/>
			<path fill="#BDBFC1" d="M270.401,91.53v3.17l-29.34,0.09c-0.02,0-0.04,0-0.06,0v-3.25c0-0.3,0-0.3,0-0.6h0.59h28.811
				C270.401,91.22,270.401,90.94,270.401,91.53z"/>
			<path fill="#A9ABAE" d="M270.41,113.15v-1.67h0.52c0.33,0,0.65,0.09,0.931,0.27c0.01,0.01,0.02,0.02,0.04,0.03
				c0.56,0.46,0.909,1.21,0.909,1.97c0,0.6-0.229,1.13-0.6,1.5s-0.9,0.6-1.5,0.6h-0.61c-0.01,0.03-0.01,0.05-0.02,0.08h-0.04
				C270.281,115.07,270.41,114.13,270.41,113.15z"/>
			<path fill="#808080" d="M269.14,438.39c0.03,0.15,0.04,0.311,0.04,0.46C269.17,438.69,269.16,438.54,269.14,438.39z"/>
			<path fill="#808080" d="M269.21,439.67c0,7.2-6.01,13.21-13.21,13.21c-0.22,0-0.45-0.01-0.67-0.02
				c-0.26-0.011-0.51-0.03-0.76-0.061c-0.19-0.02-0.37-0.05-0.56-0.069c-0.22-0.04-0.43-0.08-0.65-0.12
				c-2.29-0.48-4.39-1.57-6.09-3.08c-1.18-2.09-1.77-4.181-1.77-6.561c0-7.2,6-13.21,13.2-13.21c3.28,0.01,6.27,1.2,8.67,3.28
				c0.07,0.1,0.13,0.21,0.2,0.32c0.22,0.399,0.42,0.8,0.59,1.21c0.08,0.199,0.16,0.399,0.24,0.6c0.069,0.2,0.14,0.4,0.21,0.61
				c0.06,0.2,0.12,0.41,0.18,0.62c0.11,0.42,0.2,0.85,0.27,1.279c0.03,0.21,0.061,0.42,0.08,0.63c0.011,0.03,0.011,0.051,0,0.08
				c0.021,0.15,0.03,0.301,0.04,0.46C269.2,439.12,269.21,439.39,269.21,439.67z"/>
			<path fill="#808080" d="M269.14,438.31c-0.02-0.21-0.05-0.42-0.08-0.63C269.09,437.89,269.12,438.1,269.14,438.31z"/>
			<polygon fill="#FED267" points="269.1,255.05 259.96,264.21 253.96,260.14 263.12,250.98 			"/>
			<path fill="#808080" d="M268.79,436.4c0.12,0.42,0.21,0.84,0.27,1.279C268.99,437.25,268.901,436.82,268.79,436.4z"/>
			<path fill="#808080" d="M268.79,436.4c-0.06-0.21-0.12-0.42-0.18-0.62C268.68,435.98,268.74,436.19,268.79,436.4z"/>
			<path fill="#2A2D40" d="M265.611,121.09c2.05-0.57,3.729-2.54,4.43-5.16h0.04C269.321,118.67,267.71,120.57,265.611,121.09z"/>
			<path fill="#808080" d="M268.611,435.78c-0.07-0.21-0.141-0.41-0.21-0.61C268.481,435.37,268.55,435.57,268.611,435.78z"/>
			<path fill="#808080" d="M268.401,435.17c-0.08-0.2-0.16-0.4-0.24-0.6C268.25,434.77,268.33,434.97,268.401,435.17z"/>
			<path fill="#808080" d="M267.571,433.36c-0.07-0.11-0.13-0.221-0.2-0.32c0.01,0.01,0.03,0.02,0.04,0.03
				C267.47,433.17,267.52,433.26,267.571,433.36z"/>
			<path fill="#EBAA4B" d="M267.1,64.81c0-0.26-0.01-0.51-0.029-0.76C267.09,64.3,267.1,64.55,267.1,64.81z"/>
			<path fill="#FFB74D" d="M267.071,64.05c0.02,0.25,0.029,0.5,0.029,0.76v0.01c0,6.01-5.1,11.11-11.1,11.11
				c-0.19,0-0.37-0.01-0.56-0.01c-2.51-0.16-4.96-1.31-6.64-2.99c-0.9-1.5-1.5-3.3-1.5-5.4c0-6.01,4.8-11.11,11.101-11.11
				c2.699,0,5.1,1.2,7.199,3c0.341,0.56,0.631,1.17,0.87,1.81c0.07,0.18,0.13,0.36,0.181,0.55c0.159,0.53,0.29,1.08,0.35,1.66
				C267.04,63.64,267.06,63.84,267.071,64.05z"/>
			<path fill="#EBAA4B" d="M267.071,64.05c-0.011-0.21-0.03-0.41-0.07-0.61C267.04,63.64,267.06,63.84,267.071,64.05z"/>
			<path fill="#EBAA4B" d="M266.651,61.78c-0.051-0.19-0.11-0.37-0.181-0.55C266.54,61.41,266.6,61.6,266.651,61.78z"/>
			<polygon fill="#E5BD5D" points="265.941,268.27 256.77,277.44 250.8,273.38 259.96,264.21 			"/>
			<path fill="#737373" d="M256,426.47c4.8,0,9.07,2.66,11.37,6.57c-2.4-2.08-5.39-3.271-8.67-3.28c-7.2,0-13.2,6.01-13.2,13.21
				c0,2.38,0.59,4.471,1.77,6.561c-2.74-2.44-4.48-5.98-4.48-9.86C242.79,432.47,248.79,426.47,256,426.47z"/>
			<path fill="#2A2D40" d="M265.31,121.16c0.101-0.02,0.2-0.05,0.301-0.07C265.52,121.13,265.41,121.15,265.31,121.16z"/>
			<path fill="#2A2D40" d="M265.01,121.21c-0.08,0.01-0.17,0.02-0.26,0.03C264.84,121.23,264.92,121.22,265.01,121.21z"/>
			<polygon fill="#2A2D40" points="263.99,39.94 260.5,39.02 260.5,39.01 			"/>
			<polygon fill="#FED267" points="263.12,250.98 253.96,260.14 196.92,221.39 204.06,210.87 204.13,210.91 204.08,210.98 
				262.901,250.9 262.941,250.86 			"/>
			<polygon fill="#2A2D40" points="262.901,250.9 204.08,210.98 204.13,210.91 262.941,250.86 			"/>
			<polygon fill="#FED267" points="262.75,281.5 262.85,281.57 262.781,281.63 262.68,281.57 			"/>
			<polygon fill="#FED267" points="262.6,281.51 256.7,277.51 256.77,277.44 262.75,281.5 262.68,281.57 			"/>
			<polygon fill="#2A2D40" points="262.68,281.57 180.37,363.74 262.6,281.51 			"/>
			<polygon fill="#E6B800" points="262.6,281.51 180.37,363.74 175.42,358.79 256.7,277.51 			"/>
			<polygon fill="#E5BD5D" points="253.96,260.14 259.96,264.21 250.8,273.38 244.8,269.3 			"/>
			<polygon fill="#FED267" points="250.8,273.38 256.77,277.44 256.7,277.51 250.73,273.45 			"/>
			<polygon fill="#FFCC00" points="250.73,273.45 256.7,277.51 175.42,358.79 170.57,353.95 170.47,353.84 			"/>
			<path fill="#808080" d="M255.33,452.86c0.22,0.01,0.45,0.02,0.67,0.02C255.78,452.88,255.55,452.87,255.33,452.86z"/>
			<path fill="#808080" d="M254.01,452.73c0.19,0.02,0.37,0.05,0.56,0.069C254.38,452.78,254.19,452.76,254.01,452.73z"/>
			<path fill="#808080" d="M253.36,452.61c0.22,0.04,0.43,0.08,0.65,0.12C253.79,452.7,253.57,452.66,253.36,452.61z"/>
			<polygon fill="#E5BD5D" points="196.92,221.39 253.96,260.14 244.8,269.3 189.76,231.92 			"/>
			<path fill="#808080" d="M253.36,452.61c-2.26-0.46-4.32-1.511-6.06-3.03c-0.01-0.021-0.02-0.03-0.03-0.05
				C248.97,451.04,251.07,452.13,253.36,452.61z"/>
			<polygon fill="#2A2D40" points="251.5,39.01 251.5,39.02 245.2,40.82 245.2,40.81 			"/>
			<polygon fill="#FED267" points="250.8,273.38 250.73,273.45 244.73,269.37 244.8,269.3 			"/>
			<polygon fill="#E6B800" points="250.73,273.45 170.47,353.84 165.36,348.74 244.73,269.37 			"/>
			<path fill="#EBAA4B" d="M258.401,56.42c-6.3,0-11.101,5.1-11.101,11.11c0,2.1,0.6,3.9,1.5,5.4c1.68,1.68,4.13,2.83,6.64,2.99
				c-5.75-0.31-10.54-5.28-10.54-11.09c0-6.01,5.1-11.11,11.1-11.11c4.75,0,8.94,3.2,10.47,7.51c-0.239-0.64-0.529-1.25-0.87-1.81
				C263.5,57.62,261.1,56.42,258.401,56.42z"/>
			<path fill="#BDBFC1" d="M247.3,121.55c-0.17,0-0.34-0.01-0.5-0.03C246.96,121.54,247.13,121.55,247.3,121.55z"/>
			<path fill="#BDBFC1" d="M246.47,121.47c0.11,0.02,0.22,0.04,0.33,0.05C246.69,121.51,246.58,121.49,246.47,121.47z"/>
			<polygon fill="#51A8B1" points="244.73,269.37 165.36,348.74 244.55,269.25 			"/>
			<polygon fill="#FED267" points="244.59,269.21 202.22,240.5 189.71,232 189.76,231.92 244.8,269.3 244.73,269.37 244.55,269.25 
							"/>
			<polygon fill="#2A2D40" points="244.55,269.25 202.22,240.5 244.59,269.21 			"/>
			<path fill="#2A2D40" d="M241.7,116.48c0.91,2.56,2.64,4.52,4.69,4.97C244.22,121.01,242.53,118.98,241.7,116.48z"/>
			<path fill="#BDBFC1" d="M241.59,116.15c0.03,0.11,0.07,0.22,0.11,0.33C241.65,116.37,241.61,116.26,241.59,116.15z"/>
			<path fill="#BDBFC1" d="M241.54,116.02l28.5-0.09c-0.7,2.62-2.38,4.59-4.43,5.16c-0.101,0.02-0.2,0.05-0.301,0.07
				c-0.1,0.02-0.199,0.03-0.3,0.05c-0.09,0.01-0.17,0.02-0.26,0.03c-0.12,0.01-0.23,0.01-0.35,0.01l-17.101,0.3
				c-0.17,0-0.34-0.01-0.5-0.03c-0.11-0.01-0.22-0.03-0.33-0.05c-0.03-0.01-0.05-0.01-0.08-0.02c-2.05-0.45-3.78-2.41-4.69-4.97
				c-0.04-0.11-0.08-0.22-0.11-0.33h-0.01C241.56,116.11,241.55,116.07,241.54,116.02z"/>
			<path fill="#A9ABAE" d="M241,111.56c0.03,0,0.07,0,0.1,0l29.31-0.08v1.67c0,0.98-0.13,1.92-0.37,2.78l-28.5,0.09
				c-0.29-0.9-0.47-1.87-0.54-2.87v-1.5v-0.08V111.56z"/>
			<path fill="#A9ABAE" d="M239.89,115.51c-0.43-0.46-0.7-1.11-0.7-1.76c0-0.08,0-0.15,0.01-0.22l0.09-0.45l0.46-0.83
				c0.34-0.38,0.79-0.6,1.25-0.6v1.5c0.07,1,0.25,1.97,0.54,2.87h-0.43c-0.4,0-0.78-0.14-1.08-0.38
				C239.98,115.6,239.93,115.56,239.89,115.51z"/>
			<path fill="#A9ABAE" d="M241,103.45c0.03,0,0.05,0,0.08,0l29.33-0.09v4.38v0.07l-29.32,0.09c-0.03,0-0.06,0-0.09,0v-0.16v-4.2
				V103.45z"/>
			<path fill="#A9ABAE" d="M241,103.54v4.2c-0.91,0-1.81-0.9-1.81-2.1c0-0.6,0.23-1.12,0.56-1.5
				C240.09,103.76,240.54,103.54,241,103.54z"/>
			<path fill="#2A2D40" d="M241,99.24v0.1c-0.13-0.04-0.26-0.1-0.39-0.17C240.74,99.21,240.87,99.23,241,99.24z"/>
			<path fill="#A9ABAE" d="M241,94.84v4.4c-0.13-0.01-0.26-0.03-0.39-0.07c-0.76-0.4-1.42-1.2-1.42-2.23c0-0.6,0.23-1.12,0.56-1.5
				C240.09,95.06,240.54,94.84,241,94.84z"/>
			<path fill="#2A2D40" d="M241.3,116.15c-0.49,0-0.92-0.19-1.27-0.51c0.3,0.24,0.68,0.38,1.08,0.38h0.43
				c0.01,0.05,0.02,0.09,0.04,0.13H241.3z"/>
			<path fill="#A9ABAE" d="M239.75,112.25l-0.46,0.83l0.45-0.86c0.33-0.38,0.77-0.62,1.26-0.65v0.08
				C240.54,111.65,240.09,111.87,239.75,112.25z"/>
			<path fill="#A9ABAE" d="M239.19,113.75c0,0.65,0.27,1.3,0.7,1.76c-0.43-0.4-0.71-1.02-0.71-1.71l0.02-0.27
				C239.19,113.6,239.19,113.67,239.19,113.75z"/>
			<path fill="#A9ABAE" d="M239.14,97.02c0-0.62,0.22-1.17,0.56-1.58c0.34-0.38,0.79-0.63,1.3-0.65v0.05c-0.46,0-0.91,0.22-1.25,0.6
				c-0.33,0.38-0.56,0.9-0.56,1.5c0,1.03,0.66,1.83,1.42,2.23C239.77,98.94,239.14,98.07,239.14,97.02z"/>
			<path fill="#A9ABAE" d="M241,107.9c-1.02-0.06-1.84-1.02-1.84-2.22c0-0.62,0.22-1.17,0.56-1.58c0.33-0.38,0.78-0.62,1.28-0.65
				v0.09c-0.46,0-0.91,0.22-1.25,0.6c-0.33,0.38-0.56,0.9-0.56,1.5c0,1.2,0.9,2.1,1.81,2.1V107.9z"/>
			<path fill="#51A8B1" d="M230.98,158.68c2.78,2.97,3.26,7.62,0.71,11.19l-0.61,0.91C233.23,166.32,233.19,161.59,230.98,158.68z"
				/>
			<path fill="#4D4D4D" d="M230.98,158.68c2.21,2.91,2.25,7.64,0.1,12.1l-18.91,28.16l-8.11,11.93l-24.8-16.85l32.92-48.46
				l17.11,11.71C229.92,157.67,230.49,158.15,230.98,158.68z"/>
			<path fill="#2A2D40" d="M212.17,198.94l18.91-28.16c-0.37,0.75-0.81,1.5-1.3,2.23L212.17,198.94z"/>
			<path fill="#2A2D40" d="M229.37,157.14c0.63,0.43,1.17,0.95,1.61,1.54c-0.49-0.53-1.06-1.01-1.69-1.41l-17.11-11.71l-17.1-11.71
				L229.37,157.14z"/>
			<path fill="#2A2D40" d="M229.59,60.32h-6v9.01h5.7l1.2,5.1l-4.8,2.7l4.5,7.8l4.8-2.7l6.6,8.71H241c0,0.3,0,0.3,0,0.6v3.25
				c-0.51,0.02-0.96,0.27-1.3,0.65c-0.34,0.41-0.56,0.96-0.56,1.58c0,1.05,0.63,1.92,1.47,2.15c0.13,0.07,0.26,0.13,0.39,0.17v4.11
				c-0.5,0.03-0.95,0.27-1.28,0.65c-0.34,0.41-0.56,0.96-0.56,1.58c0,1.2,0.82,2.16,1.84,2.22v3.66v0.01
				c-0.49,0.03-0.93,0.27-1.26,0.65l-0.45,0.86l-0.09,0.45l-0.02,0.27c0,0.69,0.28,1.31,0.71,1.71c0.04,0.05,0.09,0.09,0.14,0.13
				c0.35,0.32,0.78,0.51,1.27,0.51h0.28h0.01c0.02,0.11,0.06,0.22,0.11,0.33c0.83,2.5,2.52,4.53,4.69,4.97
				c0.03,0.01,0.05,0.01,0.08,0.02c0.11,0.02,0.22,0.04,0.33,0.05c0.16,0.02,0.33,0.03,0.5,0.03l17.101-0.3
				c0.119,0,0.229,0,0.35-0.01c0.09-0.01,0.18-0.02,0.26-0.03c0.101-0.02,0.2-0.03,0.3-0.05c0.101-0.01,0.21-0.03,0.301-0.07
				c2.1-0.52,3.71-2.42,4.47-5.16h0.86c0.529-0.01,1.01-0.26,1.359-0.66c0.34-0.41,0.561-0.96,0.561-1.57
				c0-0.82-0.391-1.54-0.96-1.92c-0.021-0.01-0.03-0.02-0.04-0.03c-0.32-0.25-0.721-0.41-1.15-0.41h-0.3v-3.53h0.51
				c0.54,0,1.021-0.25,1.36-0.65c0.35-0.41,0.56-0.96,0.56-1.58c0-0.84-0.41-1.58-1-1.95c-0.01,0-0.01-0.01-0.02-0.01
				c-0.32-0.24-0.7-0.38-1.11-0.38h-0.3v-4.09h0.49c1.06,0,1.92-0.99,1.92-2.21c0-0.01,0-0.01,0-0.02c0-1.23-0.87-2.23-1.931-2.22
				h-0.479v-3.16c0-0.6,0-0.3,0-0.6l7.8-10.21l5.1,2.4l3.9-8.4l-5.1-2.4l0.6-3h5.7v-0.01v-9h-6l-1.2-4.8l5.1-3l-4.5-7.8l-5.399,3.3
				l-3.601-3.3l3.301-5.7v-0.01l-7.801-4.5l-3.31,5.7l-1.01-0.27l-3.49-0.93v-6.6h-9v6.6l-6.3,1.8l-3.61-5.4l-7.5,5.11l3.6,5.4
				l-3.3,3.6l-5.7-2.7l-3.9,8.1l5.4,2.7L229.59,60.32z M222.08,60.33c0-0.91,0.61-1.51,1.51-1.51h4.8l0.3-0.6l-4.5-2.1
				c-0.6-0.3-0.9-1.2-0.6-1.8l3.9-8.1c0.3-0.9,1.2-1.2,1.8-0.9l4.8,2.4l1.8-2.1l-3-4.2c-0.6-0.6-0.3-1.5,0.3-1.8l7.5-5.11
				c0.61-0.6,1.5-0.3,2.1,0.3l3,4.51l4.21-1.51v-5.4c0-0.6,0.6-1.5,1.5-1.5h9c0.9,0,1.5,0.9,1.5,1.5v5.4l2.4,0.6l2.699-4.5
				c0.311-0.6,1.2-0.9,1.801-0.6l7.81,4.5c0.9,0.31,0.9,1.21,0.6,2.11l-2.699,4.5l2.1,1.8l4.5-2.7c0.6-0.3,1.5,0,1.8,0.6l4.5,7.8
				c0.3,0.6,0.3,1.5-0.6,1.8l-4.2,2.7l0.9,2.4h4.81c0.89,0,1.49,0.6,1.49,1.51v9c0,0.9-0.601,1.5-1.49,1.5h-4.51l-0.3,0.9l4.199,1.8
				c0.61,0.3,0.9,1.2,0.61,2.1l-3.91,8.1c-0.3,0.6-1.2,0.9-1.8,0.6l-3.9-1.8l-6.899,8.71c0,0,0,0,0,0.3v2.1
				c1.2,0.3,2.399,1.8,2.399,3.3s-1.199,3-2.399,3.3v1.8c1.5,0.6,2.399,2.1,2.399,3.6s-0.899,3-2.399,3.3v1.2
				c1.5,0.6,2.399,2.11,2.399,3.61c0,1.8-1.5,3.3-3.31,3.6c-0.89,3-3.3,5.4-6.6,5.4H247.3c-3.3,0-5.71-2.4-6.91-5.4
				c-1.49-0.6-2.7-1.8-2.7-3.6c0-1.21,0.91-2.71,2.1-3.31v-1.5c-1.19-0.6-2.1-1.8-2.1-3.3c0-1.2,0.91-2.7,2.1-3.3v-2.1
				c-1.19-0.6-2.1-1.8-2.1-3.3c0-1.2,0.91-2.4,2.1-3.3v-2.1c-0.29-0.3-0.29-0.6-0.29-0.9l-5.11-6.61l-3.6,2.1
				c-0.6,0.61-1.5,0.3-1.8-0.3l-4.5-8.1c-0.3-0.6-0.3-1.5,0.6-1.8l3.9-2.4l-0.9-2.7h-4.5c-0.9,0-1.51-0.6-1.51-1.5V60.33z"/>
			<path fill="#2A2D40" d="M216.08,446.58h6.91c0.3,1.2,0.6,2.4,1.2,3.9l-6.01,3.3l6.61,11.7l5.7-3.301c0.9,0.9,2.1,2.101,3,3
				l-3.3,5.7l11.71,6.91l3.3-5.7c1.19,0.601,2.7,0.9,4.2,1.2v6.3h13.2v-6.3c2.4-0.6,4.5-1.21,6.61-2.1l3.6,5.399l11.4-7.81l-3.9-5.4
				c0.9-0.899,1.801-2.1,2.7-3.3l6,3l6.01-12l-6.31-3.3c0-0.311,0-0.9,0.3-1.21h6.91v-13.5h-7.21c-0.29-1.5-0.9-2.7-1.2-3.9
				l6.311-3.6l-6.61-11.71l-6.6,3.899c-0.9-0.899-1.801-1.8-2.7-2.7l3.899-6.6l-11.71-6.6l-3.89,6.6c-1.21-0.3-2.41-0.6-3.61-0.9
				v-7.8h-13.2v7.8c-2.1,0.601-3.9,1.2-6,1.801l-4.21-6.601l-11.4,7.8l4.5,6.311c-0.9,0.89-1.8,1.8-2.4,2.7l-6.9-3.301l-6,12.301
				l6.6,3c0,0.6,0,0.899-0.3,1.5h-7.21V446.58z M222.39,449.58c-0.31-0.6-0.31-1.2-0.6-1.8h-5.71c-0.89,0-1.49-0.601-1.49-1.21
				v-13.5c0-0.9,0.59-1.5,1.49-1.5h4.21l-3.9-1.801c-0.61-0.3-0.91-1.199-0.61-1.8l6.01-12.31c0.29-0.601,1.2-0.9,1.8-0.601l6,2.7
				c0.3-0.3,0.6-0.6,0.9-0.899l-3.6-5.7c-0.6-0.601-0.3-1.5,0.3-1.8l11.1-7.5c0.6-0.61,1.5-0.301,2.1,0.3l3.61,5.399
				c1.2-0.3,2.69-0.6,3.9-0.899v-6.9c0-0.91,0.6-1.51,1.5-1.51h13.2c0.9,0,1.5,0.6,1.5,1.51v6.9c0.601,0,0.9,0,1.5,0.3l3.301-6
				c0.31-0.6,1.199-0.91,1.81-0.6l11.7,6.899c0.899,0.3,0.899,1.2,0.6,1.8l-3.3,6c0.3,0.301,0.6,0.601,1.2,0.9l5.7-3.3
				c0.6-0.3,1.5-0.3,1.8,0.6l6.899,11.71c0.301,0.59,0,1.5-0.6,1.79l-5.4,3.311c0,0.3,0.301,0.899,0.301,1.5h6.31
				c0.89,0,1.49,0.6,1.49,1.5v13.5c0,0.609-0.601,1.199-1.49,1.199h-4.2l3.891,1.811c0.609,0.3,0.899,1.189,0.609,2.1l-6.01,12
				c-0.3,0.601-1.2,0.9-1.8,0.601l-5.101-2.4c-0.3,0.601-0.6,1.2-1.199,1.5l3,4.811c0.6,0.59,0.3,1.489-0.301,1.8l-11.1,7.8
				c-0.61,0.3-1.5,0.3-2.1-0.6l-3-4.2c-1.2,0.6-3.011,0.89-4.511,1.5v5.1c0,0.9-0.6,1.5-1.5,1.5h-13.2c-0.9,0-1.5-0.6-1.5-1.5v-5.1
				c-0.9-0.3-1.51-0.61-2.1-0.61l-2.7,4.51c-0.3,0.601-1.2,0.9-1.8,0.601l-11.71-6.9c-0.9-0.31-0.9-1.21-0.6-1.8l2.7-4.81
				c-0.6-0.601-0.9-0.9-1.5-1.5l-4.8,2.699c-0.6,0.311-1.5,0.311-1.8-0.6l-6.9-11.7c-0.3-0.6,0-1.5,0.6-1.8L222.39,449.58z"/>
			<path fill="#737373" d="M219.98,454.38l5.41,9.3l5.4-3.3c1.5,1.8,2.7,3.3,4.5,4.5l-3.3,5.41l9.31,5.4l3.29-5.4
				c1.8,0.9,3.91,1.49,6.01,1.8v6.3h10.8v-6.3c3-0.6,5.699-1.5,8.399-2.7l3.61,5.101l8.7-6.01l-3.601-5.101c1.5-1.5,3-3.3,3.9-4.8
				l6,2.7l4.8-9.601l-6.3-3.01c0.3-1.2,0.6-2.39,0.899-3.59h6.9V434.27h-7.2c-0.3-1.8-0.899-3.899-1.8-5.699l6.3-3.601l-5.399-9.31
				l-6.301,3.899c-1.199-1.5-2.699-3-4.199-4.199l3.899-6.301l-9.3-5.399l-3.91,6.6c-1.8-0.6-3.6-1.2-5.399-1.5v-7.5h-10.8v7.5
				c-2.7,0.601-5.1,1.2-7.5,2.4l-4.51-6.3l-8.7,6l4.2,6.3c-1.5,1.21-2.7,2.7-3.9,4.21l-6.6-3.311l-4.8,9.61l6.6,3.3
				c-0.3,0.9-0.6,2.101-0.9,3.3h-7.2v10.811h6.9c0.3,2.1,0.9,3.9,1.5,6L219.98,454.38z M223.59,431.57l-6.6-3l6-12.301l6.9,3.301
				c0.6-0.9,1.5-1.811,2.4-2.7l-4.5-6.311l11.4-7.8l4.21,6.601c2.1-0.601,3.9-1.2,6-1.801v-7.8h13.2v7.8
				c1.2,0.301,2.4,0.601,3.61,0.9l3.89-6.6l11.71,6.6l-3.899,6.6c0.899,0.9,1.8,1.801,2.7,2.7l6.6-3.899l6.61,11.71l-6.311,3.6
				c0.3,1.2,0.91,2.4,1.2,3.9h7.21v13.5h-6.91c-0.3,0.31-0.3,0.899-0.3,1.21l6.31,3.3l-6.01,12l-6-3c-0.899,1.2-1.8,2.4-2.7,3.3
				l3.9,5.4l-11.4,7.81l-3.6-5.399c-2.11,0.89-4.21,1.5-6.61,2.1v6.3h-13.2v-6.3c-1.5-0.3-3.01-0.6-4.2-1.2l-3.3,5.7l-11.71-6.91
				l3.3-5.7c-0.9-0.899-2.1-2.1-3-3l-5.7,3.301l-6.61-11.7l6.01-3.3c-0.6-1.5-0.9-2.7-1.2-3.9h-6.91v-13.51h7.21
				C223.59,432.47,223.59,432.17,223.59,431.57z"/>
			<path fill="#4E5A62" d="M212.78,74.73c0.3,1.5-0.6,3.3-2.4,3.6l-0.3,0.3l-0.9,0.3l-1.2,0.3l-1.2,0.3l-0.9,0.3l-1.2,0.3
				c-0.23,0.04-0.46,0.06-0.68,0.06c-1.49,0-2.7-0.85-3.22-2.16c-0.6-1.8,0.3-3.6,2.1-3.9l1.2-0.3l1.2-0.3l1.2-0.3l0.9-0.3l1.2-0.3
				l0.3-0.3C210.68,72.03,212.18,72.93,212.78,74.73z"/>
			<path fill="#454545" d="M212.18,145.56l-32.92,48.46l-24.91-16.92l2.11-3.09l24.39-35.83l0.04-0.05
				c3.89-4.89,9.67-6.89,13.62-4.65c0.2,0.11,0.38,0.24,0.57,0.37L212.18,145.56z"/>
			<polygon fill="#51A8B1" points="212.17,198.94 204.13,210.91 204.06,210.87 			"/>
			<polygon fill="#4D4D4D" points="179.26,194.02 204.06,210.87 196.92,221.39 172.12,204.54 			"/>
			<polygon fill="#51A8B1" points="189.71,232 202.22,240.5 189.7,232.01 			"/>
			<path fill="#4E5A62" d="M197.48,429.77c1.8,0.601,2.69,2.4,2.1,4.2c-0.6,1.5-2.4,2.4-3.91,1.8h-0.29l-1.21-0.6l-1.2-0.3l-0.9-0.3
				l-1.2-0.301l-1.2-0.6c-1.79-0.6-2.4-2.4-1.79-3.9c0.59-1.8,2.4-2.399,3.89-1.8h0.31l0.89,0.3l1.21,0.301l0.9,0.6l1.2,0.3l0.9,0.3
				H197.48z"/>
			<polygon fill="#4D4D4D" points="172.12,204.54 196.92,221.39 189.76,231.92 164.96,215.08 			"/>
			<path fill="#454545" d="M182.17,136.25c2.58-4.01,8.18-5.29,12.34-2.77c-3.95-2.24-9.73-0.24-13.62,4.65L182.17,136.25z"/>
			<polygon fill="#4D4D4D" points="189.76,231.92 189.71,232 164.91,215.15 164.96,215.08 			"/>
			<path fill="#4D4D4D" d="M164.91,215.15l24.8,16.85l-0.01,0.01l-0.03-0.02L167,265.28c-4.04,4.89-9.98,6.729-13.86,4.1L136,257.73
				L164.91,215.15z"/>
			<path fill="#2A2D40" d="M189.67,231.99l0.03,0.02L168.04,263.9c-0.33,0.479-0.67,0.949-1.04,1.38L189.67,231.99z"/>
			<path fill="#4E5A62" d="M189.07,81.93c0.6,1.8-0.3,3.6-1.8,4.2h-0.6l-0.9,0.6l-1.2,0.3l-0.9,0.6l-1.2,0.31l-0.9,0.6
				c-1.5,0.59-3.3,0-3.9-1.81c-0.9-1.5,0-3.3,1.5-3.9l0.9-0.6l1.2-0.3l0.9-0.6l1.2-0.3l0.9-0.6h0.6
				C186.67,79.53,188.47,80.43,189.07,81.93z"/>
			<polygon fill="#4D4D4D" points="180.85,138.18 156.46,174.01 171.72,151.53 			"/>
			<path fill="#2A2D40" d="M180.85,138.18l-9.13,13.35l8.35-12.29C180.32,138.87,180.58,138.52,180.85,138.18z"/>
			<polygon fill="#CFA600" points="180.37,363.74 174.97,369.14 159.96,354.14 165.36,348.74 170.47,353.84 170.57,353.95 
				175.27,358.94 			"/>
			<polygon fill="#CFA600" points="180.37,363.74 175.27,358.94 175.42,358.79 			"/>
			<polygon fill="#454545" points="179.26,194.02 172.12,204.54 147.21,187.62 154.34,177.12 154.35,177.1 			"/>
			<path fill="#4E5A62" d="M174.97,420.47c1.5,0.9,2.1,2.7,1.5,4.2c-0.9,1.5-2.7,2.4-4.2,1.5l-0.6-0.3l-0.9-0.3l-0.9-0.601l-1.2-0.6
				l-0.9-0.601l-1.21-0.609c-1.5-0.601-2.1-2.7-1.2-4.2c0.91-1.5,2.71-2.1,4.2-1.2l0.91,0.61l1.2,0.59l0.9,0.31l0.9,0.591l1.2,0.609
				H174.97z"/>
			<polygon fill="#CFA600" points="175.42,358.79 175.27,358.94 170.57,353.95 			"/>
			<polygon fill="#2A2D40" points="180.37,363.74 262.68,281.57 262.781,281.63 167.77,376.65 174.97,369.14 			"/>
			<path fill="#CC3300" d="M174.97,369.14l-7.2,7.511c-3.66,3.649-8.01,3.869-11.55,2.189c-0.22-0.1-0.44-0.21-0.65-0.33
				c-0.98-0.54-1.9-1.229-2.7-2.05c-0.13-0.13-0.26-0.26-0.38-0.4c-0.01,0-0.01-0.01-0.02-0.02c-0.35-0.4-0.69-0.82-0.99-1.26
				c-0.12-0.16-0.22-0.32-0.32-0.48c-0.18-0.3-0.35-0.6-0.51-0.92c-0.09-0.16-0.17-0.32-0.23-0.49c-1.55-3.51-1.3-7.779,2.16-11.37
				c0.05-0.05,0.1-0.1,0.18-0.18l7.2-7.2L174.97,369.14z"/>
			
				<rect x="149.714" y="186.294" transform="matrix(0.5619 -0.8272 0.8272 0.5619 -98.1775 217.3166)" fill="#454545" width="12.742" height="30.113"/>
			<polygon fill="#51A8B1" points="154.28,177.05 171.72,151.53 156.46,174.01 154.35,177.1 			"/>
			<path fill="#4E5A62" d="M166.56,92.44c0.9,1.5,0.31,3.3-1.2,4.2l-0.6,0.3l-0.89,0.6l-0.91,0.6l-1.2,0.6l-0.9,0.6l-0.9,0.6
				c-1.5,0.9-3.3,0.3-4.2-1.2c-0.9-1.5-0.3-3.3,0.9-4.2l1.2-0.6l0.9-0.6l0.9-0.6l0.9-0.6l1.2-0.6l0.6-0.3
				C163.87,90.33,165.67,90.94,166.56,92.44z"/>
			
				<rect x="152.437" y="191.598" transform="matrix(0.5807 -0.8141 0.8141 0.5807 -104.3065 210.7874)" fill="#454545" width="0.086" height="30.113"/>
			<path fill="#454545" d="M164.91,215.15L136,257.73l-17.26-11.721c-0.13-0.09-0.26-0.19-0.39-0.28c-0.16-0.13-0.31-0.26-0.46-0.4
				c-3.38-3.21-3.27-9.72,0.44-15.19L140,198.23L164.91,215.15z"/>
			<path fill="#51A8B1" d="M155.57,378.51c0.21,0.12,0.43,0.23,0.65,0.33C156,378.74,155.78,378.63,155.57,378.51z"/>
			<path fill="#4E5A62" d="M153.96,408.46c1.2,0.9,1.8,2.7,0.6,4.2c-0.9,1.5-2.7,1.8-4.2,0.899l-0.3-0.3l-0.9-0.6l-0.9-0.601
				l-0.9-0.6l-1.2-0.9l-0.91-0.6c-1.49-1.2-1.79-3-0.9-4.5c1.21-1.2,3-1.5,4.51-0.6l0.9,0.6l0.9,0.9l0.9,0.6l0.9,0.6l1.2,0.601
				L153.96,408.46z"/>
			<polygon fill="#454545" points="154.34,177.12 147.21,187.62 147.19,187.61 			"/>
			<polygon fill="#FED267" points="154.34,177.12 147.19,187.61 135.7,179.8 142.79,169.35 142.84,169.28 148.02,172.8 
				154.26,177.07 154.28,177.05 154.35,177.1 			"/>
			<polygon fill="#2A2D40" points="154.26,177.07 148.02,172.8 154.28,177.05 			"/>
			<path fill="#51A8B1" d="M153.14,269.38c3.88,2.63,9.82,0.79,13.86-4.1l-1.03,1.52c-2.71,4.2-8.71,5.41-12.91,2.71l-17.11-11.71
				l0.05-0.069L153.14,269.38z"/>
			<path fill="#51A8B1" d="M152.49,376.06c0.12,0.141,0.25,0.271,0.38,0.4C152.74,376.34,152.61,376.2,152.49,376.06z"/>
			<path fill="#51A8B1" d="M151.48,374.78c0.3,0.439,0.64,0.859,0.99,1.26C152.11,375.64,151.77,375.22,151.48,374.78z"/>
			<path fill="#51A8B1" d="M150.65,373.38c0.16,0.32,0.33,0.62,0.51,0.92C150.97,374,150.8,373.7,150.65,373.38z"/>
			<path fill="#51A8B1" d="M152.58,361.52c-3.46,3.591-3.71,7.86-2.16,11.37c-1.47-3.279-1.37-7.22,1.44-10.649l0.3-0.3
				C152.38,361.72,152.44,361.66,152.58,361.52z"/>
			<polygon fill="#51A8B1" points="148.02,172.8 142.84,169.28 142.85,169.26 			"/>
			<polygon fill="#454545" points="147.21,187.62 140.05,198.16 140.02,198.14 147.19,187.61 			"/>
			<polygon fill="#E5BD5D" points="147.19,187.61 140.02,198.14 128.54,190.34 135.7,179.8 			"/>
			<path fill="#4E5A62" d="M145.56,105.94c0.9,1.2,0.9,3.3-0.61,4.2l-0.29,0.3l-0.9,0.6l-0.91,0.9l-0.89,0.6l-0.91,0.61l-0.9,0.89
				c-0.52,0.4-1.22,0.62-1.94,0.62c-0.92,0-1.88-0.37-2.56-1.22c-0.9-1.19-0.9-3.3,0.6-4.2v-0.3l0.9-0.6l0.9-0.6l0.9-0.9l0.9-0.6
				l0.9-0.6l0.3-0.3C142.56,104.14,144.35,104.44,145.56,105.94z"/>
			<polygon fill="#51A8B1" points="142.79,169.35 135.7,179.8 135.65,179.77 			"/>
			
				<rect x="139.967" y="198.167" transform="matrix(0.5807 -0.8141 0.8141 0.5807 -102.6396 197.084)" fill="#454545" width="0.086" height="0.036"/>
			<polygon fill="#51A8B1" points="139.97,198.21 117.08,231.82 139.83,198.11 			"/>
			<polygon fill="#FED267" points="139.85,198.08 128.54,190.34 140.02,198.14 139.97,198.21 139.83,198.11 			"/>
			<polygon fill="#2A2D40" points="139.85,198.08 139.83,198.11 128.49,190.41 128.54,190.34 			"/>
			<polygon fill="#E5BD5D" points="135.7,179.8 128.54,190.34 128.45,190.28 135.65,179.77 			"/>
			<path fill="#4E5A62" d="M134.45,393.45c1.5,1.2,1.5,3.01,0.3,4.21c-1.2,1.5-3,1.5-4.2,0.3h-0.3l-0.9-0.9l-0.9-0.6l-0.6-0.9
				l-0.9-0.6l-0.9-0.9l-0.3-0.31c-1.2-1.2-1.2-3,0-4.5c0.9-1.2,3-1.2,4.2,0l0.3,0.3l0.9,0.9l0.9,0.6l0.6,0.601l0.9,0.899l0.9,0.601
				V393.45z"/>
			<path fill="#4E5A62" d="M126.65,121.85c1.2,1.2,1.2,3.3,0,4.5h-0.3l-0.6,0.9l-0.9,0.6l-0.9,0.9l-0.6,0.9l-0.9,0.6v0.3
				c-1.2,1.5-3.3,1.5-4.51,0.3c-1.2-1.2-1.5-3.3-0.29-4.5l0.29-0.3l0.9-0.9l0.91-0.6l0.6-0.9l0.9-0.9l0.6-0.6l0.3-0.3
				C123.35,120.65,125.45,120.65,126.65,121.85z"/>
			<path fill="#454545" d="M118.74,246.01L136,257.73l-0.05,0.069l-17.11-11.7c-0.17-0.12-0.33-0.24-0.49-0.37
				C118.48,245.82,118.61,245.92,118.74,246.01z"/>
			<path fill="#4E5A62" d="M117.35,376.04c1.19,1.21,0.9,3.31-0.3,4.51c-1.2,0.9-3.3,0.9-4.51-0.6l-0.6-0.601l-0.6-0.899l-0.9-0.9
				l-0.6-0.899l-0.9-0.9l-0.3-0.6c-1.2-1.2-0.9-3.311,0.31-4.2c1.49-1.2,3.29-0.9,4.49,0.3l0.31,0.6l0.89,0.9l0.61,0.89l0.6,0.91
				l0.9,0.601L117.35,376.04z"/>
			<path fill="#51A8B1" d="M117.08,231.82l-0.64,0.94L117.08,231.82z"/>
			<path fill="#454545" d="M118.33,230.14c-3.71,5.47-3.82,11.98-0.44,15.19c-3.42-3.13-4.23-8.28-1.74-12.14l0.29-0.43l0.64-0.94
				l22.89-33.61l0.03,0.02L118.33,230.14z"/>
			<path fill="#2A2D40" d="M117.08,231.82l-0.64,0.94l-0.29,0.43c-2.49,3.86-1.68,9.01,1.74,12.14c0.15,0.14,0.3,0.27,0.46,0.4
				c0.16,0.13,0.32,0.25,0.49,0.37l17.11,11.7l17.11,11.71c4.2,2.7,10.2,1.49,12.91-2.71l1.03-1.52c0.37-0.431,0.71-0.9,1.04-1.38
				l21.66-31.891l12.52,8.49l42.33,28.75l-79.19,79.49l-5.4,5.399l-7.2,7.2c-0.08,0.08-0.13,0.13-0.18,0.18
				c-0.14,0.141-0.2,0.2-0.42,0.421l-0.3,0.3c-2.81,3.43-2.91,7.37-1.44,10.649c0.06,0.17,0.14,0.33,0.23,0.49
				c0.15,0.32,0.32,0.62,0.51,0.92c0.1,0.16,0.2,0.32,0.32,0.48c0.29,0.439,0.63,0.859,0.99,1.26c0.01,0.01,0.01,0.02,0.02,0.02
				c0.12,0.141,0.25,0.28,0.38,0.4c0.8,0.82,1.72,1.51,2.7,2.05c0.21,0.12,0.43,0.23,0.65,0.33c3.54,1.68,7.89,1.46,11.55-2.189
				l95.01-95.021l1.149,0.78l119.04,80.87l11.96-17.62l2.42-3.521L281.21,263.2l78.63-78.63l16.46-31.71l0.05-0.1l-30.29,15.59
				l-0.609,0.31l-0.01,0.01h-0.011l-82.489,82.19l-58.811-39.95l8.04-11.97l17.61-25.93c0.49-0.73,0.93-1.48,1.3-2.23l0.61-0.91
				c2.55-3.57,2.07-8.22-0.71-11.19c-0.44-0.59-0.98-1.11-1.61-1.54l-34.29-23.29c-0.19-0.13-0.37-0.26-0.57-0.37
				c-4.16-2.52-9.76-1.24-12.34,2.77l-1.28,1.88l-0.04,0.05c-0.27,0.34-0.53,0.69-0.78,1.06l-8.35,12.29l-17.44,25.52l-6.26-4.25
				l-5.17-3.54l-0.01,0.02l-0.05,0.07l-7.14,10.42l-7.2,10.51l0.09,0.06l-0.05,0.07l11.34,7.7L117.08,231.82z M152.16,270.71
				l-34.51-23.41c-4.8-3.3-6.31-10.21-2.7-15.01l22.8-33.61l-10.2-6.91c-0.9-0.59-0.9-1.49-0.6-2.4l14.41-21
				c0.6-0.9,1.49-0.9,2.4-0.6l10.2,6.9l26.71-39.31c3.31-5.11,10.21-6.31,15.31-3.01l34.21,23.41c5.1,3.3,6.3,10.21,3,15.31
				l-26.71,39.32l56.42,38.41l81.33-81.34c0,0,0-0.3,0.3-0.3l23.71-12l7.5-3.9c0.609-0.3,1.2-0.3,1.81,0.3
				c0.601,0.6,0.601,1.2,0.3,2.1l-16.51,31.81c0,0-0.3,0-0.3,0.3l-77.43,77.13l114.64,77.729c0.9,0.601,0.9,1.811,0.6,2.4
				l-14.399,21.31c-0.601,0.601-1.5,0.9-2.4,0.3L262.91,283.91l-93.94,93.939c-3,3-7.5,4.5-11.7,3.301
				c-2.41-0.9-4.51-2.101-6.31-3.9c-3.9-4.8-4.5-11.11-0.6-15.91c0.3-0.3,0.3-0.6,0.6-0.6c0-0.3,0.3-0.3,0.6-0.601l90.63-90.63
				l-51.91-35.12L167.47,268C163.87,272.81,157.26,274.31,152.16,270.71z"/>
			<path fill="#4E5A62" d="M109.84,140.15c1.5,1.2,1.5,3,0.6,4.51l-0.6,0.9l-0.6,0.9l-0.9,0.89l-0.6,0.91l-0.6,0.9l-0.3,0.3
				c-0.9,1.5-3,1.8-4.5,0.9c-1.2-1.2-1.5-3.01-0.6-4.5l0.3-0.3l0.6-1.21l0.9-0.89l0.6-0.9l0.6-0.9l0.6-0.91
				C106.54,139.56,108.34,139.25,109.84,140.15z"/>
			<path fill="#4E5A62" d="M102.64,356.54c0.9,1.5,0.6,3.3-0.9,4.2c-1.5,0.899-3.3,0.6-4.2-0.9l-0.6-0.6l-0.6-0.9l-0.6-0.899
				l-0.6-1.2l-0.6-0.9l-0.6-0.6c-0.9-1.5-0.3-3.601,1.2-4.5c1.5-0.91,3.3-0.3,4.2,1.2l0.6,0.6l0.3,0.9l0.6,0.899l0.6,1.2l0.6,0.9
				L102.64,356.54z"/>
			<path fill="#4E5A62" d="M95.74,160.56c1.5,0.9,2.1,3,1.2,4.5l-0.6,0.61l-0.6,1.2l-0.3,0.9l-0.6,0.89l-0.61,0.9l-0.29,0.61
				c-0.9,1.8-2.7,2.1-4.21,1.5c-1.5-0.9-2.1-2.7-1.19-4.21l0.3-0.59l0.59-1.2l0.6-0.91l0.3-0.89l0.61-1.21l0.6-0.89
				C92.43,160.26,94.23,159.96,95.74,160.56z"/>
			<path fill="#4E5A62" d="M90.64,335.23c0.6,1.5,0,3.3-1.51,4.199c-1.5,0.601-3.3,0-4.2-1.5l-0.29-0.6l-0.61-1.2l-0.3-0.899
				l-0.6-1.2l-0.3-0.9l-0.6-0.899c-0.6-1.5,0.3-3.301,1.8-4.2c1.5-0.601,3.3,0,3.9,1.8l0.61,0.6l0.3,1.2l0.59,0.9l0.3,0.899l0.6,1.2
				L90.64,335.23z"/>
			<path fill="#4E5A62" d="M84.33,182.77c1.8,0.6,2.41,2.4,1.8,4.2l-0.3,0.91l-0.3,0.89l-0.6,1.21l-0.29,0.89l-0.31,1.21l-0.3,0.6
				c-0.6,1.5-2.4,2.4-3.9,1.8c-1.8-0.61-2.7-2.4-2.1-3.9l0.3-0.91l0.3-0.9l0.6-1.2l0.3-0.9l0.6-1.2l0.3-0.9
				C81.03,183.07,82.83,182.17,84.33,182.77z"/>
			<path fill="#4E5A62" d="M81.63,312.72c0.3,1.5-0.3,3.311-2.1,3.9c-1.5,0.3-3.3-0.59-3.9-2.101l-0.3-0.899l-0.3-1.2l-0.3-1.2
				l-0.3-0.899l-0.3-1.2l-0.3-0.601c-0.6-1.8,0.3-3.3,2.1-3.899c1.5-0.601,3.3,0.6,3.9,2.1v0.601l0.3,1.199l0.6,0.9l0.3,1.2l0.3,1.2
				L81.63,312.72z"/>
			<path fill="#4E5A62" d="M76.23,206.18c1.8,0.6,2.7,2.4,2.4,3.9l-0.3,0.3l-0.3,0.9v1.21l-0.3,1.19l-0.3,0.91l-0.3,1.19v0.3
				c-0.3,1.51-2.1,2.71-3.9,2.41c-1.5-0.61-2.7-2.11-2.1-3.9v-0.3l0.3-0.91l0.3-1.19v-1.21l0.3-1.2l0.3-1.2
				C72.93,206.78,74.73,205.88,76.23,206.18z"/>
			<path fill="#4E5A62" d="M75.33,287.51l0.3,0.9v0.6c0.3,1.5-0.9,3.3-2.4,3.601c-1.8,0.31-3.31-0.9-3.6-2.7l-0.3-0.3v-1.2l-0.3-1.2
				l-0.3-1.2v-1.2l-0.3-0.899v-0.3c-0.3-1.5,0.9-3,2.7-3.301c1.8-0.3,3.3,0.9,3.6,2.4v0.3v0.9l0.3,1.2v1.199L75.33,287.51z"/>
			<path fill="#4E5A62" d="M74.13,234.09l-0.3,0.9v1.2l-0.3,1.2v1.21v1.19l-0.3,0.3c0,1.81-1.5,3.01-3.3,3.01
				c-1.5-0.3-3-1.8-2.7-3.31v-0.6v-1.2l0.3-1.2v-1.2l0.3-1.2v-0.9h-0.01c0.3-1.8,1.81-3,3.31-2.7
				C72.93,230.79,74.13,232.29,74.13,234.09z"/>
			<path fill="#4E5A62" d="M72.93,264.7c0,1.5-1.2,3-3.01,3.3c-1.8,0-3.29-1.5-3.29-3v-0.3v-1.2v-1.2v-1.2V259.9v-1.2
				c-0.3-1.8,1.19-3.3,3-3.3c1.5,0,3,1.5,3,3v1.199v1.2v1.2l0.3,1.2v1.2V264.7z"/>
		</g>
		<g>
		</g>
	</g>
</g>
</svg>
