<?xml version="1.0" encoding="utf-8"?>
<!-- Generator: Adobe Illustrator 16.0.0, SVG Export Plug-In . SVG Version: 6.00 Build 0)  -->
<!DOCTYPE svg PUBLIC "-//W3C//DTD SVG 1.1//EN" "http://www.w3.org/Graphics/SVG/1.1/DTD/svg11.dtd">
<svg version="1.1" id="Calque_1" xmlns="http://www.w3.org/2000/svg" xmlns:xlink="http://www.w3.org/1999/xlink" x="0px" y="0px"
	 width="73.63px" height="75.673px" viewBox="0 0 73.63 75.673" enable-background="new 0 0 73.63 75.673" xml:space="preserve">
<g>
	<path fill="#EF484A" d="M57.409,43.194c-0.481,0.395-1.083,0.607-1.696,0.607c-0.176,0-0.352-0.02-0.526-0.054l-12.862-2.573v6.893
		c0,0.617,0.425,1.115,0.992,1.268l-0.004,0.018l-0.033,0.028c0.078,0.031,0.166,0.019,0.244,0.058l5.354,2.678
		c0.908,0.455,1.48,1.38,1.48,2.395v2.678c0,1.48-1.198,2.678-2.678,2.678l-10.711-2.678L26.26,59.866
		c-1.479,0-2.677-1.197-2.677-2.678V54.51c0-1.015,0.571-1.939,1.479-2.395l5.355-2.678c0.076-0.039,0.164-0.026,0.242-0.058
		l-0.032-0.028l-0.004-0.018c0.566-0.152,0.991-0.65,0.991-1.268v-6.893l-12.862,2.573c-0.175,0.034-0.351,0.054-0.525,0.054
		c-0.612,0-1.214-0.213-1.696-0.607c-0.622-0.51-0.981-1.268-0.981-2.071v-2.677c0-0.941,0.493-1.813,1.3-2.297l13.774-8.233
		c0.566-0.154,0.991-0.651,0.991-1.268V22.38c0-2.957,2.396-5.355,5.354-5.355c2.959,0,5.355,2.398,5.355,5.355v4.268
		c0,0.616,0.425,1.113,0.992,1.268l13.774,8.233c0.806,0.484,1.3,1.355,1.3,2.297v2.677C58.391,41.926,58.03,42.684,57.409,43.194z
		 M55.713,38.446c0,0-15.024-8.562-15.28-8.818c-0.257-0.256-0.448-0.554-0.579-0.87s-0.206-0.659-0.206-1.023V22.38
		c0-1.478-1.202-2.677-2.679-2.677c-1.475,0-2.676,1.199-2.676,2.677v5.354c0,0.365-0.076,0.707-0.207,1.023
		s-0.321,0.614-0.578,0.871c-0.256,0.256-15.28,8.817-15.28,8.817v2.677l13.386-2.677l0.002,0.002v-0.002
		c0.363,0,0.707,0.076,1.022,0.205c0.315,0.132,0.614,0.322,0.87,0.579c0.257,0.256,0.447,0.554,0.578,0.87s0.207,0.659,0.207,1.022
		v8.033c0,0.362-0.076,0.704-0.207,1.021s-0.321,0.614-0.578,0.872c-0.256,0.256-7.248,3.461-7.248,3.461v2.678l10.709-2.678
		l10.711,2.678V54.51c0,0-6.991-3.205-7.247-3.463c-0.257-0.256-0.448-0.553-0.579-0.87s-0.206-0.659-0.206-1.021V41.12
		c0.001-0.363,0.075-0.703,0.206-1.02s0.322-0.614,0.579-0.871c0.256-0.256,0.554-0.446,0.87-0.578
		c0.314-0.129,0.656-0.205,1.02-0.205h0.002l13.389,2.677V38.446z"/>
	<circle fill="none" stroke="#EF484A" stroke-width="3" stroke-miterlimit="10" cx="36.971" cy="38.446" r="35"/>
</g>
</svg>
