<?xml version="1.0" ?><svg enable-background="new 0 0 32 32" id="Layer_1" version="1.1" viewBox="0 0 32 32" xml:space="preserve" xmlns="http://www.w3.org/2000/svg" xmlns:xlink="http://www.w3.org/1999/xlink"><g id="Layer_4_copy_4"><g><path d="M16,32c8.837,0,16-7.163,16-16S24.837,0,16,0S0,7.163,0,16S7.163,32,16,32z M16,0.75    c8.409,0,15.25,6.841,15.25,15.25S24.409,31.25,16,31.25S0.75,24.409,0.75,16S7.591,0.75,16,0.75z" fill="#414753"/><path d="M16,29.57c7.495,0,13.57-6.076,13.57-13.57S23.495,2.43,16,2.43S2.43,8.505,2.43,16S8.505,29.57,16,29.57z     M16,3.18c7.069,0,12.82,5.751,12.82,12.82S23.069,28.82,16,28.82S3.18,23.069,3.18,16S8.931,3.18,16,3.18z" fill="#414753"/><path d="M9.349,20.988C8.84,21,8.421,21.046,8.421,21.08c0,0.114,1.381,0.755,2.184,1.007    c2.411,0.744,5.275,0.423,7.425-0.847c1.528-0.904,3.056-2.701,3.769-4.441c0.385-0.926,0.77-2.62,0.77-3.432    c0-0.527,0.034-0.595,0.668-1.225c0.374-0.366,0.724-0.766,0.792-0.881c0.113-0.218,0.102-0.218-0.475-0.023    c-0.962,0.344-1.098,0.298-0.622-0.217c0.351-0.366,0.77-1.03,0.77-1.225c0-0.034-0.17,0.023-0.362,0.126    c-0.204,0.115-0.656,0.286-0.996,0.389l-0.611,0.195l-0.555-0.378c-0.306-0.206-0.735-0.435-0.962-0.503    c-0.577-0.16-1.461-0.137-1.981,0.046c-1.415,0.515-2.309,1.843-2.207,3.296l0.034,0.561l-0.566-0.069    c-2.06-0.263-3.859-1.155-5.388-2.655L9.36,10.06l-0.192,0.549c-0.407,1.225-0.147,2.518,0.702,3.387    c0.453,0.481,0.351,0.549-0.43,0.263c-0.272-0.091-0.509-0.16-0.532-0.126c-0.079,0.081,0.192,1.121,0.407,1.534    c0.294,0.573,0.894,1.133,1.551,1.465l0.555,0.263l-0.656,0.011c-0.634,0-0.656,0.011-0.588,0.252    c0.226,0.744,1.12,1.534,2.116,1.877l0.702,0.24l-0.611,0.366C11.478,20.669,10.414,20.966,9.349,20.988z" fill="#414753"/></g></g></svg>