<?xml version="1.0" encoding="utf-8"?>
<!-- Generator: Adobe Illustrator 16.0.0, SVG Export Plug-In . SVG Version: 6.00 Build 0)  -->
<!DOCTYPE svg PUBLIC "-//W3C//DTD SVG 1.1//EN" "http://www.w3.org/Graphics/SVG/1.1/DTD/svg11.dtd">
<svg version="1.1" id="Layer_1" xmlns="http://www.w3.org/2000/svg" xmlns:xlink="http://www.w3.org/1999/xlink" x="0px" y="0px"
	 width="320px" height="480px" viewBox="0 0 320 480" enable-background="new 0 0 320 480" xml:space="preserve">
<path fill="#FFFFFF" d="M161.002,80c-88.372,0-160,71.634-160,160c0,88.367,71.628,160,160,160c88.366,0,160-71.633,160-160
	C321.002,151.634,249.368,80,161.002,80z M161.002,392.5c-84.087,0-152.5-68.407-152.5-152.5s68.413-152.5,152.5-152.5
	c84.093,0,152.5,68.407,152.5,152.5S245.095,392.5,161.002,392.5z"/>
<path fill="#FFFFFF" d="M161,104.304c-74.95,0-135.701,60.747-135.701,135.696c0,74.95,60.762,135.696,135.701,135.696
	c74.95,0,135.705-60.757,135.705-135.696C296.705,165.051,235.95,104.304,161,104.304z M161,368.196
	c-70.69,0-128.201-57.511-128.201-128.196S90.31,111.804,161,111.804c70.686,0,128.205,57.51,128.205,128.196
	S231.686,368.196,161,368.196z"/>
<path fill="#FFFFFF" d="M91.961,289.88c-5.091,0.12-9.28,0.58-9.28,0.92c0,1.14,13.81,7.55,21.84,10.07
	c24.11,7.44,52.75,4.229,74.25-8.47c15.28-9.041,30.56-27.01,37.689-44.41c3.851-9.26,7.7-26.2,7.7-34.32
	c0-5.27,0.34-5.949,6.681-12.25c3.739-3.66,7.239-7.66,7.92-8.811c1.13-2.18,1.02-2.18-4.75-0.229
	c-9.62,3.44-10.98,2.979-6.221-2.17c3.511-3.66,7.7-10.3,7.7-12.25c0-0.34-1.7,0.229-3.62,1.261c-2.04,1.149-6.56,2.859-9.96,3.889
	l-6.109,1.951l-5.551-3.781c-3.06-2.06-7.35-4.35-9.619-5.029c-5.771-1.6-14.61-1.37-19.811,0.46
	c-14.149,5.149-23.09,18.431-22.07,32.96l0.341,5.609l-5.66-0.689c-20.601-2.63-38.59-11.55-53.88-26.55l-7.48-7.44l-1.92,5.49
	c-4.07,12.25-1.47,25.18,7.021,33.87c4.529,4.81,3.51,5.49-4.301,2.63c-2.72-0.91-5.09-1.6-5.319-1.26
	c-0.79,0.811,1.92,11.21,4.069,15.34c2.94,5.73,8.94,11.33,15.511,14.65l5.55,2.63l-6.561,0.11c-6.34,0-6.56,0.109-5.88,2.52
	c2.26,7.439,11.2,15.34,21.16,18.77l7.021,2.4l-6.11,3.66C113.25,286.689,102.611,289.66,91.961,289.88z"/>
</svg>
