<?xml version="1.0" encoding="utf-8"?>
<!-- Generator: Adobe Illustrator 16.0.0, SVG Export Plug-In . SVG Version: 6.00 Build 0)  -->
<!DOCTYPE svg PUBLIC "-//W3C//DTD SVG 1.1//EN" "http://www.w3.org/Graphics/SVG/1.1/DTD/svg11.dtd">
<svg version="1.1" id="Web_Development" xmlns="http://www.w3.org/2000/svg" xmlns:xlink="http://www.w3.org/1999/xlink" x="0px"
	 y="0px" width="512px" height="512px" viewBox="0 0 512 512" enable-background="new 0 0 512 512" xml:space="preserve">
<g id="XMLID_1_">
	<g>
		<path fill="#ED5758" d="M256,0c140.02,0,253.57,114.65,253.57,256c0,141.36-113.551,256-253.57,256
			C115.98,512,2.43,397.36,2.43,256C2.43,114.65,115.98,0,256,0z"/>
	</g>
	<g>
	</g>
</g>
<g id="Web_Development_1_">
	<path fill="#757575" d="M348.989,362.773c0,0.651,0.32,1.308,0.32,1.959c0,18.287-45.282,32.98-101.237,32.98
		c-55.626,0-100.906-14.693-100.906-32.98c0-0.651,0-1.308,0-1.959c0-0.326,0-0.979,0-1.633c0-18.283,45.28-32.979,100.906-32.979
		c55.955,0,101.237,14.695,101.237,32.979C349.31,361.796,348.989,362.447,348.989,362.773z"/>
	<path fill="#696969" d="M348.989,362.773c0,0.651,0.32,1.308,0.32,1.959c0,18.287-45.282,32.98-101.237,32.98
		c-2.263,0-4.852,0-7.114,0v-69.551c2.263,0,4.852,0,7.114,0c55.955,0,101.237,14.695,101.237,32.979
		C349.31,361.796,348.989,362.447,348.989,362.773z"/>
	<path fill="#757575" d="M240.958,328.163c2.263,0,4.852,0,7.114,0c54.016,0,98.003,13.712,100.917,31.348
		c-2.913,17.304-46.9,31.021-100.917,31.021c-2.263,0-4.852,0-7.114,0V328.163z"/>
	<path fill="#8D8D8D" d="M248.073,324.572c55.736,0,100.917,14.766,100.917,32.977c0,18.217-45.181,32.98-100.917,32.98
		c-55.729,0-100.906-14.766-100.906-32.98C147.166,339.338,192.342,324.572,248.073,324.572z"/>
	<path fill="#7F7F7F" d="M248.073,324.572c55.955,0,101.237,14.693,101.237,32.977c0,18.287-45.282,32.98-101.237,32.98
		c-2.263,0-4.852,0-7.114,0v-65.957C243.221,324.572,245.81,324.572,248.073,324.572z"/>
	<polygon fill="#CCCCCC" points="211.526,261.227 284.949,261.227 284.949,349.387 211.526,349.387 	"/>
	<polygon fill="#B8B8B8" points="284.949,308.57 284.949,349.387 240.958,349.387 240.958,308.57 	"/>
	<polygon fill="#B8B8B8" points="217.022,266.775 280.742,266.775 280.742,343.837 217.022,343.837 	"/>
	<polygon fill="#A6A6A6" points="280.742,308.57 280.742,343.837 240.958,343.837 240.958,308.57 	"/>
	<path fill="#A9ABAE" d="M65.009,54.86h367.746c3.56,0,6.797,2.936,6.797,6.856v239.998c0,3.92-3.237,6.856-6.797,6.856H65.009
		c-3.553,0-6.466-2.938-6.466-6.856V61.716C58.542,57.796,61.456,54.86,65.009,54.86z"/>
	<path fill="#4E5A62" d="M79.565,64.98h344.781c2.913,0,5.177,2.285,5.177,5.222v217.474c0,2.936-2.264,5.221-5.177,5.221H73.423
		c-2.914,0-5.177-2.285-5.177-5.221V76.411C68.247,69.878,73.423,64.98,79.565,64.98z"/>
	<path fill="#CCCCCC" d="M249.047,294.529c2.854,0,5.176,2.34,5.176,5.228c0,2.884-2.321,5.222-5.176,5.222
		c-2.86,0-5.177-2.338-5.177-5.222C243.87,296.869,246.187,294.529,249.047,294.529z"/>
	<path fill="#B3B3B3" d="M249.047,296.16c1.966,0,3.553,1.611,3.553,3.597c0,1.979-1.587,3.587-3.553,3.587
		c-1.965,0-3.563-1.607-3.563-3.587C245.484,297.771,247.082,296.16,249.047,296.16z"/>
	<path fill="#C2C3C5" d="M89.593,74.776h18.434v18.615H89.593V74.776z M111.589,245.226h18.434v18.609h-18.434V245.226z
		 M89.593,245.226h18.434v18.609H89.593V245.226z M111.589,223.998h18.434v18.614h-18.434V223.998z M89.593,223.998h18.434v18.614
		H89.593V223.998z M111.589,202.447h18.434v18.942h-18.434V202.447z M89.593,202.447h18.434v18.942H89.593V202.447z
		 M111.589,181.224h18.434v18.61h-18.434V181.224z M89.593,181.224h18.434v18.61H89.593V181.224z M111.589,160h18.434v18.61h-18.434
		V160z M89.593,160h18.434v18.61H89.593V160z M111.589,138.777h18.434v18.61h-18.434V138.777z M89.593,138.777h18.434v18.61H89.593
		V138.777z M111.589,117.227h18.434v18.61h-18.434V117.227z M89.593,117.227h18.434v18.61H89.593V117.227z M111.589,96h18.434
		v18.615h-18.434V96z M89.593,96h18.434v18.615H89.593V96z M111.589,74.776h18.434v18.615h-18.434V74.776z"/>
	<rect x="357.073" y="284.407" fill="#CBD0D4" width="54.984" height="39.509"/>
	<rect x="361.926" y="289.307" fill="#ED5758" width="45.457" height="29.901"/>
	<rect x="420.469" y="270.367" fill="#CBD0D4" width="54.979" height="39.509"/>
	<rect x="425.315" y="275.266" fill="#ED5758" width="45.462" height="29.903"/>
	<rect x="343.166" y="200.817" fill="#E6E7E8" width="124.848" height="89.794"/>
	<rect x="353.841" y="211.592" fill="#ED5758" width="103.175" height="67.916"/>
	<path fill="#ED5758" d="M227.051,5.549H120.968c-9.059,0-16.174,7.184-16.174,16.001v62.043c0,9.141,7.115,16.325,16.174,16.325
		h81.503l23.61,30.692V99.919h0.97c8.734,0,16.169-7.184,16.169-16.325V21.551C243.221,12.733,235.785,5.549,227.051,5.549z"/>
	<g transform="matrix(0.999998 0 0 1 -395.915 -526.481)">
		<g enable-background="new    ">
			<path fill="#373435" d="M530.41,591.304h-4.922v-31.627h4.922v13.554h5.592v-13.554h5.011v31.627h-5.011V577.75h-5.592V591.304z"
				/>
			<path fill="#373435" d="M543.162,559.677h15.211v4.518h-5.146v27.109h-4.921v-27.109h-5.145V559.677L543.162,559.677z"/>
			<path fill="#373435" d="M570.947,582.132l3.355-22.455h6.845v31.627h-4.653v-22.681l-3.399,22.681h-4.653l-3.669-22.365v22.365
				h-4.295v-31.627h6.845L570.947,582.132z"/>
			<path fill="#373435" d="M584.729,559.677h4.921v27.109h8.099v4.518h-13.02V559.677L584.729,559.677z"/>
			<path fill="#373435" d="M606.518,559.315c4.787,0,7.248,2.892,7.248,7.952v0.994h-4.653v-1.31c0-2.259-0.895-3.118-2.461-3.118
				c-1.565,0-2.46,0.858-2.46,3.118c0,6.506,9.619,7.726,9.619,16.762c0,5.06-2.505,7.952-7.337,7.952s-7.337-2.892-7.337-7.952
				v-1.943h4.653v2.259c0,2.259,0.983,3.073,2.55,3.073c1.565,0,2.55-0.813,2.55-3.073c0-6.506-9.619-7.726-9.619-16.762
				C599.271,562.207,601.732,559.315,606.518,559.315z"/>
		</g>
	</g>
	<path fill="#E6E7E8" d="M270.068,235.428c0.646,1.634,0.971,2.94,1.295,4.571h7.116l0.324,8.817l-7.116,0.328
		c-0.324,1.63-0.648,3.265-1.294,4.898l6.146,3.591l-4.532,7.835l-5.821-3.592c-0.969,1.308-2.265,2.285-3.558,3.592l3.558,5.878
		l-7.761,4.57l-3.237-5.877c-1.613,0.654-3.232,0.979-4.852,1.307v6.531h-9.055v-6.204c-1.613-0.327-3.232-0.655-4.852-1.307
		l-3.233,5.55l-7.76-4.571l3.233-5.55c-1.294-0.979-2.265-1.961-3.559-3.268l-5.176,3.268l-4.527-7.839l5.177-3.264
		c-0.649-1.635-0.975-3.265-1.298-4.898h-6.143v-8.817l6.143-0.323c0.323-1.634,0.648-3.592,1.298-5.226l-5.501-3.264l4.526-7.839
		l5.826,3.268c0.969-1.311,2.264-2.285,3.553-3.268l-3.553-5.877l8.084-4.57l3.233,5.877c1.614-0.328,2.914-0.656,4.527-0.979v-6.86
		h9.055v6.86c1.619,0.323,2.913,0.979,4.532,1.306l3.558-6.205l7.761,4.57l-3.558,6.205c0.97,0.979,1.942,1.958,2.913,3.269
		l6.146-3.924l4.527,7.839L270.068,235.428z"/>
	<path fill="#D2D3D5" d="M257.544,237.833c3.852,6.518,1.742,14.952-4.712,18.844c-6.453,3.89-14.811,1.759-18.661-4.757
		c-3.856-6.514-1.746-14.952,4.708-18.84C245.335,229.188,253.688,231.318,257.544,237.833z"/>
	<path fill="#BDBFC1" d="M254.969,239.384c3.006,5.084,1.36,11.661-3.671,14.694c-5.032,3.033-11.552,1.373-14.552-3.707
		c-3.01-5.08-1.364-11.661,3.668-14.69C245.45,232.643,251.964,234.303,254.969,239.384z"/>
	<path fill="#E6E7E8" d="M309.529,224.98c0.323,0.651,0.645,1.63,0.645,2.285h3.883v4.571h-3.559
		c-0.324,0.979-0.324,1.63-0.646,2.613l3.234,1.63l-2.59,4.247l-2.911-1.958c-0.32,0.651-0.971,1.307-1.615,1.958l1.615,2.94
		l-3.88,2.286l-1.618-2.941c-0.97,0.328-1.618,0.655-2.587,0.655v3.265h-4.528v-3.265c-0.645,0-1.618-0.327-2.588-0.655
		l-1.295,2.941l-4.202-2.286l1.615-2.94c-0.646-0.327-1.29-0.979-1.615-1.634l-2.588,1.634l-2.588-3.919l2.913-1.63
		c-0.325-0.655-0.65-1.634-0.971-2.613h-2.912v-4.571h2.912c0.319-0.983,0.646-1.634,0.971-2.613l-2.913-1.634l2.263-3.919
		l2.913,1.634c0.646-0.651,1.295-1.306,1.939-1.962l-1.939-2.936l4.202-2.286l1.619,3.264c0.646-0.328,1.619-0.651,2.264-0.651
		v-3.592h4.528v3.592c0.969,0.324,1.617,0.324,2.264,0.651l1.941-3.264l3.88,2.286l-1.615,3.264c0.325,0.655,0.97,0.983,1.295,1.634
		l3.231-1.962l2.265,3.924L309.529,224.98z"/>
	<path fill="#D2D3D5" d="M303.277,226.167c1.961,3.317,0.892,7.608-2.396,9.588c-3.281,1.979-7.532,0.895-9.493-2.418
		c-1.961-3.317-0.886-7.604,2.396-9.589C297.07,221.774,301.321,222.854,303.277,226.167z"/>
	<path fill="#BDBFC1" d="M301.971,226.96c1.53,2.582,0.691,5.931-1.869,7.472c-2.558,1.545-5.873,0.7-7.403-1.886
		c-1.528-2.583-0.689-5.926,1.867-7.472C297.127,223.528,300.443,224.374,301.971,226.96z"/>
	<path fill="#E6E7E8" d="M236.105,163.592c0.649,1.962,0.975,3.592,1.299,5.549l9.055-0.328v11.107l-8.734,0.324
		c-0.32,1.962-0.645,3.919-1.294,5.876l7.44,4.571l-5.501,9.469l-7.437-4.243c-0.969,1.63-2.587,2.941-3.882,4.243l4.202,7.184
		l-9.699,5.554l-3.882-6.856c-1.939,0.651-3.879,1.302-5.822,1.63v7.839h-10.997V208c-2.264-0.328-4.203-0.979-6.142-1.63
		l-3.888,6.528l-9.38-5.554l3.563-6.528c-1.298-1.307-2.588-2.613-3.882-3.92l-6.472,3.592l-5.82-9.468l6.47-3.916
		c-0.649-1.962-1.293-3.924-1.618-5.881h-7.436l-0.325-11.099h7.761c0.325-2.285,0.969-4.571,1.618-6.533l-6.47-3.919l5.496-9.796
		l6.796,3.919c1.293-1.307,2.583-2.936,4.206-3.919l-3.888-7.184l9.381-5.549l4.206,7.184c1.943-0.651,3.883-0.979,5.821-1.307
		v-8.49h10.997v8.818c1.943,0.328,3.558,0.65,5.497,1.302l4.207-7.507l9.699,5.549l-4.527,7.839
		c1.298,0.979,2.588,2.285,3.563,3.592l7.76-4.575l5.497,9.469L236.105,163.592z"/>
	<path fill="#D2D3D5" d="M220.607,166.418c4.726,7.985,2.137,18.322-5.769,23.092c-7.914,4.77-18.154,2.157-22.878-5.828
		c-4.726-7.985-2.136-18.322,5.773-23.092S215.882,158.433,220.607,166.418z"/>
	<path fill="#BDBFC1" d="M217.453,168.318c3.686,6.227,1.667,14.288-4.501,18.008c-6.168,3.72-14.151,1.683-17.838-4.544
		c-3.686-6.227-1.667-14.288,4.502-18.008C205.784,160.054,213.772,162.091,217.453,168.318z"/>
	<rect x="269.424" y="21.878" fill="#E6E7E8" width="195.676" height="148.897"/>
	<polygon fill="#0D3652" points="269.424,21.878 465.1,21.878 465.1,41.795 269.424,41.795 	"/>
	<polygon fill="#699392" points="269.424,53.549 465.1,53.549 465.1,41.795 269.424,41.795 	"/>
	<rect x="284.949" y="124.083" fill="#607D8B" width="76.874" height="8.579"/>
	<rect x="367.098" y="124.083" fill="#607D8B" width="27.216" height="8.579"/>
	<rect x="400.091" y="124.083" fill="#607D8B" width="49.62" height="8.579"/>
	<rect x="362.896" y="136.165" fill="#607D8B" width="76.875" height="8.579"/>
	<rect x="330.551" y="136.165" fill="#607D8B" width="27.211" height="8.579"/>
	<rect x="275.245" y="136.165" fill="#607D8B" width="49.619" height="8.579"/>
	<rect x="380.359" y="147.263" fill="#607D8B" width="76.879" height="8.583"/>
	<rect x="348.015" y="147.263" fill="#607D8B" width="27.216" height="8.583"/>
	<rect x="292.709" y="147.263" fill="#607D8B" width="49.619" height="8.583"/>
	<path fill="#F48884" d="M283.655,44.08c1.96,0,3.559,1.612,3.559,3.597c0,1.985-1.598,3.587-3.559,3.587
		c-1.966,0-3.558-1.603-3.558-3.587C280.097,45.693,281.689,44.08,283.655,44.08z"/>
	<path fill="#5CC6D0" d="M293.354,44.08c1.966,0,3.559,1.612,3.559,3.597c0,1.985-1.593,3.587-3.559,3.587
		c-1.961,0-3.558-1.603-3.558-3.587C289.796,45.693,291.394,44.08,293.354,44.08z"/>
	<path fill="#A7C4D2" d="M302.412,44.08c1.966,0,3.559,1.612,3.559,3.597c0,1.985-1.593,3.587-3.559,3.587
		c-1.965,0-3.558-1.603-3.558-3.587C298.855,45.693,300.448,44.08,302.412,44.08z"/>
	<polygon fill="#537473" points="316.645,50.941 462.188,50.941 462.188,44.736 316.645,44.736 	"/>
	<rect x="278.804" y="60.409" fill="#ED5758" width="177.242" height="56.163"/>
	<path fill="#4E5A62" d="M475.448,265.141h-2.264v-64.324c0-2.941-2.264-5.226-5.171-5.226h-23.291v-19.593H465.1
		c2.914,0,5.178-2.286,5.178-5.222V21.878c0-2.936-2.264-5.222-5.178-5.222H269.424c-2.913,0-5.176,2.286-5.176,5.222v27.755
		h-15.851V21.551C248.398,9.797,238.694,0,227.051,0H120.968c-11.967,0-21.347,9.797-21.347,21.551v28.083H65.009
		c-6.466,0-11.643,5.549-11.643,12.083v239.998c0,6.855,5.176,12.082,11.643,12.082h141.345v8.49
		c-14.556,1.958-30.406,5.55-43.342,11.755c-9.055,4.242-21.021,11.754-21.021,23.508c0,0.655,0,1.308,0,1.962
		c0,0.651,0,0.979,0,1.631c0,0.654,0,1.307,0,1.633c0,0.651,0,1.308,0,1.959c0,14.693,19.082,23.513,30.725,27.428
		c21.021,7.512,45.931,10.124,68.243,10.779c2.263,0,4.852,0,7.115,0c23.935,0,50.457-2.613,73.099-9.797
		c11.967-4.246,33.313-13.061,33.313-28.41c0-0.651,0-1.308-0.324-1.959c0.324-0.326,0.324-0.979,0.324-1.633
		c0-0.65,0-0.979-0.324-1.631c0.324-0.654,0.324-1.307,0.324-1.962c0-11.754-11.967-19.266-21.346-23.508
		c-12.938-6.205-28.787-9.797-43.018-11.755v-8.49h61.774v10.12c0,2.94,2.588,5.226,5.178,5.226h54.984
		c2.909,0,5.496-2.283,5.496-5.226v-9.792c0.646,0.65,1.938,1.302,2.914,1.302h54.979c2.914,0,5.178-2.608,5.178-5.55v-39.509
		C480.625,267.426,478.362,265.141,475.448,265.141z M475.448,309.876h-54.979v-1.306h-8.41v15.346h-54.984V308.57H284.95v18.287
		c37.517,4.569,64.359,16.65,64.359,30.69c0,0.655-0.32,1.308-0.32,1.962c0,0.323,0.32,0.979,0.32,1.631
		c0,0.654-0.32,1.307-0.32,1.633c0,0.651,0.32,1.308,0.32,1.959c0,18.287-45.282,32.98-101.237,32.98c-2.263,0-4.852,0-7.114,0
		c-52.397-1.306-93.792-15.673-93.792-32.98c0-0.651,0-1.308,0-1.959c0-0.326,0-0.979,0-1.633c0-0.65,0-1.308,0-1.631
		c0-0.654,0-1.307,0-1.962c0-14.04,26.844-26.121,64.359-30.69V308.57H65.009c-3.553,0-6.466-2.938-6.466-6.856V61.716
		c0-3.92,2.914-6.856,6.466-6.856h39.785V21.55c0-8.818,7.115-16.001,16.174-16.001h106.083c8.734,0,16.169,7.184,16.169,16.001
		v33.31h26.203v-1.311V41.795V21.878H465.1v19.917v11.754v117.227h-25.548v30.041h28.462v69.55h7.435L475.448,309.876
		L475.448,309.876z"/>
	<path fill="#E6E6E6" d="M69.537,413.389c31.049,0,62.424,0,93.475,0c31.05,0,62.425,0,93.471,0c31.375,0,62.425,0,93.799,0
		c31.046,0,62.422,0,93.473,0c5.177,7.184,10.348,14.038,15.524,21.223c5.497,7.184,10.35,14.04,15.523,21.224
		c5.178,6.859,10.675,14.043,15.847,21.227c5.176,6.856,10.354,14.04,15.525,21.225c-41.721,0-83.442,0-125.167,0
		s-83.446,0-125.17,0c-41.399,0-83.123,0-124.846,0c-41.724,0-83.447,0-124.846,0c5.177-7.185,10.354-14.367,15.846-21.225
		c5.176-7.184,10.353-14.366,15.854-21.227c5.172-7.184,10.668-14.367,15.846-21.224C58.868,427.427,64.365,420.57,69.537,413.389z"
		/>
	<path fill="#CCCCCC" d="M7.761,496.978h496.475c1.618,0,2.589,2.285,2.589,4.897l0,0c0,2.614-0.971,4.898-2.589,4.898H7.761
		c-1.614,0-2.583-2.284-2.583-4.898l0,0C5.177,499.263,6.146,496.978,7.761,496.978z"/>
	<path fill="#B3B3B3" d="M7.761,497.633c-1.614,0-1.939,3.265-1.939,4.242s0.325,4.248,1.939,4.248h496.475
		c1.618,0,2.265-3.271,2.265-4.248s-0.646-4.242-2.265-4.242H7.761z"/>
	<path fill="#CFCFCF" d="M249.371,413.389h7.111c31.375,0,62.425,0,93.799,0c31.046,0,62.422,0,93.473,0
		c5.177,7.184,10.348,14.038,15.524,21.223c5.497,7.184,10.35,14.04,15.523,21.224c5.178,6.859,10.675,14.043,15.847,21.227
		c5.176,6.856,10.354,14.04,15.525,21.225c-41.721,0-83.442,0-125.167,0s-83.446,0-125.17,0h-6.466V413.389L249.371,413.389z"/>
	<path fill="#CCCCCC" d="M43.662,476.405c23.936,0,47.87,0,72.129,0c-1.618,2.939-2.914,5.878-4.203,8.816
		c-24.584,0-49.167-0.327-73.743-0.327C39.46,482.283,41.724,479.346,43.662,476.405z"/>
	<path fill="#CCCCCC" d="M120.644,476.405c7.76,0,15.521,0,23.285,0.328c-1.294,2.611-2.264,5.55-3.233,8.488
		c-8.085,0-16.174,0-23.935,0C118.055,482.283,119.35,479.346,120.644,476.405z"/>
	<path fill="#CCCCCC" d="M147.812,476.733c7.76,0,15.525,0,22.965,0c-0.974,2.94-1.618,5.877-2.588,8.816
		c-7.765,0-15.85,0-23.609-0.328C145.548,482.283,146.517,479.346,147.812,476.733z"/>
	<path fill="#CCCCCC" d="M174.654,476.733c7.766,0,15.525,0,23.286,0c-0.646,2.94-1.614,5.877-1.938,8.816
		c-8.085,0-15.847,0-23.935,0C172.715,482.61,173.685,479.675,174.654,476.733z"/>
	<path fill="#CCCCCC" d="M201.827,476.733c7.436,0,15.195,0.326,22.961,0.326c-0.325,2.938-0.65,5.878-1.294,8.813
		c-7.762,0-15.851-0.323-23.61-0.323C200.208,482.61,200.853,479.675,201.827,476.733z"/>
	<path fill="#CCCCCC" d="M228.67,477.061c7.76,0,15.524,0,23.286,0c-0.32,2.938-0.646,5.879-0.646,8.813c-8.09,0-15.85,0-23.935,0
		C227.7,482.938,228.024,479.997,228.67,477.061z"/>
	<path fill="#CCCCCC" d="M255.514,477.061c7.765,0,15.524,0,23.29,0.328c0,2.937,0,5.877,0,8.813
		c-7.766,0-15.851-0.328-23.615-0.328C255.188,482.938,255.514,479.997,255.514,477.061z"/>
	<path fill="#CCCCCC" d="M282.682,477.389c7.765,0,15.523,0,23.289,0c0,2.937,0.325,5.877,0.646,8.813c-8.086,0-15.846,0-23.935,0
		C282.682,483.266,282.682,480.324,282.682,477.389z"/>
	<path fill="#CCCCCC" d="M309.529,477.389c7.76,0,15.523,0,23.284,0c0.325,2.937,0.97,6.2,1.62,9.142
		c-8.085,0-16.171-0.327-23.937-0.327C310.173,483.266,309.853,480.324,309.529,477.389z"/>
	<path fill="#CCCCCC" d="M336.696,477.389c7.761,0.323,15.525,0.323,23.285,0.323c0.649,2.941,1.295,5.877,1.944,8.817
		c-8.085,0-15.851,0-23.936,0C337.665,483.589,337.021,480.653,336.696,477.389z"/>
	<path fill="#CCCCCC" d="M363.539,477.712c7.766,0,15.524,0,23.289,0c0.971,2.941,1.939,5.877,2.909,9.146
		c-8.085-0.329-15.846-0.329-23.931-0.329C365.158,483.589,364.189,480.653,363.539,477.712z"/>
	<path fill="#CCCCCC" d="M390.388,477.712c24.255,0,48.188,0,72.125,0.328c1.618,2.94,3.231,5.877,4.851,8.818
		c-24.579,0-49.163,0-73.742,0C392.325,483.589,391.357,480.653,390.388,477.712z"/>
	<path fill="#CCCCCC" d="M112.878,465.307c7.766,0,15.205,0,22.641,0c-1.619,2.938-2.909,5.877-4.526,8.814
		c-7.761,0-15.525,0-22.966-0.329C109.646,470.856,111.264,468.243,112.878,465.307z"/>
	<path fill="#CCCCCC" d="M139.077,465.307c7.439,0,14.88,0,22.32,0c-1.299,2.938-2.264,5.877-3.562,8.814
		c-7.761,0-15.521,0-23.286,0C136.164,471.184,137.787,468.243,139.077,465.307z"/>
	<path fill="#CCCCCC" d="M165.275,465.307c7.439,0,14.88,0,22.32,0c-0.974,2.938-1.943,5.877-2.913,8.814
		c-7.765,0-15.526,0-23.286,0C162.687,471.184,163.981,468.243,165.275,465.307z"/>
	<path fill="#CCCCCC" d="M191.149,465.307c7.44,0.323,14.88,0.323,22.32,0.323c-0.649,2.941-1.298,5.877-2.263,8.818
		c-7.441,0-15.205,0-22.965-0.327C189.21,471.184,190.18,468.243,191.149,465.307z"/>
	<path fill="#CCCCCC" d="M217.347,465.63c7.441,0,14.88,0,22.321,0c-0.649,2.941-0.975,5.877-1.619,8.818c-7.76,0-15.2,0-22.965,0
		C215.733,471.507,216.378,468.571,217.347,465.63z"/>
	<path fill="#CCCCCC" d="M243.221,465.63c7.441,0,14.881,0,22.321,0c0,3.27-0.324,6.205-0.649,9.146
		c-7.76-0.327-15.521-0.327-22.961-0.327C242.255,471.507,242.901,468.571,243.221,465.63z"/>
	<path fill="#CCCCCC" d="M269.424,465.63c7.436,0.327,14.876,0.327,22.316,0.327c0,2.941,0,5.878,0,8.818
		c-7.767,0-15.525,0-22.967,0C268.774,471.835,269.1,468.898,269.424,465.63z"/>
	<path fill="#CCCCCC" d="M295.298,465.957c7.438,0,14.875,0,22.64,0c0,2.941,0.325,5.878,0.646,8.818c-7.762,0-15.524,0-23.285,0
		C295.298,471.835,295.298,468.898,295.298,465.957z"/>
	<path fill="#CCCCCC" d="M321.495,465.957c7.437,0,14.877,0,22.316,0c0.324,3.265,0.969,6.205,1.294,9.143
		c-7.765,0-15.201,0-22.965-0.323C321.816,471.835,321.495,468.898,321.495,465.957z"/>
	<path fill="#CCCCCC" d="M347.368,465.957c7.441,0.329,15.201,0.329,22.316,0.329c0.971,2.936,1.619,5.876,2.264,8.813
		c-7.76,0-15.2,0-22.96,0C348.339,472.162,348.015,469.222,347.368,465.957z"/>
	<path fill="#CCCCCC" d="M373.567,466.286c7.44,0,14.876,0,22.317,0c0.969,2.936,1.942,5.876,2.912,8.813c-7.767,0-15.2,0-22.967,0
		C374.862,472.162,374.213,469.222,373.567,466.286z"/>
	<path fill="#CCCCCC" d="M399.442,466.286c19.082,0,38.165,0,57.248,0c1.294,2.936,2.912,6.204,4.526,9.141
		c-19.728,0-39.135,0-58.542-0.327C401.386,472.162,400.41,469.222,399.442,466.286z"/>
	<path fill="#CCCCCC" d="M52.397,464.979c19.083,0,38.166,0,57.249,0.328c-1.942,2.938-3.558,5.551-5.498,8.485
		c-19.406,0-39.139,0-58.542,0C47.869,470.856,50.134,467.916,52.397,464.979z"/>
	<path fill="#CCCCCC" d="M94.445,453.876c7.116,0,14.231,0,21.673,0c-1.619,2.94-3.563,5.878-5.178,8.817c-7.438,0-14.88,0-22.319,0
		C90.563,459.754,92.505,456.816,94.445,453.876z"/>
	<path fill="#CCCCCC" d="M119.35,453.876c7.437,0,14.551,0,21.667,0c-1.291,2.94-2.909,5.878-4.203,8.817c-7.438,0-14.88,0-22.314,0
		C116.117,459.754,117.731,456.816,119.35,453.876z"/>
	<path fill="#CCCCCC" d="M144.578,453.876c7.115,0,14.556,0.328,21.672,0.328c-1.298,2.936-2.27,5.55-3.563,8.489
		c-7.438,0-14.875,0-22.314,0C141.665,459.754,143.28,456.816,144.578,453.876z"/>
	<path fill="#CCCCCC" d="M169.802,454.204c7.116,0,14.231,0,21.347,0c-0.646,2.936-1.614,5.877-2.589,8.813
		c-7.435,0-14.875,0-22.311-0.323C167.214,460.081,168.513,457.14,169.802,454.204z"/>
	<path fill="#CCCCCC" d="M194.711,454.204c7.436,0,14.551,0,21.667,0c-0.646,2.936-1.294,5.877-2.264,8.813
		c-7.437,0-14.552,0-21.991,0C193.092,460.081,193.737,457.14,194.711,454.204z"/>
	<path fill="#CCCCCC" d="M219.936,454.204c7.115,0,14.231,0,21.67,0c-0.648,2.936-0.969,5.877-1.613,8.813c-7.44,0-14.881,0-22.32,0
		C218.646,460.081,219.287,457.14,219.936,454.204z"/>
	<path fill="#CCCCCC" d="M245.164,454.204c7.115,0,14.23,0,21.672,0.327c-0.325,2.937-0.649,5.878-0.97,8.813
		c-7.44,0-14.882,0-22.32-0.327C244.195,460.081,244.52,457.14,245.164,454.204z"/>
	<path fill="#CCCCCC" d="M270.068,454.531c7.115,0,14.558,0,21.672,0c0,2.937,0,5.878,0,8.813c-7.439,0-14.881,0-22.315,0
		C269.744,460.409,269.744,457.468,270.068,454.531z"/>
	<path fill="#CCCCCC" d="M295.298,454.531c7.114,0,14.23,0,21.671,0c0,2.937,0.319,5.878,0.645,8.813c-7.439,0-14.876,0-22.314,0
		C295.298,460.409,295.298,457.468,295.298,454.531z"/>
	<path fill="#CCCCCC" d="M320.201,454.531c7.44,0,14.557,0,21.672,0c0.645,2.937,0.97,5.878,1.613,9.142
		c-7.436,0-14.875-0.328-22.314-0.328C320.848,460.409,320.527,457.468,320.201,454.531z"/>
	<path fill="#CCCCCC" d="M345.431,454.531c7.115,0,14.551,0,21.667,0.322c0.647,2.94,1.294,5.879,2.263,8.818
		c-7.435,0-14.876,0-22.314,0C346.399,460.732,346.075,457.468,345.431,454.531z"/>
	<path fill="#CCCCCC" d="M370.656,454.854c7.115,0,14.23,0,21.67,0c0.971,2.94,1.943,5.879,2.913,8.818c-7.439,0-14.88,0-22.314,0
		C372.274,460.732,371.305,457.795,370.656,454.854z"/>
	<path fill="#CCCCCC" d="M395.56,454.854c7.44,0,14.556,0,21.671,0c1.294,2.94,2.589,5.879,3.559,8.818c-7.115,0-14.552,0-21.991,0
		C397.827,460.732,396.533,457.795,395.56,454.854z"/>
	<path fill="#CCCCCC" d="M420.788,454.854c10.027,0,20.052,0,29.757,0c1.617,2.94,3.236,5.879,4.853,8.818
		c-10.35,0-20.698,0-30.727,0C423.376,460.732,422.082,457.795,420.788,454.854z"/>
	<path fill="#CCCCCC" d="M61.131,453.876c9.704,0,19.729,0,29.752,0c-1.939,2.94-3.879,5.878-5.817,8.817
		c-10.353,0-20.377,0-30.726,0C56.604,459.754,58.868,456.816,61.131,453.876z"/>
	<path fill="#CCCCCC" d="M68.571,442.449c7.116,0,13.906,0,21.022,0c-1.62,2.938-3.238,5.877-5.177,8.813c-7.439,0-14.556,0-21.67,0
		C65.009,448.326,66.953,445.387,68.571,442.449z"/>
	<path fill="#CCCCCC" d="M92.827,442.449c6.794,0,13.909,0,21.024,0c-1.618,2.938-2.913,5.877-4.851,8.813
		c-7.115,0-14.231,0-21.347,0C89.593,448.326,91.208,445.387,92.827,442.449z"/>
	<path fill="#CCCCCC" d="M117.081,442.449c6.795,0.323,13.911,0.323,20.706,0.323c-0.975,2.94-2.269,5.878-3.563,8.489
		c-7.438,0-14.555,0-21.67,0C114.173,448.326,115.792,445.387,117.081,442.449z"/>
	<path fill="#CCCCCC" d="M141.34,442.772c6.792,0,13.907,0,20.701,0c-0.645,2.94-1.943,5.878-2.908,8.816c-7.44,0-14.556,0-21.67,0
		C139.077,448.65,140.371,445.714,141.34,442.772z"/>
	<path fill="#CCCCCC" d="M165.599,442.772c6.792,0,13.907,0,20.698,0c-0.646,2.94-1.29,5.878-2.264,8.816
		c-7.439,0-14.556,0-21.671,0C163.661,448.65,164.626,445.714,165.599,442.772z"/>
	<path fill="#CCCCCC" d="M189.859,442.772c6.791,0,13.906,0,20.697,0c-0.325,2.94-0.97,5.878-1.614,8.816c-7.115,0-14.23,0-21.671,0
		C188.241,448.65,189.21,445.714,189.859,442.772z"/>
	<path fill="#CCCCCC" d="M214.115,442.772c6.794,0,13.909,0,20.7,0c-0.324,2.94-0.648,5.878-0.974,8.816c-7.115,0-14.555,0-21.67,0
		C213.145,448.65,213.469,445.714,214.115,442.772z"/>
	<path fill="#CCCCCC" d="M238.369,442.772c6.795,0,13.91,0,20.702,0c0,2.94,0,5.878-0.319,9.146
		c-7.115-0.329-14.557-0.329-21.671-0.329C237.725,448.65,238.049,445.714,238.369,442.772z"/>
	<path fill="#CCCCCC" d="M262.629,442.772c6.795,0,13.911,0.327,20.701,0.327c0,2.941,0.324,5.877,0.324,8.818
		c-7.439,0-14.23,0-21.672,0C262.309,448.978,262.629,445.714,262.629,442.772z"/>
	<path fill="#CCCCCC" d="M286.564,443.101c7.115,0,14.23,0,21.021,0c0.323,2.941,0.647,5.878,0.974,8.818c-7.44,0-14.556,0-21.672,0
		C286.888,448.978,286.888,446.042,286.564,443.101z"/>
	<path fill="#CCCCCC" d="M311.144,443.101c6.794,0,13.586,0,20.701,0c0.649,2.941,0.969,5.878,1.619,8.818
		c-7.44,0-14.557,0-21.673,0C311.791,448.978,311.468,446.042,311.144,443.101z"/>
	<path fill="#CCCCCC" d="M335.077,443.101c7.116,0,13.911,0,21.026,0c0.97,2.941,1.613,5.878,2.263,8.818
		c-7.438,0-14.555,0-21.671,0C336.372,448.978,335.728,446.042,335.077,443.101z"/>
	<path fill="#CCCCCC" d="M359.338,443.101c7.114,0,14.229,0,21.021,0c0.969,2.941,1.944,5.878,2.913,9.142
		c-7.115,0-14.23,0-21.673-0.322C360.956,448.978,360.307,446.042,359.338,443.101z"/>
	<path fill="#CCCCCC" d="M384.241,443.101c6.789,0,13.904,0,20.701,0c1.294,2.941,2.264,6.205,3.559,9.142
		c-7.115,0-14.231,0-21.348,0C386.181,449.306,385.211,446.042,384.241,443.101z"/>
	<path fill="#CCCCCC" d="M409.146,443.101c11.967,0,23.609,0,35.577,0c1.618,3.266,2.914,6.205,4.527,9.142
		c-12.287,0-24.257,0-36.547,0C411.407,449.306,410.439,446.042,409.146,443.101z"/>
	<path fill="#CCCCCC" d="M87.33,428.733c3.554,0,7.439,0,10.992,0c2.265,0,3.883,0.654,3.563,1.635l0,0
		c-0.65,0.979-2.914,1.63-4.852,1.63c-3.884,0-7.766,0-11.645,0c-2.268,0-3.562-0.651-3.237-1.63l0,0
		C82.803,429.389,85.066,428.733,87.33,428.733z"/>
	<path fill="#CCCCCC" d="M109.001,428.733c3.877,0,7.435,0,11.317,0c2.264,0,3.559,0.654,3.232,1.635l0,0
		c-0.319,0.979-2.263,1.957-4.527,1.957c-3.882,0-7.761-0.327-11.321-0.327c-2.265,0-3.878-0.651-3.555-1.63l0,0
		C104.793,429.389,106.737,428.733,109.001,428.733z"/>
	<path fill="#CCCCCC" d="M130.992,428.733c3.558,0,7.436,0,10.999,0c2.264,0,3.877,0.654,3.558,1.635l0,0
		c-0.325,0.979-2.269,1.957-4.532,1.957c-3.878,0-7.761,0-11.317,0c-2.265,0-3.879-0.979-3.559-1.957l0,0
		C126.465,429.389,128.729,428.733,130.992,428.733z"/>
	<path fill="#CCCCCC" d="M152.664,428.733c3.882,0,7.435,0,11.316,0c2.27,0,3.883,0.654,3.559,1.635l0,0
		c-0.325,0.979-2.264,1.957-4.527,1.957c-3.878,0-7.44,0-11.318,0c-2.264,0-3.882-0.979-3.562-1.957l0,0
		C148.456,429.389,150.395,428.733,152.664,428.733z"/>
	<path fill="#CCCCCC" d="M174.654,428.733c3.563,0,7.44,0,10.998,0c2.265,0,3.883,0.654,3.883,1.635l0,0
		c-0.324,0.979-2.264,1.957-4.527,1.957c-3.882,0-7.439,0-11.322,0c-2.264,0-3.883-0.979-3.558-1.957l0,0
		C170.452,429.389,172.391,428.733,174.654,428.733z"/>
	<path fill="#CCCCCC" d="M196.326,428.733c3.882,0,7.438,0,11.317,0c2.264,0,3.882,0.654,3.882,1.635l0,0
		c0,0.979-2.263,1.957-4.526,1.957c-3.559,0-7.438,0-11.323,0c-2.264,0-3.878-0.979-3.553-1.957l0,0
		C192.123,429.389,194.062,428.733,196.326,428.733z"/>
	<path fill="#CCCCCC" d="M218.321,428.733c3.554,0,7.439,0,11.317,0c1.939,0,3.883,0.654,3.883,1.635l0,0
		c-0.325,0.979-1.942,1.957-4.207,1.957c-3.878,0-7.761,0-11.317,0c-2.265,0-4.203-0.979-3.883-1.957l0,0
		C214.115,429.389,216.058,428.733,218.321,428.733z"/>
	<path fill="#CCCCCC" d="M239.992,428.733c3.878,0,7.436,0,11.317,0c2.265,0,3.878,0.654,4.203,1.635l0,0
		c0,1.307-1.938,1.957-4.203,1.957c-3.883,0-7.765,0-11.317,0c-2.269,0-4.207-0.979-4.207-1.957l0,0
		C236.105,429.389,237.725,428.733,239.992,428.733z"/>
	<path fill="#CCCCCC" d="M261.983,428.733c3.56,0,7.44,0,11.319,0c1.942,0,3.881,0.979,3.881,1.957l0,0
		c0.325,0.983-1.618,1.635-3.881,1.635c-3.879,0-7.438,0-11.319,0c-2.263,0-4.206-0.65-4.206-1.635l0,0
		C257.777,429.389,259.721,428.733,261.983,428.733z"/>
	<path fill="#CCCCCC" d="M283.655,428.733c3.879,0,7.436,0,11.317,0c2.264,0,4.208,0.979,4.208,1.957l0,0
		c0.32,0.983-1.619,1.635-3.883,1.635c-3.559,0-7.44,0-11.323,0c-2.263,0-3.877-0.65-4.202-1.635l0,0
		C279.772,429.712,281.387,428.733,283.655,428.733z"/>
	<path fill="#CCCCCC" d="M305.646,428.733c3.558,0,7.44,0,11.322,0c1.938,0,3.879,0.979,4.203,1.957l0,0
		c0.323,0.983-1.296,1.635-3.884,1.635c-3.558,0-7.437,0-11.317,0c-1.943,0-3.883-0.65-4.206-1.635l0,0
		C301.444,429.712,303.383,428.733,305.646,428.733z"/>
	<path fill="#CCCCCC" d="M327.317,428.733c3.882,0,7.44,0,11.317,0c2.264,0,4.208,0.979,4.531,1.957l0,0
		c0.32,0.983-1.293,1.635-3.557,1.635c-3.883,0-7.766,0-11.323,0c-2.264,0-4.203-0.65-4.526-1.635l0,0
		C323.435,429.712,325.053,428.733,327.317,428.733z"/>
	<path fill="#CCCCCC" d="M349.31,428.733c3.557,0,7.438,0,11.321,0c1.938,0,4.203,0.979,4.527,1.957l0,0
		c0.323,0.983-1.295,1.635-3.56,1.635c-3.882,0-7.439,0-11.317,0c-2.268,0-4.206-0.65-4.53-1.635l0,0
		C345.431,429.712,347.045,428.733,349.31,428.733z"/>
	<path fill="#CCCCCC" d="M370.98,428.733c3.882,0,7.44,0,11.323,0c2.262,0,4.524,0.979,4.851,1.957l0,0
		c0.32,0.983-1.294,1.963-3.558,1.963c-3.883,0-7.439-0.328-11.322-0.328c-2.264,0-4.202-0.65-4.528-1.635l0,0
		C367.422,429.712,369.041,428.733,370.98,428.733z"/>
	<path fill="#CCCCCC" d="M392.976,428.733c3.559,0,7.436,0,11.317,0c1.943,0,4.208,0.979,4.853,1.957l0,0
		c0.324,0.983-1.294,1.963-3.558,1.963c-3.56,0-7.441,0-11.318,0c-2.267,0-4.207-0.979-4.531-1.963l0,0
		C389.093,429.712,390.712,428.733,392.976,428.733z"/>
	<path fill="#CCCCCC" d="M414.968,429.061c3.557,0,7.438,0,10.998,0c2.263,0,4.525,0.651,5.175,1.631l0,0
		c0.32,0.983-0.973,1.963-3.236,1.963c-3.879,0-7.761,0-11.317,0c-2.265,0-4.527-0.979-5.179-1.963l0,0
		C411.085,429.712,412.703,429.061,414.968,429.061z"/>
	<path fill="#CCCCCC" d="M94.77,416.979c3.877,0,7.116,0.979,7.116,1.959c0,1.306-3.239,1.961-7.116,1.961
		c-3.887,0-7.115-0.655-7.115-1.961C87.655,417.958,90.883,416.979,94.77,416.979z"/>
	<path fill="#CCCCCC" d="M112.234,417.631c2.583,0,4.527,0.655,4.527,1.307c0,0.979-1.943,1.307-4.527,1.307
		c-2.914,0-4.852-0.327-4.852-1.307C107.382,418.286,109.32,417.631,112.234,417.631z"/>
	<path fill="#B8B8B8" d="M245.484,477.061c1.943,0,4.207,0,6.472,0c-0.32,2.938-0.646,5.879-0.646,8.813c-2.264,0-4.526,0-6.47,0
		C244.84,482.938,245.164,479.997,245.484,477.061z"/>
	<path fill="#B8B8B8" d="M255.514,477.061c7.765,0,15.524,0,23.29,0.328c0,2.937,0,5.877,0,8.813
		c-7.766,0-15.851-0.328-23.615-0.328C255.188,482.938,255.514,479.997,255.514,477.061z"/>
	<path fill="#B8B8B8" d="M282.682,477.389c7.765,0,15.523,0,23.289,0c0,2.937,0.325,5.877,0.646,8.813c-8.086,0-15.846,0-23.935,0
		C282.682,483.266,282.682,480.324,282.682,477.389z"/>
	<path fill="#B8B8B8" d="M309.529,477.389c7.76,0,15.523,0,23.284,0c0.325,2.937,0.97,6.2,1.62,9.142
		c-8.085,0-16.171-0.327-23.937-0.327C310.173,483.266,309.853,480.324,309.529,477.389z"/>
	<path fill="#B8B8B8" d="M336.696,477.389c7.761,0.323,15.525,0.323,23.285,0.323c0.649,2.941,1.295,5.877,1.944,8.817
		c-8.085,0-15.851,0-23.936,0C337.665,483.589,337.021,480.653,336.696,477.389z"/>
	<path fill="#B8B8B8" d="M363.539,477.712c7.766,0,15.524,0,23.289,0c0.971,2.941,1.939,5.877,2.909,9.146
		c-8.085-0.329-15.846-0.329-23.931-0.329C365.158,483.589,364.189,480.653,363.539,477.712z"/>
	<path fill="#B8B8B8" d="M390.388,477.712c24.255,0,48.188,0,72.125,0.328c1.618,2.94,3.231,5.877,4.851,8.818
		c-24.579,0-49.163,0-73.742,0C392.325,483.589,391.357,480.653,390.388,477.712z"/>
	<path fill="#B8B8B8" d="M246.784,465.63c6.141,0,12.611,0,18.758,0c0,3.27-0.324,6.205-0.649,9.146
		c-6.467-0.327-12.937-0.327-19.408-0.327C246.133,471.507,246.458,468.571,246.784,465.63z"/>
	<path fill="#B8B8B8" d="M269.424,465.63c7.436,0.327,14.876,0.327,22.316,0.327c0,2.941,0,5.878,0,8.818
		c-7.767,0-15.525,0-22.967,0C268.774,471.835,269.1,468.898,269.424,465.63z"/>
	<path fill="#B8B8B8" d="M295.298,465.957c7.438,0,14.875,0,22.64,0c0,2.941,0.325,5.878,0.646,8.818c-7.762,0-15.524,0-23.285,0
		C295.298,471.835,295.298,468.898,295.298,465.957z"/>
	<path fill="#B8B8B8" d="M321.495,465.957c7.437,0,14.877,0,22.316,0c0.324,3.265,0.969,6.205,1.294,9.143
		c-7.765,0-15.201,0-22.965-0.323C321.816,471.835,321.495,468.898,321.495,465.957z"/>
	<path fill="#B8B8B8" d="M347.368,465.957c7.441,0.329,15.201,0.329,22.316,0.329c0.971,2.936,1.619,5.876,2.264,8.813
		c-7.76,0-15.2,0-22.96,0C348.339,472.162,348.015,469.222,347.368,465.957z"/>
	<path fill="#B8B8B8" d="M373.567,466.286c7.44,0,14.876,0,22.317,0c0.969,2.936,1.942,5.876,2.912,8.813c-7.767,0-15.2,0-22.967,0
		C374.862,472.162,374.213,469.222,373.567,466.286z"/>
	<path fill="#B8B8B8" d="M399.442,466.286c19.082,0,38.165,0,57.248,0c1.294,2.936,2.912,6.204,4.526,9.141
		c-19.728,0-39.135,0-58.542-0.327C401.386,472.162,400.41,469.222,399.442,466.286z"/>
	<path fill="#B8B8B8" d="M248.073,454.204c6.15,0,12.292,0,18.764,0.327c-0.325,2.937-0.649,5.878-0.97,8.813
		c-6.146,0-12.617,0-18.76-0.327C247.428,460.081,247.753,457.14,248.073,454.204z"/>
	<path fill="#B8B8B8" d="M270.068,454.531c7.115,0,14.558,0,21.672,0c0,2.937,0,5.878,0,8.813c-7.439,0-14.881,0-22.315,0
		C269.744,460.409,269.744,457.468,270.068,454.531z"/>
	<path fill="#B8B8B8" d="M295.298,454.531c7.114,0,14.23,0,21.671,0c0,2.937,0.319,5.878,0.645,8.813c-7.439,0-14.876,0-22.314,0
		C295.298,460.409,295.298,457.468,295.298,454.531z"/>
	<path fill="#B8B8B8" d="M320.201,454.531c7.44,0,14.557,0,21.672,0c0.645,2.937,0.97,5.878,1.613,9.142
		c-7.436,0-14.875-0.328-22.314-0.328C320.848,460.409,320.527,457.468,320.201,454.531z"/>
	<path fill="#B8B8B8" d="M345.431,454.531c7.115,0,14.551,0,21.667,0.322c0.647,2.94,1.294,5.879,2.263,8.818
		c-7.435,0-14.876,0-22.314,0C346.399,460.732,346.075,457.468,345.431,454.531z"/>
	<path fill="#B8B8B8" d="M370.656,454.854c7.115,0,14.23,0,21.67,0c0.971,2.94,1.943,5.879,2.913,8.818c-7.439,0-14.88,0-22.314,0
		C372.274,460.732,371.305,457.795,370.656,454.854z"/>
	<path fill="#B8B8B8" d="M395.56,454.854c7.44,0,14.556,0,21.671,0c1.294,2.94,2.589,5.879,3.559,8.818c-7.115,0-14.552,0-21.991,0
		C397.827,460.732,396.533,457.795,395.56,454.854z"/>
	<path fill="#B8B8B8" d="M420.788,454.854c10.027,0,20.052,0,29.757,0c1.617,2.94,3.236,5.879,4.853,8.818
		c-10.35,0-20.698,0-30.727,0C423.376,460.732,422.082,457.795,420.788,454.854z"/>
	<path fill="#B8B8B8" d="M249.047,442.772c3.553,0,6.791,0,10.023,0c0,2.94,0,5.878-0.319,9.146
		c-3.563-0.329-6.795-0.329-10.354-0.329C248.722,448.65,249.047,445.714,249.047,442.772z"/>
	<path fill="#B8B8B8" d="M262.629,442.772c6.795,0,13.911,0.327,20.701,0.327c0,2.941,0.324,5.877,0.324,8.818
		c-7.439,0-14.23,0-21.672,0C262.309,448.978,262.629,445.714,262.629,442.772z"/>
	<path fill="#B8B8B8" d="M286.564,443.101c7.115,0,14.23,0,21.021,0c0.323,2.941,0.647,5.878,0.974,8.818c-7.44,0-14.556,0-21.672,0
		C286.888,448.978,286.888,446.042,286.564,443.101z"/>
	<path fill="#B8B8B8" d="M311.144,443.101c6.794,0,13.586,0,20.701,0c0.649,2.941,0.969,5.878,1.619,8.818
		c-7.44,0-14.557,0-21.673,0C311.791,448.978,311.468,446.042,311.144,443.101z"/>
	<path fill="#B8B8B8" d="M335.077,443.101c7.116,0,13.911,0,21.026,0c0.97,2.941,1.613,5.878,2.263,8.818
		c-7.438,0-14.555,0-21.671,0C336.372,448.978,335.728,446.042,335.077,443.101z"/>
	<path fill="#B8B8B8" d="M359.338,443.101c7.114,0,14.229,0,21.021,0c0.969,2.941,1.944,5.878,2.913,9.142
		c-7.115,0-14.23,0-21.673-0.322C360.956,448.978,360.307,446.042,359.338,443.101z"/>
	<path fill="#B8B8B8" d="M384.241,443.101c6.789,0,13.904,0,20.701,0c1.294,2.941,2.264,6.205,3.559,9.142
		c-7.115,0-14.231,0-21.348,0C386.181,449.306,385.211,446.042,384.241,443.101z"/>
	<path fill="#B8B8B8" d="M409.146,443.101c11.967,0,23.609,0,35.577,0c1.618,3.266,2.914,6.205,4.527,9.142
		c-12.287,0-24.257,0-36.547,0C411.407,449.306,410.439,446.042,409.146,443.101z"/>
	<path fill="#B8B8B8" d="M249.047,428.733c0.645,0,1.615,0,2.264,0c2.265,0,3.878,0.654,4.203,1.635l0,0
		c0,1.307-1.938,1.957-4.203,1.957c-0.648,0-1.619,0-2.264,0C249.047,431.02,249.047,430.04,249.047,428.733z"/>
	<path fill="#B8B8B8" d="M261.983,428.733c3.56,0,7.44,0,11.319,0c1.942,0,3.881,0.979,3.881,1.957l0,0
		c0.325,0.983-1.618,1.635-3.881,1.635c-3.879,0-7.438,0-11.319,0c-2.263,0-4.206-0.65-4.206-1.635l0,0
		C257.777,429.389,259.721,428.733,261.983,428.733z"/>
	<path fill="#B8B8B8" d="M283.655,428.733c3.879,0,7.436,0,11.317,0c2.264,0,4.208,0.979,4.208,1.957l0,0
		c0.32,0.983-1.619,1.635-3.883,1.635c-3.559,0-7.44,0-11.323,0c-2.263,0-3.877-0.65-4.202-1.635l0,0
		C279.772,429.712,281.387,428.733,283.655,428.733z"/>
	<path fill="#B8B8B8" d="M305.646,428.733c3.558,0,7.44,0,11.322,0c1.938,0,3.879,0.979,4.203,1.957l0,0
		c0.323,0.983-1.296,1.635-3.884,1.635c-3.558,0-7.437,0-11.317,0c-1.943,0-3.883-0.65-4.206-1.635l0,0
		C301.444,429.712,303.383,428.733,305.646,428.733z"/>
	<path fill="#B8B8B8" d="M327.317,428.733c3.882,0,7.44,0,11.317,0c2.264,0,4.208,0.979,4.531,1.957l0,0
		c0.32,0.983-1.293,1.635-3.557,1.635c-3.883,0-7.766,0-11.323,0c-2.264,0-4.203-0.65-4.526-1.635l0,0
		C323.435,429.712,325.053,428.733,327.317,428.733z"/>
	<path fill="#B8B8B8" d="M349.31,428.733c3.557,0,7.438,0,11.321,0c1.938,0,4.203,0.979,4.527,1.957l0,0
		c0.323,0.983-1.295,1.635-3.56,1.635c-3.882,0-7.439,0-11.317,0c-2.268,0-4.206-0.65-4.53-1.635l0,0
		C345.431,429.712,347.045,428.733,349.31,428.733z"/>
	<path fill="#B8B8B8" d="M370.98,428.733c3.882,0,7.44,0,11.323,0c2.262,0,4.524,0.979,4.851,1.957l0,0
		c0.32,0.983-1.294,1.963-3.558,1.963c-3.883,0-7.439-0.328-11.322-0.328c-2.264,0-4.202-0.65-4.528-1.635l0,0
		C367.422,429.712,369.041,428.733,370.98,428.733z"/>
	<path fill="#B8B8B8" d="M392.976,428.733c3.559,0,7.436,0,11.317,0c1.943,0,4.208,0.979,4.853,1.957l0,0
		c0.324,0.983-1.294,1.963-3.558,1.963c-3.56,0-7.441,0-11.318,0c-2.267,0-4.207-0.979-4.531-1.963l0,0
		C389.093,429.712,390.712,428.733,392.976,428.733z"/>
	<path fill="#B8B8B8" d="M414.968,429.061c3.557,0,7.438,0,10.998,0c2.263,0,4.525,0.651,5.175,1.631l0,0
		c0.32,0.983-0.973,1.963-3.236,1.963c-3.879,0-7.761,0-11.317,0c-2.265,0-4.527-0.979-5.179-1.963l0,0
		C411.085,429.712,412.703,429.061,414.968,429.061z"/>
	<path fill="#B8B8B8" d="M249.371,496.978h254.863c1.618,0,2.589,2.285,2.589,4.897l0,0c0,2.614-0.971,4.898-2.589,4.898H249.371
		V496.978z"/>
	<path fill="#A1A1A1" d="M249.371,506.123h254.863c1.618,0,2.264-3.271,2.264-4.248s-0.646-4.242-2.264-4.242H249.371V506.123z"/>
	<path fill="#4E5A62" d="M510.381,495.348c0-0.326-0.324-0.655-0.649-0.982c-4.847-6.856-10.022-13.711-15.2-20.572
		c-5.171-6.854-10.348-14.038-15.524-21.222c-5.172-6.856-10.349-14.04-15.524-21.225c-5.173-6.854-10.349-14.038-15.525-21.223
		c-0.97-1.308-2.584-1.963-4.201-1.963H69.537c-1.615,0-3.229,0.655-4.203,1.963c-5.177,7.185-10.673,14.039-15.847,21.223
		c-5.177,7.185-10.678,14.367-15.85,21.225c-5.176,7.184-10.672,14.038-15.85,21.222c-5.177,6.861-10.349,13.716-15.525,20.572
		c0,0.327-0.32,0.655-0.645,0.982C0.325,497.306,0,499.59,0,501.875C0,506.446,2.264,512,7.761,512h496.475
		c5.496,0,7.765-5.554,7.765-10.125C512,499.59,511.676,497.306,510.381,495.348z M504.235,506.773H249.371H7.761
		c-1.614,0-2.583-2.284-2.583-4.898c0-1.306,0.32-2.936,0.969-3.591c0-0.328,0-0.651,0.324-0.651
		c5.177-6.859,10.349-13.716,15.521-20.572c5.176-7.184,10.353-14.366,15.854-21.227c5.172-7.184,10.668-14.367,15.846-21.224
		c5.177-7.185,10.674-14.04,15.847-21.224h93.475h86.359h7.111h93.799h93.473c5.177,7.184,10.348,14.039,15.524,21.224
		c5.497,7.184,10.35,14.04,15.523,21.224c5.178,6.859,10.675,14.043,15.847,21.227c4.853,6.856,10.028,13.713,14.88,20.572
		c0.324,0,0.324,0.323,0.646,0.651c0.324,0.655,0.648,2.285,0.648,3.591C506.823,504.489,505.854,506.773,504.235,506.773z"/>
	<path fill="#BDBFC1" d="M365.158,239.676c9.055,0,16.169,7.184,16.169,15.997c0,4.569-1.938,8.817-5.171,11.431l-4.853,8.49
		l-6.146,11.098l-6.146-11.098l-4.854-8.49c-2.907-2.94-4.851-7.184-4.851-11.431C349.31,246.859,356.425,239.676,365.158,239.676z
		 M365.158,248.489c4.526,0,8.084,3.591,8.084,7.839c0,4.57-3.558,8.162-8.084,8.162c-4.202,0-7.761-3.592-7.761-8.162
		C357.398,252.08,360.956,248.489,365.158,248.489z"/>
</g>
</svg>
