<?xml version="1.0" encoding="utf-8"?>
<!-- Generator: Adobe Illustrator 16.0.0, SVG Export Plug-In . SVG Version: 6.00 Build 0)  -->
<!DOCTYPE svg PUBLIC "-//W3C//DTD SVG 1.1//EN" "http://www.w3.org/Graphics/SVG/1.1/DTD/svg11.dtd">
<svg version="1.1" id="Calque_1" xmlns="http://www.w3.org/2000/svg" xmlns:xlink="http://www.w3.org/1999/xlink" x="0px" y="0px"
	 width="56.693px" height="56.693px" viewBox="0 0 56.693 56.693" enable-background="new 0 0 56.693 56.693" xml:space="preserve">
<g>
	<g>
		<g>
			<g>
				<polygon fill="#FCCC5A" points="-269.586,144.157 -272.767,106.452 -233.42,106.452 -236.6,144.157 -253.091,148.683 				"/>
				<g>
					<path fill="#D9A730" d="M-235.324,108.202l-2.917,34.59l-14.851,4.077l-14.854-4.077l-2.918-34.59H-235.324 M-231.516,104.702
						h-43.153l3.442,40.818l18.137,4.979l18.133-4.979L-231.516,104.702L-231.516,104.702z"/>
				</g>
			</g>
			<polygon fill="none" points="-253.091,150.499 -271.227,145.52 -274.67,104.702 -253.091,104.702 			"/>
		</g>
		<g>
			<g>
				<g>
					<polygon fill="#FFFEFD" points="-254.172,141.612 -263.944,139.225 -263.944,134.424 -259.206,135.581 -259.206,112.097 
						-254.172,112.097 					"/>
				</g>
			</g>
			<g>
				<g>
					<polygon fill="#FFFEFD" points="-251.819,141.604 -251.819,136.747 -246.835,135.321 -245.904,127.668 -251.819,127.668 
						-251.819,112.177 -238.952,112.177 -239.527,116.82 -246.782,116.82 -246.782,123.028 -240.27,123.028 -242.195,138.851 					
						"/>
				</g>
			</g>
		</g>
	</g>
	<text transform="matrix(1 0 0 1 -274.6335 102.5789)" font-family="'MyriadPro-Regular'" font-size="9">JAVASCRIPT</text>
	<path fill="#5DA3C2" d="M-246.315,119.358l0.033,0.141c0.008,0.04-0.017,0.073-0.058,0.073"/>
</g>
<g>
	<polyline fill="#3558A8" points="-280.622,151.419 -224.383,151.419 -224.383,94.127 -280.622,94.127 -280.622,151.419 	"/>
	<path fill="#FFFFFF" d="M-237.93,118.721l-0.172-0.74c-0.135-0.537-0.519-0.79-1.384-0.79h-3.634c-0.085,0-0.168,0.038-0.186,0.122
		l-1.379,6.662c-0.018,0.085-0.023,0.144-0.014,0.186s0.171,0.036,0.254,0.036h1.259c0.085,0,0.238,0.005,0.282-0.013
		c0.047-0.02,0.066-0.147,0.084-0.231l0.446-2.335l0.542-2.592c0.018-0.083,0.101-0.151,0.184-0.151l3.601-0.002
		C-237.962,118.873-237.909,118.804-237.93,118.721"/>
	<path fill="#FFFFFF" d="M-232.806,116.021c-0.085,0.001-1.598,0-1.598,0c-0.083,0-0.191,0.091-0.238,0.161l-2.804,4.201
		c-0.047,0.07-0.102,0.068-0.12-0.016l-0.207-0.92c-0.018-0.084-0.102-0.15-0.186-0.15h-1.803c-0.082,0-0.132,0.069-0.11,0.152
		l0.808,2.883c0.023,0.084,0.026,0.219,0.005,0.301l-0.377,1.461c-0.021,0.083,0.032,0.107,0.116,0.107h1.78
		c0.082,0,0.169-0.024,0.189-0.107l0.377-1.481c0.021-0.083,0.078-0.194,0.129-0.264l4.574-6.181
		c0.052-0.067,0.044-0.148-0.039-0.148L-232.806,116.021"/>
	<path fill="#FFFFFF" d="M-251.563,117.196h-1.627c-0.082,0-0.168,0.031-0.184,0.113l-0.537,2.563l-0.536,2.452
		c-0.017,0.083-0.099,0.078-0.183,0.078h-1.068c-1.058,0-0.936-0.681-0.719-1.7c0.002-0.01,0.679-3.393,0.679-3.393
		c0.015-0.082-0.04-0.113-0.123-0.113h-1.549c-0.084,0-0.167,0.031-0.183,0.113l-0.624,3.389c-0.311,1.833-0.32,3.446,1.767,3.499
		c0.033,0.001,3.292,0,3.292,0c0.085,0,0.167-0.028,0.186-0.111l0.708-3.398l0.704-3.411
		C-251.56,117.275-251.534,117.196-251.563,117.196"/>
	<path fill="#FFFFFF" d="M-267.757,117.191h-1.743c-0.084,0-0.168,0.021-0.186,0.104l-0.315,1.385
		c-0.019,0.082,0.036,0.148,0.12,0.148h1.669c0.085,0,0.168-0.077,0.186-0.16l0.303-1.396
		C-267.724,117.272-267.699,117.191-267.757,117.191"/>
	<path fill="#FFFFFF" d="M-269.994,119.298c-0.083,0-0.168,0.066-0.186,0.15l-0.235,1.057l-0.524,2.441c0,0-0.279,1.299-0.306,1.38
		c0,0-0.235,0.938-0.796,0.901c-0.261-0.02-0.56-0.079-0.56-0.079h-0.001c-0.156-0.049-0.168,0.116-0.187,0.2l-0.347,1.522
		c-0.02,0.082,0.033,0.157,0.116,0.159c0,0,0.751,0.107,1.28,0.107h0.088c1.309,0,2.001-0.784,2.443-2.913l0.518-2.466l0.486-2.293
		c0.018-0.082-0.032-0.16-0.115-0.16"/>
	<path fill="#FFFFFF" d="M-246.676,120.112c0,0.092-0.287,0.075-0.287,0.075l-2.286-0.018c-0.079,0-0.102-0.112-0.106-0.192
		c0-0.004,0.006-0.098,0.012-0.121c0.177-0.625,0.704-0.98,1.54-0.98c0.94,0,1.141,0.475,1.141,1.002 M-247.449,117.18
		c-2.932,0-3.632,1.846-4.021,3.677c-0.389,1.865-0.355,3.34,2.678,3.34h0.11c1.203,0,2.666,0,2.666,0
		c0.082-0.002,0.163-0.078,0.18-0.161l0.3-1.184c0.016-0.084-0.039-0.107-0.122-0.107h-2.729c-0.988,0-1.343-0.312-1.308-1.008
		c-0.001-0.079,0.088-0.281,0.172-0.281h4.203c0.186-0.001,0.19-0.109,0.19-0.109C-244.703,119.378-244.674,117.18-247.449,117.18"
		/>
	<path fill="#FFFFFF" d="M-261.67,121.025l-0.338,1.177c-0.023,0.082-0.119,0.137-0.203,0.137h-1.742
		c-1.322,0-1.645-1.041-1.322-2.595c0.322-1.589,0.962-2.571,2.262-2.671c1.779-0.137,2.144,1.143,1.712,2.613L-261.67,121.025
		 M-260.121,122.272c0,0,0.821-2.033,1.008-3.207c0.255-1.572-0.518-3.852-3.501-3.852c-2.967,0-4.255,2.176-4.747,4.543
		c-0.49,2.383,0.151,4.457,3.102,4.44l4.503-0.002c0.083,0,0.17-0.069,0.19-0.15l0.381-1.473c0.02-0.084-0.031-0.151-0.115-0.151
		l-0.362-0.002l-0.362-0.002c-0.072,0-0.113-0.049-0.104-0.11C-260.127,122.295-260.126,122.284-260.121,122.272"/>
	<path fill="#5DA3C2" d="M-248.311,119.964c-0.009,0.037-0.019,0.086-0.025,0.119l-0.29,1.357l0.306-1.431L-248.311,119.964"/>
</g>
<g>
	<g>
		<polyline fill="#FBAB18" points="-281.092,151.186 -223.914,151.186 -223.914,94.359 -281.092,94.359 -281.092,151.186 		"/>
	</g>
	<g>
		<path fill="#FFFFFF" d="M-265.827,124.197v-2.02h4.035v3.502c-0.768,0.574-1.445,0.965-2.035,1.175
			c-0.59,0.208-1.289,0.312-2.098,0.312c-0.996,0-1.809-0.174-2.436-0.516c-0.629-0.345-1.115-0.857-1.461-1.538
			s-0.518-1.458-0.518-2.34c0-0.928,0.188-1.733,0.566-2.42c0.377-0.687,0.932-1.205,1.66-1.562
			c0.568-0.275,1.334-0.412,2.293-0.412c0.928,0,1.621,0.088,2.08,0.262c0.461,0.174,0.842,0.445,1.146,0.813
			c0.303,0.369,0.531,0.832,0.682,1.396l-2.611,0.379c-0.1-0.269-0.266-0.473-0.504-0.616c-0.236-0.144-0.539-0.214-0.906-0.214
			c-0.547,0-0.982,0.186-1.307,0.562c-0.326,0.375-0.488,0.97-0.488,1.782c0,0.863,0.172,1.479,0.514,1.849
			c0.342,0.372,0.818,0.556,1.43,0.556c0.291,0,0.566-0.031,0.832-0.089c0.264-0.058,0.564-0.159,0.906-0.302v-0.559H-265.827"/>
		<path fill="#FFFFFF" d="M-260.366,120.871h2.209v1.063c0.215-0.449,0.436-0.757,0.664-0.925c0.227-0.171,0.508-0.253,0.844-0.253
			c0.35,0,0.732,0.104,1.15,0.311l-0.736,1.758c-0.281-0.113-0.504-0.171-0.666-0.171c-0.313,0-0.553,0.125-0.725,0.378
			c-0.244,0.352-0.367,1.014-0.367,1.983v2.032h-2.373V120.871"/>
		<path fill="#FFFFFF" d="M-248.317,127.047h-2.217v-1.043c-0.33,0.421-0.66,0.717-0.996,0.894c-0.334,0.18-0.746,0.269-1.234,0.269
			c-0.648,0-1.158-0.195-1.527-0.583c-0.371-0.391-0.555-0.985-0.555-1.794v-3.918h2.373v3.342c0,0.381,0.072,0.652,0.215,0.812
			c0.143,0.161,0.344,0.24,0.604,0.24c0.281,0,0.514-0.106,0.693-0.32c0.18-0.213,0.27-0.595,0.27-1.147v-2.922h2.373v6.172"/>
		<path fill="#FFFFFF" d="M-246.893,120.871h2.211v1.047c0.328-0.418,0.662-0.717,0.998-0.895c0.336-0.18,0.748-0.268,1.232-0.268
			c0.652,0,1.164,0.191,1.533,0.579c0.369,0.391,0.555,0.989,0.555,1.8v3.912h-2.375v-3.344c0-0.385-0.07-0.653-0.213-0.813
			c-0.145-0.158-0.344-0.237-0.604-0.237c-0.285,0-0.518,0.106-0.697,0.32c-0.178,0.214-0.266,0.599-0.266,1.15v2.923h-2.375
			V120.871"/>
		<path fill="#FFFFFF" d="M-236.091,118.498v2.373h1.305v1.782h-1.305v2.233c0,0.269,0.025,0.445,0.078,0.534
			c0.08,0.134,0.219,0.201,0.418,0.201c0.178,0,0.43-0.052,0.752-0.155l0.176,1.522c-0.59,0.115-1.143,0.177-1.656,0.177
			c-0.594,0-1.033-0.076-1.314-0.223c-0.281-0.149-0.49-0.375-0.625-0.681c-0.135-0.302-0.203-0.793-0.203-1.471v-2.139h-0.83
			v-1.782h0.83v-1.145L-236.091,118.498"/>
		<polyline fill="#5DA3C2" points="-255.393,122.577 -255.553,123.146 -255.393,122.577 -255.393,122.577 		"/>
	</g>
</g>
<g>
	<polyline fill="#9C57A3" points="-280.949,151.219 -224.056,151.219 -224.056,94.326 -280.949,94.326 -280.949,151.219 	"/>
	<path fill="#FFFFFF" d="M-268.791,127.189v-2.312c0.43,0.355,0.896,0.621,1.397,0.799c0.502,0.177,1.01,0.267,1.521,0.267
		c0.301,0,0.563-0.03,0.787-0.087c0.225-0.057,0.412-0.136,0.563-0.236c0.15-0.1,0.262-0.219,0.336-0.355
		c0.074-0.136,0.11-0.283,0.11-0.443c0-0.206-0.058-0.391-0.176-0.552c-0.117-0.163-0.277-0.313-0.479-0.451
		c-0.203-0.138-0.443-0.271-0.721-0.399c-0.279-0.128-0.579-0.259-0.9-0.393c-0.82-0.344-1.432-0.765-1.834-1.261
		c-0.402-0.498-0.604-1.098-0.604-1.802c0-0.552,0.111-1.024,0.334-1.421c0.222-0.396,0.525-0.723,0.91-0.979
		c0.384-0.258,0.828-0.446,1.334-0.566c0.506-0.121,1.04-0.181,1.605-0.181c0.555,0,1.047,0.032,1.475,0.099
		c0.43,0.065,0.824,0.168,1.186,0.303v2.184c-0.176-0.126-0.367-0.238-0.576-0.334c-0.207-0.097-0.421-0.177-0.641-0.24
		c-0.221-0.063-0.439-0.109-0.656-0.141c-0.217-0.03-0.424-0.045-0.62-0.045c-0.269,0-0.512,0.027-0.732,0.081
		c-0.22,0.054-0.405,0.129-0.558,0.228c-0.15,0.098-0.268,0.216-0.352,0.354c-0.082,0.137-0.124,0.29-0.124,0.459
		c0,0.178,0.046,0.337,0.139,0.477c0.093,0.141,0.226,0.273,0.396,0.398c0.172,0.125,0.379,0.248,0.623,0.369
		c0.244,0.122,0.52,0.245,0.827,0.373c0.419,0.177,0.797,0.365,1.131,0.564c0.334,0.2,0.621,0.426,0.86,0.676
		c0.239,0.252,0.422,0.539,0.549,0.86c0.127,0.323,0.189,0.698,0.189,1.126c0,0.591-0.113,1.086-0.34,1.488
		c-0.227,0.4-0.533,0.726-0.922,0.974c-0.388,0.249-0.839,0.428-1.354,0.536c-0.516,0.108-1.059,0.163-1.631,0.163
		c-0.588,0-1.146-0.049-1.676-0.146C-267.944,127.526-268.403,127.382-268.791,127.189"/>
	<path fill="#FFFFFF" d="M-254.448,123.357l-1.15-3.58c-0.085-0.267-0.144-0.586-0.176-0.956h-0.062
		c-0.021,0.313-0.085,0.621-0.193,0.924l-1.154,3.611L-254.448,123.357 M-250.503,127.615h-2.628l-0.677-2.129h-3.969l-0.683,2.129
		h-2.613l3.899-10.646h2.86L-250.503,127.615z"/>
	<path fill="#FFFFFF" d="M-249.628,127.189v-2.312c0.429,0.355,0.895,0.621,1.397,0.799c0.502,0.177,1.009,0.267,1.521,0.267
		c0.301,0,0.563-0.03,0.788-0.087c0.224-0.057,0.411-0.136,0.563-0.236c0.149-0.1,0.262-0.219,0.335-0.355
		c0.074-0.136,0.11-0.283,0.11-0.443c0-0.206-0.059-0.391-0.176-0.552c-0.116-0.163-0.276-0.313-0.48-0.451
		c-0.201-0.138-0.442-0.271-0.721-0.399c-0.277-0.128-0.577-0.259-0.899-0.393c-0.82-0.344-1.432-0.765-1.834-1.261
		c-0.402-0.498-0.604-1.098-0.604-1.802c0-0.552,0.111-1.024,0.334-1.421s0.525-0.723,0.91-0.979
		c0.383-0.258,0.829-0.446,1.334-0.566c0.506-0.121,1.04-0.181,1.606-0.181c0.555,0,1.047,0.032,1.475,0.099
		c0.428,0.065,0.823,0.168,1.185,0.303v2.184c-0.177-0.126-0.368-0.238-0.576-0.334c-0.207-0.097-0.42-0.177-0.641-0.24
		c-0.22-0.063-0.438-0.109-0.656-0.141c-0.217-0.03-0.423-0.045-0.62-0.045c-0.268,0-0.512,0.027-0.732,0.081
		c-0.22,0.054-0.405,0.129-0.557,0.228c-0.151,0.098-0.269,0.216-0.352,0.354c-0.083,0.137-0.125,0.29-0.125,0.459
		c0,0.178,0.048,0.337,0.14,0.477c0.093,0.141,0.225,0.273,0.396,0.398c0.17,0.125,0.379,0.248,0.622,0.369
		c0.244,0.122,0.52,0.245,0.827,0.373c0.42,0.177,0.797,0.365,1.131,0.564c0.334,0.2,0.621,0.426,0.86,0.676
		c0.239,0.252,0.422,0.539,0.549,0.86c0.127,0.323,0.19,0.698,0.19,1.126c0,0.591-0.113,1.086-0.34,1.488
		c-0.227,0.4-0.534,0.726-0.921,0.974c-0.39,0.249-0.842,0.428-1.355,0.536c-0.515,0.108-1.059,0.163-1.631,0.163
		c-0.587,0-1.146-0.049-1.676-0.146S-249.24,127.382-249.628,127.189"/>
	<path fill="#FFFFFF" d="M-241.112,127.189v-2.312c0.429,0.355,0.895,0.621,1.397,0.799c0.502,0.177,1.009,0.267,1.521,0.267
		c0.302,0,0.563-0.03,0.788-0.087c0.224-0.057,0.411-0.136,0.562-0.236c0.15-0.1,0.263-0.219,0.336-0.355
		c0.074-0.136,0.11-0.283,0.11-0.443c0-0.206-0.058-0.391-0.175-0.552c-0.118-0.163-0.278-0.313-0.479-0.451
		c-0.204-0.138-0.444-0.271-0.722-0.399c-0.278-0.128-0.578-0.259-0.899-0.393c-0.82-0.344-1.433-0.765-1.835-1.261
		c-0.402-0.498-0.604-1.098-0.604-1.802c0-0.552,0.111-1.024,0.333-1.421c0.224-0.396,0.526-0.723,0.911-0.979
		c0.385-0.258,0.828-0.446,1.335-0.566c0.505-0.121,1.041-0.181,1.605-0.181c0.554,0,1.046,0.032,1.475,0.099
		c0.428,0.065,0.823,0.168,1.184,0.303v2.184c-0.175-0.126-0.366-0.238-0.573-0.334c-0.209-0.097-0.423-0.177-0.642-0.24
		c-0.221-0.063-0.439-0.109-0.656-0.141c-0.218-0.03-0.425-0.045-0.62-0.045c-0.269,0-0.512,0.027-0.732,0.081
		c-0.22,0.054-0.405,0.129-0.557,0.228c-0.151,0.098-0.269,0.216-0.353,0.354c-0.083,0.137-0.125,0.29-0.125,0.459
		c0,0.178,0.047,0.337,0.139,0.477c0.093,0.141,0.226,0.273,0.396,0.398c0.173,0.125,0.379,0.248,0.623,0.369
		c0.243,0.122,0.52,0.245,0.827,0.373c0.419,0.177,0.798,0.365,1.131,0.564c0.335,0.2,0.621,0.426,0.861,0.676
		c0.238,0.252,0.422,0.539,0.549,0.86c0.126,0.323,0.189,0.698,0.189,1.126c0,0.591-0.113,1.086-0.339,1.488
		c-0.228,0.4-0.534,0.726-0.923,0.974c-0.388,0.249-0.839,0.428-1.354,0.536c-0.515,0.108-1.058,0.163-1.63,0.163
		c-0.588,0-1.146-0.049-1.678-0.146C-240.265,127.526-240.724,127.382-241.112,127.189"/>
</g>
<g>
	<rect x="-280.849" y="94.269" fill="#5BD3BF" width="56.693" height="57.007"/>
	<g>
		<g>
			
				<linearGradient id="bottom_1_" gradientUnits="userSpaceOnUse" x1="-64.9026" y1="647.6843" x2="-64.9026" y2="681.6448" gradientTransform="matrix(1 0 0 1 -187.5996 -549.9902)">
				<stop  offset="0" style="stop-color:#002E3B"/>
				<stop  offset="1" style="stop-color:#002639"/>
			</linearGradient>
			
				<linearGradient id="bottom_2_" gradientUnits="userSpaceOnUse" x1="-64.905" y1="643.8884" x2="-64.905" y2="682.0835" gradientTransform="matrix(1 0 0 1 -187.5996 -549.9902)">
				<stop  offset="0" style="stop-color:#002E3B"/>
				<stop  offset="1" style="stop-color:#002639"/>
			</linearGradient>
			<polygon id="bottom" fill="url(#bottom_1_)" stroke="url(#bottom_2_)" points="-252.514,126.795 -257.444,124.39 
				-257.438,124.388 -257.44,124.388 -262.677,126.941 -252.51,131.902 -242.328,126.953 -247.584,124.349 			"/>
			
				<radialGradient id="right_2_" cx="-123.3855" cy="-253.51" r="30.2193" gradientTransform="matrix(1 0 0 -1 -137.6001 -123.2974)" gradientUnits="userSpaceOnUse">
				<stop  offset="0" style="stop-color:#00BC85"/>
				<stop  offset="1" style="stop-color:#149D91"/>
			</radialGradient>
			
				<radialGradient id="right_3_" cx="-123.5813" cy="-254.6765" r="34.5949" gradientTransform="matrix(1 0 0 -1 -137.6001 -123.2974)" gradientUnits="userSpaceOnUse">
				<stop  offset="0" style="stop-color:#00BC85"/>
				<stop  offset="1" style="stop-color:#149D91"/>
			</radialGradient>
			<polygon id="right_1_" fill="url(#right_2_)" stroke="url(#right_3_)" points="-262.665,126.959 -262.665,121.848 
				-257.625,119.391 -252.44,121.948 			"/>
			
				<radialGradient id="right-2_1_" cx="-63.2756" cy="646.0505" r="36.5126" gradientTransform="matrix(1 0 0 1 -187.5996 -549.9902)" gradientUnits="userSpaceOnUse">
				<stop  offset="0" style="stop-color:#00BC85"/>
				<stop  offset="1" style="stop-color:#149D91"/>
			</radialGradient>
			
				<radialGradient id="right-2_2_" cx="-64.0042" cy="644.7468" r="39.5624" gradientTransform="matrix(1 0 0 1 -187.5996 -549.9902)" gradientUnits="userSpaceOnUse">
				<stop  offset="0" style="stop-color:#00BC85"/>
				<stop  offset="1" style="stop-color:#149D91"/>
			</radialGradient>
			<polygon id="right-2" fill="url(#right-2_1_)" stroke="url(#right-2_2_)" points="-246.922,105.93 -246.922,114.009 
				-246.922,114.009 -246.922,114.009 -252.555,116.757 -247.374,119.337 -242.329,116.88 -242.329,103.059 			"/>
			
				<radialGradient id="left_2_" cx="-72.7327" cy="643.3748" r="69.7932" gradientTransform="matrix(1 0 0 1 -187.5996 -549.9902)" gradientUnits="userSpaceOnUse">
				<stop  offset="0" style="stop-color:#004473"/>
				<stop  offset="1" style="stop-color:#00345F"/>
			</radialGradient>
			
				<radialGradient id="left_3_" cx="-73.0627" cy="642.0134" r="73.7608" gradientTransform="matrix(1 0 0 1 -187.5996 -549.9902)" gradientUnits="userSpaceOnUse">
				<stop  offset="0" style="stop-color:#004473"/>
				<stop  offset="1" style="stop-color:#00345F"/>
			</radialGradient>
			<polygon id="left_1_" fill="url(#left_2_)" stroke="url(#left_3_)" points="-242.328,126.955 -242.328,126.955 -242.328,121.846 
				-258.071,114.005 -258.071,105.925 -262.665,103.054 -262.665,116.876 			"/>
			
				<linearGradient id="top_1_" gradientUnits="userSpaceOnUse" x1="-64.9133" y1="647.8611" x2="-64.9133" y2="681.6443" gradientTransform="matrix(1 0 0 1 -187.5996 -549.9902)">
				<stop  offset="0" style="stop-color:#002E3B"/>
				<stop  offset="1" style="stop-color:#002639"/>
			</linearGradient>
			
				<linearGradient id="top_2_" gradientUnits="userSpaceOnUse" x1="-64.9133" y1="647.364" x2="-64.9133" y2="685.2574" gradientTransform="matrix(1 0 0 1 -187.5996 -549.9902)">
				<stop  offset="0" style="stop-color:#002E3B"/>
				<stop  offset="1" style="stop-color:#002639"/>
			</linearGradient>
			<polygon id="top" fill="url(#top_1_)" stroke="url(#top_2_)" points="-258.085,105.917 -258.085,105.915 -252.51,103.196 
				-246.936,105.915 -242.349,103.05 -252.514,98.091 -262.677,103.048 -262.677,103.052 -258.089,105.919 			"/>
		</g>
		<rect x="-274.628" y="138.455" fill="none" width="44.25" height="9"/>
		<text transform="matrix(1 0 0 1 -274.6277 145.2947)" fill="#FFFFFF" font-family="'OpenSans'" font-size="9">SNAP.SVG</text>
	</g>
</g>
<g>
	<rect x="-280.849" y="94.426" fill="#CCFFCC" width="56.693" height="56.693"/>
	<g id="Responsive_Design_1_">
		<path fill="#757575" d="M-235.052,130.495c0,0.067,0,0.103,0,0.169c0,1.838-4.408,3.301-9.844,3.301s-9.844-1.463-9.844-3.301
			c0-0.066,0-0.102,0.033-0.169c-0.033-0.034-0.033-0.103-0.033-0.169c0-1.805,4.408-3.301,9.844-3.301s9.844,1.496,9.844,3.301
			C-235.052,130.392-235.052,130.461-235.052,130.495z"/>
		<path fill="#696969" d="M-235.052,130.495c0,0.067,0,0.103,0,0.169c0,1.838-4.408,3.301-9.844,3.301c-0.232,0-0.465,0-0.695,0
			v-6.905c0.23-0.034,0.463-0.034,0.695-0.034c5.436,0,9.844,1.496,9.844,3.301C-235.052,130.392-235.052,130.461-235.052,130.495z"
			/>
		<path fill="#757575" d="M-245.591,127.059c0.23-0.034,0.463-0.034,0.695-0.034c5.27,0,9.545,1.395,9.844,3.129
			c-0.299,1.734-4.574,3.096-9.844,3.096c-0.232,0-0.463,0-0.695,0V127.059z"/>
		<ellipse fill="#8D8D8D" cx="-244.896" cy="129.95" rx="9.844" ry="3.3"/>
		<path fill="#7F7F7F" d="M-244.896,126.685c5.436,0,9.844,1.463,9.844,3.266c0,1.837-4.408,3.299-9.844,3.299
			c-0.232,0-0.463,0-0.695,0v-6.564C-245.361,126.685-245.128,126.685-244.896,126.685z"/>
		<polygon fill="#CCCCCC" points="-248.443,120.358 -241.316,120.358 -241.316,129.133 -248.443,129.133 		"/>
		<polygon fill="#B8B8B8" points="-241.316,125.086 -241.316,129.133 -245.591,129.133 -245.591,125.086 		"/>
		<polygon fill="#B8B8B8" points="-247.911,120.936 -241.714,120.936 -241.714,128.59 -247.911,128.59 		"/>
		<polygon fill="#A6A6A6" points="-241.714,125.086 -241.714,128.59 -245.591,128.59 -245.591,125.086 		"/>
		<path fill="#A9ABAE" d="M-262.728,99.813h35.828c0.365,0,0.664,0.306,0.664,0.681v23.913c0,0.373-0.299,0.679-0.664,0.679h-35.828
			c-0.364,0-0.662-0.306-0.662-0.679v-23.913C-263.39,100.119-263.092,99.813-262.728,99.813z"/>
		<path fill="#669999" d="M-261.302,100.801h33.607c0.266,0,0.496,0.238,0.496,0.544v21.667c0,0.306-0.23,0.545-0.496,0.545h-34.203
			c-0.299,0-0.531-0.239-0.531-0.545v-21.056C-262.429,101.31-261.932,100.801-261.302,100.801z"/>
		<path fill="#CCCCCC" d="M-244.796,123.692c0.273,0,0.496,0.229,0.496,0.51s-0.223,0.511-0.496,0.511
			c-0.275,0-0.498-0.229-0.498-0.511S-245.072,123.692-244.796,123.692z"/>
		<ellipse fill="#B3B3B3" cx="-244.796" cy="124.202" rx="0.365" ry="0.374"/>
		<path fill="#336666" d="M-260.308,101.514h31.553c0.266,0,0.465,0.204,0.465,0.476v20.375c0,0.273-0.199,0.477-0.465,0.477
			h-32.115c-0.266,0-0.465-0.203-0.465-0.477v-19.796C-261.335,101.99-260.87,101.514-260.308,101.514z"/>
		<rect x="-258.187" y="104.066" fill="#E6E6E6" width="21.113" height="17.721"/>
		<rect x="-260.805" y="104.031" fill="#66FFCC" width="1.806" height="17.73"/>
		<rect x="-236.445" y="104.168" fill="#E6E6E6" width="4.375" height="17.551"/>
		<rect x="-231.075" y="104.031" fill="#E6E6E6" width="1.807" height="17.73"/>
		<rect x="-236.113" y="104.542" fill="#CCCCCC" width="3.779" height="5"/>
		<rect x="-236.113" y="110.086" fill="#CCCCCC" width="3.777" height="2.858"/>
		<rect x="-236.113" y="113.691" fill="#CCCCCC" width="3.777" height="1.814"/>
		<rect x="-236.113" y="116.14" fill="#CCCCCC" width="3.779" height="5.035"/>
		<path fill="#33CC99" d="M-230.876,104.542h0.564v0.578h-0.564V104.542z M-230.048,120.699h0.564v0.578h-0.564V120.699z
			 M-230.876,120.699h0.564v0.578h-0.564V120.699z M-230.048,119.917h0.564v0.611h-0.564V119.917z M-230.876,119.917h0.564v0.611
			h-0.564V119.917z M-230.048,119.168h0.564v0.578h-0.564V119.168z M-230.876,119.168h0.564v0.578h-0.564V119.168z
			 M-230.048,118.385h0.564v0.578h-0.564V118.385z M-230.876,118.385h0.564v0.578h-0.564V118.385z M-230.048,117.603h0.564v0.612
			h-0.564V117.603z M-230.876,117.603h0.564v0.612h-0.564V117.603z M-230.048,116.855h0.564v0.578h-0.564V116.855z
			 M-230.876,116.855h0.564v0.578h-0.564V116.855z M-230.048,116.073h0.564v0.612h-0.564V116.073z M-230.876,116.073h0.564v0.612
			h-0.564V116.073z M-230.048,115.291h0.564v0.611h-0.564V115.291z M-230.876,115.291h0.564v0.611h-0.564V115.291z
			 M-230.048,114.542h0.564v0.578h-0.564V114.542z M-230.876,114.542h0.564v0.578h-0.564V114.542z M-230.048,113.76h0.564v0.612
			h-0.564V113.76z M-230.876,113.76h0.564v0.612h-0.564V113.76z M-230.048,113.011h0.564v0.578h-0.564V113.011z M-230.876,113.011
			h0.564v0.578h-0.564V113.011z M-230.048,112.228h0.564v0.579h-0.564V112.228z M-230.876,112.228h0.564v0.579h-0.564V112.228z
			 M-230.048,111.447h0.564v0.613h-0.564V111.447z M-230.876,111.447h0.564v0.613h-0.564V111.447z M-230.048,110.697h0.564v0.58
			h-0.564V110.697z M-230.876,110.697h0.564v0.58h-0.564V110.697z M-230.048,109.916h0.564v0.612h-0.564V109.916z M-230.876,109.916
			h0.564v0.612h-0.564V109.916z M-230.048,109.133h0.564v0.613h-0.564V109.133z M-230.876,109.133h0.564v0.613h-0.564V109.133z
			 M-230.048,108.385h0.564v0.577h-0.564V108.385z M-230.876,108.385h0.564v0.577h-0.564V108.385z M-230.048,107.603h0.564v0.612
			h-0.564V107.603z M-230.876,107.603h0.564v0.612h-0.564V107.603z M-230.048,106.855h0.564v0.578h-0.564V106.855z
			 M-230.876,106.855h0.564v0.578h-0.564V106.855z M-230.048,106.072h0.564v0.579h-0.564V106.072z M-230.876,106.072h0.564v0.579
			h-0.564V106.072z M-230.048,105.291h0.564v0.611h-0.564V105.291z M-230.876,105.291h0.564v0.611h-0.564V105.291z
			 M-230.048,104.542h0.564v0.578h-0.564V104.542z"/>
		<rect x="-259.811" y="101.888" fill="#999999" width="30.005" height="1.465"/>
		<ellipse fill="#B3B3B3" cx="-258.816" cy="102.637" rx="0.363" ry="0.375"/>
		<path fill="#B3B3B3" d="M-256.96,102.262c0.201,0,0.364,0.169,0.364,0.374c0,0.207-0.163,0.375-0.364,0.375
			s-0.364-0.168-0.364-0.375C-257.324,102.431-257.161,102.262-256.96,102.262z"/>
		<path fill="#B3B3B3" d="M-255.105,102.262c0.202,0,0.365,0.169,0.365,0.374c0,0.207-0.163,0.375-0.365,0.375
			c-0.201,0-0.364-0.168-0.364-0.375C-255.469,102.431-255.306,102.262-255.105,102.262z"/>
		<path fill="#B3B3B3" d="M-253.281,102.262c0.2,0,0.364,0.169,0.364,0.374c0,0.207-0.164,0.375-0.364,0.375
			c-0.202,0-0.365-0.168-0.365-0.375C-253.646,102.431-253.483,102.262-253.281,102.262z"/>
		<ellipse fill="#B3B3B3" cx="-251.425" cy="102.637" rx="0.363" ry="0.375"/>
		<ellipse fill="#B3B3B3" cx="-249.57" cy="102.637" rx="0.365" ry="0.375"/>
		<ellipse fill="#B3B3B3" cx="-247.712" cy="102.637" rx="0.363" ry="0.375"/>
		<ellipse fill="#B3B3B3" cx="-245.857" cy="102.637" rx="0.365" ry="0.375"/>
		<ellipse fill="#B3B3B3" cx="-244.034" cy="102.637" rx="0.365" ry="0.375"/>
		<path fill="#B3B3B3" d="M-242.179,102.262c0.201,0,0.365,0.169,0.365,0.374c0,0.207-0.164,0.375-0.365,0.375
			c-0.199,0-0.363-0.168-0.363-0.375C-242.542,102.431-242.378,102.262-242.179,102.262z"/>
		<ellipse fill="#B3B3B3" cx="-240.322" cy="102.637" rx="0.363" ry="0.375"/>
		<ellipse fill="#B3B3B3" cx="-238.466" cy="102.637" rx="0.365" ry="0.375"/>
		<ellipse fill="#B3B3B3" cx="-236.644" cy="102.637" rx="0.365" ry="0.375"/>
		<ellipse fill="#B3B3B3" cx="-234.786" cy="102.637" rx="0.363" ry="0.375"/>
		<path fill="#B3B3B3" d="M-232.931,102.262c0.201,0,0.365,0.169,0.365,0.374c0,0.207-0.164,0.375-0.365,0.375
			s-0.365-0.168-0.365-0.375C-233.296,102.431-233.132,102.262-232.931,102.262z"/>
		<ellipse fill="#B3B3B3" cx="-231.075" cy="102.637" rx="0.365" ry="0.375"/>
		<polygon fill="#FFCC00" points="-247.615,107.705 -245.425,108.998 -243.24,110.291 -243.24,112.91 -243.24,115.528 
			-245.425,116.821 -247.615,118.113 -249.802,116.821 -251.988,115.528 -251.988,112.91 -251.988,110.291 -249.802,108.998 		"/>
		<polygon fill="#FFAB00" points="-247.615,107.705 -245.425,108.998 -243.24,110.291 -243.24,112.636 -251.988,112.636 
			-251.988,110.291 -249.802,108.998 		"/>
		<path fill="#CCCCCC" d="M-247.648,105.391L-247.648,105.391h-0.031h-0.066h-0.035c-0.064,0-0.131-0.067-0.131-0.136
			c0-0.102,0.066-0.136,0.131-0.17h0.035h0.066h0.031l0,0h0.068h0.033h0.064l0.033,0.034h0.066h0.033
			c0.066,0,0.133,0.067,0.133,0.136c-0.033,0.068-0.066,0.136-0.166,0.136h-0.033h-0.033h-0.033h-0.064h-0.033H-247.648z
			 M-248.609,105.154c0.066,0,0.133,0.067,0.166,0.137c0,0.068-0.066,0.135-0.133,0.135l0,0l-0.033,0.035h-0.064h-0.035h-0.033
			h-0.066l-0.031,0.033c-0.066,0-0.135-0.068-0.135-0.135c-0.031-0.07,0.035-0.138,0.1-0.138l0.035-0.034h0.031h0.066h0.033
			l0.066-0.033H-248.609L-248.609,105.154z M-249.669,105.391c0.066-0.032,0.133,0.034,0.166,0.103c0,0.068-0.033,0.137-0.1,0.171
			h-0.033h-0.033l-0.066,0.032h-0.033l-0.033,0.035h-0.064l0,0c-0.068,0.033-0.133,0-0.166-0.067c-0.033-0.103,0-0.171,0.098-0.204
			l0,0h0.035l0.066-0.035h0.031h0.033l0.066-0.034H-249.669L-249.669,105.391z M-250.73,105.767c0.066-0.035,0.166,0,0.199,0.067
			s0,0.169-0.066,0.204h-0.033l-0.066,0.033h-0.033l-0.033,0.034l-0.033,0.034h-0.066l0,0c-0.066,0.033-0.131,0-0.166-0.068
			c-0.033-0.068,0-0.136,0.066-0.17l0,0l0.033-0.035h0.033l0.066-0.032l0.033-0.034h0.033L-250.73,105.767z M-251.691,106.31
			c0.066-0.033,0.133-0.033,0.199,0.034c0.033,0.067,0,0.17-0.066,0.204l-0.033,0.033h-0.033l-0.033,0.035l-0.033,0.034
			l-0.033,0.033h-0.033l0,0c-0.066,0.067-0.166,0.034-0.199-0.033c-0.031-0.034-0.031-0.137,0.033-0.171v-0.033h0.033l0.066-0.035
			l0.033-0.033l0.033-0.034h0.033L-251.691,106.31z M-252.585,106.99c0.066-0.033,0.133-0.033,0.199,0
			c0.033,0.068,0.033,0.17,0,0.205l-0.033,0.034l-0.033,0.032h-0.033l-0.033,0.035l-0.033,0.035l-0.033,0.033v0.033
			c-0.066,0.033-0.166,0.033-0.199-0.033c-0.066-0.033-0.066-0.136,0-0.17l0.033-0.035l0.033-0.033l0.033-0.034l0.033-0.034
			l0.033-0.033h0.033V106.99L-252.585,106.99z M-253.347,107.807c0.033-0.069,0.132-0.069,0.165-0.034
			c0.065,0.068,0.065,0.137,0.033,0.204l0,0l-0.033,0.034l-0.033,0.033l-0.033,0.034l-0.032,0.034l-0.033,0.033v0.035
			c-0.067,0.067-0.133,0.067-0.199,0.034c-0.066-0.069-0.066-0.137-0.033-0.204l0.033-0.034l0.033-0.034l0.033-0.033l0.033-0.035
			v-0.033l0.033-0.034H-253.347z M-254.011,108.691c0.033-0.034,0.1-0.068,0.166-0.034s0.1,0.138,0.066,0.204l-0.033,0.035
			l-0.033,0.033l-0.033,0.033v0.035l-0.033,0.068l-0.033,0.034l0,0c-0.033,0.067-0.099,0.067-0.164,0.032
			c-0.068-0.032-0.101-0.102-0.068-0.17v-0.033l0.034-0.033l0.032-0.035v-0.034l0.033-0.032l0.034-0.035L-254.011,108.691z
			 M-254.54,109.712c0.032-0.067,0.1-0.102,0.166-0.067c0.065,0.034,0.098,0.102,0.065,0.169v0.034l-0.033,0.068v0.034l-0.032,0.034
			v0.033l-0.033,0.068l0,0c-0.033,0.068-0.101,0.102-0.166,0.068c-0.066-0.034-0.1-0.102-0.1-0.17l0.033-0.034v-0.034l0.033-0.033
			v-0.035l0.033-0.067v-0.034L-254.54,109.712z M-254.939,110.767c0.033-0.07,0.1-0.103,0.166-0.103
			c0.1,0.032,0.133,0.103,0.1,0.204l0,0v0.033l-0.033,0.035v0.066v0.035l-0.033,0.033v0.034c0,0.103-0.1,0.137-0.166,0.103
			c-0.066,0-0.1-0.068-0.1-0.17v-0.035l0.033-0.034v-0.067l0.033-0.035v-0.033V110.767L-254.939,110.767z M-255.137,111.888
			c0-0.068,0.065-0.135,0.132-0.135c0.066,0.033,0.133,0.102,0.133,0.169v0.034l-0.033,0.033v0.07v0.032v0.069v0.033l0,0
			c0,0.068-0.066,0.137-0.166,0.137c-0.065,0-0.133-0.069-0.099-0.17l0,0v-0.035v-0.066v-0.035v-0.068v-0.034L-255.137,111.888z
			 M-255.204,113.011c0-0.067,0.033-0.137,0.133-0.137c0.066,0,0.133,0.069,0.133,0.137v0.067v0.034v0.034v0.068v0.033v0.034
			c0,0.103-0.066,0.172-0.133,0.172c-0.065,0-0.133-0.069-0.133-0.137v-0.035v-0.067v-0.034v-0.068v-0.034V113.011z
			 M-255.137,114.168c0-0.068,0.065-0.17,0.132-0.17s0.133,0.033,0.166,0.102v0.068v0.035v0.066v0.035l0.033,0.034v0.033
			c0,0.103-0.033,0.17-0.1,0.17c-0.066,0.034-0.166-0.033-0.166-0.103v-0.033l-0.033-0.067v-0.034v-0.035v-0.066L-255.137,114.168z
			 M-254.872,115.256c-0.033-0.067,0.033-0.136,0.1-0.17c0.066,0,0.133,0.034,0.166,0.103v0.033l0.033,0.034v0.035v0.033
			l0.033,0.068v0.033v0.035c0.032,0.067,0,0.135-0.066,0.17c-0.066,0.033-0.133-0.035-0.166-0.103l0,0l-0.033-0.067v-0.035
			l-0.033-0.033v-0.066l-0.033-0.035V115.256L-254.872,115.256z M-254.474,116.31c-0.034-0.067,0-0.135,0.066-0.17
			c0.065-0.034,0.165,0,0.198,0.068v0.034l0.033,0.034v0.033l0.033,0.035l0.034,0.033v0.068l0,0c0.031,0.067,0.031,0.17-0.034,0.204
			c-0.066,0.034-0.166,0-0.199-0.067v-0.035l-0.032-0.034v-0.034l-0.033-0.033l-0.033-0.068v-0.033L-254.474,116.31z
			 M-253.911,117.297c-0.033-0.034-0.033-0.135,0.033-0.17c0.066-0.067,0.166-0.034,0.199,0.035l0,0l0.033,0.033l0.033,0.068v0.033
			l0.033,0.035l0.033,0.033l0,0c0.066,0.068,0.033,0.17,0,0.205c-0.066,0.033-0.166,0.033-0.199-0.035h-0.033v-0.068l-0.033-0.033
			l-0.033-0.035l-0.033-0.034l-0.033-0.032V117.297L-253.911,117.297z M-253.215,118.216c-0.065-0.069-0.065-0.17,0-0.204
			c0.066-0.067,0.133-0.067,0.198,0l0,0l0.034,0.034l0.032,0.034l0.034,0.033l0.033,0.035l0.032,0.033v0.034
			c0.066,0.067,0.066,0.136,0,0.204c-0.032,0.034-0.132,0.034-0.198,0v-0.034l-0.033-0.034l-0.034-0.033l-0.032-0.035l-0.033-0.034
			L-253.215,118.216L-253.215,118.216z M-252.419,118.998c-0.066-0.068-0.066-0.137-0.033-0.204
			c0.066-0.069,0.133-0.069,0.198-0.034l0.034,0.034l0.033,0.034l0.032,0.033h0.034l0.032,0.035l0.033,0.033l0,0
			c0.067,0.068,0.101,0.136,0.034,0.203c-0.034,0.07-0.134,0.07-0.166,0.035h-0.033l-0.033-0.035l-0.033-0.033l-0.033-0.034
			l-0.033-0.032l-0.033-0.035H-252.419L-252.419,118.998z M-251.525,119.644c-0.066-0.033-0.066-0.136-0.033-0.205
			c0.033-0.067,0.1-0.067,0.166-0.033h0.033l0.033,0.033l0.066,0.035h0.033l0.033,0.034l0.033,0.032l0,0
			c0.066,0.035,0.098,0.104,0.066,0.17c-0.033,0.069-0.133,0.104-0.199,0.069l0,0l-0.033-0.034l-0.033-0.035h-0.066l-0.033-0.032
			l-0.033-0.034H-251.525L-251.525,119.644z M-250.531,120.154c-0.066-0.034-0.1-0.102-0.066-0.204
			c0.033-0.067,0.1-0.103,0.166-0.067l0.033,0.034h0.033l0.033,0.033h0.066l0.033,0.034h0.033h0.033
			c0.066,0.033,0.1,0.103,0.066,0.17c-0.033,0.102-0.1,0.137-0.166,0.102h-0.033l-0.033-0.033h-0.033l-0.066-0.034h-0.033
			l-0.033-0.034H-250.531L-250.531,120.154z M-249.47,120.495c-0.1,0-0.133-0.069-0.1-0.17c0-0.069,0.066-0.103,0.166-0.103
			l0.033,0.033h0.033h0.033l0.066,0.035h0.033h0.033c0.1,0.034,0.133,0.102,0.133,0.17c-0.033,0.067-0.1,0.137-0.166,0.102h-0.066
			h-0.033l-0.033-0.034h-0.066h-0.033L-249.47,120.495z M-248.409,120.699c-0.066,0-0.1-0.068-0.1-0.137
			c0-0.102,0.066-0.137,0.133-0.137h0.033h0.066h0.033h0.033h0.066h0.033l0,0c0.066,0.035,0.133,0.103,0.133,0.17
			c0,0.068-0.066,0.137-0.133,0.137l0,0h-0.066l-0.033-0.033h-0.066h-0.033h-0.066H-248.409z M-247.282,120.732
			c-0.1,0-0.133-0.068-0.166-0.137c0-0.067,0.066-0.135,0.133-0.135h0.066h0.033l0.033-0.035h0.066h0.033h0.033
			c0.1,0,0.166,0.069,0.166,0.137c0,0.068-0.066,0.137-0.133,0.137h-0.033l-0.066,0.033h-0.033h-0.066h-0.033H-247.282z
			 M-246.189,120.595c-0.066,0-0.166-0.033-0.166-0.101c0-0.069,0.033-0.17,0.1-0.17h0.033l0.066-0.034h0.033h0.033h0.066
			l0.033-0.035c0.066,0,0.133,0.035,0.166,0.103c0,0.103-0.033,0.17-0.1,0.17l-0.033,0.034h-0.066h-0.033h-0.066l-0.033,0.033
			H-246.189L-246.189,120.595z M-245.128,120.291c-0.066,0.034-0.166,0-0.166-0.068c-0.033-0.068,0-0.17,0.066-0.17l0.033-0.035
			h0.033l0.033-0.033h0.033h0.066l0.033-0.034h0.033c0.066-0.034,0.133,0,0.166,0.067c0.033,0.069,0,0.171-0.066,0.171l-0.033,0.034
			h-0.066l-0.033,0.033h-0.033l-0.033,0.035H-245.128L-245.128,120.291z M-244.134,119.847c-0.066,0.035-0.131,0-0.166-0.067
			c-0.033-0.069,0-0.136,0.068-0.171v-0.033h0.031l0.033-0.035h0.068l0.031-0.033l0.033-0.033h0.035
			c0.064-0.035,0.131-0.035,0.164,0.033s0.033,0.171-0.033,0.203h-0.033l-0.033,0.035l-0.064,0.034h-0.035l-0.033,0.034
			l-0.031,0.033H-244.134z M-243.171,119.235c-0.068,0.069-0.168,0.034-0.199-0.032c-0.033-0.035-0.033-0.138,0.031-0.17v-0.035
			h0.035l0.033-0.034l0.031-0.034l0.033-0.033l0.035-0.035h0.031c0.068-0.067,0.166-0.033,0.199,0
			c0.033,0.068,0.033,0.17-0.033,0.204l-0.033,0.034l-0.033,0.033l-0.031,0.035h-0.035l-0.033,0.035L-243.171,119.235
			L-243.171,119.235z M-242.343,118.521c-0.068,0.034-0.133,0.034-0.199,0c-0.033-0.068-0.033-0.17,0-0.203l0.031-0.035l0.035-0.034
			l0.033-0.033l0.031-0.034l0.035-0.035l0.033-0.033l0,0c0.066-0.068,0.133-0.068,0.197,0c0.035,0.033,0.035,0.136,0,0.205l0,0
			l-0.031,0.033l-0.033,0.034l-0.033,0.034l-0.033,0.033l-0.035,0.035L-242.343,118.521z M-241.615,117.671
			c-0.033,0.034-0.133,0.069-0.199,0c-0.033-0.033-0.066-0.136,0-0.169v-0.035l0.033-0.033l0.033-0.035v-0.034l0.033-0.032
			l0.033-0.035v-0.034c0.066-0.067,0.133-0.067,0.199-0.034c0.066,0.034,0.066,0.136,0.033,0.205l0,0l-0.033,0.033l-0.033,0.068
			l-0.033,0.033l-0.031,0.035v0.034L-241.615,117.671z M-241.019,116.719c-0.031,0.068-0.1,0.068-0.164,0.035
			c-0.066-0.035-0.1-0.103-0.066-0.17v-0.035l0.031-0.034l0.035-0.034v-0.033l0.033-0.068l0.031-0.033v-0.035
			c0.035-0.067,0.1-0.067,0.168-0.035c0.064,0.035,0.1,0.104,0.064,0.172v0.033l-0.033,0.034v0.034l-0.031,0.068l-0.033,0.034v0.034
			L-241.019,116.719z M-240.554,115.664c0,0.068-0.098,0.104-0.166,0.104c-0.066-0.035-0.1-0.137-0.066-0.205l0,0v-0.034
			l0.035-0.067v-0.035l0.031-0.034v-0.067l0,0c0.033-0.068,0.1-0.136,0.199-0.103c0.066,0.034,0.1,0.103,0.066,0.17v0.034
			l-0.033,0.035v0.067l-0.033,0.034v0.033v0.068H-240.554L-240.554,115.664z M-240.222,114.576c-0.033,0.068-0.1,0.135-0.168,0.103
			c-0.064,0-0.131-0.069-0.098-0.17v-0.034v-0.035l0.033-0.033v-0.068v-0.033v-0.035v-0.033c0.033-0.068,0.1-0.104,0.164-0.104
			c0.068,0.035,0.135,0.104,0.1,0.172l0,0v0.033v0.068v0.033l-0.031,0.069v0.033V114.576L-240.222,114.576z M-240.091,113.453
			c0,0.068-0.064,0.137-0.131,0.137c-0.068,0-0.133-0.068-0.133-0.17l0,0v-0.068v-0.033v-0.069l0.033-0.034v-0.067l0,0
			c0-0.068,0.066-0.136,0.131-0.136c0.068,0,0.133,0.067,0.133,0.17l0,0v0.033v0.068v0.035v0.067l-0.033,0.034V113.453z
			 M-240.091,112.332c0,0.066-0.031,0.135-0.131,0.135c-0.068,0-0.133-0.068-0.133-0.135v-0.035v-0.068v-0.033v-0.035l-0.035-0.067
			v-0.032c0-0.07,0.068-0.138,0.135-0.138c0.064-0.034,0.133,0.033,0.133,0.103l0.031,0.033v0.067v0.034v0.068v0.034V112.332z
			 M-240.255,111.176c0.033,0.102-0.035,0.17-0.1,0.17c-0.066,0.033-0.133-0.035-0.166-0.103v-0.034v-0.033l-0.033-0.035v-0.067
			v-0.034l-0.033-0.035v-0.033c0-0.068,0.033-0.137,0.1-0.17c0.066,0,0.166,0.033,0.166,0.102l0,0l0.031,0.068v0.033v0.069
			l0.035,0.033v0.034V111.176z M-240.554,110.086c0,0.104-0.033,0.17-0.098,0.205c-0.068,0.033-0.135-0.035-0.168-0.102l0,0
			l-0.031-0.035v-0.034l-0.035-0.034v-0.068l-0.033-0.033v-0.034c-0.031-0.067,0-0.17,0.068-0.17c0.064-0.034,0.164,0,0.164,0.067
			l0.035,0.035v0.034l0.031,0.033l0.033,0.067v0.035L-240.554,110.086L-240.554,110.086z M-241.05,109.066
			c0.031,0.066,0.031,0.17-0.035,0.203c-0.064,0.035-0.164,0-0.197-0.066l0,0v-0.035l-0.033-0.035l-0.033-0.032l-0.033-0.034v-0.068
			l-0.033-0.035c-0.033-0.066,0-0.136,0.033-0.168c0.066-0.07,0.164-0.035,0.199,0.032l0.033,0.034l0.031,0.035v0.033l0.033,0.067
			l0.035,0.034V109.066L-241.05,109.066z M-241.648,108.113c0.033,0.068,0.033,0.17-0.033,0.205
			c-0.066,0.033-0.133,0.033-0.199-0.035v-0.034l-0.033-0.033l-0.033-0.034l-0.031-0.035l-0.035-0.033v-0.034h-0.033
			c-0.031-0.067-0.031-0.136,0.033-0.204c0.066-0.033,0.133-0.033,0.199,0.035l0,0l0.033,0.033l0.033,0.034v0.034l0.033,0.033
			l0.033,0.034L-241.648,108.113z M-242.376,107.261c0.033,0.07,0.033,0.172,0,0.205c-0.066,0.069-0.135,0.069-0.199,0h-0.033
			l-0.033-0.033l-0.033-0.035l-0.033-0.033l-0.033-0.033v-0.035h-0.033c-0.066-0.067-0.066-0.137,0-0.204
			c0.033-0.067,0.133-0.067,0.166,0h0.033l0.033,0.034l0.031,0.033l0.035,0.035l0.033,0.034l0.031,0.032H-242.376z M-243.24,106.549
			c0.068,0.033,0.068,0.136,0.033,0.203c-0.033,0.068-0.133,0.068-0.197,0.035l0,0l-0.035-0.035l-0.031-0.033l-0.033-0.034h-0.035
			l-0.064-0.033v-0.034c-0.066-0.035-0.1-0.137-0.066-0.17c0.066-0.068,0.131-0.103,0.199-0.068l0.031,0.033l0.035,0.035h0.033
			l0.031,0.033l0.035,0.034L-243.24,106.549L-243.24,106.549z M-244.167,105.97c0.068,0.033,0.068,0.102,0.033,0.17
			c-0.033,0.068-0.098,0.103-0.166,0.068l0,0l-0.066-0.033h-0.031l-0.033-0.035h-0.035l-0.031-0.034l-0.033-0.033
			c-0.066-0.034-0.1-0.103-0.066-0.171c0.033-0.067,0.098-0.102,0.166-0.067l0.033,0.034h0.031l0.066,0.033h0.035l0.031,0.034
			l0.033,0.034H-244.167z M-245.195,105.528c0.066,0,0.1,0.103,0.066,0.169c0,0.07-0.1,0.104-0.166,0.07l0,0h-0.033l-0.066-0.035
			h-0.033h-0.033l-0.031-0.035h-0.033c-0.1-0.032-0.133-0.1-0.1-0.169c0.033-0.067,0.1-0.136,0.164-0.103h0.033l0.033,0.035h0.066
			l0.033,0.033h0.033L-245.195,105.528L-245.195,105.528z M-246.255,105.221c0.066,0.034,0.1,0.103,0.1,0.17
			c0,0.069-0.1,0.137-0.166,0.103h-0.033h-0.033h-0.033l-0.064-0.033h-0.035h-0.064l0,0c-0.066,0-0.102-0.069-0.102-0.17
			c0-0.069,0.066-0.104,0.133-0.104h0.033h0.035h0.031l0.066,0.034h0.033h0.066H-246.255z"/>
		<path fill="#4E5A62" d="M-226.9,99.236h-35.828c-0.695,0-1.227,0.544-1.227,1.258v23.913c0,0.712,0.531,1.292,1.227,1.292h13.689
			v0.68c-2.055,0.307-6.265,1.259-6.265,3.571c0,0.069,0,0.136,0,0.204c0,0.067,0,0.103,0,0.172c0,0.066,0,0.135,0,0.169
			c0,0.067,0,0.103,0,0.169c0,1.532,1.856,2.417,3.049,2.823c2.056,0.749,4.474,1.021,6.663,1.056
			c0.23,0.033,0.463,0.033,0.695,0.033c2.32,0,4.938-0.271,7.16-1.02c1.191-0.408,3.281-1.293,3.281-2.893c0-0.066,0-0.102,0-0.169
			c0-0.034,0-0.103,0-0.169c0-0.069,0-0.104,0-0.172c0-0.068,0-0.135,0-0.204c0-2.313-4.211-3.265-6.266-3.571v-0.68h13.82
			c0.697,0,1.227-0.58,1.227-1.292v-23.913C-225.671,99.78-226.202,99.236-226.9,99.236z M-226.236,124.407
			c0,0.373-0.299,0.679-0.664,0.679h-14.416v1.803c3.678,0.478,6.264,1.668,6.264,3.062c0,0.069,0,0.136,0,0.204
			c0,0.067,0,0.103,0,0.172c0,0.066,0,0.135,0,0.169c0,0.067,0,0.103,0,0.169c0,1.838-4.408,3.301-9.844,3.301
			c-0.232,0-0.463,0-0.695,0c-5.105-0.137-9.148-1.565-9.148-3.301c0-0.066,0-0.102,0.033-0.169
			c-0.033-0.034-0.033-0.103-0.033-0.169c0-0.069,0-0.104,0.033-0.172c-0.033-0.068-0.033-0.135-0.033-0.204
			c0-1.394,2.619-2.584,6.297-3.062v-1.803h-14.285c-0.364,0-0.662-0.306-0.662-0.679v-23.913c0-0.375,0.298-0.681,0.662-0.681
			h35.828c0.365,0,0.664,0.306,0.664,0.681V124.407L-226.236,124.407z"/>
		<path fill="#E6E6E6" d="M-268.428,96.853h10.474c1.458,0,2.651,1.226,2.651,2.723v24.659c0,1.497-1.193,2.722-2.651,2.722h-10.474
			c-1.458,0-2.651-1.225-2.651-2.722V99.576C-271.079,98.079-269.886,96.853-268.428,96.853z"/>
		<path fill="#4E5A62" d="M-268.197,98.692h10.043c0.994,0,1.823,0.815,1.823,1.87v21.089c0,1.054-0.829,1.87-1.823,1.87h-10.043
			c-0.994,0-1.822-0.816-1.822-1.87v-21.089C-270.019,99.508-269.191,98.692-268.197,98.692z"/>
		<path fill="#CCCCCC" d="M-269.688,124.339h1.89c0.198,0,0.331,0.135,0.331,0.34l0,0c0,0.169-0.133,0.341-0.331,0.341h-1.89
			c-0.166,0-0.331-0.172-0.331-0.341l0,0C-270.019,124.473-269.854,124.339-269.688,124.339z"/>
		<path fill="#7F8C8D" d="M-264.021,124.339h2.089c0.299,0,0.53,0.237,0.53,0.544l0,0c0,0.271-0.231,0.544-0.53,0.544h-2.089
			c-0.264,0-0.529-0.272-0.529-0.544l0,0C-264.55,124.576-264.284,124.339-264.021,124.339z"/>
		<path fill="#CCCCCC" d="M-258.551,124.339h1.856c0.198,0,0.364,0.135,0.364,0.34l0,0c0,0.169-0.166,0.341-0.364,0.341h-1.856
			c-0.198,0-0.331-0.172-0.331-0.341l0,0C-258.883,124.473-258.75,124.339-258.551,124.339z"/>
		<path fill="#FEFEFE" d="M-265.876,97.365h5.402c0.199,0,0.332,0.137,0.332,0.34l0,0c0,0.205-0.133,0.34-0.332,0.34h-5.402
			c-0.198,0-0.364-0.135-0.364-0.34l0,0C-266.24,97.502-266.074,97.365-265.876,97.365z"/>
		<path fill="#CCCCCC" d="M-263.921,124.439h1.889c0.3,0,0.498,0.205,0.498,0.443l0,0c0,0.236-0.198,0.408-0.498,0.408h-1.889
			c-0.265,0-0.463-0.172-0.463-0.408l0,0C-264.384,124.644-264.186,124.439-263.921,124.439z"/>
		<path fill="#FED5A9" d="M-266.175,138.216c0.034-1.122,0.101-2.245,0.266-3.266c0.531-3.741,2.851-6.495,3.68-7.483
			c0,0,2.021-2.313,1.523-5.033c-0.463-2.416-0.895-6.395-0.695-8.674c0.266-3.231-2.121-5.238-2.686-0.544
			c-0.563,4.897-2.783,15.715-6.959,8.81V111.31c0,0-1.26-0.204-1.99,1.769c-0.695,1.974-5.369,4.423-5.336,6.293
			c0.033,1.837,1.791,3.742,2.42,8.368c0.133,1.155,0.994,2.755,1.658,4.422C-271.974,134.644-269.224,136.685-266.175,138.216z"/>
		<polygon fill="#E6E6E6" points="-267.401,102.127 -258.12,102.127 -258.12,108.487 -267.401,108.487 		"/>
		<polygon fill="#CCCCCC" points="-262.761,106.039 -260.441,104.066 -258.12,102.127 -262.761,102.127 -267.401,102.127 
			-265.08,104.066 		"/>
		<path fill="#4E5A62" d="M-272.04,110.494V99.576c0-2.041,1.623-3.708,3.612-3.708h10.474c1.988,0,3.612,1.667,3.612,3.708v24.659
			c0,2.042-1.624,3.708-3.612,3.708h-3.381c-0.066,0.068-0.1,0.136-0.166,0.205c-1.723,1.938-3.082,4.285-3.447,6.938
			c-0.166,1.157-0.265,2.348-0.265,3.573c-0.331-0.138-0.663-0.307-0.962-0.443c0.034-1.122,0.101-2.245,0.266-3.265
			c0.531-3.741,2.851-6.496,3.68-7.483c0,0,0.165-0.171,0.396-0.511h3.879c1.458,0,2.651-1.225,2.651-2.722V99.576
			c0-1.497-1.193-2.723-2.651-2.723h-10.474c-1.458,0-2.651,1.226-2.651,2.723v11.734c-0.133,0-1.293-0.067-1.957,1.769
			c-0.695,1.974-5.368,4.423-5.336,6.293c0.033,1.838,1.791,3.742,2.42,8.368c0.133,1.155,0.994,2.755,1.658,4.422
			c-0.763-0.783-1.459-1.633-2.122-2.518c-0.231-0.578-0.431-1.189-0.497-1.769c-0.231-1.803-0.695-3.333-1.358-5.001
			c-0.431-1.088-1.028-2.313-1.062-3.503c-0.033-1.632,1.989-3.196,3.083-4.15c0.597-0.511,2.056-1.733,2.32-2.481
			c0.298-0.852,0.796-1.667,1.624-2.109C-272.24,110.595-272.14,110.528-272.04,110.494z"/>
	</g>
	<text transform="matrix(0.9744 0 0 1 -274.3196 146.3875)" font-family="'MyriadPro-Regular'" font-size="5.213">RESPONSIVE DESIGN</text>
</g>
<g>
	<g>
		<path fill="#08A9D9" d="M-223.895,95.34c0-0.505-0.4-0.914-0.896-0.914h-55.453c-0.495,0-0.895,0.409-0.895,0.914v28.339h57.243
			V95.34z"/>
		<g>
			<path fill="#08A9D9" d="M-281.111,150.205c0,0.504,0.4,0.914,0.895,0.914h55.453c0.496,0,0.896-0.41,0.896-0.914v-28.337h-57.243
				V150.205z"/>
		</g>
	</g>
	<g>
		<path fill="#F4F4F4" d="M-252.49,101.678c-12.119,0-21.947,9.853-21.947,22.003c0,12.147,9.828,21.997,21.947,21.997
			c12.122,0,21.948-9.85,21.948-21.997C-230.541,111.531-240.367,101.678-252.49,101.678z M-252.54,104.289
			c4.971,0,9.486,1.886,12.917,4.961c-1.439,0.598-2.349,2.338-1.102,5.041c0.689,1.496,3.6,4.117,2.477,7.572l-5.162,13.048
			l-5.211-14.443c-0.17-0.419-0.254-0.867-0.254-1.339c0-0.698,0.303-1.231,0.904-1.6c0.602-0.367,1.447-0.551,2.53-0.551h0.89v-1.3
			h-13.969v1.301c0.662,0,1.271,0.091,1.733,0.272c0.466,0.178,0.914,0.498,1.351,0.955c0.493,0.472,0.899,0.996,1.217,1.572
			c0.32,0.58,0.489,1.112,0.91,2.344l-5.153,12.817l-5.129-14.399c-0.217-0.639-0.324-1.247-0.324-1.826
			c0-0.592,0.267-0.995,0.748-1.303c0.367-0.233,0.531-0.576,1.604-0.588l-0.019-1.146l-8.625,0.017
			C-267.161,108.972-260.4,104.289-252.54,104.289z M-271.931,123.681c0-2.072,0.333-4.063,0.934-5.936
			c0.189,0.138,0.383,0.269,0.558,0.445c0.795,0.805,1.512,2.121,2.149,3.941l6.854,18.763
			C-267.665,137.671-271.931,131.18-271.931,123.681z M-260.055,141.557l7.294-18.25l6.82,18.586
			c-2.062,0.748-4.279,1.176-6.602,1.176C-255.206,143.069-257.745,142.53-260.055,141.557z M-244.951,141.526l7.699-19.575
			c0.592-1.473,1.789-4.521,2.26-6.472c1.17,2.494,1.84,5.267,1.84,8.202C-233.153,131.694-238.015,138.573-244.951,141.526z"/>
		<g>
			<path fill="#F4F4F4" d="M-233.153,123.678c0,0.001,0,0.002,0,0.003c0,8.013-4.862,14.892-11.799,17.845l7.02-17.848h-1.033
				l-4.445,11.232l-4.053-11.232h-5.161l6.685,18.215c-2.063,0.748-4.279,1.176-6.601,1.176c-2.664,0-5.203-0.539-7.515-1.512
				l7.146-17.879h-1.024l-4.528,11.262l-4.013-11.262h-5.251l6.29,17.217c-6.229-3.225-10.495-9.715-10.495-17.214
				c0-0.001,0-0.002,0-0.003h-2.506c0,0.001,0,0.002,0,0.003c0,12.147,9.828,21.997,21.947,21.997
				c12.122,0,21.948-9.85,21.948-21.997c0-0.001,0-0.002,0-0.003H-233.153z"/>
		</g>
	</g>
</g>
<g>
	<path fill="#B0B0B0" d="M-228.881,94.469h-47.245c-2.598,0-4.724,2.124-4.724,4.717v47.174c0,2.595,2.126,4.717,4.724,4.717h47.245
		c2.599,0,4.725-2.122,4.725-4.717V99.185C-224.156,96.593-226.282,94.469-228.881,94.469z"/>
	<path id="Drupicon_2_" fill="#FFFFFF" d="M-244.353,112.159c-1.771-1.18-4.252-2.358-5.905-3.538
		c-1.063-0.708-2.362-2.123-3.543-3.537c-0.237,2.357-0.354,2.829-1.182,3.537c-1.771,1.416-3.543,2.24-4.96,3.066
		c-1.89,0.942-8.032,4.599-8.032,13.443c0,8.846,7.323,15.332,15.473,15.332c8.267,0,15.354-6.015,15.354-14.979
		C-237.031,116.404-243.172,112.866-244.353,112.159z M-244.708,137.278c-0.118,0.118-1.771,1.298-3.544,1.415
		c-1.771,0.118-4.369,0.236-5.787-1.062c-0.236-0.235-0.118-0.589,0-0.707c0.118-0.118,0.354-0.236,0.473-0.236s0.118,0,0.236,0.118
		c0.709,0.59,1.654,0.943,3.897,0.943c2.245,0,3.662-0.589,4.37-1.18c0.354-0.235,0.473,0,0.473,0.118
		C-244.471,136.806-244.471,137.043-244.708,137.278z M-250.613,134.213c0.354-0.354,0.944-0.944,1.536-1.18
		c0.59-0.235,0.944-0.235,1.417-0.235c0.59,0,1.181,0,1.535,0.354c0.354,0.235,0.591,0.943,0.826,1.179
		c0.236,0.236,0,0.589-0.235,0.706c-0.236,0.118-0.236,0.118-0.473-0.354c-0.236-0.47-0.473-0.942-1.653-0.942
		c-1.182,0-1.536,0.354-2.127,0.942c-0.589,0.472-0.826,0.709-0.943,0.354C-251.085,134.801-250.968,134.448-250.613,134.213z
		 M-241.991,134.566c-1.181-0.118-3.19-3.421-4.724-3.539c-2.009-0.118-6.025,3.539-9.449,3.539c-2.009,0-2.835-0.708-3.544-1.18
		c-1.063-0.707-2.362-2.004-2.362-3.539c0-2.711,2.717-4.717,5.906-4.717c4.015,0,7.44,3.539,9.449,3.539
		c1.652,0,4.251-3.539,5.905-3.539c1.652,0,2.361,2.478,2.361,3.539s-0.119,2.948-0.945,4.245
		C-240.101,134.094-241.047,134.682-241.991,134.566z"/>
</g>
<polyline fill="#B0B0B0" points="0,56.694 56.693,56.694 56.693,-0.001 0,-0.001 0,56.694 "/>
<polyline fill="#FFFFFF" points="28.192,13.841 14.506,18.658 16.668,36.59 28.207,42.931 39.804,36.504 41.967,18.573 
	28.192,13.841 "/>
<polyline fill="#999999" points="40.601,19.609 28.16,15.366 28.16,41.417 38.586,35.645 40.601,19.609 "/>
<polyline fill="#B0B0B0" points="16.041,19.685 17.894,35.722 28.16,41.417 28.16,15.365 16.041,19.685 "/>
<path fill="#FFFFFF" d="M31.254,28.427l-3.071-6.079l-2.519,5.975h2.497L31.254,28.427 M31.585,29.234l-3.424,1.602h-3.609
	l-1.697,4.243l-3.156,0.059l8.463-18.826L31.585,29.234z"/>
<polyline fill="#FFFFFF" points="28.16,16.312 28.183,22.348 31.041,28.327 28.166,28.327 28.16,30.832 32.135,30.836 
	33.993,35.138 37.011,35.194 28.16,16.312 "/>
<g>
	<g>
		<defs>
			<rect id="SVGID_1_" x="488.974" y="264.985" width="150" height="150"/>
		</defs>
		<clipPath id="SVGID_2_">
			<use xlink:href="#SVGID_1_"  overflow="visible"/>
		</clipPath>
		<rect x="488.974" y="264.985" clip-path="url(#SVGID_2_)" fill="#EB43A3" width="150" height="150"/>
		<rect x="501.544" y="277.478" clip-path="url(#SVGID_2_)" fill="#412534" width="124.859" height="124.092"/>
		<g clip-path="url(#SVGID_2_)">
			<defs>
				<rect id="SVGID_3_" x="488.974" y="264.985" width="150" height="150"/>
			</defs>
			<clipPath id="SVGID_4_">
				<use xlink:href="#SVGID_3_"  overflow="visible"/>
			</clipPath>
			<path clip-path="url(#SVGID_4_)" fill="#EB43A3" d="M532.278,304.825h12.396c0.313,0,0.563,0.252,0.563,0.562V373
				c0,0.312-0.25,0.564-0.563,0.564h-12.396c-0.311,0-0.562-0.253-0.562-0.564v-67.613
				C531.717,305.077,531.968,304.825,532.278,304.825"/>
			<path clip-path="url(#SVGID_4_)" fill="#EB43A3" d="M581.651,331.015v32.122c-11.532,0.854-16.066-7.3-16.23-15.619
				c-0.068-3.563,0.629-7.174,1.99-10.076C570.128,331.646,575.953,330.617,581.651,331.015 M595.854,366.798v-62.254l-14.649-0.282
				l-0.116,15.493c0,0.048-0.466-0.01-0.564,0c-1.774,0.156-9.377-1.184-16.899,3.941c-6.204,4.224-11.922,10.416-12.116,24.229
				c-0.232,16.659,10.494,26.056,25.881,26.822c4.426,0.214,9.145-0.369,13.28-2.038c0.824-0.33,2.204-0.913,3.388-1.466
				c1.68-0.786,2.525-1.35,2.021-3.077L595.854,366.798z"/>
		</g>
	</g>
</g>
</svg>
