<?xml version="1.0" encoding="utf-8"?>
<!-- Generator: Adobe Illustrator 16.0.0, SVG Export Plug-In . SVG Version: 6.00 Build 0)  -->
<!DOCTYPE svg PUBLIC "-//W3C//DTD SVG 1.1//EN" "http://www.w3.org/Graphics/SVG/1.1/DTD/svg11.dtd">
<svg version="1.1" id="Calque_1" xmlns="http://www.w3.org/2000/svg" xmlns:xlink="http://www.w3.org/1999/xlink" x="0px" y="0px"
	 width="56.693px" height="56.693px" viewBox="0 0 56.693 56.693" enable-background="new 0 0 56.693 56.693" xml:space="preserve">
<g>
	<path fill="#5A4581" d="M49.069,5.667C48.745,2.495,46.045,0,42.791,0h-26.79h-2.098C10.432,0,7.592,2.838,7.592,6.31v2.099v26.828
		c0,3.471,2.841,6.31,6.312,6.31h26.79h2.098c3.473,0,6.312-2.838,6.312-6.31v-2.1V6.31C49.102,6.094,49.089,5.878,49.069,5.667z"/>
	<g>
		<path fill="#FFFFFF" d="M18.792,9.367h9.118c1.807,0,3.153,0.076,4.041,0.227c0.886,0.148,1.68,0.465,2.379,0.941
			c0.701,0.476,1.284,1.112,1.751,1.905c0.466,0.794,0.699,1.683,0.699,2.669c0,1.065-0.287,2.048-0.863,2.939
			c-0.576,0.895-1.357,1.563-2.342,2.009c1.391,0.404,2.459,1.094,3.206,2.067c0.747,0.975,1.12,2.123,1.12,3.439
			c0,1.037-0.242,2.046-0.722,3.026c-0.484,0.979-1.141,1.764-1.978,2.351c-0.837,0.585-1.864,0.946-3.089,1.081
			c-0.767,0.083-2.619,0.135-5.556,0.155h-7.765L18.792,9.367L18.792,9.367z M23.4,13.164v5.275h3.017
			c1.795,0,2.911-0.024,3.346-0.078c0.79-0.092,1.408-0.365,1.859-0.816s0.677-1.045,0.677-1.78c0-0.706-0.194-1.279-0.583-1.721
			c-0.39-0.44-0.97-0.708-1.736-0.802c-0.454-0.052-1.769-0.078-3.937-0.078H23.4z M23.4,22.236v6.1h4.262
			c1.661,0,2.711-0.047,3.161-0.14c0.683-0.125,1.239-0.429,1.671-0.911c0.434-0.483,0.645-1.128,0.645-1.937
			c0-0.686-0.166-1.268-0.496-1.743c-0.33-0.478-0.813-0.826-1.44-1.043c-0.625-0.219-1.987-0.326-4.083-0.326H23.4z"/>
	</g>
</g>
<g>
	<path fill="#010202" d="M6.848,48.026h1.189c0.478,0,0.846,0.057,1.104,0.17c0.256,0.113,0.459,0.288,0.609,0.522
		c0.147,0.235,0.224,0.497,0.224,0.784c0,0.269-0.065,0.513-0.196,0.732s-0.322,0.397-0.575,0.535
		c0.313,0.105,0.555,0.23,0.724,0.375c0.169,0.144,0.3,0.316,0.396,0.521c0.094,0.204,0.141,0.425,0.141,0.663
		c0,0.484-0.177,0.895-0.531,1.229c-0.354,0.335-0.83,0.502-1.425,0.502H6.848V48.026z M7.439,48.617v1.932h0.346
		c0.419,0,0.728-0.039,0.925-0.116c0.197-0.078,0.354-0.201,0.469-0.369c0.116-0.168,0.173-0.355,0.173-0.561
		c0-0.275-0.097-0.493-0.291-0.649c-0.193-0.157-0.501-0.236-0.923-0.236H7.439z M7.439,51.156v2.313h0.747
		c0.442,0,0.766-0.043,0.971-0.129s0.371-0.221,0.495-0.403c0.124-0.184,0.188-0.382,0.188-0.596c0-0.268-0.088-0.502-0.263-0.7
		c-0.175-0.2-0.416-0.336-0.724-0.41c-0.205-0.049-0.562-0.074-1.072-0.074H7.439z"/>
	<path fill="#010202" d="M13.675,49.482c0.688,0,1.257,0.249,1.708,0.747c0.412,0.454,0.618,0.99,0.618,1.611
		c0,0.624-0.218,1.169-0.652,1.636c-0.434,0.466-0.993,0.699-1.674,0.699c-0.685,0-1.245-0.232-1.68-0.699s-0.65-1.012-0.65-1.636
		c0-0.617,0.205-1.153,0.615-1.607C12.414,49.732,12.984,49.482,13.675,49.482z M13.673,50.044c-0.478,0-0.888,0.176-1.229,0.529
		c-0.346,0.353-0.516,0.779-0.516,1.28c0,0.321,0.078,0.624,0.233,0.901c0.157,0.279,0.368,0.494,0.634,0.646
		c0.267,0.151,0.559,0.228,0.878,0.228c0.318,0,0.61-0.076,0.876-0.228c0.267-0.152,0.479-0.367,0.634-0.646
		c0.157-0.278,0.236-0.58,0.236-0.901c0-0.5-0.172-0.928-0.517-1.28C14.556,50.221,14.146,50.044,13.673,50.044z"/>
	<path fill="#010202" d="M19.176,49.482c0.688,0,1.257,0.249,1.708,0.747c0.411,0.454,0.617,0.99,0.617,1.611
		c0,0.624-0.217,1.169-0.652,1.636c-0.434,0.466-0.993,0.699-1.674,0.699c-0.685,0-1.245-0.232-1.68-0.699s-0.65-1.012-0.65-1.636
		c0-0.617,0.205-1.153,0.615-1.607C17.915,49.732,18.485,49.482,19.176,49.482z M19.174,50.044c-0.478,0-0.888,0.176-1.229,0.529
		c-0.346,0.353-0.516,0.779-0.516,1.28c0,0.321,0.078,0.624,0.234,0.901c0.157,0.279,0.368,0.494,0.634,0.646
		c0.267,0.151,0.559,0.228,0.878,0.228c0.318,0,0.61-0.076,0.876-0.228c0.268-0.152,0.479-0.367,0.633-0.646
		c0.157-0.278,0.236-0.58,0.236-0.901c0-0.5-0.172-0.928-0.517-1.28C20.057,50.221,19.647,50.044,19.174,50.044z"/>
	<path fill="#010202" d="M23.064,47.94h0.574v1.657h0.911v0.496h-0.911v3.967h-0.574v-3.967h-0.782v-0.496h0.782V47.94z"/>
	<path fill="#010202" d="M27.655,50.085l-0.369,0.381c-0.309-0.298-0.607-0.446-0.9-0.446c-0.187,0-0.347,0.062-0.479,0.185
		c-0.134,0.123-0.199,0.268-0.199,0.431c0,0.146,0.054,0.283,0.164,0.414c0.107,0.135,0.339,0.292,0.69,0.473
		c0.428,0.222,0.719,0.435,0.871,0.64c0.151,0.208,0.228,0.441,0.228,0.701c0,0.367-0.129,0.677-0.387,0.931
		s-0.579,0.382-0.965,0.382c-0.258,0-0.504-0.056-0.737-0.168c-0.234-0.111-0.429-0.267-0.581-0.463l0.36-0.41
		c0.293,0.331,0.604,0.496,0.934,0.496c0.229,0,0.425-0.073,0.587-0.221c0.161-0.148,0.243-0.322,0.243-0.521
		c0-0.164-0.054-0.312-0.161-0.439c-0.106-0.125-0.349-0.285-0.724-0.476c-0.402-0.208-0.677-0.413-0.822-0.615
		c-0.146-0.202-0.218-0.434-0.218-0.693c0-0.339,0.115-0.621,0.348-0.845c0.231-0.224,0.523-0.336,0.878-0.336
		C26.825,49.482,27.239,49.684,27.655,50.085z"/>
	<path fill="#010202" d="M29.173,47.94h0.574v1.657h0.911v0.496h-0.911v3.967h-0.574v-3.967h-0.783v-0.496h0.783V47.94z"/>
	<path fill="#010202" d="M31.302,49.597h0.587v0.651c0.174-0.257,0.359-0.449,0.555-0.576c0.193-0.127,0.396-0.19,0.606-0.19
		c0.158,0,0.328,0.051,0.509,0.151l-0.299,0.484c-0.121-0.052-0.222-0.078-0.304-0.078c-0.192,0-0.376,0.079-0.554,0.236
		c-0.18,0.157-0.314,0.4-0.406,0.731c-0.072,0.255-0.106,0.77-0.106,1.542v1.51h-0.587L31.302,49.597L31.302,49.597z"/>
	<path fill="#010202" d="M38.493,49.597v4.463h-0.566v-0.768c-0.241,0.293-0.511,0.514-0.81,0.661
		c-0.299,0.148-0.627,0.222-0.982,0.222c-0.632,0-1.171-0.229-1.618-0.687c-0.446-0.458-0.671-1.016-0.671-1.672
		c0-0.644,0.227-1.192,0.677-1.649c0.451-0.457,0.994-0.685,1.629-0.685c0.365,0,0.697,0.078,0.994,0.233
		c0.297,0.156,0.558,0.391,0.781,0.701v-0.819L38.493,49.597L38.493,49.597z M36.198,50.036c-0.32,0-0.615,0.079-0.887,0.236
		c-0.271,0.157-0.484,0.377-0.645,0.662c-0.159,0.283-0.239,0.584-0.239,0.9c0,0.314,0.08,0.615,0.241,0.901
		c0.161,0.287,0.378,0.51,0.649,0.669c0.272,0.16,0.563,0.24,0.876,0.24s0.61-0.079,0.892-0.238c0.282-0.158,0.499-0.373,0.65-0.643
		c0.151-0.271,0.228-0.575,0.228-0.914c0-0.518-0.17-0.948-0.511-1.295S36.694,50.036,36.198,50.036z"/>
	<path fill="#010202" d="M39.793,49.597h0.574v0.819c0.226-0.312,0.486-0.545,0.78-0.701c0.296-0.155,0.625-0.233,0.989-0.233
		c0.634,0,1.175,0.228,1.626,0.685s0.677,1.006,0.677,1.649c0,0.656-0.224,1.214-0.671,1.672c-0.446,0.458-0.984,0.687-1.615,0.687
		c-0.354,0-0.683-0.073-0.98-0.222c-0.297-0.146-0.566-0.368-0.806-0.661v2.4h-0.574V49.597z M42.09,50.036
		c-0.496,0-0.915,0.173-1.255,0.521c-0.339,0.347-0.508,0.777-0.508,1.295c0,0.339,0.076,0.643,0.227,0.914
		c0.151,0.27,0.368,0.484,0.651,0.643c0.282,0.159,0.581,0.238,0.895,0.238c0.309,0,0.598-0.08,0.87-0.24
		c0.271-0.159,0.487-0.383,0.648-0.669c0.161-0.287,0.242-0.587,0.242-0.901c0-0.316-0.08-0.617-0.24-0.9
		c-0.16-0.284-0.374-0.505-0.645-0.662C42.703,50.115,42.408,50.036,42.09,50.036z"/>
</g>
<rect x="45.918" y="46.195" fill="none" width="6.368" height="11.268"/>
<text transform="matrix(1 0 0 1 45.9177 53.7947)" font-family="'OpenSans'" font-size="10">4</text>
</svg>
