<?xml version="1.0" encoding="utf-8"?>
<!-- Generator: Adobe Illustrator 16.0.0, SVG Export Plug-In . SVG Version: 6.00 Build 0)  -->
<!DOCTYPE svg PUBLIC "-//W3C//DTD SVG 1.1//EN" "http://www.w3.org/Graphics/SVG/1.1/DTD/svg11.dtd">
<svg version="1.1" id="Calque_1" xmlns="http://www.w3.org/2000/svg" xmlns:xlink="http://www.w3.org/1999/xlink" x="0px" y="0px"
	 width="56.693px" height="56.693px" viewBox="0 0 56.693 56.693" enable-background="new 0 0 56.693 56.693" xml:space="preserve">
<g>
	<g>
		<g>
			<g>
				<polygon fill="#FCCC5A" points="-269.586,144.157 -272.767,106.452 -233.42,106.452 -236.6,144.157 -253.091,148.683 				"/>
				<g>
					<path fill="#D9A730" d="M-235.324,108.202l-2.917,34.59l-14.851,4.077l-14.854-4.077l-2.918-34.59H-235.324 M-231.516,104.702
						h-43.153l3.442,40.818l18.137,4.979l18.133-4.979L-231.516,104.702L-231.516,104.702z"/>
				</g>
			</g>
			<polygon fill="none" points="-253.091,150.499 -271.227,145.52 -274.67,104.702 -253.091,104.702 			"/>
		</g>
		<g>
			<g>
				<g>
					<polygon fill="#FFFEFD" points="-254.172,141.612 -263.944,139.225 -263.944,134.424 -259.206,135.581 -259.206,112.097 
						-254.172,112.097 					"/>
				</g>
			</g>
			<g>
				<g>
					<polygon fill="#FFFEFD" points="-251.819,141.604 -251.819,136.747 -246.835,135.321 -245.904,127.668 -251.819,127.668 
						-251.819,112.177 -238.952,112.177 -239.527,116.82 -246.782,116.82 -246.782,123.028 -240.27,123.028 -242.195,138.851 					
						"/>
				</g>
			</g>
		</g>
	</g>
	<text transform="matrix(1 0 0 1 -274.6335 102.5789)" font-family="'MyriadPro-Regular'" font-size="9">JAVASCRIPT</text>
	<path fill="#5DA3C2" d="M-246.315,119.358l0.033,0.141c0.008,0.04-0.017,0.073-0.058,0.073"/>
</g>
<g>
	<polyline fill="#3558A8" points="-280.622,151.419 -224.383,151.419 -224.383,94.127 -280.622,94.127 -280.622,151.419 	"/>
	<path fill="#FFFFFF" d="M-237.93,118.721l-0.172-0.74c-0.135-0.537-0.519-0.79-1.384-0.79h-3.634c-0.085,0-0.168,0.038-0.186,0.122
		l-1.379,6.662c-0.018,0.085-0.023,0.144-0.014,0.186s0.171,0.036,0.254,0.036h1.259c0.085,0,0.238,0.005,0.282-0.013
		c0.047-0.02,0.066-0.147,0.084-0.231l0.446-2.335l0.542-2.592c0.018-0.083,0.101-0.151,0.184-0.151l3.601-0.002
		C-237.962,118.873-237.909,118.804-237.93,118.721"/>
	<path fill="#FFFFFF" d="M-232.806,116.021c-0.085,0.001-1.598,0-1.598,0c-0.083,0-0.191,0.091-0.238,0.161l-2.804,4.201
		c-0.047,0.07-0.102,0.068-0.12-0.016l-0.207-0.92c-0.018-0.084-0.102-0.15-0.186-0.15h-1.803c-0.082,0-0.132,0.069-0.11,0.152
		l0.808,2.883c0.023,0.084,0.026,0.219,0.005,0.301l-0.377,1.461c-0.021,0.083,0.032,0.107,0.116,0.107h1.78
		c0.082,0,0.169-0.024,0.189-0.107l0.377-1.481c0.021-0.083,0.078-0.194,0.129-0.264l4.574-6.181
		c0.052-0.067,0.044-0.148-0.039-0.148L-232.806,116.021"/>
	<path fill="#FFFFFF" d="M-251.563,117.196h-1.627c-0.082,0-0.168,0.031-0.184,0.113l-0.537,2.563l-0.536,2.452
		c-0.017,0.083-0.099,0.078-0.183,0.078h-1.068c-1.058,0-0.936-0.681-0.719-1.7c0.002-0.01,0.679-3.393,0.679-3.393
		c0.015-0.082-0.04-0.113-0.123-0.113h-1.549c-0.084,0-0.167,0.031-0.183,0.113l-0.624,3.389c-0.311,1.833-0.32,3.446,1.767,3.499
		c0.033,0.001,3.292,0,3.292,0c0.085,0,0.167-0.028,0.186-0.111l0.708-3.398l0.704-3.411
		C-251.56,117.275-251.534,117.196-251.563,117.196"/>
	<path fill="#FFFFFF" d="M-267.757,117.191h-1.743c-0.084,0-0.168,0.021-0.186,0.104l-0.315,1.385
		c-0.019,0.082,0.036,0.148,0.12,0.148h1.669c0.085,0,0.168-0.077,0.186-0.16l0.303-1.396
		C-267.724,117.272-267.699,117.191-267.757,117.191"/>
	<path fill="#FFFFFF" d="M-269.994,119.298c-0.083,0-0.168,0.066-0.186,0.15l-0.235,1.057l-0.524,2.441c0,0-0.279,1.299-0.306,1.38
		c0,0-0.235,0.938-0.796,0.901c-0.261-0.02-0.56-0.079-0.56-0.079h-0.001c-0.156-0.049-0.168,0.116-0.187,0.2l-0.347,1.522
		c-0.02,0.082,0.033,0.157,0.116,0.159c0,0,0.751,0.107,1.28,0.107h0.088c1.309,0,2.001-0.784,2.443-2.913l0.518-2.466l0.486-2.293
		c0.018-0.082-0.032-0.16-0.115-0.16"/>
	<path fill="#FFFFFF" d="M-246.676,120.112c0,0.092-0.287,0.075-0.287,0.075l-2.286-0.018c-0.079,0-0.102-0.112-0.106-0.192
		c0-0.004,0.006-0.098,0.012-0.121c0.177-0.625,0.704-0.98,1.54-0.98c0.94,0,1.141,0.475,1.141,1.002 M-247.449,117.18
		c-2.932,0-3.632,1.846-4.021,3.677c-0.389,1.865-0.355,3.34,2.678,3.34h0.11c1.203,0,2.666,0,2.666,0
		c0.082-0.002,0.163-0.078,0.18-0.161l0.3-1.184c0.016-0.084-0.039-0.107-0.122-0.107h-2.729c-0.988,0-1.343-0.312-1.308-1.008
		c-0.001-0.079,0.088-0.281,0.172-0.281h4.203c0.186-0.001,0.19-0.109,0.19-0.109C-244.703,119.378-244.674,117.18-247.449,117.18"
		/>
	<path fill="#FFFFFF" d="M-261.67,121.025l-0.338,1.177c-0.023,0.082-0.119,0.137-0.203,0.137h-1.742
		c-1.322,0-1.645-1.041-1.322-2.595c0.322-1.589,0.962-2.571,2.262-2.671c1.779-0.137,2.144,1.143,1.712,2.613L-261.67,121.025
		 M-260.121,122.272c0,0,0.821-2.033,1.008-3.207c0.255-1.572-0.518-3.852-3.501-3.852c-2.967,0-4.255,2.176-4.747,4.543
		c-0.49,2.383,0.151,4.457,3.102,4.44l4.503-0.002c0.083,0,0.17-0.069,0.19-0.15l0.381-1.473c0.02-0.084-0.031-0.151-0.115-0.151
		l-0.362-0.002l-0.362-0.002c-0.072,0-0.113-0.049-0.104-0.11C-260.127,122.295-260.126,122.284-260.121,122.272"/>
	<path fill="#5DA3C2" d="M-248.311,119.964c-0.009,0.037-0.019,0.086-0.025,0.119l-0.29,1.357l0.306-1.431L-248.311,119.964"/>
</g>
<g>
	<polyline fill="#FBAB18" points="-0.243,56.76 56.934,56.76 56.934,-0.067 -0.243,-0.067 -0.243,56.76 	"/>
</g>
<g>
	<polyline fill="#9C57A3" points="-172.1,236.659 -115.206,236.659 -115.206,179.766 -172.1,179.766 -172.1,236.659 	"/>
	<path fill="#FFFFFF" d="M-159.942,212.63v-2.312c0.43,0.355,0.896,0.621,1.397,0.799c0.502,0.177,1.01,0.267,1.521,0.267
		c0.301,0,0.563-0.03,0.787-0.087c0.225-0.057,0.412-0.136,0.563-0.236c0.15-0.1,0.262-0.219,0.336-0.355
		c0.074-0.136,0.11-0.283,0.11-0.443c0-0.206-0.058-0.391-0.176-0.552c-0.117-0.163-0.277-0.313-0.479-0.451
		c-0.203-0.138-0.443-0.271-0.721-0.399c-0.279-0.128-0.579-0.259-0.9-0.393c-0.82-0.344-1.432-0.765-1.834-1.261
		c-0.402-0.498-0.604-1.098-0.604-1.802c0-0.552,0.111-1.024,0.334-1.421c0.222-0.396,0.525-0.723,0.91-0.979
		c0.384-0.258,0.828-0.446,1.334-0.566c0.506-0.121,1.04-0.181,1.605-0.181c0.555,0,1.047,0.032,1.475,0.099
		c0.43,0.065,0.824,0.168,1.186,0.303v2.184c-0.176-0.126-0.367-0.238-0.576-0.334c-0.207-0.097-0.421-0.177-0.641-0.24
		c-0.221-0.063-0.439-0.109-0.656-0.141c-0.217-0.03-0.424-0.045-0.62-0.045c-0.269,0-0.512,0.027-0.732,0.081
		c-0.22,0.054-0.405,0.129-0.558,0.228c-0.15,0.098-0.268,0.216-0.352,0.354c-0.082,0.137-0.124,0.29-0.124,0.459
		c0,0.178,0.046,0.337,0.139,0.477c0.093,0.141,0.226,0.273,0.396,0.398c0.172,0.125,0.379,0.248,0.623,0.369
		c0.244,0.122,0.52,0.245,0.827,0.373c0.419,0.177,0.797,0.365,1.131,0.564c0.334,0.2,0.621,0.426,0.86,0.676
		c0.239,0.252,0.422,0.539,0.549,0.86c0.127,0.323,0.189,0.698,0.189,1.126c0,0.591-0.113,1.086-0.34,1.488
		c-0.227,0.4-0.533,0.726-0.922,0.974c-0.388,0.249-0.839,0.428-1.354,0.536c-0.516,0.108-1.059,0.163-1.631,0.163
		c-0.588,0-1.146-0.049-1.676-0.146C-159.094,212.967-159.553,212.822-159.942,212.63"/>
	<path fill="#FFFFFF" d="M-145.598,208.798l-1.15-3.58c-0.085-0.267-0.144-0.586-0.176-0.956h-0.062
		c-0.021,0.313-0.085,0.621-0.193,0.924l-1.154,3.611L-145.598,208.798 M-141.654,213.055h-2.628l-0.677-2.129h-3.969l-0.683,2.129
		h-2.613l3.899-10.646h2.86L-141.654,213.055z"/>
	<path fill="#FFFFFF" d="M-140.779,212.63v-2.312c0.429,0.355,0.895,0.621,1.397,0.799c0.502,0.177,1.009,0.267,1.521,0.267
		c0.301,0,0.563-0.03,0.788-0.087c0.224-0.057,0.411-0.136,0.563-0.236c0.149-0.1,0.262-0.219,0.335-0.355
		c0.074-0.136,0.11-0.283,0.11-0.443c0-0.206-0.059-0.391-0.176-0.552c-0.116-0.163-0.276-0.313-0.48-0.451
		c-0.201-0.138-0.442-0.271-0.721-0.399c-0.277-0.128-0.577-0.259-0.899-0.393c-0.82-0.344-1.432-0.765-1.834-1.261
		c-0.402-0.498-0.604-1.098-0.604-1.802c0-0.552,0.111-1.024,0.334-1.421s0.525-0.723,0.91-0.979
		c0.383-0.258,0.829-0.446,1.334-0.566c0.506-0.121,1.04-0.181,1.606-0.181c0.555,0,1.047,0.032,1.475,0.099
		c0.428,0.065,0.823,0.168,1.185,0.303v2.184c-0.177-0.126-0.368-0.238-0.576-0.334c-0.207-0.097-0.42-0.177-0.641-0.24
		c-0.22-0.063-0.438-0.109-0.656-0.141c-0.217-0.03-0.423-0.045-0.62-0.045c-0.268,0-0.512,0.027-0.732,0.081
		c-0.22,0.054-0.405,0.129-0.557,0.228c-0.151,0.098-0.269,0.216-0.352,0.354c-0.083,0.137-0.125,0.29-0.125,0.459
		c0,0.178,0.048,0.337,0.14,0.477c0.093,0.141,0.225,0.273,0.396,0.398c0.17,0.125,0.379,0.248,0.622,0.369
		c0.244,0.122,0.52,0.245,0.827,0.373c0.42,0.177,0.797,0.365,1.131,0.564c0.334,0.2,0.621,0.426,0.86,0.676
		c0.239,0.252,0.422,0.539,0.549,0.86c0.127,0.323,0.19,0.698,0.19,1.126c0,0.591-0.113,1.086-0.34,1.488
		c-0.227,0.4-0.534,0.726-0.921,0.974c-0.39,0.249-0.842,0.428-1.355,0.536c-0.515,0.108-1.059,0.163-1.631,0.163
		c-0.587,0-1.146-0.049-1.676-0.146S-140.39,212.822-140.779,212.63"/>
	<path fill="#FFFFFF" d="M-132.262,212.63v-2.312c0.429,0.355,0.895,0.621,1.397,0.799c0.502,0.177,1.009,0.267,1.521,0.267
		c0.302,0,0.563-0.03,0.788-0.087c0.224-0.057,0.411-0.136,0.562-0.236c0.15-0.1,0.263-0.219,0.336-0.355
		c0.074-0.136,0.11-0.283,0.11-0.443c0-0.206-0.058-0.391-0.175-0.552c-0.118-0.163-0.278-0.313-0.479-0.451
		c-0.204-0.138-0.444-0.271-0.722-0.399c-0.278-0.128-0.578-0.259-0.899-0.393c-0.82-0.344-1.433-0.765-1.835-1.261
		c-0.402-0.498-0.604-1.098-0.604-1.802c0-0.552,0.111-1.024,0.333-1.421c0.224-0.396,0.526-0.723,0.911-0.979
		c0.385-0.258,0.828-0.446,1.335-0.566c0.505-0.121,1.041-0.181,1.605-0.181c0.554,0,1.046,0.032,1.475,0.099
		c0.428,0.065,0.823,0.168,1.184,0.303v2.184c-0.175-0.126-0.366-0.238-0.573-0.334c-0.209-0.097-0.423-0.177-0.642-0.24
		c-0.221-0.063-0.439-0.109-0.656-0.141c-0.218-0.03-0.425-0.045-0.62-0.045c-0.269,0-0.512,0.027-0.732,0.081
		c-0.22,0.054-0.405,0.129-0.557,0.228c-0.151,0.098-0.269,0.216-0.353,0.354c-0.083,0.137-0.125,0.29-0.125,0.459
		c0,0.178,0.047,0.337,0.139,0.477c0.093,0.141,0.226,0.273,0.396,0.398c0.173,0.125,0.379,0.248,0.623,0.369
		c0.243,0.122,0.52,0.245,0.827,0.373c0.419,0.177,0.798,0.365,1.131,0.564c0.335,0.2,0.621,0.426,0.861,0.676
		c0.238,0.252,0.422,0.539,0.549,0.86c0.126,0.323,0.189,0.698,0.189,1.126c0,0.591-0.113,1.086-0.339,1.488
		c-0.228,0.4-0.534,0.726-0.923,0.974c-0.388,0.249-0.839,0.428-1.354,0.536c-0.515,0.108-1.058,0.163-1.63,0.163
		c-0.588,0-1.146-0.049-1.678-0.146C-131.415,212.967-131.874,212.822-132.262,212.63"/>
</g>
<g>
	<rect x="184.151" y="122.041" fill="#5BD3BF" width="56.693" height="57.007"/>
	<g>
		<g>
			
				<linearGradient id="bottom_1_" gradientUnits="userSpaceOnUse" x1="400.0984" y1="675.4558" x2="400.0984" y2="709.4163" gradientTransform="matrix(1 0 0 1 -187.5996 -549.9902)">
				<stop  offset="0" style="stop-color:#002E3B"/>
				<stop  offset="1" style="stop-color:#002639"/>
			</linearGradient>
			
				<linearGradient id="bottom_2_" gradientUnits="userSpaceOnUse" x1="400.0955" y1="671.6599" x2="400.0955" y2="709.855" gradientTransform="matrix(1 0 0 1 -187.5996 -549.9902)">
				<stop  offset="0" style="stop-color:#002E3B"/>
				<stop  offset="1" style="stop-color:#002639"/>
			</linearGradient>
			<polygon id="bottom" fill="url(#bottom_1_)" stroke="url(#bottom_2_)" points="212.485,154.566 207.555,152.162 207.561,152.16 
				207.559,152.16 202.323,154.713 212.489,159.674 222.673,154.724 217.417,152.121 			"/>
			
				<radialGradient id="right_2_" cx="341.614" cy="-281.2815" r="30.2187" gradientTransform="matrix(1 0 0 -1 -137.6001 -123.2974)" gradientUnits="userSpaceOnUse">
				<stop  offset="0" style="stop-color:#00BC85"/>
				<stop  offset="1" style="stop-color:#149D91"/>
			</radialGradient>
			
				<radialGradient id="right_3_" cx="341.4177" cy="-282.448" r="34.5943" gradientTransform="matrix(1 0 0 -1 -137.6001 -123.2974)" gradientUnits="userSpaceOnUse">
				<stop  offset="0" style="stop-color:#00BC85"/>
				<stop  offset="1" style="stop-color:#149D91"/>
			</radialGradient>
			<polygon id="right_1_" fill="url(#right_2_)" stroke="url(#right_3_)" points="202.335,154.73 202.335,149.62 207.376,147.163 
				212.559,149.719 			"/>
			
				<radialGradient id="right-2_1_" cx="401.7234" cy="673.822" r="36.5126" gradientTransform="matrix(1 0 0 1 -187.5996 -549.9902)" gradientUnits="userSpaceOnUse">
				<stop  offset="0" style="stop-color:#00BC85"/>
				<stop  offset="1" style="stop-color:#149D91"/>
			</radialGradient>
			
				<radialGradient id="right-2_2_" cx="400.9949" cy="672.5183" r="39.5624" gradientTransform="matrix(1 0 0 1 -187.5996 -549.9902)" gradientUnits="userSpaceOnUse">
				<stop  offset="0" style="stop-color:#00BC85"/>
				<stop  offset="1" style="stop-color:#149D91"/>
			</radialGradient>
			<polygon id="right-2" fill="url(#right-2_1_)" stroke="url(#right-2_2_)" points="218.079,133.702 218.079,141.78 
				218.079,141.78 218.079,141.78 212.444,144.528 217.626,147.108 222.671,144.651 222.671,130.831 			"/>
			
				<radialGradient id="left_2_" cx="392.2664" cy="671.1462" r="69.7941" gradientTransform="matrix(1 0 0 1 -187.5996 -549.9902)" gradientUnits="userSpaceOnUse">
				<stop  offset="0" style="stop-color:#004473"/>
				<stop  offset="1" style="stop-color:#00345F"/>
			</radialGradient>
			
				<radialGradient id="left_3_" cx="391.9363" cy="669.7849" r="73.7617" gradientTransform="matrix(1 0 0 1 -187.5996 -549.9902)" gradientUnits="userSpaceOnUse">
				<stop  offset="0" style="stop-color:#004473"/>
				<stop  offset="1" style="stop-color:#00345F"/>
			</radialGradient>
			<polygon id="left_1_" fill="url(#left_2_)" stroke="url(#left_3_)" points="222.673,154.726 222.673,154.726 222.673,149.618 
				206.928,141.776 206.928,133.696 202.335,130.826 202.335,144.647 			"/>
			
				<linearGradient id="top_1_" gradientUnits="userSpaceOnUse" x1="400.0876" y1="675.6326" x2="400.0876" y2="709.4158" gradientTransform="matrix(1 0 0 1 -187.5996 -549.9902)">
				<stop  offset="0" style="stop-color:#002E3B"/>
				<stop  offset="1" style="stop-color:#002639"/>
			</linearGradient>
			
				<linearGradient id="top_2_" gradientUnits="userSpaceOnUse" x1="400.0876" y1="675.1355" x2="400.0876" y2="713.0289" gradientTransform="matrix(1 0 0 1 -187.5996 -549.9902)">
				<stop  offset="0" style="stop-color:#002E3B"/>
				<stop  offset="1" style="stop-color:#002639"/>
			</linearGradient>
			<polygon id="top" fill="url(#top_1_)" stroke="url(#top_2_)" points="206.915,133.688 206.915,133.686 212.489,130.968 
				218.063,133.686 222.651,130.821 212.485,125.862 202.323,130.819 202.323,130.823 206.911,133.69 			"/>
		</g>
		<rect x="190.372" y="166.226" fill="none" width="44.25" height="9"/>
		<text transform="matrix(1 0 0 1 190.3718 173.0662)" fill="#FFFFFF" font-family="'OpenSans'" font-size="9">SNAP.SVG</text>
	</g>
</g>
<g>
	<rect x="122.151" y="123.073" fill="#CCFFCC" width="56.693" height="56.693"/>
	<g id="Responsive_Design_1_">
		<path fill="#757575" d="M167.948,159.142c0,0.067,0,0.103,0,0.169c0,1.838-4.408,3.301-9.844,3.301s-9.844-1.463-9.844-3.301
			c0-0.066,0-0.102,0.033-0.169c-0.033-0.034-0.033-0.103-0.033-0.169c0-1.805,4.408-3.301,9.844-3.301s9.844,1.496,9.844,3.301
			C167.948,159.04,167.948,159.108,167.948,159.142z"/>
		<path fill="#696969" d="M167.948,159.142c0,0.067,0,0.103,0,0.169c0,1.838-4.408,3.301-9.844,3.301c-0.232,0-0.465,0-0.695,0
			v-6.905c0.23-0.034,0.463-0.034,0.695-0.034c5.436,0,9.844,1.496,9.844,3.301C167.948,159.04,167.948,159.108,167.948,159.142z"/>
		<path fill="#757575" d="M157.409,155.707c0.23-0.034,0.463-0.034,0.695-0.034c5.27,0,9.545,1.395,9.844,3.129
			c-0.299,1.734-4.574,3.096-9.844,3.096c-0.232,0-0.463,0-0.695,0V155.707z"/>
		<ellipse fill="#8D8D8D" cx="158.104" cy="158.597" rx="9.844" ry="3.3"/>
		<path fill="#7F7F7F" d="M158.104,155.333c5.436,0,9.844,1.463,9.844,3.266c0,1.837-4.408,3.299-9.844,3.299
			c-0.232,0-0.463,0-0.695,0v-6.564C157.639,155.333,157.872,155.333,158.104,155.333z"/>
		<polygon fill="#CCCCCC" points="154.557,149.006 161.684,149.006 161.684,157.78 154.557,157.78 		"/>
		<polygon fill="#B8B8B8" points="161.684,153.733 161.684,157.78 157.409,157.78 157.409,153.733 		"/>
		<polygon fill="#B8B8B8" points="155.089,149.584 161.286,149.584 161.286,157.237 155.089,157.237 		"/>
		<polygon fill="#A6A6A6" points="161.286,153.733 161.286,157.237 157.409,157.237 157.409,153.733 		"/>
		<path fill="#A9ABAE" d="M140.272,128.461H176.1c0.365,0,0.664,0.306,0.664,0.681v23.913c0,0.373-0.299,0.679-0.664,0.679h-35.828
			c-0.364,0-0.662-0.306-0.662-0.679v-23.913C139.61,128.766,139.908,128.461,140.272,128.461z"/>
		<path fill="#669999" d="M141.698,129.448h33.607c0.266,0,0.496,0.238,0.496,0.544v21.667c0,0.306-0.23,0.545-0.496,0.545h-34.203
			c-0.299,0-0.531-0.239-0.531-0.545v-21.056C140.571,129.958,141.068,129.448,141.698,129.448z"/>
		<path fill="#CCCCCC" d="M158.204,152.34c0.273,0,0.496,0.229,0.496,0.51s-0.223,0.511-0.496,0.511
			c-0.275,0-0.498-0.229-0.498-0.511S157.928,152.34,158.204,152.34z"/>
		<ellipse fill="#B3B3B3" cx="158.204" cy="152.849" rx="0.365" ry="0.374"/>
		<path fill="#336666" d="M142.692,130.162h31.553c0.266,0,0.465,0.204,0.465,0.476v20.375c0,0.273-0.199,0.477-0.465,0.477H142.13
			c-0.266,0-0.465-0.203-0.465-0.477v-19.796C141.665,130.637,142.13,130.162,142.692,130.162z"/>
		<rect x="144.813" y="132.714" fill="#E6E6E6" width="21.113" height="17.721"/>
		<rect x="142.195" y="132.678" fill="#66FFCC" width="1.806" height="17.73"/>
		<rect x="166.555" y="132.815" fill="#E6E6E6" width="4.375" height="17.551"/>
		<rect x="171.925" y="132.678" fill="#E6E6E6" width="1.807" height="17.73"/>
		<rect x="166.887" y="133.189" fill="#CCCCCC" width="3.779" height="5"/>
		<rect x="166.887" y="138.733" fill="#CCCCCC" width="3.777" height="2.858"/>
		<rect x="166.887" y="142.339" fill="#CCCCCC" width="3.777" height="1.814"/>
		<rect x="166.887" y="144.788" fill="#CCCCCC" width="3.779" height="5.035"/>
		<path fill="#33CC99" d="M172.124,133.189h0.564v0.578h-0.564V133.189z M172.952,149.346h0.564v0.578h-0.564V149.346z
			 M172.124,149.346h0.564v0.578h-0.564V149.346z M172.952,148.564h0.564v0.611h-0.564V148.564z M172.124,148.564h0.564v0.611
			h-0.564V148.564z M172.952,147.815h0.564v0.578h-0.564V147.815z M172.124,147.815h0.564v0.578h-0.564V147.815z M172.952,147.033
			h0.564v0.578h-0.564V147.033z M172.124,147.033h0.564v0.578h-0.564V147.033z M172.952,146.251h0.564v0.612h-0.564V146.251z
			 M172.124,146.251h0.564v0.612h-0.564V146.251z M172.952,145.503h0.564v0.578h-0.564V145.503z M172.124,145.503h0.564v0.578
			h-0.564V145.503z M172.952,144.72h0.564v0.612h-0.564V144.72z M172.124,144.72h0.564v0.612h-0.564V144.72z M172.952,143.938h0.564
			v0.611h-0.564V143.938z M172.124,143.938h0.564v0.611h-0.564V143.938z M172.952,143.189h0.564v0.578h-0.564V143.189z
			 M172.124,143.189h0.564v0.578h-0.564V143.189z M172.952,142.407h0.564v0.612h-0.564V142.407z M172.124,142.407h0.564v0.612
			h-0.564V142.407z M172.952,141.659h0.564v0.578h-0.564V141.659z M172.124,141.659h0.564v0.578h-0.564V141.659z M172.952,140.876
			h0.564v0.579h-0.564V140.876z M172.124,140.876h0.564v0.579h-0.564V140.876z M172.952,140.094h0.564v0.613h-0.564V140.094z
			 M172.124,140.094h0.564v0.613h-0.564V140.094z M172.952,139.344h0.564v0.58h-0.564V139.344z M172.124,139.344h0.564v0.58h-0.564
			V139.344z M172.952,138.563h0.564v0.612h-0.564V138.563z M172.124,138.563h0.564v0.612h-0.564V138.563z M172.952,137.78h0.564
			v0.613h-0.564V137.78z M172.124,137.78h0.564v0.613h-0.564V137.78z M172.952,137.033h0.564v0.577h-0.564V137.033z
			 M172.124,137.033h0.564v0.577h-0.564V137.033z M172.952,136.251h0.564v0.612h-0.564V136.251z M172.124,136.251h0.564v0.612
			h-0.564V136.251z M172.952,135.503h0.564v0.578h-0.564V135.503z M172.124,135.503h0.564v0.578h-0.564V135.503z M172.952,134.719
			h0.564v0.579h-0.564V134.719z M172.124,134.719h0.564v0.579h-0.564V134.719z M172.952,133.938h0.564v0.611h-0.564V133.938z
			 M172.124,133.938h0.564v0.611h-0.564V133.938z M172.952,133.189h0.564v0.578h-0.564V133.189z"/>
		<rect x="143.189" y="130.536" fill="#999999" width="30.005" height="1.465"/>
		<ellipse fill="#B3B3B3" cx="144.184" cy="131.284" rx="0.363" ry="0.375"/>
		<path fill="#B3B3B3" d="M146.04,130.91c0.201,0,0.364,0.169,0.364,0.374c0,0.207-0.163,0.375-0.364,0.375
			s-0.364-0.168-0.364-0.375C145.676,131.079,145.839,130.91,146.04,130.91z"/>
		<path fill="#B3B3B3" d="M147.895,130.91c0.202,0,0.365,0.169,0.365,0.374c0,0.207-0.163,0.375-0.365,0.375
			c-0.201,0-0.364-0.168-0.364-0.375C147.531,131.079,147.694,130.91,147.895,130.91z"/>
		<path fill="#B3B3B3" d="M149.719,130.91c0.2,0,0.364,0.169,0.364,0.374c0,0.207-0.164,0.375-0.364,0.375
			c-0.202,0-0.365-0.168-0.365-0.375C149.354,131.079,149.517,130.91,149.719,130.91z"/>
		<ellipse fill="#B3B3B3" cx="151.575" cy="131.284" rx="0.363" ry="0.375"/>
		<ellipse fill="#B3B3B3" cx="153.43" cy="131.284" rx="0.365" ry="0.375"/>
		<ellipse fill="#B3B3B3" cx="155.288" cy="131.284" rx="0.363" ry="0.375"/>
		<ellipse fill="#B3B3B3" cx="157.143" cy="131.284" rx="0.365" ry="0.375"/>
		<ellipse fill="#B3B3B3" cx="158.966" cy="131.284" rx="0.365" ry="0.375"/>
		<path fill="#B3B3B3" d="M160.821,130.91c0.201,0,0.365,0.169,0.365,0.374c0,0.207-0.164,0.375-0.365,0.375
			c-0.199,0-0.363-0.168-0.363-0.375C160.458,131.079,160.622,130.91,160.821,130.91z"/>
		<ellipse fill="#B3B3B3" cx="162.678" cy="131.284" rx="0.363" ry="0.375"/>
		<ellipse fill="#B3B3B3" cx="164.534" cy="131.284" rx="0.365" ry="0.375"/>
		<ellipse fill="#B3B3B3" cx="166.356" cy="131.284" rx="0.365" ry="0.375"/>
		<ellipse fill="#B3B3B3" cx="168.214" cy="131.284" rx="0.363" ry="0.375"/>
		<path fill="#B3B3B3" d="M170.069,130.91c0.201,0,0.365,0.169,0.365,0.374c0,0.207-0.164,0.375-0.365,0.375
			s-0.365-0.168-0.365-0.375C169.704,131.079,169.868,130.91,170.069,130.91z"/>
		<ellipse fill="#B3B3B3" cx="171.925" cy="131.284" rx="0.365" ry="0.375"/>
		<polygon fill="#FFCC00" points="155.385,136.352 157.575,137.645 159.76,138.938 159.76,141.557 159.76,144.176 157.575,145.469 
			155.385,146.76 153.198,145.469 151.012,144.176 151.012,141.557 151.012,138.938 153.198,137.645 		"/>
		<polygon fill="#FFAB00" points="155.385,136.352 157.575,137.645 159.76,138.938 159.76,141.284 151.012,141.284 151.012,138.938 
			153.198,137.645 		"/>
		<path fill="#CCCCCC" d="M155.352,134.039L155.352,134.039h-0.031h-0.066h-0.035c-0.064,0-0.131-0.067-0.131-0.136
			c0-0.102,0.066-0.136,0.131-0.17h0.035h0.066h0.031l0,0h0.068h0.033h0.064l0.033,0.034h0.066h0.033
			c0.066,0,0.133,0.067,0.133,0.136c-0.033,0.068-0.066,0.136-0.166,0.136h-0.033h-0.033h-0.033h-0.064h-0.033H155.352z
			 M154.391,133.802c0.066,0,0.133,0.067,0.166,0.137c0,0.068-0.066,0.135-0.133,0.135l0,0l-0.033,0.035h-0.064h-0.035h-0.033
			h-0.066l-0.031,0.033c-0.066,0-0.135-0.068-0.135-0.135c-0.031-0.07,0.035-0.138,0.1-0.138l0.035-0.034h0.031h0.066h0.033
			l0.066-0.033H154.391L154.391,133.802z M153.331,134.039c0.066-0.032,0.133,0.034,0.166,0.103c0,0.068-0.033,0.137-0.1,0.171
			h-0.033h-0.033l-0.066,0.032h-0.033l-0.033,0.035h-0.064l0,0c-0.068,0.033-0.133,0-0.166-0.067c-0.033-0.103,0-0.171,0.098-0.204
			l0,0h0.035l0.066-0.035h0.031h0.033l0.066-0.034H153.331L153.331,134.039z M152.27,134.415c0.066-0.035,0.166,0,0.199,0.067
			s0,0.169-0.066,0.204h-0.033l-0.066,0.033h-0.033l-0.033,0.034l-0.033,0.034h-0.066l0,0c-0.066,0.033-0.131,0-0.166-0.068
			c-0.033-0.068,0-0.136,0.066-0.17l0,0l0.033-0.035h0.033l0.066-0.032l0.033-0.034h0.033L152.27,134.415z M151.309,134.958
			c0.066-0.033,0.133-0.033,0.199,0.034c0.033,0.067,0,0.17-0.066,0.204l-0.033,0.033h-0.033l-0.033,0.035l-0.033,0.034
			l-0.033,0.033h-0.033l0,0c-0.066,0.067-0.166,0.034-0.199-0.033c-0.031-0.034-0.031-0.137,0.033-0.171v-0.033h0.033l0.066-0.035
			l0.033-0.033l0.033-0.034h0.033L151.309,134.958z M150.415,135.637c0.066-0.033,0.133-0.033,0.199,0
			c0.033,0.068,0.033,0.17,0,0.205l-0.033,0.034l-0.033,0.032h-0.033l-0.033,0.035l-0.033,0.035l-0.033,0.033v0.033
			c-0.066,0.033-0.166,0.033-0.199-0.033c-0.066-0.033-0.066-0.136,0-0.17l0.033-0.035l0.033-0.033l0.033-0.034l0.033-0.034
			l0.033-0.033h0.033V135.637L150.415,135.637z M149.653,136.455c0.033-0.069,0.132-0.069,0.165-0.034
			c0.065,0.068,0.065,0.137,0.033,0.204l0,0l-0.033,0.034l-0.033,0.033l-0.033,0.034l-0.032,0.034l-0.033,0.033v0.035
			c-0.067,0.067-0.133,0.067-0.199,0.034c-0.066-0.069-0.066-0.137-0.033-0.204l0.033-0.034l0.033-0.034l0.033-0.033l0.033-0.035
			v-0.033l0.033-0.034H149.653z M148.989,137.339c0.033-0.034,0.1-0.068,0.166-0.034s0.1,0.138,0.066,0.204l-0.033,0.035
			l-0.033,0.033l-0.033,0.033v0.035l-0.033,0.068l-0.033,0.034l0,0c-0.033,0.067-0.099,0.067-0.164,0.032
			c-0.068-0.032-0.101-0.102-0.068-0.17v-0.033l0.034-0.033l0.032-0.035v-0.034l0.033-0.032l0.034-0.035L148.989,137.339z
			 M148.46,138.359c0.032-0.067,0.1-0.102,0.166-0.067c0.065,0.034,0.098,0.102,0.065,0.169v0.034l-0.033,0.068v0.034l-0.032,0.034
			v0.033l-0.033,0.068l0,0c-0.033,0.068-0.101,0.102-0.166,0.068c-0.066-0.034-0.1-0.102-0.1-0.17l0.033-0.034v-0.034l0.033-0.033
			v-0.035l0.033-0.067v-0.034L148.46,138.359z M148.061,139.415c0.033-0.07,0.1-0.103,0.166-0.103c0.1,0.032,0.133,0.103,0.1,0.204
			l0,0v0.033l-0.033,0.035v0.066v0.035l-0.033,0.033v0.034c0,0.103-0.1,0.137-0.166,0.103c-0.066,0-0.1-0.068-0.1-0.17v-0.035
			l0.033-0.034v-0.067l0.033-0.035v-0.033V139.415L148.061,139.415z M147.863,140.536c0-0.068,0.065-0.135,0.132-0.135
			c0.066,0.033,0.133,0.102,0.133,0.169v0.034l-0.033,0.033v0.07v0.032v0.069v0.033l0,0c0,0.068-0.066,0.137-0.166,0.137
			c-0.065,0-0.133-0.069-0.099-0.17l0,0v-0.035v-0.066v-0.035v-0.068v-0.034L147.863,140.536z M147.796,141.659
			c0-0.067,0.033-0.137,0.133-0.137c0.066,0,0.133,0.069,0.133,0.137v0.067v0.034v0.034v0.068v0.033v0.034
			c0,0.103-0.066,0.172-0.133,0.172c-0.065,0-0.133-0.069-0.133-0.137v-0.035v-0.067v-0.034v-0.068v-0.034V141.659z
			 M147.863,142.815c0-0.068,0.065-0.17,0.132-0.17s0.133,0.033,0.166,0.102v0.068v0.035v0.066v0.035l0.033,0.034v0.033
			c0,0.103-0.033,0.17-0.1,0.17c-0.066,0.034-0.166-0.033-0.166-0.103v-0.033l-0.033-0.067v-0.034v-0.035v-0.066L147.863,142.815z
			 M148.128,143.903c-0.033-0.067,0.033-0.136,0.1-0.17c0.066,0,0.133,0.034,0.166,0.103v0.033l0.033,0.034v0.035v0.033l0.033,0.068
			v0.033v0.035c0.032,0.067,0,0.135-0.066,0.17c-0.066,0.033-0.133-0.035-0.166-0.103l0,0l-0.033-0.067v-0.035l-0.033-0.033v-0.066
			l-0.033-0.035V143.903L148.128,143.903z M148.526,144.958c-0.034-0.067,0-0.135,0.066-0.17c0.065-0.034,0.165,0,0.198,0.068v0.034
			l0.033,0.034v0.033l0.033,0.035l0.034,0.033v0.068l0,0c0.031,0.067,0.031,0.17-0.034,0.204c-0.066,0.034-0.166,0-0.199-0.067
			v-0.035l-0.032-0.034v-0.034l-0.033-0.033l-0.033-0.068v-0.033L148.526,144.958z M149.089,145.944
			c-0.033-0.034-0.033-0.135,0.033-0.17c0.066-0.067,0.166-0.034,0.199,0.035l0,0l0.033,0.033l0.033,0.068v0.033l0.033,0.035
			l0.033,0.033l0,0c0.066,0.068,0.033,0.17,0,0.205c-0.066,0.033-0.166,0.033-0.199-0.035h-0.033v-0.068l-0.033-0.033l-0.033-0.035
			l-0.033-0.034l-0.033-0.032V145.944L149.089,145.944z M149.785,146.863c-0.065-0.069-0.065-0.17,0-0.204
			c0.066-0.067,0.133-0.067,0.198,0l0,0l0.034,0.034l0.032,0.034l0.034,0.033l0.033,0.035l0.032,0.033v0.034
			c0.066,0.067,0.066,0.136,0,0.204c-0.032,0.034-0.132,0.034-0.198,0v-0.034l-0.033-0.034l-0.034-0.033l-0.032-0.035l-0.033-0.034
			L149.785,146.863L149.785,146.863z M150.581,147.645c-0.066-0.068-0.066-0.137-0.033-0.204c0.066-0.069,0.133-0.069,0.198-0.034
			l0.034,0.034l0.033,0.034l0.032,0.033h0.034l0.032,0.035l0.033,0.033l0,0c0.067,0.068,0.101,0.136,0.034,0.203
			c-0.034,0.07-0.134,0.07-0.166,0.035h-0.033l-0.033-0.035l-0.033-0.033l-0.033-0.034l-0.033-0.032l-0.033-0.035H150.581
			L150.581,147.645z M151.475,148.292c-0.066-0.033-0.066-0.136-0.033-0.205c0.033-0.067,0.1-0.067,0.166-0.033h0.033l0.033,0.033
			l0.066,0.035h0.033l0.033,0.034l0.033,0.032l0,0c0.066,0.035,0.098,0.104,0.066,0.17c-0.033,0.069-0.133,0.104-0.199,0.069l0,0
			l-0.033-0.034l-0.033-0.035h-0.066l-0.033-0.032l-0.033-0.034H151.475L151.475,148.292z M152.469,148.802
			c-0.066-0.034-0.1-0.102-0.066-0.204c0.033-0.067,0.1-0.103,0.166-0.067l0.033,0.034h0.033l0.033,0.033h0.066l0.033,0.034h0.033
			h0.033c0.066,0.033,0.1,0.103,0.066,0.17c-0.033,0.102-0.1,0.137-0.166,0.102h-0.033l-0.033-0.033h-0.033l-0.066-0.034h-0.033
			l-0.033-0.034H152.469L152.469,148.802z M153.53,149.142c-0.1,0-0.133-0.069-0.1-0.17c0-0.069,0.066-0.103,0.166-0.103
			l0.033,0.033h0.033h0.033l0.066,0.035h0.033h0.033c0.1,0.034,0.133,0.102,0.133,0.17c-0.033,0.067-0.1,0.137-0.166,0.102h-0.066
			h-0.033l-0.033-0.034h-0.066h-0.033L153.53,149.142z M154.591,149.346c-0.066,0-0.1-0.068-0.1-0.137
			c0-0.102,0.066-0.137,0.133-0.137h0.033h0.066h0.033h0.033h0.066h0.033l0,0c0.066,0.035,0.133,0.103,0.133,0.17
			c0,0.068-0.066,0.137-0.133,0.137l0,0h-0.066l-0.033-0.033h-0.066h-0.033h-0.066H154.591z M155.718,149.38
			c-0.1,0-0.133-0.068-0.166-0.137c0-0.067,0.066-0.135,0.133-0.135h0.066h0.033l0.033-0.035h0.066h0.033h0.033
			c0.1,0,0.166,0.069,0.166,0.137c0,0.068-0.066,0.137-0.133,0.137h-0.033l-0.066,0.033h-0.033h-0.066h-0.033H155.718z
			 M156.811,149.243c-0.066,0-0.166-0.033-0.166-0.101c0-0.069,0.033-0.17,0.1-0.17h0.033l0.066-0.034h0.033h0.033h0.066
			l0.033-0.035c0.066,0,0.133,0.035,0.166,0.103c0,0.103-0.033,0.17-0.1,0.17l-0.033,0.034h-0.066h-0.033h-0.066l-0.033,0.033
			H156.811L156.811,149.243z M157.872,148.938c-0.066,0.034-0.166,0-0.166-0.068c-0.033-0.068,0-0.17,0.066-0.17l0.033-0.035h0.033
			l0.033-0.033h0.033h0.066l0.033-0.034h0.033c0.066-0.034,0.133,0,0.166,0.067c0.033,0.069,0,0.171-0.066,0.171l-0.033,0.034
			h-0.066l-0.033,0.033h-0.033l-0.033,0.035H157.872L157.872,148.938z M158.866,148.495c-0.066,0.035-0.131,0-0.166-0.067
			c-0.033-0.069,0-0.136,0.068-0.171v-0.033h0.031l0.033-0.035h0.068l0.031-0.033l0.033-0.033h0.035
			c0.064-0.035,0.131-0.035,0.164,0.033s0.033,0.171-0.033,0.203h-0.033l-0.033,0.035l-0.064,0.034h-0.035l-0.033,0.034
			l-0.031,0.033H158.866z M159.829,147.883c-0.068,0.069-0.168,0.034-0.199-0.032c-0.033-0.035-0.033-0.138,0.031-0.17v-0.035h0.035
			l0.033-0.034l0.031-0.034l0.033-0.033l0.035-0.035h0.031c0.068-0.067,0.166-0.033,0.199,0c0.033,0.068,0.033,0.17-0.033,0.204
			l-0.033,0.034l-0.033,0.033l-0.031,0.035h-0.035l-0.033,0.035L159.829,147.883L159.829,147.883z M160.657,147.169
			c-0.068,0.034-0.133,0.034-0.199,0c-0.033-0.068-0.033-0.17,0-0.203l0.031-0.035l0.035-0.034l0.033-0.033l0.031-0.034l0.035-0.035
			l0.033-0.033l0,0c0.066-0.068,0.133-0.068,0.197,0c0.035,0.033,0.035,0.136,0,0.205l0,0l-0.031,0.033l-0.033,0.034l-0.033,0.034
			l-0.033,0.033l-0.035,0.035L160.657,147.169z M161.385,146.318c-0.033,0.034-0.133,0.069-0.199,0
			c-0.033-0.033-0.066-0.136,0-0.169v-0.035l0.033-0.033l0.033-0.035v-0.034l0.033-0.032l0.033-0.035v-0.034
			c0.066-0.067,0.133-0.067,0.199-0.034c0.066,0.034,0.066,0.136,0.033,0.205l0,0l-0.033,0.033l-0.033,0.068l-0.033,0.033
			l-0.031,0.035v0.034L161.385,146.318z M161.981,145.366c-0.031,0.068-0.1,0.068-0.164,0.035c-0.066-0.035-0.1-0.103-0.066-0.17
			v-0.035l0.031-0.034l0.035-0.034v-0.033l0.033-0.068l0.031-0.033v-0.035c0.035-0.067,0.1-0.067,0.168-0.035
			c0.064,0.035,0.1,0.104,0.064,0.172v0.033l-0.033,0.034v0.034l-0.031,0.068l-0.033,0.034v0.034L161.981,145.366z M162.446,144.311
			c0,0.068-0.098,0.104-0.166,0.104c-0.066-0.035-0.1-0.137-0.066-0.205l0,0v-0.034l0.035-0.067v-0.035l0.031-0.034v-0.067l0,0
			c0.033-0.068,0.1-0.136,0.199-0.103c0.066,0.034,0.1,0.103,0.066,0.17v0.034l-0.033,0.035v0.067l-0.033,0.034v0.033v0.068H162.446
			L162.446,144.311z M162.778,143.223c-0.033,0.068-0.1,0.135-0.168,0.103c-0.064,0-0.131-0.069-0.098-0.17v-0.034v-0.035
			l0.033-0.033v-0.068v-0.033v-0.035v-0.033c0.033-0.068,0.1-0.104,0.164-0.104c0.068,0.035,0.135,0.104,0.1,0.172l0,0v0.033v0.068
			v0.033l-0.031,0.069v0.033V143.223L162.778,143.223z M162.909,142.1c0,0.068-0.064,0.137-0.131,0.137
			c-0.068,0-0.133-0.068-0.133-0.17l0,0v-0.068v-0.033v-0.069l0.033-0.034v-0.067l0,0c0-0.068,0.066-0.136,0.131-0.136
			c0.068,0,0.133,0.067,0.133,0.17l0,0v0.033v0.068v0.035v0.067l-0.033,0.034V142.1z M162.909,140.979
			c0,0.066-0.031,0.135-0.131,0.135c-0.068,0-0.133-0.068-0.133-0.135v-0.035v-0.068v-0.033v-0.035l-0.035-0.067v-0.032
			c0-0.07,0.068-0.138,0.135-0.138c0.064-0.034,0.133,0.033,0.133,0.103l0.031,0.033v0.067v0.034v0.068v0.034V140.979z
			 M162.745,139.823c0.033,0.102-0.035,0.17-0.1,0.17c-0.066,0.033-0.133-0.035-0.166-0.103v-0.034v-0.033l-0.033-0.035v-0.067
			v-0.034l-0.033-0.035v-0.033c0-0.068,0.033-0.137,0.1-0.17c0.066,0,0.166,0.033,0.166,0.102l0,0l0.031,0.068v0.033v0.069
			l0.035,0.033v0.034V139.823z M162.446,138.733c0,0.104-0.033,0.17-0.098,0.205c-0.068,0.033-0.135-0.035-0.168-0.102l0,0
			l-0.031-0.035v-0.034l-0.035-0.034v-0.068l-0.033-0.033v-0.034c-0.031-0.067,0-0.17,0.068-0.17c0.064-0.034,0.164,0,0.164,0.067
			l0.035,0.035v0.034l0.031,0.033l0.033,0.067v0.035L162.446,138.733L162.446,138.733z M161.95,137.714
			c0.031,0.066,0.031,0.17-0.035,0.203c-0.064,0.035-0.164,0-0.197-0.066l0,0v-0.035l-0.033-0.035l-0.033-0.032l-0.033-0.034v-0.068
			l-0.033-0.035c-0.033-0.066,0-0.136,0.033-0.168c0.066-0.07,0.164-0.035,0.199,0.032l0.033,0.034l0.031,0.035v0.033l0.033,0.067
			l0.035,0.034V137.714L161.95,137.714z M161.352,136.76c0.033,0.068,0.033,0.17-0.033,0.205c-0.066,0.033-0.133,0.033-0.199-0.035
			v-0.034l-0.033-0.033l-0.033-0.034l-0.031-0.035l-0.035-0.033v-0.034h-0.033c-0.031-0.067-0.031-0.136,0.033-0.204
			c0.066-0.033,0.133-0.033,0.199,0.035l0,0l0.033,0.033l0.033,0.034v0.034l0.033,0.033l0.033,0.034L161.352,136.76z
			 M160.624,135.909c0.033,0.07,0.033,0.172,0,0.205c-0.066,0.069-0.135,0.069-0.199,0h-0.033l-0.033-0.033l-0.033-0.035
			l-0.033-0.033l-0.033-0.033v-0.035h-0.033c-0.066-0.067-0.066-0.137,0-0.204c0.033-0.067,0.133-0.067,0.166,0h0.033l0.033,0.034
			l0.031,0.033l0.035,0.035l0.033,0.034l0.031,0.032H160.624z M159.76,135.196c0.068,0.033,0.068,0.136,0.033,0.203
			c-0.033,0.068-0.133,0.068-0.197,0.035l0,0l-0.035-0.035l-0.031-0.033l-0.033-0.034h-0.035l-0.064-0.033v-0.034
			c-0.066-0.035-0.1-0.137-0.066-0.17c0.066-0.068,0.131-0.103,0.199-0.068l0.031,0.033l0.035,0.035h0.033l0.031,0.033l0.035,0.034
			L159.76,135.196L159.76,135.196z M158.833,134.618c0.068,0.033,0.068,0.102,0.033,0.17c-0.033,0.068-0.098,0.103-0.166,0.068l0,0
			l-0.066-0.033h-0.031l-0.033-0.035h-0.035l-0.031-0.034l-0.033-0.033c-0.066-0.034-0.1-0.103-0.066-0.171
			c0.033-0.067,0.098-0.102,0.166-0.067l0.033,0.034h0.031l0.066,0.033h0.035l0.031,0.034l0.033,0.034H158.833z M157.805,134.176
			c0.066,0,0.1,0.103,0.066,0.169c0,0.07-0.1,0.104-0.166,0.07l0,0h-0.033l-0.066-0.035h-0.033h-0.033l-0.031-0.035h-0.033
			c-0.1-0.032-0.133-0.1-0.1-0.169c0.033-0.067,0.1-0.136,0.164-0.103h0.033l0.033,0.035h0.066l0.033,0.033h0.033L157.805,134.176
			L157.805,134.176z M156.745,133.869c0.066,0.034,0.1,0.103,0.1,0.17c0,0.069-0.1,0.137-0.166,0.103h-0.033h-0.033h-0.033
			l-0.064-0.033h-0.035h-0.064l0,0c-0.066,0-0.102-0.069-0.102-0.17c0-0.069,0.066-0.104,0.133-0.104h0.033h0.035h0.031l0.066,0.034
			h0.033h0.066H156.745z"/>
		<path fill="#4E5A62" d="M176.1,127.884h-35.828c-0.695,0-1.227,0.544-1.227,1.258v23.913c0,0.712,0.531,1.292,1.227,1.292h13.689
			v0.68c-2.055,0.307-6.265,1.259-6.265,3.571c0,0.069,0,0.136,0,0.204c0,0.067,0,0.103,0,0.172c0,0.066,0,0.135,0,0.169
			c0,0.067,0,0.103,0,0.169c0,1.532,1.856,2.417,3.049,2.823c2.056,0.749,4.474,1.021,6.663,1.056
			c0.23,0.033,0.463,0.033,0.695,0.033c2.32,0,4.938-0.271,7.16-1.02c1.191-0.408,3.281-1.293,3.281-2.893c0-0.066,0-0.102,0-0.169
			c0-0.034,0-0.103,0-0.169c0-0.069,0-0.104,0-0.172c0-0.068,0-0.135,0-0.204c0-2.313-4.211-3.265-6.266-3.571v-0.68h13.82
			c0.697,0,1.227-0.58,1.227-1.292v-23.913C177.329,128.427,176.798,127.884,176.1,127.884z M176.764,153.054
			c0,0.373-0.299,0.679-0.664,0.679h-14.416v1.803c3.678,0.478,6.264,1.668,6.264,3.062c0,0.069,0,0.136,0,0.204
			c0,0.067,0,0.103,0,0.172c0,0.066,0,0.135,0,0.169c0,0.067,0,0.103,0,0.169c0,1.838-4.408,3.301-9.844,3.301
			c-0.232,0-0.463,0-0.695,0c-5.105-0.137-9.148-1.565-9.148-3.301c0-0.066,0-0.102,0.033-0.169
			c-0.033-0.034-0.033-0.103-0.033-0.169c0-0.069,0-0.104,0.033-0.172c-0.033-0.068-0.033-0.135-0.033-0.204
			c0-1.394,2.619-2.584,6.297-3.062v-1.803h-14.285c-0.364,0-0.662-0.306-0.662-0.679v-23.913c0-0.375,0.298-0.681,0.662-0.681
			H176.1c0.365,0,0.664,0.306,0.664,0.681V153.054L176.764,153.054z"/>
		<path fill="#E6E6E6" d="M134.572,125.501h10.474c1.458,0,2.651,1.226,2.651,2.723v24.659c0,1.497-1.193,2.722-2.651,2.722h-10.474
			c-1.458,0-2.651-1.225-2.651-2.722v-24.659C131.921,126.726,133.114,125.501,134.572,125.501z"/>
		<path fill="#4E5A62" d="M134.803,127.34h10.043c0.994,0,1.823,0.815,1.823,1.87v21.089c0,1.054-0.829,1.87-1.823,1.87h-10.043
			c-0.994,0-1.822-0.816-1.822-1.87V129.21C132.981,128.155,133.809,127.34,134.803,127.34z"/>
		<path fill="#CCCCCC" d="M133.312,152.986h1.89c0.198,0,0.331,0.135,0.331,0.34l0,0c0,0.169-0.133,0.341-0.331,0.341h-1.89
			c-0.166,0-0.331-0.172-0.331-0.341l0,0C132.981,153.121,133.146,152.986,133.312,152.986z"/>
		<path fill="#7F8C8D" d="M138.979,152.986h2.089c0.299,0,0.53,0.237,0.53,0.544l0,0c0,0.271-0.231,0.544-0.53,0.544h-2.089
			c-0.264,0-0.529-0.272-0.529-0.544l0,0C138.45,153.223,138.716,152.986,138.979,152.986z"/>
		<path fill="#CCCCCC" d="M144.449,152.986h1.856c0.198,0,0.364,0.135,0.364,0.34l0,0c0,0.169-0.166,0.341-0.364,0.341h-1.856
			c-0.198,0-0.331-0.172-0.331-0.341l0,0C144.117,153.121,144.25,152.986,144.449,152.986z"/>
		<path fill="#FEFEFE" d="M137.124,126.012h5.402c0.199,0,0.332,0.137,0.332,0.34l0,0c0,0.205-0.133,0.34-0.332,0.34h-5.402
			c-0.198,0-0.364-0.135-0.364-0.34l0,0C136.76,126.149,136.926,126.012,137.124,126.012z"/>
		<path fill="#CCCCCC" d="M139.079,153.087h1.889c0.3,0,0.498,0.205,0.498,0.443l0,0c0,0.236-0.198,0.408-0.498,0.408h-1.889
			c-0.265,0-0.463-0.172-0.463-0.408l0,0C138.616,153.292,138.814,153.087,139.079,153.087z"/>
		<path fill="#FED5A9" d="M136.825,166.863c0.034-1.122,0.101-2.245,0.266-3.266c0.531-3.741,2.851-6.495,3.68-7.483
			c0,0,2.021-2.313,1.523-5.033c-0.463-2.416-0.895-6.395-0.695-8.674c0.266-3.231-2.121-5.238-2.686-0.544
			c-0.563,4.897-2.783,15.715-6.959,8.81v-10.715c0,0-1.26-0.204-1.99,1.769c-0.695,1.974-5.369,4.423-5.336,6.293
			c0.033,1.837,1.791,3.742,2.42,8.368c0.133,1.155,0.994,2.755,1.658,4.422C131.026,163.292,133.776,165.333,136.825,166.863z"/>
		<polygon fill="#E6E6E6" points="135.599,130.774 144.88,130.774 144.88,137.135 135.599,137.135 		"/>
		<polygon fill="#CCCCCC" points="140.239,134.686 142.559,132.714 144.88,130.774 140.239,130.774 135.599,130.774 137.92,132.714 
					"/>
		<path fill="#4E5A62" d="M130.96,139.141v-10.918c0-2.041,1.623-3.708,3.612-3.708h10.474c1.988,0,3.612,1.667,3.612,3.708v24.659
			c0,2.042-1.624,3.708-3.612,3.708h-3.381c-0.066,0.068-0.1,0.136-0.166,0.205c-1.723,1.938-3.082,4.285-3.447,6.938
			c-0.166,1.157-0.265,2.348-0.265,3.573c-0.331-0.138-0.663-0.307-0.962-0.443c0.034-1.122,0.101-2.245,0.266-3.265
			c0.531-3.741,2.851-6.496,3.68-7.483c0,0,0.165-0.171,0.396-0.511h3.879c1.458,0,2.651-1.225,2.651-2.722v-24.659
			c0-1.497-1.193-2.723-2.651-2.723h-10.474c-1.458,0-2.651,1.226-2.651,2.723v11.734c-0.133,0-1.293-0.067-1.957,1.769
			c-0.695,1.974-5.368,4.423-5.336,6.293c0.033,1.838,1.791,3.742,2.42,8.368c0.133,1.155,0.994,2.755,1.658,4.422
			c-0.763-0.783-1.459-1.633-2.122-2.518c-0.231-0.578-0.431-1.189-0.497-1.769c-0.231-1.803-0.695-3.333-1.358-5.001
			c-0.431-1.088-1.028-2.313-1.062-3.503c-0.033-1.632,1.989-3.196,3.083-4.15c0.597-0.511,2.056-1.733,2.32-2.481
			c0.298-0.852,0.796-1.667,1.624-2.109C130.76,139.243,130.86,139.176,130.96,139.141z"/>
	</g>
	<text transform="matrix(0.9744 0 0 1 128.6804 175.0349)" font-family="'MyriadPro-Regular'" font-size="5.213">RESPONSIVE DESIGN</text>
</g>
<g>
	<g>
		<path fill="#08A9D9" d="M113.936,123.987c0-0.505-0.4-0.914-0.896-0.914H57.588c-0.495,0-0.895,0.409-0.895,0.914v28.339h57.243
			V123.987z"/>
		<g>
			<path fill="#08A9D9" d="M56.72,178.852c0,0.504,0.4,0.914,0.895,0.914h55.453c0.496,0,0.896-0.41,0.896-0.914v-28.337H56.72
				V178.852z"/>
		</g>
	</g>
	<g>
		<path fill="#F4F4F4" d="M85.342,130.326c-12.119,0-21.947,9.853-21.947,22.003c0,12.147,9.828,21.997,21.947,21.997
			c12.122,0,21.948-9.85,21.948-21.997C107.29,140.178,97.464,130.326,85.342,130.326z M85.291,132.936
			c4.971,0,9.486,1.886,12.917,4.961c-1.439,0.598-2.349,2.338-1.102,5.041c0.689,1.496,3.6,4.117,2.477,7.572l-5.162,13.048
			l-5.211-14.443c-0.17-0.419-0.254-0.867-0.254-1.339c0-0.698,0.303-1.231,0.904-1.6c0.602-0.367,1.447-0.551,2.53-0.551h0.89v-1.3
			H79.311v1.301c0.662,0,1.271,0.091,1.733,0.272c0.466,0.178,0.914,0.498,1.351,0.955c0.493,0.472,0.899,0.996,1.217,1.572
			c0.32,0.58,0.489,1.112,0.91,2.344l-5.153,12.817l-5.129-14.399c-0.217-0.639-0.324-1.247-0.324-1.826
			c0-0.592,0.267-0.995,0.748-1.303c0.367-0.233,0.531-0.576,1.604-0.588l-0.019-1.146l-8.625,0.017
			C70.67,137.62,77.431,132.936,85.291,132.936z M65.9,152.329c0-2.072,0.333-4.063,0.934-5.936
			c0.189,0.138,0.383,0.269,0.558,0.445c0.795,0.805,1.512,2.121,2.149,3.941l6.854,18.763
			C70.166,166.318,65.9,159.828,65.9,152.329z M77.776,170.205l7.294-18.25l6.82,18.586c-2.062,0.748-4.279,1.176-6.602,1.176
			C82.625,171.717,80.086,171.177,77.776,170.205z M92.88,170.174l7.699-19.575c0.592-1.473,1.789-4.521,2.26-6.472
			c1.17,2.494,1.84,5.267,1.84,8.202C104.678,160.342,99.816,167.22,92.88,170.174z"/>
		<g>
			<path fill="#F4F4F4" d="M104.678,152.326c0,0.001,0,0.002,0,0.003c0,8.013-4.862,14.892-11.799,17.845l7.02-17.848h-1.033
				l-4.445,11.232l-4.053-11.232h-5.161l6.685,18.215c-2.063,0.748-4.279,1.176-6.601,1.176c-2.664,0-5.203-0.539-7.515-1.512
				l7.146-17.879h-1.024l-4.528,11.262l-4.013-11.262h-5.251l6.29,17.217c-6.229-3.225-10.495-9.715-10.495-17.214
				c0-0.001,0-0.002,0-0.003h-2.506c0,0.001,0,0.002,0,0.003c0,12.147,9.828,21.997,21.947,21.997
				c12.122,0,21.948-9.85,21.948-21.997c0-0.001,0-0.002,0-0.003H104.678z"/>
		</g>
	</g>
</g>
<g>
	<path fill="#B0B0B0" d="M48.72,123.115H1.476c-2.598,0-4.724,2.124-4.724,4.717v47.174c0,2.595,2.126,4.717,4.724,4.717H48.72
		c2.599,0,4.725-2.122,4.725-4.717v-47.174C53.445,125.239,51.319,123.115,48.72,123.115z"/>
	<path id="Drupicon_2_" fill="#FFFFFF" d="M33.248,140.805c-1.771-1.18-4.252-2.358-5.905-3.538
		c-1.063-0.708-2.362-2.123-3.543-3.537c-0.237,2.357-0.354,2.829-1.182,3.537c-1.771,1.416-3.543,2.24-4.96,3.066
		c-1.89,0.942-8.032,4.599-8.032,13.443c0,8.846,7.323,15.332,15.473,15.332c8.267,0,15.354-6.015,15.354-14.979
		C40.57,145.051,34.429,141.512,33.248,140.805z M32.893,165.925c-0.118,0.118-1.771,1.298-3.544,1.415
		c-1.771,0.118-4.369,0.236-5.787-1.062c-0.236-0.235-0.118-0.589,0-0.707c0.118-0.118,0.354-0.236,0.473-0.236s0.118,0,0.236,0.118
		c0.709,0.59,1.654,0.943,3.897,0.943c2.245,0,3.662-0.589,4.37-1.18c0.354-0.235,0.473,0,0.473,0.118
		C33.13,165.453,33.13,165.689,32.893,165.925z M26.988,162.859c0.354-0.354,0.944-0.944,1.536-1.18
		c0.59-0.235,0.944-0.235,1.417-0.235c0.59,0,1.181,0,1.535,0.354c0.354,0.235,0.591,0.943,0.826,1.179
		c0.236,0.236,0,0.589-0.235,0.706c-0.236,0.118-0.236,0.118-0.473-0.354c-0.236-0.47-0.473-0.942-1.653-0.942
		c-1.182,0-1.536,0.354-2.127,0.942c-0.589,0.472-0.826,0.709-0.943,0.354C26.516,163.447,26.634,163.094,26.988,162.859z
		 M35.61,163.213c-1.181-0.118-3.19-3.421-4.724-3.539c-2.009-0.118-6.025,3.539-9.449,3.539c-2.009,0-2.835-0.708-3.544-1.18
		c-1.063-0.707-2.362-2.004-2.362-3.539c0-2.711,2.717-4.717,5.906-4.717c4.015,0,7.44,3.539,9.449,3.539
		c1.652,0,4.251-3.539,5.905-3.539c1.652,0,2.361,2.478,2.361,3.539s-0.119,2.948-0.945,4.245
		C37.5,162.741,36.554,163.329,35.61,163.213z"/>
</g>
<g>
	<polyline fill="#B0B0B0" points="-68,178.846 -11.307,178.846 -11.307,122.151 -68,122.151 -68,178.846 	"/>
	<polyline fill="#FFFFFF" points="-39.808,135.993 -53.494,140.81 -51.332,158.742 -39.793,165.084 -28.196,158.656 
		-26.033,140.725 -39.808,135.993 	"/>
	<polyline fill="#999999" points="-27.399,141.76 -39.84,137.518 -39.84,163.569 -29.414,157.798 -27.399,141.76 	"/>
	<polyline fill="#B0B0B0" points="-51.959,141.838 -50.106,157.875 -39.84,163.569 -39.84,137.518 -51.959,141.838 	"/>
	<path fill="#FFFFFF" d="M-36.746,150.579l-3.071-6.078l-2.519,5.975h2.497L-36.746,150.579 M-36.415,151.386l-3.424,1.602h-3.609
		l-1.697,4.243l-3.156,0.059l8.463-18.826L-36.415,151.386z"/>
	<polyline fill="#FFFFFF" points="-39.84,138.464 -39.817,144.501 -36.959,150.479 -39.834,150.479 -39.84,152.984 -35.865,152.988 
		-34.007,157.291 -30.989,157.346 -39.84,138.464 	"/>
</g>
<g>
	<path fill="#E78724" d="M26.196,27.143c0.004-0.009,0.007-0.018,0.01-0.025c-0.003,0-0.007,0.001-0.012,0.001
		C26.195,27.126,26.195,27.135,26.196,27.143z"/>
	<path fill="#FBA919" d="M22.779,18.927c-0.021-0.06-0.048-0.126-0.077-0.194c0.035,0.119,0.049,0.198,0.049,0.198L22.779,18.927z"
		/>
	<path fill="#FFFFFF" d="M22.733,24.941c-0.012,0.077-0.02,0.157-0.024,0.241c0.02,0.168,0.157,0.975,0.995,1.254
		c0.663,0.221,1.255-0.013,1.338-0.047c-0.302-0.362-0.753-0.764-1.28-1.141c-0.301-0.216-0.624-0.423-0.958-0.61
		C22.775,24.725,22.751,24.826,22.733,24.941z"/>
	<path fill="#FFFFFF" d="M19.854,31.753c-0.003,0.002-0.004,0.004-0.006,0.006c0.001,0.002,0.002,0.004,0.002,0.008
		C19.852,31.759,19.854,31.753,19.854,31.753z"/>
	<path fill="#FFFFFF" d="M19.656,33.274c-0.066,1.871,0.796,3.033,2.002,3.531c0.369,0.152,0.771,0.242,1.188,0.271
		c0.03-0.309,0.147-0.574,0.354-0.797c0.021-0.023,0.046-0.047,0.07-0.068c0.101-0.131,0.237-0.32,0.387-0.555
		c-0.642-0.027-1.375-0.145-2.049-0.42C20.756,34.887,20.003,34.278,19.656,33.274z"/>
	<path fill="#E78724" d="M30.485,27.117c0.004,0.008,0.008,0.017,0.012,0.026c0-0.009,0-0.017,0-0.025
		C30.493,27.118,30.489,27.117,30.485,27.117z"/>
	<g>
		<path fill="#FBA919" d="M20.434,25.213c-0.134,0.988-0.484,1.416-0.697,1.59c0.528,0.589,1.869,1.052,1.869,1.052
			c0.976,0.356,1.104,1.486,1.138,2.388c0.198-0.43,0.367-1.08,0.367-1.08s0.051,1.869-0.091,3.146
			c-0.104,0.932-0.398,1.943-0.541,2.379c0.257,0.064,0.521,0.107,0.785,0.139c0.828-1.225,1.903-2.863,2.227-3.355
			c0.13-0.291,0.246-0.533,0.328-0.668c-0.295,2.115-0.95,3.996-1.274,4.857c0.189-0.025,0.396-0.045,0.636-0.045
			c0,0,2.251,0,3.162-0.002h0.008l3.161,0.002c0.24,0,0.446,0.02,0.636,0.045c-0.324-0.861-0.979-2.742-1.275-4.857
			c0.084,0.137,0.2,0.379,0.33,0.668c0.323,0.494,1.397,2.131,2.226,3.355c0.264-0.031,0.528-0.074,0.786-0.139
			c-0.145-0.436-0.438-1.447-0.543-2.379c-0.141-1.277-0.089-3.146-0.089-3.146s0.168,0.65,0.366,1.08
			c0.034-0.902,0.162-2.032,1.139-2.388c0,0,1.34-0.463,1.867-1.052c-0.213-0.174-0.563-0.602-0.696-1.59
			c-0.12-0.891-0.007-1.706,0.102-2.209c0.043-0.536,0.144-1.096,0.274-1.381c-0.01,0.265,0,0.528,0.018,0.779
			c0.021-0.045,0.045-0.085,0.07-0.118c0.174-0.217,0.641-0.948,0.506-1.439c-0.051-0.188-0.169-0.326-0.361-0.426
			c-0.203-0.104-0.479-0.156-0.816-0.156c-0.664,0-1.402,0.202-1.782,0.323c-1.359,0.431-2.999,1.673-3.47,2.043
			c-0.014,0.01-0.021,0.016-0.023,0.018l-0.301,0.209l0.188-0.315c0.005-0.006,0.137-0.221,0.383-0.529
			c0.345-0.878,1.044-2.032,1.044-2.032s0.145-0.402-0.046-0.921c-1.086-0.467-2.326-0.706-3.696-0.707
			c-1.369,0.001-2.609,0.239-3.695,0.706c-0.19,0.52-0.046,0.922-0.046,0.922s0.699,1.153,1.044,2.032
			c0.247,0.309,0.378,0.523,0.382,0.529l0.188,0.315l-0.3-0.209c-0.002-0.002-0.01-0.008-0.022-0.018
			c-0.471-0.37-2.111-1.612-3.471-2.043c-0.38-0.121-1.117-0.323-1.782-0.323c-0.338,0-0.613,0.053-0.816,0.156
			c-0.192,0.1-0.311,0.238-0.361,0.426c-0.135,0.491,0.332,1.223,0.507,1.439c0.025,0.032,0.048,0.073,0.069,0.118
			c0.018-0.251,0.026-0.516,0.018-0.779c0.131,0.284,0.231,0.843,0.274,1.379C20.44,23.504,20.555,24.321,20.434,25.213z
			 M30.659,25.654c0.24-0.228,0.435-0.597,0.629-0.873c0.611-0.869,1.621-1.248,2.427-1.311c1.374-0.108,2.026,0.378,2.026,0.378
			s-0.021,0.001-0.053,0.003c0.029,0.007,0.059,0.01,0.088,0.017c-0.234,0.052-0.48,0.13-0.73,0.225c0.001,0,0.002,0,0.004,0.001
			c0.223,0.098,0.346,0.373,0.377,0.642c0.063,0.543-0.282,1.036-0.282,1.036c-0.036-0.405-0.121-0.692-0.22-0.898
			c-0.001,0.021-0.001,0.042-0.002,0.063c0.007,0.017,0.02,0.03,0.02,0.052c0,0.554-0.158,2.528-1.699,3.082
			c-0.588,0.211-1.072,0.197-1.447,0.1c0.093,0.932,0.453,1.313,0.453,1.313s-0.672-0.215-1.016-0.642
			c0.008,0.025,0.014,0.041,0.014,0.041s-0.797-0.905-0.75-1.736c-0.004-0.01-0.008-0.019-0.012-0.026
			c-0.582-0.029-1.15-0.457-1.135-1.055c0,0,0.098,0.053,0.259,0.097C29.93,26.17,30.283,26.01,30.659,25.654z M28.346,23.687
			c0.537,0,1.237-0.015,1.763-0.393c0,0-0.19,0.333-0.527,0.649c-0.286,0.283-0.778,0.697-1.231,0.702v0.001
			c-0.002,0-0.003-0.001-0.004-0.001c-0.002,0-0.003,0.001-0.004,0.001v-0.001c-0.455-0.005-0.948-0.42-1.233-0.704
			c-0.336-0.315-0.526-0.647-0.526-0.647C27.109,23.672,27.809,23.687,28.346,23.687z M20.951,23.848c0,0,0.652-0.486,2.026-0.378
			c0.806,0.063,1.815,0.441,2.427,1.311c0.194,0.276,0.389,0.646,0.628,0.873c0.378,0.356,0.73,0.517,1.051,0.506
			c0.161-0.044,0.259-0.097,0.259-0.097c0.016,0.598-0.553,1.025-1.136,1.055c-0.003,0.008-0.006,0.017-0.01,0.025
			c0.046,0.831-0.751,1.737-0.751,1.737s0.005-0.014,0.013-0.038c-0.345,0.426-1.016,0.639-1.016,0.639s0.361-0.381,0.454-1.313
			c-0.374,0.098-0.858,0.111-1.447-0.1c-1.541-0.554-1.699-2.528-1.699-3.082c0-0.021,0.013-0.034,0.02-0.051
			c-0.001-0.021-0.001-0.042-0.002-0.063c-0.099,0.205-0.185,0.492-0.22,0.897c0,0-0.345-0.493-0.282-1.036
			c0.03-0.269,0.155-0.544,0.377-0.642c0.001-0.001,0.003-0.001,0.004-0.001c-0.25-0.095-0.496-0.173-0.731-0.225
			c0.03-0.007,0.059-0.01,0.089-0.017C20.973,23.849,20.951,23.848,20.951,23.848z"/>
		<path fill="#FBA919" d="M23.983,40.128c-0.264-0.393-0.48-0.816-0.667-1.252c-0.344-0.027-0.682-0.066-1.007-0.129
			C22.66,39.264,23.201,39.809,23.983,40.128z"/>
		<path fill="#FBA919" d="M33.376,38.876c-0.188,0.436-0.403,0.859-0.666,1.252c0.781-0.318,1.321-0.863,1.672-1.379
			C34.056,38.809,33.719,38.848,33.376,38.876z"/>
		<path fill="#FBA919" d="M28.346,40.303c3.209-0.004,4.297-1.633,4.297-1.633l-0.109,0.268c0.191-0.377,0.32-0.725,0.41-0.982
			c0.197-0.568,0.182-0.988-0.047-1.248c-0.156-0.18-0.516-0.393-1.334-0.393h-0.855c-0.631,0-1.424-0.002-2.361-0.002
			c-0.938,0-1.73,0.002-2.362,0.002h-0.855c-0.818,0-1.178,0.213-1.334,0.393c-0.229,0.26-0.244,0.68-0.046,1.248
			c0.089,0.258,0.217,0.605,0.409,0.982l-0.11-0.268C24.048,38.671,25.135,40.3,28.346,40.303z M29.605,37.292
			c0.093-0.096,0.254-0.145,0.479-0.145h0.348c0.361,0,0.784,0,1.035,0h0.211c0.297,0,0.443,0.086,0.513,0.156
			s0.095,0.158,0.086,0.264h0.015c0,0-0.297,1.809-1.481,1.809c-1.007,0-1.304-1.529-1.304-1.844h0.021
			C29.52,37.456,29.531,37.368,29.605,37.292z M24.415,37.567c-0.009-0.105,0.017-0.193,0.085-0.264
			c0.071-0.07,0.217-0.156,0.514-0.156h0.211c0.251,0,0.674,0,1.036,0h0.347c0.226,0,0.387,0.049,0.479,0.145
			c0.074,0.076,0.085,0.164,0.076,0.24h0.022c0,0.314-0.297,1.844-1.304,1.844c-1.185,0-1.481-1.809-1.481-1.809H24.415z"/>
		<path fill="#FBA919" d="M24.233,18.266c-0.33-0.485-1.077-1.432-2.046-1.744c-0.306-0.099-0.628-0.149-0.957-0.149
			c-0.596,0-1.08,0.163-1.337,0.272c0.164,0.074,0.341,0.175,0.517,0.291c0.132-0.023,0.304-0.045,0.506-0.045
			c0.569,0,1.107,0.167,1.558,0.483c0.668,0.47,0.977,0.916,1.118,1.211c0.119-0.068,0.246-0.136,0.382-0.203
			C24.058,18.341,24.146,18.305,24.233,18.266z"/>
		<path fill="#FBA919" d="M34.505,16.522c-0.969,0.313-1.715,1.26-2.045,1.744c0.086,0.039,0.174,0.076,0.258,0.116
			c0.137,0.067,0.264,0.135,0.383,0.203c0.143-0.295,0.451-0.741,1.119-1.211c0.449-0.316,0.987-0.483,1.557-0.483
			c0.201,0,0.375,0.021,0.506,0.045c0.176-0.116,0.354-0.217,0.517-0.291c-0.257-0.109-0.74-0.271-1.337-0.271
			C35.132,16.373,34.811,16.423,34.505,16.522z"/>
	</g>
	<path fill="#FBA919" d="M33.988,18.739c-0.028,0.067-0.054,0.13-0.074,0.188l0.027,0.004
		C33.941,18.931,33.954,18.855,33.988,18.739z"/>
	<path fill="#FFFFFF" d="M32.93,25.248c-0.527,0.377-0.979,0.778-1.28,1.141c0.083,0.034,0.675,0.268,1.338,0.047
		c0.837-0.279,0.976-1.083,0.995-1.252c-0.005-0.085-0.013-0.166-0.025-0.243c-0.017-0.114-0.041-0.216-0.07-0.303
		C33.555,24.825,33.231,25.033,32.93,25.248z"/>
	<g>
		<path fill="#E78724" d="M24.093,34.885c0.11-0.223,0.213-0.461,0.298-0.711c0.028-0.082,0.65-1.697,1.101-2.703
			c-0.323,0.492-1.398,2.131-2.227,3.355C23.545,34.86,23.824,34.88,24.093,34.885z"/>
		<path fill="#E78724" d="M22.84,19.111c-0.015-0.05-0.034-0.109-0.061-0.184l-0.028,0.004c0,0-0.014-0.079-0.049-0.198
			c-0.122-0.281-0.313-0.619-0.597-0.844c-0.3-0.239-0.659-0.362-1.065-0.377c0.045,0.058,0.095,0.109,0.135,0.172
			c0.18,0.284,0.209,0.631,0.237,0.966c0.028,0.349,0.059,0.68,0.24,0.92c0.225,0.043,0.435,0.093,0.618,0.144
			C22.392,19.544,22.576,19.335,22.84,19.111z"/>
		<path fill="#E78724" d="M25.589,27.513c-0.049-0.172-0.106-0.329-0.162-0.462c0-0.001,0-0.002,0-0.002
			c-0.001,0.002-0.002,0.002-0.003,0.003c-0.098,0.087-0.198,0.157-0.303,0.215c-1.02,0.56-2.326-0.169-2.664-0.543
			c-0.5-0.555-0.655-1.24-0.688-1.788c-0.007,0.017-0.02,0.03-0.02,0.051c0,0.554,0.158,2.528,1.699,3.082
			c0.589,0.211,1.073,0.197,1.447,0.1c-0.093,0.932-0.454,1.313-0.454,1.313s0.671-0.213,1.016-0.639
			c0.046-0.134,0.19-0.604,0.172-1.034C25.626,27.706,25.615,27.606,25.589,27.513z"/>
		<path fill="#E78724" d="M25.419,25.588c0.624,0.718,1.305,0.669,1.664,0.571c-0.32,0.011-0.673-0.149-1.051-0.506
			c-0.239-0.228-0.434-0.597-0.628-0.873c-0.611-0.869-1.621-1.248-2.427-1.311c-1.374-0.108-2.026,0.378-2.026,0.378
			s0.022,0.001,0.053,0.003C23.247,23.36,24.898,24.99,25.419,25.588z"/>
		<path fill="#E78724" d="M20.64,28.308c0.154,0.083,0.309,0.167,0.456,0.251c0.47,0.271,0.976,0.907,1.032,1.852
			c0.012,0.195,0.015,0.459,0.011,0.764c-0.001,0.043-0.001,0.088-0.002,0.135c-0.009,0.455-0.032,0.992-0.064,1.541
			c-0.016,0.258-0.033,0.518-0.053,0.773c-0.023,0.311-0.05,0.613-0.076,0.895c0.173,0.068,0.353,0.123,0.535,0.17
			c0.143-0.436,0.438-1.447,0.541-2.379c0.142-1.277,0.091-3.146,0.091-3.146s-0.169,0.65-0.367,1.08
			c-0.034-0.902-0.162-2.032-1.138-2.388c0,0-1.341-0.463-1.869-1.052c0.213-0.174,0.563-0.602,0.697-1.59
			c0.121-0.893,0.006-1.709-0.102-2.211c0.029,0.356,0.033,0.702,0.003,0.952c-0.165,1.345-0.659,2.129-0.807,2.339
			c-0.027,0.037-0.046,0.063-0.046,0.063c0.043-0.085,0.096-0.417,0.146-0.808c-0.039,0.034-0.079,0.066-0.118,0.098l-0.026,0.021
			c-0.03,0.024-0.061,0.05-0.091,0.074c-0.211,0.178-0.39,0.388-0.39,0.913C19.004,27.423,19.836,27.873,20.64,28.308z"/>
		<path fill="#E78724" d="M24.65,19.057c-0.111,0.049-0.223,0.096-0.33,0.148c-0.774,0.377-1.062,0.661-1.17,0.817
			c1.194,0.53,2.044,1.42,2.498,1.988c-0.345-0.879-1.044-2.032-1.044-2.032S24.46,19.576,24.65,19.057z"/>
		<path fill="#E78724" d="M25.882,39.376c1.007,0,1.304-1.529,1.304-1.844h-0.022c-0.005,0.045-0.016,0.09-0.028,0.119
			c-0.058,0.145-0.299,0.613-0.705,1.049c-0.146,0.154-0.358,0.242-0.598,0.242c-0.233,0-0.472-0.086-0.637-0.229
			c-0.126-0.109-0.554-0.502-0.743-0.982c-0.022-0.061-0.033-0.113-0.037-0.164H24.4C24.4,37.567,24.697,39.376,25.882,39.376z"/>
		<path fill="#E78724" d="M32.302,34.175c0.084,0.25,0.188,0.488,0.297,0.711c0.27-0.006,0.549-0.025,0.829-0.059
			c-0.828-1.225-1.902-2.861-2.226-3.355C31.651,32.477,32.272,34.093,32.302,34.175z"/>
		<path fill="#E78724" d="M35.518,17.685c0.04-0.063,0.09-0.115,0.135-0.173c-0.406,0.014-0.766,0.138-1.066,0.377
			c-0.285,0.227-0.477,0.567-0.599,0.85c-0.034,0.116-0.047,0.192-0.047,0.192l-0.027-0.004c-0.027,0.074-0.046,0.134-0.062,0.185
			c0.264,0.225,0.447,0.433,0.568,0.602c0.185-0.051,0.395-0.102,0.619-0.144c0.182-0.24,0.211-0.571,0.24-0.92
			C35.309,18.315,35.339,17.968,35.518,17.685z"/>
		<path fill="#E78724" d="M31.571,27.267c-0.104-0.058-0.206-0.128-0.304-0.216c-0.001,0-0.001,0-0.002-0.001c0,0,0,0-0.001,0.001
			c-0.055,0.133-0.113,0.29-0.161,0.462c-0.026,0.093-0.036,0.193-0.041,0.295c-0.019,0.429,0.124,0.894,0.171,1.031
			c0.344,0.427,1.016,0.642,1.016,0.642s-0.36-0.381-0.453-1.313c0.375,0.098,0.859,0.111,1.447-0.1
			c1.541-0.554,1.699-2.528,1.699-3.082c0-0.021-0.013-0.035-0.02-0.052c-0.032,0.549-0.188,1.234-0.688,1.789
			C33.897,27.098,32.591,27.826,31.571,27.267z"/>
		<path fill="#E78724" d="M31.274,25.588c0.52-0.598,2.172-2.228,4.414-1.737c0.031-0.002,0.053-0.003,0.053-0.003
			s-0.652-0.486-2.026-0.378c-0.806,0.063-1.815,0.441-2.427,1.311c-0.194,0.276-0.389,0.646-0.629,0.873
			c-0.376,0.356-0.729,0.517-1.05,0.506C29.969,26.257,30.649,26.306,31.274,25.588z"/>
		<path fill="#E78724" d="M32.534,38.938l0.109-0.268c0,0-1.088,1.629-4.297,1.633c-3.211-0.004-4.299-1.633-4.299-1.633l0.11,0.268
			c0.574,1.127,1.729,2.518,4.183,2.523c0.002,0,0.003,0,0.006,0c0.002,0,0.004,0,0.005,0
			C30.805,41.456,31.959,40.067,32.534,38.938z"/>
		<path fill="#E78724" d="M32.088,19.979c0,0-0.699,1.154-1.044,2.032c0.454-0.568,1.303-1.457,2.496-1.988
			c-0.106-0.155-0.395-0.439-1.169-0.817c-0.106-0.053-0.218-0.1-0.329-0.147C32.232,19.576,32.088,19.979,32.088,19.979z"/>
		<path fill="#E78724" d="M30.81,39.376c1.185,0,1.481-1.809,1.481-1.809h-0.015c-0.005,0.051-0.015,0.104-0.038,0.164
			c-0.188,0.48-0.615,0.873-0.742,0.982c-0.166,0.143-0.403,0.229-0.637,0.229c-0.239,0-0.451-0.088-0.598-0.242l0,0
			c-0.406-0.436-0.648-0.904-0.705-1.049c-0.014-0.029-0.023-0.074-0.029-0.119h-0.021C29.507,37.846,29.803,39.376,30.81,39.376z"
			/>
		<path fill="#E78724" d="M36.258,25.213c0.134,0.988,0.483,1.416,0.696,1.59c-0.527,0.589-1.867,1.052-1.867,1.052
			c-0.977,0.356-1.104,1.486-1.139,2.388c-0.198-0.43-0.366-1.08-0.366-1.08s-0.052,1.869,0.089,3.146
			c0.104,0.932,0.398,1.943,0.543,2.379c0.183-0.047,0.361-0.102,0.535-0.17c-0.027-0.281-0.055-0.584-0.078-0.893
			c-0.063-0.855-0.109-1.762-0.118-2.451c-0.004-0.305-0.001-0.568,0.011-0.764c0.057-0.945,0.563-1.582,1.033-1.852
			c0.146-0.084,0.301-0.168,0.455-0.251c0.805-0.435,1.637-0.885,1.637-1.653c0-0.525-0.179-0.735-0.389-0.912
			c-0.03-0.025-0.061-0.051-0.092-0.075l-0.027-0.021c-0.037-0.031-0.078-0.064-0.117-0.099c0.05,0.392,0.103,0.724,0.145,0.809
			c0,0-0.019-0.025-0.045-0.063c-0.146-0.209-0.641-0.993-0.807-2.339c-0.029-0.249-0.025-0.595,0.003-0.95
			C36.251,23.507,36.137,24.323,36.258,25.213z"/>
		<path fill="#E78724" d="M27.109,23.942c-0.148-0.147-0.242-0.261-0.242-0.261c0.539,0.326,1.02,0.439,1.479,0.449
			c0.459-0.01,0.939-0.123,1.479-0.449c0,0-0.094,0.113-0.243,0.263c0.337-0.316,0.527-0.649,0.527-0.649
			c-0.525,0.378-1.226,0.393-1.763,0.393s-1.237-0.015-1.764-0.393C26.583,23.294,26.773,23.626,27.109,23.942z"/>
	</g>
	<path fill="#463014" d="M28.346,24.13c-0.46-0.01-0.94-0.123-1.479-0.449c0,0,0.094,0.113,0.242,0.261
		c0.285,0.284,0.778,0.699,1.233,0.704v0.001c0.001,0,0.002-0.001,0.004-0.001c0.001,0,0.002,0.001,0.004,0.001v-0.001
		c0.453-0.005,0.945-0.419,1.231-0.702c0.149-0.149,0.243-0.263,0.243-0.263C29.286,24.007,28.805,24.12,28.346,24.13z"/>
	<path fill="#FFFFFF" d="M35.35,35.116c-0.743,0.363-1.588,0.51-2.314,0.541c0.148,0.232,0.285,0.422,0.386,0.553
		c0.024,0.023,0.05,0.047,0.071,0.07c0.206,0.223,0.323,0.488,0.354,0.797c0.475-0.033,0.928-0.148,1.338-0.342
		c1.125-0.529,1.914-1.668,1.851-3.461C36.725,34.173,36.091,34.753,35.35,35.116z"/>
	<path fill="#FFFFFF" d="M36.839,31.753c0,0,0.001,0.006,0.003,0.014c0-0.004,0.001-0.006,0.002-0.008
		C36.842,31.757,36.841,31.755,36.839,31.753z"/>
	<g>
		<path fill="#C9C9C9" d="M23.704,26.436c-0.838-0.279-0.976-1.086-0.995-1.254c-0.028,0.493,0.073,1.077,0.47,1.371
			c0.882,0.656,1.745,0.271,2.057,0.09l-0.001-0.001c-0.054-0.081-0.12-0.167-0.192-0.253
			C24.959,26.423,24.367,26.656,23.704,26.436z"/>
		<path fill="#C9C9C9" d="M19.656,33.274c-0.009-0.027-0.021-0.051-0.029-0.078c-0.271,0.271-0.455,2.119,0.202,3.201
			c0.295,0.484,0.722,0.85,1.211,1.113c0.241,0.131,0.496,0.238,0.762,0.316c0.013,0.004,0.025,0.01,0.038,0.014
			c0.175,0.049,0.353,0.086,0.531,0.113c0.202,0.031,0.405,0.045,0.607,0.047c-0.033-0.1-0.061-0.197-0.082-0.291
			c-0.051-0.227-0.07-0.439-0.051-0.633c-0.417-0.029-0.818-0.119-1.188-0.271C20.452,36.307,19.59,35.145,19.656,33.274z"/>
		<path fill="#C9C9C9" d="M32.988,26.436c-0.663,0.221-1.255-0.013-1.338-0.047c-0.073,0.086-0.139,0.172-0.192,0.253l-0.001,0.001
			c0.31,0.181,1.174,0.566,2.057-0.09c0.396-0.294,0.497-0.877,0.47-1.369C33.964,25.353,33.825,26.156,32.988,26.436z"/>
		<path fill="#C9C9C9" d="M35.184,36.735c-0.41,0.193-0.863,0.309-1.338,0.342c0.02,0.193,0,0.406-0.051,0.633
			c-0.021,0.094-0.049,0.191-0.082,0.291c0.202-0.002,0.405-0.016,0.607-0.047c0.179-0.027,0.355-0.064,0.53-0.113
			c0.056-0.016,0.108-0.039,0.161-0.057c0.223-0.072,0.436-0.164,0.64-0.273c0.489-0.264,0.917-0.629,1.211-1.113
			c0.657-1.082,0.474-2.93,0.202-3.201c-0.009,0.029-0.021,0.053-0.03,0.078C37.098,35.067,36.309,36.206,35.184,36.735z"/>
	</g>
	<g>
		<path fill="#463014" d="M21.646,24.092c-0.001,0-0.003,0-0.004,0.001c-0.222,0.098-0.347,0.373-0.377,0.642
			c-0.063,0.543,0.282,1.036,0.282,1.036c0.035-0.405,0.121-0.692,0.22-0.897c0.001,0.021,0.001,0.041,0.002,0.063
			c0.032,0.548,0.188,1.233,0.688,1.788c0.338,0.374,1.645,1.103,2.664,0.543c0.104-0.058,0.205-0.128,0.303-0.215
			c0.001-0.001,0.002-0.001,0.003-0.003c0,0,0,0.001,0,0.002c0.056,0.133,0.113,0.29,0.162,0.462
			c0.026,0.093,0.037,0.193,0.041,0.295c0.019,0.431-0.126,0.9-0.172,1.034c-0.008,0.024-0.013,0.038-0.013,0.038
			s0.797-0.906,0.751-1.737c-0.001-0.008-0.001-0.017-0.002-0.024c0.005,0,0.009-0.001,0.012-0.001
			c0.583-0.029,1.151-0.457,1.136-1.055c0,0-0.098,0.053-0.259,0.097c-0.359,0.098-1.04,0.146-1.664-0.571
			c-0.521-0.598-2.172-2.229-4.415-1.737c-0.03,0.007-0.059,0.01-0.089,0.017C21.15,23.919,21.396,23.997,21.646,24.092z
			 M25.042,26.389c0.072,0.086,0.139,0.172,0.192,0.253l0.001,0.001c-0.312,0.181-1.175,0.566-2.057-0.09
			c-0.396-0.294-0.498-0.878-0.47-1.371c0.005-0.084,0.013-0.164,0.024-0.241c0.018-0.114,0.042-0.216,0.07-0.303
			c0.334,0.188,0.657,0.395,0.958,0.61C24.289,25.625,24.74,26.027,25.042,26.389z"/>
		<path fill="#463014" d="M25.195,38.714c0.165,0.143,0.403,0.229,0.637,0.229c0.239,0,0.452-0.088,0.598-0.242
			c0.406-0.436,0.647-0.904,0.705-1.049c0.013-0.029,0.023-0.074,0.028-0.119c0.009-0.076-0.002-0.164-0.076-0.24
			c-0.093-0.096-0.254-0.145-0.479-0.145H26.26c-0.362,0-0.785,0-1.036,0h-0.211c-0.297,0-0.442,0.086-0.514,0.156
			c-0.068,0.07-0.094,0.158-0.085,0.264c0.004,0.051,0.015,0.104,0.037,0.164C24.641,38.212,25.069,38.604,25.195,38.714z"/>
		<path fill="#463014" d="M31.274,25.588c-0.625,0.718-1.306,0.669-1.665,0.571c-0.161-0.044-0.259-0.097-0.259-0.097
			c-0.016,0.598,0.553,1.025,1.135,1.055c0.004,0,0.008,0.001,0.012,0.001c0,0.009,0,0.017,0,0.025
			c-0.047,0.831,0.75,1.736,0.75,1.736s-0.006-0.016-0.014-0.041c-0.047-0.138-0.189-0.603-0.171-1.031
			c0.005-0.102,0.015-0.202,0.041-0.295c0.048-0.172,0.106-0.329,0.161-0.462c0.001-0.001,0.001-0.001,0.001-0.001
			c0.001,0.001,0.001,0.001,0.002,0.001c0.098,0.088,0.199,0.158,0.304,0.216c1.02,0.56,2.326-0.169,2.663-0.543
			c0.501-0.555,0.656-1.24,0.688-1.789c0.001-0.021,0.001-0.041,0.002-0.063c0.099,0.206,0.184,0.493,0.22,0.898
			c0,0,0.345-0.493,0.282-1.036c-0.031-0.269-0.154-0.544-0.377-0.642c-0.002-0.001-0.003-0.001-0.004-0.001
			c0.25-0.095,0.496-0.173,0.73-0.225c-0.029-0.007-0.059-0.01-0.088-0.017C33.446,23.361,31.794,24.99,31.274,25.588z
			 M33.983,25.184c0.027,0.492-0.074,1.075-0.47,1.369c-0.883,0.656-1.747,0.271-2.057,0.09l0.001-0.001
			c0.054-0.081,0.119-0.167,0.192-0.253c0.301-0.362,0.753-0.764,1.28-1.141c0.301-0.215,0.625-0.423,0.957-0.61
			c0.029,0.087,0.054,0.188,0.07,0.303C33.97,25.018,33.978,25.099,33.983,25.184z"/>
		<path fill="#463014" d="M30.262,38.7L30.262,38.7c0.146,0.154,0.358,0.242,0.598,0.242c0.233,0,0.471-0.086,0.637-0.229
			c0.127-0.109,0.554-0.502,0.742-0.982c0.023-0.061,0.033-0.113,0.038-0.164c0.009-0.105-0.017-0.193-0.086-0.264
			s-0.216-0.156-0.513-0.156h-0.211c-0.251,0-0.674,0-1.035,0h-0.348c-0.226,0-0.387,0.049-0.479,0.145
			c-0.074,0.076-0.085,0.164-0.077,0.24c0.006,0.045,0.016,0.09,0.029,0.119C29.614,37.796,29.856,38.264,30.262,38.7z"/>
		<path fill="#463014" d="M36.863,31.665c-0.005,0.033-0.015,0.063-0.02,0.094c-0.001,0.002-0.002,0.004-0.002,0.008
			c-0.155,0.926-0.708,1.746-1.312,2.264c-0.164-1.23-0.199-3.002-0.199-3.375c0-0.795,0.514-1.328,0.66-1.412
			c0.137-0.078,0.291-0.16,0.451-0.246c0.975-0.523,2.188-1.172,2.188-2.37c0-0.875-0.502-1.255-0.836-1.507
			c-0.041-0.031-0.08-0.061-0.116-0.089c-0.112-0.092-0.202-0.163-0.234-0.237c-0.235-0.529-0.192-1.854-0.091-2.036
			c0.031-0.035,0.906-1.134,0.638-2.121c-0.11-0.402-0.374-0.721-0.765-0.921c-0.287-0.146-0.645-0.225-1.059-0.24
			c-0.004-0.108-0.026-0.216-0.049-0.321c-0.031-0.142-0.063-0.287-0.05-0.438c0.022-0.252,0.042-0.489,0.117-0.609
			c0.458-0.722,1.563-0.953,1.573-0.955l0.664-0.13l-0.439-0.515c-0.008-0.01-0.937-0.947-2.508-0.947
			c-0.429,0-0.867,0.072-1.305,0.213c-1.315,0.425-2.326,1.658-2.675,2.13c-0.169-0.052-0.339-0.1-0.513-0.144
			c-0.231-0.855,0.48-2.088,0.48-2.088s-0.734-0.163-1.822,0.825c-0.142-0.352-0.438-1.111-0.096-2.017
			c-1.596,0.563-2,1.424-2.119,2.203c-0.41-0.293-0.364-1.249-0.388-1.493c-0.408,0.049-1.578,1.186-1.525,2.617
			c-0.107,0.029-0.212,0.063-0.316,0.096c-0.349-0.472-1.359-1.706-2.676-2.13c-0.438-0.141-0.876-0.213-1.305-0.213
			c-1.571,0-2.499,0.937-2.507,0.946l-0.44,0.515l0.664,0.131c0.011,0.002,1.116,0.233,1.573,0.955
			c0.075,0.119,0.096,0.357,0.117,0.609c0.013,0.149-0.02,0.296-0.05,0.437c-0.022,0.106-0.045,0.214-0.05,0.322
			c-0.412,0.016-0.771,0.094-1.058,0.24c-0.391,0.2-0.654,0.519-0.765,0.921c-0.269,0.987,0.607,2.086,0.638,2.121
			c0.102,0.182,0.145,1.507-0.091,2.036c-0.032,0.074-0.122,0.146-0.234,0.237c-0.035,0.028-0.074,0.058-0.116,0.089
			c-0.333,0.252-0.837,0.632-0.837,1.507c0,1.197,1.214,1.847,2.189,2.37c0.16,0.086,0.313,0.168,0.451,0.246
			c0.146,0.084,0.659,0.617,0.66,1.412c0,0.373-0.035,2.145-0.2,3.375c-0.604-0.518-1.156-1.338-1.312-2.264
			c0-0.004-0.001-0.006-0.002-0.008c-0.005-0.031-0.015-0.061-0.02-0.094c0,0-1.583,1.223-1.118,3.838
			c0.284,1.598,1.256,2.492,2.545,2.961c0.474,1.033,1.588,2.473,3.642,2.686c0.782,0.643,1.864,1.061,3.445,1.063l0,0
			c0.001,0,0.002,0,0.004,0c0.001,0,0.002,0,0.004,0l0,0c1.58-0.002,2.662-0.42,3.443-1.063c2.055-0.213,3.168-1.652,3.643-2.686
			c1.289-0.469,2.26-1.363,2.545-2.961C38.446,32.887,36.863,31.665,36.863,31.665z M32.71,40.128
			c0.263-0.393,0.479-0.816,0.666-1.252c0.344-0.027,0.681-0.066,1.006-0.127C34.031,39.264,33.491,39.809,32.71,40.128z
			 M28.351,41.462c-0.001,0-0.003,0-0.005,0c-0.003,0-0.004,0-0.006,0c-2.454-0.006-3.608-1.396-4.183-2.523
			c-0.192-0.377-0.32-0.725-0.409-0.982c-0.198-0.568-0.183-0.988,0.046-1.248c0.156-0.18,0.516-0.393,1.334-0.393h0.855
			c0.632,0,1.424-0.002,2.362-0.002c0.938,0,1.73,0.002,2.361,0.002h0.855c0.818,0,1.178,0.213,1.334,0.393
			c0.229,0.26,0.244,0.68,0.047,1.248c-0.09,0.258-0.219,0.605-0.41,0.982C31.959,40.067,30.805,41.456,28.351,41.462z
			 M19.393,25.741c0.03-0.024,0.061-0.05,0.091-0.074l0.026-0.021c0.039-0.031,0.079-0.063,0.118-0.098
			c-0.05,0.391-0.103,0.723-0.146,0.808c0,0,0.019-0.025,0.046-0.063c0.147-0.21,0.642-0.994,0.807-2.339
			c0.03-0.25,0.026-0.596-0.003-0.952c-0.043-0.536-0.144-1.095-0.274-1.379c0.009,0.264,0,0.528-0.018,0.779
			c-0.021-0.045-0.044-0.086-0.069-0.118c-0.175-0.217-0.642-0.948-0.507-1.439c0.051-0.188,0.169-0.326,0.361-0.426
			c0.203-0.104,0.479-0.156,0.816-0.156c0.665,0,1.402,0.202,1.782,0.323c1.359,0.431,3,1.673,3.471,2.043
			c0.013,0.01,0.021,0.016,0.022,0.018l0.3,0.209L26.03,22.54c-0.004-0.006-0.135-0.221-0.382-0.529
			c-0.454-0.568-1.304-1.458-2.498-1.988c0.108-0.156,0.396-0.44,1.17-0.817c0.107-0.053,0.219-0.1,0.33-0.148
			c1.086-0.467,2.326-0.705,3.695-0.706c1.37,0.001,2.61,0.24,3.696,0.707c0.111,0.048,0.223,0.095,0.329,0.147
			c0.774,0.378,1.063,0.662,1.169,0.817c-1.193,0.531-2.042,1.42-2.496,1.988c-0.246,0.309-0.378,0.523-0.383,0.529l-0.188,0.315
			l0.301-0.209c0.002-0.002,0.01-0.008,0.023-0.018c0.471-0.37,2.11-1.612,3.47-2.043c0.38-0.121,1.118-0.323,1.782-0.323
			c0.338,0,0.613,0.053,0.816,0.156c0.192,0.1,0.311,0.238,0.361,0.426c0.135,0.491-0.332,1.223-0.506,1.439
			c-0.025,0.033-0.049,0.073-0.07,0.118c-0.018-0.251-0.027-0.515-0.018-0.779c-0.131,0.285-0.231,0.845-0.274,1.381
			c-0.028,0.355-0.032,0.701-0.003,0.95c0.166,1.346,0.66,2.13,0.807,2.339c0.026,0.037,0.045,0.063,0.045,0.063
			c-0.042-0.085-0.095-0.417-0.145-0.809c0.039,0.034,0.08,0.067,0.117,0.099l0.027,0.021c0.031,0.024,0.062,0.05,0.092,0.075
			c0.21,0.177,0.389,0.387,0.389,0.912c0,0.769-0.832,1.219-1.637,1.653c-0.154,0.083-0.309,0.167-0.455,0.251
			c-0.471,0.271-0.977,0.907-1.033,1.852c-0.012,0.195-0.015,0.459-0.011,0.764c0.009,0.689,0.055,1.596,0.118,2.451
			c0.023,0.309,0.051,0.611,0.078,0.893c-0.174,0.068-0.353,0.123-0.535,0.17c-0.258,0.064-0.522,0.107-0.786,0.139
			c-0.28,0.033-0.56,0.053-0.829,0.059c-0.109-0.223-0.213-0.461-0.297-0.711c-0.029-0.082-0.65-1.697-1.1-2.703
			c-0.13-0.289-0.246-0.531-0.33-0.668c0.297,2.115,0.951,3.996,1.275,4.857c-0.189-0.025-0.396-0.045-0.636-0.045l-3.161-0.002
			h-0.008c-0.911,0.002-3.162,0.002-3.162,0.002c-0.24,0-0.446,0.02-0.636,0.045c0.324-0.861,0.979-2.742,1.274-4.857
			c-0.082,0.135-0.198,0.377-0.328,0.668c-0.45,1.006-1.072,2.621-1.101,2.703c-0.085,0.25-0.188,0.488-0.298,0.711
			c-0.269-0.006-0.548-0.025-0.828-0.059c-0.264-0.031-0.528-0.074-0.785-0.139c-0.183-0.047-0.362-0.102-0.535-0.17
			c0.026-0.281,0.053-0.584,0.076-0.895c0.02-0.256,0.037-0.516,0.053-0.773c0.032-0.549,0.056-1.086,0.064-1.541
			c0.001-0.047,0.001-0.092,0.002-0.135c0.004-0.305,0.001-0.568-0.011-0.764c-0.057-0.945-0.563-1.582-1.032-1.852
			c-0.147-0.084-0.302-0.168-0.456-0.251c-0.805-0.435-1.637-0.885-1.637-1.653C19.004,26.129,19.182,25.919,19.393,25.741z
			 M21.652,19.57c-0.182-0.24-0.212-0.571-0.24-0.92c-0.028-0.335-0.058-0.682-0.237-0.966c-0.04-0.063-0.09-0.114-0.135-0.172
			c0.406,0.015,0.766,0.138,1.065,0.377c0.283,0.225,0.475,0.563,0.597,0.844c0.029,0.068,0.056,0.135,0.077,0.194
			c0.026,0.074,0.046,0.134,0.061,0.184c-0.264,0.225-0.447,0.434-0.569,0.603C22.087,19.662,21.877,19.613,21.652,19.57z
			 M22.473,17.374c-0.45-0.316-0.988-0.483-1.558-0.483c-0.202,0-0.374,0.021-0.506,0.045c-0.176-0.116-0.353-0.217-0.517-0.291
			c0.257-0.109,0.741-0.272,1.337-0.272c0.329,0,0.651,0.051,0.957,0.149c0.969,0.313,1.716,1.259,2.046,1.744
			c-0.087,0.039-0.175,0.075-0.26,0.116c-0.136,0.067-0.263,0.135-0.382,0.203C23.45,18.29,23.141,17.844,22.473,17.374z
			 M34.421,19.713c-0.121-0.169-0.305-0.377-0.568-0.602c0.016-0.051,0.034-0.11,0.062-0.185c0.021-0.059,0.046-0.121,0.074-0.188
			c0.122-0.282,0.313-0.623,0.599-0.85c0.301-0.239,0.66-0.363,1.066-0.377c-0.045,0.058-0.095,0.109-0.135,0.173
			c-0.18,0.283-0.209,0.63-0.238,0.965c-0.029,0.349-0.059,0.68-0.24,0.92C34.815,19.612,34.605,19.662,34.421,19.713z
			 M36.282,16.936c-0.131-0.023-0.305-0.045-0.506-0.045c-0.569,0-1.107,0.167-1.557,0.483c-0.668,0.47-0.977,0.916-1.119,1.211
			c-0.119-0.068-0.246-0.136-0.383-0.203c-0.084-0.04-0.172-0.077-0.258-0.116c0.33-0.484,1.076-1.432,2.045-1.744
			c0.307-0.099,0.627-0.148,0.957-0.148c0.597,0,1.08,0.162,1.337,0.271C36.635,16.719,36.458,16.82,36.282,16.936z M37.035,33.274
			c0.01-0.025,0.021-0.049,0.03-0.078c0.271,0.271,0.455,2.119-0.202,3.201c-0.294,0.484-0.722,0.85-1.211,1.113
			c-0.204,0.109-0.417,0.201-0.64,0.273c-0.053,0.018-0.105,0.041-0.161,0.057c-0.175,0.049-0.352,0.086-0.53,0.113
			c-0.202,0.031-0.405,0.045-0.607,0.047c0.033-0.1,0.061-0.197,0.082-0.291c0.051-0.227,0.07-0.439,0.051-0.633
			c-0.03-0.309-0.147-0.574-0.354-0.797c-0.021-0.023-0.047-0.047-0.071-0.07c-0.101-0.131-0.237-0.32-0.386-0.553
			c0.727-0.031,1.571-0.178,2.314-0.541C36.091,34.753,36.725,34.173,37.035,33.274z M21.607,35.237
			c0.674,0.275,1.407,0.393,2.049,0.42c-0.149,0.234-0.286,0.424-0.387,0.555c-0.024,0.021-0.049,0.045-0.07,0.068
			c-0.206,0.223-0.323,0.488-0.354,0.797c-0.02,0.193,0,0.406,0.051,0.633c0.021,0.094,0.049,0.191,0.082,0.291
			c-0.202-0.002-0.405-0.016-0.607-0.047c-0.179-0.027-0.356-0.064-0.531-0.113c-0.013-0.004-0.025-0.01-0.038-0.014
			c-0.266-0.078-0.521-0.186-0.762-0.316c-0.489-0.264-0.916-0.629-1.211-1.113c-0.657-1.082-0.473-2.93-0.202-3.201
			c0.008,0.027,0.021,0.051,0.029,0.078C20.003,34.278,20.756,34.887,21.607,35.237z M23.316,38.876
			c0.187,0.436,0.403,0.859,0.667,1.252c-0.782-0.318-1.323-0.863-1.674-1.381C22.635,38.809,22.972,38.848,23.316,38.876z"/>
	</g>
</g>
</svg>
