<?xml version="1.0" encoding="utf-8"?>
<!-- Generator: Adobe Illustrator 16.0.0, SVG Export Plug-In . SVG Version: 6.00 Build 0)  -->
<!DOCTYPE svg PUBLIC "-//W3C//DTD SVG 1.1//EN" "http://www.w3.org/Graphics/SVG/1.1/DTD/svg11.dtd">
<svg version="1.1" id="Calque_1" xmlns="http://www.w3.org/2000/svg" xmlns:xlink="http://www.w3.org/1999/xlink" x="0px" y="0px"
	 width="56.693px" height="56.693px" viewBox="0 0 56.693 56.693" enable-background="new 0 0 56.693 56.693" xml:space="preserve">
<g>
	<g>
		<g>
			<polygon fill="#FCCC5A" points="11.854,50.351 8.673,12.646 48.02,12.646 44.84,50.351 28.349,54.878 			"/>
			<g>
				<path fill="#D9A730" d="M46.116,14.396l-2.917,34.59l-14.851,4.077l-14.854-4.077l-2.918-34.59H46.116 M49.924,10.896H6.77
					l3.442,40.818l18.137,4.979l18.133-4.979L49.924,10.896L49.924,10.896z"/>
			</g>
		</g>
		<polygon fill="none" points="28.349,56.693 10.213,51.715 6.77,10.896 28.349,10.896 		"/>
	</g>
	<g>
		<g>
			<g>
				<polygon fill="#FFFEFD" points="27.268,47.806 17.496,45.42 17.496,40.618 22.234,41.775 22.234,18.292 27.268,18.292 				"/>
			</g>
		</g>
		<g>
			<g>
				<polygon fill="#FFFEFD" points="29.621,47.799 29.621,42.941 34.605,41.515 35.536,33.862 29.621,33.862 29.621,18.371 
					42.488,18.371 41.913,23.014 34.658,23.014 34.658,29.222 41.17,29.222 39.245,45.046 				"/>
			</g>
		</g>
	</g>
</g>
<text transform="matrix(1 0 0 1 6.8064 8.7732)" font-family="'MyriadPro-Regular'" font-size="9">JAVASCRIPT</text>
<polyline fill="#3558A8" points="0,57.292 57.346,57.292 57.346,0 0,0 0,57.292 "/>
<path fill="#5DA3C2" d="M35.125,25.552l0.033,0.141c0.008,0.04-0.017,0.073-0.058,0.073"/>
<path fill="#5DA3C2" d="M32.491,25.311c-0.008,0.039-0.018,0.088-0.025,0.121l-0.288,1.377l0.304-1.451L32.491,25.311"/>
<polyline fill="#5DA3C2" points="23.838,26.233 23.678,26.808 23.838,26.233 23.838,26.233 "/>
<path fill="#FFFFFF" d="M42.692,24.595l-0.172-0.741c-0.135-0.537-0.519-0.79-1.384-0.79h-3.634c-0.085,0-0.168,0.038-0.186,0.122
	l-1.379,6.662c-0.018,0.085-0.023,0.144-0.014,0.186s0.171,0.036,0.254,0.036h1.259c0.085,0,0.238,0.005,0.282-0.013
	c0.047-0.02,0.066-0.147,0.084-0.231l0.446-2.335l0.542-2.591c0.018-0.083,0.101-0.152,0.184-0.152l3.601-0.002
	C42.66,24.746,42.713,24.677,42.692,24.595"/>
<path fill="#FFFFFF" d="M47.816,21.894c-0.085,0-1.598,0-1.598,0c-0.083,0-0.191,0.091-0.238,0.162l-2.804,4.201
	c-0.047,0.071-0.102,0.068-0.12-0.015l-0.207-0.92c-0.018-0.084-0.102-0.151-0.186-0.151h-1.803c-0.082,0-0.132,0.07-0.11,0.152
	l0.808,2.883c0.023,0.084,0.026,0.218,0.005,0.3l-0.377,1.461c-0.021,0.083,0.032,0.107,0.116,0.107h1.78
	c0.082,0,0.169-0.024,0.189-0.107l0.377-1.481c0.021-0.083,0.078-0.194,0.129-0.264l4.574-6.18c0.052-0.068,0.044-0.149-0.039-0.149
	L47.816,21.894"/>
<path fill="#FFFFFF" d="M29.059,23.07h-1.627c-0.083,0-0.167,0.03-0.184,0.113l-0.537,2.562l-0.536,2.453
	c-0.016,0.083-0.099,0.078-0.183,0.078h-1.068c-1.057,0-0.935-0.681-0.718-1.701c0.002-0.01,0.678-3.392,0.678-3.392
	c0.014-0.083-0.041-0.113-0.123-0.113h-1.549c-0.084,0-0.167,0.03-0.183,0.113l-0.624,3.389c-0.311,1.833-0.32,3.446,1.766,3.499
	c0.034,0.001,3.292,0,3.292,0c0.084,0,0.167-0.028,0.186-0.111l0.708-3.398l0.704-3.412C29.062,23.148,29.088,23.07,29.059,23.07"/>
<path fill="#FFFFFF" d="M12.865,23.064h-1.743c-0.083,0-0.167,0.02-0.186,0.104l-0.315,1.386c-0.018,0.082,0.036,0.148,0.12,0.148
	h1.669c0.084,0,0.168-0.077,0.186-0.16l0.303-1.397C12.898,23.145,12.923,23.064,12.865,23.064"/>
<path fill="#FFFFFF" d="M10.628,25.17c-0.083,0-0.168,0.067-0.186,0.15l-0.235,1.058L9.683,28.82c0,0-0.279,1.298-0.306,1.379
	c0,0-0.235,0.938-0.796,0.901c-0.261-0.02-0.56-0.079-0.56-0.079H8.02c-0.156-0.049-0.167,0.116-0.187,0.2l-0.346,1.522
	c-0.021,0.082,0.033,0.157,0.116,0.159c0,0,0.751,0.107,1.28,0.107h0.088c1.309,0,2.001-0.784,2.443-2.913l0.518-2.466l0.486-2.292
	c0.018-0.083-0.032-0.161-0.115-0.161"/>
<path fill="#FFFFFF" d="M33.946,25.985c0,0.092-0.287,0.075-0.287,0.075l-2.286-0.018c-0.079,0-0.102-0.113-0.106-0.193
	c0-0.003,0.006-0.097,0.012-0.12c0.177-0.625,0.704-0.981,1.54-0.981c0.94,0,1.141,0.475,1.141,1.002 M33.173,23.053
	c-2.932,0-3.632,1.846-4.021,3.677c-0.389,1.865-0.356,3.34,2.678,3.34h0.11c1.203,0,2.666,0,2.666,0
	c0.082-0.002,0.163-0.078,0.18-0.161l0.3-1.183c0.016-0.084-0.039-0.108-0.122-0.108h-2.729c-0.988,0-1.343-0.311-1.308-1.007
	c-0.001-0.08,0.088-0.281,0.172-0.281h4.203c0.186-0.001,0.19-0.11,0.19-0.11C35.919,25.251,35.948,23.053,33.173,23.053"/>
<path fill="#FFFFFF" d="M18.951,26.898l-0.338,1.177c-0.023,0.082-0.119,0.137-0.202,0.137h-1.743c-1.323,0-1.645-1.042-1.323-2.595
	c0.323-1.588,0.962-2.571,2.263-2.671c1.779-0.136,2.143,1.144,1.711,2.614L18.951,26.898 M20.501,28.145
	c0,0,0.821-2.032,1.007-3.207c0.255-1.572-0.517-3.851-3.501-3.851c-2.967,0-4.254,2.176-4.747,4.542
	c-0.491,2.383,0.151,4.458,3.102,4.441l4.502-0.002c0.083,0,0.17-0.069,0.19-0.15l0.381-1.473c0.02-0.084-0.032-0.151-0.115-0.151
	l-0.362-0.002l-0.363-0.002c-0.072,0-0.112-0.048-0.103-0.11C20.494,28.168,20.496,28.157,20.501,28.145"/>
<g>
	<polyline fill="#FBAB18" points="83.232,39.31 140.41,39.31 140.41,-17.517 83.232,-17.517 83.232,39.31 	"/>
</g>
<path fill="#5DA3C2" d="M32.311,25.837c-0.009,0.037-0.019,0.085-0.025,0.119l-0.29,1.357l0.306-1.431L32.311,25.837"/>
<polyline fill="#5DA3C2" points="23.614,26.746 23.454,27.313 23.614,26.746 23.614,26.746 "/>
<path fill="#5DA3C2" d="M33.98,25.951c-0.008,0.038-0.019,0.087-0.024,0.12l-0.293,1.365l0.308-1.438L33.98,25.951"/>
<g>
	<path fill="#FFFFFF" d="M96.497,0.735v-2.02h4.035v3.502c-0.767,0.574-1.444,0.965-2.034,1.175
		c-0.591,0.208-1.289,0.312-2.099,0.312c-0.996,0-1.809-0.174-2.436-0.516c-0.629-0.345-1.115-0.857-1.46-1.538
		c-0.347-0.68-0.519-1.458-0.519-2.34c0-0.928,0.188-1.733,0.566-2.42s0.932-1.205,1.66-1.562c0.568-0.274,1.334-0.412,2.294-0.412
		c0.927,0,1.62,0.088,2.08,0.262s0.841,0.445,1.146,0.812c0.303,0.369,0.531,0.833,0.683,1.397l-2.612,0.378
		c-0.099-0.269-0.266-0.473-0.503-0.616c-0.237-0.144-0.539-0.214-0.906-0.214c-0.547,0-0.982,0.186-1.308,0.562
		c-0.325,0.375-0.488,0.97-0.488,1.782c0,0.864,0.172,1.48,0.514,1.849c0.342,0.372,0.818,0.556,1.431,0.556
		c0.29,0,0.565-0.031,0.831-0.089c0.264-0.058,0.565-0.159,0.906-0.302V0.735H96.497"/>
	<path fill="#FFFFFF" d="M101.958-2.591h2.21v1.062c0.214-0.448,0.435-0.756,0.663-0.924c0.227-0.171,0.508-0.253,0.844-0.253
		c0.35,0,0.733,0.104,1.15,0.312l-0.736,1.757c-0.281-0.113-0.503-0.171-0.666-0.171c-0.312,0-0.553,0.125-0.725,0.378
		c-0.244,0.351-0.366,1.013-0.366,1.983v2.032h-2.374V-2.591"/>
	<path fill="#FFFFFF" d="M114.007,3.585h-2.217V2.542c-0.329,0.421-0.66,0.717-0.995,0.894c-0.335,0.18-0.746,0.269-1.235,0.269
		c-0.648,0-1.158-0.195-1.527-0.583c-0.37-0.391-0.555-0.985-0.555-1.794v-3.917h2.373V0.75c0,0.381,0.072,0.653,0.215,0.812
		c0.144,0.161,0.344,0.24,0.604,0.24c0.281,0,0.513-0.106,0.692-0.32c0.18-0.213,0.271-0.595,0.271-1.147v-2.923h2.373
		L114.007,3.585"/>
	<path fill="#FFFFFF" d="M115.43-2.591h2.212v1.046c0.328-0.418,0.661-0.717,0.997-0.894c0.337-0.18,0.748-0.269,1.232-0.269
		c0.652,0,1.164,0.192,1.534,0.58c0.369,0.391,0.554,0.989,0.554,1.8v3.912h-2.374V0.241c0-0.385-0.071-0.653-0.214-0.812
		c-0.144-0.159-0.344-0.238-0.604-0.238c-0.285,0-0.518,0.107-0.696,0.32c-0.178,0.213-0.267,0.598-0.267,1.15v2.923h-2.375V-2.591"
		/>
	<path fill="#FFFFFF" d="M126.234-4.965v2.374h1.305v1.782h-1.305v2.233c0,0.269,0.025,0.445,0.078,0.534
		c0.079,0.134,0.218,0.201,0.417,0.201c0.179,0,0.43-0.052,0.752-0.155l0.177,1.522c-0.59,0.115-1.143,0.177-1.656,0.177
		c-0.595,0-1.033-0.076-1.314-0.223c-0.282-0.149-0.49-0.375-0.626-0.681c-0.135-0.302-0.202-0.793-0.202-1.471v-2.139h-0.83v-1.782
		h0.83v-1.145L126.234-4.965"/>
	<polyline fill="#5DA3C2" points="106.931,-0.885 106.77,-0.315 106.931,-0.885 106.931,-0.885 	"/>
</g>
<g>
	<polyline fill="#9C57A3" points="81.375,39.343 138.268,39.343 138.268,-17.551 81.375,-17.551 81.375,39.343 	"/>
	<path fill="#FFFFFF" d="M93.533,15.313v-2.312c0.43,0.355,0.896,0.621,1.397,0.799c0.502,0.177,1.01,0.267,1.521,0.267
		c0.301,0,0.563-0.03,0.787-0.087c0.225-0.057,0.412-0.136,0.563-0.236c0.15-0.1,0.262-0.219,0.336-0.355
		c0.074-0.136,0.11-0.283,0.11-0.443c0-0.206-0.058-0.391-0.176-0.552c-0.117-0.163-0.277-0.313-0.479-0.451
		c-0.203-0.138-0.443-0.271-0.721-0.399c-0.279-0.128-0.579-0.259-0.9-0.393c-0.82-0.344-1.432-0.764-1.834-1.261
		c-0.402-0.498-0.604-1.098-0.604-1.801c0-0.552,0.111-1.025,0.334-1.421c0.222-0.396,0.525-0.722,0.91-0.979
		c0.384-0.257,0.828-0.446,1.334-0.566c0.506-0.121,1.04-0.181,1.605-0.181c0.555,0,1.047,0.033,1.475,0.099
		c0.43,0.065,0.824,0.167,1.186,0.303v2.184c-0.176-0.126-0.367-0.238-0.576-0.334c-0.207-0.097-0.421-0.177-0.641-0.241
		c-0.221-0.063-0.439-0.109-0.656-0.14c-0.217-0.03-0.424-0.045-0.62-0.045c-0.269,0-0.512,0.027-0.732,0.081
		c-0.22,0.053-0.405,0.129-0.558,0.228c-0.15,0.098-0.268,0.215-0.352,0.353c-0.082,0.137-0.124,0.29-0.124,0.459
		c0,0.178,0.046,0.336,0.139,0.477c0.093,0.141,0.226,0.273,0.396,0.398c0.172,0.125,0.379,0.248,0.623,0.369
		c0.244,0.122,0.52,0.245,0.827,0.373c0.419,0.177,0.797,0.366,1.131,0.565s0.621,0.425,0.86,0.676
		c0.239,0.251,0.422,0.539,0.549,0.86c0.127,0.323,0.189,0.698,0.189,1.126c0,0.591-0.113,1.086-0.34,1.488
		c-0.227,0.4-0.533,0.726-0.922,0.974c-0.388,0.249-0.839,0.428-1.354,0.536c-0.516,0.108-1.059,0.163-1.631,0.163
		c-0.588,0-1.146-0.049-1.676-0.146C94.381,15.65,93.922,15.506,93.533,15.313"/>
	<path fill="#FFFFFF" d="M107.877,11.482l-1.15-3.58c-0.085-0.267-0.144-0.586-0.176-0.957h-0.062
		c-0.021,0.313-0.085,0.621-0.193,0.924l-1.154,3.611h2.735 M111.821,15.739h-2.628l-0.677-2.129h-3.969l-0.683,2.129h-2.613
		l3.899-10.646h2.86L111.821,15.739z"/>
	<path fill="#FFFFFF" d="M112.696,15.313v-2.312c0.429,0.355,0.895,0.621,1.397,0.799c0.502,0.177,1.009,0.267,1.521,0.267
		c0.301,0,0.563-0.03,0.788-0.087c0.224-0.057,0.411-0.136,0.563-0.236c0.149-0.1,0.262-0.219,0.335-0.355
		c0.074-0.136,0.11-0.283,0.11-0.443c0-0.206-0.059-0.391-0.176-0.552c-0.116-0.163-0.276-0.313-0.48-0.451
		c-0.201-0.138-0.442-0.271-0.721-0.399c-0.277-0.128-0.577-0.259-0.899-0.393c-0.82-0.344-1.432-0.764-1.834-1.261
		c-0.402-0.498-0.604-1.098-0.604-1.801c0-0.552,0.111-1.025,0.334-1.421c0.223-0.396,0.525-0.722,0.91-0.979
		c0.383-0.257,0.829-0.446,1.334-0.566c0.506-0.121,1.04-0.181,1.606-0.181c0.555,0,1.047,0.033,1.475,0.099
		c0.428,0.065,0.823,0.167,1.185,0.303v2.184c-0.177-0.126-0.368-0.238-0.576-0.334c-0.207-0.097-0.42-0.177-0.641-0.241
		c-0.22-0.063-0.438-0.109-0.656-0.14c-0.217-0.03-0.423-0.045-0.62-0.045c-0.268,0-0.512,0.027-0.732,0.081
		c-0.22,0.053-0.405,0.129-0.557,0.228c-0.151,0.098-0.269,0.215-0.352,0.353c-0.083,0.137-0.125,0.29-0.125,0.459
		c0,0.178,0.048,0.336,0.14,0.477c0.093,0.141,0.225,0.273,0.396,0.398c0.17,0.125,0.379,0.248,0.622,0.369
		c0.244,0.122,0.52,0.245,0.827,0.373c0.42,0.177,0.797,0.366,1.131,0.565s0.621,0.425,0.86,0.676
		c0.239,0.251,0.422,0.539,0.549,0.86c0.127,0.323,0.19,0.698,0.19,1.126c0,0.591-0.113,1.086-0.34,1.488
		c-0.227,0.4-0.534,0.726-0.921,0.974c-0.39,0.249-0.842,0.428-1.355,0.536c-0.515,0.108-1.059,0.163-1.631,0.163
		c-0.587,0-1.146-0.049-1.676-0.146S113.085,15.506,112.696,15.313"/>
	<path fill="#FFFFFF" d="M121.213,15.313v-2.312c0.429,0.355,0.895,0.621,1.397,0.799c0.502,0.177,1.009,0.267,1.521,0.267
		c0.302,0,0.563-0.03,0.788-0.087c0.224-0.057,0.411-0.136,0.562-0.236c0.15-0.1,0.263-0.219,0.336-0.355
		c0.074-0.136,0.11-0.283,0.11-0.443c0-0.206-0.058-0.391-0.175-0.552c-0.118-0.163-0.278-0.313-0.479-0.451
		c-0.204-0.138-0.444-0.271-0.722-0.399c-0.278-0.128-0.578-0.259-0.899-0.393c-0.82-0.344-1.433-0.764-1.835-1.261
		c-0.402-0.498-0.604-1.098-0.604-1.801c0-0.552,0.111-1.025,0.333-1.421c0.224-0.396,0.526-0.722,0.911-0.979
		c0.385-0.257,0.828-0.446,1.335-0.566c0.505-0.121,1.041-0.181,1.605-0.181c0.554,0,1.046,0.033,1.475,0.099
		c0.428,0.065,0.823,0.167,1.184,0.303v2.184c-0.175-0.126-0.366-0.238-0.573-0.334c-0.209-0.097-0.423-0.177-0.642-0.241
		c-0.221-0.063-0.439-0.109-0.656-0.14c-0.218-0.03-0.425-0.045-0.62-0.045c-0.269,0-0.512,0.027-0.732,0.081
		c-0.22,0.053-0.405,0.129-0.557,0.228c-0.151,0.098-0.269,0.215-0.353,0.353c-0.083,0.137-0.125,0.29-0.125,0.459
		c0,0.178,0.047,0.336,0.139,0.477c0.093,0.141,0.226,0.273,0.396,0.398c0.173,0.125,0.379,0.248,0.623,0.369
		c0.243,0.122,0.52,0.245,0.827,0.373c0.419,0.177,0.798,0.366,1.131,0.565c0.335,0.2,0.621,0.425,0.861,0.676
		c0.238,0.251,0.422,0.539,0.549,0.86c0.126,0.323,0.189,0.698,0.189,1.126c0,0.591-0.113,1.086-0.339,1.488
		c-0.228,0.4-0.534,0.726-0.923,0.974c-0.388,0.249-0.839,0.428-1.354,0.536c-0.515,0.108-1.058,0.163-1.63,0.163
		c-0.588,0-1.146-0.049-1.678-0.146C122.059,15.65,121.6,15.506,121.213,15.313"/>
</g>
<g>
	
		<linearGradient id="bottom_1_" gradientUnits="userSpaceOnUse" x1="293.4714" y1="558.6003" x2="293.4714" y2="611.3282" gradientTransform="matrix(1 0 0 1 -187.5996 -549.9902)">
		<stop  offset="0" style="stop-color:#002E3B"/>
		<stop  offset="1" style="stop-color:#002639"/>
	</linearGradient>
	
		<linearGradient id="bottom_2_" gradientUnits="userSpaceOnUse" x1="293.4695" y1="555.1355" x2="293.4695" y2="611.7288" gradientTransform="matrix(1 0 0 1 -187.5996 -549.9902)">
		<stop  offset="0" style="stop-color:#002E3B"/>
		<stop  offset="1" style="stop-color:#002639"/>
	</linearGradient>
	<polygon id="bottom" fill="url(#bottom_1_)" stroke="url(#bottom_2_)" points="105.852,53.793 98.198,50.06 98.206,50.056 
		98.204,50.054 90.071,54.021 105.858,61.722 121.671,54.039 113.509,49.996 	"/>
	
		<radialGradient id="right_2_" cx="230.2976" cy="-182.3992" r="46.9281" gradientTransform="matrix(1 0 0 -1 -137.6001 -123.2974)" gradientUnits="userSpaceOnUse">
		<stop  offset="0" style="stop-color:#00BC85"/>
		<stop  offset="1" style="stop-color:#149D91"/>
	</radialGradient>
	
		<radialGradient id="right_3_" cx="230.1189" cy="-183.4626" r="50.917" gradientTransform="matrix(1 0 0 -1 -137.6001 -123.2974)" gradientUnits="userSpaceOnUse">
		<stop  offset="0" style="stop-color:#00BC85"/>
		<stop  offset="1" style="stop-color:#149D91"/>
	</radialGradient>
	<polygon id="right_1_" fill="url(#right_2_)" stroke="url(#right_3_)" points="90.091,54.049 90.091,46.113 97.917,42.297 
		105.968,46.267 	"/>
	
		<radialGradient id="right-2_1_" cx="295.9958" cy="556.0583" r="56.6996" gradientTransform="matrix(1 0 0 1 -187.5996 -549.9902)" gradientUnits="userSpaceOnUse">
		<stop  offset="0" style="stop-color:#00BC85"/>
		<stop  offset="1" style="stop-color:#149D91"/>
	</radialGradient>
	
		<radialGradient id="right-2_2_" cx="295.3318" cy="554.8708" r="59.4765" gradientTransform="matrix(1 0 0 1 -187.5996 -549.9902)" gradientUnits="userSpaceOnUse">
		<stop  offset="0" style="stop-color:#00BC85"/>
		<stop  offset="1" style="stop-color:#149D91"/>
	</radialGradient>
	<polygon id="right-2" fill="url(#right-2_1_)" stroke="url(#right-2_2_)" points="114.538,21.392 114.538,33.938 114.538,33.938 
		114.538,33.938 105.788,38.205 113.835,42.213 121.67,38.395 121.67,16.936 	"/>
	
		<radialGradient id="left_2_" cx="281.3132" cy="551.9041" r="108.3725" gradientTransform="matrix(1 0 0 1 -187.5996 -549.9902)" gradientUnits="userSpaceOnUse">
		<stop  offset="0" style="stop-color:#004473"/>
		<stop  offset="1" style="stop-color:#00345F"/>
	</radialGradient>
	
		<radialGradient id="left_3_" cx="281.0125" cy="550.6628" r="111.9892" gradientTransform="matrix(1 0 0 1 -187.5996 -549.9902)" gradientUnits="userSpaceOnUse">
		<stop  offset="0" style="stop-color:#004473"/>
		<stop  offset="1" style="stop-color:#00345F"/>
	</radialGradient>
	<polygon id="left_1_" fill="url(#left_2_)" stroke="url(#left_3_)" points="121.671,54.041 121.671,54.041 121.671,46.107 
		97.223,33.931 97.223,21.385 90.092,16.928 90.092,38.388 	"/>
	
		<linearGradient id="top_1_" gradientUnits="userSpaceOnUse" x1="293.4548" y1="558.8689" x2="293.4548" y2="611.3307" gradientTransform="matrix(1 0 0 1 -187.5996 -549.9902)">
		<stop  offset="0" style="stop-color:#002E3B"/>
		<stop  offset="1" style="stop-color:#002639"/>
	</linearGradient>
	
		<linearGradient id="top_2_" gradientUnits="userSpaceOnUse" x1="293.7195" y1="558.4148" x2="293.7195" y2="614.7219" gradientTransform="matrix(1 0 0 1 -187.5996 -549.9902)">
		<stop  offset="0" style="stop-color:#002E3B"/>
		<stop  offset="1" style="stop-color:#002639"/>
	</linearGradient>
	<polygon id="top" fill="url(#top_1_)" stroke="url(#top_2_)" points="97.202,21.373 97.202,21.37 105.858,17.148 114.514,21.37 
		121.637,16.919 105.852,9.22 90.071,16.917 90.071,16.924 97.196,21.376 	"/>
</g>
</svg>
