<?xml version="1.0" encoding="utf-8"?>
<!-- Generator: Adobe Illustrator 16.0.0, SVG Export Plug-In . SVG Version: 6.00 Build 0)  -->
<!DOCTYPE svg PUBLIC "-//W3C//DTD SVG 1.1//EN" "http://www.w3.org/Graphics/SVG/1.1/DTD/svg11.dtd">
<svg version="1.1" id="Calque_1" xmlns="http://www.w3.org/2000/svg" xmlns:xlink="http://www.w3.org/1999/xlink" x="0px" y="0px"
	 width="56.693px" height="56.693px" viewBox="0 0 56.693 56.693" enable-background="new 0 0 56.693 56.693" xml:space="preserve">
<g>
	<polyline fill="#3558A8" points="-268.969,-261.973 -212.73,-261.973 -212.73,-319.265 -268.969,-319.265 -268.969,-261.973 	"/>
	<path fill="#FFFFFF" d="M-226.277-294.67l-0.172-0.74c-0.135-0.537-0.519-0.79-1.384-0.79h-3.634c-0.085,0-0.168,0.038-0.186,0.122
		l-1.379,6.662c-0.018,0.085-0.023,0.144-0.014,0.186s0.171,0.036,0.254,0.036h1.259c0.085,0,0.238,0.005,0.282-0.013
		c0.047-0.02,0.066-0.147,0.084-0.231l0.446-2.335l0.542-2.592c0.018-0.083,0.101-0.151,0.184-0.151l3.601-0.002
		C-226.309-294.519-226.256-294.587-226.277-294.67"/>
	<path fill="#FFFFFF" d="M-221.153-297.37c-0.085,0.001-1.598,0-1.598,0c-0.083,0-0.191,0.091-0.238,0.161l-2.804,4.201
		c-0.047,0.07-0.102,0.068-0.12-0.016l-0.207-0.92c-0.018-0.084-0.102-0.15-0.186-0.15h-1.803c-0.082,0-0.132,0.069-0.11,0.152
		l0.808,2.883c0.023,0.084,0.026,0.219,0.005,0.301l-0.377,1.461c-0.021,0.083,0.032,0.107,0.116,0.107h1.78
		c0.082,0,0.169-0.024,0.189-0.107l0.377-1.481c0.021-0.083,0.078-0.194,0.129-0.264l4.574-6.181
		c0.052-0.067,0.044-0.148-0.039-0.148L-221.153-297.37"/>
	<path fill="#FFFFFF" d="M-239.909-296.196h-1.627c-0.082,0-0.168,0.031-0.184,0.113l-0.537,2.563l-0.536,2.452
		c-0.017,0.083-0.099,0.078-0.183,0.078h-1.068c-1.058,0-0.936-0.681-0.719-1.7c0.002-0.01,0.679-3.393,0.679-3.393
		c0.015-0.082-0.04-0.113-0.123-0.113h-1.549c-0.084,0-0.167,0.031-0.183,0.113l-0.624,3.389c-0.311,1.833-0.32,3.446,1.767,3.499
		c0.033,0.001,3.292,0,3.292,0c0.085,0,0.167-0.028,0.186-0.111l0.708-3.398l0.704-3.411
		C-239.906-296.116-239.881-296.196-239.909-296.196"/>
	<path fill="#FFFFFF" d="M-256.104-296.2h-1.743c-0.084,0-0.168,0.021-0.186,0.104l-0.315,1.385
		c-0.019,0.082,0.036,0.148,0.12,0.148h1.669c0.085,0,0.168-0.077,0.186-0.16l0.303-1.396
		C-256.071-296.119-256.046-296.2-256.104-296.2"/>
	<path fill="#FFFFFF" d="M-258.341-294.094c-0.083,0-0.168,0.066-0.186,0.15l-0.235,1.057l-0.524,2.441c0,0-0.279,1.299-0.306,1.38
		c0,0-0.235,0.938-0.796,0.901c-0.261-0.02-0.56-0.079-0.56-0.079h-0.001c-0.156-0.049-0.168,0.116-0.187,0.2l-0.347,1.522
		c-0.02,0.082,0.033,0.157,0.116,0.159c0,0,0.751,0.107,1.28,0.107h0.088c1.309,0,2.001-0.784,2.443-2.913l0.518-2.466l0.486-2.293
		c0.018-0.082-0.032-0.16-0.115-0.16"/>
	<path fill="#FFFFFF" d="M-235.023-293.28c0,0.092-0.287,0.075-0.287,0.075l-2.286-0.018c-0.079,0-0.102-0.112-0.106-0.192
		c0-0.004,0.006-0.098,0.012-0.121c0.177-0.625,0.704-0.98,1.54-0.98c0.94,0,1.141,0.475,1.141,1.002 M-235.796-296.211
		c-2.932,0-3.632,1.846-4.021,3.677c-0.389,1.865-0.355,3.34,2.678,3.34h0.11c1.203,0,2.666,0,2.666,0
		c0.082-0.002,0.163-0.078,0.18-0.161l0.3-1.184c0.016-0.084-0.039-0.107-0.122-0.107h-2.729c-0.988,0-1.343-0.312-1.308-1.008
		c-0.001-0.079,0.088-0.281,0.172-0.281h4.203c0.186-0.001,0.19-0.109,0.19-0.109C-233.05-294.014-233.021-296.211-235.796-296.211"
		/>
	<path fill="#FFFFFF" d="M-250.017-292.366l-0.338,1.177c-0.023,0.082-0.119,0.137-0.203,0.137h-1.742
		c-1.322,0-1.645-1.041-1.322-2.595c0.322-1.589,0.962-2.571,2.262-2.671c1.779-0.137,2.144,1.143,1.712,2.613L-250.017-292.366
		 M-248.468-291.119c0,0,0.821-2.033,1.008-3.207c0.255-1.572-0.518-3.852-3.501-3.852c-2.967,0-4.255,2.176-4.747,4.543
		c-0.49,2.383,0.151,4.457,3.102,4.44l4.503-0.002c0.083,0,0.17-0.069,0.19-0.15l0.381-1.473c0.02-0.084-0.031-0.151-0.115-0.151
		l-0.362-0.002l-0.362-0.002c-0.072,0-0.113-0.049-0.104-0.11C-248.474-291.097-248.473-291.108-248.468-291.119"/>
	<path fill="#5DA3C2" d="M-236.657-293.428c-0.009,0.037-0.019,0.086-0.025,0.119l-0.29,1.357l0.306-1.431L-236.657-293.428"/>
</g>
<g>
	<rect x="118.762" y="-318.98" fill="#5BD3BF" width="56.693" height="57.007"/>
	<g>
		
			<linearGradient id="bottom_1_" gradientUnits="userSpaceOnUse" x1="333.7097" y1="241.2107" x2="333.7097" y2="275.1711" gradientTransform="matrix(1 0 0 1 -187.5996 -549.9902)">
			<stop  offset="0" style="stop-color:#002E3B"/>
			<stop  offset="1" style="stop-color:#002639"/>
		</linearGradient>
		
			<linearGradient id="bottom_2_" gradientUnits="userSpaceOnUse" x1="333.7068" y1="237.4148" x2="333.7068" y2="275.6099" gradientTransform="matrix(1 0 0 1 -187.5996 -549.9902)">
			<stop  offset="0" style="stop-color:#002E3B"/>
			<stop  offset="1" style="stop-color:#002639"/>
		</linearGradient>
		<polygon id="bottom" fill="url(#bottom_1_)" stroke="url(#bottom_2_)" points="146.096,-279.679 141.167,-282.083 
			141.173,-282.085 141.171,-282.085 135.934,-279.532 146.1,-274.572 156.284,-279.521 151.028,-282.124 		"/>
		
			<radialGradient id="right_2_" cx="275.2253" cy="152.9636" r="30.2187" gradientTransform="matrix(1 0 0 -1 -137.6001 -123.2974)" gradientUnits="userSpaceOnUse">
			<stop  offset="0" style="stop-color:#00BC85"/>
			<stop  offset="1" style="stop-color:#149D91"/>
		</radialGradient>
		
			<radialGradient id="right_3_" cx="275.0291" cy="151.7976" r="34.5935" gradientTransform="matrix(1 0 0 -1 -137.6001 -123.2974)" gradientUnits="userSpaceOnUse">
			<stop  offset="0" style="stop-color:#00BC85"/>
			<stop  offset="1" style="stop-color:#149D91"/>
		</radialGradient>
		<polygon id="right_1_" fill="url(#right_2_)" stroke="url(#right_3_)" points="135.946,-279.515 135.946,-284.625 
			140.987,-287.082 146.171,-284.526 		"/>
		
			<radialGradient id="right-2_1_" cx="335.3347" cy="239.5789" r="36.5099" gradientTransform="matrix(1 0 0 1 -187.5996 -549.9902)" gradientUnits="userSpaceOnUse">
			<stop  offset="0" style="stop-color:#00BC85"/>
			<stop  offset="1" style="stop-color:#149D91"/>
		</radialGradient>
		
			<radialGradient id="right-2_2_" cx="334.6062" cy="238.2742" r="39.561" gradientTransform="matrix(1 0 0 1 -187.5996 -549.9902)" gradientUnits="userSpaceOnUse">
			<stop  offset="0" style="stop-color:#00BC85"/>
			<stop  offset="1" style="stop-color:#149D91"/>
		</radialGradient>
		<polygon id="right-2" fill="url(#right-2_1_)" stroke="url(#right-2_2_)" points="151.69,-300.543 151.69,-292.465 
			151.69,-292.465 151.69,-292.465 146.055,-289.717 151.237,-287.137 156.282,-289.594 156.282,-303.414 		"/>
		
			<radialGradient id="left_2_" cx="325.8777" cy="236.9011" r="69.7941" gradientTransform="matrix(1 0 0 1 -187.5996 -549.9902)" gradientUnits="userSpaceOnUse">
			<stop  offset="0" style="stop-color:#004473"/>
			<stop  offset="1" style="stop-color:#00345F"/>
		</radialGradient>
		
			<radialGradient id="left_3_" cx="325.5476" cy="235.5408" r="73.7601" gradientTransform="matrix(1 0 0 1 -187.5996 -549.9902)" gradientUnits="userSpaceOnUse">
			<stop  offset="0" style="stop-color:#004473"/>
			<stop  offset="1" style="stop-color:#00345F"/>
		</radialGradient>
		<polygon id="left_1_" fill="url(#left_2_)" stroke="url(#left_3_)" points="156.284,-279.519 156.284,-279.519 156.284,-284.627 
			140.54,-292.469 140.54,-300.549 135.946,-303.419 135.946,-289.598 		"/>
		
			<linearGradient id="top_1_" gradientUnits="userSpaceOnUse" x1="333.699" y1="241.3875" x2="333.699" y2="275.1707" gradientTransform="matrix(1 0 0 1 -187.5996 -549.9902)">
			<stop  offset="0" style="stop-color:#002E3B"/>
			<stop  offset="1" style="stop-color:#002639"/>
		</linearGradient>
		
			<linearGradient id="top_2_" gradientUnits="userSpaceOnUse" x1="333.699" y1="240.8904" x2="333.699" y2="278.7838" gradientTransform="matrix(1 0 0 1 -187.5996 -549.9902)">
			<stop  offset="0" style="stop-color:#002E3B"/>
			<stop  offset="1" style="stop-color:#002639"/>
		</linearGradient>
		<polygon id="top" fill="url(#top_1_)" stroke="url(#top_2_)" points="140.526,-300.556 140.526,-300.558 146.1,-303.277 
			151.675,-300.558 156.262,-303.424 146.096,-308.383 135.934,-303.426 135.934,-303.422 140.522,-300.554 		"/>
	</g>
</g>
<g>
	<rect x="54.103" y="-318.666" fill="#CCFFCC" width="56.693" height="56.693"/>
	<g id="Responsive_Design_1_">
		<path fill="#757575" d="M99.901-277.088c0,0.067,0,0.103,0,0.169c0,1.838-4.408,3.301-9.844,3.301s-9.844-1.463-9.844-3.301
			c0-0.066,0-0.102,0.033-0.169c-0.033-0.034-0.033-0.103-0.033-0.169c0-1.805,4.408-3.301,9.844-3.301s9.844,1.496,9.844,3.301
			C99.901-277.191,99.901-277.122,99.901-277.088z"/>
		<path fill="#696969" d="M99.901-277.088c0,0.067,0,0.103,0,0.169c0,1.838-4.408,3.301-9.844,3.301c-0.232,0-0.465,0-0.695,0
			v-6.905c0.23-0.034,0.463-0.034,0.695-0.034c5.436,0,9.844,1.496,9.844,3.301C99.901-277.191,99.901-277.122,99.901-277.088z"/>
		<path fill="#757575" d="M89.362-280.524c0.23-0.034,0.463-0.034,0.695-0.034c5.27,0,9.545,1.395,9.844,3.129
			c-0.299,1.734-4.574,3.096-9.844,3.096c-0.232,0-0.463,0-0.695,0V-280.524z"/>
		<ellipse fill="#8D8D8D" cx="90.057" cy="-277.633" rx="9.844" ry="3.3"/>
		<path fill="#7F7F7F" d="M90.057-280.898c5.436,0,9.844,1.463,9.844,3.266c0,1.837-4.408,3.299-9.844,3.299
			c-0.232,0-0.463,0-0.695,0v-6.564C89.593-280.898,89.825-280.898,90.057-280.898z"/>
		<polygon fill="#CCCCCC" points="86.51,-287.225 93.637,-287.225 93.637,-278.45 86.51,-278.45 		"/>
		<polygon fill="#B8B8B8" points="93.637,-282.497 93.637,-278.45 89.362,-278.45 89.362,-282.497 		"/>
		<polygon fill="#B8B8B8" points="87.042,-286.647 93.239,-286.647 93.239,-278.993 87.042,-278.993 		"/>
		<polygon fill="#A6A6A6" points="93.239,-282.497 93.239,-278.993 89.362,-278.993 89.362,-282.497 		"/>
		<path fill="#A9ABAE" d="M72.225-307.77h35.828c0.365,0,0.664,0.306,0.664,0.681v23.913c0,0.373-0.299,0.679-0.664,0.679H72.225
			c-0.365,0-0.662-0.306-0.662-0.679v-23.913C71.563-307.464,71.86-307.77,72.225-307.77z"/>
		<path fill="#669999" d="M73.651-306.782h33.607c0.266,0,0.496,0.238,0.496,0.544v21.667c0,0.306-0.23,0.545-0.496,0.545H73.055
			c-0.299,0-0.531-0.239-0.531-0.545v-21.056C72.524-306.273,73.02-306.782,73.651-306.782z"/>
		<path fill="#CCCCCC" d="M90.157-283.891c0.273,0,0.496,0.229,0.496,0.51s-0.223,0.511-0.496,0.511
			c-0.275,0-0.498-0.229-0.498-0.511S89.882-283.891,90.157-283.891z"/>
		<ellipse fill="#B3B3B3" cx="90.157" cy="-283.381" rx="0.365" ry="0.374"/>
		<path fill="#336666" d="M74.645-306.069h31.553c0.266,0,0.465,0.204,0.465,0.476v20.375c0,0.273-0.199,0.477-0.465,0.477H74.083
			c-0.266,0-0.465-0.203-0.465-0.477v-19.796C73.618-305.593,74.083-306.069,74.645-306.069z"/>
		<rect x="76.766" y="-303.517" fill="#E6E6E6" width="21.113" height="17.721"/>
		<rect x="74.147" y="-303.552" fill="#66FFCC" width="1.807" height="17.73"/>
		<rect x="98.509" y="-303.415" fill="#E6E6E6" width="4.375" height="17.551"/>
		<rect x="103.878" y="-303.552" fill="#E6E6E6" width="1.807" height="17.73"/>
		<rect x="98.841" y="-303.041" fill="#CCCCCC" width="3.779" height="5"/>
		<rect x="98.841" y="-297.497" fill="#CCCCCC" width="3.777" height="2.858"/>
		<rect x="98.841" y="-293.892" fill="#CCCCCC" width="3.777" height="1.814"/>
		<rect x="98.841" y="-291.443" fill="#CCCCCC" width="3.779" height="5.035"/>
		<path fill="#33CC99" d="M104.077-303.041h0.564v0.578h-0.564V-303.041z M104.905-286.884h0.564v0.578h-0.564V-286.884z
			 M104.077-286.884h0.564v0.578h-0.564V-286.884z M104.905-287.666h0.564v0.611h-0.564V-287.666z M104.077-287.666h0.564v0.611
			h-0.564V-287.666z M104.905-288.415h0.564v0.578h-0.564V-288.415z M104.077-288.415h0.564v0.578h-0.564V-288.415z
			 M104.905-289.198h0.564v0.578h-0.564V-289.198z M104.077-289.198h0.564v0.578h-0.564V-289.198z M104.905-289.98h0.564v0.612
			h-0.564V-289.98z M104.077-289.98h0.564v0.612h-0.564V-289.98z M104.905-290.728h0.564v0.578h-0.564V-290.728z M104.077-290.728
			h0.564v0.578h-0.564V-290.728z M104.905-291.51h0.564v0.612h-0.564V-291.51z M104.077-291.51h0.564v0.612h-0.564V-291.51z
			 M104.905-292.292h0.564v0.611h-0.564V-292.292z M104.077-292.292h0.564v0.611h-0.564V-292.292z M104.905-293.041h0.564v0.578
			h-0.564V-293.041z M104.077-293.041h0.564v0.578h-0.564V-293.041z M104.905-293.823h0.564v0.612h-0.564V-293.823z
			 M104.077-293.823h0.564v0.612h-0.564V-293.823z M104.905-294.572h0.564v0.578h-0.564V-294.572z M104.077-294.572h0.564v0.578
			h-0.564V-294.572z M104.905-295.355h0.564v0.579h-0.564V-295.355z M104.077-295.355h0.564v0.579h-0.564V-295.355z
			 M104.905-296.136h0.564v0.613h-0.564V-296.136z M104.077-296.136h0.564v0.613h-0.564V-296.136z M104.905-296.886h0.564v0.58
			h-0.564V-296.886z M104.077-296.886h0.564v0.58h-0.564V-296.886z M104.905-297.667h0.564v0.612h-0.564V-297.667z M104.077-297.667
			h0.564v0.612h-0.564V-297.667z M104.905-298.45h0.564v0.613h-0.564V-298.45z M104.077-298.45h0.564v0.613h-0.564V-298.45z
			 M104.905-299.198h0.564v0.577h-0.564V-299.198z M104.077-299.198h0.564v0.577h-0.564V-299.198z M104.905-299.98h0.564v0.612
			h-0.564V-299.98z M104.077-299.98h0.564v0.612h-0.564V-299.98z M104.905-300.728h0.564v0.578h-0.564V-300.728z M104.077-300.728
			h0.564v0.578h-0.564V-300.728z M104.905-301.511h0.564v0.579h-0.564V-301.511z M104.077-301.511h0.564v0.579h-0.564V-301.511z
			 M104.905-302.292h0.564v0.611h-0.564V-302.292z M104.077-302.292h0.564v0.611h-0.564V-302.292z M104.905-303.041h0.564v0.578
			h-0.564V-303.041z"/>
		<rect x="75.141" y="-305.695" fill="#999999" width="30.006" height="1.465"/>
		<ellipse fill="#B3B3B3" cx="76.137" cy="-304.946" rx="0.363" ry="0.375"/>
		<path fill="#B3B3B3" d="M77.993-305.321c0.201,0,0.363,0.169,0.363,0.374c0,0.207-0.162,0.375-0.363,0.375
			s-0.365-0.168-0.365-0.375C77.628-305.152,77.792-305.321,77.993-305.321z"/>
		<path fill="#B3B3B3" d="M79.848-305.321c0.201,0,0.365,0.169,0.365,0.374c0,0.207-0.164,0.375-0.365,0.375
			s-0.365-0.168-0.365-0.375C79.483-305.152,79.647-305.321,79.848-305.321z"/>
		<path fill="#B3B3B3" d="M81.673-305.321c0.199,0,0.363,0.169,0.363,0.374c0,0.207-0.164,0.375-0.363,0.375
			c-0.203,0-0.365-0.168-0.365-0.375C81.307-305.152,81.469-305.321,81.673-305.321z"/>
		<ellipse fill="#B3B3B3" cx="83.528" cy="-304.946" rx="0.363" ry="0.375"/>
		<ellipse fill="#B3B3B3" cx="85.384" cy="-304.946" rx="0.365" ry="0.375"/>
		<ellipse fill="#B3B3B3" cx="87.241" cy="-304.946" rx="0.363" ry="0.375"/>
		<ellipse fill="#B3B3B3" cx="89.096" cy="-304.946" rx="0.365" ry="0.375"/>
		<ellipse fill="#B3B3B3" cx="90.919" cy="-304.946" rx="0.365" ry="0.375"/>
		<path fill="#B3B3B3" d="M92.774-305.321c0.201,0,0.365,0.169,0.365,0.374c0,0.207-0.164,0.375-0.365,0.375
			c-0.199,0-0.363-0.168-0.363-0.375C92.411-305.152,92.575-305.321,92.774-305.321z"/>
		<ellipse fill="#B3B3B3" cx="94.632" cy="-304.946" rx="0.363" ry="0.375"/>
		<ellipse fill="#B3B3B3" cx="96.487" cy="-304.946" rx="0.365" ry="0.375"/>
		<ellipse fill="#B3B3B3" cx="98.309" cy="-304.946" rx="0.365" ry="0.375"/>
		<ellipse fill="#B3B3B3" cx="100.167" cy="-304.946" rx="0.363" ry="0.375"/>
		<path fill="#B3B3B3" d="M102.022-305.321c0.201,0,0.365,0.169,0.365,0.374c0,0.207-0.164,0.375-0.365,0.375
			s-0.365-0.168-0.365-0.375C101.657-305.152,101.821-305.321,102.022-305.321z"/>
		<ellipse fill="#B3B3B3" cx="103.878" cy="-304.946" rx="0.365" ry="0.375"/>
		<polygon fill="#FFCC00" points="87.339,-299.878 89.528,-298.585 91.714,-297.292 91.714,-294.673 91.714,-292.055 
			89.528,-290.762 87.339,-289.47 85.151,-290.762 82.966,-292.055 82.966,-294.673 82.966,-297.292 85.151,-298.585 		"/>
		<polygon fill="#FFAB00" points="87.339,-299.878 89.528,-298.585 91.714,-297.292 91.714,-294.947 82.966,-294.947 
			82.966,-297.292 85.151,-298.585 		"/>
		<path fill="#CCCCCC" d="M87.305-302.192L87.305-302.192h-0.031h-0.066h-0.035c-0.064,0-0.131-0.067-0.131-0.136
			c0-0.102,0.066-0.136,0.131-0.17h0.035h0.066h0.031l0,0h0.068h0.033h0.064l0.033,0.034h0.066h0.033
			c0.066,0,0.133,0.067,0.133,0.136c-0.033,0.068-0.066,0.136-0.166,0.136h-0.033h-0.033h-0.033h-0.064h-0.033H87.305z
			 M86.344-302.429c0.066,0,0.133,0.067,0.166,0.137c0,0.068-0.066,0.135-0.133,0.135l0,0l-0.033,0.035H86.28h-0.035h-0.033h-0.066
			l-0.031,0.033c-0.066,0-0.135-0.068-0.135-0.135c-0.031-0.07,0.035-0.138,0.1-0.138l0.035-0.034h0.031h0.066h0.033l0.066-0.033
			H86.344L86.344-302.429z M85.284-302.192c0.066-0.032,0.133,0.034,0.166,0.103c0,0.068-0.033,0.137-0.1,0.171h-0.033h-0.033
			l-0.066,0.032h-0.033l-0.033,0.035h-0.064l0,0c-0.068,0.033-0.133,0-0.166-0.067c-0.033-0.103,0-0.171,0.098-0.204l0,0h0.035
			l0.066-0.035h0.031h0.033l0.066-0.034H85.284L85.284-302.192z M84.223-301.816c0.066-0.035,0.166,0,0.199,0.067
			s0,0.169-0.066,0.204h-0.033l-0.066,0.033h-0.033l-0.033,0.034l-0.033,0.034h-0.066l0,0c-0.066,0.033-0.131,0-0.166-0.068
			c-0.033-0.068,0-0.136,0.066-0.17l0,0l0.033-0.035h0.033l0.066-0.032l0.033-0.034h0.033L84.223-301.816z M83.262-301.273
			c0.066-0.033,0.133-0.033,0.199,0.034c0.033,0.067,0,0.17-0.066,0.204l-0.033,0.033h-0.033l-0.033,0.035l-0.033,0.034
			l-0.033,0.033h-0.033l0,0c-0.066,0.067-0.166,0.034-0.199-0.033c-0.031-0.034-0.031-0.137,0.033-0.171v-0.033h0.033l0.066-0.035
			l0.033-0.033l0.033-0.034h0.033L83.262-301.273z M82.368-300.593c0.066-0.033,0.133-0.033,0.199,0c0.033,0.068,0.033,0.17,0,0.205
			l-0.033,0.034l-0.033,0.032h-0.033l-0.033,0.035l-0.033,0.035l-0.033,0.033v0.033c-0.066,0.033-0.166,0.033-0.199-0.033
			c-0.066-0.033-0.066-0.136,0-0.17l0.033-0.035l0.033-0.033l0.033-0.034l0.033-0.034l0.033-0.033h0.033V-300.593L82.368-300.593z
			 M81.606-299.776c0.033-0.069,0.131-0.069,0.164-0.034c0.066,0.068,0.066,0.137,0.033,0.204l0,0l-0.033,0.034l-0.033,0.033
			l-0.033,0.034l-0.031,0.034l-0.033,0.033v0.035c-0.068,0.067-0.133,0.067-0.199,0.034c-0.066-0.069-0.066-0.137-0.033-0.204
			l0.033-0.034l0.033-0.034l0.033-0.033l0.033-0.035v-0.033l0.033-0.034H81.606z M80.942-298.892c0.033-0.034,0.1-0.068,0.166-0.034
			s0.1,0.138,0.066,0.204l-0.033,0.035l-0.033,0.033l-0.033,0.033v0.035l-0.033,0.068l-0.033,0.034l0,0
			c-0.033,0.067-0.1,0.067-0.164,0.032c-0.068-0.032-0.102-0.102-0.068-0.17v-0.033l0.033-0.033l0.033-0.035v-0.034l0.033-0.032
			l0.033-0.035L80.942-298.892z M80.413-297.871c0.031-0.067,0.1-0.102,0.166-0.067c0.064,0.034,0.098,0.102,0.064,0.169v0.034
			l-0.033,0.068v0.034l-0.031,0.034v0.033l-0.033,0.068l0,0c-0.033,0.068-0.102,0.102-0.166,0.068c-0.066-0.034-0.1-0.102-0.1-0.17
			l0.033-0.034v-0.034l0.033-0.033v-0.035l0.033-0.067v-0.034L80.413-297.871z M80.014-296.816c0.033-0.07,0.1-0.103,0.166-0.103
			c0.1,0.032,0.133,0.103,0.1,0.204l0,0v0.033l-0.033,0.035v0.066v0.035l-0.033,0.033v0.034c0,0.103-0.1,0.137-0.166,0.103
			c-0.066,0-0.1-0.068-0.1-0.17v-0.035l0.033-0.034v-0.067l0.033-0.035v-0.033V-296.816L80.014-296.816z M79.815-295.695
			c0-0.068,0.066-0.135,0.133-0.135c0.066,0.033,0.133,0.102,0.133,0.169v0.034l-0.033,0.033v0.07v0.032v0.069v0.033l0,0
			c0,0.068-0.066,0.137-0.166,0.137c-0.066,0-0.133-0.069-0.1-0.17l0,0v-0.035v-0.066v-0.035v-0.068v-0.034L79.815-295.695z
			 M79.749-294.572c0-0.067,0.033-0.137,0.133-0.137c0.066,0,0.133,0.069,0.133,0.137v0.067v0.034v0.034v0.068v0.033v0.034
			c0,0.103-0.066,0.172-0.133,0.172s-0.133-0.069-0.133-0.137v-0.035v-0.067v-0.034v-0.068v-0.034V-294.572z M79.815-293.415
			c0-0.068,0.066-0.17,0.133-0.17s0.133,0.033,0.166,0.102v0.068v0.035v0.066v0.035l0.033,0.034v0.033c0,0.103-0.033,0.17-0.1,0.17
			c-0.066,0.034-0.166-0.033-0.166-0.103v-0.033l-0.033-0.067v-0.034v-0.035v-0.066L79.815-293.415z M80.081-292.327
			c-0.033-0.067,0.033-0.136,0.1-0.17c0.066,0,0.133,0.034,0.166,0.103v0.033l0.033,0.034v0.035v0.033l0.033,0.068v0.033v0.035
			c0.031,0.067,0,0.135-0.066,0.17c-0.066,0.033-0.133-0.035-0.166-0.103l0,0l-0.033-0.067v-0.035l-0.033-0.033v-0.066l-0.033-0.035
			V-292.327L80.081-292.327z M80.479-291.273c-0.035-0.067,0-0.135,0.066-0.17c0.064-0.034,0.164,0,0.197,0.068v0.034l0.033,0.034
			v0.033l0.033,0.035l0.035,0.033v0.068l0,0c0.031,0.067,0.031,0.17-0.035,0.204s-0.166,0-0.199-0.067v-0.035l-0.031-0.034v-0.034
			l-0.033-0.033l-0.033-0.068v-0.033L80.479-291.273z M81.042-290.286c-0.033-0.034-0.033-0.135,0.033-0.17
			c0.066-0.067,0.166-0.034,0.199,0.035l0,0l0.033,0.033l0.033,0.068v0.033l0.033,0.035l0.033,0.033l0,0
			c0.066,0.068,0.033,0.17,0,0.205c-0.066,0.033-0.166,0.033-0.199-0.035h-0.033v-0.068l-0.033-0.033l-0.033-0.035l-0.033-0.034
			l-0.033-0.032V-290.286L81.042-290.286z M81.737-289.367c-0.064-0.069-0.064-0.17,0-0.204c0.066-0.067,0.133-0.067,0.199,0l0,0
			l0.033,0.034l0.033,0.034l0.033,0.033l0.033,0.035l0.033,0.033v0.034c0.066,0.067,0.066,0.136,0,0.204
			c-0.033,0.034-0.133,0.034-0.199,0v-0.034l-0.033-0.034l-0.033-0.033l-0.033-0.035l-0.033-0.034L81.737-289.367L81.737-289.367z
			 M82.534-288.585c-0.066-0.068-0.066-0.137-0.033-0.204c0.066-0.069,0.133-0.069,0.197-0.034l0.035,0.034l0.033,0.034l0.031,0.033
			h0.035l0.031,0.035l0.033,0.033l0,0c0.068,0.068,0.102,0.136,0.035,0.203c-0.035,0.07-0.135,0.07-0.166,0.035h-0.033L82.7-288.45
			l-0.033-0.033l-0.033-0.034L82.6-288.55l-0.033-0.035H82.534L82.534-288.585z M83.428-287.939
			c-0.066-0.033-0.066-0.136-0.033-0.205c0.033-0.067,0.1-0.067,0.166-0.033h0.033l0.033,0.033l0.066,0.035h0.033l0.033,0.034
			l0.033,0.032l0,0c0.066,0.035,0.098,0.104,0.066,0.17c-0.033,0.069-0.133,0.104-0.199,0.069l0,0l-0.033-0.034l-0.033-0.035h-0.066
			l-0.033-0.032l-0.033-0.034H83.428L83.428-287.939z M84.423-287.429c-0.066-0.034-0.1-0.102-0.066-0.204
			c0.033-0.067,0.1-0.103,0.166-0.067l0.033,0.034h0.033l0.033,0.033h0.066l0.033,0.034h0.033h0.033
			c0.066,0.033,0.1,0.103,0.066,0.17c-0.033,0.102-0.1,0.137-0.166,0.102h-0.033l-0.033-0.033h-0.033l-0.066-0.034h-0.033
			l-0.033-0.034H84.423L84.423-287.429z M85.483-287.088c-0.1,0-0.133-0.069-0.1-0.17c0-0.069,0.066-0.103,0.166-0.103l0.033,0.033
			h0.033h0.033l0.066,0.035h0.033h0.033c0.1,0.034,0.133,0.102,0.133,0.17c-0.033,0.067-0.1,0.137-0.166,0.102h-0.066h-0.033
			l-0.033-0.034H85.55h-0.033L85.483-287.088z M86.544-286.884c-0.066,0-0.1-0.068-0.1-0.137c0-0.102,0.066-0.137,0.133-0.137h0.033
			h0.066h0.033h0.033h0.066h0.033l0,0c0.066,0.035,0.133,0.103,0.133,0.17c0,0.068-0.066,0.137-0.133,0.137l0,0h-0.066l-0.033-0.033
			h-0.066h-0.033h-0.066H86.544z M87.671-286.851c-0.1,0-0.133-0.068-0.166-0.137c0-0.067,0.066-0.135,0.133-0.135h0.066h0.033
			l0.033-0.035h0.066h0.033h0.033c0.1,0,0.166,0.069,0.166,0.137c0,0.068-0.066,0.137-0.133,0.137h-0.033l-0.066,0.033h-0.033
			h-0.066h-0.033H87.671z M88.764-286.988c-0.066,0-0.166-0.033-0.166-0.101c0-0.069,0.033-0.17,0.1-0.17h0.033l0.066-0.034h0.033
			h0.033h0.066l0.033-0.035c0.066,0,0.133,0.035,0.166,0.103c0,0.103-0.033,0.17-0.1,0.17l-0.033,0.034H88.93h-0.033h-0.066
			l-0.033,0.033H88.764L88.764-286.988z M89.825-287.292c-0.066,0.034-0.166,0-0.166-0.068c-0.033-0.068,0-0.17,0.066-0.17
			l0.033-0.035h0.033l0.033-0.033h0.033h0.066l0.033-0.034h0.033c0.066-0.034,0.133,0,0.166,0.067c0.033,0.069,0,0.171-0.066,0.171
			l-0.033,0.034h-0.066l-0.033,0.033h-0.033l-0.033,0.035H89.825L89.825-287.292z M90.819-287.736c-0.066,0.035-0.131,0-0.166-0.067
			c-0.033-0.069,0-0.136,0.068-0.171v-0.033h0.031l0.033-0.035h0.068l0.031-0.033l0.033-0.033h0.035
			c0.064-0.035,0.131-0.035,0.164,0.033s0.033,0.171-0.033,0.203h-0.033l-0.033,0.035l-0.064,0.034h-0.035l-0.033,0.034
			l-0.031,0.033H90.819z M91.782-288.348c-0.068,0.069-0.168,0.034-0.199-0.032c-0.033-0.035-0.033-0.138,0.031-0.17v-0.035h0.035
			l0.033-0.034l0.031-0.034l0.033-0.033l0.035-0.035h0.031c0.068-0.067,0.166-0.033,0.199,0c0.033,0.068,0.033,0.17-0.033,0.204
			l-0.033,0.034l-0.033,0.033l-0.031,0.035h-0.035l-0.033,0.035L91.782-288.348L91.782-288.348z M92.61-289.062
			c-0.068,0.034-0.133,0.034-0.199,0c-0.033-0.068-0.033-0.17,0-0.203l0.031-0.035l0.035-0.034l0.033-0.033l0.031-0.034l0.035-0.035
			l0.033-0.033l0,0c0.066-0.068,0.133-0.068,0.197,0c0.035,0.033,0.035,0.136,0,0.205l0,0l-0.031,0.033l-0.033,0.034l-0.033,0.034
			l-0.033,0.033l-0.035,0.035L92.61-289.062z M93.339-289.912c-0.033,0.034-0.133,0.069-0.199,0c-0.033-0.033-0.066-0.136,0-0.169
			v-0.035l0.033-0.033l0.033-0.035v-0.034l0.033-0.032l0.033-0.035v-0.034c0.066-0.067,0.133-0.067,0.199-0.034
			c0.066,0.034,0.066,0.136,0.033,0.205l0,0l-0.033,0.033l-0.033,0.068l-0.033,0.033l-0.031,0.035v0.034L93.339-289.912z
			 M93.934-290.865c-0.031,0.068-0.1,0.068-0.164,0.035c-0.066-0.035-0.1-0.103-0.066-0.17v-0.035l0.031-0.034l0.035-0.034v-0.033
			l0.033-0.068l0.031-0.033v-0.035c0.035-0.067,0.1-0.067,0.168-0.035c0.064,0.035,0.1,0.104,0.064,0.172v0.033l-0.033,0.034v0.034
			l-0.031,0.068l-0.033,0.034v0.034L93.934-290.865z M94.399-291.919c0,0.068-0.098,0.104-0.166,0.104
			c-0.066-0.035-0.1-0.137-0.066-0.205l0,0v-0.034l0.035-0.067v-0.035l0.031-0.034v-0.067l0,0c0.033-0.068,0.1-0.136,0.199-0.103
			c0.066,0.034,0.1,0.103,0.066,0.17v0.034l-0.033,0.035v0.067l-0.033,0.034v0.033v0.068H94.399L94.399-291.919z M94.731-293.007
			c-0.033,0.068-0.1,0.135-0.168,0.103c-0.064,0-0.131-0.069-0.098-0.17v-0.034v-0.035l0.033-0.033v-0.068v-0.033v-0.035v-0.033
			c0.033-0.068,0.1-0.104,0.164-0.104c0.068,0.035,0.135,0.104,0.1,0.172l0,0v0.033v0.068v0.033l-0.031,0.069v0.033V-293.007
			L94.731-293.007z M94.862-294.13c0,0.068-0.064,0.137-0.131,0.137c-0.068,0-0.133-0.068-0.133-0.17l0,0v-0.068v-0.033v-0.069
			l0.033-0.034v-0.067l0,0c0-0.068,0.066-0.136,0.131-0.136c0.068,0,0.133,0.067,0.133,0.17l0,0v0.033v0.068v0.035v0.067
			l-0.033,0.034V-294.13z M94.862-295.251c0,0.066-0.031,0.135-0.131,0.135c-0.068,0-0.133-0.068-0.133-0.135v-0.035v-0.068v-0.033
			v-0.035l-0.035-0.067v-0.032c0-0.07,0.068-0.138,0.135-0.138c0.064-0.034,0.133,0.033,0.133,0.103l0.031,0.033v0.067v0.034v0.068
			v0.034V-295.251z M94.698-296.407c0.033,0.102-0.035,0.17-0.1,0.17c-0.066,0.033-0.133-0.035-0.166-0.103v-0.034v-0.033
			l-0.033-0.035v-0.067v-0.034l-0.033-0.035v-0.033c0-0.068,0.033-0.137,0.1-0.17c0.066,0,0.166,0.033,0.166,0.102l0,0l0.031,0.068
			v0.033v0.069l0.035,0.033v0.034V-296.407z M94.399-297.497c0,0.104-0.033,0.17-0.098,0.205c-0.068,0.033-0.135-0.035-0.168-0.102
			l0,0l-0.031-0.035v-0.034l-0.035-0.034v-0.068l-0.033-0.033v-0.034c-0.031-0.067,0-0.17,0.068-0.17
			c0.064-0.034,0.164,0,0.164,0.067l0.035,0.035v0.034l0.031,0.033l0.033,0.067v0.035L94.399-297.497L94.399-297.497z
			 M93.903-298.517c0.031,0.066,0.031,0.17-0.035,0.203c-0.064,0.035-0.164,0-0.197-0.066l0,0v-0.035l-0.033-0.035l-0.033-0.032
			l-0.033-0.034v-0.068l-0.033-0.035c-0.033-0.066,0-0.136,0.033-0.168c0.066-0.07,0.164-0.035,0.199,0.032l0.033,0.034l0.031,0.035
			v0.033l0.033,0.067l0.035,0.034V-298.517L93.903-298.517z M93.305-299.47c0.033,0.068,0.033,0.17-0.033,0.205
			c-0.066,0.033-0.133,0.033-0.199-0.035v-0.034l-0.033-0.033l-0.033-0.034l-0.031-0.035l-0.035-0.033v-0.034h-0.033
			c-0.031-0.067-0.031-0.136,0.033-0.204c0.066-0.033,0.133-0.033,0.199,0.035l0,0l0.033,0.033l0.033,0.034v0.034l0.033,0.033
			l0.033,0.034L93.305-299.47z M92.577-300.322c0.033,0.07,0.033,0.172,0,0.205c-0.066,0.069-0.135,0.069-0.199,0h-0.033
			l-0.033-0.033l-0.033-0.035l-0.033-0.033l-0.033-0.033v-0.035h-0.033c-0.066-0.067-0.066-0.137,0-0.204
			c0.033-0.067,0.133-0.067,0.166,0h0.033l0.033,0.034l0.031,0.033l0.035,0.035l0.033,0.034l0.031,0.032H92.577z M91.714-301.034
			c0.068,0.033,0.068,0.136,0.033,0.203c-0.033,0.068-0.133,0.068-0.197,0.035l0,0l-0.035-0.035l-0.031-0.033l-0.033-0.034h-0.035
			l-0.064-0.033v-0.034c-0.066-0.035-0.1-0.137-0.066-0.17c0.066-0.068,0.131-0.103,0.199-0.068l0.031,0.033l0.035,0.035h0.033
			l0.031,0.033l0.035,0.034L91.714-301.034L91.714-301.034z M90.786-301.613c0.068,0.033,0.068,0.102,0.033,0.17
			c-0.033,0.068-0.098,0.103-0.166,0.068l0,0l-0.066-0.033h-0.031l-0.033-0.035h-0.035l-0.031-0.034l-0.033-0.033
			c-0.066-0.034-0.1-0.103-0.066-0.171c0.033-0.067,0.098-0.102,0.166-0.067l0.033,0.034h0.031l0.066,0.033h0.035l0.031,0.034
			l0.033,0.034H90.786z M89.759-302.055c0.066,0,0.1,0.103,0.066,0.169c0,0.07-0.1,0.104-0.166,0.07l0,0h-0.033l-0.066-0.035h-0.033
			h-0.033l-0.031-0.035h-0.033c-0.1-0.032-0.133-0.1-0.1-0.169c0.033-0.067,0.1-0.136,0.164-0.103h0.033l0.033,0.035h0.066
			l0.033,0.033h0.033L89.759-302.055L89.759-302.055z M88.698-302.362c0.066,0.034,0.1,0.103,0.1,0.17
			c0,0.069-0.1,0.137-0.166,0.103h-0.033h-0.033h-0.033l-0.064-0.033h-0.035h-0.064l0,0c-0.066,0-0.102-0.069-0.102-0.17
			c0-0.069,0.066-0.104,0.133-0.104h0.033h0.035h0.031l0.066,0.034h0.033h0.066H88.698z"/>
		<path fill="#4E5A62" d="M108.053-308.347H72.225c-0.695,0-1.227,0.544-1.227,1.258v23.913c0,0.712,0.531,1.292,1.227,1.292h13.689
			v0.68c-2.055,0.307-6.266,1.259-6.266,3.571c0,0.069,0,0.136,0,0.204c0,0.067,0,0.103,0,0.172c0,0.066,0,0.135,0,0.169
			c0,0.067,0,0.103,0,0.169c0,1.532,1.857,2.417,3.049,2.823c2.057,0.749,4.475,1.021,6.664,1.056
			c0.23,0.033,0.463,0.033,0.695,0.033c2.32,0,4.938-0.271,7.16-1.02c1.191-0.408,3.281-1.293,3.281-2.893c0-0.066,0-0.102,0-0.169
			c0-0.034,0-0.103,0-0.169c0-0.069,0-0.104,0-0.172c0-0.068,0-0.135,0-0.204c0-2.313-4.211-3.265-6.266-3.571v-0.68h13.82
			c0.697,0,1.227-0.58,1.227-1.292v-23.913C109.282-307.803,108.751-308.347,108.053-308.347z M108.718-283.176
			c0,0.373-0.299,0.679-0.664,0.679H93.637v1.803c3.678,0.478,6.264,1.668,6.264,3.062c0,0.069,0,0.136,0,0.204
			c0,0.067,0,0.103,0,0.172c0,0.066,0,0.135,0,0.169c0,0.067,0,0.103,0,0.169c0,1.838-4.408,3.301-9.844,3.301
			c-0.232,0-0.463,0-0.695,0c-5.105-0.137-9.148-1.565-9.148-3.301c0-0.066,0-0.102,0.033-0.169
			c-0.033-0.034-0.033-0.103-0.033-0.169c0-0.069,0-0.104,0.033-0.172c-0.033-0.068-0.033-0.135-0.033-0.204
			c0-1.394,2.619-2.584,6.297-3.062v-1.803H72.225c-0.365,0-0.662-0.306-0.662-0.679v-23.913c0-0.375,0.297-0.681,0.662-0.681
			h35.828c0.365,0,0.664,0.306,0.664,0.681V-283.176L108.718-283.176z"/>
		<path fill="#E6E6E6" d="M66.524-310.73h10.475c1.457,0,2.65,1.226,2.65,2.723v24.659c0,1.497-1.193,2.722-2.65,2.722H66.524
			c-1.457,0-2.65-1.225-2.65-2.722v-24.659C63.874-309.504,65.067-310.73,66.524-310.73z"/>
		<path fill="#4E5A62" d="M66.757-308.891H76.8c0.994,0,1.822,0.815,1.822,1.87v21.089c0,1.054-0.828,1.87-1.822,1.87H66.757
			c-0.994,0-1.822-0.816-1.822-1.87v-21.089C64.934-308.075,65.762-308.891,66.757-308.891z"/>
		<path fill="#CCCCCC" d="M65.264-283.244h1.891c0.197,0,0.33,0.135,0.33,0.34l0,0c0,0.169-0.133,0.341-0.33,0.341h-1.891
			c-0.166,0-0.33-0.172-0.33-0.341l0,0C64.934-283.11,65.098-283.244,65.264-283.244z"/>
		<path fill="#7F8C8D" d="M70.932-283.244h2.088c0.299,0,0.531,0.237,0.531,0.544l0,0c0,0.271-0.232,0.544-0.531,0.544h-2.088
			c-0.264,0-0.529-0.272-0.529-0.544l0,0C70.403-283.007,70.669-283.244,70.932-283.244z"/>
		<path fill="#CCCCCC" d="M76.401-283.244h1.857c0.197,0,0.363,0.135,0.363,0.34l0,0c0,0.169-0.166,0.341-0.363,0.341h-1.857
			c-0.197,0-0.33-0.172-0.33-0.341l0,0C76.069-283.11,76.202-283.244,76.401-283.244z"/>
		<path fill="#FEFEFE" d="M69.077-310.218h5.402c0.199,0,0.332,0.137,0.332,0.34l0,0c0,0.205-0.133,0.34-0.332,0.34h-5.402
			c-0.199,0-0.365-0.135-0.365-0.34l0,0C68.712-310.081,68.878-310.218,69.077-310.218z"/>
		<path fill="#CCCCCC" d="M71.032-283.144h1.889c0.299,0,0.498,0.205,0.498,0.443l0,0c0,0.236-0.199,0.408-0.498,0.408h-1.889
			c-0.266,0-0.463-0.172-0.463-0.408l0,0C70.569-282.939,70.766-283.144,71.032-283.144z"/>
		<path fill="#FED5A9" d="M68.778-269.367c0.033-1.122,0.1-2.245,0.266-3.266c0.531-3.741,2.85-6.495,3.68-7.483
			c0,0,2.021-2.313,1.523-5.033c-0.463-2.416-0.895-6.395-0.695-8.674c0.266-3.231-2.121-5.238-2.686-0.544
			c-0.563,4.897-2.783,15.715-6.959,8.81v-10.715c0,0-1.26-0.204-1.99,1.769c-0.695,1.974-5.369,4.423-5.336,6.293
			c0.033,1.837,1.791,3.742,2.42,8.368c0.133,1.155,0.994,2.755,1.658,4.422C62.979-272.939,65.729-270.898,68.778-269.367z"/>
		<polygon fill="#E6E6E6" points="67.552,-305.456 76.833,-305.456 76.833,-299.096 67.552,-299.096 		"/>
		<polygon fill="#CCCCCC" points="72.192,-301.544 74.512,-303.517 76.833,-305.456 72.192,-305.456 67.552,-305.456 
			69.872,-303.517 		"/>
		<path fill="#4E5A62" d="M62.913-297.089v-10.918c0-2.041,1.623-3.708,3.611-3.708h10.475c1.988,0,3.611,1.667,3.611,3.708v24.659
			c0,2.042-1.623,3.708-3.611,3.708h-3.381c-0.066,0.068-0.1,0.136-0.166,0.205c-1.723,1.938-3.082,4.285-3.447,6.938
			c-0.166,1.157-0.266,2.348-0.266,3.573c-0.33-0.138-0.662-0.307-0.961-0.443c0.033-1.122,0.1-2.245,0.266-3.265
			c0.531-3.741,2.85-6.496,3.68-7.483c0,0,0.164-0.171,0.396-0.511h3.879c1.457,0,2.65-1.225,2.65-2.722v-24.659
			c0-1.497-1.193-2.723-2.65-2.723H66.524c-1.457,0-2.65,1.226-2.65,2.723v11.734c-0.133,0-1.293-0.067-1.957,1.769
			c-0.695,1.974-5.369,4.423-5.336,6.293c0.033,1.838,1.791,3.742,2.42,8.368c0.133,1.155,0.994,2.755,1.658,4.422
			c-0.764-0.783-1.459-1.633-2.123-2.518c-0.23-0.578-0.43-1.189-0.496-1.769c-0.232-1.803-0.695-3.333-1.359-5.001
			c-0.43-1.088-1.027-2.313-1.061-3.503c-0.033-1.632,1.988-3.196,3.082-4.15c0.598-0.511,2.057-1.733,2.32-2.481
			c0.299-0.852,0.797-1.667,1.625-2.109C62.714-296.988,62.813-297.055,62.913-297.089z"/>
	</g>
</g>
<g>
	<g>
		<path fill="#08A9D9" d="M46.397-317.752c0-0.505-0.4-0.914-0.896-0.914H-9.951c-0.495,0-0.895,0.409-0.895,0.914v28.339h57.243
			V-317.752z"/>
		<g>
			<path fill="#08A9D9" d="M-10.818-262.887c0,0.504,0.4,0.914,0.895,0.914h55.453c0.496,0,0.896-0.41,0.896-0.914v-28.337h-57.243
				V-262.887z"/>
		</g>
	</g>
	<g>
		<path fill="#F4F4F4" d="M17.802-311.413c-12.119,0-21.947,9.853-21.947,22.003c0,12.147,9.828,21.997,21.947,21.997
			c12.122,0,21.948-9.85,21.948-21.997C39.751-301.561,29.925-311.413,17.802-311.413z M17.752-308.803
			c4.971,0,9.486,1.886,12.917,4.961c-1.439,0.598-2.349,2.338-1.102,5.041c0.689,1.496,3.6,4.117,2.477,7.572l-5.162,13.048
			l-5.211-14.443c-0.17-0.419-0.254-0.867-0.254-1.339c0-0.698,0.303-1.231,0.904-1.6c0.602-0.367,1.447-0.551,2.53-0.551h0.89v-1.3
			H11.773v1.301c0.662,0,1.271,0.091,1.733,0.272c0.466,0.178,0.914,0.498,1.351,0.955c0.493,0.472,0.899,0.996,1.217,1.572
			c0.32,0.58,0.489,1.112,0.91,2.344l-5.153,12.817l-5.129-14.399c-0.217-0.639-0.324-1.247-0.324-1.826
			c0-0.592,0.267-0.995,0.748-1.303c0.367-0.233,0.531-0.576,1.604-0.588l-0.019-1.146l-8.625,0.017
			C3.131-304.119,9.893-308.803,17.752-308.803z M-1.638-289.41c0-2.072,0.333-4.063,0.934-5.936
			c0.189,0.138,0.383,0.269,0.558,0.445c0.795,0.805,1.512,2.121,2.149,3.941l6.854,18.763
			C2.627-275.421-1.638-281.911-1.638-289.41z M10.238-271.534l7.293-18.25l6.82,18.586c-2.062,0.748-4.279,1.176-6.602,1.176
			C15.086-270.023,12.547-270.562,10.238-271.534z M25.341-271.566l7.699-19.575c0.592-1.473,1.789-4.521,2.26-6.472
			c1.17,2.494,1.84,5.267,1.84,8.202C37.139-281.398,32.277-274.519,25.341-271.566z"/>
		<g>
			<path fill="#F4F4F4" d="M37.139-289.413c0,0.001,0,0.002,0,0.003c0,8.013-4.862,14.892-11.799,17.845l7.02-17.848h-1.033
				l-4.445,11.232l-4.053-11.232h-5.161l6.685,18.215c-2.063,0.748-4.279,1.176-6.601,1.176c-2.664,0-5.203-0.539-7.514-1.512
				l7.145-17.879h-1.024l-4.528,11.262l-4.013-11.262H2.567l6.29,17.217c-6.229-3.225-10.495-9.715-10.495-17.214
				c0-0.001,0-0.002,0-0.003h-2.506c0,0.001,0,0.002,0,0.003c0,12.147,9.828,21.997,21.947,21.997
				c12.122,0,21.948-9.85,21.948-21.997c0-0.001,0-0.002,0-0.003H37.139z"/>
		</g>
	</g>
</g>
<g>
	<polyline fill="#B0B0B0" points="-204.536,-261.973 -147.843,-261.973 -147.843,-318.668 -204.536,-318.668 -204.536,-261.973 	"/>
	<polyline fill="#FFFFFF" points="-176.344,-304.826 -190.031,-300.009 -187.868,-282.077 -176.329,-275.736 -164.732,-282.163 
		-162.57,-300.094 -176.344,-304.826 	"/>
	<polyline fill="#999999" points="-163.935,-299.059 -176.376,-303.301 -176.376,-277.25 -165.95,-283.022 -163.935,-299.059 	"/>
	<polyline fill="#B0B0B0" points="-188.495,-298.982 -186.642,-282.945 -176.376,-277.25 -176.376,-303.301 -188.495,-298.982 	"/>
	<path fill="#FFFFFF" d="M-173.282-290.24l-3.071-6.078l-2.519,5.975h2.497L-173.282-290.24 M-172.951-289.433l-3.424,1.602h-3.609
		l-1.697,4.243l-3.156,0.059l8.463-18.826L-172.951-289.433z"/>
	<polyline fill="#FFFFFF" points="-176.376,-302.356 -176.353,-296.319 -173.495,-290.34 -176.37,-290.34 -176.376,-287.835 
		-172.402,-287.831 -170.543,-283.529 -167.525,-283.473 -176.376,-302.356 	"/>
</g>
<g>
	<g>
		<polyline fill="#FBAB18" points="183.18,-261.973 240.358,-261.973 240.358,-318.801 183.18,-318.801 183.18,-261.973 		"/>
	</g>
	<g>
		<path fill="#E78724" d="M209.62-291.59c0.004-0.01,0.007-0.018,0.01-0.025c-0.003,0-0.007,0-0.012,0
			C209.619-291.608,209.619-291.598,209.62-291.59z"/>
		<path fill="#FBA919" d="M206.203-299.807c-0.021-0.059-0.048-0.125-0.077-0.193c0.035,0.119,0.049,0.197,0.049,0.197
			L206.203-299.807z"/>
		<path fill="#FFFFFF" d="M206.157-293.793c-0.012,0.078-0.02,0.158-0.024,0.242c0.02,0.168,0.157,0.975,0.995,1.254
			c0.663,0.221,1.255-0.014,1.338-0.047c-0.302-0.363-0.753-0.764-1.28-1.141c-0.301-0.217-0.624-0.424-0.958-0.611
			C206.199-294.008,206.175-293.906,206.157-293.793z"/>
		<path fill="#FFFFFF" d="M203.278-286.981c-0.003,0.002-0.004,0.004-0.006,0.006c0.001,0.002,0.002,0.004,0.002,0.008
			C203.276-286.975,203.278-286.981,203.278-286.981z"/>
		<path fill="#FFFFFF" d="M203.08-285.459c-0.066,1.871,0.796,3.033,2.002,3.531c0.369,0.152,0.771,0.242,1.188,0.271
			c0.03-0.309,0.147-0.574,0.354-0.797c0.021-0.023,0.046-0.047,0.07-0.068c0.101-0.131,0.237-0.32,0.387-0.555
			c-0.642-0.027-1.375-0.145-2.049-0.42C204.179-283.846,203.427-284.455,203.08-285.459z"/>
		<path fill="#E78724" d="M213.909-291.615c0.004,0.008,0.008,0.016,0.012,0.025c0-0.008,0-0.016,0-0.025
			C213.917-291.615,213.913-291.615,213.909-291.615z"/>
		<g>
			<path fill="#FBA919" d="M203.858-293.52c-0.134,0.988-0.484,1.416-0.697,1.59c0.528,0.588,1.869,1.051,1.869,1.051
				c0.976,0.357,1.104,1.486,1.138,2.389c0.198-0.43,0.367-1.08,0.367-1.08s0.051,1.869-0.091,3.146
				c-0.104,0.932-0.398,1.943-0.541,2.379c0.257,0.064,0.521,0.107,0.785,0.139c0.828-1.225,1.903-2.863,2.227-3.355
				c0.13-0.291,0.246-0.533,0.328-0.668c-0.295,2.115-0.95,3.996-1.274,4.857c0.189-0.025,0.396-0.045,0.636-0.045
				c0,0,2.251,0,3.162-0.002h0.008l3.161,0.002c0.24,0,0.446,0.02,0.636,0.045c-0.324-0.861-0.979-2.742-1.275-4.857
				c0.084,0.137,0.2,0.379,0.33,0.668c0.323,0.494,1.397,2.131,2.226,3.355c0.264-0.031,0.528-0.074,0.786-0.139
				c-0.145-0.436-0.438-1.447-0.543-2.379c-0.141-1.277-0.089-3.146-0.089-3.146s0.168,0.65,0.366,1.08
				c0.034-0.902,0.162-2.031,1.139-2.389c0,0,1.34-0.463,1.867-1.051c-0.213-0.174-0.563-0.602-0.696-1.59
				c-0.12-0.891-0.007-1.707,0.102-2.209c0.043-0.537,0.144-1.096,0.274-1.381c-0.01,0.264,0,0.527,0.018,0.779
				c0.021-0.045,0.045-0.086,0.07-0.119c0.174-0.217,0.641-0.947,0.506-1.439c-0.051-0.188-0.169-0.326-0.361-0.426
				c-0.203-0.104-0.479-0.156-0.816-0.156c-0.664,0-1.402,0.203-1.782,0.324c-1.359,0.43-2.999,1.672-3.47,2.043
				c-0.014,0.01-0.021,0.016-0.023,0.018l-0.301,0.209l0.188-0.316c0.005-0.006,0.137-0.221,0.383-0.529
				c0.345-0.877,1.044-2.031,1.044-2.031s0.145-0.402-0.046-0.922c-1.086-0.467-2.326-0.705-3.696-0.707
				c-1.369,0.002-2.609,0.24-3.695,0.707c-0.19,0.52-0.046,0.922-0.046,0.922s0.699,1.152,1.044,2.031
				c0.247,0.309,0.378,0.523,0.382,0.529l0.188,0.316l-0.3-0.209c-0.002-0.002-0.01-0.008-0.022-0.018
				c-0.471-0.371-2.111-1.613-3.471-2.043c-0.38-0.121-1.117-0.324-1.782-0.324c-0.338,0-0.613,0.053-0.816,0.156
				c-0.192,0.1-0.311,0.238-0.361,0.426c-0.135,0.492,0.332,1.223,0.507,1.439c0.025,0.033,0.048,0.074,0.069,0.119
				c0.018-0.252,0.026-0.516,0.018-0.779c0.131,0.283,0.231,0.842,0.274,1.379C203.864-295.229,203.979-294.412,203.858-293.52z
				 M214.083-293.08c0.24-0.227,0.435-0.596,0.629-0.873c0.611-0.869,1.621-1.248,2.427-1.311c1.374-0.107,2.026,0.379,2.026,0.379
				s-0.021,0-0.053,0.002c0.029,0.008,0.059,0.01,0.088,0.018c-0.234,0.051-0.48,0.129-0.73,0.225c0.001,0,0.002,0,0.004,0
				c0.223,0.098,0.346,0.373,0.377,0.643c0.063,0.543-0.282,1.035-0.282,1.035c-0.036-0.404-0.121-0.691-0.22-0.898
				c-0.001,0.021-0.001,0.043-0.002,0.063c0.007,0.018,0.02,0.031,0.02,0.053c0,0.553-0.158,2.527-1.699,3.082
				c-0.588,0.211-1.072,0.197-1.447,0.1c0.093,0.932,0.453,1.313,0.453,1.313s-0.672-0.215-1.016-0.643
				c0.008,0.025,0.014,0.041,0.014,0.041s-0.797-0.904-0.75-1.736c-0.004-0.01-0.008-0.018-0.012-0.025
				c-0.582-0.029-1.15-0.457-1.135-1.055c0,0,0.098,0.053,0.259,0.096C213.354-292.563,213.707-292.723,214.083-293.08z
				 M211.77-295.047c0.537,0,1.237-0.014,1.763-0.393c0,0-0.19,0.334-0.527,0.65c-0.286,0.283-0.778,0.697-1.231,0.701v0.002
				c-0.002,0-0.003-0.002-0.004-0.002c-0.002,0-0.003,0.002-0.004,0.002v-0.002c-0.455-0.004-0.948-0.42-1.233-0.703
				c-0.336-0.316-0.526-0.648-0.526-0.648C210.533-295.061,211.233-295.047,211.77-295.047z M204.375-294.885
				c0,0,0.652-0.486,2.026-0.379c0.806,0.063,1.815,0.441,2.427,1.311c0.194,0.277,0.389,0.646,0.628,0.873
				c0.378,0.357,0.73,0.518,1.051,0.506c0.161-0.043,0.259-0.096,0.259-0.096c0.016,0.598-0.553,1.025-1.136,1.055
				c-0.003,0.008-0.006,0.016-0.01,0.025c0.046,0.83-0.751,1.736-0.751,1.736s0.005-0.014,0.013-0.037
				c-0.345,0.426-1.016,0.639-1.016,0.639s0.361-0.381,0.454-1.313c-0.374,0.098-0.858,0.111-1.447-0.1
				c-1.541-0.555-1.699-2.529-1.699-3.082c0-0.021,0.013-0.035,0.02-0.051c-0.001-0.021-0.001-0.043-0.002-0.063
				c-0.099,0.205-0.185,0.492-0.22,0.896c0,0-0.345-0.492-0.282-1.035c0.03-0.27,0.155-0.545,0.377-0.643c0.001,0,0.003,0,0.004,0
				c-0.25-0.096-0.496-0.174-0.731-0.225c0.03-0.008,0.059-0.01,0.089-0.018C204.397-294.885,204.375-294.885,204.375-294.885z"/>
			<path fill="#FBA919" d="M207.407-278.606c-0.264-0.393-0.48-0.816-0.667-1.252c-0.344-0.027-0.682-0.066-1.007-0.129
				C206.084-279.469,206.625-278.924,207.407-278.606z"/>
			<path fill="#FBA919" d="M216.8-279.858c-0.188,0.436-0.403,0.859-0.666,1.252c0.781-0.318,1.321-0.863,1.672-1.379
				C217.48-279.924,217.143-279.885,216.8-279.858z"/>
			<path fill="#FBA919" d="M211.77-278.43c3.209-0.004,4.297-1.633,4.297-1.633l-0.109,0.268c0.191-0.377,0.32-0.725,0.41-0.982
				c0.197-0.568,0.182-0.988-0.047-1.248c-0.156-0.18-0.516-0.393-1.334-0.393h-0.855c-0.631,0-1.424-0.002-2.361-0.002
				c-0.938,0-1.73,0.002-2.362,0.002h-0.855c-0.818,0-1.178,0.213-1.334,0.393c-0.229,0.26-0.244,0.68-0.046,1.248
				c0.089,0.258,0.217,0.605,0.409,0.982l-0.11-0.268C207.471-280.063,208.559-278.434,211.77-278.43z M213.029-281.442
				c0.093-0.096,0.254-0.145,0.479-0.145h0.348c0.361,0,0.784,0,1.035,0h0.211c0.297,0,0.443,0.086,0.513,0.156
				s0.095,0.158,0.086,0.264h0.015c0,0-0.297,1.809-1.481,1.809c-1.007,0-1.304-1.529-1.304-1.844h0.021
				C212.944-281.278,212.955-281.365,213.029-281.442z M207.839-281.166c-0.009-0.105,0.017-0.193,0.085-0.264
				c0.071-0.07,0.217-0.156,0.514-0.156h0.211c0.251,0,0.674,0,1.036,0h0.347c0.226,0,0.387,0.049,0.479,0.145
				c0.074,0.076,0.085,0.164,0.076,0.24h0.022c0,0.314-0.297,1.844-1.304,1.844c-1.185,0-1.481-1.809-1.481-1.809H207.839z"/>
			<path fill="#FBA919" d="M207.657-300.467c-0.33-0.486-1.077-1.432-2.046-1.744c-0.306-0.1-0.628-0.15-0.957-0.15
				c-0.596,0-1.08,0.164-1.337,0.273c0.164,0.074,0.341,0.174,0.517,0.291c0.132-0.023,0.304-0.045,0.506-0.045
				c0.569,0,1.107,0.166,1.558,0.482c0.668,0.471,0.977,0.916,1.118,1.211c0.119-0.068,0.246-0.135,0.382-0.203
				C207.482-300.393,207.57-300.428,207.657-300.467z"/>
			<path fill="#FBA919" d="M217.928-302.211c-0.969,0.313-1.715,1.26-2.045,1.744c0.086,0.039,0.174,0.076,0.258,0.115
				c0.137,0.068,0.264,0.135,0.383,0.203c0.143-0.295,0.451-0.74,1.119-1.211c0.449-0.316,0.987-0.482,1.557-0.482
				c0.201,0,0.375,0.021,0.506,0.045c0.176-0.117,0.354-0.217,0.517-0.291c-0.257-0.109-0.74-0.271-1.337-0.271
				C218.555-302.36,218.235-302.311,217.928-302.211z"/>
		</g>
		<path fill="#FBA919" d="M217.412-299.994c-0.028,0.066-0.054,0.129-0.074,0.188l0.027,0.004
			C217.365-299.803,217.378-299.879,217.412-299.994z"/>
		<path fill="#FFFFFF" d="M216.354-293.485c-0.527,0.377-0.979,0.777-1.28,1.141c0.083,0.033,0.675,0.268,1.338,0.047
			c0.837-0.279,0.976-1.084,0.995-1.252c-0.005-0.086-0.013-0.166-0.025-0.244c-0.017-0.113-0.041-0.215-0.07-0.303
			C216.979-293.908,216.655-293.699,216.354-293.485z"/>
		<g>
			<path fill="#E78724" d="M207.516-283.848c0.11-0.223,0.213-0.461,0.298-0.711c0.028-0.082,0.65-1.697,1.101-2.703
				c-0.323,0.492-1.398,2.131-2.227,3.355C206.969-283.873,207.248-283.854,207.516-283.848z"/>
			<path fill="#E78724" d="M206.263-299.623c-0.015-0.049-0.034-0.109-0.061-0.184l-0.028,0.004c0,0-0.014-0.078-0.049-0.197
				c-0.122-0.281-0.313-0.619-0.597-0.844c-0.3-0.24-0.659-0.363-1.065-0.377c0.045,0.057,0.095,0.109,0.135,0.172
				c0.18,0.283,0.209,0.631,0.237,0.965c0.028,0.35,0.059,0.68,0.24,0.92c0.225,0.043,0.435,0.094,0.618,0.145
				C205.816-299.19,206-299.399,206.263-299.623z"/>
			<path fill="#E78724" d="M209.012-291.221c-0.049-0.172-0.106-0.328-0.162-0.461c0-0.002,0-0.002,0-0.002
				c-0.001,0.002-0.002,0.002-0.003,0.002c-0.098,0.088-0.198,0.158-0.303,0.215c-1.02,0.561-2.326-0.168-2.664-0.543
				c-0.5-0.555-0.655-1.24-0.688-1.787c-0.007,0.016-0.02,0.029-0.02,0.051c0,0.553,0.158,2.527,1.699,3.082
				c0.589,0.211,1.073,0.197,1.447,0.1c-0.093,0.932-0.454,1.313-0.454,1.313s0.671-0.213,1.016-0.639
				c0.046-0.135,0.19-0.604,0.172-1.035C209.05-291.028,209.039-291.127,209.012-291.221z"/>
			<path fill="#E78724" d="M208.843-293.145c0.624,0.717,1.305,0.668,1.664,0.57c-0.32,0.012-0.673-0.148-1.051-0.506
				c-0.239-0.227-0.434-0.596-0.628-0.873c-0.611-0.869-1.621-1.248-2.427-1.311c-1.374-0.107-2.026,0.379-2.026,0.379
				s0.022,0,0.053,0.002C206.671-295.373,208.322-293.742,208.843-293.145z"/>
			<path fill="#E78724" d="M204.064-290.426c0.154,0.084,0.309,0.168,0.456,0.252c0.47,0.27,0.976,0.906,1.032,1.852
				c0.012,0.195,0.015,0.459,0.011,0.764c-0.001,0.043-0.001,0.088-0.002,0.135c-0.009,0.455-0.032,0.992-0.064,1.541
				c-0.016,0.258-0.033,0.518-0.053,0.773c-0.023,0.311-0.05,0.613-0.076,0.895c0.173,0.068,0.353,0.123,0.535,0.17
				c0.143-0.436,0.438-1.447,0.541-2.379c0.142-1.277,0.091-3.146,0.091-3.146s-0.169,0.65-0.367,1.08
				c-0.034-0.902-0.162-2.031-1.138-2.389c0,0-1.341-0.463-1.869-1.051c0.213-0.174,0.563-0.602,0.697-1.59
				c0.121-0.893,0.006-1.709-0.102-2.211c0.029,0.355,0.033,0.701,0.003,0.951c-0.165,1.346-0.659,2.129-0.807,2.34
				c-0.027,0.037-0.046,0.063-0.046,0.063c0.043-0.086,0.096-0.418,0.146-0.809c-0.039,0.035-0.079,0.066-0.118,0.098l-0.026,0.021
				c-0.03,0.025-0.061,0.051-0.091,0.074c-0.211,0.178-0.39,0.389-0.39,0.914C202.427-291.311,203.26-290.86,204.064-290.426z"/>
			<path fill="#E78724" d="M208.074-299.676c-0.111,0.049-0.223,0.096-0.33,0.148c-0.774,0.377-1.062,0.66-1.17,0.816
				c1.194,0.531,2.044,1.42,2.498,1.988c-0.345-0.879-1.044-2.031-1.044-2.031S207.884-299.156,208.074-299.676z"/>
			<path fill="#E78724" d="M209.305-279.358c1.007,0,1.304-1.529,1.304-1.844h-0.022c-0.005,0.045-0.016,0.09-0.028,0.119
				c-0.058,0.145-0.299,0.613-0.705,1.049c-0.146,0.154-0.358,0.242-0.598,0.242c-0.233,0-0.472-0.086-0.637-0.229
				c-0.126-0.109-0.554-0.502-0.743-0.982c-0.022-0.061-0.033-0.113-0.037-0.164h-0.015
				C207.824-281.166,208.121-279.358,209.305-279.358z"/>
			<path fill="#E78724" d="M215.725-284.559c0.084,0.25,0.188,0.488,0.297,0.711c0.27-0.006,0.549-0.025,0.829-0.059
				c-0.828-1.225-1.902-2.861-2.226-3.355C215.075-286.256,215.696-284.641,215.725-284.559z"/>
			<path fill="#E78724" d="M218.942-301.049c0.04-0.063,0.09-0.115,0.135-0.172c-0.406,0.014-0.766,0.137-1.066,0.377
				c-0.285,0.227-0.477,0.566-0.599,0.85c-0.034,0.115-0.047,0.191-0.047,0.191l-0.027-0.004c-0.027,0.074-0.046,0.135-0.062,0.186
				c0.264,0.225,0.447,0.432,0.568,0.602c0.185-0.051,0.395-0.102,0.619-0.145c0.182-0.24,0.211-0.57,0.24-0.92
				C218.733-300.418,218.762-300.766,218.942-301.049z"/>
			<path fill="#E78724" d="M214.995-291.467c-0.104-0.057-0.206-0.127-0.304-0.215c-0.001,0-0.001,0-0.002-0.002
				c0,0,0,0-0.001,0.002c-0.055,0.133-0.113,0.289-0.161,0.461c-0.026,0.094-0.036,0.193-0.041,0.295
				c-0.019,0.43,0.124,0.895,0.171,1.031c0.344,0.428,1.016,0.643,1.016,0.643s-0.36-0.381-0.453-1.313
				c0.375,0.098,0.859,0.111,1.447-0.1c1.541-0.555,1.699-2.529,1.699-3.082c0-0.021-0.013-0.035-0.02-0.053
				c-0.032,0.549-0.188,1.234-0.688,1.789C217.321-291.635,216.014-290.906,214.995-291.467z"/>
			<path fill="#E78724" d="M214.698-293.145c0.52-0.598,2.172-2.229,4.414-1.738c0.031-0.002,0.053-0.002,0.053-0.002
				s-0.652-0.486-2.026-0.379c-0.806,0.063-1.815,0.441-2.427,1.311c-0.194,0.277-0.389,0.646-0.629,0.873
				c-0.376,0.357-0.729,0.518-1.05,0.506C213.392-292.477,214.073-292.428,214.698-293.145z"/>
			<path fill="#E78724" d="M215.958-279.795l0.109-0.268c0,0-1.088,1.629-4.297,1.633c-3.211-0.004-4.299-1.633-4.299-1.633
				l0.11,0.268c0.574,1.127,1.729,2.518,4.183,2.523c0.002,0,0.003,0,0.006,0c0.002,0,0.004,0,0.005,0
				C214.229-277.278,215.383-278.666,215.958-279.795z"/>
			<path fill="#E78724" d="M215.511-298.754c0,0-0.699,1.154-1.044,2.031c0.454-0.568,1.303-1.457,2.496-1.988
				c-0.106-0.154-0.395-0.439-1.169-0.816c-0.106-0.053-0.218-0.1-0.329-0.148C215.656-299.156,215.511-298.754,215.511-298.754z"/>
			<path fill="#E78724" d="M214.234-279.358c1.185,0,1.481-1.809,1.481-1.809h-0.015c-0.005,0.051-0.015,0.104-0.038,0.164
				c-0.188,0.48-0.615,0.873-0.742,0.982c-0.166,0.143-0.403,0.229-0.637,0.229c-0.239,0-0.451-0.088-0.598-0.242l0,0
				c-0.406-0.436-0.648-0.904-0.705-1.049c-0.014-0.029-0.023-0.074-0.029-0.119h-0.021
				C212.93-280.887,213.227-279.358,214.234-279.358z"/>
			<path fill="#E78724" d="M219.681-293.52c0.134,0.988,0.483,1.416,0.696,1.59c-0.527,0.588-1.867,1.051-1.867,1.051
				c-0.977,0.357-1.104,1.486-1.139,2.389c-0.198-0.43-0.366-1.08-0.366-1.08s-0.052,1.869,0.089,3.146
				c0.104,0.932,0.398,1.943,0.543,2.379c0.183-0.047,0.361-0.102,0.535-0.17c-0.027-0.281-0.055-0.584-0.078-0.893
				c-0.063-0.855-0.109-1.762-0.118-2.451c-0.004-0.305-0.001-0.568,0.011-0.764c0.057-0.945,0.563-1.582,1.033-1.852
				c0.146-0.084,0.301-0.168,0.455-0.252c0.805-0.434,1.637-0.885,1.637-1.652c0-0.525-0.179-0.736-0.389-0.912
				c-0.03-0.025-0.061-0.051-0.092-0.076l-0.027-0.021c-0.037-0.031-0.078-0.064-0.117-0.098c0.05,0.391,0.103,0.723,0.145,0.809
				c0,0-0.019-0.025-0.045-0.063c-0.146-0.209-0.641-0.994-0.807-2.34c-0.029-0.248-0.025-0.594,0.003-0.949
				C219.675-295.227,219.561-294.41,219.681-293.52z"/>
			<path fill="#E78724" d="M210.533-294.791c-0.148-0.148-0.242-0.262-0.242-0.262c0.539,0.326,1.02,0.439,1.479,0.449
				c0.459-0.01,0.939-0.123,1.479-0.449c0,0-0.094,0.113-0.243,0.264c0.337-0.316,0.527-0.65,0.527-0.65
				c-0.525,0.379-1.226,0.393-1.763,0.393s-1.237-0.014-1.764-0.393C210.007-295.44,210.197-295.108,210.533-294.791z"/>
		</g>
		<path fill="#463014" d="M211.77-294.604c-0.46-0.01-0.94-0.123-1.479-0.449c0,0,0.094,0.113,0.242,0.262
			c0.285,0.283,0.778,0.699,1.233,0.703v0.002c0.001,0,0.002-0.002,0.004-0.002c0.001,0,0.002,0.002,0.004,0.002v-0.002
			c0.453-0.004,0.945-0.418,1.231-0.701c0.149-0.15,0.243-0.264,0.243-0.264C212.71-294.727,212.229-294.614,211.77-294.604z"/>
		<path fill="#FFFFFF" d="M218.774-283.617c-0.743,0.363-1.588,0.51-2.314,0.541c0.148,0.232,0.285,0.422,0.386,0.553
			c0.024,0.023,0.05,0.047,0.071,0.07c0.206,0.223,0.323,0.488,0.354,0.797c0.475-0.033,0.928-0.148,1.338-0.342
			c1.125-0.529,1.914-1.668,1.851-3.461C220.149-284.561,219.514-283.981,218.774-283.617z"/>
		<path fill="#FFFFFF" d="M220.262-286.981c0,0,0.001,0.006,0.003,0.014c0-0.004,0.001-0.006,0.002-0.008
			C220.265-286.977,220.264-286.979,220.262-286.981z"/>
		<g>
			<path fill="#C9C9C9" d="M207.128-292.297c-0.838-0.279-0.976-1.086-0.995-1.254c-0.028,0.492,0.073,1.076,0.47,1.371
				c0.882,0.656,1.745,0.27,2.057,0.09l-0.001-0.002c-0.054-0.08-0.12-0.166-0.192-0.252
				C208.383-292.311,207.791-292.076,207.128-292.297z"/>
			<path fill="#C9C9C9" d="M203.08-285.459c-0.009-0.027-0.021-0.051-0.029-0.078c-0.271,0.271-0.455,2.119,0.202,3.201
				c0.295,0.484,0.722,0.85,1.211,1.113c0.241,0.131,0.496,0.238,0.762,0.316c0.013,0.004,0.025,0.01,0.038,0.014
				c0.175,0.049,0.353,0.086,0.531,0.113c0.202,0.031,0.405,0.045,0.607,0.047c-0.033-0.1-0.061-0.197-0.082-0.291
				c-0.051-0.227-0.07-0.439-0.051-0.633c-0.417-0.029-0.818-0.119-1.188-0.271C203.876-282.426,203.013-283.588,203.08-285.459z"/>
			<path fill="#C9C9C9" d="M216.412-292.297c-0.663,0.221-1.255-0.014-1.338-0.047c-0.073,0.086-0.139,0.172-0.192,0.252
				l-0.001,0.002c0.31,0.18,1.174,0.566,2.057-0.09c0.396-0.295,0.497-0.877,0.47-1.369
				C217.387-293.381,217.249-292.576,216.412-292.297z"/>
			<path fill="#C9C9C9" d="M218.608-281.998c-0.41,0.193-0.863,0.309-1.338,0.342c0.02,0.193,0,0.406-0.051,0.633
				c-0.021,0.094-0.049,0.191-0.082,0.291c0.202-0.002,0.405-0.016,0.607-0.047c0.179-0.027,0.355-0.064,0.53-0.113
				c0.056-0.016,0.108-0.039,0.161-0.057c0.223-0.072,0.436-0.164,0.64-0.273c0.489-0.264,0.917-0.629,1.211-1.113
				c0.657-1.082,0.474-2.93,0.202-3.201c-0.009,0.029-0.021,0.053-0.03,0.078C220.522-283.666,219.733-282.528,218.608-281.998z"/>
		</g>
		<g>
			<path fill="#463014" d="M205.07-294.641c-0.001,0-0.003,0-0.004,0c-0.222,0.098-0.347,0.373-0.377,0.643
				c-0.063,0.543,0.282,1.035,0.282,1.035c0.035-0.404,0.121-0.691,0.22-0.896c0.001,0.02,0.001,0.041,0.002,0.063
				c0.032,0.547,0.188,1.232,0.688,1.787c0.338,0.375,1.645,1.104,2.664,0.543c0.104-0.057,0.205-0.127,0.303-0.215
				c0.001,0,0.002,0,0.003-0.002c0,0,0,0,0,0.002c0.056,0.133,0.113,0.289,0.162,0.461c0.026,0.094,0.037,0.193,0.041,0.295
				c0.019,0.432-0.126,0.9-0.172,1.035c-0.008,0.023-0.013,0.037-0.013,0.037s0.797-0.906,0.751-1.736
				c-0.001-0.008-0.001-0.018-0.002-0.025c0.005,0,0.009,0,0.012,0c0.583-0.029,1.151-0.457,1.136-1.055
				c0,0-0.098,0.053-0.259,0.096c-0.359,0.098-1.04,0.146-1.664-0.57c-0.521-0.598-2.172-2.229-4.415-1.738
				c-0.03,0.008-0.059,0.01-0.089,0.018C204.574-294.815,204.82-294.737,205.07-294.641z M208.466-292.344
				c0.072,0.086,0.139,0.172,0.192,0.252l0.001,0.002c-0.312,0.18-1.175,0.566-2.057-0.09c-0.396-0.295-0.498-0.879-0.47-1.371
				c0.005-0.084,0.013-0.164,0.024-0.242c0.018-0.113,0.042-0.215,0.07-0.303c0.334,0.188,0.657,0.395,0.958,0.611
				C207.713-293.108,208.164-292.707,208.466-292.344z"/>
			<path fill="#463014" d="M208.619-280.02c0.165,0.143,0.403,0.229,0.637,0.229c0.239,0,0.452-0.088,0.598-0.242
				c0.406-0.436,0.647-0.904,0.705-1.049c0.013-0.029,0.023-0.074,0.028-0.119c0.009-0.076-0.002-0.164-0.076-0.24
				c-0.093-0.096-0.254-0.145-0.479-0.145h-0.347c-0.362,0-0.785,0-1.036,0h-0.211c-0.297,0-0.442,0.086-0.514,0.156
				c-0.068,0.07-0.094,0.158-0.085,0.264c0.004,0.051,0.015,0.104,0.037,0.164C208.065-280.522,208.493-280.129,208.619-280.02z"/>
			<path fill="#463014" d="M214.698-293.145c-0.625,0.717-1.306,0.668-1.665,0.57c-0.161-0.043-0.259-0.096-0.259-0.096
				c-0.016,0.598,0.553,1.025,1.135,1.055c0.004,0,0.008,0,0.012,0c0,0.01,0,0.018,0,0.025c-0.047,0.832,0.75,1.736,0.75,1.736
				s-0.006-0.016-0.014-0.041c-0.047-0.137-0.189-0.602-0.171-1.031c0.005-0.102,0.015-0.201,0.041-0.295
				c0.048-0.172,0.106-0.328,0.161-0.461c0.001-0.002,0.001-0.002,0.001-0.002c0.001,0.002,0.001,0.002,0.002,0.002
				c0.098,0.088,0.199,0.158,0.304,0.215c1.02,0.561,2.326-0.168,2.663-0.543c0.501-0.555,0.656-1.24,0.688-1.789
				c0.001-0.02,0.001-0.041,0.002-0.063c0.099,0.207,0.184,0.494,0.22,0.898c0,0,0.345-0.492,0.282-1.035
				c-0.031-0.27-0.154-0.545-0.377-0.643c-0.002,0-0.003,0-0.004,0c0.25-0.096,0.496-0.174,0.73-0.225
				c-0.029-0.008-0.059-0.01-0.088-0.018C216.87-295.373,215.218-293.742,214.698-293.145z M217.407-293.549
				c0.027,0.492-0.074,1.074-0.47,1.369c-0.883,0.656-1.747,0.27-2.057,0.09l0.001-0.002c0.054-0.08,0.119-0.166,0.192-0.252
				c0.301-0.363,0.753-0.764,1.28-1.141c0.301-0.215,0.625-0.424,0.957-0.611c0.029,0.088,0.054,0.189,0.07,0.303
				C217.394-293.715,217.402-293.635,217.407-293.549z"/>
			<path fill="#463014" d="M213.686-280.033L213.686-280.033c0.146,0.154,0.358,0.242,0.598,0.242c0.233,0,0.471-0.086,0.637-0.229
				c0.127-0.109,0.554-0.502,0.742-0.982c0.023-0.061,0.033-0.113,0.038-0.164c0.009-0.105-0.017-0.193-0.086-0.264
				s-0.216-0.156-0.513-0.156h-0.211c-0.251,0-0.674,0-1.035,0h-0.348c-0.226,0-0.387,0.049-0.479,0.145
				c-0.074,0.076-0.085,0.164-0.077,0.24c0.006,0.045,0.016,0.09,0.029,0.119C213.038-280.938,213.28-280.469,213.686-280.033z"/>
			<path fill="#463014" d="M220.287-287.069c-0.005,0.033-0.015,0.063-0.02,0.094c-0.001,0.002-0.002,0.004-0.002,0.008
				c-0.155,0.926-0.708,1.746-1.312,2.264c-0.164-1.23-0.199-3.002-0.199-3.375c0-0.795,0.514-1.328,0.66-1.412
				c0.137-0.078,0.291-0.16,0.451-0.246c0.975-0.523,2.188-1.172,2.188-2.369c0-0.875-0.502-1.256-0.836-1.508
				c-0.041-0.031-0.08-0.061-0.116-0.088c-0.112-0.092-0.202-0.164-0.234-0.238c-0.235-0.529-0.192-1.854-0.091-2.035
				c0.031-0.035,0.906-1.135,0.638-2.121c-0.11-0.402-0.374-0.721-0.765-0.922c-0.287-0.146-0.645-0.225-1.059-0.24
				c-0.004-0.107-0.026-0.215-0.049-0.32c-0.031-0.143-0.063-0.287-0.05-0.438c0.022-0.252,0.042-0.49,0.117-0.609
				c0.458-0.723,1.563-0.953,1.573-0.955l0.664-0.131l-0.439-0.514c-0.008-0.01-0.937-0.947-2.508-0.947
				c-0.429,0-0.867,0.072-1.305,0.213c-1.315,0.424-2.326,1.658-2.675,2.129c-0.169-0.051-0.339-0.1-0.513-0.143
				c-0.231-0.855,0.48-2.088,0.48-2.088s-0.734-0.164-1.822,0.824c-0.142-0.352-0.438-1.111-0.096-2.016
				c-1.596,0.563-2,1.424-2.119,2.203c-0.41-0.293-0.364-1.25-0.388-1.494c-0.408,0.049-1.578,1.186-1.525,2.617
				c-0.107,0.029-0.212,0.064-0.316,0.096c-0.349-0.471-1.359-1.705-2.676-2.129c-0.438-0.141-0.876-0.213-1.305-0.213
				c-1.571,0-2.499,0.936-2.507,0.945l-0.44,0.516l0.664,0.131c0.011,0.002,1.116,0.232,1.573,0.955
				c0.075,0.119,0.096,0.357,0.117,0.609c0.013,0.148-0.02,0.295-0.05,0.436c-0.022,0.107-0.045,0.215-0.05,0.322
				c-0.412,0.016-0.771,0.094-1.058,0.24c-0.391,0.201-0.654,0.52-0.765,0.922c-0.269,0.986,0.607,2.086,0.638,2.121
				c0.102,0.182,0.145,1.506-0.091,2.035c-0.032,0.074-0.122,0.146-0.234,0.238c-0.035,0.027-0.074,0.057-0.116,0.088
				c-0.333,0.252-0.837,0.633-0.837,1.508c0,1.197,1.214,1.846,2.189,2.369c0.16,0.086,0.313,0.168,0.451,0.246
				c0.146,0.084,0.659,0.617,0.66,1.412c0,0.373-0.035,2.145-0.2,3.375c-0.604-0.518-1.156-1.338-1.312-2.264
				c0-0.004-0.001-0.006-0.002-0.008c-0.005-0.031-0.015-0.061-0.02-0.094c0,0-1.583,1.223-1.118,3.838
				c0.284,1.598,1.256,2.492,2.545,2.961c0.474,1.033,1.588,2.473,3.642,2.686c0.782,0.643,1.864,1.061,3.445,1.063l0,0
				c0.001,0,0.002,0,0.004,0c0.001,0,0.002,0,0.004,0l0,0c1.58-0.002,2.662-0.42,3.443-1.063c2.055-0.213,3.168-1.652,3.643-2.686
				c1.289-0.469,2.26-1.363,2.545-2.961C221.87-285.846,220.287-287.069,220.287-287.069z M216.134-278.606
				c0.263-0.393,0.479-0.816,0.666-1.252c0.344-0.027,0.681-0.066,1.006-0.127C217.455-279.469,216.915-278.924,216.134-278.606z
				 M211.775-277.272c-0.001,0-0.003,0-0.005,0c-0.003,0-0.004,0-0.006,0c-2.454-0.006-3.608-1.396-4.183-2.523
				c-0.192-0.377-0.32-0.725-0.409-0.982c-0.198-0.568-0.183-0.988,0.046-1.248c0.156-0.18,0.516-0.393,1.334-0.393h0.855
				c0.632,0,1.424-0.002,2.362-0.002c0.938,0,1.73,0.002,2.361,0.002h0.855c0.818,0,1.178,0.213,1.334,0.393
				c0.229,0.26,0.244,0.68,0.047,1.248c-0.09,0.258-0.219,0.605-0.41,0.982C215.383-278.666,214.229-277.278,211.775-277.272z
				 M202.817-292.992c0.03-0.023,0.061-0.049,0.091-0.074l0.026-0.021c0.039-0.031,0.079-0.063,0.118-0.098
				c-0.05,0.391-0.103,0.723-0.146,0.809c0,0,0.019-0.025,0.046-0.063c0.147-0.211,0.642-0.994,0.807-2.34
				c0.03-0.25,0.026-0.596-0.003-0.951c-0.043-0.537-0.144-1.096-0.274-1.379c0.009,0.264,0,0.527-0.018,0.779
				c-0.021-0.045-0.044-0.086-0.069-0.119c-0.175-0.217-0.642-0.947-0.507-1.439c0.051-0.188,0.169-0.326,0.361-0.426
				c0.203-0.104,0.479-0.156,0.816-0.156c0.665,0,1.402,0.203,1.782,0.324c1.359,0.43,3,1.672,3.471,2.043
				c0.013,0.01,0.021,0.016,0.022,0.018l0.3,0.209l-0.188-0.316c-0.004-0.006-0.135-0.221-0.382-0.529
				c-0.454-0.568-1.304-1.457-2.498-1.988c0.108-0.156,0.396-0.439,1.17-0.816c0.107-0.053,0.219-0.1,0.33-0.148
				c1.086-0.467,2.326-0.705,3.695-0.707c1.37,0.002,2.61,0.24,3.696,0.707c0.111,0.049,0.223,0.096,0.329,0.148
				c0.774,0.377,1.063,0.662,1.169,0.816c-1.193,0.531-2.042,1.42-2.496,1.988c-0.246,0.309-0.378,0.523-0.383,0.529l-0.188,0.316
				l0.301-0.209c0.002-0.002,0.01-0.008,0.023-0.018c0.471-0.371,2.11-1.613,3.47-2.043c0.38-0.121,1.118-0.324,1.782-0.324
				c0.338,0,0.613,0.053,0.816,0.156c0.192,0.1,0.311,0.238,0.361,0.426c0.135,0.492-0.332,1.223-0.506,1.439
				c-0.025,0.033-0.049,0.074-0.07,0.119c-0.018-0.252-0.027-0.516-0.018-0.779c-0.131,0.285-0.231,0.844-0.274,1.381
				c-0.028,0.355-0.032,0.701-0.003,0.949c0.166,1.346,0.66,2.131,0.807,2.34c0.026,0.037,0.045,0.063,0.045,0.063
				c-0.042-0.086-0.095-0.418-0.145-0.809c0.039,0.033,0.08,0.066,0.117,0.098l0.027,0.021c0.031,0.025,0.062,0.051,0.092,0.076
				c0.21,0.176,0.389,0.387,0.389,0.912c0,0.768-0.832,1.219-1.637,1.652c-0.154,0.084-0.309,0.168-0.455,0.252
				c-0.471,0.27-0.977,0.906-1.033,1.852c-0.012,0.195-0.015,0.459-0.011,0.764c0.009,0.689,0.055,1.596,0.118,2.451
				c0.023,0.309,0.051,0.611,0.078,0.893c-0.174,0.068-0.353,0.123-0.535,0.17c-0.258,0.064-0.522,0.107-0.786,0.139
				c-0.28,0.033-0.56,0.053-0.829,0.059c-0.109-0.223-0.213-0.461-0.297-0.711c-0.029-0.082-0.65-1.697-1.1-2.703
				c-0.13-0.289-0.246-0.531-0.33-0.668c0.297,2.115,0.951,3.996,1.275,4.857c-0.189-0.025-0.396-0.045-0.636-0.045l-3.161-0.002
				h-0.008c-0.911,0.002-3.162,0.002-3.162,0.002c-0.24,0-0.446,0.02-0.636,0.045c0.324-0.861,0.979-2.742,1.274-4.857
				c-0.082,0.135-0.198,0.377-0.328,0.668c-0.45,1.006-1.072,2.621-1.101,2.703c-0.085,0.25-0.188,0.488-0.298,0.711
				c-0.269-0.006-0.548-0.025-0.828-0.059c-0.264-0.031-0.528-0.074-0.785-0.139c-0.183-0.047-0.362-0.102-0.535-0.17
				c0.026-0.281,0.053-0.584,0.076-0.895c0.02-0.256,0.037-0.516,0.053-0.773c0.032-0.549,0.056-1.086,0.064-1.541
				c0.001-0.047,0.001-0.092,0.002-0.135c0.004-0.305,0.001-0.568-0.011-0.764c-0.057-0.945-0.563-1.582-1.032-1.852
				c-0.147-0.084-0.302-0.168-0.456-0.252c-0.805-0.434-1.637-0.885-1.637-1.652C202.427-292.604,202.606-292.815,202.817-292.992z
				 M205.076-299.164c-0.182-0.24-0.212-0.57-0.24-0.92c-0.028-0.334-0.058-0.682-0.237-0.965c-0.04-0.063-0.09-0.115-0.135-0.172
				c0.406,0.014,0.766,0.137,1.065,0.377c0.283,0.225,0.475,0.563,0.597,0.844c0.029,0.068,0.056,0.135,0.077,0.193
				c0.026,0.074,0.046,0.135,0.061,0.184c-0.264,0.225-0.447,0.434-0.569,0.604C205.51-299.071,205.301-299.121,205.076-299.164z
				 M205.897-301.36c-0.45-0.316-0.988-0.482-1.558-0.482c-0.202,0-0.374,0.021-0.506,0.045c-0.176-0.117-0.353-0.217-0.517-0.291
				c0.257-0.109,0.741-0.273,1.337-0.273c0.329,0,0.651,0.051,0.957,0.15c0.969,0.313,1.716,1.258,2.046,1.744
				c-0.087,0.039-0.175,0.074-0.26,0.115c-0.136,0.068-0.263,0.135-0.382,0.203C206.874-300.444,206.565-300.889,205.897-301.36z
				 M217.844-299.02c-0.121-0.17-0.305-0.377-0.568-0.602c0.016-0.051,0.034-0.111,0.062-0.186c0.021-0.059,0.046-0.121,0.074-0.188
				c0.122-0.283,0.313-0.623,0.599-0.85c0.301-0.24,0.66-0.363,1.066-0.377c-0.045,0.057-0.095,0.109-0.135,0.172
				c-0.18,0.283-0.209,0.631-0.238,0.965c-0.029,0.35-0.059,0.68-0.24,0.92C218.239-299.121,218.029-299.071,217.844-299.02z
				 M219.706-301.797c-0.131-0.023-0.305-0.045-0.506-0.045c-0.569,0-1.107,0.166-1.557,0.482c-0.668,0.471-0.977,0.916-1.119,1.211
				c-0.119-0.068-0.246-0.135-0.383-0.203c-0.084-0.039-0.172-0.076-0.258-0.115c0.33-0.484,1.076-1.432,2.045-1.744
				c0.307-0.1,0.627-0.148,0.957-0.148c0.597,0,1.08,0.162,1.337,0.271C220.059-302.014,219.882-301.914,219.706-301.797z
				 M220.459-285.459c0.01-0.025,0.021-0.049,0.03-0.078c0.271,0.271,0.455,2.119-0.202,3.201c-0.294,0.484-0.722,0.85-1.211,1.113
				c-0.204,0.109-0.417,0.201-0.64,0.273c-0.053,0.018-0.105,0.041-0.161,0.057c-0.175,0.049-0.352,0.086-0.53,0.113
				c-0.202,0.031-0.405,0.045-0.607,0.047c0.033-0.1,0.061-0.197,0.082-0.291c0.051-0.227,0.07-0.439,0.051-0.633
				c-0.03-0.309-0.147-0.574-0.354-0.797c-0.021-0.023-0.047-0.047-0.071-0.07c-0.101-0.131-0.237-0.32-0.386-0.553
				c0.727-0.031,1.571-0.178,2.314-0.541C219.514-283.981,220.149-284.561,220.459-285.459z M205.031-283.496
				c0.674,0.275,1.407,0.393,2.049,0.42c-0.149,0.234-0.286,0.424-0.387,0.555c-0.024,0.021-0.049,0.045-0.07,0.068
				c-0.206,0.223-0.323,0.488-0.354,0.797c-0.02,0.193,0,0.406,0.051,0.633c0.021,0.094,0.049,0.191,0.082,0.291
				c-0.202-0.002-0.405-0.016-0.607-0.047c-0.179-0.027-0.356-0.064-0.531-0.113c-0.013-0.004-0.025-0.01-0.038-0.014
				c-0.266-0.078-0.521-0.186-0.762-0.316c-0.489-0.264-0.916-0.629-1.211-1.113c-0.657-1.082-0.473-2.93-0.202-3.201
				c0.008,0.027,0.021,0.051,0.029,0.078C203.427-284.455,204.179-283.846,205.031-283.496z M206.74-279.858
				c0.187,0.436,0.403,0.859,0.667,1.252c-0.782-0.318-1.323-0.863-1.674-1.381C206.058-279.924,206.396-279.885,206.74-279.858z"/>
		</g>
	</g>
</g>
<g>
	<rect x="248.082" y="-318.666" fill="#CC6699" width="56.693" height="56.693"/>
	<g>
		<path fill="#FFFFFF" d="M284.139-292.539c-4.199,1.609-7.592,1.322-8.914,0.861c-1.667-0.574-2.646-1.666-2.876-2.299
			c-0.113-0.23-0.344-0.863,0.115-1.094c0.404-0.23,0.633,0,0.977,0.402c0.059,0.059,1.382,1.438,4.487,1.094
			c5.117-0.576,8.451-3.451,9.775-5.752c0.807-1.381,0.979-2.645,0.52-3.623c-0.23-0.518-0.865-0.977-1.785-1.322
			c-2.242-0.805-6.498-0.689-11.73,1.898c-5.923,2.932-8.97,5.98-9.144,9.086c-0.117,2.473,2.012,4.141,4.313,5.865
			c0.979,0.805,2.07,1.609,2.875,2.473l0.059,0.057c0.863-0.287,1.954-0.459,3.563-0.459c2.186-0.057,4.084,0.633,5.35,1.957
			c0.979,1.033,1.494,2.299,1.438,3.564c-0.115,2.07-1.955,2.99-2.473,3.104c-0.172,0-0.633,0.059-0.748-0.402
			c-0.057-0.344,0.172-0.516,0.461-0.689c0.344-0.229,1.035-0.746,1.148-1.609c0.059-0.461-0.057-1.207-0.631-1.955
			c-0.518-0.691-1.611-1.555-3.854-1.842c-1.15-0.115-2.186-0.115-3.162,0.115c0.689,1.84,0.574,4.83-0.921,7.072
			c-1.494,2.244-3.91,3.566-6.383,3.566c-0.633,0-1.266-0.057-1.842-0.23c-0.572-0.172-1.148-0.748-1.494-1.494
			c-0.344-0.633-0.748-2.07,0.115-4.025c1.15-2.473,5.35-4.83,6.9-5.635c-0.518-0.461-1.207-0.92-1.955-1.439
			c-2.76-1.955-6.268-4.313-6.9-7.646c-0.287-1.209,0.287-4.258,3.969-7.707c3.68-3.393,8.567-5.463,11.155-6.383
			c4.313-1.553,9.027-1.496,11.963,0.057c1.494,0.807,2.473,1.955,2.816,3.336C292.303-299.672,288.969-294.494,284.139-292.539z"/>
		<path fill="#CC6699" d="M267.164-278.541c-1.225,1.227-1.634,2.627-1.518,3.326c0.059,0.232,0.116,0.408,0.293,0.525
			c0.582,0.35,2.391-0.059,3.731-1.518c0.466-0.465,0.816-0.99,1.05-1.516c0-0.117,0.058-0.234,0.116-0.35
			c0.059-0.117,0.059-0.234,0.117-0.352c0.292-0.932,0.35-1.924,0.175-2.975C270.663-281.164,268.621-280.057,267.164-278.541z"/>
	</g>
</g>
<g>
	<g>
		<rect x="312.742" y="-318.666" fill-rule="evenodd" clip-rule="evenodd" fill="#277000" width="56.693" height="56.693"/>
	</g>
	<g>
		<path fill-rule="evenodd" clip-rule="evenodd" fill="#3F3F3E" d="M321.743-271.115c0.702,0,1.405,0,2.107,0
			c0.154-0.131,0.321-0.25,0.461-0.396c0.326-0.34,0.708-0.578,1.164-0.699c0.603-0.16,1.138-0.463,1.669-0.775
			c0.887-0.52,1.739-1.09,2.596-1.658c1.125-0.75,2.236-1.521,3.436-2.156c1.404-0.744,2.893-1.268,4.405-1.73
			c-0.052-0.068-0.102-0.135-0.151-0.203c-0.287-0.246-0.576-0.49-0.863-0.736c-0.141-0.068-0.271-0.166-0.438-0.17
			c-0.707,0.557-1.447,1.066-2.242,1.492c-0.202,0.172-0.436,0.293-0.668,0.414c-0.818,0.479-1.626,0.977-2.48,1.393
			c-0.057,0.041-0.111,0.09-0.174,0.123c-1.58,0.861-3.172,1.701-4.807,2.457c-0.188,0.088-0.391,0.291-0.602,0.146
			c-0.195-0.131,0.028-0.357-0.028-0.568c-0.435,0.912-1.177,1.414-2.099,1.672c-0.537,0.152-1.09,0.219-1.649,0.234
			c0,0-0.288,0.057-0.533,0.363C320.601-271.606,320.922-271.115,321.743-271.115z"/>
		<path fill-rule="evenodd" clip-rule="evenodd" fill="#AEDB59" d="M352.256-302.741c-0.477-2.222-1.082-4.405-1.835-6.549
			c-0.056-0.16-0.079-0.344-0.325-0.15c-0.78,0.615-1.649,1.098-2.48,1.636c-1.074,0.697-2.181,1.342-3.214,2.099
			c0.154,0.012,0.229,0.095,0.278,0.2c-0.049-0.105-0.124-0.188-0.278-0.2c-1.784,1.144-3.497,2.385-5.114,3.757
			c-0.426,0.373-0.86,0.737-1.273,1.123c-1.234,1.148-2.342,2.4-3.123,3.91c-0.619,0.967-1.118,1.995-1.599,3.034
			c-0.481,1.04-0.811,2.133-1.159,3.222c-0.102,0.738-0.252,1.467-0.323,2.211c-0.053,0.558-0.066,1.115-0.022,1.666
			c0.079,0.971,0.258,1.928,0.558,2.863c0.536,1.672,1.479,2.998,3.077,3.805c0.255,0.127,0.527,0.232,0.707,0.473
			c0.167,0.004,0.297,0.102,0.438,0.17c0.824-1.746,1.646-3.492,2.474-5.236c0.066-0.139,0.068-0.281,0.078-0.424
			c-0.143-0.068-0.19-0.195-0.229-0.324c0.038,0.129,0.086,0.256,0.229,0.324c0.234-0.109,0.258-0.354,0.354-0.551
			c0.127-0.266,0.203-0.561,0.432-0.77c0.072-0.566,0.418-1.023,0.639-1.525c0.488-1.113,1.043-2.197,1.557-3.299
			c0.276-0.588,0.595-1.156,0.791-1.781l0,0c0.471-0.971,0.949-1.939,1.412-2.915c0.433-0.913,0.85-1.834,1.274-2.751
			c0.313-0.68,0.627-1.358,0.941-2.037c0.764-1.641,1.527-3.283,2.291-4.925c0.031,0.015,0.063,0.028,0.094,0.042
			c-0.23,0.548-0.459,1.098-0.692,1.646c-0.589,1.375-1.179,2.748-1.766,4.125c-0.037,0.086-0.049,0.184-0.071,0.276
			c-0.224,0.251-0.253,0.601-0.437,0.872c-0.514,1.221-1.021,2.441-1.54,3.658c-0.681,1.595-1.371,3.184-2.054,4.777
			c-0.027,0.063-0.029,0.139-0.042,0.21c0.283,0.995,0.618,1.976,0.952,2.956c-0.334-0.98-0.669-1.961-0.953-2.956
			c-0.358,0.612-0.572,1.29-0.869,1.931c-0.381,0.826-0.67,1.693-1.09,2.502c-0.447,1.063-0.893,2.127-1.342,3.191
			c-0.521,1.24-1.047,2.48-1.57,3.721c0.05,0.068,0.1,0.135,0.151,0.203c0.204,0.168,0.407,0.34,0.612,0.508
			c0.885,0.727,1.861,1.281,3.02,1.377c1.853,0.152,3.514-0.461,5.088-1.375c0.686-0.344,1.266-0.834,1.827-1.348
			c0.734-0.674,1.318-1.471,1.883-2.285c0.092-0.213,0.199-0.416,0.359-0.586c0.049-0.109,0.095-0.221,0.149-0.326
			c0.328-0.648,0.657-1.293,0.873-1.988c0.022-0.041,0.055-0.08,0.07-0.123c1.04-2.822,1.548-5.75,1.664-8.748
			C353.25-296.568,352.913-299.669,352.256-302.741z M342.529-293.158c0.045,0.087,0.104,0.141,0.195,0.143
			C342.634-293.018,342.574-293.072,342.529-293.158z"/>
		<path fill-rule="evenodd" clip-rule="evenodd" fill="#7FBE43" d="M335.422-280.114c-1.598-0.807-2.541-2.133-3.077-3.805
			c-0.3-0.936-0.479-1.893-0.558-2.863c-0.044-0.551-0.03-1.108,0.022-1.666c0.071-0.744,0.222-1.473,0.323-2.211
			c-0.783-0.546-1.588-1.055-2.454-1.463c-0.351-0.188-0.691-0.395-1.052-0.561c-1.504-0.689-3.016-1.361-4.52-2.053
			c-0.205-0.094-0.233-0.033-0.268,0.154c-0.229,1.262-0.369,2.533-0.451,3.813c-0.219,3.426,0.237,6.73,1.723,9.852
			c0.447,0.941,0.972,1.84,1.738,2.568c0.266,0.348,0.611,0.609,0.959,0.869c0.871,0.65,1.871,0.969,2.93,1.137
			c0.854-0.416,1.662-0.914,2.48-1.393c-0.406-0.684-0.805-1.369-1.221-2.047c-1.232-2.002-2.473-4.002-3.711-6
			c-0.037-0.059-0.094-0.105-0.143-0.158l0,0c-0.438-0.844-0.984-1.621-1.467-2.439c-0.316-0.538-0.659-1.063-0.986-1.595
			c-0.035-0.057-0.09-0.116-0.025-0.282c0.916,1.349,1.802,2.654,2.688,3.961c0.882,1.322,1.76,2.645,2.645,3.965
			c0.879,1.309,1.766,2.613,2.646,3.922c0.067,0.102,0.135,0.199,0.242,0.26c0.795-0.426,1.535-0.936,2.242-1.492
			C335.949-279.881,335.677-279.987,335.422-280.114z M325.395-290.547c-0.019-0.008-0.05-0.012-0.055-0.026
			c-0.006-0.015,0.014-0.038,0.022-0.057c0.02,0.009,0.039,0.017,0.057,0.025C325.412-290.586,325.404-290.567,325.395-290.547z
			 M325.539-290.324c-0.02-0.01-0.049-0.013-0.055-0.027c-0.006-0.014,0.014-0.037,0.021-0.058c0.02,0.009,0.049,0.013,0.055,0.028
			C325.566-290.367,325.548-290.344,325.539-290.324z"/>
		<path fill-rule="evenodd" clip-rule="evenodd" fill="#3F3F3E" d="M350.01-281.655c0.092-0.213,0.199-0.416,0.359-0.586
			c1.12,0.229,2.246,0.352,3.386,0.162c0.613-0.102,1.128-0.422,1.629-0.76c1.236-0.836,2.307-1.877,3.449-2.828
			c0.512-0.426,1.036-0.836,1.604-1.186c0.238-0.146,0.494-0.26,0.788-0.197c0.095,0.02,0.228,0.039,0.174,0.168
			c-0.092,0.223-0.063,0.451-0.085,0.678c-0.019,0.188-0.124,0.287-0.281,0.129c-0.172-0.174-0.34-0.115-0.533-0.076
			c-0.474,0.096-0.85,0.348-1.224,0.645c-1.163,0.928-2.347,1.83-3.523,2.74c-0.375,0.291-0.391,0.322-0.11,0.689
			c0.193,0.254,0.086,0.32-0.166,0.367c-0.969,0.186-1.948,0.209-2.928,0.18C351.703-281.555,350.856-281.612,350.01-281.655z"/>
		<path fill-rule="evenodd" clip-rule="evenodd" fill="#86C242" d="M348.809-305.685c-0.764,1.642-1.527,3.285-2.291,4.925
			c-0.314,0.679-0.628,1.357-0.941,2.037c-0.425,0.917-0.842,1.838-1.274,2.751c-0.463,0.976-0.941,1.944-1.412,2.915
			c-0.196,0.625-0.515,1.193-0.791,1.781c-0.514,1.102-1.068,2.186-1.557,3.299c-0.221,0.502-0.566,0.959-0.639,1.525
			c-0.229,0.209-0.305,0.504-0.432,0.77c-0.096,0.197-0.119,0.441-0.354,0.551c-0.01,0.143-0.012,0.285-0.078,0.424
			c-0.827,1.744-1.649,3.49-2.475,5.236c0.287,0.246,0.576,0.49,0.863,0.736c0.523-1.24,1.049-2.48,1.57-3.721
			c0.449-1.064,0.895-2.129,1.34-3.191c-0.156-0.131-0.195-0.328-0.26-0.51c-0.02-0.055-0.041-0.107-0.068-0.156
			c0.027,0.049,0.049,0.102,0.068,0.156c0.064,0.182,0.104,0.379,0.262,0.51c0.42-0.809,0.709-1.676,1.09-2.502
			c0.297-0.641,0.511-1.318,0.87-1.931c0.013-0.071,0.015-0.147,0.042-0.21c0.683-1.594,1.373-3.183,2.054-4.777
			c0.52-1.217,1.026-2.438,1.54-3.658l0,0c0.184-0.271,0.213-0.621,0.437-0.872c0.022-0.093,0.034-0.19,0.071-0.276
			c0.587-1.377,1.177-2.75,1.766-4.125c0.233-0.548,0.462-1.097,0.692-1.646C348.872-305.657,348.841-305.671,348.809-305.685z"/>
		<g>
			<path fill-rule="evenodd" clip-rule="evenodd" fill="#549E38" d="M333.644-278.408c-0.881-1.309-1.768-2.613-2.646-3.922
				c-0.885-1.32-1.763-2.643-2.645-3.965c-0.886-1.307-1.771-2.612-2.688-3.961c-0.064,0.166-0.01,0.226,0.025,0.282
				c0.327,0.532,0.67,1.057,0.986,1.595c0.482,0.818,1.029,1.596,1.467,2.439c0.049,0.053,0.105,0.1,0.143,0.158
				c1.238,1.998,2.479,3.998,3.711,6c0.416,0.678,0.814,1.363,1.221,2.047c0.232-0.121,0.466-0.242,0.668-0.414
				C333.779-278.209,333.712-278.307,333.644-278.408z"/>
			<path fill-rule="evenodd" clip-rule="evenodd" fill="#549E38" d="M325.341-290.573c0.005,0.015,0.036,0.019,0.055,0.026
				c0.009-0.02,0.017-0.039,0.024-0.058c-0.018-0.009-0.037-0.017-0.057-0.025C325.354-290.612,325.335-290.588,325.341-290.573z"/>
			<path fill-rule="evenodd" clip-rule="evenodd" fill="#549E38" d="M325.506-290.409c-0.008,0.021-0.027,0.044-0.021,0.058
				c0.006,0.015,0.035,0.018,0.055,0.027c0.009-0.02,0.027-0.043,0.021-0.057C325.554-290.397,325.525-290.401,325.506-290.409z"/>
		</g>
	</g>
</g>
<g>
	<polyline fill="#B0B0B0" points="-139.877,-261.973 -83.183,-261.973 -83.183,-318.668 -139.877,-318.668 -139.877,-261.973 	"/>
	<path id="Drupicon_2_" fill="#FFFFFF" d="M-103.322-300.934c-1.771-1.18-4.252-2.358-5.905-3.538
		c-1.063-0.708-2.363-2.123-3.543-3.537c-0.236,2.357-0.354,2.829-1.182,3.537c-1.771,1.416-3.543,2.24-4.96,3.066
		c-1.89,0.942-8.032,4.599-8.032,13.442c0,8.846,7.323,15.332,15.473,15.332c8.267,0,15.355-6.014,15.355-14.979
		C-96-296.689-102.14-300.227-103.322-300.934z M-103.677-275.815c-0.118,0.117-1.771,1.297-3.544,1.414
		c-1.771,0.119-4.37,0.236-5.787-1.061c-0.236-0.236-0.117-0.59,0-0.707c0.118-0.119,0.354-0.236,0.473-0.236s0.118,0,0.235,0.117
		c0.709,0.59,1.655,0.943,3.898,0.943c2.245,0,3.662-0.588,4.37-1.18c0.354-0.234,0.473,0,0.473,0.119
		C-103.44-276.287-103.44-276.051-103.677-275.815z M-109.582-278.881c0.354-0.354,0.944-0.943,1.536-1.18
		c0.59-0.234,0.944-0.234,1.417-0.234c0.59,0,1.181,0,1.535,0.354c0.354,0.234,0.591,0.943,0.826,1.178
		c0.236,0.236,0,0.59-0.235,0.707c-0.236,0.117-0.236,0.117-0.473-0.354s-0.473-0.943-1.653-0.943c-1.182,0-1.536,0.355-2.127,0.943
		c-0.589,0.471-0.826,0.709-0.943,0.354C-110.053-278.293-109.936-278.645-109.582-278.881z M-100.96-278.528
		c-1.181-0.117-3.19-3.42-4.724-3.539c-2.009-0.117-6.025,3.539-9.449,3.539c-2.01,0-2.836-0.707-3.544-1.18
		c-1.063-0.707-2.362-2.004-2.362-3.539c0-2.711,2.717-4.717,5.906-4.717c4.015,0,7.44,3.539,9.449,3.539
		c1.652,0,4.251-3.539,5.905-3.539c1.652,0,2.361,2.479,2.361,3.539c0,1.063-0.119,2.949-0.945,4.246
		C-99.07-278.998-100.015-278.41-100.96-278.528z"/>
</g>
<g>
	<rect x="-333.613" y="-317.973" fill="#FCCC5A" width="56.208" height="56"/>
	<g>
		<g>
			<g>
				<polygon fill="#FCCC5A" points="-322.001,-273.416 -325.182,-311.121 -285.835,-311.121 -289.017,-273.416 -305.507,-268.891 
									"/>
				<g>
					<path fill="#D9A730" d="M-287.74-309.371l-2.918,34.59l-14.849,4.076l-14.855-4.076l-2.918-34.59H-287.74 M-283.933-312.871
						h-43.152l3.441,40.818l18.137,4.979l18.132-4.979L-283.933-312.871L-283.933-312.871z"/>
				</g>
			</g>
			<polygon fill="none" points="-305.507,-267.074 -323.643,-272.053 -327.085,-312.871 -305.507,-312.871 			"/>
		</g>
		<g>
			<g>
				<g>
					<polygon fill="#FFFEFD" points="-306.587,-275.961 -316.36,-278.348 -316.36,-283.151 -311.622,-281.992 -311.622,-305.476 
						-306.587,-305.476 					"/>
				</g>
			</g>
			<g>
				<g>
					<polygon fill="#FFFEFD" points="-304.236,-275.969 -304.236,-280.826 -299.251,-282.252 -298.32,-289.906 -304.236,-289.906 
						-304.236,-305.397 -291.368,-305.397 -291.943,-300.753 -299.198,-300.753 -299.198,-294.545 -292.687,-294.545 
						-294.611,-278.723 					"/>
				</g>
			</g>
		</g>
	</g>
	<path fill="#5DA3C2" d="M-298.171-286.698l0.033,0.141c0.008,0.039-0.016,0.072-0.057,0.072"/>
</g>
<g>
	<rect x="-397.773" y="-318.666" fill="#FF6C39" width="55.208" height="56.693"/>
	<g>
		<polygon fill="#E44D26" points="-374.762,-294.093 -370.171,-294.093 -370.171,-297.867 -375.068,-297.867 		"/>
		<path fill="#E44D26" d="M-387.32-310.447l3.215,36.34l13.936,3.913l13.936-3.913l3.215-36.34H-387.32z M-358.862-276.473
			l-11.31,3.45v-4.729l-8.253-2.521l-0.562-6.271h4.709l0.256,2.495l3.85,1.266v-6.278h-9.041l-0.758-8.805l-0.481-5.032h10.28
			v-5.03h14.318L-358.862-276.473z"/>
		<polygon fill="#FF6C39" points="-365.879,-289.063 -370.171,-289.063 -370.171,-282.784 -366.313,-284.05 		"/>
		<polygon fill="#FF6C39" points="-370.171,-307.93 -370.171,-302.9 -359.926,-302.9 -360.37,-297.867 -370.171,-297.867 
			-370.171,-294.093 -360.716,-294.093 -361.928,-280.274 -370.171,-277.752 -370.171,-273.023 -358.862,-276.473 -355.853,-307.93 
					"/>
		<polygon fill="#FFFFFF" points="-360.716,-294.093 -370.171,-294.093 -374.762,-294.093 -375.068,-297.867 -370.171,-297.867 
			-360.37,-297.867 -359.926,-302.9 -370.171,-302.9 -380.451,-302.9 -379.97,-297.867 -379.212,-289.063 -370.171,-289.063 
			-365.879,-289.063 -366.313,-284.05 -370.171,-282.784 -374.021,-284.05 -374.277,-286.545 -378.986,-286.545 -378.424,-280.274 
			-370.171,-277.752 -361.928,-280.274 		"/>
	</g>
</g>
<g>
	<rect x="-74.793" y="-319.793" fill="#35A8DB" width="55.847" height="57.82"/>
	<g>
		<polygon fill="#1572B6" points="-46.922,-295.383 -46.869,-295.383 -46.869,-295.406 -46.889,-295.397 		"/>
		<path fill="#1572B6" d="M-26.635-315.147h-40.468h-0.543l0.047,0.561l3.683,42.765l0.031,0.355l0.331,0.097l16.527,4.749h0.266
			l16.571-4.758l0.332-0.094l0.029-0.357l3.687-42.757l0.048-0.561H-26.635z M-32.597-273.832l-14.272,4.097v-5.576l-10.946-3.346
			l-0.679-8.454l5.398,0.002l0.352,4.376l5.855,1.504l0.02-0.005v-8.827l-11.985-0.031v-0.008l-0.019,0.008l-0.41-5.291
			l12.395-5.345l0.02-0.008v-0.303h-0.004h-0.016h-0.013h-0.104h-0.105h-0.105h-0.103h-0.106h-0.104h-0.104h-0.106h-0.104h-0.105
			h-0.104h-0.105h-0.104h-0.104h-0.105h-0.105h-0.104h-0.105h-0.105h-0.103h-0.105h-0.105h-0.104h-0.104h-0.105h-0.104h-0.106
			h-0.103h-0.106h-0.104h-0.104h-0.105h-0.105h-0.104h-0.104h-0.105h-0.105h-0.105h-0.104h-0.104h-0.105h-0.104h-0.105h-0.105
			h-0.104h-0.104h-0.105h-0.105h-0.104h-0.104h-0.105h-0.105h-0.104h-0.105h-0.104h-0.104h-0.106h-0.103h-0.105h-0.105h-0.104
			h-0.105h-0.104h-0.105h-0.104h-0.105h-0.105h-0.105h-0.103h-0.105h-0.105h-0.103h-0.106h-0.104h-0.104h-0.105h-0.105h-0.104
			h-0.104h-0.106h-0.104h-0.105h-0.104h-0.104h-0.105h-0.104h-0.106h-0.104h-0.104h-0.105h-0.104h-0.105h-0.104h-0.104h-0.106
			h-0.103h-0.105h-0.105h-0.104h-0.105h-0.105h-0.104h-0.104h-0.105h-0.104h-0.105h-0.105h-0.104h-0.104h-0.105h-0.105h-0.104
			h-0.104h-0.105h-0.104h-0.106h-0.105h-0.103h-0.104h-0.106h-0.104h-0.104h-0.086l-0.019-0.153l-0.105-0.877l-0.104-0.876
			l-0.104-0.877l-0.105-0.876l-0.105-0.876l-0.104-0.876h0.104h0.105h0.105h0.104h0.104h0.105h0.105h0.104h0.104h0.106h0.104h0.103
			h0.105h0.106h0.104h0.105h0.104h0.104h0.105h0.105h0.104h0.104h0.105h0.105h0.104h0.105h0.104h0.104h0.105h0.105h0.104h0.105
			h0.105h0.103h0.106h0.104h0.104h0.105h0.104h0.105h0.104h0.104h0.106h0.104h0.105h0.104h0.104h0.105h0.104h0.106h0.104h0.104
			h0.105h0.105h0.104h0.104h0.106h0.103h0.105h0.105h0.103h0.105h0.105h0.105h0.104h0.105h0.104h0.105h0.104h0.105h0.105h0.103
			h0.106h0.104h0.104h0.105h0.104h0.105h0.105h0.104h0.104h0.105h0.105h0.104h0.104h0.105h0.105h0.104h0.105h0.104h0.104h0.105
			h0.105h0.105h0.104h0.104h0.105h0.105h0.104h0.104h0.106h0.103h0.106h0.104h0.105h0.104h0.104h0.105h0.105h0.103h0.105h0.105
			h0.104h0.105h0.105h0.104h0.104h0.105h0.104h0.105h0.104h0.106h0.104h0.104h0.106h0.103h0.105h0.105h0.104h0.013h0.02v-5.661
			h17.574L-32.597-273.832z"/>
		<polygon fill="#35A8DB" points="-46.869,-306.453 -46.797,-306.453 -46.693,-306.453 -46.589,-306.453 -46.483,-306.453 
			-46.379,-306.453 -46.275,-306.453 -46.17,-306.453 -46.065,-306.453 -45.959,-306.453 -45.857,-306.453 -45.751,-306.453 
			-45.647,-306.453 -45.541,-306.453 -45.436,-306.453 -45.331,-306.453 -45.228,-306.453 -45.122,-306.453 -45.018,-306.453 
			-44.914,-306.453 -44.81,-306.453 -44.704,-306.453 -44.601,-306.453 -44.496,-306.453 -44.391,-306.453 -44.285,-306.453 
			-44.181,-306.453 -44.077,-306.453 -43.973,-306.453 -43.867,-306.453 -43.762,-306.453 -43.659,-306.453 -43.554,-306.453 
			-43.448,-306.453 -43.346,-306.453 -43.24,-306.453 -43.136,-306.453 -43.031,-306.453 -42.925,-306.453 -42.821,-306.453 
			-42.717,-306.453 -42.612,-306.453 -42.507,-306.453 -42.402,-306.453 -42.299,-306.453 -42.194,-306.453 -42.088,-306.453 
			-41.984,-306.453 -41.878,-306.453 -41.775,-306.453 -41.67,-306.453 -41.565,-306.453 -41.462,-306.453 -41.357,-306.453 
			-41.251,-306.453 -41.147,-306.453 -41.043,-306.453 -40.938,-306.453 -40.833,-306.453 -40.728,-306.453 -40.623,-306.453 
			-40.52,-306.453 -40.414,-306.453 -40.31,-306.453 -40.204,-306.453 -40.101,-306.453 -39.996,-306.453 -39.891,-306.453 
			-39.786,-306.453 -39.681,-306.453 -39.577,-306.453 -39.473,-306.453 -39.367,-306.453 -39.262,-306.453 -39.159,-306.453 
			-39.054,-306.453 -38.949,-306.453 -38.844,-306.453 -38.739,-306.453 -38.636,-306.453 -38.531,-306.453 -38.425,-306.453 
			-38.323,-306.453 -38.217,-306.453 -38.113,-306.453 -38.009,-306.453 -37.904,-306.453 -37.799,-306.453 -37.694,-306.453 
			-37.588,-306.453 -37.486,-306.453 -37.38,-306.453 -37.276,-306.453 -37.17,-306.453 -37.065,-306.453 -36.962,-306.453 
			-36.857,-306.453 -36.751,-306.453 -36.647,-306.453 -36.543,-306.453 -36.439,-306.453 -36.333,-306.453 -36.228,-306.453 
			-36.123,-306.453 -36.02,-306.453 -35.914,-306.453 -35.812,-306.453 -35.704,-306.453 -35.602,-306.453 -35.496,-306.453 
			-35.391,-306.453 -35.286,-306.453 -35.183,-306.453 -35.077,-306.453 -34.973,-306.453 -34.869,-306.453 -34.765,-306.453 
			-34.659,-306.453 -34.554,-306.453 -34.449,-306.453 -34.344,-306.453 -34.24,-306.453 -34.136,-306.453 -34.031,-306.453 
			-33.928,-306.453 -33.823,-306.453 -33.717,-306.453 -33.613,-306.453 -33.613,-306.453 -33.613,-306.453 -33.634,-306.231 
			-34.142,-301.04 -46.869,-295.406 -46.869,-295.383 -34.59,-295.383 -35.04,-290.031 -35.04,-290.031 -36.002,-278.596 
			-46.869,-275.312 -46.869,-269.736 -32.597,-273.832 -29.295,-312.114 -46.869,-312.114 		"/>
		<polygon fill="#35A8DB" points="-40.476,-290.045 -46.869,-290.062 -46.869,-281.235 -40.879,-282.976 		"/>
		<polygon fill="#35A8DB" points="-46.17,-301.04 -46.275,-301.04 -46.379,-301.04 -46.483,-301.04 -46.589,-301.04 
			-46.693,-301.04 -46.797,-301.04 -46.869,-301.04 -46.869,-300.737 -46.166,-301.04 		"/>
		<polygon fill="#E9E9E8" points="-46.889,-306.453 -46.902,-306.453 -47.006,-306.453 -47.112,-306.453 -47.217,-306.453 
			-47.32,-306.453 -47.426,-306.453 -47.53,-306.453 -47.634,-306.453 -47.74,-306.453 -47.844,-306.453 -47.949,-306.453 
			-48.053,-306.453 -48.158,-306.453 -48.262,-306.453 -48.366,-306.453 -48.472,-306.453 -48.577,-306.453 -48.681,-306.453 
			-48.786,-306.453 -48.891,-306.453 -48.994,-306.453 -49.099,-306.453 -49.204,-306.453 -49.309,-306.453 -49.413,-306.453 
			-49.518,-306.453 -49.622,-306.453 -49.728,-306.453 -49.831,-306.453 -49.937,-306.453 -50.041,-306.453 -50.146,-306.453 
			-50.251,-306.453 -50.356,-306.453 -50.46,-306.453 -50.564,-306.453 -50.669,-306.453 -50.774,-306.453 -50.879,-306.453 
			-50.984,-306.453 -51.088,-306.453 -51.193,-306.453 -51.297,-306.453 -51.402,-306.453 -51.507,-306.453 -51.611,-306.453 
			-51.715,-306.453 -51.821,-306.453 -51.926,-306.453 -52.03,-306.453 -52.134,-306.453 -52.239,-306.453 -52.344,-306.453 
			-52.448,-306.453 -52.553,-306.453 -52.657,-306.453 -52.761,-306.453 -52.867,-306.453 -52.97,-306.453 -53.076,-306.453 
			-53.181,-306.453 -53.285,-306.453 -53.39,-306.453 -53.494,-306.453 -53.599,-306.453 -53.703,-306.453 -53.808,-306.453 
			-53.914,-306.453 -54.019,-306.453 -54.122,-306.453 -54.227,-306.453 -54.332,-306.453 -54.435,-306.453 -54.541,-306.453 
			-54.645,-306.453 -54.75,-306.453 -54.855,-306.453 -54.96,-306.453 -55.064,-306.453 -55.168,-306.453 -55.274,-306.453 
			-55.378,-306.453 -55.483,-306.453 -55.588,-306.453 -55.692,-306.453 -55.797,-306.453 -55.901,-306.453 -56.007,-306.453 
			-56.111,-306.453 -56.215,-306.453 -56.32,-306.453 -56.425,-306.453 -56.53,-306.453 -56.634,-306.453 -56.738,-306.453 
			-56.844,-306.453 -56.947,-306.453 -57.052,-306.453 -57.157,-306.453 -57.261,-306.453 -57.366,-306.453 -57.471,-306.453 
			-57.575,-306.453 -57.68,-306.453 -57.785,-306.453 -57.889,-306.453 -57.994,-306.453 -58.099,-306.453 -58.203,-306.453 
			-58.307,-306.453 -58.412,-306.453 -58.518,-306.453 -58.622,-306.453 -58.726,-306.453 -58.831,-306.453 -58.935,-306.453 
			-59.041,-306.453 -59.146,-306.453 -59.249,-306.453 -59.354,-306.453 -59.46,-306.453 -59.564,-306.453 -59.668,-306.453 
			-59.773,-306.453 -59.878,-306.453 -59.982,-306.453 -60.086,-306.453 -60.192,-306.453 -60.297,-306.453 -60.401,-306.453 
			-60.297,-305.576 -60.192,-304.7 -60.086,-303.824 -59.982,-302.947 -59.878,-302.071 -59.773,-301.193 -59.754,-301.04 
			-59.668,-301.04 -59.564,-301.04 -59.46,-301.04 -59.354,-301.04 -59.249,-301.04 -59.146,-301.04 -59.041,-301.04 
			-58.935,-301.04 -58.831,-301.04 -58.726,-301.04 -58.622,-301.04 -58.518,-301.04 -58.412,-301.04 -58.307,-301.04 
			-58.203,-301.04 -58.099,-301.04 -57.994,-301.04 -57.889,-301.04 -57.785,-301.04 -57.68,-301.04 -57.575,-301.04 
			-57.471,-301.04 -57.366,-301.04 -57.261,-301.04 -57.157,-301.04 -57.052,-301.04 -56.947,-301.04 -56.844,-301.04 
			-56.738,-301.04 -56.634,-301.04 -56.53,-301.04 -56.425,-301.04 -56.32,-301.04 -56.215,-301.04 -56.111,-301.04 
			-56.007,-301.04 -55.901,-301.04 -55.797,-301.04 -55.692,-301.04 -55.588,-301.04 -55.483,-301.04 -55.378,-301.04 
			-55.274,-301.04 -55.168,-301.04 -55.064,-301.04 -54.96,-301.04 -54.855,-301.04 -54.75,-301.04 -54.645,-301.04 
			-54.541,-301.04 -54.435,-301.04 -54.332,-301.04 -54.227,-301.04 -54.122,-301.04 -54.019,-301.04 -53.914,-301.04 
			-53.808,-301.04 -53.703,-301.04 -53.599,-301.04 -53.494,-301.04 -53.39,-301.04 -53.285,-301.04 -53.181,-301.04 
			-53.076,-301.04 -52.97,-301.04 -52.867,-301.04 -52.761,-301.04 -52.657,-301.04 -52.553,-301.04 -52.448,-301.04 
			-52.344,-301.04 -52.239,-301.04 -52.134,-301.04 -52.03,-301.04 -51.926,-301.04 -51.821,-301.04 -51.715,-301.04 
			-51.611,-301.04 -51.507,-301.04 -51.402,-301.04 -51.297,-301.04 -51.193,-301.04 -51.088,-301.04 -50.984,-301.04 
			-50.879,-301.04 -50.774,-301.04 -50.669,-301.04 -50.564,-301.04 -50.46,-301.04 -50.356,-301.04 -50.251,-301.04 
			-50.146,-301.04 -50.041,-301.04 -49.937,-301.04 -49.831,-301.04 -49.728,-301.04 -49.622,-301.04 -49.518,-301.04 
			-49.413,-301.04 -49.309,-301.04 -49.204,-301.04 -49.099,-301.04 -48.994,-301.04 -48.891,-301.04 -48.786,-301.04 
			-48.681,-301.04 -48.577,-301.04 -48.472,-301.04 -48.366,-301.04 -48.262,-301.04 -48.158,-301.04 -48.053,-301.04 
			-47.949,-301.04 -47.844,-301.04 -47.74,-301.04 -47.634,-301.04 -47.53,-301.04 -47.426,-301.04 -47.32,-301.04 -47.217,-301.04 
			-47.112,-301.04 -47.006,-301.04 -46.902,-301.04 -46.889,-301.04 -46.873,-301.04 -46.869,-301.04 -46.869,-306.453 		"/>
		<polygon fill="#E9E9E8" points="-40.476,-290.045 -46.869,-290.062 -46.869,-295.383 -46.922,-295.383 -46.889,-295.397 
			-46.869,-295.406 -46.869,-300.737 -46.889,-300.729 -59.284,-295.384 -58.874,-290.093 -58.855,-290.101 -58.855,-290.093 
			-46.869,-290.062 -40.476,-290.045 		"/>
		<polygon fill="#E9E9E8" points="-46.166,-301.04 -46.166,-301.04 -46.869,-300.737 -46.166,-301.04 		"/>
		<polygon fill="#E9E9E8" points="-46.869,-281.235 -46.889,-281.23 -52.744,-282.734 -53.096,-287.11 -58.495,-287.112 
			-57.816,-278.657 -46.869,-275.312 -46.869,-275.313 		"/>
		<polygon fill="#FFFFFE" points="-34.142,-301.04 -33.634,-306.231 -33.613,-306.453 -33.613,-306.453 -33.613,-306.453 
			-33.717,-306.453 -33.823,-306.453 -33.928,-306.453 -34.031,-306.453 -34.136,-306.453 -34.24,-306.453 -34.344,-306.453 
			-34.449,-306.453 -34.554,-306.453 -34.659,-306.453 -34.765,-306.453 -34.869,-306.453 -34.973,-306.453 -35.077,-306.453 
			-35.183,-306.453 -35.286,-306.453 -35.391,-306.453 -35.496,-306.453 -35.602,-306.453 -35.704,-306.453 -35.812,-306.453 
			-35.914,-306.453 -36.02,-306.453 -36.123,-306.453 -36.228,-306.453 -36.333,-306.453 -36.439,-306.453 -36.543,-306.453 
			-36.647,-306.453 -36.751,-306.453 -36.857,-306.453 -36.962,-306.453 -37.065,-306.453 -37.17,-306.453 -37.276,-306.453 
			-37.38,-306.453 -37.486,-306.453 -37.588,-306.453 -37.694,-306.453 -37.799,-306.453 -37.904,-306.453 -38.009,-306.453 
			-38.113,-306.453 -38.217,-306.453 -38.323,-306.453 -38.425,-306.453 -38.531,-306.453 -38.636,-306.453 -38.739,-306.453 
			-38.844,-306.453 -38.949,-306.453 -39.054,-306.453 -39.159,-306.453 -39.262,-306.453 -39.367,-306.453 -39.473,-306.453 
			-39.577,-306.453 -39.681,-306.453 -39.786,-306.453 -39.891,-306.453 -39.996,-306.453 -40.101,-306.453 -40.204,-306.453 
			-40.31,-306.453 -40.414,-306.453 -40.52,-306.453 -40.623,-306.453 -40.728,-306.453 -40.833,-306.453 -40.938,-306.453 
			-41.043,-306.453 -41.147,-306.453 -41.251,-306.453 -41.357,-306.453 -41.462,-306.453 -41.565,-306.453 -41.67,-306.453 
			-41.775,-306.453 -41.878,-306.453 -41.984,-306.453 -42.088,-306.453 -42.194,-306.453 -42.299,-306.453 -42.402,-306.453 
			-42.507,-306.453 -42.612,-306.453 -42.717,-306.453 -42.821,-306.453 -42.925,-306.453 -43.031,-306.453 -43.136,-306.453 
			-43.24,-306.453 -43.346,-306.453 -43.448,-306.453 -43.554,-306.453 -43.659,-306.453 -43.762,-306.453 -43.867,-306.453 
			-43.973,-306.453 -44.077,-306.453 -44.181,-306.453 -44.285,-306.453 -44.391,-306.453 -44.496,-306.453 -44.601,-306.453 
			-44.704,-306.453 -44.81,-306.453 -44.914,-306.453 -45.018,-306.453 -45.122,-306.453 -45.228,-306.453 -45.331,-306.453 
			-45.436,-306.453 -45.541,-306.453 -45.647,-306.453 -45.751,-306.453 -45.857,-306.453 -45.959,-306.453 -46.065,-306.453 
			-46.17,-306.453 -46.275,-306.453 -46.379,-306.453 -46.483,-306.453 -46.589,-306.453 -46.693,-306.453 -46.797,-306.453 
			-46.869,-306.453 -46.869,-301.04 -46.797,-301.04 -46.693,-301.04 -46.589,-301.04 -46.483,-301.04 -46.379,-301.04 
			-46.275,-301.04 -46.17,-301.04 -46.166,-301.04 -46.166,-301.04 -46.166,-301.04 -46.869,-300.737 -46.869,-295.406 		"/>
		<polygon fill="#FFFFFE" points="-35.04,-290.031 -35.04,-290.031 -34.59,-295.383 -46.869,-295.383 -46.869,-290.062 
			-40.476,-290.045 -40.476,-290.045 -40.879,-282.976 -46.869,-281.235 -46.869,-275.313 -46.869,-275.312 -36.002,-278.596 		"/>
	</g>
</g>
<g>
	<rect x="-460.486" y="-317.175" fill="#6181B6" width="55.846" height="55.846"/>
	<g id="Layer_2_1_">
		<g>
			<path fill="#F9F9F9" d="M-447.21-293.054c1.481,0,2.469,0.278,2.961,0.833c0.494,0.555,0.611,1.509,0.354,2.859
				c-0.27,1.405-0.789,2.409-1.558,3.011s-1.94,0.902-3.512,0.902h-2.371l1.456-7.605H-447.21z M-456.707-277.752h3.898l0.924-4.83
				h3.339c1.473,0,2.686-0.157,3.637-0.472c0.952-0.314,1.815-0.841,2.594-1.581c0.654-0.609,1.182-1.282,1.586-2.018
				c0.404-0.734,0.692-1.545,0.861-2.433c0.412-2.154,0.101-3.832-0.933-5.033c-1.034-1.202-2.679-1.803-4.934-1.803h-7.497
				L-456.707-277.752z"/>
			<path fill="#F9F9F9" d="M-437.003-300.752h3.867l-0.924,4.831h3.445c2.168,0,3.662,0.384,4.485,1.151
				c0.823,0.769,1.069,2.013,0.741,3.733l-1.619,8.455h-3.928l1.539-8.041c0.175-0.914,0.111-1.538-0.193-1.871
				c-0.305-0.332-0.951-0.499-1.941-0.499h-3.09l-1.992,10.409h-3.868L-437.003-300.752z"/>
			<path fill="#F9F9F9" d="M-416.784-293.054c1.481,0,2.469,0.278,2.961,0.833c0.493,0.555,0.61,1.509,0.353,2.859
				c-0.27,1.405-0.788,2.409-1.558,3.011c-0.769,0.602-1.939,0.902-3.511,0.902h-2.371l1.455-7.605H-416.784z M-426.281-277.752
				h3.897l0.925-4.83h3.338c1.475,0,2.686-0.157,3.637-0.472s1.816-0.841,2.596-1.581c0.652-0.609,1.182-1.282,1.586-2.018
				c0.404-0.734,0.691-1.545,0.861-2.433c0.412-2.154,0.102-3.832-0.933-5.033c-1.034-1.202-2.68-1.803-4.935-1.803h-7.495
				L-426.281-277.752z"/>
		</g>
	</g>
</g>
<g>
	<rect x="0.346" y="0.346" fill="#FFFFFF" width="56" height="56"/>
	<g>
		<path fill="#F6A2AD" d="M11.807,30.46c-0.794-1.15-1.59-1.289-1.59-1.289H2.579c0,0,3.493,0.871,3.871,6.586
			c0.308,4.67,1.875,5.605,1.875,5.605h0.147C8.638,41.303,9.812,40.534,11.807,30.46z"/>
		<path fill="#F6A2AD" d="M28.283,28.369c-0.057-0.303-0.113-0.609-0.171-0.927c-2.229-12.116-3.584-12.116-3.584-12.116h-7.511
			c0,0,0.004,0.003,0.011,0.009h6.442c0,0-1.698,1.275-3.225,10.133c0.149,0.875,0.299,1.823,0.444,2.852
			c1.621,11.455,3.686,13.039,3.686,13.039h0.152C24.528,41.358,25.875,41.344,28.283,28.369z"/>
		<path fill="#F6A2AD" d="M43.42,35.307c0.224-2.258,0.749-3.688,1.301-4.592c-0.197-0.996-0.406-2.083-0.62-3.273
			c-2.229-12.115-3.585-12.115-3.585-12.115h-0.968c0,0-1.732,1.301-3.271,10.396c0.136,0.804,0.271,1.667,0.402,2.596
			c1.621,11.455,3.686,13.039,3.686,13.039h0.488C40.986,41.296,42.923,40.323,43.42,35.307z"/>
		<path fill="#EB7077" d="M39.548,15.327h-6.543h-0.968c0,0-1.354,0-3.585,12.115c-0.057,0.317-0.113,0.624-0.169,0.927
			c-2.408,12.975-3.755,12.989-3.755,12.989h7.509h0.152c0,0,2.064-1.584,3.686-13.039c0.131-0.929,0.266-1.792,0.401-2.596
			C37.815,16.628,39.548,15.327,39.548,15.327z"/>
		<path fill="#EB7077" d="M23.47,15.335h-6.442h-1.067c0,0-1.355,0-3.584,12.116c-0.197,1.085-0.387,2.084-0.569,3.008
			C9.812,40.534,8.638,41.303,8.472,41.362c-0.014,0.004-0.021,0.004-0.021,0.004h7.66c0,0,2.064-1.584,3.686-13.038
			c0.146-1.032,0.296-1.983,0.448-2.86C21.772,16.611,23.47,15.335,23.47,15.335z"/>
		<path fill="#EB7077" d="M46.475,29.171c0,0-0.909,0.16-1.755,1.545c-0.552,0.904-1.077,2.334-1.301,4.592
			c-0.497,5.016-2.434,5.988-2.567,6.051c-0.006,0.002-0.007,0.004-0.007,0.004h7.522c0,0,1.568-0.936,1.876-5.605
			c0.377-5.715,3.87-6.586,3.87-6.586H46.475z"/>
	</g>
</g>
</svg>
