<?xml version="1.0" encoding="utf-8"?>
<!-- Generator: Adobe Illustrator 16.0.0, SVG Export Plug-In . SVG Version: 6.00 Build 0)  -->
<!DOCTYPE svg PUBLIC "-//W3C//DTD SVG 1.1//EN" "http://www.w3.org/Graphics/SVG/1.1/DTD/svg11.dtd">
<svg version="1.1" id="Calque_1" xmlns="http://www.w3.org/2000/svg" xmlns:xlink="http://www.w3.org/1999/xlink" x="0px" y="0px"
	 width="56.693px" height="56.693px" viewBox="0 0 56.693 56.693" enable-background="new 0 0 56.693 56.693" xml:space="preserve">
<g>
	<polyline fill="#3558A8" points="-422.928,-261.973 -366.688,-261.973 -366.688,-319.265 -422.928,-319.265 -422.928,-261.973 	"/>
	<path fill="#FFFFFF" d="M-380.235-294.67l-0.172-0.74c-0.135-0.537-0.519-0.79-1.384-0.79h-3.634c-0.085,0-0.168,0.038-0.186,0.122
		l-1.379,6.662c-0.018,0.085-0.023,0.144-0.014,0.186s0.171,0.036,0.254,0.036h1.259c0.085,0,0.238,0.005,0.282-0.013
		c0.047-0.02,0.066-0.147,0.084-0.231l0.446-2.335l0.542-2.592c0.018-0.083,0.101-0.151,0.184-0.151l3.601-0.002
		C-380.267-294.519-380.215-294.587-380.235-294.67"/>
	<path fill="#FFFFFF" d="M-375.111-297.37c-0.085,0.001-1.598,0-1.598,0c-0.083,0-0.191,0.091-0.238,0.161l-2.804,4.201
		c-0.047,0.07-0.102,0.068-0.12-0.016l-0.207-0.92c-0.018-0.084-0.102-0.15-0.186-0.15h-1.803c-0.082,0-0.132,0.069-0.11,0.152
		l0.808,2.883c0.023,0.084,0.026,0.219,0.005,0.301l-0.377,1.461c-0.021,0.083,0.032,0.107,0.116,0.107h1.78
		c0.082,0,0.169-0.024,0.189-0.107l0.377-1.481c0.021-0.083,0.078-0.194,0.129-0.264l4.574-6.181
		c0.052-0.067,0.044-0.148-0.039-0.148L-375.111-297.37"/>
	<path fill="#FFFFFF" d="M-393.868-296.196h-1.627c-0.082,0-0.168,0.031-0.184,0.113l-0.537,2.563l-0.536,2.452
		c-0.017,0.083-0.099,0.078-0.183,0.078h-1.068c-1.058,0-0.936-0.681-0.719-1.7c0.002-0.01,0.679-3.393,0.679-3.393
		c0.015-0.082-0.04-0.113-0.123-0.113h-1.549c-0.084,0-0.167,0.031-0.183,0.113l-0.624,3.389c-0.311,1.833-0.32,3.446,1.767,3.499
		c0.033,0.001,3.292,0,3.292,0c0.085,0,0.167-0.028,0.186-0.111l0.708-3.398l0.704-3.411
		C-393.865-296.116-393.84-296.196-393.868-296.196"/>
	<path fill="#FFFFFF" d="M-410.062-296.2h-1.743c-0.084,0-0.168,0.021-0.186,0.104l-0.315,1.385
		c-0.019,0.082,0.036,0.148,0.12,0.148h1.669c0.085,0,0.168-0.077,0.186-0.16l0.303-1.396
		C-410.029-296.119-410.005-296.2-410.062-296.2"/>
	<path fill="#FFFFFF" d="M-412.3-294.094c-0.083,0-0.168,0.066-0.186,0.15l-0.235,1.057l-0.524,2.441c0,0-0.279,1.299-0.306,1.38
		c0,0-0.235,0.938-0.796,0.901c-0.261-0.02-0.56-0.079-0.56-0.079h-0.001c-0.156-0.049-0.168,0.116-0.187,0.2l-0.347,1.522
		c-0.02,0.082,0.033,0.157,0.116,0.159c0,0,0.751,0.107,1.28,0.107h0.088c1.309,0,2.001-0.784,2.443-2.913l0.518-2.466l0.486-2.293
		c0.018-0.082-0.032-0.16-0.115-0.16"/>
	<path fill="#FFFFFF" d="M-388.981-293.28c0,0.092-0.287,0.075-0.287,0.075l-2.286-0.018c-0.079,0-0.102-0.112-0.106-0.192
		c0-0.004,0.006-0.098,0.012-0.121c0.177-0.625,0.704-0.98,1.54-0.98c0.94,0,1.141,0.475,1.141,1.002 M-389.755-296.211
		c-2.932,0-3.632,1.846-4.021,3.677c-0.389,1.865-0.355,3.34,2.678,3.34h0.11c1.203,0,2.666,0,2.666,0
		c0.082-0.002,0.163-0.078,0.18-0.161l0.3-1.184c0.016-0.084-0.039-0.107-0.122-0.107h-2.729c-0.988,0-1.343-0.312-1.308-1.008
		c-0.001-0.079,0.088-0.281,0.172-0.281h4.203c0.186-0.001,0.19-0.109,0.19-0.109C-387.009-294.014-386.979-296.211-389.755-296.211
		"/>
	<path fill="#FFFFFF" d="M-403.975-292.366l-0.338,1.177c-0.023,0.082-0.119,0.137-0.203,0.137h-1.742
		c-1.322,0-1.645-1.041-1.322-2.595c0.322-1.589,0.962-2.571,2.262-2.671c1.779-0.137,2.144,1.143,1.712,2.613L-403.975-292.366
		 M-402.427-291.119c0,0,0.821-2.033,1.008-3.207c0.255-1.572-0.518-3.852-3.501-3.852c-2.967,0-4.255,2.176-4.747,4.543
		c-0.49,2.383,0.151,4.457,3.102,4.44l4.503-0.002c0.083,0,0.17-0.069,0.19-0.15l0.381-1.473c0.02-0.084-0.031-0.151-0.115-0.151
		l-0.362-0.002l-0.362-0.002c-0.072,0-0.113-0.049-0.104-0.11C-402.432-291.097-402.431-291.108-402.427-291.119"/>
	<path fill="#5DA3C2" d="M-390.616-293.428c-0.009,0.037-0.019,0.086-0.025,0.119l-0.29,1.357l0.306-1.431L-390.616-293.428"/>
</g>
<g>
	<rect x="112.043" y="-318.98" fill="#5BD3BF" width="56.693" height="57.007"/>
	<g>
		
			<linearGradient id="bottom_1_" gradientUnits="userSpaceOnUse" x1="326.99" y1="241.2107" x2="326.99" y2="275.1711" gradientTransform="matrix(1 0 0 1 -187.5996 -549.9902)">
			<stop  offset="0" style="stop-color:#002E3B"/>
			<stop  offset="1" style="stop-color:#002639"/>
		</linearGradient>
		
			<linearGradient id="bottom_2_" gradientUnits="userSpaceOnUse" x1="326.9871" y1="237.4148" x2="326.9871" y2="275.6099" gradientTransform="matrix(1 0 0 1 -187.5996 -549.9902)">
			<stop  offset="0" style="stop-color:#002E3B"/>
			<stop  offset="1" style="stop-color:#002639"/>
		</linearGradient>
		<polygon id="bottom" fill="url(#bottom_1_)" stroke="url(#bottom_2_)" points="139.377,-279.679 134.447,-282.083 
			134.453,-282.085 134.451,-282.085 129.215,-279.532 139.381,-274.572 149.564,-279.521 144.308,-282.124 		"/>
		
			<radialGradient id="right_2_" cx="268.5066" cy="152.9636" r="30.2187" gradientTransform="matrix(1 0 0 -1 -137.6001 -123.2974)" gradientUnits="userSpaceOnUse">
			<stop  offset="0" style="stop-color:#00BC85"/>
			<stop  offset="1" style="stop-color:#149D91"/>
		</radialGradient>
		
			<radialGradient id="right_3_" cx="268.3103" cy="151.7976" r="34.5935" gradientTransform="matrix(1 0 0 -1 -137.6001 -123.2974)" gradientUnits="userSpaceOnUse">
			<stop  offset="0" style="stop-color:#00BC85"/>
			<stop  offset="1" style="stop-color:#149D91"/>
		</radialGradient>
		<polygon id="right_1_" fill="url(#right_2_)" stroke="url(#right_3_)" points="129.226,-279.515 129.226,-284.625 
			134.267,-287.082 139.451,-284.526 		"/>
		
			<radialGradient id="right-2_1_" cx="328.616" cy="239.5789" r="36.5099" gradientTransform="matrix(1 0 0 1 -187.5996 -549.9902)" gradientUnits="userSpaceOnUse">
			<stop  offset="0" style="stop-color:#00BC85"/>
			<stop  offset="1" style="stop-color:#149D91"/>
		</radialGradient>
		
			<radialGradient id="right-2_2_" cx="327.8875" cy="238.2742" r="39.561" gradientTransform="matrix(1 0 0 1 -187.5996 -549.9902)" gradientUnits="userSpaceOnUse">
			<stop  offset="0" style="stop-color:#00BC85"/>
			<stop  offset="1" style="stop-color:#149D91"/>
		</radialGradient>
		<polygon id="right-2" fill="url(#right-2_1_)" stroke="url(#right-2_2_)" points="144.97,-300.543 144.97,-292.465 
			144.97,-292.465 144.97,-292.465 139.336,-289.717 144.517,-287.137 149.562,-289.594 149.562,-303.414 		"/>
		
			<radialGradient id="left_2_" cx="319.1589" cy="236.9011" r="69.7941" gradientTransform="matrix(1 0 0 1 -187.5996 -549.9902)" gradientUnits="userSpaceOnUse">
			<stop  offset="0" style="stop-color:#004473"/>
			<stop  offset="1" style="stop-color:#00345F"/>
		</radialGradient>
		
			<radialGradient id="left_3_" cx="318.8289" cy="235.5408" r="73.7601" gradientTransform="matrix(1 0 0 1 -187.5996 -549.9902)" gradientUnits="userSpaceOnUse">
			<stop  offset="0" style="stop-color:#004473"/>
			<stop  offset="1" style="stop-color:#00345F"/>
		</radialGradient>
		<polygon id="left_1_" fill="url(#left_2_)" stroke="url(#left_3_)" points="149.564,-279.519 149.564,-279.519 149.564,-284.627 
			133.82,-292.469 133.82,-300.549 129.226,-303.419 129.226,-289.598 		"/>
		
			<linearGradient id="top_1_" gradientUnits="userSpaceOnUse" x1="326.9792" y1="241.3875" x2="326.9792" y2="275.1707" gradientTransform="matrix(1 0 0 1 -187.5996 -549.9902)">
			<stop  offset="0" style="stop-color:#002E3B"/>
			<stop  offset="1" style="stop-color:#002639"/>
		</linearGradient>
		
			<linearGradient id="top_2_" gradientUnits="userSpaceOnUse" x1="326.9792" y1="240.8904" x2="326.9792" y2="278.7838" gradientTransform="matrix(1 0 0 1 -187.5996 -549.9902)">
			<stop  offset="0" style="stop-color:#002E3B"/>
			<stop  offset="1" style="stop-color:#002639"/>
		</linearGradient>
		<polygon id="top" fill="url(#top_1_)" stroke="url(#top_2_)" points="133.806,-300.556 133.806,-300.558 139.381,-303.277 
			144.955,-300.558 149.543,-303.424 139.377,-308.383 129.215,-303.426 129.215,-303.422 133.802,-300.554 		"/>
	</g>
</g>
<g>
	<rect x="45.143" y="-318.666" fill="#CCFFCC" width="56.693" height="56.693"/>
	<g id="Responsive_Design_1_">
		<path fill="#757575" d="M90.941-277.088c0,0.067,0,0.103,0,0.169c0,1.838-4.408,3.301-9.844,3.301s-9.844-1.463-9.844-3.301
			c0-0.066,0-0.102,0.033-0.169c-0.033-0.034-0.033-0.103-0.033-0.169c0-1.805,4.408-3.301,9.844-3.301s9.844,1.496,9.844,3.301
			C90.941-277.191,90.941-277.122,90.941-277.088z"/>
		<path fill="#696969" d="M90.941-277.088c0,0.067,0,0.103,0,0.169c0,1.838-4.408,3.301-9.844,3.301c-0.232,0-0.465,0-0.695,0
			v-6.905c0.23-0.034,0.463-0.034,0.695-0.034c5.436,0,9.844,1.496,9.844,3.301C90.941-277.191,90.941-277.122,90.941-277.088z"/>
		<path fill="#757575" d="M80.402-280.524c0.23-0.034,0.463-0.034,0.695-0.034c5.27,0,9.545,1.395,9.844,3.129
			c-0.299,1.734-4.574,3.096-9.844,3.096c-0.232,0-0.463,0-0.695,0V-280.524z"/>
		<ellipse fill="#8D8D8D" cx="81.097" cy="-277.633" rx="9.844" ry="3.3"/>
		<path fill="#7F7F7F" d="M81.097-280.898c5.436,0,9.844,1.463,9.844,3.266c0,1.837-4.408,3.299-9.844,3.299
			c-0.232,0-0.463,0-0.695,0v-6.564C80.633-280.898,80.865-280.898,81.097-280.898z"/>
		<polygon fill="#CCCCCC" points="77.551,-287.225 84.677,-287.225 84.677,-278.45 77.551,-278.45 		"/>
		<polygon fill="#B8B8B8" points="84.677,-282.497 84.677,-278.45 80.402,-278.45 80.402,-282.497 		"/>
		<polygon fill="#B8B8B8" points="78.082,-286.647 84.279,-286.647 84.279,-278.993 78.082,-278.993 		"/>
		<polygon fill="#A6A6A6" points="84.279,-282.497 84.279,-278.993 80.402,-278.993 80.402,-282.497 		"/>
		<path fill="#A9ABAE" d="M63.265-307.77h35.828c0.365,0,0.664,0.306,0.664,0.681v23.913c0,0.373-0.299,0.679-0.664,0.679H63.265
			c-0.365,0-0.662-0.306-0.662-0.679v-23.913C62.603-307.464,62.9-307.77,63.265-307.77z"/>
		<path fill="#669999" d="M64.691-306.782h33.607c0.266,0,0.496,0.238,0.496,0.544v21.667c0,0.306-0.23,0.545-0.496,0.545H64.095
			c-0.299,0-0.531-0.239-0.531-0.545v-21.056C63.564-306.273,64.06-306.782,64.691-306.782z"/>
		<path fill="#CCCCCC" d="M81.197-283.891c0.273,0,0.496,0.229,0.496,0.51s-0.223,0.511-0.496,0.511
			c-0.275,0-0.498-0.229-0.498-0.511S80.922-283.891,81.197-283.891z"/>
		<ellipse fill="#B3B3B3" cx="81.197" cy="-283.381" rx="0.365" ry="0.374"/>
		<path fill="#336666" d="M65.685-306.069h31.553c0.266,0,0.465,0.204,0.465,0.476v20.375c0,0.273-0.199,0.477-0.465,0.477H65.123
			c-0.266,0-0.465-0.203-0.465-0.477v-19.796C64.658-305.593,65.123-306.069,65.685-306.069z"/>
		<rect x="67.806" y="-303.517" fill="#E6E6E6" width="21.113" height="17.721"/>
		<rect x="65.187" y="-303.552" fill="#66FFCC" width="1.807" height="17.73"/>
		<rect x="89.549" y="-303.415" fill="#E6E6E6" width="4.375" height="17.551"/>
		<rect x="94.918" y="-303.552" fill="#E6E6E6" width="1.807" height="17.73"/>
		<rect x="89.881" y="-303.041" fill="#CCCCCC" width="3.779" height="5"/>
		<rect x="89.881" y="-297.497" fill="#CCCCCC" width="3.777" height="2.858"/>
		<rect x="89.881" y="-293.892" fill="#CCCCCC" width="3.777" height="1.814"/>
		<rect x="89.881" y="-291.443" fill="#CCCCCC" width="3.779" height="5.035"/>
		<path fill="#33CC99" d="M95.117-303.041h0.564v0.578h-0.564V-303.041z M95.945-286.884h0.564v0.578h-0.564V-286.884z
			 M95.117-286.884h0.564v0.578h-0.564V-286.884z M95.945-287.666h0.564v0.611h-0.564V-287.666z M95.117-287.666h0.564v0.611h-0.564
			V-287.666z M95.945-288.415h0.564v0.578h-0.564V-288.415z M95.117-288.415h0.564v0.578h-0.564V-288.415z M95.945-289.198h0.564
			v0.578h-0.564V-289.198z M95.117-289.198h0.564v0.578h-0.564V-289.198z M95.945-289.98h0.564v0.612h-0.564V-289.98z
			 M95.117-289.98h0.564v0.612h-0.564V-289.98z M95.945-290.728h0.564v0.578h-0.564V-290.728z M95.117-290.728h0.564v0.578h-0.564
			V-290.728z M95.945-291.51h0.564v0.612h-0.564V-291.51z M95.117-291.51h0.564v0.612h-0.564V-291.51z M95.945-292.292h0.564v0.611
			h-0.564V-292.292z M95.117-292.292h0.564v0.611h-0.564V-292.292z M95.945-293.041h0.564v0.578h-0.564V-293.041z M95.117-293.041
			h0.564v0.578h-0.564V-293.041z M95.945-293.823h0.564v0.612h-0.564V-293.823z M95.117-293.823h0.564v0.612h-0.564V-293.823z
			 M95.945-294.572h0.564v0.578h-0.564V-294.572z M95.117-294.572h0.564v0.578h-0.564V-294.572z M95.945-295.355h0.564v0.579h-0.564
			V-295.355z M95.117-295.355h0.564v0.579h-0.564V-295.355z M95.945-296.136h0.564v0.613h-0.564V-296.136z M95.117-296.136h0.564
			v0.613h-0.564V-296.136z M95.945-296.886h0.564v0.58h-0.564V-296.886z M95.117-296.886h0.564v0.58h-0.564V-296.886z
			 M95.945-297.667h0.564v0.612h-0.564V-297.667z M95.117-297.667h0.564v0.612h-0.564V-297.667z M95.945-298.45h0.564v0.613h-0.564
			V-298.45z M95.117-298.45h0.564v0.613h-0.564V-298.45z M95.945-299.198h0.564v0.577h-0.564V-299.198z M95.117-299.198h0.564v0.577
			h-0.564V-299.198z M95.945-299.98h0.564v0.612h-0.564V-299.98z M95.117-299.98h0.564v0.612h-0.564V-299.98z M95.945-300.728h0.564
			v0.578h-0.564V-300.728z M95.117-300.728h0.564v0.578h-0.564V-300.728z M95.945-301.511h0.564v0.579h-0.564V-301.511z
			 M95.117-301.511h0.564v0.579h-0.564V-301.511z M95.945-302.292h0.564v0.611h-0.564V-302.292z M95.117-302.292h0.564v0.611h-0.564
			V-302.292z M95.945-303.041h0.564v0.578h-0.564V-303.041z"/>
		<rect x="66.181" y="-305.695" fill="#999999" width="30.006" height="1.465"/>
		<ellipse fill="#B3B3B3" cx="67.177" cy="-304.946" rx="0.363" ry="0.375"/>
		<path fill="#B3B3B3" d="M69.033-305.321c0.201,0,0.363,0.169,0.363,0.374c0,0.207-0.162,0.375-0.363,0.375
			s-0.365-0.168-0.365-0.375C68.668-305.152,68.832-305.321,69.033-305.321z"/>
		<path fill="#B3B3B3" d="M70.888-305.321c0.201,0,0.365,0.169,0.365,0.374c0,0.207-0.164,0.375-0.365,0.375
			s-0.365-0.168-0.365-0.375C70.523-305.152,70.687-305.321,70.888-305.321z"/>
		<path fill="#B3B3B3" d="M72.713-305.321c0.199,0,0.363,0.169,0.363,0.374c0,0.207-0.164,0.375-0.363,0.375
			c-0.203,0-0.365-0.168-0.365-0.375C72.347-305.152,72.51-305.321,72.713-305.321z"/>
		<ellipse fill="#B3B3B3" cx="74.568" cy="-304.946" rx="0.363" ry="0.375"/>
		<ellipse fill="#B3B3B3" cx="76.424" cy="-304.946" rx="0.365" ry="0.375"/>
		<ellipse fill="#B3B3B3" cx="78.281" cy="-304.946" rx="0.363" ry="0.375"/>
		<ellipse fill="#B3B3B3" cx="80.136" cy="-304.946" rx="0.365" ry="0.375"/>
		<ellipse fill="#B3B3B3" cx="81.959" cy="-304.946" rx="0.365" ry="0.375"/>
		<path fill="#B3B3B3" d="M83.814-305.321c0.201,0,0.365,0.169,0.365,0.374c0,0.207-0.164,0.375-0.365,0.375
			c-0.199,0-0.363-0.168-0.363-0.375C83.451-305.152,83.615-305.321,83.814-305.321z"/>
		<ellipse fill="#B3B3B3" cx="85.672" cy="-304.946" rx="0.363" ry="0.375"/>
		<ellipse fill="#B3B3B3" cx="87.527" cy="-304.946" rx="0.365" ry="0.375"/>
		<ellipse fill="#B3B3B3" cx="89.349" cy="-304.946" rx="0.365" ry="0.375"/>
		<ellipse fill="#B3B3B3" cx="91.207" cy="-304.946" rx="0.363" ry="0.375"/>
		<path fill="#B3B3B3" d="M93.062-305.321c0.201,0,0.365,0.169,0.365,0.374c0,0.207-0.164,0.375-0.365,0.375
			s-0.365-0.168-0.365-0.375C92.697-305.152,92.861-305.321,93.062-305.321z"/>
		<ellipse fill="#B3B3B3" cx="94.918" cy="-304.946" rx="0.365" ry="0.375"/>
		<polygon fill="#FFCC00" points="78.379,-299.878 80.568,-298.585 82.754,-297.292 82.754,-294.673 82.754,-292.055 
			80.568,-290.762 78.379,-289.47 76.191,-290.762 74.006,-292.055 74.006,-294.673 74.006,-297.292 76.191,-298.585 		"/>
		<polygon fill="#FFAB00" points="78.379,-299.878 80.568,-298.585 82.754,-297.292 82.754,-294.947 74.006,-294.947 
			74.006,-297.292 76.191,-298.585 		"/>
		<path fill="#CCCCCC" d="M78.345-302.192L78.345-302.192h-0.031h-0.066h-0.035c-0.064,0-0.131-0.067-0.131-0.136
			c0-0.102,0.066-0.136,0.131-0.17h0.035h0.066h0.031l0,0h0.068h0.033h0.064l0.033,0.034h0.066h0.033
			c0.066,0,0.133,0.067,0.133,0.136c-0.033,0.068-0.066,0.136-0.166,0.136h-0.033h-0.033h-0.033h-0.064h-0.033H78.345z
			 M77.385-302.429c0.066,0,0.133,0.067,0.166,0.137c0,0.068-0.066,0.135-0.133,0.135l0,0l-0.033,0.035H77.32h-0.035h-0.033h-0.066
			l-0.031,0.033c-0.066,0-0.135-0.068-0.135-0.135c-0.031-0.07,0.035-0.138,0.1-0.138l0.035-0.034h0.031h0.066h0.033l0.066-0.033
			H77.385L77.385-302.429z M76.324-302.192c0.066-0.032,0.133,0.034,0.166,0.103c0,0.068-0.033,0.137-0.1,0.171h-0.033h-0.033
			l-0.066,0.032h-0.033l-0.033,0.035h-0.064l0,0c-0.068,0.033-0.133,0-0.166-0.067c-0.033-0.103,0-0.171,0.098-0.204l0,0h0.035
			l0.066-0.035h0.031h0.033l0.066-0.034H76.324L76.324-302.192z M75.263-301.816c0.066-0.035,0.166,0,0.199,0.067
			s0,0.169-0.066,0.204h-0.033l-0.066,0.033h-0.033l-0.033,0.034l-0.033,0.034h-0.066l0,0c-0.066,0.033-0.131,0-0.166-0.068
			c-0.033-0.068,0-0.136,0.066-0.17l0,0l0.033-0.035h0.033l0.066-0.032l0.033-0.034h0.033L75.263-301.816z M74.302-301.273
			c0.066-0.033,0.133-0.033,0.199,0.034c0.033,0.067,0,0.17-0.066,0.204l-0.033,0.033h-0.033l-0.033,0.035l-0.033,0.034
			l-0.033,0.033h-0.033l0,0c-0.066,0.067-0.166,0.034-0.199-0.033c-0.031-0.034-0.031-0.137,0.033-0.171v-0.033h0.033l0.066-0.035
			l0.033-0.033l0.033-0.034h0.033L74.302-301.273z M73.408-300.593c0.066-0.033,0.133-0.033,0.199,0c0.033,0.068,0.033,0.17,0,0.205
			l-0.033,0.034l-0.033,0.032h-0.033l-0.033,0.035l-0.033,0.035l-0.033,0.033v0.033c-0.066,0.033-0.166,0.033-0.199-0.033
			c-0.066-0.033-0.066-0.136,0-0.17l0.033-0.035l0.033-0.033l0.033-0.034l0.033-0.034l0.033-0.033h0.033V-300.593L73.408-300.593z
			 M72.646-299.776c0.033-0.069,0.131-0.069,0.164-0.034c0.066,0.068,0.066,0.137,0.033,0.204l0,0l-0.033,0.034l-0.033,0.033
			l-0.033,0.034l-0.031,0.034l-0.033,0.033v0.035c-0.068,0.067-0.133,0.067-0.199,0.034c-0.066-0.069-0.066-0.137-0.033-0.204
			l0.033-0.034l0.033-0.034l0.033-0.033l0.033-0.035v-0.033l0.033-0.034H72.646z M71.982-298.892c0.033-0.034,0.1-0.068,0.166-0.034
			s0.1,0.138,0.066,0.204l-0.033,0.035l-0.033,0.033l-0.033,0.033v0.035l-0.033,0.068l-0.033,0.034l0,0
			c-0.033,0.067-0.1,0.067-0.164,0.032c-0.068-0.032-0.102-0.102-0.068-0.17v-0.033l0.033-0.033l0.033-0.035v-0.034l0.033-0.032
			l0.033-0.035L71.982-298.892z M71.453-297.871c0.031-0.067,0.1-0.102,0.166-0.067c0.064,0.034,0.098,0.102,0.064,0.169v0.034
			l-0.033,0.068v0.034l-0.031,0.034v0.033l-0.033,0.068l0,0c-0.033,0.068-0.102,0.102-0.166,0.068c-0.066-0.034-0.1-0.102-0.1-0.17
			l0.033-0.034v-0.034l0.033-0.033v-0.035l0.033-0.067v-0.034L71.453-297.871z M71.054-296.816c0.033-0.07,0.1-0.103,0.166-0.103
			c0.1,0.032,0.133,0.103,0.1,0.204l0,0v0.033l-0.033,0.035v0.066v0.035l-0.033,0.033v0.034c0,0.103-0.1,0.137-0.166,0.103
			c-0.066,0-0.1-0.068-0.1-0.17v-0.035l0.033-0.034v-0.067l0.033-0.035v-0.033V-296.816L71.054-296.816z M70.855-295.695
			c0-0.068,0.066-0.135,0.133-0.135c0.066,0.033,0.133,0.102,0.133,0.169v0.034l-0.033,0.033v0.07v0.032v0.069v0.033l0,0
			c0,0.068-0.066,0.137-0.166,0.137c-0.066,0-0.133-0.069-0.1-0.17l0,0v-0.035v-0.066v-0.035v-0.068v-0.034L70.855-295.695z
			 M70.789-294.572c0-0.067,0.033-0.137,0.133-0.137c0.066,0,0.133,0.069,0.133,0.137v0.067v0.034v0.034v0.068v0.033v0.034
			c0,0.103-0.066,0.172-0.133,0.172s-0.133-0.069-0.133-0.137v-0.035v-0.067v-0.034v-0.068v-0.034V-294.572z M70.855-293.415
			c0-0.068,0.066-0.17,0.133-0.17s0.133,0.033,0.166,0.102v0.068v0.035v0.066v0.035l0.033,0.034v0.033c0,0.103-0.033,0.17-0.1,0.17
			c-0.066,0.034-0.166-0.033-0.166-0.103v-0.033l-0.033-0.067v-0.034v-0.035v-0.066L70.855-293.415z M71.121-292.327
			c-0.033-0.067,0.033-0.136,0.1-0.17c0.066,0,0.133,0.034,0.166,0.103v0.033l0.033,0.034v0.035v0.033l0.033,0.068v0.033v0.035
			c0.031,0.067,0,0.135-0.066,0.17c-0.066,0.033-0.133-0.035-0.166-0.103l0,0l-0.033-0.067v-0.035l-0.033-0.033v-0.066l-0.033-0.035
			V-292.327L71.121-292.327z M71.519-291.273c-0.035-0.067,0-0.135,0.066-0.17c0.064-0.034,0.164,0,0.197,0.068v0.034l0.033,0.034
			v0.033l0.033,0.035l0.035,0.033v0.068l0,0c0.031,0.067,0.031,0.17-0.035,0.204s-0.166,0-0.199-0.067v-0.035l-0.031-0.034v-0.034
			l-0.033-0.033l-0.033-0.068v-0.033L71.519-291.273z M72.082-290.286c-0.033-0.034-0.033-0.135,0.033-0.17
			c0.066-0.067,0.166-0.034,0.199,0.035l0,0l0.033,0.033l0.033,0.068v0.033l0.033,0.035l0.033,0.033l0,0
			c0.066,0.068,0.033,0.17,0,0.205c-0.066,0.033-0.166,0.033-0.199-0.035h-0.033v-0.068l-0.033-0.033l-0.033-0.035l-0.033-0.034
			l-0.033-0.032V-290.286L72.082-290.286z M72.777-289.367c-0.064-0.069-0.064-0.17,0-0.204c0.066-0.067,0.133-0.067,0.199,0l0,0
			l0.033,0.034l0.033,0.034l0.033,0.033l0.033,0.035l0.033,0.033v0.034c0.066,0.067,0.066,0.136,0,0.204
			c-0.033,0.034-0.133,0.034-0.199,0v-0.034l-0.033-0.034l-0.033-0.033l-0.033-0.035l-0.033-0.034L72.777-289.367L72.777-289.367z
			 M73.574-288.585c-0.066-0.068-0.066-0.137-0.033-0.204c0.066-0.069,0.133-0.069,0.197-0.034l0.035,0.034l0.033,0.034l0.031,0.033
			h0.035l0.031,0.035l0.033,0.033l0,0c0.068,0.068,0.102,0.136,0.035,0.203c-0.035,0.07-0.135,0.07-0.166,0.035h-0.033l-0.033-0.035
			l-0.033-0.033l-0.033-0.034l-0.033-0.032l-0.033-0.035H73.574L73.574-288.585z M74.469-287.939
			c-0.066-0.033-0.066-0.136-0.033-0.205c0.033-0.067,0.1-0.067,0.166-0.033h0.033l0.033,0.033l0.066,0.035h0.033l0.033,0.034
			l0.033,0.032l0,0c0.066,0.035,0.098,0.104,0.066,0.17c-0.033,0.069-0.133,0.104-0.199,0.069l0,0l-0.033-0.034l-0.033-0.035h-0.066
			l-0.033-0.032l-0.033-0.034H74.469L74.469-287.939z M75.463-287.429c-0.066-0.034-0.1-0.102-0.066-0.204
			c0.033-0.067,0.1-0.103,0.166-0.067l0.033,0.034h0.033l0.033,0.033h0.066l0.033,0.034h0.033h0.033
			c0.066,0.033,0.1,0.103,0.066,0.17c-0.033,0.102-0.1,0.137-0.166,0.102h-0.033l-0.033-0.033h-0.033l-0.066-0.034h-0.033
			l-0.033-0.034H75.463L75.463-287.429z M76.523-287.088c-0.1,0-0.133-0.069-0.1-0.17c0-0.069,0.066-0.103,0.166-0.103l0.033,0.033
			h0.033h0.033l0.066,0.035h0.033h0.033c0.1,0.034,0.133,0.102,0.133,0.17c-0.033,0.067-0.1,0.137-0.166,0.102h-0.066h-0.033
			l-0.033-0.034H76.59h-0.033L76.523-287.088z M77.584-286.884c-0.066,0-0.1-0.068-0.1-0.137c0-0.102,0.066-0.137,0.133-0.137h0.033
			h0.066h0.033h0.033h0.066h0.033l0,0c0.066,0.035,0.133,0.103,0.133,0.17c0,0.068-0.066,0.137-0.133,0.137l0,0h-0.066l-0.033-0.033
			h-0.066h-0.033h-0.066H77.584z M78.711-286.851c-0.1,0-0.133-0.068-0.166-0.137c0-0.067,0.066-0.135,0.133-0.135h0.066h0.033
			l0.033-0.035h0.066h0.033h0.033c0.1,0,0.166,0.069,0.166,0.137c0,0.068-0.066,0.137-0.133,0.137h-0.033l-0.066,0.033h-0.033
			h-0.066h-0.033H78.711z M79.804-286.988c-0.066,0-0.166-0.033-0.166-0.101c0-0.069,0.033-0.17,0.1-0.17h0.033l0.066-0.034h0.033
			h0.033h0.066l0.033-0.035c0.066,0,0.133,0.035,0.166,0.103c0,0.103-0.033,0.17-0.1,0.17l-0.033,0.034H79.97h-0.033h-0.066
			l-0.033,0.033H79.804L79.804-286.988z M80.865-287.292c-0.066,0.034-0.166,0-0.166-0.068c-0.033-0.068,0-0.17,0.066-0.17
			l0.033-0.035h0.033l0.033-0.033h0.033h0.066l0.033-0.034h0.033c0.066-0.034,0.133,0,0.166,0.067c0.033,0.069,0,0.171-0.066,0.171
			l-0.033,0.034h-0.066l-0.033,0.033h-0.033l-0.033,0.035H80.865L80.865-287.292z M81.859-287.736c-0.066,0.035-0.131,0-0.166-0.067
			c-0.033-0.069,0-0.136,0.068-0.171v-0.033h0.031l0.033-0.035h0.068l0.031-0.033l0.033-0.033h0.035
			c0.064-0.035,0.131-0.035,0.164,0.033s0.033,0.171-0.033,0.203h-0.033l-0.033,0.035l-0.064,0.034h-0.035l-0.033,0.034
			l-0.031,0.033H81.859z M82.822-288.348c-0.068,0.069-0.168,0.034-0.199-0.032c-0.033-0.035-0.033-0.138,0.031-0.17v-0.035h0.035
			l0.033-0.034l0.031-0.034l0.033-0.033l0.035-0.035h0.031c0.068-0.067,0.166-0.033,0.199,0c0.033,0.068,0.033,0.17-0.033,0.204
			l-0.033,0.034l-0.033,0.033l-0.031,0.035h-0.035l-0.033,0.035L82.822-288.348L82.822-288.348z M83.65-289.062
			c-0.068,0.034-0.133,0.034-0.199,0c-0.033-0.068-0.033-0.17,0-0.203l0.031-0.035l0.035-0.034l0.033-0.033l0.031-0.034l0.035-0.035
			l0.033-0.033l0,0c0.066-0.068,0.133-0.068,0.197,0c0.035,0.033,0.035,0.136,0,0.205l0,0l-0.031,0.033l-0.033,0.034l-0.033,0.034
			l-0.033,0.033l-0.035,0.035L83.65-289.062z M84.379-289.912c-0.033,0.034-0.133,0.069-0.199,0c-0.033-0.033-0.066-0.136,0-0.169
			v-0.035l0.033-0.033l0.033-0.035v-0.034l0.033-0.032l0.033-0.035v-0.034c0.066-0.067,0.133-0.067,0.199-0.034
			c0.066,0.034,0.066,0.136,0.033,0.205l0,0l-0.033,0.033l-0.033,0.068l-0.033,0.033l-0.031,0.035v0.034L84.379-289.912z
			 M84.974-290.865c-0.031,0.068-0.1,0.068-0.164,0.035c-0.066-0.035-0.1-0.103-0.066-0.17v-0.035l0.031-0.034l0.035-0.034v-0.033
			l0.033-0.068l0.031-0.033v-0.035c0.035-0.067,0.1-0.067,0.168-0.035c0.064,0.035,0.1,0.104,0.064,0.172v0.033l-0.033,0.034v0.034
			l-0.031,0.068l-0.033,0.034v0.034L84.974-290.865z M85.439-291.919c0,0.068-0.098,0.104-0.166,0.104
			c-0.066-0.035-0.1-0.137-0.066-0.205l0,0v-0.034l0.035-0.067v-0.035l0.031-0.034v-0.067l0,0c0.033-0.068,0.1-0.136,0.199-0.103
			c0.066,0.034,0.1,0.103,0.066,0.17v0.034l-0.033,0.035v0.067l-0.033,0.034v0.033v0.068H85.439L85.439-291.919z M85.771-293.007
			c-0.033,0.068-0.1,0.135-0.168,0.103c-0.064,0-0.131-0.069-0.098-0.17v-0.034v-0.035l0.033-0.033v-0.068v-0.033v-0.035v-0.033
			c0.033-0.068,0.1-0.104,0.164-0.104c0.068,0.035,0.135,0.104,0.1,0.172l0,0v0.033v0.068v0.033l-0.031,0.069v0.033V-293.007
			L85.771-293.007z M85.902-294.13c0,0.068-0.064,0.137-0.131,0.137c-0.068,0-0.133-0.068-0.133-0.17l0,0v-0.068v-0.033v-0.069
			l0.033-0.034v-0.067l0,0c0-0.068,0.066-0.136,0.131-0.136c0.068,0,0.133,0.067,0.133,0.17l0,0v0.033v0.068v0.035v0.067
			l-0.033,0.034V-294.13z M85.902-295.251c0,0.066-0.031,0.135-0.131,0.135c-0.068,0-0.133-0.068-0.133-0.135v-0.035v-0.068v-0.033
			v-0.035l-0.035-0.067v-0.032c0-0.07,0.068-0.138,0.135-0.138c0.064-0.034,0.133,0.033,0.133,0.103l0.031,0.033v0.067v0.034v0.068
			v0.034V-295.251z M85.738-296.407c0.033,0.102-0.035,0.17-0.1,0.17c-0.066,0.033-0.133-0.035-0.166-0.103v-0.034v-0.033
			l-0.033-0.035v-0.067v-0.034l-0.033-0.035v-0.033c0-0.068,0.033-0.137,0.1-0.17c0.066,0,0.166,0.033,0.166,0.102l0,0l0.031,0.068
			v0.033v0.069l0.035,0.033v0.034V-296.407z M85.439-297.497c0,0.104-0.033,0.17-0.098,0.205c-0.068,0.033-0.135-0.035-0.168-0.102
			l0,0l-0.031-0.035v-0.034l-0.035-0.034v-0.068l-0.033-0.033v-0.034c-0.031-0.067,0-0.17,0.068-0.17
			c0.064-0.034,0.164,0,0.164,0.067l0.035,0.035v0.034l0.031,0.033l0.033,0.067v0.035L85.439-297.497L85.439-297.497z
			 M84.943-298.517c0.031,0.066,0.031,0.17-0.035,0.203c-0.064,0.035-0.164,0-0.197-0.066l0,0v-0.035l-0.033-0.035l-0.033-0.032
			l-0.033-0.034v-0.068l-0.033-0.035c-0.033-0.066,0-0.136,0.033-0.168c0.066-0.07,0.164-0.035,0.199,0.032l0.033,0.034l0.031,0.035
			v0.033l0.033,0.067l0.035,0.034V-298.517L84.943-298.517z M84.345-299.47c0.033,0.068,0.033,0.17-0.033,0.205
			c-0.066,0.033-0.133,0.033-0.199-0.035v-0.034l-0.033-0.033l-0.033-0.034l-0.031-0.035l-0.035-0.033v-0.034h-0.033
			c-0.031-0.067-0.031-0.136,0.033-0.204c0.066-0.033,0.133-0.033,0.199,0.035l0,0l0.033,0.033l0.033,0.034v0.034l0.033,0.033
			l0.033,0.034L84.345-299.47z M83.617-300.322c0.033,0.07,0.033,0.172,0,0.205c-0.066,0.069-0.135,0.069-0.199,0h-0.033
			l-0.033-0.033l-0.033-0.035l-0.033-0.033l-0.033-0.033v-0.035h-0.033c-0.066-0.067-0.066-0.137,0-0.204
			c0.033-0.067,0.133-0.067,0.166,0h0.033l0.033,0.034l0.031,0.033l0.035,0.035l0.033,0.034l0.031,0.032H83.617z M82.754-301.034
			c0.068,0.033,0.068,0.136,0.033,0.203c-0.033,0.068-0.133,0.068-0.197,0.035l0,0l-0.035-0.035l-0.031-0.033l-0.033-0.034h-0.035
			l-0.064-0.033v-0.034c-0.066-0.035-0.1-0.137-0.066-0.17c0.066-0.068,0.131-0.103,0.199-0.068l0.031,0.033l0.035,0.035h0.033
			l0.031,0.033l0.035,0.034L82.754-301.034L82.754-301.034z M81.826-301.613c0.068,0.033,0.068,0.102,0.033,0.17
			c-0.033,0.068-0.098,0.103-0.166,0.068l0,0l-0.066-0.033h-0.031l-0.033-0.035h-0.035l-0.031-0.034l-0.033-0.033
			c-0.066-0.034-0.1-0.103-0.066-0.171c0.033-0.067,0.098-0.102,0.166-0.067l0.033,0.034h0.031l0.066,0.033h0.035l0.031,0.034
			l0.033,0.034H81.826z M80.799-302.055c0.066,0,0.1,0.103,0.066,0.169c0,0.07-0.1,0.104-0.166,0.07l0,0h-0.033l-0.066-0.035h-0.033
			h-0.033l-0.031-0.035h-0.033c-0.1-0.032-0.133-0.1-0.1-0.169c0.033-0.067,0.1-0.136,0.164-0.103h0.033l0.033,0.035h0.066
			l0.033,0.033h0.033L80.799-302.055L80.799-302.055z M79.738-302.362c0.066,0.034,0.1,0.103,0.1,0.17
			c0,0.069-0.1,0.137-0.166,0.103h-0.033h-0.033h-0.033l-0.064-0.033h-0.035h-0.064l0,0c-0.066,0-0.102-0.069-0.102-0.17
			c0-0.069,0.066-0.104,0.133-0.104h0.033h0.035h0.031l0.066,0.034h0.033h0.066H79.738z"/>
		<path fill="#4E5A62" d="M99.094-308.347H63.265c-0.695,0-1.227,0.544-1.227,1.258v23.913c0,0.712,0.531,1.292,1.227,1.292h13.689
			v0.68c-2.055,0.307-6.266,1.259-6.266,3.571c0,0.069,0,0.136,0,0.204c0,0.067,0,0.103,0,0.172c0,0.066,0,0.135,0,0.169
			c0,0.067,0,0.103,0,0.169c0,1.532,1.857,2.417,3.049,2.823c2.057,0.749,4.475,1.021,6.664,1.056
			c0.23,0.033,0.463,0.033,0.695,0.033c2.32,0,4.938-0.271,7.16-1.02c1.191-0.408,3.281-1.293,3.281-2.893c0-0.066,0-0.102,0-0.169
			c0-0.034,0-0.103,0-0.169c0-0.069,0-0.104,0-0.172c0-0.068,0-0.135,0-0.204c0-2.313-4.211-3.265-6.266-3.571v-0.68h13.82
			c0.697,0,1.227-0.58,1.227-1.292v-23.913C100.322-307.803,99.791-308.347,99.094-308.347z M99.758-283.176
			c0,0.373-0.299,0.679-0.664,0.679H84.677v1.803c3.678,0.478,6.264,1.668,6.264,3.062c0,0.069,0,0.136,0,0.204
			c0,0.067,0,0.103,0,0.172c0,0.066,0,0.135,0,0.169c0,0.067,0,0.103,0,0.169c0,1.838-4.408,3.301-9.844,3.301
			c-0.232,0-0.463,0-0.695,0c-5.105-0.137-9.148-1.565-9.148-3.301c0-0.066,0-0.102,0.033-0.169
			c-0.033-0.034-0.033-0.103-0.033-0.169c0-0.069,0-0.104,0.033-0.172c-0.033-0.068-0.033-0.135-0.033-0.204
			c0-1.394,2.619-2.584,6.297-3.062v-1.803H63.265c-0.365,0-0.662-0.306-0.662-0.679v-23.913c0-0.375,0.297-0.681,0.662-0.681
			h35.828c0.365,0,0.664,0.306,0.664,0.681V-283.176L99.758-283.176z"/>
		<path fill="#E6E6E6" d="M57.564-310.73h10.475c1.457,0,2.65,1.226,2.65,2.723v24.659c0,1.497-1.193,2.722-2.65,2.722H57.564
			c-1.457,0-2.65-1.225-2.65-2.722v-24.659C54.914-309.504,56.107-310.73,57.564-310.73z"/>
		<path fill="#4E5A62" d="M57.797-308.891H67.84c0.994,0,1.822,0.815,1.822,1.87v21.089c0,1.054-0.828,1.87-1.822,1.87H57.797
			c-0.994,0-1.822-0.816-1.822-1.87v-21.089C55.974-308.075,56.802-308.891,57.797-308.891z"/>
		<path fill="#CCCCCC" d="M56.304-283.244h1.891c0.197,0,0.33,0.135,0.33,0.34l0,0c0,0.169-0.133,0.341-0.33,0.341h-1.891
			c-0.166,0-0.33-0.172-0.33-0.341l0,0C55.974-283.11,56.138-283.244,56.304-283.244z"/>
		<path fill="#7F8C8D" d="M61.972-283.244h2.088c0.299,0,0.531,0.237,0.531,0.544l0,0c0,0.271-0.232,0.544-0.531,0.544h-2.088
			c-0.264,0-0.529-0.272-0.529-0.544l0,0C61.443-283.007,61.709-283.244,61.972-283.244z"/>
		<path fill="#CCCCCC" d="M67.441-283.244h1.857c0.197,0,0.363,0.135,0.363,0.34l0,0c0,0.169-0.166,0.341-0.363,0.341h-1.857
			c-0.197,0-0.33-0.172-0.33-0.341l0,0C67.109-283.11,67.242-283.244,67.441-283.244z"/>
		<path fill="#FEFEFE" d="M60.117-310.218h5.402c0.199,0,0.332,0.137,0.332,0.34l0,0c0,0.205-0.133,0.34-0.332,0.34h-5.402
			c-0.199,0-0.365-0.135-0.365-0.34l0,0C59.752-310.081,59.918-310.218,60.117-310.218z"/>
		<path fill="#CCCCCC" d="M62.072-283.144h1.889c0.299,0,0.498,0.205,0.498,0.443l0,0c0,0.236-0.199,0.408-0.498,0.408h-1.889
			c-0.266,0-0.463-0.172-0.463-0.408l0,0C61.609-282.939,61.806-283.144,62.072-283.144z"/>
		<path fill="#FED5A9" d="M59.818-269.367c0.033-1.122,0.1-2.245,0.266-3.266c0.531-3.741,2.85-6.495,3.68-7.483
			c0,0,2.021-2.313,1.523-5.033c-0.463-2.416-0.895-6.395-0.695-8.674c0.266-3.231-2.121-5.238-2.686-0.544
			c-0.563,4.897-2.783,15.715-6.959,8.81v-10.715c0,0-1.26-0.204-1.99,1.769c-0.695,1.974-5.369,4.423-5.336,6.293
			c0.033,1.837,1.791,3.742,2.42,8.368c0.133,1.155,0.994,2.755,1.658,4.422C54.019-272.939,56.769-270.898,59.818-269.367z"/>
		<polygon fill="#E6E6E6" points="58.592,-305.456 67.873,-305.456 67.873,-299.096 58.592,-299.096 		"/>
		<polygon fill="#CCCCCC" points="63.232,-301.544 65.552,-303.517 67.873,-305.456 63.232,-305.456 58.592,-305.456 
			60.912,-303.517 		"/>
		<path fill="#4E5A62" d="M53.953-297.089v-10.918c0-2.041,1.623-3.708,3.611-3.708h10.475c1.988,0,3.611,1.667,3.611,3.708v24.659
			c0,2.042-1.623,3.708-3.611,3.708h-3.381c-0.066,0.068-0.1,0.136-0.166,0.205c-1.723,1.938-3.082,4.285-3.447,6.938
			c-0.166,1.157-0.266,2.348-0.266,3.573c-0.33-0.138-0.662-0.307-0.961-0.443c0.033-1.122,0.1-2.245,0.266-3.265
			c0.531-3.741,2.85-6.496,3.68-7.483c0,0,0.164-0.171,0.396-0.511h3.879c1.457,0,2.65-1.225,2.65-2.722v-24.659
			c0-1.497-1.193-2.723-2.65-2.723H57.564c-1.457,0-2.65,1.226-2.65,2.723v11.734c-0.133,0-1.293-0.067-1.957,1.769
			c-0.695,1.974-5.369,4.423-5.336,6.293c0.033,1.838,1.791,3.742,2.42,8.368c0.133,1.155,0.994,2.755,1.658,4.422
			c-0.764-0.783-1.459-1.633-2.123-2.518c-0.23-0.578-0.43-1.189-0.496-1.769c-0.232-1.803-0.695-3.333-1.359-5.001
			c-0.43-1.088-1.027-2.313-1.061-3.503c-0.033-1.632,1.988-3.196,3.082-4.15c0.598-0.511,2.057-1.733,2.32-2.481
			c0.299-0.852,0.797-1.667,1.625-2.109C53.754-296.988,53.853-297.055,53.953-297.089z"/>
	</g>
</g>
<g>
	<g>
		<path fill="#08A9D9" d="M35.198-317.752c0-0.505-0.4-0.914-0.896-0.914H-21.15c-0.495,0-0.895,0.409-0.895,0.914v28.339h57.243
			V-317.752z"/>
		<g>
			<path fill="#08A9D9" d="M-22.017-262.887c0,0.504,0.4,0.914,0.895,0.914h55.452c0.496,0,0.896-0.41,0.896-0.914v-28.337h-57.243
				V-262.887z"/>
		</g>
	</g>
	<g>
		<path fill="#F4F4F4" d="M6.603-311.413c-12.119,0-21.947,9.853-21.947,22.003c0,12.147,9.828,21.997,21.947,21.997
			c12.122,0,21.948-9.85,21.948-21.997C28.551-301.561,18.725-311.413,6.603-311.413z M6.552-308.803
			c4.971,0,9.486,1.886,12.917,4.961c-1.439,0.598-2.349,2.338-1.102,5.041c0.689,1.496,3.6,4.117,2.477,7.572l-5.162,13.048
			l-5.21-14.443c-0.17-0.419-0.254-0.867-0.254-1.339c0-0.698,0.303-1.231,0.904-1.6c0.602-0.367,1.447-0.551,2.53-0.551h0.89v-1.3
			H0.573v1.301c0.662,0,1.271,0.091,1.733,0.272c0.466,0.178,0.914,0.498,1.351,0.955c0.493,0.472,0.899,0.996,1.217,1.572
			c0.32,0.58,0.489,1.112,0.91,2.344l-5.153,12.817l-5.129-14.399c-0.217-0.639-0.324-1.247-0.324-1.826
			c0-0.592,0.267-0.995,0.748-1.303c0.367-0.233,0.531-0.576,1.604-0.588l-0.019-1.146l-8.625,0.017
			C-8.068-304.119-1.306-308.803,6.552-308.803z M-12.838-289.41c0-2.072,0.333-4.063,0.934-5.936
			c0.189,0.138,0.383,0.269,0.558,0.445c0.795,0.805,1.512,2.121,2.149,3.941l6.854,18.763
			C-8.572-275.421-12.838-281.911-12.838-289.41z M-0.962-271.534l7.293-18.25l6.82,18.586c-2.062,0.748-4.279,1.176-6.602,1.176
			C3.887-270.023,1.348-270.562-0.962-271.534z M14.141-271.566l7.699-19.575c0.592-1.473,1.789-4.521,2.26-6.472
			c1.17,2.494,1.84,5.267,1.84,8.202C25.94-281.398,21.077-274.519,14.141-271.566z"/>
		<g>
			<path fill="#F4F4F4" d="M25.94-289.413c0,0.001,0,0.002,0,0.003c0,8.013-4.862,14.892-11.798,17.845l7.019-17.848h-1.033
				l-4.445,11.232l-4.052-11.232H6.469l6.685,18.215c-2.063,0.748-4.279,1.176-6.601,1.176c-2.664,0-5.203-0.539-7.514-1.512
				l7.145-17.879H5.159l-4.528,11.262l-4.013-11.262h-5.251l6.29,17.217c-6.229-3.225-10.495-9.715-10.495-17.214
				c0-0.001,0-0.002,0-0.003h-2.506c0,0.001,0,0.002,0,0.003c0,12.147,9.828,21.997,21.947,21.997
				c12.122,0,21.948-9.85,21.948-21.997c0-0.001,0-0.002,0-0.003H25.94z"/>
		</g>
	</g>
</g>
<g>
	<polyline fill="#B0B0B0" points="-155.556,-261.973 -98.863,-261.973 -98.863,-318.668 -155.556,-318.668 -155.556,-261.973 	"/>
	<polyline fill="#FFFFFF" points="-127.364,-304.826 -141.05,-300.009 -138.887,-282.077 -127.349,-275.736 -115.751,-282.163 
		-113.589,-300.094 -127.364,-304.826 	"/>
	<polyline fill="#999999" points="-114.954,-299.059 -127.395,-303.301 -127.395,-277.25 -116.97,-283.022 -114.954,-299.059 	"/>
	<polyline fill="#B0B0B0" points="-139.514,-298.982 -137.661,-282.945 -127.395,-277.25 -127.395,-303.301 -139.514,-298.982 	"/>
	<path fill="#FFFFFF" d="M-124.302-290.24l-3.071-6.078l-2.519,5.975h2.497L-124.302-290.24 M-123.971-289.433l-3.424,1.602h-3.609
		l-1.697,4.243l-3.156,0.059l8.463-18.826L-123.971-289.433z"/>
	<polyline fill="#FFFFFF" points="-127.395,-302.356 -127.373,-296.319 -124.515,-290.34 -127.389,-290.34 -127.395,-287.835 
		-123.421,-287.831 -121.563,-283.529 -118.544,-283.473 -127.395,-302.356 	"/>
</g>
<g>
	<g>
		<polyline fill="#FBAB18" points="178.7,-261.973 235.878,-261.973 235.878,-318.801 178.7,-318.801 178.7,-261.973 		"/>
	</g>
	<g>
		<path fill="#E78724" d="M205.139-291.59c0.004-0.01,0.007-0.018,0.01-0.025c-0.003,0-0.007,0-0.012,0
			C205.138-291.608,205.138-291.598,205.139-291.59z"/>
		<path fill="#FBA919" d="M201.722-299.807c-0.021-0.059-0.048-0.125-0.077-0.193c0.035,0.119,0.049,0.197,0.049,0.197
			L201.722-299.807z"/>
		<path fill="#FFFFFF" d="M201.677-293.793c-0.012,0.078-0.02,0.158-0.024,0.242c0.02,0.168,0.157,0.975,0.995,1.254
			c0.663,0.221,1.255-0.014,1.338-0.047c-0.302-0.363-0.753-0.764-1.28-1.141c-0.301-0.217-0.624-0.424-0.958-0.611
			C201.719-294.008,201.694-293.906,201.677-293.793z"/>
		<path fill="#FFFFFF" d="M198.798-286.981c-0.003,0.002-0.004,0.004-0.006,0.006c0.001,0.002,0.002,0.004,0.002,0.008
			C198.796-286.975,198.798-286.981,198.798-286.981z"/>
		<path fill="#FFFFFF" d="M198.599-285.459c-0.066,1.871,0.796,3.033,2.002,3.531c0.369,0.152,0.771,0.242,1.188,0.271
			c0.03-0.309,0.147-0.574,0.354-0.797c0.021-0.023,0.046-0.047,0.07-0.068c0.101-0.131,0.237-0.32,0.387-0.555
			c-0.642-0.027-1.375-0.145-2.049-0.42C199.699-283.846,198.946-284.455,198.599-285.459z"/>
		<path fill="#E78724" d="M209.428-291.615c0.004,0.008,0.008,0.016,0.012,0.025c0-0.008,0-0.016,0-0.025
			C209.436-291.615,209.432-291.615,209.428-291.615z"/>
		<g>
			<path fill="#FBA919" d="M199.378-293.52c-0.134,0.988-0.484,1.416-0.697,1.59c0.528,0.588,1.869,1.051,1.869,1.051
				c0.976,0.357,1.104,1.486,1.138,2.389c0.198-0.43,0.367-1.08,0.367-1.08s0.051,1.869-0.091,3.146
				c-0.104,0.932-0.398,1.943-0.541,2.379c0.257,0.064,0.521,0.107,0.785,0.139c0.828-1.225,1.903-2.863,2.227-3.355
				c0.13-0.291,0.246-0.533,0.328-0.668c-0.295,2.115-0.95,3.996-1.274,4.857c0.189-0.025,0.396-0.045,0.636-0.045
				c0,0,2.251,0,3.162-0.002h0.008l3.161,0.002c0.24,0,0.446,0.02,0.636,0.045c-0.324-0.861-0.979-2.742-1.275-4.857
				c0.084,0.137,0.2,0.379,0.33,0.668c0.323,0.494,1.397,2.131,2.226,3.355c0.264-0.031,0.528-0.074,0.786-0.139
				c-0.145-0.436-0.438-1.447-0.543-2.379c-0.141-1.277-0.089-3.146-0.089-3.146s0.168,0.65,0.366,1.08
				c0.034-0.902,0.162-2.031,1.139-2.389c0,0,1.34-0.463,1.867-1.051c-0.213-0.174-0.563-0.602-0.696-1.59
				c-0.12-0.891-0.007-1.707,0.102-2.209c0.043-0.537,0.144-1.096,0.274-1.381c-0.01,0.264,0,0.527,0.018,0.779
				c0.021-0.045,0.045-0.086,0.07-0.119c0.174-0.217,0.641-0.947,0.506-1.439c-0.051-0.188-0.169-0.326-0.361-0.426
				c-0.203-0.104-0.479-0.156-0.816-0.156c-0.664,0-1.402,0.203-1.782,0.324c-1.359,0.43-2.999,1.672-3.47,2.043
				c-0.014,0.01-0.021,0.016-0.023,0.018l-0.301,0.209l0.188-0.316c0.005-0.006,0.137-0.221,0.383-0.529
				c0.345-0.877,1.044-2.031,1.044-2.031s0.145-0.402-0.046-0.922c-1.086-0.467-2.326-0.705-3.696-0.707
				c-1.369,0.002-2.609,0.24-3.695,0.707c-0.19,0.52-0.046,0.922-0.046,0.922s0.699,1.152,1.044,2.031
				c0.247,0.309,0.378,0.523,0.382,0.529l0.188,0.316l-0.3-0.209c-0.002-0.002-0.01-0.008-0.022-0.018
				c-0.471-0.371-2.111-1.613-3.471-2.043c-0.38-0.121-1.117-0.324-1.782-0.324c-0.338,0-0.613,0.053-0.816,0.156
				c-0.192,0.1-0.311,0.238-0.361,0.426c-0.135,0.492,0.332,1.223,0.507,1.439c0.025,0.033,0.048,0.074,0.069,0.119
				c0.018-0.252,0.026-0.516,0.018-0.779c0.131,0.283,0.231,0.842,0.274,1.379C199.384-295.229,199.499-294.412,199.378-293.52z
				 M209.602-293.08c0.24-0.227,0.435-0.596,0.629-0.873c0.611-0.869,1.621-1.248,2.427-1.311c1.374-0.107,2.026,0.379,2.026,0.379
				s-0.021,0-0.053,0.002c0.029,0.008,0.059,0.01,0.088,0.018c-0.234,0.051-0.48,0.129-0.73,0.225c0.001,0,0.002,0,0.004,0
				c0.223,0.098,0.346,0.373,0.377,0.643c0.063,0.543-0.282,1.035-0.282,1.035c-0.036-0.404-0.121-0.691-0.22-0.898
				c-0.001,0.021-0.001,0.043-0.002,0.063c0.007,0.018,0.02,0.031,0.02,0.053c0,0.553-0.158,2.527-1.699,3.082
				c-0.588,0.211-1.072,0.197-1.447,0.1c0.093,0.932,0.453,1.313,0.453,1.313s-0.672-0.215-1.016-0.643
				c0.008,0.025,0.014,0.041,0.014,0.041s-0.797-0.904-0.75-1.736c-0.004-0.01-0.008-0.018-0.012-0.025
				c-0.582-0.029-1.15-0.457-1.135-1.055c0,0,0.098,0.053,0.259,0.096C208.874-292.563,209.226-292.723,209.602-293.08z
				 M207.29-295.047c0.537,0,1.237-0.014,1.763-0.393c0,0-0.19,0.334-0.527,0.65c-0.286,0.283-0.778,0.697-1.231,0.701v0.002
				c-0.002,0-0.003-0.002-0.004-0.002c-0.002,0-0.003,0.002-0.004,0.002v-0.002c-0.455-0.004-0.948-0.42-1.233-0.703
				c-0.336-0.316-0.526-0.648-0.526-0.648C206.052-295.061,206.753-295.047,207.29-295.047z M199.894-294.885
				c0,0,0.652-0.486,2.026-0.379c0.806,0.063,1.815,0.441,2.427,1.311c0.194,0.277,0.389,0.646,0.628,0.873
				c0.378,0.357,0.73,0.518,1.051,0.506c0.161-0.043,0.259-0.096,0.259-0.096c0.016,0.598-0.553,1.025-1.136,1.055
				c-0.003,0.008-0.006,0.016-0.01,0.025c0.046,0.83-0.751,1.736-0.751,1.736s0.005-0.014,0.013-0.037
				c-0.345,0.426-1.016,0.639-1.016,0.639s0.361-0.381,0.454-1.313c-0.374,0.098-0.858,0.111-1.447-0.1
				c-1.541-0.555-1.699-2.529-1.699-3.082c0-0.021,0.013-0.035,0.02-0.051c-0.001-0.021-0.001-0.043-0.002-0.063
				c-0.099,0.205-0.185,0.492-0.22,0.896c0,0-0.345-0.492-0.282-1.035c0.03-0.27,0.155-0.545,0.377-0.643c0.001,0,0.003,0,0.004,0
				c-0.25-0.096-0.496-0.174-0.731-0.225c0.03-0.008,0.059-0.01,0.089-0.018C199.917-294.885,199.894-294.885,199.894-294.885z"/>
			<path fill="#FBA919" d="M202.927-278.606c-0.264-0.393-0.48-0.816-0.667-1.252c-0.344-0.027-0.682-0.066-1.007-0.129
				C201.603-279.469,202.144-278.924,202.927-278.606z"/>
			<path fill="#FBA919" d="M212.319-279.858c-0.188,0.436-0.403,0.859-0.666,1.252c0.781-0.318,1.321-0.863,1.672-1.379
				C213-279.924,212.663-279.885,212.319-279.858z"/>
			<path fill="#FBA919" d="M207.29-278.43c3.209-0.004,4.297-1.633,4.297-1.633l-0.109,0.268c0.191-0.377,0.32-0.725,0.41-0.982
				c0.197-0.568,0.182-0.988-0.047-1.248c-0.156-0.18-0.516-0.393-1.334-0.393h-0.855c-0.631,0-1.424-0.002-2.361-0.002
				c-0.938,0-1.73,0.002-2.362,0.002h-0.855c-0.818,0-1.178,0.213-1.334,0.393c-0.229,0.26-0.244,0.68-0.046,1.248
				c0.089,0.258,0.217,0.605,0.409,0.982l-0.11-0.268C202.991-280.063,204.079-278.434,207.29-278.43z M208.549-281.442
				c0.093-0.096,0.254-0.145,0.479-0.145h0.348c0.361,0,0.784,0,1.035,0h0.211c0.297,0,0.443,0.086,0.513,0.156
				s0.095,0.158,0.086,0.264h0.015c0,0-0.297,1.809-1.481,1.809c-1.007,0-1.304-1.529-1.304-1.844h0.021
				C208.464-281.278,208.474-281.365,208.549-281.442z M203.358-281.166c-0.009-0.105,0.017-0.193,0.085-0.264
				c0.071-0.07,0.217-0.156,0.514-0.156h0.211c0.251,0,0.674,0,1.036,0h0.347c0.226,0,0.387,0.049,0.479,0.145
				c0.074,0.076,0.085,0.164,0.076,0.24h0.022c0,0.314-0.297,1.844-1.304,1.844c-1.185,0-1.481-1.809-1.481-1.809H203.358z"/>
			<path fill="#FBA919" d="M203.177-300.467c-0.33-0.486-1.077-1.432-2.046-1.744c-0.306-0.1-0.628-0.15-0.957-0.15
				c-0.596,0-1.08,0.164-1.337,0.273c0.164,0.074,0.341,0.174,0.517,0.291c0.132-0.023,0.304-0.045,0.506-0.045
				c0.569,0,1.107,0.166,1.558,0.482c0.668,0.471,0.977,0.916,1.118,1.211c0.119-0.068,0.246-0.135,0.382-0.203
				C203.002-300.393,203.09-300.428,203.177-300.467z"/>
			<path fill="#FBA919" d="M213.448-302.211c-0.969,0.313-1.715,1.26-2.045,1.744c0.086,0.039,0.174,0.076,0.258,0.115
				c0.137,0.068,0.264,0.135,0.383,0.203c0.143-0.295,0.451-0.74,1.119-1.211c0.449-0.316,0.987-0.482,1.557-0.482
				c0.201,0,0.375,0.021,0.506,0.045c0.176-0.117,0.354-0.217,0.517-0.291c-0.257-0.109-0.74-0.271-1.337-0.271
				C214.075-302.36,213.755-302.311,213.448-302.211z"/>
		</g>
		<path fill="#FBA919" d="M212.931-299.994c-0.028,0.066-0.054,0.129-0.074,0.188l0.027,0.004
			C212.885-299.803,212.897-299.879,212.931-299.994z"/>
		<path fill="#FFFFFF" d="M211.874-293.485c-0.527,0.377-0.979,0.777-1.28,1.141c0.083,0.033,0.675,0.268,1.338,0.047
			c0.837-0.279,0.976-1.084,0.995-1.252c-0.005-0.086-0.013-0.166-0.025-0.244c-0.017-0.113-0.041-0.215-0.07-0.303
			C212.499-293.908,212.175-293.699,211.874-293.485z"/>
		<g>
			<path fill="#E78724" d="M203.036-283.848c0.11-0.223,0.213-0.461,0.298-0.711c0.028-0.082,0.65-1.697,1.101-2.703
				c-0.323,0.492-1.398,2.131-2.227,3.355C202.488-283.873,202.767-283.854,203.036-283.848z"/>
			<path fill="#E78724" d="M201.783-299.623c-0.015-0.049-0.034-0.109-0.061-0.184l-0.028,0.004c0,0-0.014-0.078-0.049-0.197
				c-0.122-0.281-0.313-0.619-0.597-0.844c-0.3-0.24-0.659-0.363-1.065-0.377c0.045,0.057,0.095,0.109,0.135,0.172
				c0.18,0.283,0.209,0.631,0.237,0.965c0.028,0.35,0.059,0.68,0.24,0.92c0.225,0.043,0.435,0.094,0.618,0.145
				C201.336-299.19,201.519-299.399,201.783-299.623z"/>
			<path fill="#E78724" d="M204.532-291.221c-0.049-0.172-0.106-0.328-0.162-0.461c0-0.002,0-0.002,0-0.002
				c-0.001,0.002-0.002,0.002-0.003,0.002c-0.098,0.088-0.198,0.158-0.303,0.215c-1.02,0.561-2.326-0.168-2.664-0.543
				c-0.5-0.555-0.655-1.24-0.688-1.787c-0.007,0.016-0.02,0.029-0.02,0.051c0,0.553,0.158,2.527,1.699,3.082
				c0.589,0.211,1.073,0.197,1.447,0.1c-0.093,0.932-0.454,1.313-0.454,1.313s0.671-0.213,1.016-0.639
				c0.046-0.135,0.19-0.604,0.172-1.035C204.569-291.028,204.558-291.127,204.532-291.221z"/>
			<path fill="#E78724" d="M204.362-293.145c0.624,0.717,1.305,0.668,1.664,0.57c-0.32,0.012-0.673-0.148-1.051-0.506
				c-0.239-0.227-0.434-0.596-0.628-0.873c-0.611-0.869-1.621-1.248-2.427-1.311c-1.374-0.107-2.026,0.379-2.026,0.379
				s0.022,0,0.053,0.002C202.19-295.373,203.842-293.742,204.362-293.145z"/>
			<path fill="#E78724" d="M199.584-290.426c0.154,0.084,0.309,0.168,0.456,0.252c0.47,0.27,0.976,0.906,1.032,1.852
				c0.012,0.195,0.015,0.459,0.011,0.764c-0.001,0.043-0.001,0.088-0.002,0.135c-0.009,0.455-0.032,0.992-0.064,1.541
				c-0.016,0.258-0.033,0.518-0.053,0.773c-0.023,0.311-0.05,0.613-0.076,0.895c0.173,0.068,0.353,0.123,0.535,0.17
				c0.143-0.436,0.438-1.447,0.541-2.379c0.142-1.277,0.091-3.146,0.091-3.146s-0.169,0.65-0.367,1.08
				c-0.034-0.902-0.162-2.031-1.138-2.389c0,0-1.341-0.463-1.869-1.051c0.213-0.174,0.563-0.602,0.697-1.59
				c0.121-0.893,0.006-1.709-0.102-2.211c0.029,0.355,0.033,0.701,0.003,0.951c-0.165,1.346-0.659,2.129-0.807,2.34
				c-0.027,0.037-0.046,0.063-0.046,0.063c0.043-0.086,0.096-0.418,0.146-0.809c-0.039,0.035-0.079,0.066-0.118,0.098l-0.026,0.021
				c-0.03,0.025-0.061,0.051-0.091,0.074c-0.211,0.178-0.39,0.389-0.39,0.914C197.947-291.311,198.779-290.86,199.584-290.426z"/>
			<path fill="#E78724" d="M203.594-299.676c-0.111,0.049-0.223,0.096-0.33,0.148c-0.774,0.377-1.062,0.66-1.17,0.816
				c1.194,0.531,2.044,1.42,2.498,1.988c-0.345-0.879-1.044-2.031-1.044-2.031S203.403-299.156,203.594-299.676z"/>
			<path fill="#E78724" d="M204.825-279.358c1.007,0,1.304-1.529,1.304-1.844h-0.022c-0.005,0.045-0.016,0.09-0.028,0.119
				c-0.058,0.145-0.299,0.613-0.705,1.049c-0.146,0.154-0.358,0.242-0.598,0.242c-0.233,0-0.472-0.086-0.637-0.229
				c-0.126-0.109-0.554-0.502-0.743-0.982c-0.022-0.061-0.033-0.113-0.037-0.164h-0.015
				C203.344-281.166,203.64-279.358,204.825-279.358z"/>
			<path fill="#E78724" d="M211.245-284.559c0.084,0.25,0.188,0.488,0.297,0.711c0.27-0.006,0.549-0.025,0.829-0.059
				c-0.828-1.225-1.902-2.861-2.226-3.355C210.594-286.256,211.216-284.641,211.245-284.559z"/>
			<path fill="#E78724" d="M214.462-301.049c0.04-0.063,0.09-0.115,0.135-0.172c-0.406,0.014-0.766,0.137-1.066,0.377
				c-0.285,0.227-0.477,0.566-0.599,0.85c-0.034,0.115-0.047,0.191-0.047,0.191l-0.027-0.004c-0.027,0.074-0.046,0.135-0.062,0.186
				c0.264,0.225,0.447,0.432,0.568,0.602c0.185-0.051,0.395-0.102,0.619-0.145c0.182-0.24,0.211-0.57,0.24-0.92
				C214.253-300.418,214.282-300.766,214.462-301.049z"/>
			<path fill="#E78724" d="M210.514-291.467c-0.104-0.057-0.206-0.127-0.304-0.215c-0.001,0-0.001,0-0.002-0.002
				c0,0,0,0-0.001,0.002c-0.055,0.133-0.113,0.289-0.161,0.461c-0.026,0.094-0.036,0.193-0.041,0.295
				c-0.019,0.43,0.124,0.895,0.171,1.031c0.344,0.428,1.016,0.643,1.016,0.643s-0.36-0.381-0.453-1.313
				c0.375,0.098,0.859,0.111,1.447-0.1c1.541-0.555,1.699-2.529,1.699-3.082c0-0.021-0.013-0.035-0.02-0.053
				c-0.032,0.549-0.188,1.234-0.688,1.789C212.841-291.635,211.534-290.906,210.514-291.467z"/>
			<path fill="#E78724" d="M210.218-293.145c0.52-0.598,2.172-2.229,4.414-1.738c0.031-0.002,0.053-0.002,0.053-0.002
				s-0.652-0.486-2.026-0.379c-0.806,0.063-1.815,0.441-2.427,1.311c-0.194,0.277-0.389,0.646-0.629,0.873
				c-0.376,0.357-0.729,0.518-1.05,0.506C208.912-292.477,209.593-292.428,210.218-293.145z"/>
			<path fill="#E78724" d="M211.477-279.795l0.109-0.268c0,0-1.088,1.629-4.297,1.633c-3.211-0.004-4.299-1.633-4.299-1.633
				l0.11,0.268c0.574,1.127,1.729,2.518,4.183,2.523c0.002,0,0.003,0,0.006,0c0.002,0,0.004,0,0.005,0
				C209.749-277.278,210.902-278.666,211.477-279.795z"/>
			<path fill="#E78724" d="M211.031-298.754c0,0-0.699,1.154-1.044,2.031c0.454-0.568,1.303-1.457,2.496-1.988
				c-0.106-0.154-0.395-0.439-1.169-0.816c-0.106-0.053-0.218-0.1-0.329-0.148C211.176-299.156,211.031-298.754,211.031-298.754z"/>
			<path fill="#E78724" d="M209.754-279.358c1.185,0,1.481-1.809,1.481-1.809h-0.015c-0.005,0.051-0.015,0.104-0.038,0.164
				c-0.188,0.48-0.615,0.873-0.742,0.982c-0.166,0.143-0.403,0.229-0.637,0.229c-0.239,0-0.451-0.088-0.598-0.242l0,0
				c-0.406-0.436-0.648-0.904-0.705-1.049c-0.014-0.029-0.023-0.074-0.029-0.119h-0.021
				C208.45-280.887,208.747-279.358,209.754-279.358z"/>
			<path fill="#E78724" d="M215.201-293.52c0.134,0.988,0.483,1.416,0.696,1.59c-0.527,0.588-1.867,1.051-1.867,1.051
				c-0.977,0.357-1.104,1.486-1.139,2.389c-0.198-0.43-0.366-1.08-0.366-1.08s-0.052,1.869,0.089,3.146
				c0.104,0.932,0.398,1.943,0.543,2.379c0.183-0.047,0.361-0.102,0.535-0.17c-0.027-0.281-0.055-0.584-0.078-0.893
				c-0.063-0.855-0.109-1.762-0.118-2.451c-0.004-0.305-0.001-0.568,0.011-0.764c0.057-0.945,0.563-1.582,1.033-1.852
				c0.146-0.084,0.301-0.168,0.455-0.252c0.805-0.434,1.637-0.885,1.637-1.652c0-0.525-0.179-0.736-0.389-0.912
				c-0.03-0.025-0.061-0.051-0.092-0.076l-0.027-0.021c-0.037-0.031-0.078-0.064-0.117-0.098c0.05,0.391,0.103,0.723,0.145,0.809
				c0,0-0.019-0.025-0.045-0.063c-0.146-0.209-0.641-0.994-0.807-2.34c-0.029-0.248-0.025-0.594,0.003-0.949
				C215.194-295.227,215.081-294.41,215.201-293.52z"/>
			<path fill="#E78724" d="M206.052-294.791c-0.148-0.148-0.242-0.262-0.242-0.262c0.539,0.326,1.02,0.439,1.479,0.449
				c0.459-0.01,0.939-0.123,1.479-0.449c0,0-0.094,0.113-0.243,0.264c0.337-0.316,0.527-0.65,0.527-0.65
				c-0.525,0.379-1.226,0.393-1.763,0.393s-1.237-0.014-1.764-0.393C205.526-295.44,205.717-295.108,206.052-294.791z"/>
		</g>
		<path fill="#463014" d="M207.29-294.604c-0.46-0.01-0.94-0.123-1.479-0.449c0,0,0.094,0.113,0.242,0.262
			c0.285,0.283,0.778,0.699,1.233,0.703v0.002c0.001,0,0.002-0.002,0.004-0.002c0.001,0,0.002,0.002,0.004,0.002v-0.002
			c0.453-0.004,0.945-0.418,1.231-0.701c0.149-0.15,0.243-0.264,0.243-0.264C208.229-294.727,207.749-294.614,207.29-294.604z"/>
		<path fill="#FFFFFF" d="M214.294-283.617c-0.743,0.363-1.588,0.51-2.314,0.541c0.148,0.232,0.285,0.422,0.386,0.553
			c0.024,0.023,0.05,0.047,0.071,0.07c0.206,0.223,0.323,0.488,0.354,0.797c0.475-0.033,0.928-0.148,1.338-0.342
			c1.125-0.529,1.914-1.668,1.851-3.461C215.669-284.561,215.034-283.981,214.294-283.617z"/>
		<path fill="#FFFFFF" d="M215.782-286.981c0,0,0.001,0.006,0.003,0.014c0-0.004,0.001-0.006,0.002-0.008
			C215.785-286.977,215.784-286.979,215.782-286.981z"/>
		<g>
			<path fill="#C9C9C9" d="M202.647-292.297c-0.838-0.279-0.976-1.086-0.995-1.254c-0.028,0.492,0.073,1.076,0.47,1.371
				c0.882,0.656,1.745,0.27,2.057,0.09l-0.001-0.002c-0.054-0.08-0.12-0.166-0.192-0.252
				C203.902-292.311,203.31-292.076,202.647-292.297z"/>
			<path fill="#C9C9C9" d="M198.599-285.459c-0.009-0.027-0.021-0.051-0.029-0.078c-0.271,0.271-0.455,2.119,0.202,3.201
				c0.295,0.484,0.722,0.85,1.211,1.113c0.241,0.131,0.496,0.238,0.762,0.316c0.013,0.004,0.025,0.01,0.038,0.014
				c0.175,0.049,0.353,0.086,0.531,0.113c0.202,0.031,0.405,0.045,0.607,0.047c-0.033-0.1-0.061-0.197-0.082-0.291
				c-0.051-0.227-0.07-0.439-0.051-0.633c-0.417-0.029-0.818-0.119-1.188-0.271C199.395-282.426,198.533-283.588,198.599-285.459z"
				/>
			<path fill="#C9C9C9" d="M211.931-292.297c-0.663,0.221-1.255-0.014-1.338-0.047c-0.073,0.086-0.139,0.172-0.192,0.252
				l-0.001,0.002c0.31,0.18,1.174,0.566,2.057-0.09c0.396-0.295,0.497-0.877,0.47-1.369
				C212.907-293.381,212.768-292.576,211.931-292.297z"/>
			<path fill="#C9C9C9" d="M214.128-281.998c-0.41,0.193-0.863,0.309-1.338,0.342c0.02,0.193,0,0.406-0.051,0.633
				c-0.021,0.094-0.049,0.191-0.082,0.291c0.202-0.002,0.405-0.016,0.607-0.047c0.179-0.027,0.355-0.064,0.53-0.113
				c0.056-0.016,0.108-0.039,0.161-0.057c0.223-0.072,0.436-0.164,0.64-0.273c0.489-0.264,0.917-0.629,1.211-1.113
				c0.657-1.082,0.474-2.93,0.202-3.201c-0.009,0.029-0.021,0.053-0.03,0.078C216.042-283.666,215.253-282.528,214.128-281.998z"/>
		</g>
		<g>
			<path fill="#463014" d="M200.59-294.641c-0.001,0-0.003,0-0.004,0c-0.222,0.098-0.347,0.373-0.377,0.643
				c-0.063,0.543,0.282,1.035,0.282,1.035c0.035-0.404,0.121-0.691,0.22-0.896c0.001,0.02,0.001,0.041,0.002,0.063
				c0.032,0.547,0.188,1.232,0.688,1.787c0.338,0.375,1.645,1.104,2.664,0.543c0.104-0.057,0.205-0.127,0.303-0.215
				c0.001,0,0.002,0,0.003-0.002c0,0,0,0,0,0.002c0.056,0.133,0.113,0.289,0.162,0.461c0.026,0.094,0.037,0.193,0.041,0.295
				c0.019,0.432-0.126,0.9-0.172,1.035c-0.008,0.023-0.013,0.037-0.013,0.037s0.797-0.906,0.751-1.736
				c-0.001-0.008-0.001-0.018-0.002-0.025c0.005,0,0.009,0,0.012,0c0.583-0.029,1.151-0.457,1.136-1.055
				c0,0-0.098,0.053-0.259,0.096c-0.359,0.098-1.04,0.146-1.664-0.57c-0.521-0.598-2.172-2.229-4.415-1.738
				c-0.03,0.008-0.059,0.01-0.089,0.018C200.094-294.815,200.34-294.737,200.59-294.641z M203.985-292.344
				c0.072,0.086,0.139,0.172,0.192,0.252l0.001,0.002c-0.312,0.18-1.175,0.566-2.057-0.09c-0.396-0.295-0.498-0.879-0.47-1.371
				c0.005-0.084,0.013-0.164,0.024-0.242c0.018-0.113,0.042-0.215,0.07-0.303c0.334,0.188,0.657,0.395,0.958,0.611
				C203.232-293.108,203.683-292.707,203.985-292.344z"/>
			<path fill="#463014" d="M204.138-280.02c0.165,0.143,0.403,0.229,0.637,0.229c0.239,0,0.452-0.088,0.598-0.242
				c0.406-0.436,0.647-0.904,0.705-1.049c0.013-0.029,0.023-0.074,0.028-0.119c0.009-0.076-0.002-0.164-0.076-0.24
				c-0.093-0.096-0.254-0.145-0.479-0.145h-0.347c-0.362,0-0.785,0-1.036,0h-0.211c-0.297,0-0.442,0.086-0.514,0.156
				c-0.068,0.07-0.094,0.158-0.085,0.264c0.004,0.051,0.015,0.104,0.037,0.164C203.585-280.522,204.012-280.129,204.138-280.02z"/>
			<path fill="#463014" d="M210.218-293.145c-0.625,0.717-1.306,0.668-1.665,0.57c-0.161-0.043-0.259-0.096-0.259-0.096
				c-0.016,0.598,0.553,1.025,1.135,1.055c0.004,0,0.008,0,0.012,0c0,0.01,0,0.018,0,0.025c-0.047,0.832,0.75,1.736,0.75,1.736
				s-0.006-0.016-0.014-0.041c-0.047-0.137-0.189-0.602-0.171-1.031c0.005-0.102,0.015-0.201,0.041-0.295
				c0.048-0.172,0.106-0.328,0.161-0.461c0.001-0.002,0.001-0.002,0.001-0.002c0.001,0.002,0.001,0.002,0.002,0.002
				c0.098,0.088,0.199,0.158,0.304,0.215c1.02,0.561,2.326-0.168,2.663-0.543c0.501-0.555,0.656-1.24,0.688-1.789
				c0.001-0.02,0.001-0.041,0.002-0.063c0.099,0.207,0.184,0.494,0.22,0.898c0,0,0.345-0.492,0.282-1.035
				c-0.031-0.27-0.154-0.545-0.377-0.643c-0.002,0-0.003,0-0.004,0c0.25-0.096,0.496-0.174,0.73-0.225
				c-0.029-0.008-0.059-0.01-0.088-0.018C212.389-295.373,210.737-293.742,210.218-293.145z M212.927-293.549
				c0.027,0.492-0.074,1.074-0.47,1.369c-0.883,0.656-1.747,0.27-2.057,0.09l0.001-0.002c0.054-0.08,0.119-0.166,0.192-0.252
				c0.301-0.363,0.753-0.764,1.28-1.141c0.301-0.215,0.625-0.424,0.957-0.611c0.029,0.088,0.054,0.189,0.07,0.303
				C212.914-293.715,212.922-293.635,212.927-293.549z"/>
			<path fill="#463014" d="M209.206-280.033L209.206-280.033c0.146,0.154,0.358,0.242,0.598,0.242c0.233,0,0.471-0.086,0.637-0.229
				c0.127-0.109,0.554-0.502,0.742-0.982c0.023-0.061,0.033-0.113,0.038-0.164c0.009-0.105-0.017-0.193-0.086-0.264
				s-0.216-0.156-0.513-0.156h-0.211c-0.251,0-0.674,0-1.035,0h-0.348c-0.226,0-0.387,0.049-0.479,0.145
				c-0.074,0.076-0.085,0.164-0.077,0.24c0.006,0.045,0.016,0.09,0.029,0.119C208.557-280.938,208.8-280.469,209.206-280.033z"/>
			<path fill="#463014" d="M215.806-287.069c-0.005,0.033-0.015,0.063-0.02,0.094c-0.001,0.002-0.002,0.004-0.002,0.008
				c-0.155,0.926-0.708,1.746-1.312,2.264c-0.164-1.23-0.199-3.002-0.199-3.375c0-0.795,0.514-1.328,0.66-1.412
				c0.137-0.078,0.291-0.16,0.451-0.246c0.975-0.523,2.188-1.172,2.188-2.369c0-0.875-0.502-1.256-0.836-1.508
				c-0.041-0.031-0.08-0.061-0.116-0.088c-0.112-0.092-0.202-0.164-0.234-0.238c-0.235-0.529-0.192-1.854-0.091-2.035
				c0.031-0.035,0.906-1.135,0.638-2.121c-0.11-0.402-0.374-0.721-0.765-0.922c-0.287-0.146-0.645-0.225-1.059-0.24
				c-0.004-0.107-0.026-0.215-0.049-0.32c-0.031-0.143-0.063-0.287-0.05-0.438c0.022-0.252,0.042-0.49,0.117-0.609
				c0.458-0.723,1.563-0.953,1.573-0.955l0.664-0.131l-0.439-0.514c-0.008-0.01-0.937-0.947-2.508-0.947
				c-0.429,0-0.867,0.072-1.305,0.213c-1.315,0.424-2.326,1.658-2.675,2.129c-0.169-0.051-0.339-0.1-0.513-0.143
				c-0.231-0.855,0.48-2.088,0.48-2.088s-0.734-0.164-1.822,0.824c-0.142-0.352-0.438-1.111-0.096-2.016
				c-1.596,0.563-2,1.424-2.119,2.203c-0.41-0.293-0.364-1.25-0.388-1.494c-0.408,0.049-1.578,1.186-1.525,2.617
				c-0.107,0.029-0.212,0.064-0.316,0.096c-0.349-0.471-1.359-1.705-2.676-2.129c-0.438-0.141-0.876-0.213-1.305-0.213
				c-1.571,0-2.499,0.936-2.507,0.945l-0.44,0.516l0.664,0.131c0.011,0.002,1.116,0.232,1.573,0.955
				c0.075,0.119,0.096,0.357,0.117,0.609c0.013,0.148-0.02,0.295-0.05,0.436c-0.022,0.107-0.045,0.215-0.05,0.322
				c-0.412,0.016-0.771,0.094-1.058,0.24c-0.391,0.201-0.654,0.52-0.765,0.922c-0.269,0.986,0.607,2.086,0.638,2.121
				c0.102,0.182,0.145,1.506-0.091,2.035c-0.032,0.074-0.122,0.146-0.234,0.238c-0.035,0.027-0.074,0.057-0.116,0.088
				c-0.333,0.252-0.837,0.633-0.837,1.508c0,1.197,1.214,1.846,2.189,2.369c0.16,0.086,0.313,0.168,0.451,0.246
				c0.146,0.084,0.659,0.617,0.66,1.412c0,0.373-0.035,2.145-0.2,3.375c-0.604-0.518-1.156-1.338-1.312-2.264
				c0-0.004-0.001-0.006-0.002-0.008c-0.005-0.031-0.015-0.061-0.02-0.094c0,0-1.583,1.223-1.118,3.838
				c0.284,1.598,1.256,2.492,2.545,2.961c0.474,1.033,1.588,2.473,3.642,2.686c0.782,0.643,1.864,1.061,3.445,1.063l0,0
				c0.001,0,0.002,0,0.004,0c0.001,0,0.002,0,0.004,0l0,0c1.58-0.002,2.662-0.42,3.443-1.063c2.055-0.213,3.168-1.652,3.643-2.686
				c1.289-0.469,2.26-1.363,2.545-2.961C217.389-285.846,215.806-287.069,215.806-287.069z M211.653-278.606
				c0.263-0.393,0.479-0.816,0.666-1.252c0.344-0.027,0.681-0.066,1.006-0.127C212.974-279.469,212.434-278.924,211.653-278.606z
				 M207.295-277.272c-0.001,0-0.003,0-0.005,0c-0.003,0-0.004,0-0.006,0c-2.454-0.006-3.608-1.396-4.183-2.523
				c-0.192-0.377-0.32-0.725-0.409-0.982c-0.198-0.568-0.183-0.988,0.046-1.248c0.156-0.18,0.516-0.393,1.334-0.393h0.855
				c0.632,0,1.424-0.002,2.362-0.002c0.938,0,1.73,0.002,2.361,0.002h0.855c0.818,0,1.178,0.213,1.334,0.393
				c0.229,0.26,0.244,0.68,0.047,1.248c-0.09,0.258-0.219,0.605-0.41,0.982C210.902-278.666,209.749-277.278,207.295-277.272z
				 M198.337-292.992c0.03-0.023,0.061-0.049,0.091-0.074l0.026-0.021c0.039-0.031,0.079-0.063,0.118-0.098
				c-0.05,0.391-0.103,0.723-0.146,0.809c0,0,0.019-0.025,0.046-0.063c0.147-0.211,0.642-0.994,0.807-2.34
				c0.03-0.25,0.026-0.596-0.003-0.951c-0.043-0.537-0.144-1.096-0.274-1.379c0.009,0.264,0,0.527-0.018,0.779
				c-0.021-0.045-0.044-0.086-0.069-0.119c-0.175-0.217-0.642-0.947-0.507-1.439c0.051-0.188,0.169-0.326,0.361-0.426
				c0.203-0.104,0.479-0.156,0.816-0.156c0.665,0,1.402,0.203,1.782,0.324c1.359,0.43,3,1.672,3.471,2.043
				c0.013,0.01,0.021,0.016,0.022,0.018l0.3,0.209l-0.188-0.316c-0.004-0.006-0.135-0.221-0.382-0.529
				c-0.454-0.568-1.304-1.457-2.498-1.988c0.108-0.156,0.396-0.439,1.17-0.816c0.107-0.053,0.219-0.1,0.33-0.148
				c1.086-0.467,2.326-0.705,3.695-0.707c1.37,0.002,2.61,0.24,3.696,0.707c0.111,0.049,0.223,0.096,0.329,0.148
				c0.774,0.377,1.063,0.662,1.169,0.816c-1.193,0.531-2.042,1.42-2.496,1.988c-0.246,0.309-0.378,0.523-0.383,0.529l-0.188,0.316
				l0.301-0.209c0.002-0.002,0.01-0.008,0.023-0.018c0.471-0.371,2.11-1.613,3.47-2.043c0.38-0.121,1.118-0.324,1.782-0.324
				c0.338,0,0.613,0.053,0.816,0.156c0.192,0.1,0.311,0.238,0.361,0.426c0.135,0.492-0.332,1.223-0.506,1.439
				c-0.025,0.033-0.049,0.074-0.07,0.119c-0.018-0.252-0.027-0.516-0.018-0.779c-0.131,0.285-0.231,0.844-0.274,1.381
				c-0.028,0.355-0.032,0.701-0.003,0.949c0.166,1.346,0.66,2.131,0.807,2.34c0.026,0.037,0.045,0.063,0.045,0.063
				c-0.042-0.086-0.095-0.418-0.145-0.809c0.039,0.033,0.08,0.066,0.117,0.098l0.027,0.021c0.031,0.025,0.062,0.051,0.092,0.076
				c0.21,0.176,0.389,0.387,0.389,0.912c0,0.768-0.832,1.219-1.637,1.652c-0.154,0.084-0.309,0.168-0.455,0.252
				c-0.471,0.27-0.977,0.906-1.033,1.852c-0.012,0.195-0.015,0.459-0.011,0.764c0.009,0.689,0.055,1.596,0.118,2.451
				c0.023,0.309,0.051,0.611,0.078,0.893c-0.174,0.068-0.353,0.123-0.535,0.17c-0.258,0.064-0.522,0.107-0.786,0.139
				c-0.28,0.033-0.56,0.053-0.829,0.059c-0.109-0.223-0.213-0.461-0.297-0.711c-0.029-0.082-0.65-1.697-1.1-2.703
				c-0.13-0.289-0.246-0.531-0.33-0.668c0.297,2.115,0.951,3.996,1.275,4.857c-0.189-0.025-0.396-0.045-0.636-0.045l-3.161-0.002
				h-0.008c-0.911,0.002-3.162,0.002-3.162,0.002c-0.24,0-0.446,0.02-0.636,0.045c0.324-0.861,0.979-2.742,1.274-4.857
				c-0.082,0.135-0.198,0.377-0.328,0.668c-0.45,1.006-1.072,2.621-1.101,2.703c-0.085,0.25-0.188,0.488-0.298,0.711
				c-0.269-0.006-0.548-0.025-0.828-0.059c-0.264-0.031-0.528-0.074-0.785-0.139c-0.183-0.047-0.362-0.102-0.535-0.17
				c0.026-0.281,0.053-0.584,0.076-0.895c0.02-0.256,0.037-0.516,0.053-0.773c0.032-0.549,0.056-1.086,0.064-1.541
				c0.001-0.047,0.001-0.092,0.002-0.135c0.004-0.305,0.001-0.568-0.011-0.764c-0.057-0.945-0.563-1.582-1.032-1.852
				c-0.147-0.084-0.302-0.168-0.456-0.252c-0.805-0.434-1.637-0.885-1.637-1.652C197.947-292.604,198.126-292.815,198.337-292.992z
				 M200.595-299.164c-0.182-0.24-0.212-0.57-0.24-0.92c-0.028-0.334-0.058-0.682-0.237-0.965c-0.04-0.063-0.09-0.115-0.135-0.172
				c0.406,0.014,0.766,0.137,1.065,0.377c0.283,0.225,0.475,0.563,0.597,0.844c0.029,0.068,0.056,0.135,0.077,0.193
				c0.026,0.074,0.046,0.135,0.061,0.184c-0.264,0.225-0.447,0.434-0.569,0.604C201.03-299.071,200.82-299.121,200.595-299.164z
				 M201.417-301.36c-0.45-0.316-0.988-0.482-1.558-0.482c-0.202,0-0.374,0.021-0.506,0.045c-0.176-0.117-0.353-0.217-0.517-0.291
				c0.257-0.109,0.741-0.273,1.337-0.273c0.329,0,0.651,0.051,0.957,0.15c0.969,0.313,1.716,1.258,2.046,1.744
				c-0.087,0.039-0.175,0.074-0.26,0.115c-0.136,0.068-0.263,0.135-0.382,0.203C202.393-300.444,202.085-300.889,201.417-301.36z
				 M213.364-299.02c-0.121-0.17-0.305-0.377-0.568-0.602c0.016-0.051,0.034-0.111,0.062-0.186c0.021-0.059,0.046-0.121,0.074-0.188
				c0.122-0.283,0.313-0.623,0.599-0.85c0.301-0.24,0.66-0.363,1.066-0.377c-0.045,0.057-0.095,0.109-0.135,0.172
				c-0.18,0.283-0.209,0.631-0.238,0.965c-0.029,0.35-0.059,0.68-0.24,0.92C213.759-299.121,213.549-299.071,213.364-299.02z
				 M215.225-301.797c-0.131-0.023-0.305-0.045-0.506-0.045c-0.569,0-1.107,0.166-1.557,0.482c-0.668,0.471-0.977,0.916-1.119,1.211
				c-0.119-0.068-0.246-0.135-0.383-0.203c-0.084-0.039-0.172-0.076-0.258-0.115c0.33-0.484,1.076-1.432,2.045-1.744
				c0.307-0.1,0.627-0.148,0.957-0.148c0.597,0,1.08,0.162,1.337,0.271C215.579-302.014,215.401-301.914,215.225-301.797z
				 M215.978-285.459c0.01-0.025,0.021-0.049,0.03-0.078c0.271,0.271,0.455,2.119-0.202,3.201c-0.294,0.484-0.722,0.85-1.211,1.113
				c-0.204,0.109-0.417,0.201-0.64,0.273c-0.053,0.018-0.105,0.041-0.161,0.057c-0.175,0.049-0.352,0.086-0.53,0.113
				c-0.202,0.031-0.405,0.045-0.607,0.047c0.033-0.1,0.061-0.197,0.082-0.291c0.051-0.227,0.07-0.439,0.051-0.633
				c-0.03-0.309-0.147-0.574-0.354-0.797c-0.021-0.023-0.047-0.047-0.071-0.07c-0.101-0.131-0.237-0.32-0.386-0.553
				c0.727-0.031,1.571-0.178,2.314-0.541C215.034-283.981,215.669-284.561,215.978-285.459z M200.551-283.496
				c0.674,0.275,1.407,0.393,2.049,0.42c-0.149,0.234-0.286,0.424-0.387,0.555c-0.024,0.021-0.049,0.045-0.07,0.068
				c-0.206,0.223-0.323,0.488-0.354,0.797c-0.02,0.193,0,0.406,0.051,0.633c0.021,0.094,0.049,0.191,0.082,0.291
				c-0.202-0.002-0.405-0.016-0.607-0.047c-0.179-0.027-0.356-0.064-0.531-0.113c-0.013-0.004-0.025-0.01-0.038-0.014
				c-0.266-0.078-0.521-0.186-0.762-0.316c-0.489-0.264-0.916-0.629-1.211-1.113c-0.657-1.082-0.473-2.93-0.202-3.201
				c0.008,0.027,0.021,0.051,0.029,0.078C198.946-284.455,199.699-283.846,200.551-283.496z M202.26-279.858
				c0.187,0.436,0.403,0.859,0.667,1.252c-0.782-0.318-1.323-0.863-1.674-1.381C201.578-279.924,201.916-279.885,202.26-279.858z"/>
		</g>
	</g>
</g>
<g>
	<rect x="245.843" y="-318.666" fill="#CC6699" width="56.693" height="56.693"/>
	<g>
		<path fill="#FFFFFF" d="M281.9-292.539c-4.199,1.609-7.592,1.322-8.914,0.861c-1.667-0.574-2.646-1.666-2.876-2.299
			c-0.113-0.23-0.344-0.863,0.115-1.094c0.404-0.23,0.633,0,0.977,0.402c0.059,0.059,1.382,1.438,4.487,1.094
			c5.117-0.576,8.451-3.451,9.775-5.752c0.807-1.381,0.979-2.645,0.52-3.623c-0.23-0.518-0.865-0.977-1.785-1.322
			c-2.242-0.805-6.498-0.689-11.73,1.898c-5.923,2.932-8.97,5.98-9.144,9.086c-0.117,2.473,2.012,4.141,4.313,5.865
			c0.979,0.805,2.07,1.609,2.875,2.473l0.059,0.057c0.863-0.287,1.954-0.459,3.563-0.459c2.186-0.057,4.084,0.633,5.35,1.957
			c0.979,1.033,1.494,2.299,1.438,3.564c-0.115,2.07-1.955,2.99-2.473,3.104c-0.172,0-0.633,0.059-0.748-0.402
			c-0.057-0.344,0.172-0.516,0.461-0.689c0.344-0.229,1.035-0.746,1.148-1.609c0.059-0.461-0.057-1.207-0.631-1.955
			c-0.518-0.691-1.611-1.555-3.854-1.842c-1.15-0.115-2.186-0.115-3.162,0.115c0.689,1.84,0.574,4.83-0.921,7.072
			c-1.494,2.244-3.91,3.566-6.383,3.566c-0.633,0-1.266-0.057-1.842-0.23c-0.572-0.172-1.148-0.748-1.494-1.494
			c-0.344-0.633-0.748-2.07,0.115-4.025c1.15-2.473,5.35-4.83,6.9-5.635c-0.518-0.461-1.207-0.92-1.955-1.439
			c-2.76-1.955-6.268-4.313-6.9-7.646c-0.287-1.209,0.287-4.258,3.969-7.707c3.68-3.393,8.567-5.463,11.155-6.383
			c4.313-1.553,9.027-1.496,11.963,0.057c1.494,0.807,2.473,1.955,2.816,3.336C290.064-299.672,286.73-294.494,281.9-292.539z"/>
		<path fill="#CC6699" d="M264.925-278.541c-1.225,1.227-1.634,2.627-1.518,3.326c0.059,0.232,0.116,0.408,0.293,0.525
			c0.582,0.35,2.391-0.059,3.731-1.518c0.466-0.465,0.816-0.99,1.05-1.516c0-0.117,0.058-0.234,0.116-0.35
			c0.059-0.117,0.059-0.234,0.117-0.352c0.292-0.932,0.35-1.924,0.175-2.975C268.424-281.164,266.382-280.057,264.925-278.541z"/>
	</g>
</g>
<g>
	<g>
		<rect x="312.742" y="-318.666" fill-rule="evenodd" clip-rule="evenodd" fill="#277000" width="56.693" height="56.693"/>
	</g>
	<g>
		<path fill-rule="evenodd" clip-rule="evenodd" fill="#3F3F3E" d="M321.743-271.115c0.702,0,1.405,0,2.107,0
			c0.154-0.131,0.321-0.25,0.461-0.396c0.326-0.34,0.708-0.578,1.164-0.699c0.603-0.16,1.138-0.463,1.669-0.775
			c0.887-0.52,1.739-1.09,2.596-1.658c1.125-0.75,2.236-1.521,3.436-2.156c1.404-0.744,2.893-1.268,4.405-1.73
			c-0.052-0.068-0.102-0.135-0.151-0.203c-0.287-0.246-0.576-0.49-0.863-0.736c-0.141-0.068-0.271-0.166-0.438-0.17
			c-0.707,0.557-1.447,1.066-2.242,1.492c-0.202,0.172-0.436,0.293-0.668,0.414c-0.818,0.479-1.626,0.977-2.48,1.393
			c-0.057,0.041-0.111,0.09-0.174,0.123c-1.58,0.861-3.172,1.701-4.807,2.457c-0.188,0.088-0.391,0.291-0.602,0.146
			c-0.195-0.131,0.028-0.357-0.028-0.568c-0.435,0.912-1.177,1.414-2.099,1.672c-0.537,0.152-1.09,0.219-1.649,0.234
			c0,0-0.288,0.057-0.533,0.363C320.601-271.606,320.922-271.115,321.743-271.115z"/>
		<path fill-rule="evenodd" clip-rule="evenodd" fill="#AEDB59" d="M352.256-302.741c-0.477-2.222-1.082-4.405-1.835-6.549
			c-0.056-0.16-0.079-0.344-0.325-0.15c-0.78,0.615-1.649,1.098-2.48,1.636c-1.074,0.697-2.181,1.342-3.214,2.099
			c0.154,0.012,0.229,0.095,0.278,0.2c-0.049-0.105-0.124-0.188-0.278-0.2c-1.784,1.144-3.497,2.385-5.114,3.757
			c-0.426,0.373-0.86,0.737-1.273,1.123c-1.234,1.148-2.342,2.4-3.123,3.91c-0.619,0.967-1.118,1.995-1.599,3.034
			c-0.481,1.04-0.811,2.133-1.159,3.222c-0.102,0.738-0.252,1.467-0.323,2.211c-0.053,0.558-0.066,1.115-0.022,1.666
			c0.079,0.971,0.258,1.928,0.558,2.863c0.536,1.672,1.479,2.998,3.077,3.805c0.255,0.127,0.527,0.232,0.707,0.473
			c0.167,0.004,0.297,0.102,0.438,0.17c0.824-1.746,1.646-3.492,2.474-5.236c0.066-0.139,0.068-0.281,0.078-0.424
			c-0.143-0.068-0.19-0.195-0.229-0.324c0.038,0.129,0.086,0.256,0.229,0.324c0.234-0.109,0.258-0.354,0.354-0.551
			c0.127-0.266,0.203-0.561,0.432-0.77c0.072-0.566,0.418-1.023,0.639-1.525c0.488-1.113,1.043-2.197,1.557-3.299
			c0.276-0.588,0.595-1.156,0.791-1.781l0,0c0.471-0.971,0.949-1.939,1.412-2.915c0.433-0.913,0.85-1.834,1.274-2.751
			c0.313-0.68,0.627-1.358,0.941-2.037c0.764-1.641,1.527-3.283,2.291-4.925c0.031,0.015,0.063,0.028,0.094,0.042
			c-0.23,0.548-0.459,1.098-0.692,1.646c-0.589,1.375-1.179,2.748-1.766,4.125c-0.037,0.086-0.049,0.184-0.071,0.276
			c-0.224,0.251-0.253,0.601-0.437,0.872c-0.514,1.221-1.021,2.441-1.54,3.658c-0.681,1.595-1.371,3.184-2.054,4.777
			c-0.027,0.063-0.029,0.139-0.042,0.21c0.283,0.995,0.618,1.976,0.952,2.956c-0.334-0.98-0.669-1.961-0.953-2.956
			c-0.358,0.612-0.572,1.29-0.869,1.931c-0.381,0.826-0.67,1.693-1.09,2.502c-0.447,1.063-0.893,2.127-1.342,3.191
			c-0.521,1.24-1.047,2.48-1.57,3.721c0.05,0.068,0.1,0.135,0.151,0.203c0.204,0.168,0.407,0.34,0.612,0.508
			c0.885,0.727,1.861,1.281,3.02,1.377c1.853,0.152,3.514-0.461,5.088-1.375c0.686-0.344,1.266-0.834,1.827-1.348
			c0.734-0.674,1.318-1.471,1.883-2.285c0.092-0.213,0.199-0.416,0.359-0.586c0.049-0.109,0.095-0.221,0.149-0.326
			c0.328-0.648,0.657-1.293,0.873-1.988c0.022-0.041,0.055-0.08,0.07-0.123c1.04-2.822,1.548-5.75,1.664-8.748
			C353.25-296.568,352.913-299.669,352.256-302.741z M342.529-293.158c0.045,0.087,0.104,0.141,0.195,0.143
			C342.634-293.018,342.574-293.072,342.529-293.158z"/>
		<path fill-rule="evenodd" clip-rule="evenodd" fill="#7FBE43" d="M335.422-280.114c-1.598-0.807-2.541-2.133-3.077-3.805
			c-0.3-0.936-0.479-1.893-0.558-2.863c-0.044-0.551-0.03-1.108,0.022-1.666c0.071-0.744,0.222-1.473,0.323-2.211
			c-0.783-0.546-1.588-1.055-2.454-1.463c-0.351-0.188-0.691-0.395-1.052-0.561c-1.504-0.689-3.016-1.361-4.52-2.053
			c-0.205-0.094-0.233-0.033-0.268,0.154c-0.229,1.262-0.369,2.533-0.451,3.813c-0.219,3.426,0.237,6.73,1.723,9.852
			c0.447,0.941,0.972,1.84,1.738,2.568c0.266,0.348,0.611,0.609,0.959,0.869c0.871,0.65,1.871,0.969,2.93,1.137
			c0.854-0.416,1.662-0.914,2.48-1.393c-0.406-0.684-0.805-1.369-1.221-2.047c-1.232-2.002-2.473-4.002-3.711-6
			c-0.037-0.059-0.094-0.105-0.143-0.158l0,0c-0.438-0.844-0.984-1.621-1.467-2.439c-0.316-0.538-0.659-1.063-0.986-1.595
			c-0.035-0.057-0.09-0.116-0.025-0.282c0.916,1.349,1.802,2.654,2.688,3.961c0.882,1.322,1.76,2.645,2.645,3.965
			c0.879,1.309,1.766,2.613,2.646,3.922c0.067,0.102,0.135,0.199,0.242,0.26c0.795-0.426,1.535-0.936,2.242-1.492
			C335.949-279.881,335.677-279.987,335.422-280.114z M325.395-290.547c-0.019-0.008-0.05-0.012-0.055-0.026
			c-0.006-0.015,0.014-0.038,0.022-0.057c0.02,0.009,0.039,0.017,0.057,0.025C325.412-290.586,325.404-290.567,325.395-290.547z
			 M325.539-290.324c-0.02-0.01-0.049-0.013-0.055-0.027c-0.006-0.014,0.014-0.037,0.021-0.058c0.02,0.009,0.049,0.013,0.055,0.028
			C325.566-290.367,325.548-290.344,325.539-290.324z"/>
		<path fill-rule="evenodd" clip-rule="evenodd" fill="#3F3F3E" d="M350.01-281.655c0.092-0.213,0.199-0.416,0.359-0.586
			c1.12,0.229,2.246,0.352,3.386,0.162c0.613-0.102,1.128-0.422,1.629-0.76c1.236-0.836,2.307-1.877,3.449-2.828
			c0.512-0.426,1.036-0.836,1.604-1.186c0.238-0.146,0.494-0.26,0.788-0.197c0.095,0.02,0.228,0.039,0.174,0.168
			c-0.092,0.223-0.063,0.451-0.085,0.678c-0.019,0.188-0.124,0.287-0.281,0.129c-0.172-0.174-0.34-0.115-0.533-0.076
			c-0.474,0.096-0.85,0.348-1.224,0.645c-1.163,0.928-2.347,1.83-3.523,2.74c-0.375,0.291-0.391,0.322-0.11,0.689
			c0.193,0.254,0.086,0.32-0.166,0.367c-0.969,0.186-1.948,0.209-2.928,0.18C351.703-281.555,350.856-281.612,350.01-281.655z"/>
		<path fill-rule="evenodd" clip-rule="evenodd" fill="#86C242" d="M348.809-305.685c-0.764,1.642-1.527,3.285-2.291,4.925
			c-0.314,0.679-0.628,1.357-0.941,2.037c-0.425,0.917-0.842,1.838-1.274,2.751c-0.463,0.976-0.941,1.944-1.412,2.915
			c-0.196,0.625-0.515,1.193-0.791,1.781c-0.514,1.102-1.068,2.186-1.557,3.299c-0.221,0.502-0.566,0.959-0.639,1.525
			c-0.229,0.209-0.305,0.504-0.432,0.77c-0.096,0.197-0.119,0.441-0.354,0.551c-0.01,0.143-0.012,0.285-0.078,0.424
			c-0.827,1.744-1.649,3.49-2.475,5.236c0.287,0.246,0.576,0.49,0.863,0.736c0.523-1.24,1.049-2.48,1.57-3.721
			c0.449-1.064,0.895-2.129,1.34-3.191c-0.156-0.131-0.195-0.328-0.26-0.51c-0.02-0.055-0.041-0.107-0.068-0.156
			c0.027,0.049,0.049,0.102,0.068,0.156c0.064,0.182,0.104,0.379,0.262,0.51c0.42-0.809,0.709-1.676,1.09-2.502
			c0.297-0.641,0.511-1.318,0.87-1.931c0.013-0.071,0.015-0.147,0.042-0.21c0.683-1.594,1.373-3.183,2.054-4.777
			c0.52-1.217,1.026-2.438,1.54-3.658l0,0c0.184-0.271,0.213-0.621,0.437-0.872c0.022-0.093,0.034-0.19,0.071-0.276
			c0.587-1.377,1.177-2.75,1.766-4.125c0.233-0.548,0.462-1.097,0.692-1.646C348.872-305.657,348.841-305.671,348.809-305.685z"/>
		<g>
			<path fill-rule="evenodd" clip-rule="evenodd" fill="#549E38" d="M333.644-278.408c-0.881-1.309-1.768-2.613-2.646-3.922
				c-0.885-1.32-1.763-2.643-2.645-3.965c-0.886-1.307-1.771-2.612-2.688-3.961c-0.064,0.166-0.01,0.226,0.025,0.282
				c0.327,0.532,0.67,1.057,0.986,1.595c0.482,0.818,1.029,1.596,1.467,2.439c0.049,0.053,0.105,0.1,0.143,0.158
				c1.238,1.998,2.479,3.998,3.711,6c0.416,0.678,0.814,1.363,1.221,2.047c0.232-0.121,0.466-0.242,0.668-0.414
				C333.779-278.209,333.712-278.307,333.644-278.408z"/>
			<path fill-rule="evenodd" clip-rule="evenodd" fill="#549E38" d="M325.341-290.573c0.005,0.015,0.036,0.019,0.055,0.026
				c0.009-0.02,0.017-0.039,0.024-0.058c-0.018-0.009-0.037-0.017-0.057-0.025C325.354-290.612,325.335-290.588,325.341-290.573z"/>
			<path fill-rule="evenodd" clip-rule="evenodd" fill="#549E38" d="M325.506-290.409c-0.008,0.021-0.027,0.044-0.021,0.058
				c0.006,0.015,0.035,0.018,0.055,0.027c0.009-0.02,0.027-0.043,0.021-0.057C325.554-290.397,325.525-290.401,325.506-290.409z"/>
		</g>
	</g>
</g>
<g>
	<polyline fill="#B0B0B0" points="-88.656,-261.973 -31.963,-261.973 -31.963,-318.668 -88.656,-318.668 -88.656,-261.973 	"/>
	<path id="Drupicon_2_" fill="#FFFFFF" d="M-52.102-300.934c-1.771-1.18-4.252-2.358-5.905-3.538
		c-1.063-0.708-2.363-2.123-3.543-3.537c-0.236,2.357-0.354,2.829-1.182,3.537c-1.771,1.416-3.543,2.24-4.96,3.066
		c-1.89,0.942-8.032,4.599-8.032,13.442c0,8.846,7.323,15.332,15.473,15.332c8.267,0,15.355-6.014,15.355-14.979
		C-44.78-296.689-50.92-300.227-52.102-300.934z M-52.456-275.815c-0.118,0.117-1.771,1.297-3.544,1.414
		c-1.771,0.119-4.37,0.236-5.787-1.061c-0.236-0.236-0.117-0.59,0-0.707c0.118-0.119,0.354-0.236,0.473-0.236s0.118,0,0.235,0.117
		c0.709,0.59,1.655,0.943,3.898,0.943c2.245,0,3.662-0.588,4.37-1.18c0.354-0.234,0.473,0,0.473,0.119
		C-52.22-276.287-52.22-276.051-52.456-275.815z M-58.362-278.881c0.354-0.354,0.944-0.943,1.536-1.18
		c0.59-0.234,0.944-0.234,1.417-0.234c0.59,0,1.181,0,1.535,0.354c0.354,0.234,0.591,0.943,0.826,1.178
		c0.236,0.236,0,0.59-0.235,0.707c-0.236,0.117-0.236,0.117-0.473-0.354s-0.473-0.943-1.653-0.943c-1.182,0-1.536,0.355-2.127,0.943
		c-0.589,0.471-0.826,0.709-0.943,0.354C-58.833-278.293-58.716-278.645-58.362-278.881z M-49.74-278.528
		c-1.181-0.117-3.19-3.42-4.724-3.539c-2.009-0.117-6.025,3.539-9.449,3.539c-2.01,0-2.836-0.707-3.544-1.18
		c-1.063-0.707-2.362-2.004-2.362-3.539c0-2.711,2.717-4.717,5.906-4.717c4.015,0,7.44,3.539,9.449,3.539
		c1.652,0,4.251-3.539,5.905-3.539c1.652,0,2.361,2.479,2.361,3.539c0,1.063-0.119,2.949-0.945,4.246
		C-47.85-278.998-48.795-278.41-49.74-278.528z"/>
</g>
<g>
	<rect x="-222.213" y="-317.973" fill="#FCCC5A" width="56.208" height="56"/>
	<g>
		<g>
			<g>
				<polygon fill="#FCCC5A" points="-210.6,-273.416 -213.782,-311.121 -174.435,-311.121 -177.616,-273.416 -194.106,-268.891 				
					"/>
				<g>
					<path fill="#D9A730" d="M-176.339-309.371l-2.918,34.59l-14.849,4.076l-14.855-4.076l-2.918-34.59H-176.339 M-172.532-312.871
						h-43.152l3.441,40.818l18.137,4.979l18.132-4.979L-172.532-312.871L-172.532-312.871z"/>
				</g>
			</g>
			<polygon fill="none" points="-194.106,-267.074 -212.243,-272.053 -215.684,-312.871 -194.106,-312.871 			"/>
		</g>
		<g>
			<g>
				<g>
					<polygon fill="#FFFEFD" points="-195.186,-275.961 -204.96,-278.348 -204.96,-283.151 -200.221,-281.992 -200.221,-305.476 
						-195.186,-305.476 					"/>
				</g>
			</g>
			<g>
				<g>
					<polygon fill="#FFFEFD" points="-192.835,-275.969 -192.835,-280.826 -187.851,-282.252 -186.919,-289.906 -192.835,-289.906 
						-192.835,-305.397 -179.968,-305.397 -180.542,-300.753 -187.798,-300.753 -187.798,-294.545 -181.286,-294.545 
						-183.21,-278.723 					"/>
				</g>
			</g>
		</g>
	</g>
	<path fill="#5DA3C2" d="M-186.771-286.698l0.033,0.141c0.008,0.039-0.016,0.072-0.057,0.072"/>
</g>
<g>
	<rect x="-489.312" y="-318.666" fill="#FF6C39" width="55.208" height="56.693"/>
	<g>
		<polygon fill="#E44D26" points="-466.301,-294.093 -461.71,-294.093 -461.71,-297.867 -466.607,-297.867 		"/>
		<path fill="#E44D26" d="M-478.859-310.447l3.215,36.34l13.936,3.913l13.936-3.913l3.215-36.34H-478.859z M-450.401-276.473
			l-11.31,3.45v-4.729l-8.253-2.521l-0.562-6.271h4.709l0.256,2.495l3.85,1.266v-6.278h-9.041l-0.758-8.805l-0.481-5.032h10.28
			v-5.03h14.318L-450.401-276.473z"/>
		<polygon fill="#FF6C39" points="-457.418,-289.063 -461.71,-289.063 -461.71,-282.784 -457.852,-284.05 		"/>
		<polygon fill="#FF6C39" points="-461.71,-307.93 -461.71,-302.9 -451.465,-302.9 -451.909,-297.867 -461.71,-297.867 
			-461.71,-294.093 -452.255,-294.093 -453.467,-280.274 -461.71,-277.752 -461.71,-273.023 -450.401,-276.473 -447.392,-307.93 		
			"/>
		<polygon fill="#FFFFFF" points="-452.255,-294.093 -461.71,-294.093 -466.301,-294.093 -466.607,-297.867 -461.71,-297.867 
			-451.909,-297.867 -451.465,-302.9 -461.71,-302.9 -471.99,-302.9 -471.509,-297.867 -470.751,-289.063 -461.71,-289.063 
			-457.418,-289.063 -457.852,-284.05 -461.71,-282.784 -465.56,-284.05 -465.816,-286.545 -470.525,-286.545 -469.963,-280.274 
			-461.71,-277.752 -453.467,-280.274 		"/>
	</g>
</g>
<g>
	<rect x="-355.832" y="-319.793" fill="#35A8DB" width="55.847" height="57.82"/>
	<g>
		<polygon fill="#1572B6" points="-327.961,-295.383 -327.908,-295.383 -327.908,-295.406 -327.928,-295.397 		"/>
		<path fill="#1572B6" d="M-307.674-315.147h-40.468h-0.543l0.047,0.561l3.683,42.765l0.031,0.355l0.331,0.097l16.527,4.749h0.266
			l16.571-4.758l0.332-0.094l0.029-0.357l3.687-42.757l0.048-0.561H-307.674z M-313.635-273.832l-14.272,4.097v-5.576l-10.946-3.346
			l-0.679-8.454l5.398,0.002l0.352,4.376l5.855,1.504l0.02-0.005v-8.827l-11.985-0.031v-0.008l-0.019,0.008l-0.41-5.291
			l12.395-5.345l0.02-0.008v-0.303h-0.004h-0.016h-0.013h-0.104h-0.105h-0.105h-0.103h-0.106h-0.104h-0.104h-0.106h-0.104h-0.105
			h-0.104h-0.105h-0.104h-0.104h-0.105h-0.105h-0.104h-0.105h-0.105h-0.103h-0.105h-0.105h-0.104h-0.104h-0.105h-0.104h-0.106
			h-0.103h-0.106h-0.104h-0.104h-0.105h-0.105h-0.104h-0.104h-0.105h-0.105h-0.105h-0.104h-0.104h-0.105h-0.104h-0.105h-0.105
			h-0.104h-0.104h-0.105h-0.105h-0.104h-0.104h-0.105h-0.105h-0.104h-0.105h-0.104h-0.104h-0.106h-0.103h-0.105h-0.105h-0.104
			h-0.105h-0.104h-0.105h-0.104h-0.105h-0.105h-0.105h-0.103h-0.105h-0.105h-0.103h-0.106h-0.104h-0.104h-0.105h-0.105h-0.104
			h-0.104h-0.106h-0.104h-0.105h-0.104h-0.104h-0.105h-0.104h-0.106h-0.104h-0.104h-0.105h-0.104h-0.105h-0.104h-0.104h-0.106
			h-0.103h-0.105h-0.105h-0.104h-0.105h-0.105h-0.104h-0.104h-0.105h-0.104h-0.105h-0.105h-0.104h-0.104h-0.105h-0.105h-0.104
			h-0.104h-0.105h-0.104h-0.106h-0.105h-0.103h-0.104h-0.106h-0.104h-0.104h-0.086l-0.019-0.153l-0.105-0.877l-0.104-0.876
			l-0.104-0.877l-0.105-0.876l-0.105-0.876l-0.104-0.876h0.104h0.105h0.105h0.104h0.104h0.105h0.105h0.104h0.104h0.106h0.104h0.103
			h0.105h0.106h0.104h0.105h0.104h0.104h0.105h0.105h0.104h0.104h0.105h0.105h0.104h0.105h0.104h0.104h0.105h0.105h0.104h0.105
			h0.105h0.103h0.106h0.104h0.104h0.105h0.104h0.105h0.104h0.104h0.106h0.104h0.105h0.104h0.104h0.105h0.104h0.106h0.104h0.104
			h0.105h0.105h0.104h0.104h0.106h0.103h0.105h0.105h0.103h0.105h0.105h0.105h0.104h0.105h0.104h0.105h0.104h0.105h0.105h0.103
			h0.106h0.104h0.104h0.105h0.104h0.105h0.105h0.104h0.104h0.105h0.105h0.104h0.104h0.105h0.105h0.104h0.105h0.104h0.104h0.105
			h0.105h0.105h0.104h0.104h0.105h0.105h0.104h0.104h0.106h0.103h0.106h0.104h0.105h0.104h0.104h0.105h0.105h0.103h0.105h0.105
			h0.104h0.105h0.105h0.104h0.104h0.105h0.104h0.105h0.104h0.106h0.104h0.104h0.106h0.103h0.105h0.105h0.104h0.013h0.02v-5.661
			h17.574L-313.635-273.832z"/>
		<polygon fill="#35A8DB" points="-327.908,-306.453 -327.836,-306.453 -327.731,-306.453 -327.628,-306.453 -327.521,-306.453 
			-327.418,-306.453 -327.313,-306.453 -327.209,-306.453 -327.103,-306.453 -326.998,-306.453 -326.895,-306.453 -326.79,-306.453 
			-326.685,-306.453 -326.58,-306.453 -326.474,-306.453 -326.37,-306.453 -326.266,-306.453 -326.161,-306.453 -326.056,-306.453 
			-325.953,-306.453 -325.848,-306.453 -325.743,-306.453 -325.639,-306.453 -325.535,-306.453 -325.429,-306.453 
			-325.324,-306.453 -325.219,-306.453 -325.116,-306.453 -325.011,-306.453 -324.906,-306.453 -324.801,-306.453 
			-324.698,-306.453 -324.593,-306.453 -324.487,-306.453 -324.385,-306.453 -324.279,-306.453 -324.175,-306.453 
			-324.069,-306.453 -323.964,-306.453 -323.859,-306.453 -323.756,-306.453 -323.65,-306.453 -323.546,-306.453 -323.44,-306.453 
			-323.338,-306.453 -323.232,-306.453 -323.127,-306.453 -323.022,-306.453 -322.917,-306.453 -322.813,-306.453 
			-322.709,-306.453 -322.603,-306.453 -322.501,-306.453 -322.395,-306.453 -322.29,-306.453 -322.185,-306.453 -322.082,-306.453 
			-321.976,-306.453 -321.872,-306.453 -321.766,-306.453 -321.662,-306.453 -321.558,-306.453 -321.453,-306.453 
			-321.348,-306.453 -321.243,-306.453 -321.139,-306.453 -321.035,-306.453 -320.929,-306.453 -320.825,-306.453 
			-320.719,-306.453 -320.616,-306.453 -320.511,-306.453 -320.406,-306.453 -320.301,-306.453 -320.198,-306.453 
			-320.093,-306.453 -319.988,-306.453 -319.883,-306.453 -319.777,-306.453 -319.675,-306.453 -319.569,-306.453 
			-319.464,-306.453 -319.361,-306.453 -319.256,-306.453 -319.151,-306.453 -319.048,-306.453 -318.942,-306.453 
			-318.838,-306.453 -318.732,-306.453 -318.627,-306.453 -318.524,-306.453 -318.419,-306.453 -318.314,-306.453 
			-318.209,-306.453 -318.103,-306.453 -318.001,-306.453 -317.895,-306.453 -317.79,-306.453 -317.685,-306.453 -317.582,-306.453 
			-317.477,-306.453 -317.372,-306.453 -317.266,-306.453 -317.162,-306.453 -317.058,-306.453 -316.953,-306.453 -316.85,-306.453 
			-316.743,-306.453 -316.64,-306.453 -316.535,-306.453 -316.429,-306.453 -316.325,-306.453 -316.221,-306.453 -316.116,-306.453 
			-316.011,-306.453 -315.908,-306.453 -315.803,-306.453 -315.698,-306.453 -315.593,-306.453 -315.488,-306.453 
			-315.383,-306.453 -315.279,-306.453 -315.175,-306.453 -315.069,-306.453 -314.967,-306.453 -314.861,-306.453 
			-314.756,-306.453 -314.651,-306.453 -314.651,-306.453 -314.651,-306.453 -314.673,-306.231 -315.18,-301.04 -327.908,-295.406 
			-327.908,-295.383 -315.629,-295.383 -316.079,-290.031 -316.079,-290.031 -317.041,-278.596 -327.908,-275.312 
			-327.908,-269.736 -313.635,-273.832 -310.334,-312.114 -327.908,-312.114 		"/>
		<polygon fill="#35A8DB" points="-321.514,-290.045 -327.908,-290.062 -327.908,-281.235 -321.918,-282.976 		"/>
		<polygon fill="#35A8DB" points="-327.209,-301.04 -327.313,-301.04 -327.418,-301.04 -327.521,-301.04 -327.628,-301.04 
			-327.731,-301.04 -327.836,-301.04 -327.908,-301.04 -327.908,-300.737 -327.205,-301.04 		"/>
		<polygon fill="#E9E9E8" points="-327.928,-306.453 -327.941,-306.453 -328.045,-306.453 -328.15,-306.453 -328.255,-306.453 
			-328.358,-306.453 -328.464,-306.453 -328.568,-306.453 -328.673,-306.453 -328.779,-306.453 -328.883,-306.453 
			-328.988,-306.453 -329.092,-306.453 -329.197,-306.453 -329.301,-306.453 -329.405,-306.453 -329.51,-306.453 -329.615,-306.453 
			-329.719,-306.453 -329.825,-306.453 -329.93,-306.453 -330.033,-306.453 -330.138,-306.453 -330.243,-306.453 -330.347,-306.453 
			-330.451,-306.453 -330.556,-306.453 -330.66,-306.453 -330.767,-306.453 -330.87,-306.453 -330.976,-306.453 -331.08,-306.453 
			-331.184,-306.453 -331.289,-306.453 -331.394,-306.453 -331.498,-306.453 -331.603,-306.453 -331.708,-306.453 
			-331.813,-306.453 -331.918,-306.453 -332.022,-306.453 -332.126,-306.453 -332.231,-306.453 -332.335,-306.453 
			-332.441,-306.453 -332.546,-306.453 -332.65,-306.453 -332.754,-306.453 -332.859,-306.453 -332.964,-306.453 -333.068,-306.453 
			-333.172,-306.453 -333.278,-306.453 -333.383,-306.453 -333.487,-306.453 -333.592,-306.453 -333.696,-306.453 -333.8,-306.453 
			-333.906,-306.453 -334.009,-306.453 -334.115,-306.453 -334.219,-306.453 -334.323,-306.453 -334.428,-306.453 
			-334.533,-306.453 -334.638,-306.453 -334.742,-306.453 -334.847,-306.453 -334.952,-306.453 -335.057,-306.453 -335.16,-306.453 
			-335.265,-306.453 -335.371,-306.453 -335.474,-306.453 -335.58,-306.453 -335.684,-306.453 -335.788,-306.453 -335.893,-306.453 
			-335.998,-306.453 -336.102,-306.453 -336.207,-306.453 -336.313,-306.453 -336.417,-306.453 -336.522,-306.453 
			-336.626,-306.453 -336.73,-306.453 -336.835,-306.453 -336.939,-306.453 -337.046,-306.453 -337.15,-306.453 -337.254,-306.453 
			-337.359,-306.453 -337.463,-306.453 -337.568,-306.453 -337.672,-306.453 -337.776,-306.453 -337.883,-306.453 
			-337.986,-306.453 -338.091,-306.453 -338.196,-306.453 -338.3,-306.453 -338.405,-306.453 -338.51,-306.453 -338.614,-306.453 
			-338.719,-306.453 -338.823,-306.453 -338.927,-306.453 -339.032,-306.453 -339.138,-306.453 -339.242,-306.453 
			-339.346,-306.453 -339.451,-306.453 -339.556,-306.453 -339.66,-306.453 -339.764,-306.453 -339.869,-306.453 -339.974,-306.453 
			-340.08,-306.453 -340.185,-306.453 -340.288,-306.453 -340.392,-306.453 -340.498,-306.453 -340.602,-306.453 -340.706,-306.453 
			-340.812,-306.453 -340.917,-306.453 -341.021,-306.453 -341.125,-306.453 -341.23,-306.453 -341.335,-306.453 -341.439,-306.453 
			-341.335,-305.576 -341.23,-304.7 -341.125,-303.824 -341.021,-302.947 -340.917,-302.071 -340.812,-301.193 -340.793,-301.04 
			-340.706,-301.04 -340.602,-301.04 -340.498,-301.04 -340.392,-301.04 -340.288,-301.04 -340.185,-301.04 -340.08,-301.04 
			-339.974,-301.04 -339.869,-301.04 -339.764,-301.04 -339.66,-301.04 -339.556,-301.04 -339.451,-301.04 -339.346,-301.04 
			-339.242,-301.04 -339.138,-301.04 -339.032,-301.04 -338.927,-301.04 -338.823,-301.04 -338.719,-301.04 -338.614,-301.04 
			-338.51,-301.04 -338.405,-301.04 -338.3,-301.04 -338.196,-301.04 -338.091,-301.04 -337.986,-301.04 -337.883,-301.04 
			-337.776,-301.04 -337.672,-301.04 -337.568,-301.04 -337.463,-301.04 -337.359,-301.04 -337.254,-301.04 -337.15,-301.04 
			-337.046,-301.04 -336.939,-301.04 -336.835,-301.04 -336.73,-301.04 -336.626,-301.04 -336.522,-301.04 -336.417,-301.04 
			-336.313,-301.04 -336.207,-301.04 -336.102,-301.04 -335.998,-301.04 -335.893,-301.04 -335.788,-301.04 -335.684,-301.04 
			-335.58,-301.04 -335.474,-301.04 -335.371,-301.04 -335.265,-301.04 -335.16,-301.04 -335.057,-301.04 -334.952,-301.04 
			-334.847,-301.04 -334.742,-301.04 -334.638,-301.04 -334.533,-301.04 -334.428,-301.04 -334.323,-301.04 -334.219,-301.04 
			-334.115,-301.04 -334.009,-301.04 -333.906,-301.04 -333.8,-301.04 -333.696,-301.04 -333.592,-301.04 -333.487,-301.04 
			-333.383,-301.04 -333.278,-301.04 -333.172,-301.04 -333.068,-301.04 -332.964,-301.04 -332.859,-301.04 -332.754,-301.04 
			-332.65,-301.04 -332.546,-301.04 -332.441,-301.04 -332.335,-301.04 -332.231,-301.04 -332.126,-301.04 -332.022,-301.04 
			-331.918,-301.04 -331.813,-301.04 -331.708,-301.04 -331.603,-301.04 -331.498,-301.04 -331.394,-301.04 -331.289,-301.04 
			-331.184,-301.04 -331.08,-301.04 -330.976,-301.04 -330.87,-301.04 -330.767,-301.04 -330.66,-301.04 -330.556,-301.04 
			-330.451,-301.04 -330.347,-301.04 -330.243,-301.04 -330.138,-301.04 -330.033,-301.04 -329.93,-301.04 -329.825,-301.04 
			-329.719,-301.04 -329.615,-301.04 -329.51,-301.04 -329.405,-301.04 -329.301,-301.04 -329.197,-301.04 -329.092,-301.04 
			-328.988,-301.04 -328.883,-301.04 -328.779,-301.04 -328.673,-301.04 -328.568,-301.04 -328.464,-301.04 -328.358,-301.04 
			-328.255,-301.04 -328.15,-301.04 -328.045,-301.04 -327.941,-301.04 -327.928,-301.04 -327.912,-301.04 -327.908,-301.04 
			-327.908,-306.453 		"/>
		<polygon fill="#E9E9E8" points="-321.514,-290.045 -327.908,-290.062 -327.908,-295.383 -327.961,-295.383 -327.928,-295.397 
			-327.908,-295.406 -327.908,-300.737 -327.928,-300.729 -340.323,-295.384 -339.912,-290.093 -339.893,-290.101 
			-339.893,-290.093 -327.908,-290.062 -321.514,-290.045 		"/>
		<polygon fill="#E9E9E8" points="-327.205,-301.04 -327.205,-301.04 -327.908,-300.737 -327.205,-301.04 		"/>
		<polygon fill="#E9E9E8" points="-327.908,-281.235 -327.928,-281.23 -333.783,-282.734 -334.135,-287.11 -339.533,-287.112 
			-338.854,-278.657 -327.908,-275.312 -327.908,-275.313 		"/>
		<polygon fill="#FFFFFE" points="-315.18,-301.04 -314.673,-306.231 -314.651,-306.453 -314.651,-306.453 -314.651,-306.453 
			-314.756,-306.453 -314.861,-306.453 -314.967,-306.453 -315.069,-306.453 -315.175,-306.453 -315.279,-306.453 
			-315.383,-306.453 -315.488,-306.453 -315.593,-306.453 -315.698,-306.453 -315.803,-306.453 -315.908,-306.453 
			-316.011,-306.453 -316.116,-306.453 -316.221,-306.453 -316.325,-306.453 -316.429,-306.453 -316.535,-306.453 -316.64,-306.453 
			-316.743,-306.453 -316.85,-306.453 -316.953,-306.453 -317.058,-306.453 -317.162,-306.453 -317.266,-306.453 -317.372,-306.453 
			-317.477,-306.453 -317.582,-306.453 -317.685,-306.453 -317.79,-306.453 -317.895,-306.453 -318.001,-306.453 -318.103,-306.453 
			-318.209,-306.453 -318.314,-306.453 -318.419,-306.453 -318.524,-306.453 -318.627,-306.453 -318.732,-306.453 
			-318.838,-306.453 -318.942,-306.453 -319.048,-306.453 -319.151,-306.453 -319.256,-306.453 -319.361,-306.453 
			-319.464,-306.453 -319.569,-306.453 -319.675,-306.453 -319.777,-306.453 -319.883,-306.453 -319.988,-306.453 
			-320.093,-306.453 -320.198,-306.453 -320.301,-306.453 -320.406,-306.453 -320.511,-306.453 -320.616,-306.453 
			-320.719,-306.453 -320.825,-306.453 -320.929,-306.453 -321.035,-306.453 -321.139,-306.453 -321.243,-306.453 
			-321.348,-306.453 -321.453,-306.453 -321.558,-306.453 -321.662,-306.453 -321.766,-306.453 -321.872,-306.453 
			-321.976,-306.453 -322.082,-306.453 -322.185,-306.453 -322.29,-306.453 -322.395,-306.453 -322.501,-306.453 -322.603,-306.453 
			-322.709,-306.453 -322.813,-306.453 -322.917,-306.453 -323.022,-306.453 -323.127,-306.453 -323.232,-306.453 
			-323.338,-306.453 -323.44,-306.453 -323.546,-306.453 -323.65,-306.453 -323.756,-306.453 -323.859,-306.453 -323.964,-306.453 
			-324.069,-306.453 -324.175,-306.453 -324.279,-306.453 -324.385,-306.453 -324.487,-306.453 -324.593,-306.453 
			-324.698,-306.453 -324.801,-306.453 -324.906,-306.453 -325.011,-306.453 -325.116,-306.453 -325.219,-306.453 
			-325.324,-306.453 -325.429,-306.453 -325.535,-306.453 -325.639,-306.453 -325.743,-306.453 -325.848,-306.453 
			-325.953,-306.453 -326.056,-306.453 -326.161,-306.453 -326.266,-306.453 -326.37,-306.453 -326.474,-306.453 -326.58,-306.453 
			-326.685,-306.453 -326.79,-306.453 -326.895,-306.453 -326.998,-306.453 -327.103,-306.453 -327.209,-306.453 -327.313,-306.453 
			-327.418,-306.453 -327.521,-306.453 -327.628,-306.453 -327.731,-306.453 -327.836,-306.453 -327.908,-306.453 -327.908,-301.04 
			-327.836,-301.04 -327.731,-301.04 -327.628,-301.04 -327.521,-301.04 -327.418,-301.04 -327.313,-301.04 -327.209,-301.04 
			-327.205,-301.04 -327.205,-301.04 -327.205,-301.04 -327.908,-300.737 -327.908,-295.406 		"/>
		<polygon fill="#FFFFFE" points="-316.079,-290.031 -316.079,-290.031 -315.629,-295.383 -327.908,-295.383 -327.908,-290.062 
			-321.514,-290.045 -321.514,-290.045 -321.918,-282.976 -327.908,-281.235 -327.908,-275.313 -327.908,-275.312 
			-317.041,-278.596 		"/>
	</g>
</g>
<g>
	<rect x="-288.932" y="-317.819" fill="#6181B6" width="55.846" height="55.846"/>
	<g id="Layer_2_1_">
		<g>
			<path fill="#F9F9F9" d="M-275.656-293.698c1.481,0,2.469,0.278,2.961,0.833c0.494,0.555,0.611,1.509,0.354,2.859
				c-0.27,1.405-0.789,2.409-1.558,3.011s-1.94,0.902-3.512,0.902h-2.371l1.456-7.605H-275.656z M-285.153-278.396h3.898l0.924-4.83
				h3.339c1.473,0,2.686-0.157,3.637-0.472c0.952-0.314,1.815-0.841,2.594-1.581c0.654-0.609,1.182-1.282,1.586-2.018
				c0.404-0.734,0.692-1.545,0.861-2.433c0.412-2.154,0.101-3.832-0.933-5.033c-1.034-1.202-2.679-1.803-4.934-1.803h-7.497
				L-285.153-278.396z"/>
			<path fill="#F9F9F9" d="M-265.449-301.396h3.867l-0.924,4.831h3.445c2.168,0,3.662,0.384,4.485,1.151
				c0.823,0.769,1.069,2.013,0.741,3.733l-1.619,8.455h-3.928l1.539-8.041c0.175-0.914,0.111-1.538-0.193-1.871
				c-0.305-0.332-0.951-0.499-1.941-0.499h-3.09l-1.992,10.409h-3.868L-265.449-301.396z"/>
			<path fill="#F9F9F9" d="M-245.23-293.698c1.481,0,2.469,0.278,2.961,0.833c0.493,0.555,0.61,1.509,0.353,2.859
				c-0.27,1.405-0.788,2.409-1.558,3.011c-0.769,0.602-1.939,0.902-3.511,0.902h-2.371l1.455-7.605H-245.23z M-254.727-278.396
				h3.897l0.925-4.83h3.338c1.475,0,2.686-0.157,3.637-0.472s1.816-0.841,2.596-1.581c0.652-0.609,1.182-1.282,1.586-2.018
				c0.404-0.734,0.691-1.545,0.861-2.433c0.412-2.154,0.102-3.832-0.933-5.033c-1.034-1.202-2.68-1.803-4.935-1.803h-7.495
				L-254.727-278.396z"/>
		</g>
	</g>
</g>
<g>
	<rect x="-623.507" y="-317.973" fill="#FFFFFF" width="56" height="56"/>
	<g>
		<path fill="#F6A2AD" d="M-612.046-287.86c-0.794-1.15-1.59-1.289-1.59-1.289h-7.639c0,0,3.493,0.871,3.871,6.586
			c0.308,4.67,1.875,5.605,1.875,5.605h0.147C-615.215-277.016-614.041-277.785-612.046-287.86z"/>
		<path fill="#F6A2AD" d="M-595.571-289.95c-0.057-0.303-0.113-0.609-0.171-0.927c-2.229-12.116-3.584-12.116-3.584-12.116h-7.511
			c0,0,0.004,0.003,0.011,0.009h6.442c0,0-1.698,1.275-3.225,10.133c0.149,0.875,0.299,1.823,0.444,2.852
			c1.621,11.455,3.686,13.039,3.686,13.039h0.152C-599.325-276.961-597.979-276.975-595.571-289.95z"/>
		<path fill="#F6A2AD" d="M-580.434-283.012c0.224-2.258,0.749-3.688,1.301-4.592c-0.197-0.996-0.406-2.083-0.62-3.273
			c-2.229-12.115-3.585-12.115-3.585-12.115h-0.968c0,0-1.732,1.301-3.271,10.396c0.136,0.804,0.271,1.667,0.402,2.596
			c1.621,11.455,3.686,13.039,3.686,13.039h0.488C-582.867-277.024-580.931-277.996-580.434-283.012z"/>
		<path fill="#EB7077" d="M-584.306-302.992h-6.543h-0.968c0,0-1.354,0-3.585,12.115c-0.057,0.317-0.113,0.624-0.169,0.927
			c-2.408,12.975-3.755,12.989-3.755,12.989h7.509h0.152c0,0,2.064-1.584,3.686-13.039c0.131-0.929,0.266-1.792,0.401-2.596
			C-586.038-301.691-584.306-302.992-584.306-302.992z"/>
		<path fill="#EB7077" d="M-600.383-302.984h-6.442h-1.067c0,0-1.355,0-3.584,12.116c-0.197,1.085-0.387,2.084-0.569,3.008
			c-1.995,10.074-3.169,10.844-3.335,10.902c-0.014,0.004-0.021,0.004-0.021,0.004h7.66c0,0,2.064-1.584,3.686-13.038
			c0.146-1.032,0.296-1.983,0.448-2.86C-602.081-301.709-600.383-302.984-600.383-302.984z"/>
		<path fill="#EB7077" d="M-577.378-289.149c0,0-0.909,0.16-1.755,1.545c-0.552,0.904-1.077,2.334-1.301,4.592
			c-0.497,5.016-2.434,5.988-2.567,6.051c-0.006,0.002-0.007,0.004-0.007,0.004h7.522c0,0,1.568-0.936,1.876-5.605
			c0.377-5.715,3.87-6.586,3.87-6.586H-577.378z"/>
	</g>
</g>
<g>
	<rect x="-690.407" y="-317.972" fill="#FFFFFF" width="56" height="55.999"/>
	<path d="M-669.128-292.757c-1.679,0-3.427-0.256-5.176-0.452c-1.808-0.193-3.554-0.45-5.233-0.45c-6.078,0-8.66,3.877-8.66,9.631
		v1.877h4.653v-1.162c0.066-3.299,1.877-4.461,5.042-4.461c1.297,0,2.651,0.193,4.072,0.387c1.425,0.197,2.975,0.391,4.658,0.391
		c4.522,0.059,6.462-1.877,7.237-5.108h0.128c0.775,3.227,2.783,5.167,7.306,5.108c1.74,0,3.299-0.193,4.713-0.391
		c1.424-0.193,2.781-0.387,4.078-0.387c3.225,0,5.037,1.229,5.1,4.461v1.162h4.594v-1.875c0-5.625-2.328-9.629-8.852-9.629
		c-1.617,0-3.426,0.257-5.174,0.45c-1.746,0.194-3.426,0.453-5.105,0.453c-1.875,0-4.521-0.584-4.592-5.041h-4.202
		C-664.605-293.337-667.06-292.757-669.128-292.757z"/>
</g>
<g>
	<rect x="-556.608" y="-318.942" fill="#FFFFFF" width="56" height="56"/>
	<g>
		<path fill="#563D7C" d="M-521.12-287.871c-1.017-0.77-2.358-1.154-4.03-1.154h-8.401v9.631h8.254c0.754,0,1.475-0.074,2.162-0.221
			c0.688-0.148,1.294-0.395,1.817-0.738c0.525-0.344,0.943-0.811,1.254-1.4s0.467-1.342,0.467-2.26
			C-519.598-285.815-520.106-287.1-521.12-287.871z"/>
		<path fill="#563D7C" d="M-499.638-319.911h-57.939l0,0v57.938l0,0l0,0h57.939l0,0V-319.911L-499.638-319.911z M-512.916-278.979
			c-0.688,1.295-1.613,2.352-2.775,3.17c-1.163,0.818-2.489,1.426-3.979,1.818s-3.022,0.59-4.594,0.59h-17.001v-35.081h16.508
			c1.672,0,3.195,0.147,4.57,0.442c1.376,0.294,2.556,0.777,3.537,1.45c0.982,0.671,1.744,1.563,2.285,2.677
			c0.541,1.114,0.81,2.489,0.81,4.127c0,1.769-0.4,3.244-1.202,4.422c-0.804,1.179-1.99,2.146-3.563,2.898
			c2.161,0.623,3.774,1.711,4.84,3.267c1.063,1.557,1.596,3.432,1.596,5.625C-511.885-281.803-512.228-280.272-512.916-278.979z"/>
		<path fill="#563D7C" d="M-522.35-295.265c0.885-0.655,1.327-1.72,1.327-3.193c0-0.819-0.147-1.491-0.442-2.015
			c-0.295-0.523-0.688-0.933-1.18-1.229c-0.491-0.294-1.055-0.499-1.694-0.614c-0.64-0.114-1.302-0.171-1.99-0.171h-7.223v8.205
			h7.813C-524.365-294.282-523.235-294.61-522.35-295.265z"/>
	</g>
</g>
<rect x="0" y="0" fill="#B0B0B0" width="57.001" height="56.693"/>
<g>
	<ellipse fill="#FFFFFF" cx="28.501" cy="13.628" rx="15.952" ry="5.146"/>
	<path fill="#FFFFFF" d="M28.501,20.928c-8.811,0-15.953-2.306-15.953-5.146v7.656c0,2.842,7.143,5.147,15.953,5.147
		c8.809,0,15.952-2.304,15.952-5.147v-7.656C44.453,18.623,37.309,20.928,28.501,20.928z"/>
	<path fill="#FFFFFF" d="M28.501,30.739c-8.811,0-15.953-2.304-15.953-5.146v7.66c0,2.841,7.143,5.145,15.953,5.145
		c8.809,0,15.952-2.306,15.952-5.145v-7.66C44.453,28.435,37.309,30.739,28.501,30.739z"/>
	<path fill="#FFFFFF" d="M28.501,40.551c-8.811,0-15.953-2.304-15.953-5.145v7.658c0,2.841,7.143,5.145,15.953,5.145
		c8.809,0,15.952-2.304,15.952-5.145v-7.658C44.453,38.247,37.309,40.551,28.501,40.551z"/>
</g>
</svg>
