<?xml version="1.0" encoding="utf-8"?>
<!-- Generator: Adobe Illustrator 16.0.0, SVG Export Plug-In . SVG Version: 6.00 Build 0)  -->
<!DOCTYPE svg PUBLIC "-//W3C//DTD SVG 1.1//EN" "http://www.w3.org/Graphics/SVG/1.1/DTD/svg11.dtd">
<svg version="1.1" id="Calque_1" xmlns="http://www.w3.org/2000/svg" xmlns:xlink="http://www.w3.org/1999/xlink" x="0px" y="0px"
	 width="56px" height="56px" viewBox="0.346 0.346 56 56" enable-background="new 0.346 0.346 56 56" xml:space="preserve">
<g>
	<polyline fill="#3558A8" points="-440.196,-262.619 -383.956,-262.619 -383.956,-319.911 -440.196,-319.911 -440.196,-262.619 	"/>
	<path fill="#FFFFFF" d="M-397.503-295.316l-0.172-0.74c-0.135-0.537-0.519-0.79-1.384-0.79h-3.634
		c-0.085,0-0.168,0.038-0.186,0.122l-1.379,6.662c-0.018,0.085-0.023,0.144-0.014,0.186s0.171,0.036,0.254,0.036h1.259
		c0.085,0,0.238,0.005,0.282-0.013c0.047-0.02,0.066-0.147,0.084-0.231l0.446-2.335l0.542-2.592
		c0.018-0.083,0.101-0.151,0.184-0.151l3.601-0.002C-397.535-295.165-397.482-295.233-397.503-295.316"/>
	<path fill="#FFFFFF" d="M-392.379-298.016c-0.085,0.001-1.598,0-1.598,0c-0.083,0-0.191,0.091-0.238,0.161l-2.804,4.201
		c-0.047,0.07-0.102,0.068-0.12-0.016l-0.207-0.92c-0.018-0.084-0.102-0.15-0.186-0.15h-1.803c-0.082,0-0.132,0.069-0.11,0.152
		l0.808,2.883c0.023,0.084,0.026,0.219,0.005,0.301l-0.377,1.461c-0.021,0.083,0.032,0.107,0.116,0.107h1.78
		c0.082,0,0.169-0.024,0.189-0.107l0.377-1.481c0.021-0.083,0.078-0.194,0.129-0.264l4.574-6.181
		c0.052-0.067,0.044-0.148-0.039-0.148L-392.379-298.016"/>
	<path fill="#FFFFFF" d="M-411.135-296.842h-1.627c-0.082,0-0.168,0.031-0.184,0.113l-0.537,2.563l-0.536,2.452
		c-0.017,0.083-0.099,0.078-0.183,0.078h-1.068c-1.058,0-0.936-0.681-0.719-1.7c0.002-0.01,0.679-3.393,0.679-3.393
		c0.015-0.082-0.04-0.113-0.123-0.113h-1.549c-0.084,0-0.167,0.031-0.183,0.113l-0.624,3.389c-0.311,1.833-0.32,3.446,1.767,3.499
		c0.033,0.001,3.292,0,3.292,0c0.085,0,0.167-0.028,0.186-0.111l0.708-3.398l0.704-3.411
		C-411.133-296.762-411.107-296.842-411.135-296.842"/>
	<path fill="#FFFFFF" d="M-427.33-296.846h-1.743c-0.084,0-0.168,0.021-0.186,0.104l-0.315,1.385
		c-0.019,0.082,0.036,0.148,0.12,0.148h1.669c0.085,0,0.168-0.077,0.186-0.16l0.303-1.396
		C-427.297-296.765-427.272-296.846-427.33-296.846"/>
	<path fill="#FFFFFF" d="M-429.567-294.74c-0.083,0-0.168,0.066-0.186,0.15l-0.235,1.057l-0.524,2.441c0,0-0.279,1.299-0.306,1.38
		c0,0-0.235,0.938-0.796,0.901c-0.261-0.02-0.56-0.079-0.56-0.079h-0.001c-0.156-0.049-0.168,0.116-0.187,0.2l-0.347,1.522
		c-0.02,0.082,0.033,0.157,0.116,0.159c0,0,0.751,0.107,1.28,0.107h0.088c1.309,0,2.001-0.784,2.443-2.913l0.518-2.466l0.486-2.293
		c0.018-0.082-0.032-0.16-0.115-0.16"/>
	<path fill="#FFFFFF" d="M-406.249-293.926c0,0.092-0.287,0.075-0.287,0.075l-2.286-0.018c-0.079,0-0.102-0.112-0.106-0.192
		c0-0.004,0.006-0.098,0.012-0.121c0.177-0.625,0.704-0.98,1.54-0.98c0.94,0,1.141,0.475,1.141,1.002 M-407.022-296.857
		c-2.932,0-3.632,1.846-4.021,3.677c-0.389,1.865-0.355,3.34,2.678,3.34h0.11c1.203,0,2.666,0,2.666,0
		c0.082-0.002,0.163-0.078,0.18-0.161l0.3-1.184c0.016-0.084-0.039-0.107-0.122-0.107h-2.729c-0.988,0-1.343-0.312-1.308-1.008
		c-0.001-0.079,0.088-0.281,0.172-0.281h4.203c0.186-0.001,0.19-0.109,0.19-0.109C-404.276-294.66-404.247-296.857-407.022-296.857"
		/>
	<path fill="#FFFFFF" d="M-421.243-293.012l-0.338,1.177c-0.023,0.082-0.119,0.137-0.203,0.137h-1.742
		c-1.322,0-1.645-1.041-1.322-2.595c0.322-1.589,0.962-2.571,2.262-2.671c1.779-0.137,2.144,1.143,1.712,2.613L-421.243-293.012
		 M-419.694-291.765c0,0,0.821-2.033,1.008-3.207c0.255-1.572-0.518-3.852-3.501-3.852c-2.967,0-4.255,2.176-4.747,4.543
		c-0.49,2.383,0.151,4.457,3.102,4.44l4.503-0.002c0.083,0,0.17-0.069,0.19-0.15l0.381-1.473c0.02-0.084-0.031-0.151-0.115-0.151
		l-0.362-0.002l-0.362-0.002c-0.072,0-0.113-0.049-0.104-0.11C-419.7-291.743-419.699-291.754-419.694-291.765"/>
	<path fill="#5DA3C2" d="M-407.884-294.074c-0.009,0.037-0.019,0.086-0.025,0.119l-0.29,1.357l0.306-1.431L-407.884-294.074"/>
</g>
<g>
	<rect x="122.822" y="-319.911" fill="#5BD3BF" width="56.693" height="57.007"/>
	<g>
		
			<linearGradient id="bottom_1_" gradientUnits="userSpaceOnUse" x1="337.7693" y1="240.2791" x2="337.7693" y2="274.2395" gradientTransform="matrix(1 0 0 1 -187.5996 -549.9902)">
			<stop  offset="0" style="stop-color:#002E3B"/>
			<stop  offset="1" style="stop-color:#002639"/>
		</linearGradient>
		
			<linearGradient id="bottom_2_" gradientUnits="userSpaceOnUse" x1="337.7664" y1="236.4832" x2="337.7664" y2="274.6782" gradientTransform="matrix(1 0 0 1 -187.5996 -549.9902)">
			<stop  offset="0" style="stop-color:#002E3B"/>
			<stop  offset="1" style="stop-color:#002639"/>
		</linearGradient>
		<polygon id="bottom" fill="url(#bottom_1_)" stroke="url(#bottom_2_)" points="150.156,-280.61 145.226,-283.014 
			145.232,-283.016 145.23,-283.016 139.994,-280.463 150.16,-275.502 160.344,-280.451 155.088,-283.055 		"/>
		
			<radialGradient id="right_2_" cx="279.2859" cy="153.8953" r="30.217" gradientTransform="matrix(1 0 0 -1 -137.6001 -123.2974)" gradientUnits="userSpaceOnUse">
			<stop  offset="0" style="stop-color:#00BC85"/>
			<stop  offset="1" style="stop-color:#149D91"/>
		</radialGradient>
		
			<radialGradient id="right_3_" cx="279.0896" cy="152.7283" r="34.5935" gradientTransform="matrix(1 0 0 -1 -137.6001 -123.2974)" gradientUnits="userSpaceOnUse">
			<stop  offset="0" style="stop-color:#00BC85"/>
			<stop  offset="1" style="stop-color:#149D91"/>
		</radialGradient>
		<polygon id="right_1_" fill="url(#right_2_)" stroke="url(#right_3_)" points="140.006,-280.446 140.006,-285.556 
			145.047,-288.013 150.23,-285.456 		"/>
		
			<radialGradient id="right-2_1_" cx="339.3953" cy="238.6462" r="36.5126" gradientTransform="matrix(1 0 0 1 -187.5996 -549.9902)" gradientUnits="userSpaceOnUse">
			<stop  offset="0" style="stop-color:#00BC85"/>
			<stop  offset="1" style="stop-color:#149D91"/>
		</radialGradient>
		
			<radialGradient id="right-2_2_" cx="338.6667" cy="237.3425" r="39.5624" gradientTransform="matrix(1 0 0 1 -187.5996 -549.9902)" gradientUnits="userSpaceOnUse">
			<stop  offset="0" style="stop-color:#00BC85"/>
			<stop  offset="1" style="stop-color:#149D91"/>
		</radialGradient>
		<polygon id="right-2" fill="url(#right-2_1_)" stroke="url(#right-2_2_)" points="155.75,-301.473 155.75,-293.395 
			155.75,-293.395 155.75,-293.395 150.115,-290.648 155.297,-288.068 160.342,-290.525 160.342,-304.344 		"/>
		
			<radialGradient id="left_2_" cx="329.9382" cy="235.9714" r="69.7925" gradientTransform="matrix(1 0 0 1 -187.5996 -549.9902)" gradientUnits="userSpaceOnUse">
			<stop  offset="0" style="stop-color:#004473"/>
			<stop  offset="1" style="stop-color:#00345F"/>
		</radialGradient>
		
			<radialGradient id="left_3_" cx="329.6082" cy="234.613" r="73.7553" gradientTransform="matrix(1 0 0 1 -187.5996 -549.9902)" gradientUnits="userSpaceOnUse">
			<stop  offset="0" style="stop-color:#004473"/>
			<stop  offset="1" style="stop-color:#00345F"/>
		</radialGradient>
		<polygon id="left_1_" fill="url(#left_2_)" stroke="url(#left_3_)" points="160.344,-280.449 160.344,-280.449 160.344,-285.558 
			144.599,-293.399 144.599,-301.479 140.006,-304.349 140.006,-290.529 		"/>
		
			<linearGradient id="top_1_" gradientUnits="userSpaceOnUse" x1="337.7585" y1="240.4568" x2="337.7585" y2="274.24" gradientTransform="matrix(1 0 0 1 -187.5996 -549.9902)">
			<stop  offset="0" style="stop-color:#002E3B"/>
			<stop  offset="1" style="stop-color:#002639"/>
		</linearGradient>
		
			<linearGradient id="top_2_" gradientUnits="userSpaceOnUse" x1="337.7585" y1="239.9597" x2="337.7585" y2="277.8531" gradientTransform="matrix(1 0 0 1 -187.5996 -549.9902)">
			<stop  offset="0" style="stop-color:#002E3B"/>
			<stop  offset="1" style="stop-color:#002639"/>
		</linearGradient>
		<polygon id="top" fill="url(#top_1_)" stroke="url(#top_2_)" points="144.586,-301.487 144.586,-301.489 150.16,-304.208 
			155.734,-301.489 160.322,-304.354 150.156,-309.313 139.994,-304.356 139.994,-304.352 144.582,-301.485 		"/>
	</g>
</g>
<g>
	<rect x="60.24" y="-319.911" fill="#CCFFCC" width="56.693" height="56.693"/>
	<g id="Responsive_Design_1_">
		<path fill="#757575" d="M106.038-278.333c0,0.067,0,0.103,0,0.169c0,1.838-4.408,3.301-9.844,3.301s-9.844-1.463-9.844-3.301
			c0-0.066,0-0.102,0.033-0.169c-0.033-0.034-0.033-0.103-0.033-0.169c0-1.805,4.408-3.301,9.844-3.301s9.844,1.496,9.844,3.301
			C106.038-278.435,106.038-278.367,106.038-278.333z"/>
		<path fill="#696969" d="M106.038-278.333c0,0.067,0,0.103,0,0.169c0,1.838-4.408,3.301-9.844,3.301c-0.232,0-0.465,0-0.695,0
			v-6.905c0.23-0.034,0.463-0.034,0.695-0.034c5.436,0,9.844,1.496,9.844,3.301C106.038-278.435,106.038-278.367,106.038-278.333z"
			/>
		<path fill="#757575" d="M95.499-281.768c0.23-0.034,0.463-0.034,0.695-0.034c5.27,0,9.545,1.395,9.844,3.129
			c-0.299,1.734-4.574,3.096-9.844,3.096c-0.232,0-0.463,0-0.695,0V-281.768z"/>
		<ellipse fill="#8D8D8D" cx="96.194" cy="-278.878" rx="9.844" ry="3.3"/>
		<path fill="#7F7F7F" d="M96.194-282.142c5.436,0,9.844,1.463,9.844,3.266c0,1.837-4.408,3.299-9.844,3.299
			c-0.232,0-0.463,0-0.695,0v-6.564C95.729-282.142,95.962-282.142,96.194-282.142z"/>
		<polygon fill="#CCCCCC" points="92.647,-288.469 99.774,-288.469 99.774,-279.695 92.647,-279.695 		"/>
		<polygon fill="#B8B8B8" points="99.774,-283.742 99.774,-279.695 95.499,-279.695 95.499,-283.742 		"/>
		<polygon fill="#B8B8B8" points="93.178,-287.891 99.376,-287.891 99.376,-280.238 93.178,-280.238 		"/>
		<polygon fill="#A6A6A6" points="99.376,-283.742 99.376,-280.238 95.499,-280.238 95.499,-283.742 		"/>
		<path fill="#A9ABAE" d="M78.362-309.014h35.828c0.365,0,0.664,0.306,0.664,0.681v23.913c0,0.373-0.299,0.679-0.664,0.679H78.362
			c-0.365,0-0.662-0.306-0.662-0.679v-23.913C77.7-308.709,77.997-309.014,78.362-309.014z"/>
		<path fill="#669999" d="M79.788-308.027h33.607c0.266,0,0.496,0.238,0.496,0.544v21.667c0,0.306-0.23,0.545-0.496,0.545H79.192
			c-0.299,0-0.531-0.239-0.531-0.545v-21.056C78.661-307.517,79.157-308.027,79.788-308.027z"/>
		<path fill="#CCCCCC" d="M96.294-285.135c0.273,0,0.496,0.229,0.496,0.51s-0.223,0.511-0.496,0.511
			c-0.275,0-0.498-0.229-0.498-0.511S96.018-285.135,96.294-285.135z"/>
		<ellipse fill="#B3B3B3" cx="96.294" cy="-284.626" rx="0.365" ry="0.374"/>
		<path fill="#336666" d="M80.782-307.313h31.553c0.266,0,0.465,0.204,0.465,0.476v20.375c0,0.273-0.199,0.477-0.465,0.477H80.219
			c-0.266,0-0.465-0.203-0.465-0.477v-19.796C79.755-306.838,80.219-307.313,80.782-307.313z"/>
		<rect x="82.903" y="-304.761" fill="#E6E6E6" width="21.113" height="17.721"/>
		<rect x="80.284" y="-304.797" fill="#66FFCC" width="1.807" height="17.73"/>
		<rect x="104.645" y="-304.66" fill="#E6E6E6" width="4.375" height="17.551"/>
		<rect x="110.014" y="-304.797" fill="#E6E6E6" width="1.807" height="17.73"/>
		<rect x="104.977" y="-304.286" fill="#CCCCCC" width="3.779" height="5"/>
		<rect x="104.977" y="-298.742" fill="#CCCCCC" width="3.777" height="2.858"/>
		<rect x="104.977" y="-295.136" fill="#CCCCCC" width="3.777" height="1.814"/>
		<rect x="104.977" y="-292.687" fill="#CCCCCC" width="3.779" height="5.035"/>
		<path fill="#33CC99" d="M110.214-304.286h0.564v0.578h-0.564V-304.286z M111.042-288.129h0.564v0.578h-0.564V-288.129z
			 M110.214-288.129h0.564v0.578h-0.564V-288.129z M111.042-288.911h0.564v0.611h-0.564V-288.911z M110.214-288.911h0.564v0.611
			h-0.564V-288.911z M111.042-289.66h0.564v0.578h-0.564V-289.66z M110.214-289.66h0.564v0.578h-0.564V-289.66z M111.042-290.442
			h0.564v0.578h-0.564V-290.442z M110.214-290.442h0.564v0.578h-0.564V-290.442z M111.042-291.224h0.564v0.612h-0.564V-291.224z
			 M110.214-291.224h0.564v0.612h-0.564V-291.224z M111.042-291.972h0.564v0.578h-0.564V-291.972z M110.214-291.972h0.564v0.578
			h-0.564V-291.972z M111.042-292.755h0.564v0.612h-0.564V-292.755z M110.214-292.755h0.564v0.612h-0.564V-292.755z
			 M111.042-293.537h0.564v0.611h-0.564V-293.537z M110.214-293.537h0.564v0.611h-0.564V-293.537z M111.042-294.286h0.564v0.578
			h-0.564V-294.286z M110.214-294.286h0.564v0.578h-0.564V-294.286z M111.042-295.068h0.564v0.612h-0.564V-295.068z
			 M110.214-295.068h0.564v0.612h-0.564V-295.068z M111.042-295.816h0.564v0.578h-0.564V-295.816z M110.214-295.816h0.564v0.578
			h-0.564V-295.816z M111.042-296.599h0.564v0.579h-0.564V-296.599z M110.214-296.599h0.564v0.579h-0.564V-296.599z
			 M111.042-297.381h0.564v0.613h-0.564V-297.381z M110.214-297.381h0.564v0.613h-0.564V-297.381z M111.042-298.131h0.564v0.58
			h-0.564V-298.131z M110.214-298.131h0.564v0.58h-0.564V-298.131z M111.042-298.912h0.564v0.612h-0.564V-298.912z M110.214-298.912
			h0.564v0.612h-0.564V-298.912z M111.042-299.695h0.564v0.613h-0.564V-299.695z M110.214-299.695h0.564v0.613h-0.564V-299.695z
			 M111.042-300.442h0.564v0.577h-0.564V-300.442z M110.214-300.442h0.564v0.577h-0.564V-300.442z M111.042-301.224h0.564v0.612
			h-0.564V-301.224z M110.214-301.224h0.564v0.612h-0.564V-301.224z M111.042-301.972h0.564v0.578h-0.564V-301.972z
			 M110.214-301.972h0.564v0.578h-0.564V-301.972z M111.042-302.756h0.564v0.579h-0.564V-302.756z M110.214-302.756h0.564v0.579
			h-0.564V-302.756z M111.042-303.537h0.564v0.611h-0.564V-303.537z M110.214-303.537h0.564v0.611h-0.564V-303.537z
			 M111.042-304.286h0.564v0.578h-0.564V-304.286z"/>
		<rect x="81.278" y="-306.939" fill="#999999" width="30.006" height="1.465"/>
		<ellipse fill="#B3B3B3" cx="82.274" cy="-306.191" rx="0.363" ry="0.375"/>
		<path fill="#B3B3B3" d="M84.13-306.565c0.201,0,0.363,0.169,0.363,0.374c0,0.207-0.162,0.375-0.363,0.375
			s-0.365-0.168-0.365-0.375C83.764-306.396,83.928-306.565,84.13-306.565z"/>
		<path fill="#B3B3B3" d="M85.985-306.565c0.201,0,0.365,0.169,0.365,0.374c0,0.207-0.164,0.375-0.365,0.375
			s-0.365-0.168-0.365-0.375C85.62-306.396,85.784-306.565,85.985-306.565z"/>
		<path fill="#B3B3B3" d="M87.809-306.565c0.199,0,0.363,0.169,0.363,0.374c0,0.207-0.164,0.375-0.363,0.375
			c-0.203,0-0.365-0.168-0.365-0.375C87.444-306.396,87.606-306.565,87.809-306.565z"/>
		<ellipse fill="#B3B3B3" cx="89.665" cy="-306.191" rx="0.363" ry="0.375"/>
		<ellipse fill="#B3B3B3" cx="91.52" cy="-306.191" rx="0.365" ry="0.375"/>
		<ellipse fill="#B3B3B3" cx="93.378" cy="-306.191" rx="0.363" ry="0.375"/>
		<ellipse fill="#B3B3B3" cx="95.233" cy="-306.191" rx="0.365" ry="0.375"/>
		<ellipse fill="#B3B3B3" cx="97.055" cy="-306.191" rx="0.365" ry="0.375"/>
		<path fill="#B3B3B3" d="M98.911-306.565c0.201,0,0.365,0.169,0.365,0.374c0,0.207-0.164,0.375-0.365,0.375
			c-0.199,0-0.363-0.168-0.363-0.375C98.548-306.396,98.712-306.565,98.911-306.565z"/>
		<ellipse fill="#B3B3B3" cx="100.768" cy="-306.191" rx="0.363" ry="0.375"/>
		<ellipse fill="#B3B3B3" cx="102.624" cy="-306.191" rx="0.365" ry="0.375"/>
		<ellipse fill="#B3B3B3" cx="104.446" cy="-306.191" rx="0.365" ry="0.375"/>
		<ellipse fill="#B3B3B3" cx="106.303" cy="-306.191" rx="0.363" ry="0.375"/>
		<path fill="#B3B3B3" d="M108.159-306.565c0.201,0,0.365,0.169,0.365,0.374c0,0.207-0.164,0.375-0.365,0.375
			s-0.365-0.168-0.365-0.375C107.794-306.396,107.958-306.565,108.159-306.565z"/>
		<ellipse fill="#B3B3B3" cx="110.014" cy="-306.191" rx="0.365" ry="0.375"/>
		<polygon fill="#FFCC00" points="93.475,-301.123 95.665,-299.83 97.85,-298.537 97.85,-295.918 97.85,-293.3 95.665,-292.007 
			93.475,-290.715 91.288,-292.007 89.102,-293.3 89.102,-295.918 89.102,-298.537 91.288,-299.83 		"/>
		<polygon fill="#FFAB00" points="93.475,-301.123 95.665,-299.83 97.85,-298.537 97.85,-296.191 89.102,-296.191 89.102,-298.537 
			91.288,-299.83 		"/>
		<path fill="#CCCCCC" d="M93.442-303.436L93.442-303.436h-0.031h-0.066h-0.035c-0.064,0-0.131-0.067-0.131-0.136
			c0-0.102,0.066-0.136,0.131-0.17h0.035h0.066h0.031l0,0h0.068h0.033h0.064l0.033,0.034h0.066h0.033
			c0.066,0,0.133,0.067,0.133,0.136c-0.033,0.068-0.066,0.136-0.166,0.136h-0.033h-0.033h-0.033h-0.064H93.51H93.442z
			 M92.481-303.674c0.066,0,0.133,0.067,0.166,0.137c0,0.068-0.066,0.135-0.133,0.135l0,0l-0.033,0.035h-0.064h-0.035h-0.033h-0.066
			l-0.031,0.033c-0.066,0-0.135-0.068-0.135-0.135c-0.031-0.07,0.035-0.138,0.1-0.138l0.035-0.034h0.031h0.066h0.033l0.066-0.033
			H92.481L92.481-303.674z M91.421-303.436c0.066-0.032,0.133,0.034,0.166,0.103c0,0.068-0.033,0.137-0.1,0.171h-0.033h-0.033
			l-0.066,0.032h-0.033l-0.033,0.035h-0.064l0,0c-0.068,0.033-0.133,0-0.166-0.067c-0.033-0.103,0-0.171,0.098-0.204l0,0h0.035
			l0.066-0.035h0.031h0.033l0.066-0.034H91.421L91.421-303.436z M90.36-303.06c0.066-0.035,0.166,0,0.199,0.067s0,0.169-0.066,0.204
			H90.46l-0.066,0.033H90.36l-0.033,0.034l-0.033,0.034h-0.066l0,0c-0.066,0.033-0.131,0-0.166-0.068
			c-0.033-0.068,0-0.136,0.066-0.17l0,0l0.033-0.035h0.033l0.066-0.032l0.033-0.034h0.033L90.36-303.06z M89.399-302.517
			c0.066-0.033,0.133-0.033,0.199,0.034c0.033,0.067,0,0.17-0.066,0.204l-0.033,0.033h-0.033l-0.033,0.035l-0.033,0.034
			l-0.033,0.033h-0.033l0,0c-0.066,0.067-0.166,0.034-0.199-0.033c-0.031-0.034-0.031-0.137,0.033-0.171v-0.033H89.2l0.066-0.035
			l0.033-0.033l0.033-0.034h0.033L89.399-302.517z M88.505-301.838c0.066-0.033,0.133-0.033,0.199,0c0.033,0.068,0.033,0.17,0,0.205
			l-0.033,0.034l-0.033,0.032h-0.033l-0.033,0.035l-0.033,0.035l-0.033,0.033v0.033c-0.066,0.033-0.166,0.033-0.199-0.033
			c-0.066-0.033-0.066-0.136,0-0.17l0.033-0.035l0.033-0.033l0.033-0.034l0.033-0.034l0.033-0.033h0.033V-301.838L88.505-301.838z
			 M87.743-301.02c0.033-0.069,0.131-0.069,0.164-0.034c0.066,0.068,0.066,0.137,0.033,0.204l0,0l-0.033,0.034l-0.033,0.033
			l-0.033,0.034l-0.031,0.034l-0.033,0.033v0.035c-0.068,0.067-0.133,0.067-0.199,0.034c-0.066-0.069-0.066-0.137-0.033-0.204
			l0.033-0.034l0.033-0.034l0.033-0.033l0.033-0.035v-0.033l0.033-0.034H87.743z M87.079-300.136c0.033-0.034,0.1-0.068,0.166-0.034
			s0.1,0.138,0.066,0.204l-0.033,0.035l-0.033,0.033l-0.033,0.033v0.035l-0.033,0.068l-0.033,0.034l0,0
			c-0.033,0.067-0.1,0.067-0.164,0.032c-0.068-0.032-0.102-0.102-0.068-0.17v-0.033l0.033-0.033l0.033-0.035v-0.034l0.033-0.032
			l0.033-0.035L87.079-300.136z M86.55-299.116c0.031-0.067,0.1-0.102,0.166-0.067c0.064,0.034,0.098,0.102,0.064,0.169v0.034
			l-0.033,0.068v0.034l-0.031,0.034v0.033l-0.033,0.068l0,0c-0.033,0.068-0.102,0.102-0.166,0.068c-0.066-0.034-0.1-0.102-0.1-0.17
			l0.033-0.034v-0.034l0.033-0.033v-0.035l0.033-0.067v-0.034L86.55-299.116z M86.151-298.06c0.033-0.07,0.1-0.103,0.166-0.103
			c0.1,0.032,0.133,0.103,0.1,0.204l0,0v0.033l-0.033,0.035v0.066v0.035l-0.033,0.033v0.034c0,0.103-0.1,0.137-0.166,0.103
			c-0.066,0-0.1-0.068-0.1-0.17v-0.035l0.033-0.034v-0.067l0.033-0.035v-0.033V-298.06L86.151-298.06z M85.952-296.939
			c0-0.068,0.066-0.135,0.133-0.135c0.066,0.033,0.133,0.102,0.133,0.169v0.034l-0.033,0.033v0.07v0.032v0.069v0.033l0,0
			c0,0.068-0.066,0.137-0.166,0.137c-0.066,0-0.133-0.069-0.1-0.17l0,0v-0.035v-0.066v-0.035v-0.068v-0.034L85.952-296.939z
			 M85.885-295.816c0-0.067,0.033-0.137,0.133-0.137c0.066,0,0.133,0.069,0.133,0.137v0.067v0.034v0.034v0.068v0.033v0.034
			c0,0.103-0.066,0.172-0.133,0.172s-0.133-0.069-0.133-0.137v-0.035v-0.067v-0.034v-0.068v-0.034V-295.816z M85.952-294.66
			c0-0.068,0.066-0.17,0.133-0.17s0.133,0.033,0.166,0.102v0.068v0.035v0.066v0.035l0.033,0.034v0.033c0,0.103-0.033,0.17-0.1,0.17
			c-0.066,0.034-0.166-0.033-0.166-0.103v-0.033l-0.033-0.067v-0.034v-0.035v-0.066L85.952-294.66z M86.218-293.572
			c-0.033-0.067,0.033-0.136,0.1-0.17c0.066,0,0.133,0.034,0.166,0.103v0.033l0.033,0.034v0.035v0.033l0.033,0.068v0.033v0.035
			c0.031,0.067,0,0.135-0.066,0.17c-0.066,0.033-0.133-0.035-0.166-0.103l0,0l-0.033-0.067v-0.035l-0.033-0.033v-0.066l-0.033-0.035
			V-293.572L86.218-293.572z M86.616-292.517c-0.035-0.067,0-0.135,0.066-0.17c0.064-0.034,0.164,0,0.197,0.068v0.034l0.033,0.034
			v0.033l0.033,0.035l0.035,0.033v0.068l0,0c0.031,0.067,0.031,0.17-0.035,0.204s-0.166,0-0.199-0.067v-0.035l-0.031-0.034v-0.034
			l-0.033-0.033l-0.033-0.068v-0.033L86.616-292.517z M87.178-291.531c-0.033-0.034-0.033-0.135,0.033-0.17
			c0.066-0.067,0.166-0.034,0.199,0.035l0,0l0.033,0.033l0.033,0.068v0.033l0.033,0.035l0.033,0.033l0,0
			c0.066,0.068,0.033,0.17,0,0.205c-0.066,0.033-0.166,0.033-0.199-0.035h-0.033v-0.068l-0.033-0.033l-0.033-0.035l-0.033-0.034
			l-0.033-0.032V-291.531L87.178-291.531z M87.874-290.612c-0.064-0.069-0.064-0.17,0-0.204c0.066-0.067,0.133-0.067,0.199,0l0,0
			l0.033,0.034l0.033,0.034l0.033,0.033l0.033,0.035l0.033,0.033v0.034c0.066,0.067,0.066,0.136,0,0.204
			c-0.033,0.034-0.133,0.034-0.199,0v-0.034l-0.033-0.034l-0.033-0.033l-0.033-0.035l-0.033-0.034L87.874-290.612L87.874-290.612z
			 M88.671-289.83c-0.066-0.068-0.066-0.137-0.033-0.204c0.066-0.069,0.133-0.069,0.197-0.034l0.035,0.034L88.903-290l0.031,0.033
			h0.035l0.031,0.035l0.033,0.033l0,0c0.068,0.068,0.102,0.136,0.035,0.203c-0.035,0.07-0.135,0.07-0.166,0.035H88.87l-0.033-0.035
			l-0.033-0.033l-0.033-0.034l-0.033-0.032l-0.033-0.035H88.671L88.671-289.83z M89.565-289.183
			c-0.066-0.033-0.066-0.136-0.033-0.205c0.033-0.067,0.1-0.067,0.166-0.033h0.033l0.033,0.033l0.066,0.035h0.033l0.033,0.034
			l0.033,0.032l0,0c0.066,0.035,0.098,0.104,0.066,0.17c-0.033,0.069-0.133,0.104-0.199,0.069l0,0l-0.033-0.034l-0.033-0.035h-0.066
			l-0.033-0.032l-0.033-0.034H89.565L89.565-289.183z M90.559-288.674c-0.066-0.034-0.1-0.102-0.066-0.204
			c0.033-0.067,0.1-0.103,0.166-0.067l0.033,0.034h0.033l0.033,0.033h0.066l0.033,0.034h0.033h0.033
			c0.066,0.033,0.1,0.103,0.066,0.17c-0.033,0.102-0.1,0.137-0.166,0.102h-0.033l-0.033-0.033h-0.033l-0.066-0.034h-0.033
			l-0.033-0.034H90.559L90.559-288.674z M91.62-288.333c-0.1,0-0.133-0.069-0.1-0.17c0-0.069,0.066-0.103,0.166-0.103l0.033,0.033
			h0.033h0.033l0.066,0.035h0.033h0.033c0.1,0.034,0.133,0.102,0.133,0.17c-0.033,0.067-0.1,0.137-0.166,0.102h-0.066h-0.033
			l-0.033-0.034h-0.066h-0.033L91.62-288.333z M92.68-288.129c-0.066,0-0.1-0.068-0.1-0.137c0-0.102,0.066-0.137,0.133-0.137h0.033
			h0.066h0.033h0.033h0.066h0.033l0,0c0.066,0.035,0.133,0.103,0.133,0.17c0,0.068-0.066,0.137-0.133,0.137l0,0h-0.066l-0.033-0.033
			h-0.066H92.78h-0.066H92.68z M93.807-288.095c-0.1,0-0.133-0.068-0.166-0.137c0-0.067,0.066-0.135,0.133-0.135h0.066h0.033
			l0.033-0.035h0.066h0.033h0.033c0.1,0,0.166,0.069,0.166,0.137c0,0.068-0.066,0.137-0.133,0.137H94.04l-0.066,0.033H93.94h-0.066
			h-0.033H93.807z M94.901-288.232c-0.066,0-0.166-0.033-0.166-0.101c0-0.069,0.033-0.17,0.1-0.17h0.033l0.066-0.034h0.033h0.033
			h0.066l0.033-0.035c0.066,0,0.133,0.035,0.166,0.103c0,0.103-0.033,0.17-0.1,0.17l-0.033,0.034h-0.066h-0.033h-0.066l-0.033,0.033
			H94.901L94.901-288.232z M95.962-288.537c-0.066,0.034-0.166,0-0.166-0.068c-0.033-0.068,0-0.17,0.066-0.17l0.033-0.035h0.033
			l0.033-0.033h0.033h0.066l0.033-0.034h0.033c0.066-0.034,0.133,0,0.166,0.067c0.033,0.069,0,0.171-0.066,0.171l-0.033,0.034
			h-0.066l-0.033,0.033h-0.033l-0.033,0.035H95.962L95.962-288.537z M96.956-288.98c-0.066,0.035-0.131,0-0.166-0.067
			c-0.033-0.069,0-0.136,0.068-0.171v-0.033h0.031l0.033-0.035h0.068l0.031-0.033l0.033-0.033h0.035
			c0.064-0.035,0.131-0.035,0.164,0.033s0.033,0.171-0.033,0.203h-0.033l-0.033,0.035l-0.064,0.034h-0.035l-0.033,0.034
			l-0.031,0.033H96.956z M97.919-289.593c-0.068,0.069-0.168,0.034-0.199-0.032c-0.033-0.035-0.033-0.138,0.031-0.17v-0.035h0.035
			l0.033-0.034l0.031-0.034l0.033-0.033l0.035-0.035h0.031c0.068-0.067,0.166-0.033,0.199,0c0.033,0.068,0.033,0.17-0.033,0.204
			l-0.033,0.034l-0.033,0.033l-0.031,0.035h-0.035l-0.033,0.035L97.919-289.593L97.919-289.593z M98.747-290.306
			c-0.068,0.034-0.133,0.034-0.199,0c-0.033-0.068-0.033-0.17,0-0.203l0.031-0.035l0.035-0.034l0.033-0.033l0.031-0.034l0.035-0.035
			l0.033-0.033l0,0c0.066-0.068,0.133-0.068,0.197,0c0.035,0.033,0.035,0.136,0,0.205l0,0l-0.031,0.033l-0.033,0.034l-0.033,0.034
			l-0.033,0.033l-0.035,0.035L98.747-290.306z M99.475-291.157c-0.033,0.034-0.133,0.069-0.199,0c-0.033-0.033-0.066-0.136,0-0.169
			v-0.035l0.033-0.033l0.033-0.035v-0.034l0.033-0.032l0.033-0.035v-0.034c0.066-0.067,0.133-0.067,0.199-0.034
			c0.066,0.034,0.066,0.136,0.033,0.205l0,0l-0.033,0.033l-0.033,0.068l-0.033,0.033l-0.031,0.035v0.034L99.475-291.157z
			 M100.071-292.109c-0.031,0.068-0.1,0.068-0.164,0.035c-0.066-0.035-0.1-0.103-0.066-0.17v-0.035l0.031-0.034l0.035-0.034v-0.033
			l0.033-0.068l0.031-0.033v-0.035c0.035-0.067,0.1-0.067,0.168-0.035c0.064,0.035,0.1,0.104,0.064,0.172v0.033l-0.033,0.034v0.034
			l-0.031,0.068l-0.033,0.034v0.034L100.071-292.109z M100.536-293.164c0,0.068-0.098,0.104-0.166,0.104
			c-0.066-0.035-0.1-0.137-0.066-0.205l0,0v-0.034l0.035-0.067v-0.035l0.031-0.034v-0.067l0,0c0.033-0.068,0.1-0.136,0.199-0.103
			c0.066,0.034,0.1,0.103,0.066,0.17v0.034l-0.033,0.035v0.067l-0.033,0.034v0.033v0.068H100.536L100.536-293.164z M100.868-294.252
			c-0.033,0.068-0.1,0.135-0.168,0.103c-0.064,0-0.131-0.069-0.098-0.17v-0.034v-0.035l0.033-0.033v-0.068v-0.033v-0.035v-0.033
			c0.033-0.068,0.1-0.104,0.164-0.104c0.068,0.035,0.135,0.104,0.1,0.172l0,0v0.033v0.068v0.033l-0.031,0.069v0.033V-294.252
			L100.868-294.252z M100.999-295.375c0,0.068-0.064,0.137-0.131,0.137c-0.068,0-0.133-0.068-0.133-0.17l0,0v-0.068v-0.033v-0.069
			l0.033-0.034v-0.067l0,0c0-0.068,0.066-0.136,0.131-0.136c0.068,0,0.133,0.067,0.133,0.17l0,0v0.033v0.068v0.035v0.067
			l-0.033,0.034V-295.375z M100.999-296.496c0,0.066-0.031,0.135-0.131,0.135c-0.068,0-0.133-0.068-0.133-0.135v-0.035v-0.068
			v-0.033v-0.035l-0.035-0.067v-0.032c0-0.07,0.068-0.138,0.135-0.138c0.064-0.034,0.133,0.033,0.133,0.103l0.031,0.033v0.067v0.034
			v0.068v0.034V-296.496z M100.835-297.652c0.033,0.102-0.035,0.17-0.1,0.17c-0.066,0.033-0.133-0.035-0.166-0.103v-0.034v-0.033
			l-0.033-0.035v-0.067v-0.034l-0.033-0.035v-0.033c0-0.068,0.033-0.137,0.1-0.17c0.066,0,0.166,0.033,0.166,0.102l0,0l0.031,0.068
			v0.033v0.069l0.035,0.033v0.034V-297.652z M100.536-298.742c0,0.104-0.033,0.17-0.098,0.205c-0.068,0.033-0.135-0.035-0.168-0.102
			l0,0l-0.031-0.035v-0.034l-0.035-0.034v-0.068l-0.033-0.033v-0.034c-0.031-0.067,0-0.17,0.068-0.17
			c0.064-0.034,0.164,0,0.164,0.067l0.035,0.035v0.034l0.031,0.033l0.033,0.067v0.035L100.536-298.742L100.536-298.742z
			 M100.04-299.761c0.031,0.066,0.031,0.17-0.035,0.203c-0.064,0.035-0.164,0-0.197-0.066l0,0v-0.035l-0.033-0.035l-0.033-0.032
			l-0.033-0.034v-0.068l-0.033-0.035c-0.033-0.066,0-0.136,0.033-0.168c0.066-0.07,0.164-0.035,0.199,0.032l0.033,0.034l0.031,0.035
			v0.033l0.033,0.067l0.035,0.034V-299.761L100.04-299.761z M99.442-300.715c0.033,0.068,0.033,0.17-0.033,0.205
			c-0.066,0.033-0.133,0.033-0.199-0.035v-0.034l-0.033-0.033l-0.033-0.034l-0.031-0.035l-0.035-0.033v-0.034h-0.033
			c-0.031-0.067-0.031-0.136,0.033-0.204c0.066-0.033,0.133-0.033,0.199,0.035l0,0l0.033,0.033l0.033,0.034v0.034l0.033,0.033
			l0.033,0.034L99.442-300.715z M98.714-301.566c0.033,0.07,0.033,0.172,0,0.205c-0.066,0.069-0.135,0.069-0.199,0h-0.033
			l-0.033-0.033l-0.033-0.035l-0.033-0.033l-0.033-0.033v-0.035h-0.033c-0.066-0.067-0.066-0.137,0-0.204
			c0.033-0.067,0.133-0.067,0.166,0h0.033l0.033,0.034l0.031,0.033l0.035,0.035l0.033,0.034l0.031,0.032H98.714z M97.85-302.279
			c0.068,0.033,0.068,0.136,0.033,0.203c-0.033,0.068-0.133,0.068-0.197,0.035l0,0l-0.035-0.035l-0.031-0.033l-0.033-0.034h-0.035
			l-0.064-0.033v-0.034c-0.066-0.035-0.1-0.137-0.066-0.17c0.066-0.068,0.131-0.103,0.199-0.068l0.031,0.033l0.035,0.035h0.033
			l0.031,0.033l0.035,0.034L97.85-302.279L97.85-302.279z M96.923-302.857c0.068,0.033,0.068,0.102,0.033,0.17
			c-0.033,0.068-0.098,0.103-0.166,0.068l0,0l-0.066-0.033h-0.031l-0.033-0.035h-0.035l-0.031-0.034l-0.033-0.033
			c-0.066-0.034-0.1-0.103-0.066-0.171c0.033-0.067,0.098-0.102,0.166-0.067l0.033,0.034h0.031l0.066,0.033h0.035l0.031,0.034
			l0.033,0.034H96.923z M95.895-303.3c0.066,0,0.1,0.103,0.066,0.169c0,0.07-0.1,0.104-0.166,0.07l0,0h-0.033l-0.066-0.035h-0.033
			H95.63l-0.031-0.035h-0.033c-0.1-0.032-0.133-0.1-0.1-0.169c0.033-0.067,0.1-0.136,0.164-0.103h0.033l0.033,0.035h0.066
			l0.033,0.033h0.033L95.895-303.3L95.895-303.3z M94.835-303.606c0.066,0.034,0.1,0.103,0.1,0.17c0,0.069-0.1,0.137-0.166,0.103
			h-0.033h-0.033h-0.033l-0.064-0.033h-0.035h-0.064l0,0c-0.066,0-0.102-0.069-0.102-0.17c0-0.069,0.066-0.104,0.133-0.104h0.033
			h0.035h0.031l0.066,0.034h0.033h0.066H94.835z"/>
		<path fill="#4E5A62" d="M114.19-309.592H78.362c-0.695,0-1.227,0.544-1.227,1.258v23.913c0,0.712,0.531,1.292,1.227,1.292h13.689
			v0.68c-2.055,0.307-6.266,1.259-6.266,3.571c0,0.069,0,0.136,0,0.204c0,0.067,0,0.103,0,0.172c0,0.066,0,0.135,0,0.169
			c0,0.067,0,0.103,0,0.169c0,1.532,1.857,2.417,3.049,2.823c2.057,0.749,4.475,1.021,6.664,1.056
			c0.23,0.033,0.463,0.033,0.695,0.033c2.32,0,4.938-0.271,7.16-1.02c1.191-0.408,3.281-1.293,3.281-2.893c0-0.066,0-0.102,0-0.169
			c0-0.034,0-0.103,0-0.169c0-0.069,0-0.104,0-0.172c0-0.068,0-0.135,0-0.204c0-2.313-4.211-3.265-6.266-3.571v-0.68h13.82
			c0.697,0,1.227-0.58,1.227-1.292v-23.913C115.419-309.048,114.887-309.592,114.19-309.592z M114.854-284.421
			c0,0.373-0.299,0.679-0.664,0.679H99.774v1.803c3.678,0.478,6.264,1.668,6.264,3.062c0,0.069,0,0.136,0,0.204
			c0,0.067,0,0.103,0,0.172c0,0.066,0,0.135,0,0.169c0,0.067,0,0.103,0,0.169c0,1.838-4.408,3.301-9.844,3.301
			c-0.232,0-0.463,0-0.695,0c-5.105-0.137-9.148-1.565-9.148-3.301c0-0.066,0-0.102,0.033-0.169
			c-0.033-0.034-0.033-0.103-0.033-0.169c0-0.069,0-0.104,0.033-0.172c-0.033-0.068-0.033-0.135-0.033-0.204
			c0-1.394,2.619-2.584,6.297-3.062v-1.803H78.362c-0.365,0-0.662-0.306-0.662-0.679v-23.913c0-0.375,0.297-0.681,0.662-0.681
			h35.828c0.365,0,0.664,0.306,0.664,0.681V-284.421L114.854-284.421z"/>
		<path fill="#E6E6E6" d="M72.661-311.974h10.475c1.457,0,2.65,1.226,2.65,2.723v24.659c0,1.497-1.193,2.722-2.65,2.722H72.661
			c-1.457,0-2.65-1.225-2.65-2.722v-24.659C70.01-310.749,71.204-311.974,72.661-311.974z"/>
		<path fill="#4E5A62" d="M72.893-310.135h10.043c0.994,0,1.822,0.815,1.822,1.87v21.089c0,1.054-0.828,1.87-1.822,1.87H72.893
			c-0.994,0-1.822-0.816-1.822-1.87v-21.089C71.071-309.32,71.899-310.135,72.893-310.135z"/>
		<path fill="#CCCCCC" d="M71.401-284.489h1.891c0.197,0,0.33,0.135,0.33,0.34l0,0c0,0.169-0.133,0.341-0.33,0.341h-1.891
			c-0.166,0-0.33-0.172-0.33-0.341l0,0C71.071-284.354,71.235-284.489,71.401-284.489z"/>
		<path fill="#7F8C8D" d="M77.069-284.489h2.088c0.299,0,0.531,0.237,0.531,0.544l0,0c0,0.271-0.232,0.544-0.531,0.544h-2.088
			c-0.264,0-0.529-0.272-0.529-0.544l0,0C76.54-284.252,76.805-284.489,77.069-284.489z"/>
		<path fill="#CCCCCC" d="M82.538-284.489h1.857c0.197,0,0.363,0.135,0.363,0.34l0,0c0,0.169-0.166,0.341-0.363,0.341h-1.857
			c-0.197,0-0.33-0.172-0.33-0.341l0,0C82.206-284.354,82.339-284.489,82.538-284.489z"/>
		<path fill="#FEFEFE" d="M75.214-311.463h5.402c0.199,0,0.332,0.137,0.332,0.34l0,0c0,0.205-0.133,0.34-0.332,0.34h-5.402
			c-0.199,0-0.365-0.135-0.365-0.34l0,0C74.848-311.326,75.014-311.463,75.214-311.463z"/>
		<path fill="#CCCCCC" d="M77.169-284.388h1.889c0.299,0,0.498,0.205,0.498,0.443l0,0c0,0.236-0.199,0.408-0.498,0.408h-1.889
			c-0.266,0-0.463-0.172-0.463-0.408l0,0C76.706-284.183,76.903-284.388,77.169-284.388z"/>
		<path fill="#FED5A9" d="M74.915-270.612c0.033-1.122,0.1-2.245,0.266-3.266c0.531-3.741,2.85-6.495,3.68-7.483
			c0,0,2.021-2.313,1.523-5.033c-0.463-2.416-0.895-6.395-0.695-8.674c0.266-3.231-2.121-5.238-2.686-0.544
			c-0.563,4.897-2.783,15.715-6.959,8.81v-10.715c0,0-1.26-0.204-1.99,1.769c-0.695,1.974-5.369,4.423-5.336,6.293
			c0.033,1.837,1.791,3.742,2.42,8.368c0.133,1.155,0.994,2.755,1.658,4.422C69.116-274.183,71.866-272.142,74.915-270.612z"/>
		<polygon fill="#E6E6E6" points="73.688,-306.701 82.969,-306.701 82.969,-300.341 73.688,-300.341 		"/>
		<polygon fill="#CCCCCC" points="78.329,-302.789 80.649,-304.761 82.969,-306.701 78.329,-306.701 73.688,-306.701 
			76.009,-304.761 		"/>
		<path fill="#4E5A62" d="M69.05-298.334v-10.918c0-2.041,1.623-3.708,3.611-3.708h10.475c1.988,0,3.611,1.667,3.611,3.708v24.659
			c0,2.042-1.623,3.708-3.611,3.708h-3.381c-0.066,0.068-0.1,0.136-0.166,0.205c-1.723,1.938-3.082,4.285-3.447,6.938
			c-0.166,1.157-0.266,2.348-0.266,3.573c-0.33-0.138-0.662-0.307-0.961-0.443c0.033-1.122,0.1-2.245,0.266-3.265
			c0.531-3.741,2.85-6.496,3.68-7.483c0,0,0.164-0.171,0.396-0.511h3.879c1.457,0,2.65-1.225,2.65-2.722v-24.659
			c0-1.497-1.193-2.723-2.65-2.723H72.661c-1.457,0-2.65,1.226-2.65,2.723v11.734c-0.133,0-1.293-0.067-1.957,1.769
			c-0.695,1.974-5.369,4.423-5.336,6.293c0.033,1.838,1.791,3.742,2.42,8.368c0.133,1.155,0.994,2.755,1.658,4.422
			c-0.764-0.783-1.459-1.633-2.123-2.518c-0.23-0.578-0.43-1.189-0.496-1.769c-0.232-1.803-0.695-3.333-1.359-5.001
			c-0.43-1.088-1.027-2.313-1.061-3.503c-0.033-1.632,1.988-3.196,3.082-4.15c0.598-0.511,2.057-1.733,2.32-2.481
			c0.299-0.852,0.797-1.667,1.625-2.109C68.85-298.232,68.95-298.3,69.05-298.334z"/>
	</g>
</g>
<g>
	<g>
		<path fill="#08A9D9" d="M-7.971-318.997c0-0.505-0.4-0.914-0.896-0.914H-64.32c-0.495,0-0.895,0.409-0.895,0.914v28.339h57.243
			V-318.997z"/>
		<g>
			<path fill="#08A9D9" d="M-65.187-264.132c0,0.504,0.4,0.914,0.895,0.914h55.452c0.496,0,0.896-0.41,0.896-0.914v-28.337h-57.243
				V-264.132z"/>
		</g>
	</g>
	<g>
		<path fill="#F4F4F4" d="M-36.566-312.658c-12.119,0-21.947,9.853-21.947,22.003c0,12.147,9.828,21.997,21.947,21.997
			c12.122,0,21.948-9.85,21.948-21.997C-14.618-302.805-24.445-312.658-36.566-312.658z M-36.617-310.048
			c4.971,0,9.486,1.886,12.917,4.961c-1.439,0.598-2.349,2.338-1.102,5.041c0.689,1.496,3.6,4.117,2.477,7.572l-5.162,13.048
			l-5.21-14.443c-0.17-0.419-0.254-0.867-0.254-1.339c0-0.698,0.303-1.231,0.904-1.6c0.602-0.367,1.447-0.551,2.53-0.551h0.89v-1.3
			h-13.968v1.301c0.662,0,1.271,0.091,1.733,0.272c0.466,0.178,0.914,0.498,1.351,0.955c0.493,0.472,0.899,0.996,1.217,1.572
			c0.32,0.58,0.489,1.112,0.91,2.344l-5.153,12.817l-5.129-14.399c-0.217-0.639-0.324-1.247-0.324-1.826
			c0-0.592,0.267-0.995,0.748-1.303c0.367-0.233,0.531-0.576,1.604-0.588l-0.019-1.146l-8.625,0.017
			C-51.238-305.364-44.476-310.048-36.617-310.048z M-56.007-290.655c0-2.072,0.333-4.063,0.934-5.936
			c0.189,0.138,0.383,0.269,0.558,0.445c0.795,0.805,1.512,2.121,2.149,3.941l6.854,18.763
			C-51.741-276.666-56.007-283.156-56.007-290.655z M-44.131-272.779l7.293-18.25l6.82,18.586c-2.062,0.748-4.279,1.176-6.602,1.176
			C-39.282-271.267-41.822-271.806-44.131-272.779z M-29.028-272.81l7.699-19.575c0.592-1.473,1.789-4.521,2.26-6.472
			c1.17,2.494,1.84,5.267,1.84,8.202C-17.23-282.642-22.092-275.763-29.028-272.81z"/>
		<g>
			<path fill="#F4F4F4" d="M-17.23-290.658c0,0.001,0,0.002,0,0.003c0,8.013-4.862,14.892-11.798,17.845l7.019-17.848h-1.033
				l-4.445,11.232l-4.052-11.232h-5.161l6.685,18.215c-2.063,0.748-4.279,1.176-6.601,1.176c-2.664,0-5.203-0.539-7.514-1.512
				l7.145-17.879h-1.024l-4.528,11.262l-4.013-11.262h-5.251l6.29,17.217c-6.229-3.225-10.495-9.715-10.495-17.214
				c0-0.001,0-0.002,0-0.003h-2.506c0,0.001,0,0.002,0,0.003c0,12.147,9.828,21.997,21.947,21.997
				c12.122,0,21.948-9.85,21.948-21.997c0-0.001,0-0.002,0-0.003H-17.23z"/>
		</g>
	</g>
</g>
<g>
	<polyline fill="#B0B0B0" points="-190.092,-263.216 -133.398,-263.216 -133.398,-319.911 -190.092,-319.911 -190.092,-263.216 	"/>
	<polyline fill="#FFFFFF" points="-161.899,-306.069 -175.586,-301.252 -173.423,-283.32 -161.885,-276.978 -150.287,-283.406 
		-148.125,-301.337 -161.899,-306.069 	"/>
	<polyline fill="#999999" points="-149.49,-300.302 -161.931,-304.544 -161.931,-278.493 -151.506,-284.264 -149.49,-300.302 	"/>
	<polyline fill="#B0B0B0" points="-174.05,-300.224 -172.197,-284.187 -161.931,-278.493 -161.931,-304.544 -174.05,-300.224 	"/>
	<path fill="#FFFFFF" d="M-158.838-291.483l-3.071-6.078l-2.519,5.975h2.497L-158.838-291.483 M-158.507-290.676l-3.424,1.602
		h-3.609l-1.697,4.243l-3.156,0.059l8.463-18.826L-158.507-290.676z"/>
	<polyline fill="#FFFFFF" points="-161.931,-303.598 -161.908,-297.561 -159.051,-291.583 -161.925,-291.583 -161.931,-289.078 
		-157.957,-289.074 -156.098,-284.771 -153.08,-284.716 -161.931,-303.598 	"/>
</g>
<g>
	<g>
		<polyline fill="#FBAB18" points="185.163,-263.083 242.341,-263.083 242.341,-319.911 185.163,-319.911 185.163,-263.083 		"/>
	</g>
	<g>
		<path fill="#E78724" d="M211.602-292.7c0.004-0.01,0.007-0.018,0.01-0.025c-0.003,0-0.007,0-0.012,0
			C211.601-292.718,211.601-292.708,211.602-292.7z"/>
		<path fill="#FBA919" d="M208.185-300.917c-0.021-0.059-0.048-0.125-0.077-0.193c0.035,0.119,0.049,0.197,0.049,0.197
			L208.185-300.917z"/>
		<path fill="#FFFFFF" d="M208.139-294.903c-0.012,0.078-0.02,0.158-0.024,0.242c0.02,0.168,0.157,0.975,0.995,1.254
			c0.663,0.221,1.255-0.014,1.338-0.047c-0.302-0.363-0.753-0.764-1.28-1.141c-0.301-0.217-0.624-0.424-0.958-0.611
			C208.181-295.118,208.157-295.016,208.139-294.903z"/>
		<path fill="#FFFFFF" d="M205.26-288.091c-0.003,0.002-0.004,0.004-0.006,0.006c0.001,0.002,0.002,0.004,0.002,0.008
			C205.259-288.085,205.26-288.091,205.26-288.091z"/>
		<path fill="#FFFFFF" d="M205.062-286.569c-0.066,1.871,0.796,3.033,2.002,3.531c0.369,0.152,0.771,0.242,1.188,0.271
			c0.03-0.309,0.147-0.574,0.354-0.797c0.021-0.023,0.046-0.047,0.07-0.068c0.101-0.131,0.237-0.32,0.387-0.555
			c-0.642-0.027-1.375-0.145-2.049-0.42C206.162-284.956,205.409-285.565,205.062-286.569z"/>
		<path fill="#E78724" d="M215.891-292.725c0.004,0.008,0.008,0.016,0.012,0.025c0-0.008,0-0.016,0-0.025
			C215.899-292.725,215.895-292.725,215.891-292.725z"/>
		<g>
			<path fill="#FBA919" d="M205.841-294.63c-0.134,0.988-0.484,1.416-0.697,1.59c0.528,0.588,1.869,1.051,1.869,1.051
				c0.976,0.357,1.104,1.486,1.138,2.389c0.198-0.43,0.367-1.08,0.367-1.08s0.051,1.869-0.091,3.146
				c-0.104,0.932-0.398,1.943-0.541,2.379c0.257,0.064,0.521,0.107,0.785,0.139c0.828-1.225,1.903-2.863,2.227-3.355
				c0.13-0.291,0.246-0.533,0.328-0.668c-0.295,2.115-0.95,3.996-1.274,4.857c0.189-0.025,0.396-0.045,0.636-0.045
				c0,0,2.251,0,3.162-0.002h0.008l3.161,0.002c0.24,0,0.446,0.02,0.636,0.045c-0.324-0.861-0.979-2.742-1.275-4.857
				c0.084,0.137,0.2,0.379,0.33,0.668c0.323,0.494,1.397,2.131,2.226,3.355c0.264-0.031,0.528-0.074,0.786-0.139
				c-0.145-0.436-0.438-1.447-0.543-2.379c-0.141-1.277-0.089-3.146-0.089-3.146s0.168,0.65,0.366,1.08
				c0.034-0.902,0.162-2.031,1.139-2.389c0,0,1.34-0.463,1.867-1.051c-0.213-0.174-0.563-0.602-0.696-1.59
				c-0.12-0.891-0.007-1.707,0.102-2.209c0.043-0.537,0.144-1.096,0.274-1.381c-0.01,0.264,0,0.527,0.018,0.779
				c0.021-0.045,0.045-0.086,0.07-0.119c0.174-0.217,0.641-0.947,0.506-1.439c-0.051-0.188-0.169-0.326-0.361-0.426
				c-0.203-0.104-0.479-0.156-0.816-0.156c-0.664,0-1.402,0.203-1.782,0.324c-1.359,0.43-2.999,1.672-3.47,2.043
				c-0.014,0.01-0.021,0.016-0.023,0.018l-0.301,0.209l0.188-0.316c0.005-0.006,0.137-0.221,0.383-0.529
				c0.345-0.877,1.044-2.031,1.044-2.031s0.145-0.402-0.046-0.922c-1.086-0.467-2.326-0.705-3.696-0.707
				c-1.369,0.002-2.609,0.24-3.695,0.707c-0.19,0.52-0.046,0.922-0.046,0.922s0.699,1.152,1.044,2.031
				c0.247,0.309,0.378,0.523,0.382,0.529l0.188,0.316l-0.3-0.209c-0.002-0.002-0.01-0.008-0.022-0.018
				c-0.471-0.371-2.111-1.613-3.471-2.043c-0.38-0.121-1.117-0.324-1.782-0.324c-0.338,0-0.613,0.053-0.816,0.156
				c-0.192,0.1-0.311,0.238-0.361,0.426c-0.135,0.492,0.332,1.223,0.507,1.439c0.025,0.033,0.048,0.074,0.069,0.119
				c0.018-0.252,0.026-0.516,0.018-0.779c0.131,0.283,0.231,0.842,0.274,1.379C205.846-296.339,205.962-295.522,205.841-294.63z
				 M216.065-294.19c0.24-0.227,0.435-0.596,0.629-0.873c0.611-0.869,1.621-1.248,2.427-1.311c1.374-0.107,2.026,0.379,2.026,0.379
				s-0.021,0-0.053,0.002c0.029,0.008,0.059,0.01,0.088,0.018c-0.234,0.051-0.48,0.129-0.73,0.225c0.001,0,0.002,0,0.004,0
				c0.223,0.098,0.346,0.373,0.377,0.643c0.063,0.543-0.282,1.035-0.282,1.035c-0.036-0.404-0.121-0.691-0.22-0.898
				c-0.001,0.021-0.001,0.043-0.002,0.063c0.007,0.018,0.02,0.031,0.02,0.053c0,0.553-0.158,2.527-1.699,3.082
				c-0.588,0.211-1.072,0.197-1.447,0.1c0.093,0.932,0.453,1.313,0.453,1.313s-0.672-0.215-1.016-0.643
				c0.008,0.025,0.014,0.041,0.014,0.041s-0.797-0.904-0.75-1.736c-0.004-0.01-0.008-0.018-0.012-0.025
				c-0.582-0.029-1.15-0.457-1.135-1.055c0,0,0.098,0.053,0.259,0.096C215.337-293.673,215.689-293.833,216.065-294.19z
				 M213.753-296.157c0.537,0,1.237-0.014,1.763-0.393c0,0-0.19,0.334-0.527,0.65c-0.286,0.283-0.778,0.697-1.231,0.701v0.002
				c-0.002,0-0.003-0.002-0.004-0.002c-0.002,0-0.003,0.002-0.004,0.002v-0.002c-0.455-0.004-0.948-0.42-1.233-0.703
				c-0.336-0.316-0.526-0.648-0.526-0.648C212.515-296.171,213.216-296.157,213.753-296.157z M206.357-295.995
				c0,0,0.652-0.486,2.026-0.379c0.806,0.063,1.815,0.441,2.427,1.311c0.194,0.277,0.389,0.646,0.628,0.873
				c0.378,0.357,0.73,0.518,1.051,0.506c0.161-0.043,0.259-0.096,0.259-0.096c0.016,0.598-0.553,1.025-1.136,1.055
				c-0.003,0.008-0.006,0.016-0.01,0.025c0.046,0.83-0.751,1.736-0.751,1.736s0.005-0.014,0.013-0.037
				c-0.345,0.426-1.016,0.639-1.016,0.639s0.361-0.381,0.454-1.313c-0.374,0.098-0.858,0.111-1.447-0.1
				c-1.541-0.555-1.699-2.529-1.699-3.082c0-0.021,0.013-0.035,0.02-0.051c-0.001-0.021-0.001-0.043-0.002-0.063
				c-0.099,0.205-0.185,0.492-0.22,0.896c0,0-0.345-0.492-0.282-1.035c0.03-0.27,0.155-0.545,0.377-0.643c0.001,0,0.003,0,0.004,0
				c-0.25-0.096-0.496-0.174-0.731-0.225c0.03-0.008,0.059-0.01,0.089-0.018C206.38-295.995,206.357-295.995,206.357-295.995z"/>
			<path fill="#FBA919" d="M209.389-279.716c-0.264-0.393-0.48-0.816-0.667-1.252c-0.344-0.027-0.682-0.066-1.007-0.129
				C208.066-280.579,208.607-280.034,209.389-279.716z"/>
			<path fill="#FBA919" d="M218.782-280.968c-0.188,0.436-0.403,0.859-0.666,1.252c0.781-0.318,1.321-0.863,1.672-1.379
				C219.463-281.034,219.126-280.995,218.782-280.968z"/>
			<path fill="#FBA919" d="M213.753-279.54c3.209-0.004,4.297-1.633,4.297-1.633l-0.109,0.268c0.191-0.377,0.32-0.725,0.41-0.982
				c0.197-0.568,0.182-0.988-0.047-1.248c-0.156-0.18-0.516-0.393-1.334-0.393h-0.855c-0.631,0-1.424-0.002-2.361-0.002
				c-0.938,0-1.73,0.002-2.362,0.002h-0.855c-0.818,0-1.178,0.213-1.334,0.393c-0.229,0.26-0.244,0.68-0.046,1.248
				c0.089,0.258,0.217,0.605,0.409,0.982l-0.11-0.268C209.454-281.173,210.542-279.544,213.753-279.54z M215.011-282.552
				c0.093-0.096,0.254-0.145,0.479-0.145h0.348c0.361,0,0.784,0,1.035,0h0.211c0.297,0,0.443,0.086,0.513,0.156
				s0.095,0.158,0.086,0.264h0.015c0,0-0.297,1.809-1.481,1.809c-1.007,0-1.304-1.529-1.304-1.844h0.021
				C214.927-282.387,214.937-282.475,215.011-282.552z M209.821-282.276c-0.009-0.105,0.017-0.193,0.085-0.264
				c0.071-0.07,0.217-0.156,0.514-0.156h0.211c0.251,0,0.674,0,1.036,0h0.347c0.226,0,0.387,0.049,0.479,0.145
				c0.074,0.076,0.085,0.164,0.076,0.24h0.022c0,0.314-0.297,1.844-1.304,1.844c-1.185,0-1.481-1.809-1.481-1.809H209.821z"/>
			<path fill="#FBA919" d="M209.639-301.577c-0.33-0.486-1.077-1.432-2.046-1.744c-0.306-0.1-0.628-0.15-0.957-0.15
				c-0.596,0-1.08,0.164-1.337,0.273c0.164,0.074,0.341,0.174,0.517,0.291c0.132-0.023,0.304-0.045,0.506-0.045
				c0.569,0,1.107,0.166,1.558,0.482c0.668,0.471,0.977,0.916,1.118,1.211c0.119-0.068,0.246-0.135,0.382-0.203
				C209.465-301.503,209.552-301.538,209.639-301.577z"/>
			<path fill="#FBA919" d="M219.911-303.321c-0.969,0.313-1.715,1.26-2.045,1.744c0.086,0.039,0.174,0.076,0.258,0.115
				c0.137,0.068,0.264,0.135,0.383,0.203c0.143-0.295,0.451-0.74,1.119-1.211c0.449-0.316,0.987-0.482,1.557-0.482
				c0.201,0,0.375,0.021,0.506,0.045c0.176-0.117,0.354-0.217,0.517-0.291c-0.257-0.109-0.74-0.271-1.337-0.271
				C220.538-303.469,220.218-303.421,219.911-303.321z"/>
		</g>
		<path fill="#FBA919" d="M219.394-301.104c-0.028,0.066-0.054,0.129-0.074,0.188l0.027,0.004
			C219.347-300.913,219.36-300.989,219.394-301.104z"/>
		<path fill="#FFFFFF" d="M218.337-294.594c-0.527,0.377-0.979,0.777-1.28,1.141c0.083,0.033,0.675,0.268,1.338,0.047
			c0.837-0.279,0.976-1.084,0.995-1.252c-0.005-0.086-0.013-0.166-0.025-0.244c-0.017-0.113-0.041-0.215-0.07-0.303
			C218.962-295.018,218.637-294.809,218.337-294.594z"/>
		<g>
			<path fill="#E78724" d="M209.499-284.958c0.11-0.223,0.213-0.461,0.298-0.711c0.028-0.082,0.65-1.697,1.101-2.703
				c-0.323,0.492-1.398,2.131-2.227,3.355C208.951-284.983,209.23-284.964,209.499-284.958z"/>
			<path fill="#E78724" d="M208.246-300.733c-0.015-0.049-0.034-0.109-0.061-0.184l-0.028,0.004c0,0-0.014-0.078-0.049-0.197
				c-0.122-0.281-0.313-0.619-0.597-0.844c-0.3-0.24-0.659-0.363-1.065-0.377c0.045,0.057,0.095,0.109,0.135,0.172
				c0.18,0.283,0.209,0.631,0.237,0.965c0.028,0.35,0.059,0.68,0.24,0.92c0.225,0.043,0.435,0.094,0.618,0.145
				C207.799-300.3,207.982-300.509,208.246-300.733z"/>
			<path fill="#E78724" d="M210.995-292.331c-0.049-0.172-0.106-0.328-0.162-0.461c0-0.002,0-0.002,0-0.002
				c-0.001,0.002-0.002,0.002-0.003,0.002c-0.098,0.088-0.198,0.158-0.303,0.215c-1.02,0.561-2.326-0.168-2.664-0.543
				c-0.5-0.555-0.655-1.24-0.688-1.787c-0.007,0.016-0.02,0.029-0.02,0.051c0,0.553,0.158,2.527,1.699,3.082
				c0.589,0.211,1.073,0.197,1.447,0.1c-0.093,0.932-0.454,1.313-0.454,1.313s0.671-0.213,1.016-0.639
				c0.046-0.135,0.19-0.604,0.172-1.035C211.032-292.137,211.021-292.237,210.995-292.331z"/>
			<path fill="#E78724" d="M210.825-294.255c0.624,0.717,1.305,0.668,1.664,0.57c-0.32,0.012-0.673-0.148-1.051-0.506
				c-0.239-0.227-0.434-0.596-0.628-0.873c-0.611-0.869-1.621-1.248-2.427-1.311c-1.374-0.107-2.026,0.379-2.026,0.379
				s0.022,0,0.053,0.002C208.653-296.483,210.304-294.852,210.825-294.255z"/>
			<path fill="#E78724" d="M206.047-291.536c0.154,0.084,0.309,0.168,0.456,0.252c0.47,0.27,0.976,0.906,1.032,1.852
				c0.012,0.195,0.015,0.459,0.011,0.764c-0.001,0.043-0.001,0.088-0.002,0.135c-0.009,0.455-0.032,0.992-0.064,1.541
				c-0.016,0.258-0.033,0.518-0.053,0.773c-0.023,0.311-0.05,0.613-0.076,0.895c0.173,0.068,0.353,0.123,0.535,0.17
				c0.143-0.436,0.438-1.447,0.541-2.379c0.142-1.277,0.091-3.146,0.091-3.146s-0.169,0.65-0.367,1.08
				c-0.034-0.902-0.162-2.031-1.138-2.389c0,0-1.341-0.463-1.869-1.051c0.213-0.174,0.563-0.602,0.697-1.59
				c0.121-0.893,0.006-1.709-0.102-2.211c0.029,0.355,0.033,0.701,0.003,0.951c-0.165,1.346-0.659,2.129-0.807,2.34
				c-0.027,0.037-0.046,0.063-0.046,0.063c0.043-0.086,0.096-0.418,0.146-0.809c-0.039,0.035-0.079,0.066-0.118,0.098l-0.026,0.021
				c-0.03,0.025-0.061,0.051-0.091,0.074c-0.211,0.178-0.39,0.389-0.39,0.914C204.41-292.421,205.242-291.969,206.047-291.536z"/>
			<path fill="#E78724" d="M210.056-300.786c-0.111,0.049-0.223,0.096-0.33,0.148c-0.774,0.377-1.062,0.66-1.17,0.816
				c1.194,0.531,2.044,1.42,2.498,1.988c-0.345-0.879-1.044-2.031-1.044-2.031S209.866-300.266,210.056-300.786z"/>
			<path fill="#E78724" d="M211.288-280.468c1.007,0,1.304-1.529,1.304-1.844h-0.022c-0.005,0.045-0.016,0.09-0.028,0.119
				c-0.058,0.145-0.299,0.613-0.705,1.049c-0.146,0.154-0.358,0.242-0.598,0.242c-0.233,0-0.472-0.086-0.637-0.229
				c-0.126-0.109-0.554-0.502-0.743-0.982c-0.022-0.061-0.033-0.113-0.037-0.164h-0.015
				C209.806-282.276,210.103-280.468,211.288-280.468z"/>
			<path fill="#E78724" d="M217.708-285.669c0.084,0.25,0.188,0.488,0.297,0.711c0.27-0.006,0.549-0.025,0.829-0.059
				c-0.828-1.225-1.902-2.861-2.226-3.355C217.057-287.366,217.678-285.751,217.708-285.669z"/>
			<path fill="#E78724" d="M220.925-302.159c0.04-0.063,0.09-0.115,0.135-0.172c-0.406,0.014-0.766,0.137-1.066,0.377
				c-0.285,0.227-0.477,0.566-0.599,0.85c-0.034,0.115-0.047,0.191-0.047,0.191l-0.027-0.004c-0.027,0.074-0.046,0.135-0.062,0.186
				c0.264,0.225,0.447,0.432,0.568,0.602c0.185-0.051,0.395-0.102,0.619-0.145c0.182-0.24,0.211-0.57,0.24-0.92
				C220.716-301.528,220.745-301.876,220.925-302.159z"/>
			<path fill="#E78724" d="M216.977-292.577c-0.104-0.057-0.206-0.127-0.304-0.215c-0.001,0-0.001,0-0.002-0.002
				c0,0,0,0-0.001,0.002c-0.055,0.133-0.113,0.289-0.161,0.461c-0.026,0.094-0.036,0.193-0.041,0.295
				c-0.019,0.43,0.124,0.895,0.171,1.031c0.344,0.428,1.016,0.643,1.016,0.643s-0.36-0.381-0.453-1.313
				c0.375,0.098,0.859,0.111,1.447-0.1c1.541-0.555,1.699-2.529,1.699-3.082c0-0.021-0.013-0.035-0.02-0.053
				c-0.032,0.549-0.188,1.234-0.688,1.789C219.303-292.745,217.997-292.016,216.977-292.577z"/>
			<path fill="#E78724" d="M216.68-294.255c0.52-0.598,2.172-2.229,4.414-1.738c0.031-0.002,0.053-0.002,0.053-0.002
				s-0.652-0.486-2.026-0.379c-0.806,0.063-1.815,0.441-2.427,1.311c-0.194,0.277-0.389,0.646-0.629,0.873
				c-0.376,0.357-0.729,0.518-1.05,0.506C215.375-293.587,216.055-293.538,216.68-294.255z"/>
			<path fill="#E78724" d="M217.94-280.905l0.109-0.268c0,0-1.088,1.629-4.297,1.633c-3.211-0.004-4.299-1.633-4.299-1.633
				l0.11,0.268c0.574,1.127,1.729,2.518,4.183,2.523c0.002,0,0.003,0,0.006,0c0.002,0,0.004,0,0.005,0
				C216.212-278.387,217.365-279.776,217.94-280.905z"/>
			<path fill="#E78724" d="M217.494-299.864c0,0-0.699,1.154-1.044,2.031c0.454-0.568,1.303-1.457,2.496-1.988
				c-0.106-0.154-0.395-0.439-1.169-0.816c-0.106-0.053-0.218-0.1-0.329-0.148C217.638-300.266,217.494-299.864,217.494-299.864z"/>
			<path fill="#E78724" d="M216.217-280.468c1.185,0,1.481-1.809,1.481-1.809h-0.015c-0.005,0.051-0.015,0.104-0.038,0.164
				c-0.188,0.48-0.615,0.873-0.742,0.982c-0.166,0.143-0.403,0.229-0.637,0.229c-0.239,0-0.451-0.088-0.598-0.242l0,0
				c-0.406-0.436-0.648-0.904-0.705-1.049c-0.014-0.029-0.023-0.074-0.029-0.119h-0.021
				C214.913-281.997,215.21-280.468,216.217-280.468z"/>
			<path fill="#E78724" d="M221.664-294.63c0.134,0.988,0.483,1.416,0.696,1.59c-0.527,0.588-1.867,1.051-1.867,1.051
				c-0.977,0.357-1.104,1.486-1.139,2.389c-0.198-0.43-0.366-1.08-0.366-1.08s-0.052,1.869,0.089,3.146
				c0.104,0.932,0.398,1.943,0.543,2.379c0.183-0.047,0.361-0.102,0.535-0.17c-0.027-0.281-0.055-0.584-0.078-0.893
				c-0.063-0.855-0.109-1.762-0.118-2.451c-0.004-0.305-0.001-0.568,0.011-0.764c0.057-0.945,0.563-1.582,1.033-1.852
				c0.146-0.084,0.301-0.168,0.455-0.252c0.805-0.434,1.637-0.885,1.637-1.652c0-0.525-0.179-0.736-0.389-0.912
				c-0.03-0.025-0.061-0.051-0.092-0.076l-0.027-0.021c-0.037-0.031-0.078-0.064-0.117-0.098c0.05,0.391,0.103,0.723,0.145,0.809
				c0,0-0.019-0.025-0.045-0.063c-0.146-0.209-0.641-0.994-0.807-2.34c-0.029-0.248-0.025-0.594,0.003-0.949
				C221.657-296.337,221.544-295.52,221.664-294.63z"/>
			<path fill="#E78724" d="M212.515-295.901c-0.148-0.148-0.242-0.262-0.242-0.262c0.539,0.326,1.02,0.439,1.479,0.449
				c0.459-0.01,0.939-0.123,1.479-0.449c0,0-0.094,0.113-0.243,0.264c0.337-0.316,0.527-0.65,0.527-0.65
				c-0.525,0.379-1.226,0.393-1.763,0.393s-1.237-0.014-1.764-0.393C211.989-296.55,212.179-296.218,212.515-295.901z"/>
		</g>
		<path fill="#463014" d="M213.753-295.714c-0.46-0.01-0.94-0.123-1.479-0.449c0,0,0.094,0.113,0.242,0.262
			c0.285,0.283,0.778,0.699,1.233,0.703v0.002c0.001,0,0.002-0.002,0.004-0.002c0.001,0,0.002,0.002,0.004,0.002v-0.002
			c0.453-0.004,0.945-0.418,1.231-0.701c0.149-0.15,0.243-0.264,0.243-0.264C214.692-295.837,214.212-295.723,213.753-295.714z"/>
		<path fill="#FFFFFF" d="M220.757-284.727c-0.743,0.363-1.588,0.51-2.314,0.541c0.148,0.232,0.285,0.422,0.386,0.553
			c0.024,0.023,0.05,0.047,0.071,0.07c0.206,0.223,0.323,0.488,0.354,0.797c0.475-0.033,0.928-0.148,1.338-0.342
			c1.125-0.529,1.914-1.668,1.851-3.461C222.132-285.671,221.497-285.091,220.757-284.727z"/>
		<path fill="#FFFFFF" d="M222.245-288.091c0,0,0.001,0.006,0.003,0.014c0-0.004,0.001-0.006,0.002-0.008
			C222.248-288.087,222.247-288.089,222.245-288.091z"/>
		<g>
			<path fill="#C9C9C9" d="M209.11-293.407c-0.838-0.279-0.976-1.086-0.995-1.254c-0.028,0.492,0.073,1.076,0.47,1.371
				c0.882,0.656,1.745,0.27,2.057,0.09l-0.001-0.002c-0.054-0.08-0.12-0.166-0.192-0.252
				C210.365-293.421,209.773-293.186,209.11-293.407z"/>
			<path fill="#C9C9C9" d="M205.062-286.569c-0.009-0.027-0.021-0.051-0.029-0.078c-0.271,0.271-0.455,2.119,0.202,3.201
				c0.295,0.484,0.722,0.85,1.211,1.113c0.241,0.131,0.496,0.238,0.762,0.316c0.013,0.004,0.025,0.01,0.038,0.014
				c0.175,0.049,0.353,0.086,0.531,0.113c0.202,0.031,0.405,0.045,0.607,0.047c-0.033-0.1-0.061-0.197-0.082-0.291
				c-0.051-0.227-0.07-0.439-0.051-0.633c-0.417-0.029-0.818-0.119-1.188-0.271C205.858-283.536,204.996-284.698,205.062-286.569z"
				/>
			<path fill="#C9C9C9" d="M218.394-293.407c-0.663,0.221-1.255-0.014-1.338-0.047c-0.073,0.086-0.139,0.172-0.192,0.252
				l-0.001,0.002c0.31,0.18,1.174,0.566,2.057-0.09c0.396-0.295,0.497-0.877,0.47-1.369
				C219.37-294.491,219.231-293.686,218.394-293.407z"/>
			<path fill="#C9C9C9" d="M220.591-283.108c-0.41,0.193-0.863,0.309-1.338,0.342c0.02,0.193,0,0.406-0.051,0.633
				c-0.021,0.094-0.049,0.191-0.082,0.291c0.202-0.002,0.405-0.016,0.607-0.047c0.179-0.027,0.355-0.064,0.53-0.113
				c0.056-0.016,0.108-0.039,0.161-0.057c0.223-0.072,0.436-0.164,0.64-0.273c0.489-0.264,0.917-0.629,1.211-1.113
				c0.657-1.082,0.474-2.93,0.202-3.201c-0.009,0.029-0.021,0.053-0.03,0.078C222.505-284.776,221.716-283.637,220.591-283.108z"/>
		</g>
		<g>
			<path fill="#463014" d="M207.052-295.751c-0.001,0-0.003,0-0.004,0c-0.222,0.098-0.347,0.373-0.377,0.643
				c-0.063,0.543,0.282,1.035,0.282,1.035c0.035-0.404,0.121-0.691,0.22-0.896c0.001,0.02,0.001,0.041,0.002,0.063
				c0.032,0.547,0.188,1.232,0.688,1.787c0.338,0.375,1.645,1.104,2.664,0.543c0.104-0.057,0.205-0.127,0.303-0.215
				c0.001,0,0.002,0,0.003-0.002c0,0,0,0,0,0.002c0.056,0.133,0.113,0.289,0.162,0.461c0.026,0.094,0.037,0.193,0.041,0.295
				c0.019,0.432-0.126,0.9-0.172,1.035c-0.008,0.023-0.013,0.037-0.013,0.037s0.797-0.906,0.751-1.736
				c-0.001-0.008-0.001-0.018-0.002-0.025c0.005,0,0.009,0,0.012,0c0.583-0.029,1.151-0.457,1.136-1.055
				c0,0-0.098,0.053-0.259,0.096c-0.359,0.098-1.04,0.146-1.664-0.57c-0.521-0.598-2.172-2.229-4.415-1.738
				c-0.03,0.008-0.059,0.01-0.089,0.018C206.556-295.925,206.802-295.846,207.052-295.751z M210.448-293.454
				c0.072,0.086,0.139,0.172,0.192,0.252l0.001,0.002c-0.312,0.18-1.175,0.566-2.057-0.09c-0.396-0.295-0.498-0.879-0.47-1.371
				c0.005-0.084,0.013-0.164,0.024-0.242c0.018-0.113,0.042-0.215,0.07-0.303c0.334,0.188,0.657,0.395,0.958,0.611
				C209.695-294.218,210.146-293.817,210.448-293.454z"/>
			<path fill="#463014" d="M210.601-281.13c0.165,0.143,0.403,0.229,0.637,0.229c0.239,0,0.452-0.088,0.598-0.242
				c0.406-0.436,0.647-0.904,0.705-1.049c0.013-0.029,0.023-0.074,0.028-0.119c0.009-0.076-0.002-0.164-0.076-0.24
				c-0.093-0.096-0.254-0.145-0.479-0.145h-0.347c-0.362,0-0.785,0-1.036,0h-0.211c-0.297,0-0.442,0.086-0.514,0.156
				c-0.068,0.07-0.094,0.158-0.085,0.264c0.004,0.051,0.015,0.104,0.037,0.164C210.048-281.632,210.475-281.239,210.601-281.13z"/>
			<path fill="#463014" d="M216.68-294.255c-0.625,0.717-1.306,0.668-1.665,0.57c-0.161-0.043-0.259-0.096-0.259-0.096
				c-0.016,0.598,0.553,1.025,1.135,1.055c0.004,0,0.008,0,0.012,0c0,0.01,0,0.018,0,0.025c-0.047,0.832,0.75,1.736,0.75,1.736
				s-0.006-0.016-0.014-0.041c-0.047-0.137-0.189-0.602-0.171-1.031c0.005-0.102,0.015-0.201,0.041-0.295
				c0.048-0.172,0.106-0.328,0.161-0.461c0.001-0.002,0.001-0.002,0.001-0.002c0.001,0.002,0.001,0.002,0.002,0.002
				c0.098,0.088,0.199,0.158,0.304,0.215c1.02,0.561,2.326-0.168,2.663-0.543c0.501-0.555,0.656-1.24,0.688-1.789
				c0.001-0.02,0.001-0.041,0.002-0.063c0.099,0.207,0.184,0.494,0.22,0.898c0,0,0.345-0.492,0.282-1.035
				c-0.031-0.27-0.154-0.545-0.377-0.643c-0.002,0-0.003,0-0.004,0c0.25-0.096,0.496-0.174,0.73-0.225
				c-0.029-0.008-0.059-0.01-0.088-0.018C218.852-296.483,217.2-294.852,216.68-294.255z M219.389-294.659
				c0.027,0.492-0.074,1.074-0.47,1.369c-0.883,0.656-1.747,0.27-2.057,0.09l0.001-0.002c0.054-0.08,0.119-0.166,0.192-0.252
				c0.301-0.363,0.753-0.764,1.28-1.141c0.301-0.215,0.625-0.424,0.957-0.611c0.029,0.088,0.054,0.189,0.07,0.303
				C219.377-294.825,219.385-294.745,219.389-294.659z"/>
			<path fill="#463014" d="M215.669-281.143L215.669-281.143c0.146,0.154,0.358,0.242,0.598,0.242c0.233,0,0.471-0.086,0.637-0.229
				c0.127-0.109,0.554-0.502,0.742-0.982c0.023-0.061,0.033-0.113,0.038-0.164c0.009-0.105-0.017-0.193-0.086-0.264
				s-0.216-0.156-0.513-0.156h-0.211c-0.251,0-0.674,0-1.035,0h-0.348c-0.226,0-0.387,0.049-0.479,0.145
				c-0.074,0.076-0.085,0.164-0.077,0.24c0.006,0.045,0.016,0.09,0.029,0.119C215.02-282.048,215.262-281.579,215.669-281.143z"/>
			<path fill="#463014" d="M222.269-288.178c-0.005,0.033-0.015,0.063-0.02,0.094c-0.001,0.002-0.002,0.004-0.002,0.008
				c-0.155,0.926-0.708,1.746-1.312,2.264c-0.164-1.23-0.199-3.002-0.199-3.375c0-0.795,0.514-1.328,0.66-1.412
				c0.137-0.078,0.291-0.16,0.451-0.246c0.975-0.523,2.188-1.172,2.188-2.369c0-0.875-0.502-1.256-0.836-1.508
				c-0.041-0.031-0.08-0.061-0.116-0.088c-0.112-0.092-0.202-0.164-0.234-0.238c-0.235-0.529-0.192-1.854-0.091-2.035
				c0.031-0.035,0.906-1.135,0.638-2.121c-0.11-0.402-0.374-0.721-0.765-0.922c-0.287-0.146-0.645-0.225-1.059-0.24
				c-0.004-0.107-0.026-0.215-0.049-0.32c-0.031-0.143-0.063-0.287-0.05-0.438c0.022-0.252,0.042-0.49,0.117-0.609
				c0.458-0.723,1.563-0.953,1.573-0.955l0.664-0.131l-0.439-0.514c-0.008-0.01-0.937-0.947-2.508-0.947
				c-0.429,0-0.867,0.072-1.305,0.213c-1.315,0.424-2.326,1.658-2.675,2.129c-0.169-0.051-0.339-0.1-0.513-0.143
				c-0.231-0.855,0.48-2.088,0.48-2.088s-0.734-0.164-1.822,0.824c-0.142-0.352-0.438-1.111-0.096-2.016
				c-1.596,0.563-2,1.424-2.119,2.203c-0.41-0.293-0.364-1.25-0.388-1.494c-0.408,0.049-1.578,1.186-1.525,2.617
				c-0.107,0.029-0.212,0.064-0.316,0.096c-0.349-0.471-1.359-1.705-2.676-2.129c-0.438-0.141-0.876-0.213-1.305-0.213
				c-1.571,0-2.499,0.936-2.507,0.945l-0.44,0.516l0.664,0.131c0.011,0.002,1.116,0.232,1.573,0.955
				c0.075,0.119,0.096,0.357,0.117,0.609c0.013,0.148-0.02,0.295-0.05,0.436c-0.022,0.107-0.045,0.215-0.05,0.322
				c-0.412,0.016-0.771,0.094-1.058,0.24c-0.391,0.201-0.654,0.52-0.765,0.922c-0.269,0.986,0.607,2.086,0.638,2.121
				c0.102,0.182,0.145,1.506-0.091,2.035c-0.032,0.074-0.122,0.146-0.234,0.238c-0.035,0.027-0.074,0.057-0.116,0.088
				c-0.333,0.252-0.837,0.633-0.837,1.508c0,1.197,1.214,1.846,2.189,2.369c0.16,0.086,0.313,0.168,0.451,0.246
				c0.146,0.084,0.659,0.617,0.66,1.412c0,0.373-0.035,2.145-0.2,3.375c-0.604-0.518-1.156-1.338-1.312-2.264
				c0-0.004-0.001-0.006-0.002-0.008c-0.005-0.031-0.015-0.061-0.02-0.094c0,0-1.583,1.223-1.118,3.838
				c0.284,1.598,1.256,2.492,2.545,2.961c0.474,1.033,1.588,2.473,3.642,2.686c0.782,0.643,1.864,1.061,3.445,1.063l0,0
				c0.001,0,0.002,0,0.004,0c0.001,0,0.002,0,0.004,0l0,0c1.58-0.002,2.662-0.42,3.443-1.063c2.055-0.213,3.168-1.652,3.643-2.686
				c1.289-0.469,2.26-1.363,2.545-2.961C223.852-286.956,222.269-288.178,222.269-288.178z M218.116-279.716
				c0.263-0.393,0.479-0.816,0.666-1.252c0.344-0.027,0.681-0.066,1.006-0.127C219.437-280.579,218.897-280.034,218.116-279.716z
				 M213.758-278.382c-0.001,0-0.003,0-0.005,0c-0.003,0-0.004,0-0.006,0c-2.454-0.006-3.608-1.396-4.183-2.523
				c-0.192-0.377-0.32-0.725-0.409-0.982c-0.198-0.568-0.183-0.988,0.046-1.248c0.156-0.18,0.516-0.393,1.334-0.393h0.855
				c0.632,0,1.424-0.002,2.362-0.002c0.938,0,1.73,0.002,2.361,0.002h0.855c0.818,0,1.178,0.213,1.334,0.393
				c0.229,0.26,0.244,0.68,0.047,1.248c-0.09,0.258-0.219,0.605-0.41,0.982C217.365-279.776,216.212-278.387,213.758-278.382z
				 M204.8-294.102c0.03-0.023,0.061-0.049,0.091-0.074l0.026-0.021c0.039-0.031,0.079-0.063,0.118-0.098
				c-0.05,0.391-0.103,0.723-0.146,0.809c0,0,0.019-0.025,0.046-0.063c0.147-0.211,0.642-0.994,0.807-2.34
				c0.03-0.25,0.026-0.596-0.003-0.951c-0.043-0.537-0.144-1.096-0.274-1.379c0.009,0.264,0,0.527-0.018,0.779
				c-0.021-0.045-0.044-0.086-0.069-0.119c-0.175-0.217-0.642-0.947-0.507-1.439c0.051-0.188,0.169-0.326,0.361-0.426
				c0.203-0.104,0.479-0.156,0.816-0.156c0.665,0,1.402,0.203,1.782,0.324c1.359,0.43,3,1.672,3.471,2.043
				c0.013,0.01,0.021,0.016,0.022,0.018l0.3,0.209l-0.188-0.316c-0.004-0.006-0.135-0.221-0.382-0.529
				c-0.454-0.568-1.304-1.457-2.498-1.988c0.108-0.156,0.396-0.439,1.17-0.816c0.107-0.053,0.219-0.1,0.33-0.148
				c1.086-0.467,2.326-0.705,3.695-0.707c1.37,0.002,2.61,0.24,3.696,0.707c0.111,0.049,0.223,0.096,0.329,0.148
				c0.774,0.377,1.063,0.662,1.169,0.816c-1.193,0.531-2.042,1.42-2.496,1.988c-0.246,0.309-0.378,0.523-0.383,0.529l-0.188,0.316
				l0.301-0.209c0.002-0.002,0.01-0.008,0.023-0.018c0.471-0.371,2.11-1.613,3.47-2.043c0.38-0.121,1.118-0.324,1.782-0.324
				c0.338,0,0.613,0.053,0.816,0.156c0.192,0.1,0.311,0.238,0.361,0.426c0.135,0.492-0.332,1.223-0.506,1.439
				c-0.025,0.033-0.049,0.074-0.07,0.119c-0.018-0.252-0.027-0.516-0.018-0.779c-0.131,0.285-0.231,0.844-0.274,1.381
				c-0.028,0.355-0.032,0.701-0.003,0.949c0.166,1.346,0.66,2.131,0.807,2.34c0.026,0.037,0.045,0.063,0.045,0.063
				c-0.042-0.086-0.095-0.418-0.145-0.809c0.039,0.033,0.08,0.066,0.117,0.098l0.027,0.021c0.031,0.025,0.062,0.051,0.092,0.076
				c0.21,0.176,0.389,0.387,0.389,0.912c0,0.768-0.832,1.219-1.637,1.652c-0.154,0.084-0.309,0.168-0.455,0.252
				c-0.471,0.27-0.977,0.906-1.033,1.852c-0.012,0.195-0.015,0.459-0.011,0.764c0.009,0.689,0.055,1.596,0.118,2.451
				c0.023,0.309,0.051,0.611,0.078,0.893c-0.174,0.068-0.353,0.123-0.535,0.17c-0.258,0.064-0.522,0.107-0.786,0.139
				c-0.28,0.033-0.56,0.053-0.829,0.059c-0.109-0.223-0.213-0.461-0.297-0.711c-0.029-0.082-0.65-1.697-1.1-2.703
				c-0.13-0.289-0.246-0.531-0.33-0.668c0.297,2.115,0.951,3.996,1.275,4.857c-0.189-0.025-0.396-0.045-0.636-0.045l-3.161-0.002
				h-0.008c-0.911,0.002-3.162,0.002-3.162,0.002c-0.24,0-0.446,0.02-0.636,0.045c0.324-0.861,0.979-2.742,1.274-4.857
				c-0.082,0.135-0.198,0.377-0.328,0.668c-0.45,1.006-1.072,2.621-1.101,2.703c-0.085,0.25-0.188,0.488-0.298,0.711
				c-0.269-0.006-0.548-0.025-0.828-0.059c-0.264-0.031-0.528-0.074-0.785-0.139c-0.183-0.047-0.362-0.102-0.535-0.17
				c0.026-0.281,0.053-0.584,0.076-0.895c0.02-0.256,0.037-0.516,0.053-0.773c0.032-0.549,0.056-1.086,0.064-1.541
				c0.001-0.047,0.001-0.092,0.002-0.135c0.004-0.305,0.001-0.568-0.011-0.764c-0.057-0.945-0.563-1.582-1.032-1.852
				c-0.147-0.084-0.302-0.168-0.456-0.252c-0.805-0.434-1.637-0.885-1.637-1.652C204.41-293.714,204.589-293.925,204.8-294.102z
				 M207.058-300.274c-0.182-0.24-0.212-0.57-0.24-0.92c-0.028-0.334-0.058-0.682-0.237-0.965c-0.04-0.063-0.09-0.115-0.135-0.172
				c0.406,0.014,0.766,0.137,1.065,0.377c0.283,0.225,0.475,0.563,0.597,0.844c0.029,0.068,0.056,0.135,0.077,0.193
				c0.026,0.074,0.046,0.135,0.061,0.184c-0.264,0.225-0.447,0.434-0.569,0.604C207.493-300.18,207.283-300.231,207.058-300.274z
				 M207.88-302.469c-0.45-0.316-0.988-0.482-1.558-0.482c-0.202,0-0.374,0.021-0.506,0.045c-0.176-0.117-0.353-0.217-0.517-0.291
				c0.257-0.109,0.741-0.273,1.337-0.273c0.329,0,0.651,0.051,0.957,0.15c0.969,0.313,1.716,1.258,2.046,1.744
				c-0.087,0.039-0.175,0.074-0.26,0.115c-0.136,0.068-0.263,0.135-0.382,0.203C208.856-301.553,208.548-301.999,207.88-302.469z
				 M219.827-300.13c-0.121-0.17-0.305-0.377-0.568-0.602c0.016-0.051,0.034-0.111,0.062-0.186c0.021-0.059,0.046-0.121,0.074-0.188
				c0.122-0.283,0.313-0.623,0.599-0.85c0.301-0.24,0.66-0.363,1.066-0.377c-0.045,0.057-0.095,0.109-0.135,0.172
				c-0.18,0.283-0.209,0.631-0.238,0.965c-0.029,0.35-0.059,0.68-0.24,0.92C220.221-300.231,220.011-300.18,219.827-300.13z
				 M221.688-302.907c-0.131-0.023-0.305-0.045-0.506-0.045c-0.569,0-1.107,0.166-1.557,0.482c-0.668,0.471-0.977,0.916-1.119,1.211
				c-0.119-0.068-0.246-0.135-0.383-0.203c-0.084-0.039-0.172-0.076-0.258-0.115c0.33-0.484,1.076-1.432,2.045-1.744
				c0.307-0.1,0.627-0.148,0.957-0.148c0.597,0,1.08,0.162,1.337,0.271C222.042-303.124,221.864-303.024,221.688-302.907z
				 M222.441-286.569c0.01-0.025,0.021-0.049,0.03-0.078c0.271,0.271,0.455,2.119-0.202,3.201c-0.294,0.484-0.722,0.85-1.211,1.113
				c-0.204,0.109-0.417,0.201-0.64,0.273c-0.053,0.018-0.105,0.041-0.161,0.057c-0.175,0.049-0.352,0.086-0.53,0.113
				c-0.202,0.031-0.405,0.045-0.607,0.047c0.033-0.1,0.061-0.197,0.082-0.291c0.051-0.227,0.07-0.439,0.051-0.633
				c-0.03-0.309-0.147-0.574-0.354-0.797c-0.021-0.023-0.047-0.047-0.071-0.07c-0.101-0.131-0.237-0.32-0.386-0.553
				c0.727-0.031,1.571-0.178,2.314-0.541C221.497-285.091,222.132-285.671,222.441-286.569z M207.013-284.606
				c0.674,0.275,1.407,0.393,2.049,0.42c-0.149,0.234-0.286,0.424-0.387,0.555c-0.024,0.021-0.049,0.045-0.07,0.068
				c-0.206,0.223-0.323,0.488-0.354,0.797c-0.02,0.193,0,0.406,0.051,0.633c0.021,0.094,0.049,0.191,0.082,0.291
				c-0.202-0.002-0.405-0.016-0.607-0.047c-0.179-0.027-0.356-0.064-0.531-0.113c-0.013-0.004-0.025-0.01-0.038-0.014
				c-0.266-0.078-0.521-0.186-0.762-0.316c-0.489-0.264-0.916-0.629-1.211-1.113c-0.657-1.082-0.473-2.93-0.202-3.201
				c0.008,0.027,0.021,0.051,0.029,0.078C205.409-285.565,206.162-284.956,207.013-284.606z M208.722-280.968
				c0.187,0.436,0.403,0.859,0.667,1.252c-0.782-0.318-1.323-0.863-1.674-1.381C208.041-281.034,208.379-280.995,208.722-280.968z"
				/>
		</g>
	</g>
</g>
<g>
	<rect x="247.988" y="-319.911" fill="#CC6699" width="56.693" height="56.693"/>
	<g>
		<path fill="#FFFFFF" d="M284.046-293.784c-4.199,1.609-7.592,1.322-8.914,0.861c-1.667-0.574-2.646-1.666-2.876-2.299
			c-0.113-0.23-0.344-0.863,0.115-1.094c0.404-0.23,0.633,0,0.977,0.402c0.059,0.059,1.382,1.438,4.487,1.094
			c5.117-0.576,8.451-3.451,9.775-5.752c0.807-1.381,0.979-2.645,0.52-3.623c-0.23-0.518-0.865-0.977-1.785-1.322
			c-2.242-0.805-6.498-0.689-11.73,1.898c-5.923,2.932-8.97,5.98-9.144,9.086c-0.117,2.473,2.012,4.141,4.313,5.865
			c0.979,0.805,2.07,1.609,2.875,2.473l0.059,0.057c0.863-0.287,1.954-0.459,3.563-0.459c2.186-0.057,4.084,0.633,5.35,1.957
			c0.979,1.033,1.494,2.299,1.438,3.564c-0.115,2.07-1.955,2.99-2.473,3.104c-0.172,0-0.633,0.059-0.748-0.402
			c-0.057-0.344,0.172-0.516,0.461-0.689c0.344-0.229,1.035-0.746,1.148-1.609c0.059-0.461-0.057-1.207-0.631-1.955
			c-0.518-0.691-1.611-1.555-3.854-1.842c-1.15-0.115-2.186-0.115-3.162,0.115c0.689,1.84,0.574,4.83-0.921,7.072
			c-1.494,2.244-3.91,3.566-6.383,3.566c-0.633,0-1.266-0.057-1.842-0.23c-0.572-0.172-1.148-0.748-1.494-1.494
			c-0.344-0.633-0.748-2.07,0.115-4.025c1.15-2.473,5.35-4.83,6.9-5.635c-0.518-0.461-1.207-0.92-1.955-1.439
			c-2.76-1.955-6.268-4.313-6.9-7.646c-0.287-1.209,0.287-4.258,3.969-7.707c3.68-3.393,8.567-5.463,11.155-6.383
			c4.313-1.553,9.027-1.496,11.963,0.057c1.494,0.807,2.473,1.955,2.816,3.336C292.21-300.917,288.876-295.739,284.046-293.784z"/>
		<path fill="#CC6699" d="M267.07-279.786c-1.225,1.227-1.634,2.627-1.518,3.326c0.059,0.232,0.116,0.408,0.293,0.525
			c0.582,0.35,2.391-0.059,3.731-1.518c0.466-0.465,0.816-0.99,1.05-1.516c0-0.117,0.058-0.234,0.116-0.35
			c0.059-0.117,0.059-0.234,0.117-0.352c0.292-0.932,0.35-1.924,0.175-2.975C270.569-282.409,268.527-281.302,267.07-279.786z"/>
	</g>
</g>
<g>
	<g>
		<rect x="310.571" y="-319.911" fill-rule="evenodd" clip-rule="evenodd" fill="#277000" width="56.693" height="56.693"/>
	</g>
	<g>
		<path fill-rule="evenodd" clip-rule="evenodd" fill="#3F3F3E" d="M319.572-272.36c0.702,0,1.405,0,2.107,0
			c0.154-0.131,0.321-0.25,0.461-0.396c0.326-0.34,0.708-0.578,1.164-0.699c0.603-0.16,1.138-0.463,1.669-0.775
			c0.887-0.52,1.739-1.09,2.596-1.658c1.125-0.75,2.236-1.521,3.436-2.156c1.404-0.744,2.893-1.268,4.405-1.73
			c-0.052-0.068-0.102-0.135-0.151-0.203c-0.287-0.246-0.576-0.49-0.863-0.736c-0.141-0.068-0.271-0.166-0.438-0.17
			c-0.707,0.557-1.447,1.066-2.242,1.492c-0.202,0.172-0.436,0.293-0.668,0.414c-0.818,0.479-1.626,0.977-2.48,1.393
			c-0.057,0.041-0.111,0.09-0.174,0.123c-1.58,0.861-3.172,1.701-4.807,2.457c-0.188,0.088-0.391,0.291-0.602,0.146
			c-0.195-0.131,0.028-0.357-0.028-0.568c-0.435,0.912-1.177,1.414-2.099,1.672c-0.537,0.152-1.09,0.219-1.649,0.234
			c0,0-0.288,0.057-0.533,0.363C318.43-272.85,318.751-272.36,319.572-272.36z"/>
		<path fill-rule="evenodd" clip-rule="evenodd" fill="#AEDB59" d="M350.085-303.986c-0.477-2.222-1.082-4.405-1.835-6.549
			c-0.056-0.16-0.079-0.344-0.325-0.15c-0.78,0.615-1.649,1.098-2.48,1.636c-1.074,0.697-2.181,1.342-3.214,2.099
			c0.154,0.012,0.229,0.095,0.278,0.2c-0.049-0.105-0.124-0.188-0.278-0.2c-1.784,1.144-3.497,2.385-5.114,3.757
			c-0.426,0.373-0.86,0.737-1.273,1.123c-1.234,1.148-2.342,2.4-3.123,3.91c-0.619,0.967-1.118,1.995-1.599,3.034
			c-0.481,1.04-0.811,2.133-1.159,3.222c-0.102,0.738-0.252,1.467-0.323,2.211c-0.053,0.558-0.066,1.115-0.022,1.666
			c0.079,0.971,0.258,1.928,0.558,2.863c0.536,1.672,1.479,2.998,3.077,3.805c0.255,0.127,0.527,0.232,0.707,0.473
			c0.167,0.004,0.297,0.102,0.438,0.17c0.824-1.746,1.646-3.492,2.474-5.236c0.066-0.139,0.068-0.281,0.078-0.424
			c-0.143-0.068-0.19-0.195-0.229-0.324c0.038,0.129,0.086,0.256,0.229,0.324c0.234-0.109,0.258-0.354,0.354-0.551
			c0.127-0.266,0.203-0.561,0.432-0.77c0.072-0.566,0.418-1.023,0.639-1.525c0.488-1.113,1.043-2.197,1.557-3.299
			c0.276-0.588,0.595-1.156,0.791-1.781l0,0c0.471-0.971,0.949-1.939,1.412-2.915c0.433-0.913,0.85-1.834,1.274-2.751
			c0.313-0.68,0.627-1.358,0.941-2.037c0.764-1.641,1.527-3.283,2.291-4.925c0.031,0.015,0.063,0.028,0.094,0.042
			c-0.23,0.548-0.459,1.098-0.692,1.646c-0.589,1.375-1.179,2.748-1.766,4.125c-0.037,0.086-0.049,0.184-0.071,0.276
			c-0.224,0.251-0.253,0.601-0.437,0.872c-0.514,1.221-1.021,2.441-1.54,3.658c-0.681,1.595-1.371,3.184-2.054,4.777
			c-0.027,0.063-0.029,0.139-0.042,0.21c0.283,0.995,0.618,1.976,0.952,2.956c-0.334-0.98-0.669-1.961-0.953-2.956
			c-0.358,0.612-0.572,1.29-0.869,1.931c-0.381,0.826-0.67,1.693-1.09,2.502c-0.447,1.063-0.893,2.127-1.342,3.191
			c-0.521,1.24-1.047,2.48-1.57,3.721c0.05,0.068,0.1,0.135,0.151,0.203c0.204,0.168,0.407,0.34,0.612,0.508
			c0.885,0.727,1.861,1.281,3.02,1.377c1.853,0.152,3.514-0.461,5.088-1.375c0.686-0.344,1.266-0.834,1.827-1.348
			c0.734-0.674,1.318-1.471,1.883-2.285c0.092-0.213,0.199-0.416,0.359-0.586c0.049-0.109,0.095-0.221,0.149-0.326
			c0.328-0.648,0.657-1.293,0.873-1.988c0.022-0.041,0.055-0.08,0.07-0.123c1.04-2.822,1.548-5.75,1.664-8.748
			C351.079-297.812,350.742-300.914,350.085-303.986z M340.358-294.403c0.045,0.087,0.104,0.141,0.195,0.143
			C340.463-294.262,340.403-294.316,340.358-294.403z"/>
		<path fill-rule="evenodd" clip-rule="evenodd" fill="#7FBE43" d="M333.251-281.358c-1.598-0.807-2.541-2.133-3.077-3.805
			c-0.3-0.936-0.479-1.893-0.558-2.863c-0.044-0.551-0.03-1.108,0.022-1.666c0.071-0.744,0.222-1.473,0.323-2.211
			c-0.783-0.546-1.588-1.055-2.454-1.463c-0.351-0.188-0.691-0.395-1.052-0.561c-1.504-0.689-3.016-1.361-4.52-2.053
			c-0.205-0.094-0.233-0.033-0.268,0.154c-0.229,1.262-0.369,2.533-0.451,3.813c-0.219,3.426,0.237,6.73,1.723,9.852
			c0.447,0.941,0.972,1.84,1.738,2.568c0.266,0.348,0.611,0.609,0.959,0.869c0.871,0.65,1.871,0.969,2.93,1.137
			c0.854-0.416,1.662-0.914,2.48-1.393c-0.406-0.684-0.805-1.369-1.221-2.047c-1.232-2.002-2.473-4.002-3.711-6
			c-0.037-0.059-0.094-0.105-0.143-0.158l0,0c-0.438-0.844-0.984-1.621-1.467-2.439c-0.316-0.538-0.659-1.063-0.986-1.595
			c-0.035-0.057-0.09-0.116-0.025-0.282c0.916,1.349,1.802,2.654,2.688,3.961c0.882,1.322,1.76,2.645,2.645,3.965
			c0.879,1.309,1.766,2.613,2.646,3.922c0.067,0.102,0.135,0.199,0.242,0.26c0.795-0.426,1.535-0.936,2.242-1.492
			C333.778-281.126,333.506-281.231,333.251-281.358z M323.224-291.792c-0.019-0.008-0.05-0.012-0.055-0.026
			c-0.006-0.015,0.014-0.038,0.022-0.057c0.02,0.009,0.039,0.017,0.057,0.025C323.241-291.831,323.233-291.811,323.224-291.792z
			 M323.368-291.569c-0.02-0.01-0.049-0.013-0.055-0.027c-0.006-0.014,0.014-0.037,0.021-0.058c0.02,0.009,0.049,0.013,0.055,0.028
			C323.395-291.612,323.377-291.589,323.368-291.569z"/>
		<path fill-rule="evenodd" clip-rule="evenodd" fill="#3F3F3E" d="M347.84-282.899c0.092-0.213,0.199-0.416,0.359-0.586
			c1.12,0.229,2.246,0.352,3.386,0.162c0.613-0.102,1.128-0.422,1.629-0.76c1.236-0.836,2.307-1.877,3.449-2.828
			c0.512-0.426,1.036-0.836,1.604-1.186c0.238-0.146,0.494-0.26,0.788-0.197c0.095,0.02,0.228,0.039,0.174,0.168
			c-0.092,0.223-0.063,0.451-0.085,0.678c-0.019,0.188-0.124,0.287-0.281,0.129c-0.172-0.174-0.34-0.115-0.533-0.076
			c-0.474,0.096-0.85,0.348-1.224,0.645c-1.163,0.928-2.347,1.83-3.523,2.74c-0.375,0.291-0.391,0.322-0.11,0.689
			c0.193,0.254,0.086,0.32-0.166,0.367c-0.969,0.186-1.948,0.209-2.928,0.18C349.532-282.8,348.685-282.856,347.84-282.899z"/>
		<path fill-rule="evenodd" clip-rule="evenodd" fill="#86C242" d="M346.638-306.93c-0.764,1.642-1.527,3.285-2.291,4.925
			c-0.314,0.679-0.628,1.357-0.941,2.037c-0.425,0.917-0.842,1.838-1.274,2.751c-0.463,0.976-0.941,1.944-1.412,2.915
			c-0.196,0.625-0.515,1.193-0.791,1.781c-0.514,1.102-1.068,2.186-1.557,3.299c-0.221,0.502-0.566,0.959-0.639,1.525
			c-0.229,0.209-0.305,0.504-0.432,0.77c-0.096,0.197-0.119,0.441-0.354,0.551c-0.01,0.143-0.012,0.285-0.078,0.424
			c-0.827,1.744-1.649,3.49-2.475,5.236c0.287,0.246,0.576,0.49,0.863,0.736c0.523-1.24,1.049-2.48,1.57-3.721
			c0.449-1.064,0.895-2.129,1.34-3.191c-0.156-0.131-0.195-0.328-0.26-0.51c-0.02-0.055-0.041-0.107-0.068-0.156
			c0.027,0.049,0.049,0.102,0.068,0.156c0.064,0.182,0.104,0.379,0.262,0.51c0.42-0.809,0.709-1.676,1.09-2.502
			c0.297-0.641,0.511-1.318,0.87-1.931c0.013-0.071,0.015-0.147,0.042-0.21c0.683-1.594,1.373-3.183,2.054-4.777
			c0.52-1.217,1.026-2.438,1.54-3.658l0,0c0.184-0.271,0.213-0.621,0.437-0.872c0.022-0.093,0.034-0.19,0.071-0.276
			c0.587-1.377,1.177-2.75,1.766-4.125c0.233-0.548,0.462-1.097,0.692-1.646C346.701-306.902,346.67-306.915,346.638-306.93z"/>
		<g>
			<path fill-rule="evenodd" clip-rule="evenodd" fill="#549E38" d="M331.473-279.653c-0.881-1.309-1.768-2.613-2.646-3.922
				c-0.885-1.32-1.763-2.643-2.645-3.965c-0.886-1.307-1.771-2.612-2.688-3.961c-0.064,0.166-0.01,0.226,0.025,0.282
				c0.327,0.532,0.67,1.057,0.986,1.595c0.482,0.818,1.029,1.596,1.467,2.439c0.049,0.053,0.105,0.1,0.143,0.158
				c1.238,1.998,2.479,3.998,3.711,6c0.416,0.678,0.814,1.363,1.221,2.047c0.232-0.121,0.466-0.242,0.668-0.414
				C331.608-279.454,331.541-279.552,331.473-279.653z"/>
			<path fill-rule="evenodd" clip-rule="evenodd" fill="#549E38" d="M323.17-291.818c0.005,0.015,0.036,0.019,0.055,0.026
				c0.009-0.02,0.017-0.039,0.024-0.058c-0.018-0.009-0.037-0.017-0.057-0.025C323.183-291.856,323.164-291.833,323.17-291.818z"/>
			<path fill-rule="evenodd" clip-rule="evenodd" fill="#549E38" d="M323.335-291.654c-0.008,0.021-0.027,0.044-0.021,0.058
				c0.006,0.015,0.035,0.018,0.055,0.027c0.009-0.02,0.027-0.043,0.021-0.057C323.384-291.641,323.354-291.645,323.335-291.654z"/>
		</g>
	</g>
</g>
<g>
	<polyline fill="#B0B0B0" points="-127.509,-263.216 -70.815,-263.216 -70.815,-319.911 -127.509,-319.911 -127.509,-263.216 	"/>
	<path id="Drupicon_2_" fill="#FFFFFF" d="M-90.954-302.177c-1.771-1.18-4.252-2.358-5.905-3.538
		c-1.063-0.708-2.363-2.123-3.543-3.537c-0.236,2.357-0.354,2.829-1.182,3.537c-1.771,1.416-3.543,2.24-4.96,3.066
		c-1.89,0.942-8.032,4.599-8.032,13.442c0,8.846,7.323,15.332,15.473,15.332c8.267,0,15.355-6.014,15.355-14.979
		C-83.632-297.932-89.772-301.47-90.954-302.177z M-91.308-277.058c-0.118,0.117-1.771,1.297-3.544,1.414
		c-1.771,0.119-4.37,0.236-5.787-1.061c-0.236-0.236-0.117-0.59,0-0.707c0.118-0.119,0.354-0.236,0.473-0.236s0.118,0,0.235,0.117
		c0.709,0.59,1.655,0.943,3.898,0.943c2.245,0,3.662-0.588,4.37-1.18c0.354-0.234,0.473,0,0.473,0.119
		C-91.072-277.531-91.072-277.294-91.308-277.058z M-97.214-280.124c0.354-0.354,0.944-0.943,1.536-1.18
		c0.59-0.234,0.944-0.234,1.417-0.234c0.59,0,1.181,0,1.535,0.354c0.354,0.234,0.591,0.943,0.826,1.178
		c0.236,0.236,0,0.59-0.235,0.707c-0.236,0.117-0.236,0.117-0.473-0.354s-0.473-0.943-1.653-0.943c-1.182,0-1.536,0.355-2.127,0.943
		c-0.589,0.471-0.826,0.709-0.943,0.354C-97.685-279.536-97.568-279.888-97.214-280.124z M-88.592-279.771
		c-1.181-0.117-3.19-3.42-4.724-3.539c-2.009-0.117-6.025,3.539-9.449,3.539c-2.01,0-2.836-0.707-3.544-1.18
		c-1.063-0.707-2.362-2.004-2.362-3.539c0-2.711,2.717-4.717,5.906-4.717c4.015,0,7.44,3.539,9.449,3.539
		c1.652,0,4.251-3.539,5.905-3.539c1.652,0,2.361,2.479,2.361,3.539c0,1.063-0.119,2.949-0.945,4.246
		C-86.702-280.241-87.647-279.654-88.592-279.771z"/>
</g>
<g>
	<rect x="-252.431" y="-319.911" fill="#FCCC5A" width="56.208" height="56"/>
	<g>
		<g>
			<g>
				<polygon fill="#FCCC5A" points="-240.819,-275.354 -244.001,-313.059 -204.654,-313.059 -207.835,-275.354 -224.325,-270.829 
									"/>
				<g>
					<path fill="#D9A730" d="M-206.558-311.309l-2.918,34.59l-14.849,4.076l-14.855-4.076l-2.918-34.59H-206.558 M-202.751-314.809
						h-43.152l3.441,40.818l18.137,4.979l18.132-4.979L-202.751-314.809L-202.751-314.809z"/>
				</g>
			</g>
			<polygon fill="none" points="-224.325,-269.012 -242.462,-273.99 -245.903,-314.809 -224.325,-314.809 			"/>
		</g>
		<g>
			<g>
				<g>
					<polygon fill="#FFFEFD" points="-225.405,-277.899 -235.178,-280.286 -235.178,-285.089 -230.44,-283.93 -230.44,-307.414 
						-225.405,-307.414 					"/>
				</g>
			</g>
			<g>
				<g>
					<polygon fill="#FFFEFD" points="-223.054,-277.907 -223.054,-282.764 -218.07,-284.19 -217.138,-291.844 -223.054,-291.844 
						-223.054,-307.335 -210.187,-307.335 -210.761,-302.691 -218.017,-302.691 -218.017,-296.483 -211.505,-296.483 
						-213.429,-280.661 					"/>
				</g>
			</g>
		</g>
	</g>
	<path fill="#5DA3C2" d="M-216.99-288.635l0.033,0.141c0.008,0.039-0.016,0.072-0.057,0.072"/>
</g>
<g>
	<rect x="-502.263" y="-319.911" fill="#FF6C39" width="55.208" height="56.693"/>
	<g>
		<polygon fill="#E44D26" points="-479.252,-295.337 -474.661,-295.337 -474.661,-299.112 -479.557,-299.112 		"/>
		<path fill="#E44D26" d="M-491.809-311.692l3.215,36.34l13.936,3.913l13.936-3.913l3.215-36.34H-491.809z M-463.351-277.718
			l-11.31,3.45v-4.729l-8.253-2.521l-0.562-6.271h4.709l0.256,2.495l3.85,1.266v-6.278h-9.041l-0.758-8.805l-0.481-5.032h10.28
			v-5.03h14.318L-463.351-277.718z"/>
		<polygon fill="#FF6C39" points="-470.369,-290.307 -474.661,-290.307 -474.661,-284.029 -470.802,-285.295 		"/>
		<polygon fill="#FF6C39" points="-474.661,-309.175 -474.661,-304.144 -464.416,-304.144 -464.86,-299.112 -474.661,-299.112 
			-474.661,-295.337 -465.206,-295.337 -466.418,-281.518 -474.661,-278.997 -474.661,-274.267 -463.351,-277.718 
			-460.343,-309.175 		"/>
		<polygon fill="#FFFFFF" points="-465.206,-295.337 -474.661,-295.337 -479.252,-295.337 -479.557,-299.112 -474.661,-299.112 
			-464.86,-299.112 -464.416,-304.144 -474.661,-304.144 -484.941,-304.144 -484.46,-299.112 -483.702,-290.307 -474.661,-290.307 
			-470.369,-290.307 -470.802,-285.295 -474.661,-284.029 -478.51,-285.295 -478.766,-287.79 -483.475,-287.79 -482.914,-281.518 
			-474.661,-278.997 -466.418,-281.518 		"/>
	</g>
</g>
<g>
	<rect x="-377.416" y="-319.911" fill="#35A8DB" width="55.847" height="57.82"/>
	<g>
		<polygon fill="#1572B6" points="-349.545,-295.501 -349.492,-295.501 -349.492,-295.524 -349.512,-295.515 		"/>
		<path fill="#1572B6" d="M-329.258-315.264h-40.468h-0.543l0.047,0.561l3.683,42.765l0.031,0.355l0.331,0.097l16.527,4.749h0.266
			l16.571-4.758l0.332-0.094l0.029-0.357l3.687-42.757l0.048-0.561H-329.258z M-335.22-273.95l-14.272,4.097v-5.576l-10.946-3.346
			l-0.679-8.454l5.398,0.002l0.352,4.376l5.855,1.504l0.02-0.005v-8.827l-11.985-0.031v-0.008l-0.019,0.008l-0.41-5.291
			l12.395-5.345l0.02-0.008v-0.303h-0.004h-0.016h-0.013h-0.104h-0.105h-0.105h-0.103h-0.106h-0.104h-0.104h-0.106h-0.104h-0.105
			h-0.104h-0.105h-0.104h-0.104h-0.105h-0.105h-0.104h-0.105h-0.105h-0.103h-0.105h-0.105h-0.104h-0.104h-0.105h-0.104h-0.106
			h-0.103h-0.106h-0.104h-0.104h-0.105h-0.105h-0.104h-0.104h-0.105h-0.105h-0.105h-0.104h-0.104h-0.105h-0.104h-0.105h-0.105
			h-0.104h-0.104h-0.105h-0.105h-0.104h-0.104h-0.105h-0.105h-0.104h-0.105h-0.104h-0.104h-0.106h-0.103h-0.105h-0.105h-0.104
			h-0.105h-0.104h-0.105h-0.104h-0.105h-0.105h-0.105h-0.103h-0.105h-0.105h-0.103h-0.106h-0.104h-0.104h-0.105h-0.105h-0.104
			h-0.104h-0.106h-0.104h-0.105h-0.104h-0.104h-0.105h-0.104h-0.106h-0.104h-0.104h-0.105h-0.104h-0.105h-0.104h-0.104h-0.106
			h-0.103h-0.105h-0.105h-0.104h-0.105h-0.105h-0.104h-0.104h-0.105h-0.104h-0.105h-0.105h-0.104h-0.104h-0.105h-0.105h-0.104
			h-0.104h-0.105h-0.104h-0.106h-0.105h-0.103h-0.104h-0.106h-0.104h-0.104h-0.086l-0.019-0.153l-0.105-0.877l-0.104-0.876
			l-0.104-0.877l-0.105-0.876l-0.105-0.876l-0.104-0.876h0.104h0.105h0.105h0.104h0.104h0.105h0.105h0.104h0.104h0.106h0.104h0.103
			h0.105h0.106h0.104h0.105h0.104h0.104h0.105h0.105h0.104h0.104h0.105h0.105h0.104h0.105h0.104h0.104h0.105h0.105h0.104h0.105
			h0.105h0.103h0.106h0.104h0.104h0.105h0.104h0.105h0.104h0.104h0.106h0.104h0.105h0.104h0.104h0.105h0.104h0.106h0.104h0.104
			h0.105h0.105h0.104h0.104h0.106h0.103h0.105h0.105h0.103h0.105h0.105h0.105h0.104h0.105h0.104h0.105h0.104h0.105h0.105h0.103
			h0.106h0.104h0.104h0.105h0.104h0.105h0.105h0.104h0.104h0.105h0.105h0.104h0.104h0.105h0.105h0.104h0.105h0.104h0.104h0.105
			h0.105h0.105h0.104h0.104h0.105h0.105h0.104h0.104h0.106h0.103h0.106h0.104h0.105h0.104h0.104h0.105h0.105h0.103h0.105h0.105
			h0.104h0.105h0.105h0.104h0.104h0.105h0.104h0.105h0.104h0.106h0.104h0.104h0.106h0.103h0.105h0.105h0.104h0.013h0.02v-5.661
			h17.574L-335.22-273.95z"/>
		<polygon fill="#35A8DB" points="-349.492,-306.571 -349.42,-306.571 -349.316,-306.571 -349.212,-306.571 -349.106,-306.571 
			-349.002,-306.571 -348.898,-306.571 -348.793,-306.571 -348.688,-306.571 -348.582,-306.571 -348.48,-306.571 -348.374,-306.571 
			-348.27,-306.571 -348.164,-306.571 -348.059,-306.571 -347.954,-306.571 -347.851,-306.571 -347.745,-306.571 -347.641,-306.571 
			-347.537,-306.571 -347.433,-306.571 -347.327,-306.571 -347.224,-306.571 -347.119,-306.571 -347.014,-306.571 
			-346.908,-306.571 -346.804,-306.571 -346.7,-306.571 -346.596,-306.571 -346.49,-306.571 -346.385,-306.571 -346.282,-306.571 
			-346.177,-306.571 -346.072,-306.571 -345.969,-306.571 -345.864,-306.571 -345.759,-306.571 -345.654,-306.571 
			-345.548,-306.571 -345.444,-306.571 -345.34,-306.571 -345.235,-306.571 -345.13,-306.571 -345.025,-306.571 -344.922,-306.571 
			-344.817,-306.571 -344.711,-306.571 -344.607,-306.571 -344.501,-306.571 -344.398,-306.571 -344.293,-306.571 
			-344.188,-306.571 -344.085,-306.571 -343.98,-306.571 -343.874,-306.571 -343.77,-306.571 -343.666,-306.571 -343.561,-306.571 
			-343.456,-306.571 -343.351,-306.571 -343.246,-306.571 -343.143,-306.571 -343.037,-306.571 -342.933,-306.571 
			-342.827,-306.571 -342.724,-306.571 -342.619,-306.571 -342.514,-306.571 -342.409,-306.571 -342.304,-306.571 -342.2,-306.571 
			-342.096,-306.571 -341.99,-306.571 -341.885,-306.571 -341.782,-306.571 -341.677,-306.571 -341.573,-306.571 -341.467,-306.571 
			-341.362,-306.571 -341.259,-306.571 -341.154,-306.571 -341.048,-306.571 -340.946,-306.571 -340.84,-306.571 -340.736,-306.571 
			-340.632,-306.571 -340.527,-306.571 -340.422,-306.571 -340.317,-306.571 -340.211,-306.571 -340.109,-306.571 
			-340.003,-306.571 -339.899,-306.571 -339.793,-306.571 -339.688,-306.571 -339.585,-306.571 -339.48,-306.571 -339.374,-306.571 
			-339.27,-306.571 -339.166,-306.571 -339.062,-306.571 -338.956,-306.571 -338.851,-306.571 -338.746,-306.571 -338.643,-306.571 
			-338.537,-306.571 -338.435,-306.571 -338.327,-306.571 -338.225,-306.571 -338.119,-306.571 -338.014,-306.571 
			-337.909,-306.571 -337.806,-306.571 -337.7,-306.571 -337.596,-306.571 -337.492,-306.571 -337.388,-306.571 -337.282,-306.571 
			-337.177,-306.571 -337.073,-306.571 -336.967,-306.571 -336.864,-306.571 -336.759,-306.571 -336.654,-306.571 
			-336.551,-306.571 -336.446,-306.571 -336.34,-306.571 -336.236,-306.571 -336.236,-306.571 -336.236,-306.571 -336.257,-306.349 
			-336.765,-301.158 -349.492,-295.524 -349.492,-295.501 -337.213,-295.501 -337.663,-290.148 -337.663,-290.148 
			-338.625,-278.714 -349.492,-275.429 -349.492,-269.853 -335.22,-273.95 -331.918,-312.231 -349.492,-312.231 		"/>
		<polygon fill="#35A8DB" points="-343.099,-290.163 -349.492,-290.179 -349.492,-281.352 -343.502,-283.094 		"/>
		<polygon fill="#35A8DB" points="-348.793,-301.158 -348.898,-301.158 -349.002,-301.158 -349.106,-301.158 -349.212,-301.158 
			-349.316,-301.158 -349.42,-301.158 -349.492,-301.158 -349.492,-300.855 -348.789,-301.158 		"/>
		<polygon fill="#E9E9E8" points="-349.512,-306.571 -349.525,-306.571 -349.629,-306.571 -349.735,-306.571 -349.84,-306.571 
			-349.943,-306.571 -350.049,-306.571 -350.153,-306.571 -350.257,-306.571 -350.363,-306.571 -350.467,-306.571 
			-350.573,-306.571 -350.677,-306.571 -350.781,-306.571 -350.885,-306.571 -350.99,-306.571 -351.095,-306.571 -351.2,-306.571 
			-351.304,-306.571 -351.409,-306.571 -351.514,-306.571 -351.617,-306.571 -351.722,-306.571 -351.827,-306.571 
			-351.932,-306.571 -352.036,-306.571 -352.141,-306.571 -352.245,-306.571 -352.351,-306.571 -352.454,-306.571 -352.56,-306.571 
			-352.664,-306.571 -352.769,-306.571 -352.874,-306.571 -352.979,-306.571 -353.083,-306.571 -353.187,-306.571 
			-353.292,-306.571 -353.397,-306.571 -353.502,-306.571 -353.607,-306.571 -353.711,-306.571 -353.816,-306.571 -353.92,-306.571 
			-354.025,-306.571 -354.13,-306.571 -354.234,-306.571 -354.338,-306.571 -354.444,-306.571 -354.549,-306.571 -354.653,-306.571 
			-354.757,-306.571 -354.862,-306.571 -354.967,-306.571 -355.071,-306.571 -355.176,-306.571 -355.281,-306.571 
			-355.385,-306.571 -355.49,-306.571 -355.594,-306.571 -355.699,-306.571 -355.804,-306.571 -355.908,-306.571 -356.013,-306.571 
			-356.117,-306.571 -356.222,-306.571 -356.326,-306.571 -356.431,-306.571 -356.537,-306.571 -356.642,-306.571 
			-356.745,-306.571 -356.85,-306.571 -356.955,-306.571 -357.058,-306.571 -357.164,-306.571 -357.268,-306.571 -357.373,-306.571 
			-357.478,-306.571 -357.583,-306.571 -357.687,-306.571 -357.791,-306.571 -357.897,-306.571 -358.001,-306.571 
			-358.106,-306.571 -358.211,-306.571 -358.315,-306.571 -358.42,-306.571 -358.524,-306.571 -358.63,-306.571 -358.734,-306.571 
			-358.838,-306.571 -358.943,-306.571 -359.048,-306.571 -359.153,-306.571 -359.257,-306.571 -359.361,-306.571 
			-359.467,-306.571 -359.57,-306.571 -359.675,-306.571 -359.78,-306.571 -359.885,-306.571 -359.99,-306.571 -360.094,-306.571 
			-360.198,-306.571 -360.303,-306.571 -360.408,-306.571 -360.512,-306.571 -360.617,-306.571 -360.722,-306.571 
			-360.826,-306.571 -360.93,-306.571 -361.035,-306.571 -361.141,-306.571 -361.245,-306.571 -361.349,-306.571 -361.454,-306.571 
			-361.558,-306.571 -361.664,-306.571 -361.769,-306.571 -361.872,-306.571 -361.977,-306.571 -362.083,-306.571 
			-362.187,-306.571 -362.291,-306.571 -362.396,-306.571 -362.501,-306.571 -362.605,-306.571 -362.709,-306.571 
			-362.815,-306.571 -362.92,-306.571 -363.024,-306.571 -362.92,-305.694 -362.815,-304.818 -362.709,-303.942 -362.605,-303.065 
			-362.501,-302.188 -362.396,-301.311 -362.377,-301.158 -362.291,-301.158 -362.187,-301.158 -362.083,-301.158 
			-361.977,-301.158 -361.872,-301.158 -361.769,-301.158 -361.664,-301.158 -361.558,-301.158 -361.454,-301.158 
			-361.349,-301.158 -361.245,-301.158 -361.141,-301.158 -361.035,-301.158 -360.93,-301.158 -360.826,-301.158 -360.722,-301.158 
			-360.617,-301.158 -360.512,-301.158 -360.408,-301.158 -360.303,-301.158 -360.198,-301.158 -360.094,-301.158 -359.99,-301.158 
			-359.885,-301.158 -359.78,-301.158 -359.675,-301.158 -359.57,-301.158 -359.467,-301.158 -359.361,-301.158 -359.257,-301.158 
			-359.153,-301.158 -359.048,-301.158 -358.943,-301.158 -358.838,-301.158 -358.734,-301.158 -358.63,-301.158 -358.524,-301.158 
			-358.42,-301.158 -358.315,-301.158 -358.211,-301.158 -358.106,-301.158 -358.001,-301.158 -357.897,-301.158 -357.791,-301.158 
			-357.687,-301.158 -357.583,-301.158 -357.478,-301.158 -357.373,-301.158 -357.268,-301.158 -357.164,-301.158 
			-357.058,-301.158 -356.955,-301.158 -356.85,-301.158 -356.745,-301.158 -356.642,-301.158 -356.537,-301.158 -356.431,-301.158 
			-356.326,-301.158 -356.222,-301.158 -356.117,-301.158 -356.013,-301.158 -355.908,-301.158 -355.804,-301.158 
			-355.699,-301.158 -355.594,-301.158 -355.49,-301.158 -355.385,-301.158 -355.281,-301.158 -355.176,-301.158 -355.071,-301.158 
			-354.967,-301.158 -354.862,-301.158 -354.757,-301.158 -354.653,-301.158 -354.549,-301.158 -354.444,-301.158 
			-354.338,-301.158 -354.234,-301.158 -354.13,-301.158 -354.025,-301.158 -353.92,-301.158 -353.816,-301.158 -353.711,-301.158 
			-353.607,-301.158 -353.502,-301.158 -353.397,-301.158 -353.292,-301.158 -353.187,-301.158 -353.083,-301.158 
			-352.979,-301.158 -352.874,-301.158 -352.769,-301.158 -352.664,-301.158 -352.56,-301.158 -352.454,-301.158 -352.351,-301.158 
			-352.245,-301.158 -352.141,-301.158 -352.036,-301.158 -351.932,-301.158 -351.827,-301.158 -351.722,-301.158 
			-351.617,-301.158 -351.514,-301.158 -351.409,-301.158 -351.304,-301.158 -351.2,-301.158 -351.095,-301.158 -350.99,-301.158 
			-350.885,-301.158 -350.781,-301.158 -350.677,-301.158 -350.573,-301.158 -350.467,-301.158 -350.363,-301.158 
			-350.257,-301.158 -350.153,-301.158 -350.049,-301.158 -349.943,-301.158 -349.84,-301.158 -349.735,-301.158 -349.629,-301.158 
			-349.525,-301.158 -349.512,-301.158 -349.496,-301.158 -349.492,-301.158 -349.492,-306.571 		"/>
		<polygon fill="#E9E9E8" points="-343.099,-290.163 -349.492,-290.179 -349.492,-295.501 -349.545,-295.501 -349.512,-295.515 
			-349.492,-295.524 -349.492,-300.855 -349.512,-300.846 -361.907,-295.502 -361.497,-290.211 -361.478,-290.219 
			-361.478,-290.211 -349.492,-290.179 -343.099,-290.163 		"/>
		<polygon fill="#E9E9E8" points="-348.789,-301.158 -348.789,-301.158 -349.492,-300.855 -348.789,-301.158 		"/>
		<polygon fill="#E9E9E8" points="-349.492,-281.352 -349.512,-281.347 -355.367,-282.851 -355.719,-287.227 -361.118,-287.229 
			-360.439,-278.775 -349.492,-275.429 -349.492,-275.43 		"/>
		<polygon fill="#FFFFFE" points="-336.765,-301.158 -336.257,-306.349 -336.236,-306.571 -336.236,-306.571 -336.236,-306.571 
			-336.34,-306.571 -336.446,-306.571 -336.551,-306.571 -336.654,-306.571 -336.759,-306.571 -336.864,-306.571 -336.967,-306.571 
			-337.073,-306.571 -337.177,-306.571 -337.282,-306.571 -337.388,-306.571 -337.492,-306.571 -337.596,-306.571 -337.7,-306.571 
			-337.806,-306.571 -337.909,-306.571 -338.014,-306.571 -338.119,-306.571 -338.225,-306.571 -338.327,-306.571 
			-338.435,-306.571 -338.537,-306.571 -338.643,-306.571 -338.746,-306.571 -338.851,-306.571 -338.956,-306.571 
			-339.062,-306.571 -339.166,-306.571 -339.27,-306.571 -339.374,-306.571 -339.48,-306.571 -339.585,-306.571 -339.688,-306.571 
			-339.793,-306.571 -339.899,-306.571 -340.003,-306.571 -340.109,-306.571 -340.211,-306.571 -340.317,-306.571 
			-340.422,-306.571 -340.527,-306.571 -340.632,-306.571 -340.736,-306.571 -340.84,-306.571 -340.946,-306.571 -341.048,-306.571 
			-341.154,-306.571 -341.259,-306.571 -341.362,-306.571 -341.467,-306.571 -341.573,-306.571 -341.677,-306.571 
			-341.782,-306.571 -341.885,-306.571 -341.99,-306.571 -342.096,-306.571 -342.2,-306.571 -342.304,-306.571 -342.409,-306.571 
			-342.514,-306.571 -342.619,-306.571 -342.724,-306.571 -342.827,-306.571 -342.933,-306.571 -343.037,-306.571 
			-343.143,-306.571 -343.246,-306.571 -343.351,-306.571 -343.456,-306.571 -343.561,-306.571 -343.666,-306.571 -343.77,-306.571 
			-343.874,-306.571 -343.98,-306.571 -344.085,-306.571 -344.188,-306.571 -344.293,-306.571 -344.398,-306.571 -344.501,-306.571 
			-344.607,-306.571 -344.711,-306.571 -344.817,-306.571 -344.922,-306.571 -345.025,-306.571 -345.13,-306.571 -345.235,-306.571 
			-345.34,-306.571 -345.444,-306.571 -345.548,-306.571 -345.654,-306.571 -345.759,-306.571 -345.864,-306.571 -345.969,-306.571 
			-346.072,-306.571 -346.177,-306.571 -346.282,-306.571 -346.385,-306.571 -346.49,-306.571 -346.596,-306.571 -346.7,-306.571 
			-346.804,-306.571 -346.908,-306.571 -347.014,-306.571 -347.119,-306.571 -347.224,-306.571 -347.327,-306.571 
			-347.433,-306.571 -347.537,-306.571 -347.641,-306.571 -347.745,-306.571 -347.851,-306.571 -347.954,-306.571 
			-348.059,-306.571 -348.164,-306.571 -348.27,-306.571 -348.374,-306.571 -348.48,-306.571 -348.582,-306.571 -348.688,-306.571 
			-348.793,-306.571 -348.898,-306.571 -349.002,-306.571 -349.106,-306.571 -349.212,-306.571 -349.316,-306.571 -349.42,-306.571 
			-349.492,-306.571 -349.492,-301.158 -349.42,-301.158 -349.316,-301.158 -349.212,-301.158 -349.106,-301.158 -349.002,-301.158 
			-348.898,-301.158 -348.793,-301.158 -348.789,-301.158 -348.789,-301.158 -348.789,-301.158 -349.492,-300.855 
			-349.492,-295.524 		"/>
		<polygon fill="#FFFFFE" points="-337.663,-290.148 -337.663,-290.148 -337.213,-295.501 -349.492,-295.501 -349.492,-290.179 
			-343.099,-290.163 -343.099,-290.163 -343.502,-283.094 -349.492,-281.352 -349.492,-275.43 -349.492,-275.429 -338.625,-278.714 
					"/>
	</g>
</g>
<g>
	<rect x="-314.833" y="-319.911" fill="#6181B6" width="55.846" height="55.846"/>
	<g id="Layer_2_1_">
		<g>
			<path fill="#F9F9F9" d="M-301.557-295.79c1.481,0,2.469,0.278,2.961,0.833c0.494,0.555,0.611,1.509,0.354,2.859
				c-0.27,1.405-0.789,2.409-1.558,3.011s-1.94,0.902-3.512,0.902h-2.371l1.456-7.605H-301.557z M-311.054-280.488h3.898l0.924-4.83
				h3.339c1.473,0,2.686-0.157,3.637-0.472c0.952-0.314,1.815-0.841,2.594-1.581c0.654-0.609,1.182-1.282,1.586-2.018
				c0.404-0.734,0.692-1.545,0.861-2.433c0.412-2.154,0.101-3.832-0.933-5.033c-1.034-1.202-2.679-1.803-4.934-1.803h-7.497
				L-311.054-280.488z"/>
			<path fill="#F9F9F9" d="M-291.35-303.488h3.867l-0.924,4.831h3.445c2.168,0,3.662,0.384,4.485,1.151
				c0.823,0.769,1.069,2.013,0.741,3.733l-1.619,8.455h-3.928l1.539-8.041c0.175-0.914,0.111-1.538-0.193-1.871
				c-0.305-0.332-0.951-0.499-1.941-0.499h-3.09l-1.992,10.409h-3.868L-291.35-303.488z"/>
			<path fill="#F9F9F9" d="M-271.132-295.79c1.481,0,2.469,0.278,2.961,0.833c0.493,0.555,0.61,1.509,0.353,2.859
				c-0.27,1.405-0.788,2.409-1.558,3.011c-0.769,0.602-1.939,0.902-3.511,0.902h-2.371l1.455-7.605H-271.132z M-280.629-280.488
				h3.897l0.925-4.83h3.338c1.475,0,2.686-0.157,3.637-0.472s1.816-0.841,2.596-1.581c0.652-0.609,1.182-1.282,1.586-2.018
				c0.404-0.734,0.691-1.545,0.861-2.433c0.412-2.154,0.102-3.832-0.933-5.033c-1.034-1.202-2.68-1.803-4.935-1.803h-7.495
				L-280.629-280.488z"/>
		</g>
	</g>
</g>
<g>
	<rect x="-627.824" y="-319.911" fill="#FFFFFF" width="56" height="56"/>
	<g>
		<path fill="#F6A2AD" d="M-616.364-289.798c-0.794-1.15-1.59-1.289-1.59-1.289h-7.639c0,0,3.493,0.871,3.871,6.586
			c0.308,4.67,1.875,5.605,1.875,5.605h0.147C-619.532-278.954-618.359-279.723-616.364-289.798z"/>
		<path fill="#F6A2AD" d="M-599.888-291.888c-0.057-0.303-0.113-0.609-0.171-0.927c-2.229-12.116-3.584-12.116-3.584-12.116h-7.511
			c0,0,0.004,0.003,0.011,0.009h6.442c0,0-1.698,1.275-3.225,10.133c0.149,0.875,0.299,1.823,0.444,2.852
			c1.621,11.455,3.686,13.039,3.686,13.039h0.152C-603.643-278.899-602.296-278.913-599.888-291.888z"/>
		<path fill="#F6A2AD" d="M-584.751-284.95c0.224-2.258,0.749-3.688,1.301-4.592c-0.197-0.996-0.406-2.083-0.62-3.273
			c-2.229-12.115-3.585-12.115-3.585-12.115h-0.968c0,0-1.732,1.301-3.271,10.396c0.136,0.804,0.271,1.667,0.402,2.596
			c1.621,11.455,3.686,13.039,3.686,13.039h0.488C-587.185-278.962-585.248-279.934-584.751-284.95z"/>
		<path fill="#EB7077" d="M-588.623-304.93h-6.543h-0.968c0,0-1.354,0-3.585,12.115c-0.057,0.317-0.113,0.624-0.169,0.927
			c-2.408,12.975-3.755,12.989-3.755,12.989h7.509h0.152c0,0,2.064-1.584,3.686-13.039c0.131-0.929,0.266-1.792,0.401-2.596
			C-590.356-303.629-588.623-304.93-588.623-304.93z"/>
		<path fill="#EB7077" d="M-604.7-304.922h-6.442h-1.067c0,0-1.355,0-3.584,12.116c-0.197,1.085-0.387,2.084-0.569,3.008
			c-1.995,10.074-3.169,10.844-3.335,10.902c-0.014,0.004-0.021,0.004-0.021,0.004h7.66c0,0,2.064-1.584,3.686-13.038
			c0.146-1.032,0.296-1.983,0.448-2.86C-606.399-303.647-604.7-304.922-604.7-304.922z"/>
		<path fill="#EB7077" d="M-581.696-291.087c0,0-0.909,0.16-1.755,1.545c-0.552,0.904-1.077,2.334-1.301,4.592
			c-0.497,5.016-2.434,5.988-2.567,6.051c-0.006,0.002-0.007,0.004-0.007,0.004h7.522c0,0,1.568-0.936,1.876-5.605
			c0.377-5.715,3.87-6.586,3.87-6.586H-581.696z"/>
	</g>
</g>
<g>
	<rect x="-690.407" y="-319.911" fill="#FFFFFF" width="56" height="55.999"/>
	<path d="M-669.128-294.696c-1.679,0-3.427-0.256-5.176-0.452c-1.808-0.193-3.554-0.45-5.233-0.45c-6.078,0-8.66,3.877-8.66,9.631
		v1.877h4.653v-1.162c0.066-3.299,1.877-4.461,5.042-4.461c1.297,0,2.651,0.193,4.072,0.387c1.425,0.197,2.975,0.391,4.658,0.391
		c4.522,0.059,6.462-1.877,7.237-5.108h0.128c0.775,3.227,2.783,5.167,7.306,5.108c1.74,0,3.299-0.193,4.713-0.391
		c1.424-0.193,2.781-0.387,4.078-0.387c3.225,0,5.037,1.229,5.1,4.461v1.162h4.594v-1.875c0-5.625-2.328-9.629-8.852-9.629
		c-1.617,0-3.426,0.257-5.174,0.45c-1.746,0.194-3.426,0.453-5.105,0.453c-1.875,0-4.521-0.584-4.592-5.041h-4.202
		C-664.605-295.276-667.06-294.696-669.128-294.696z"/>
</g>
<g>
	<rect x="-565.241" y="-318.942" fill="#FFFFFF" width="56" height="56"/>
	<g>
		<path fill="#563D7C" d="M-529.754-287.871c-1.017-0.77-2.358-1.154-4.03-1.154h-8.401v9.631h8.254
			c0.754,0,1.475-0.074,2.162-0.221c0.688-0.148,1.294-0.395,1.817-0.738c0.525-0.344,0.943-0.811,1.254-1.4s0.467-1.342,0.467-2.26
			C-528.232-285.815-528.74-287.1-529.754-287.871z"/>
		<path fill="#563D7C" d="M-508.272-319.911h-57.939l0,0v57.938l0,0l0,0h57.939l0,0V-319.911L-508.272-319.911z M-521.55-278.979
			c-0.688,1.295-1.613,2.352-2.775,3.17c-1.163,0.818-2.489,1.426-3.979,1.818s-3.022,0.59-4.594,0.59H-549.9v-35.081h16.508
			c1.672,0,3.195,0.147,4.57,0.442c1.376,0.294,2.556,0.777,3.537,1.45c0.982,0.671,1.744,1.563,2.285,2.677
			c0.541,1.114,0.81,2.489,0.81,4.127c0,1.769-0.4,3.244-1.202,4.422c-0.804,1.179-1.99,2.146-3.563,2.898
			c2.161,0.623,3.774,1.711,4.84,3.267c1.063,1.557,1.596,3.432,1.596,5.625C-520.519-281.803-520.862-280.272-521.55-278.979z"/>
		<path fill="#563D7C" d="M-530.984-295.265c0.885-0.655,1.327-1.72,1.327-3.193c0-0.819-0.147-1.491-0.442-2.015
			c-0.295-0.523-0.688-0.933-1.18-1.229c-0.491-0.294-1.055-0.499-1.694-0.614c-0.64-0.114-1.302-0.171-1.99-0.171h-7.223v8.205
			h7.813C-532.998-294.282-531.868-294.61-530.984-295.265z"/>
	</g>
</g>
<g>
	<rect x="-2.497" y="-319.911" fill="#B0B0B0" width="57" height="56.693"/>
	<g>
		<ellipse fill="#FFFFFF" cx="26.004" cy="-306.282" rx="15.952" ry="5.146"/>
		<path fill="#FFFFFF" d="M26.004-298.982c-8.811,0-15.953-2.306-15.953-5.146v7.656c0,2.842,7.143,5.147,15.953,5.147
			c8.808,0,15.952-2.304,15.952-5.147v-7.656C41.956-301.288,34.812-298.982,26.004-298.982z"/>
		<path fill="#FFFFFF" d="M26.004-289.172c-8.811,0-15.953-2.304-15.953-5.146v7.66c0,2.841,7.143,5.145,15.953,5.145
			c8.808,0,15.952-2.306,15.952-5.145v-7.66C41.956-291.475,34.812-289.172,26.004-289.172z"/>
		<path fill="#FFFFFF" d="M26.004-279.36c-8.811,0-15.953-2.304-15.953-5.145v7.658c0,2.841,7.143,5.145,15.953,5.145
			c8.808,0,15.952-2.304,15.952-5.145v-7.658C41.956-281.664,34.812-279.36,26.004-279.36z"/>
	</g>
</g>
<g>
	<rect x="373" y="-319.911" fill="#0D83D3" width="57.001" height="56.693"/>
	<g>
		<ellipse fill="#FFFFFF" cx="401.501" cy="-306.282" rx="15.952" ry="5.146"/>
		<path fill="#FFFFFF" d="M401.501-298.982c-8.811,0-15.953-2.306-15.953-5.146v7.656c0,2.842,7.143,5.147,15.953,5.147
			c8.809,0,15.952-2.305,15.952-5.147v-7.656C417.453-301.288,410.309-298.982,401.501-298.982z"/>
		<path fill="#FFFFFF" d="M401.501-289.172c-8.811,0-15.953-2.304-15.953-5.146v7.66c0,2.841,7.143,5.145,15.953,5.145
			c8.809,0,15.952-2.306,15.952-5.145v-7.66C417.453-291.475,410.309-289.172,401.501-289.172z"/>
		<path fill="#FFFFFF" d="M401.501-279.36c-8.811,0-15.953-2.304-15.953-5.145v7.658c0,2.841,7.143,5.145,15.953,5.145
			c8.809,0,15.952-2.304,15.952-5.145v-7.658C417.453-281.664,410.309-279.36,401.501-279.36z"/>
	</g>
</g>
<g>
	<polygon fill="#7EBCF9" points="1,0.346 56.999,0.346 56.999,56.346 1.061,56.346 	"/>
	<rect x="5.755" y="5.011" fill="#252653" width="46.614" height="46.328"/>
	<path fill="#87BCF6" d="M42.58,22.228c-4.146-2.091-11.286-1.078-11.286,4.378c0,4.063,2.812,5.663,6.249,7.005
		c4.886,1.907,0.139,5.512-5.826,1.784c0,0-0.213-0.105-0.317,0c-0.105,0.105-0.105,0.211-0.105,0.318c0,0.105,0,3.916,0,3.916
		c2.085,1.067,3.641,1.609,6.047,1.584c7.763-0.079,8.88-7.512,4.752-10.37c-0.75-0.521-2.755-1.56-3.388-1.802
		c-3.282-1.252-3.004-3.032-1.962-3.93c1.151-0.995,4.343,0.51,5.686,1.35c0.814,0.502,0.948-0.123,0.944-0.673l-0.011-2.602
		C43.362,22.568,43.148,22.518,42.58,22.228z"/>
	<path fill="#87BCF6" d="M18.611,28.727v-9.531c0-0.047,0.167-0.21,0.21-0.21c4.038-0.207,6.337,0.583,6.542,4.896
		c0.235,4.95-3.915,5.055-6.752,5.055V28.727z M13.741,15.49v25.623h4.87v-8.258c5.985,0.427,11.384-1.719,11.384-8.637
		c0-2.79-0.868-5.598-2.927-7.295C24.191,14.549,17.468,15.077,13.741,15.49z"/>
</g>
</svg>
