<?xml version="1.0" encoding="utf-8"?>
<!-- Generator: Adobe Illustrator 16.0.0, SVG Export Plug-In . SVG Version: 6.00 Build 0)  -->
<!DOCTYPE svg PUBLIC "-//W3C//DTD SVG 1.1//EN" "http://www.w3.org/Graphics/SVG/1.1/DTD/svg11.dtd">
<svg version="1.1" id="Calque_1" xmlns="http://www.w3.org/2000/svg" xmlns:xlink="http://www.w3.org/1999/xlink" x="0px" y="0px"
	 width="56.693px" height="56.693px" viewBox="0 0 56.693 56.693" enable-background="new 0 0 56.693 56.693" xml:space="preserve">
<g>
	<g>
		<g>
			<g>
				<polygon fill="#FCCC5A" points="-232.22,-155.83 -235.402,-193.535 -196.054,-193.535 -199.235,-155.83 -215.725,-151.303 				
					"/>
				<g>
					<path fill="#D9A730" d="M-197.959-191.785l-2.917,34.59l-14.851,4.077l-14.854-4.077l-2.918-34.59H-197.959 M-194.151-195.285
						h-43.153l3.442,40.818l18.137,4.979l18.133-4.979L-194.151-195.285L-194.151-195.285z"/>
				</g>
			</g>
			<polygon fill="none" points="-215.725,-149.488 -233.862,-154.467 -237.304,-195.285 -215.725,-195.285 			"/>
		</g>
		<g>
			<g>
				<g>
					<polygon fill="#FFFEFD" points="-216.806,-158.375 -226.579,-160.761 -226.579,-165.563 -221.841,-164.406 -221.841,-187.889 
						-216.806,-187.889 					"/>
				</g>
			</g>
			<g>
				<g>
					<polygon fill="#FFFEFD" points="-214.454,-158.383 -214.454,-163.24 -209.469,-164.666 -208.539,-172.319 -214.454,-172.319 
						-214.454,-187.81 -201.587,-187.81 -202.162,-183.167 -209.417,-183.167 -209.417,-176.959 -202.905,-176.959 
						-204.83,-161.135 					"/>
				</g>
			</g>
		</g>
	</g>
	<text transform="matrix(1 0 0 1 -237.2683 -197.408)" font-family="'MyriadPro-Regular'" font-size="9">JAVASCRIPT</text>
	<path fill="#5DA3C2" d="M-208.95-180.629l0.033,0.141c0.008,0.04-0.017,0.073-0.058,0.073"/>
</g>
<g>
	<polyline fill="#3558A8" points="-180.489,-147.62 -124.249,-147.62 -124.249,-204.912 -180.489,-204.912 -180.489,-147.62 	"/>
	<path fill="#FFFFFF" d="M-137.796-180.317l-0.172-0.74c-0.135-0.537-0.519-0.79-1.384-0.79h-3.634
		c-0.085,0-0.168,0.038-0.186,0.122l-1.379,6.662c-0.018,0.085-0.023,0.144-0.014,0.186s0.171,0.036,0.254,0.036h1.259
		c0.085,0,0.238,0.005,0.282-0.013c0.047-0.02,0.066-0.147,0.084-0.231l0.446-2.335l0.542-2.592
		c0.018-0.083,0.101-0.151,0.184-0.151l3.601-0.002C-137.828-180.166-137.776-180.234-137.796-180.317"/>
	<path fill="#FFFFFF" d="M-132.672-183.017c-0.085,0.001-1.598,0-1.598,0c-0.083,0-0.191,0.091-0.238,0.161l-2.804,4.201
		c-0.047,0.07-0.102,0.068-0.12-0.016l-0.207-0.92c-0.018-0.084-0.102-0.15-0.186-0.15h-1.803c-0.082,0-0.132,0.069-0.11,0.152
		l0.808,2.883c0.023,0.084,0.026,0.219,0.005,0.301l-0.377,1.461c-0.021,0.083,0.032,0.107,0.116,0.107h1.78
		c0.082,0,0.169-0.024,0.189-0.107l0.377-1.481c0.021-0.083,0.078-0.194,0.129-0.264l4.574-6.181
		c0.052-0.067,0.044-0.148-0.039-0.148L-132.672-183.017"/>
	<path fill="#FFFFFF" d="M-151.429-181.843h-1.627c-0.082,0-0.168,0.031-0.184,0.113l-0.537,2.563l-0.536,2.452
		c-0.017,0.083-0.099,0.078-0.183,0.078h-1.068c-1.058,0-0.936-0.681-0.719-1.7c0.002-0.01,0.679-3.393,0.679-3.393
		c0.015-0.082-0.04-0.113-0.123-0.113h-1.549c-0.084,0-0.167,0.031-0.183,0.113l-0.624,3.389c-0.311,1.833-0.32,3.446,1.767,3.499
		c0.033,0.001,3.292,0,3.292,0c0.085,0,0.167-0.028,0.186-0.111l0.708-3.398l0.704-3.411
		C-151.426-181.763-151.401-181.843-151.429-181.843"/>
	<path fill="#FFFFFF" d="M-167.623-181.847h-1.743c-0.084,0-0.168,0.021-0.186,0.104l-0.315,1.385
		c-0.019,0.082,0.036,0.148,0.12,0.148h1.669c0.085,0,0.168-0.077,0.186-0.16l0.303-1.396
		C-167.59-181.766-167.566-181.847-167.623-181.847"/>
	<path fill="#FFFFFF" d="M-169.861-179.741c-0.083,0-0.168,0.066-0.186,0.15l-0.235,1.057l-0.524,2.441c0,0-0.279,1.299-0.306,1.38
		c0,0-0.235,0.938-0.796,0.901c-0.261-0.02-0.56-0.079-0.56-0.079h-0.001c-0.156-0.049-0.168,0.116-0.187,0.2l-0.347,1.522
		c-0.02,0.082,0.033,0.157,0.116,0.159c0,0,0.751,0.107,1.28,0.107h0.088c1.309,0,2.001-0.784,2.443-2.913l0.518-2.466l0.486-2.293
		c0.018-0.082-0.032-0.16-0.115-0.16"/>
	<path fill="#FFFFFF" d="M-146.542-178.927c0,0.092-0.287,0.075-0.287,0.075l-2.286-0.018c-0.079,0-0.102-0.112-0.106-0.192
		c0-0.004,0.006-0.098,0.012-0.121c0.177-0.625,0.704-0.98,1.54-0.98c0.94,0,1.141,0.475,1.141,1.002 M-147.316-181.858
		c-2.932,0-3.632,1.846-4.021,3.677c-0.389,1.865-0.355,3.34,2.678,3.34h0.11c1.203,0,2.666,0,2.666,0
		c0.082-0.002,0.163-0.078,0.18-0.161l0.3-1.184c0.016-0.084-0.039-0.107-0.122-0.107h-2.729c-0.988,0-1.343-0.312-1.308-1.008
		c-0.001-0.079,0.088-0.281,0.172-0.281h4.203c0.186-0.001,0.19-0.109,0.19-0.109C-144.57-179.661-144.54-181.858-147.316-181.858"
		/>
	<path fill="#FFFFFF" d="M-161.536-178.013l-0.338,1.177c-0.023,0.082-0.119,0.137-0.203,0.137h-1.742
		c-1.322,0-1.645-1.041-1.322-2.595c0.322-1.589,0.962-2.571,2.262-2.671c1.779-0.137,2.144,1.143,1.712,2.613L-161.536-178.013
		 M-159.988-176.766c0,0,0.821-2.033,1.008-3.207c0.255-1.572-0.518-3.852-3.501-3.852c-2.967,0-4.255,2.176-4.747,4.543
		c-0.49,2.383,0.151,4.457,3.102,4.44l4.503-0.002c0.083,0,0.17-0.069,0.19-0.15l0.381-1.473c0.02-0.084-0.031-0.151-0.115-0.151
		l-0.362-0.002l-0.362-0.002c-0.072,0-0.113-0.049-0.104-0.11C-159.993-176.744-159.992-176.755-159.988-176.766"/>
	<path fill="#5DA3C2" d="M-148.177-179.075c-0.009,0.037-0.019,0.086-0.025,0.119l-0.29,1.357l0.306-1.431L-148.177-179.075"/>
</g>
<g>
	<rect x="134.334" y="-203.721" fill="#5BD3BF" width="56.693" height="57.007"/>
	<g>
		
			<linearGradient id="bottom_1_" gradientUnits="userSpaceOnUse" x1="349.281" y1="356.4695" x2="349.281" y2="390.4299" gradientTransform="matrix(1 0 0 1 -187.5996 -549.9902)">
			<stop  offset="0" style="stop-color:#002E3B"/>
			<stop  offset="1" style="stop-color:#002639"/>
		</linearGradient>
		
			<linearGradient id="bottom_2_" gradientUnits="userSpaceOnUse" x1="349.2781" y1="352.6736" x2="349.2781" y2="390.8687" gradientTransform="matrix(1 0 0 1 -187.5996 -549.9902)">
			<stop  offset="0" style="stop-color:#002E3B"/>
			<stop  offset="1" style="stop-color:#002639"/>
		</linearGradient>
		<polygon id="bottom" fill="url(#bottom_1_)" stroke="url(#bottom_2_)" points="161.668,-164.42 156.738,-166.824 
			156.744,-166.826 156.742,-166.826 151.506,-164.273 161.672,-159.312 171.855,-164.261 166.599,-166.865 		"/>
		
			<radialGradient id="right_2_" cx="290.7976" cy="37.7039" r="30.2203" gradientTransform="matrix(1 0 0 -1 -137.6001 -123.2974)" gradientUnits="userSpaceOnUse">
			<stop  offset="0" style="stop-color:#00BC85"/>
			<stop  offset="1" style="stop-color:#149D91"/>
		</radialGradient>
		
			<radialGradient id="right_3_" cx="290.6013" cy="36.5378" r="34.5951" gradientTransform="matrix(1 0 0 -1 -137.6001 -123.2974)" gradientUnits="userSpaceOnUse">
			<stop  offset="0" style="stop-color:#00BC85"/>
			<stop  offset="1" style="stop-color:#149D91"/>
		</radialGradient>
		<polygon id="right_1_" fill="url(#right_2_)" stroke="url(#right_3_)" points="151.517,-164.256 151.517,-169.366 
			156.558,-171.823 161.742,-169.266 		"/>
		
			<radialGradient id="right-2_1_" cx="350.907" cy="354.8367" r="36.5113" gradientTransform="matrix(1 0 0 1 -187.5996 -549.9902)" gradientUnits="userSpaceOnUse">
			<stop  offset="0" style="stop-color:#00BC85"/>
			<stop  offset="1" style="stop-color:#149D91"/>
		</radialGradient>
		
			<radialGradient id="right-2_2_" cx="350.1785" cy="353.5339" r="39.5597" gradientTransform="matrix(1 0 0 1 -187.5996 -549.9902)" gradientUnits="userSpaceOnUse">
			<stop  offset="0" style="stop-color:#00BC85"/>
			<stop  offset="1" style="stop-color:#149D91"/>
		</radialGradient>
		<polygon id="right-2" fill="url(#right-2_1_)" stroke="url(#right-2_2_)" points="167.261,-185.283 167.261,-177.205 
			167.261,-177.205 167.261,-177.205 161.627,-174.458 166.808,-171.878 171.853,-174.335 171.853,-188.155 		"/>
		
			<radialGradient id="left_2_" cx="341.45" cy="352.1609" r="69.7941" gradientTransform="matrix(1 0 0 1 -187.5996 -549.9902)" gradientUnits="userSpaceOnUse">
			<stop  offset="0" style="stop-color:#004473"/>
			<stop  offset="1" style="stop-color:#00345F"/>
		</radialGradient>
		
			<radialGradient id="left_3_" cx="341.1199" cy="350.8005" r="73.7601" gradientTransform="matrix(1 0 0 1 -187.5996 -549.9902)" gradientUnits="userSpaceOnUse">
			<stop  offset="0" style="stop-color:#004473"/>
			<stop  offset="1" style="stop-color:#00345F"/>
		</radialGradient>
		<polygon id="left_1_" fill="url(#left_2_)" stroke="url(#left_3_)" points="171.855,-164.26 171.855,-164.26 171.855,-169.368 
			156.111,-177.209 156.111,-185.289 151.517,-188.159 151.517,-174.339 		"/>
		
			<linearGradient id="top_1_" gradientUnits="userSpaceOnUse" x1="349.2703" y1="356.6462" x2="349.2703" y2="390.4295" gradientTransform="matrix(1 0 0 1 -187.5996 -549.9902)">
			<stop  offset="0" style="stop-color:#002E3B"/>
			<stop  offset="1" style="stop-color:#002639"/>
		</linearGradient>
		
			<linearGradient id="top_2_" gradientUnits="userSpaceOnUse" x1="349.2703" y1="356.1492" x2="349.2703" y2="394.0426" gradientTransform="matrix(1 0 0 1 -187.5996 -549.9902)">
			<stop  offset="0" style="stop-color:#002E3B"/>
			<stop  offset="1" style="stop-color:#002639"/>
		</linearGradient>
		<polygon id="top" fill="url(#top_1_)" stroke="url(#top_2_)" points="156.097,-185.297 156.097,-185.299 161.672,-188.018 
			167.246,-185.299 171.834,-188.164 161.668,-193.123 151.506,-188.166 151.506,-188.162 156.094,-185.295 		"/>
	</g>
</g>
<g>
	<rect x="0" y="0" fill="#CCFFCC" width="56.693" height="56.693"/>
	<g id="Responsive_Design_1_">
		<path fill="#757575" d="M45.798,41.578c0,0.067,0,0.103,0,0.169c0,1.838-4.408,3.301-9.844,3.301s-9.844-1.463-9.844-3.301
			c0-0.066,0-0.102,0.033-0.169c-0.033-0.034-0.033-0.103-0.033-0.169c0-1.805,4.408-3.301,9.844-3.301s9.844,1.496,9.844,3.301
			C45.798,41.475,45.798,41.544,45.798,41.578z"/>
		<path fill="#696969" d="M45.798,41.578c0,0.067,0,0.103,0,0.169c0,1.838-4.408,3.301-9.844,3.301c-0.232,0-0.465,0-0.695,0v-6.905
			c0.23-0.034,0.463-0.034,0.695-0.034c5.436,0,9.844,1.496,9.844,3.301C45.798,41.475,45.798,41.544,45.798,41.578z"/>
		<path fill="#757575" d="M35.259,38.142c0.23-0.034,0.463-0.034,0.695-0.034c5.27,0,9.545,1.395,9.844,3.129
			c-0.299,1.734-4.574,3.096-9.844,3.096c-0.232,0-0.463,0-0.695,0V38.142z"/>
		<ellipse fill="#8D8D8D" cx="35.954" cy="41.033" rx="9.844" ry="3.3"/>
		<path fill="#7F7F7F" d="M35.954,37.768c5.436,0,9.844,1.463,9.844,3.266c0,1.837-4.408,3.299-9.844,3.299
			c-0.232,0-0.463,0-0.695,0v-6.564C35.489,37.768,35.721,37.768,35.954,37.768z"/>
		<polygon fill="#CCCCCC" points="32.407,31.441 39.534,31.441 39.534,40.216 32.407,40.216 		"/>
		<polygon fill="#B8B8B8" points="39.534,36.169 39.534,40.216 35.259,40.216 35.259,36.169 		"/>
		<polygon fill="#B8B8B8" points="32.938,32.019 39.135,32.019 39.135,39.673 32.938,39.673 		"/>
		<polygon fill="#A6A6A6" points="39.135,36.169 39.135,39.673 35.259,39.673 35.259,36.169 		"/>
		<path fill="#A9ABAE" d="M18.122,10.896H53.95c0.365,0,0.664,0.306,0.664,0.681V35.49c0,0.373-0.299,0.679-0.664,0.679H18.122
			c-0.365,0-0.662-0.306-0.662-0.679V11.577C17.46,11.202,17.757,10.896,18.122,10.896z"/>
		<path fill="#669999" d="M19.548,11.884h33.607c0.266,0,0.496,0.238,0.496,0.544v21.667c0,0.306-0.23,0.545-0.496,0.545H18.952
			c-0.299,0-0.531-0.239-0.531-0.545V13.039C18.421,12.393,18.917,11.884,19.548,11.884z"/>
		<path fill="#CCCCCC" d="M36.053,34.775c0.273,0,0.496,0.229,0.496,0.51s-0.223,0.511-0.496,0.511
			c-0.275,0-0.498-0.229-0.498-0.511S35.778,34.775,36.053,34.775z"/>
		<ellipse fill="#B3B3B3" cx="36.053" cy="35.285" rx="0.365" ry="0.374"/>
		<path fill="#336666" d="M20.542,12.597h31.553c0.266,0,0.465,0.204,0.465,0.476v20.375c0,0.273-0.199,0.477-0.465,0.477H19.979
			c-0.266,0-0.465-0.203-0.465-0.477V13.652C19.514,13.073,19.979,12.597,20.542,12.597z"/>
		<rect x="22.663" y="15.149" fill="#E6E6E6" width="21.113" height="17.721"/>
		<rect x="20.044" y="15.114" fill="#66FFCC" width="1.807" height="17.73"/>
		<rect x="44.405" y="15.251" fill="#E6E6E6" width="4.375" height="17.551"/>
		<rect x="49.774" y="15.114" fill="#E6E6E6" width="1.807" height="17.73"/>
		<rect x="44.737" y="15.625" fill="#CCCCCC" width="3.779" height="5"/>
		<rect x="44.737" y="21.169" fill="#CCCCCC" width="3.777" height="2.858"/>
		<rect x="44.737" y="24.774" fill="#CCCCCC" width="3.777" height="1.814"/>
		<rect x="44.737" y="27.223" fill="#CCCCCC" width="3.779" height="5.035"/>
		<path fill="#33CC99" d="M49.973,15.625h0.564v0.578h-0.564V15.625z M50.802,31.782h0.564v0.578h-0.564V31.782z M49.973,31.782
			h0.564v0.578h-0.564V31.782z M50.802,31h0.564v0.611h-0.564V31z M49.973,31h0.564v0.611h-0.564V31z M50.802,30.251h0.564v0.578
			h-0.564V30.251z M49.973,30.251h0.564v0.578h-0.564V30.251z M50.802,29.469h0.564v0.578h-0.564V29.469z M49.973,29.469h0.564
			v0.578h-0.564V29.469z M50.802,28.686h0.564v0.612h-0.564V28.686z M49.973,28.686h0.564v0.612h-0.564V28.686z M50.802,27.938
			h0.564v0.578h-0.564V27.938z M49.973,27.938h0.564v0.578h-0.564V27.938z M50.802,27.156h0.564v0.612h-0.564V27.156z
			 M49.973,27.156h0.564v0.612h-0.564V27.156z M50.802,26.374h0.564v0.611h-0.564V26.374z M49.973,26.374h0.564v0.611h-0.564V26.374
			z M50.802,25.625h0.564v0.578h-0.564V25.625z M49.973,25.625h0.564v0.578h-0.564V25.625z M50.802,24.843h0.564v0.612h-0.564
			V24.843z M49.973,24.843h0.564v0.612h-0.564V24.843z M50.802,24.094h0.564v0.578h-0.564V24.094z M49.973,24.094h0.564v0.578
			h-0.564V24.094z M50.802,23.311h0.564v0.579h-0.564V23.311z M49.973,23.311h0.564v0.579h-0.564V23.311z M50.802,22.53h0.564v0.613
			h-0.564V22.53z M49.973,22.53h0.564v0.613h-0.564V22.53z M50.802,21.78h0.564v0.58h-0.564V21.78z M49.973,21.78h0.564v0.58h-0.564
			V21.78z M50.802,20.999h0.564v0.612h-0.564V20.999z M49.973,20.999h0.564v0.612h-0.564V20.999z M50.802,20.216h0.564v0.613h-0.564
			V20.216z M49.973,20.216h0.564v0.613h-0.564V20.216z M50.802,19.469h0.564v0.577h-0.564V19.469z M49.973,19.469h0.564v0.577
			h-0.564V19.469z M50.802,18.686h0.564v0.612h-0.564V18.686z M49.973,18.686h0.564v0.612h-0.564V18.686z M50.802,17.938h0.564
			v0.578h-0.564V17.938z M49.973,17.938h0.564v0.578h-0.564V17.938z M50.802,17.155h0.564v0.579h-0.564V17.155z M49.973,17.155
			h0.564v0.579h-0.564V17.155z M50.802,16.374h0.564v0.611h-0.564V16.374z M49.973,16.374h0.564v0.611h-0.564V16.374z
			 M50.802,15.625h0.564v0.578h-0.564V15.625z"/>
		<rect x="21.038" y="12.971" fill="#999999" width="30.006" height="1.465"/>
		<ellipse fill="#B3B3B3" cx="22.034" cy="13.72" rx="0.363" ry="0.375"/>
		<path fill="#B3B3B3" d="M23.889,13.345c0.201,0,0.363,0.169,0.363,0.374c0,0.207-0.162,0.375-0.363,0.375
			s-0.365-0.168-0.365-0.375C23.524,13.514,23.688,13.345,23.889,13.345z"/>
		<path fill="#B3B3B3" d="M25.745,13.345c0.201,0,0.365,0.169,0.365,0.374c0,0.207-0.164,0.375-0.365,0.375
			s-0.365-0.168-0.365-0.375C25.38,13.514,25.544,13.345,25.745,13.345z"/>
		<path fill="#B3B3B3" d="M27.569,13.345c0.199,0,0.363,0.169,0.363,0.374c0,0.207-0.164,0.375-0.363,0.375
			c-0.203,0-0.365-0.168-0.365-0.375C27.204,13.514,27.366,13.345,27.569,13.345z"/>
		<ellipse fill="#B3B3B3" cx="29.425" cy="13.72" rx="0.363" ry="0.375"/>
		<ellipse fill="#B3B3B3" cx="31.28" cy="13.72" rx="0.365" ry="0.375"/>
		<ellipse fill="#B3B3B3" cx="33.137" cy="13.72" rx="0.363" ry="0.375"/>
		<ellipse fill="#B3B3B3" cx="34.993" cy="13.72" rx="0.365" ry="0.375"/>
		<ellipse fill="#B3B3B3" cx="36.815" cy="13.72" rx="0.365" ry="0.375"/>
		<path fill="#B3B3B3" d="M38.671,13.345c0.201,0,0.365,0.169,0.365,0.374c0,0.207-0.164,0.375-0.365,0.375
			c-0.199,0-0.363-0.168-0.363-0.375C38.307,13.514,38.471,13.345,38.671,13.345z"/>
		<ellipse fill="#B3B3B3" cx="40.528" cy="13.72" rx="0.363" ry="0.375"/>
		<ellipse fill="#B3B3B3" cx="42.384" cy="13.72" rx="0.365" ry="0.375"/>
		<ellipse fill="#B3B3B3" cx="44.206" cy="13.72" rx="0.365" ry="0.375"/>
		<ellipse fill="#B3B3B3" cx="46.063" cy="13.72" rx="0.363" ry="0.375"/>
		<path fill="#B3B3B3" d="M47.919,13.345c0.201,0,0.365,0.169,0.365,0.374c0,0.207-0.164,0.375-0.365,0.375
			s-0.365-0.168-0.365-0.375C47.553,13.514,47.718,13.345,47.919,13.345z"/>
		<ellipse fill="#B3B3B3" cx="49.774" cy="13.72" rx="0.365" ry="0.375"/>
		<polygon fill="#FFCC00" points="33.235,18.788 35.425,20.081 37.61,21.374 37.61,23.993 37.61,26.611 35.425,27.904 
			33.235,29.196 31.048,27.904 28.862,26.611 28.862,23.993 28.862,21.374 31.048,20.081 		"/>
		<polygon fill="#FFAB00" points="33.235,18.788 35.425,20.081 37.61,21.374 37.61,23.719 28.862,23.719 28.862,21.374 
			31.048,20.081 		"/>
		<path fill="#CCCCCC" d="M33.202,16.474L33.202,16.474h-0.031h-0.066h-0.035c-0.064,0-0.131-0.067-0.131-0.136
			c0-0.102,0.066-0.136,0.131-0.17h0.035h0.066h0.031l0,0h0.068h0.033h0.064l0.033,0.034h0.066h0.033
			c0.066,0,0.133,0.067,0.133,0.136c-0.033,0.068-0.066,0.136-0.166,0.136h-0.033h-0.033h-0.033h-0.064H33.27H33.202z
			 M32.241,16.237c0.066,0,0.133,0.067,0.166,0.137c0,0.068-0.066,0.135-0.133,0.135l0,0l-0.033,0.035h-0.064h-0.035h-0.033h-0.066
			l-0.031,0.033c-0.066,0-0.135-0.068-0.135-0.135c-0.031-0.07,0.035-0.138,0.1-0.138l0.035-0.034h0.031h0.066h0.033l0.066-0.033
			H32.241L32.241,16.237z M31.18,16.474c0.066-0.032,0.133,0.034,0.166,0.103c0,0.068-0.033,0.137-0.1,0.171h-0.033H31.18
			l-0.066,0.032h-0.033l-0.033,0.035h-0.064l0,0c-0.068,0.033-0.133,0-0.166-0.067c-0.033-0.103,0-0.171,0.098-0.204l0,0h0.035
			l0.066-0.035h0.031h0.033l0.066-0.034H31.18L31.18,16.474z M30.12,16.85c0.066-0.035,0.166,0,0.199,0.067s0,0.169-0.066,0.204
			h-0.033l-0.066,0.033H30.12l-0.033,0.034l-0.033,0.034h-0.066l0,0c-0.066,0.033-0.131,0-0.166-0.068
			c-0.033-0.068,0-0.136,0.066-0.17l0,0l0.033-0.035h0.033l0.066-0.032l0.033-0.034h0.033L30.12,16.85z M29.159,17.393
			c0.066-0.033,0.133-0.033,0.199,0.034c0.033,0.067,0,0.17-0.066,0.204l-0.033,0.033h-0.033L29.192,17.7l-0.033,0.034l-0.033,0.033
			h-0.033l0,0c-0.066,0.067-0.166,0.034-0.199-0.033c-0.031-0.034-0.031-0.137,0.033-0.171V17.53h0.033l0.066-0.035l0.033-0.033
			l0.033-0.034h0.033L29.159,17.393z M28.264,18.073c0.066-0.033,0.133-0.033,0.199,0c0.033,0.068,0.033,0.17,0,0.205l-0.033,0.034
			l-0.033,0.032h-0.033l-0.033,0.035l-0.033,0.035l-0.033,0.033v0.033c-0.066,0.033-0.166,0.033-0.199-0.033
			c-0.066-0.033-0.066-0.136,0-0.17l0.033-0.035l0.033-0.033l0.033-0.034l0.033-0.034l0.033-0.033h0.033V18.073L28.264,18.073z
			 M27.503,18.89c0.033-0.069,0.131-0.069,0.164-0.034c0.066,0.068,0.066,0.137,0.033,0.204l0,0l-0.033,0.034l-0.033,0.033
			L27.6,19.162l-0.031,0.034l-0.033,0.033v0.035c-0.068,0.067-0.133,0.067-0.199,0.034c-0.066-0.069-0.066-0.137-0.033-0.204
			l0.033-0.034l0.033-0.034l0.033-0.033l0.033-0.035v-0.033l0.033-0.034H27.503z M26.839,19.774c0.033-0.034,0.1-0.068,0.166-0.034
			s0.1,0.138,0.066,0.204l-0.033,0.035l-0.033,0.033l-0.033,0.033v0.035l-0.033,0.068l-0.033,0.034l0,0
			c-0.033,0.067-0.1,0.067-0.164,0.032c-0.068-0.032-0.102-0.102-0.068-0.17v-0.033l0.033-0.033l0.033-0.035V19.91l0.033-0.032
			l0.033-0.035L26.839,19.774z M26.309,20.795c0.031-0.067,0.1-0.102,0.166-0.067c0.064,0.034,0.098,0.102,0.064,0.169v0.034
			l-0.033,0.068v0.034l-0.031,0.034V21.1l-0.033,0.068l0,0c-0.033,0.068-0.102,0.102-0.166,0.068c-0.066-0.034-0.1-0.102-0.1-0.17
			l0.033-0.034v-0.034l0.033-0.033V20.93l0.033-0.067v-0.034L26.309,20.795z M25.911,21.85c0.033-0.07,0.1-0.103,0.166-0.103
			c0.1,0.032,0.133,0.103,0.1,0.204l0,0v0.033l-0.033,0.035v0.066v0.035l-0.033,0.033v0.034c0,0.103-0.1,0.137-0.166,0.103
			c-0.066,0-0.1-0.068-0.1-0.17v-0.035l0.033-0.034v-0.067l0.033-0.035v-0.033V21.85L25.911,21.85z M25.712,22.971
			c0-0.068,0.066-0.135,0.133-0.135c0.066,0.033,0.133,0.102,0.133,0.169v0.034l-0.033,0.033v0.07v0.032v0.069v0.033l0,0
			c0,0.068-0.066,0.137-0.166,0.137c-0.066,0-0.133-0.069-0.1-0.17l0,0V23.21v-0.066v-0.035V23.04v-0.034L25.712,22.971z
			 M25.645,24.094c0-0.067,0.033-0.137,0.133-0.137c0.066,0,0.133,0.069,0.133,0.137v0.067v0.034v0.034v0.068v0.033v0.034
			c0,0.103-0.066,0.172-0.133,0.172s-0.133-0.069-0.133-0.137v-0.035v-0.067v-0.034v-0.068v-0.034V24.094z M25.712,25.251
			c0-0.068,0.066-0.17,0.133-0.17s0.133,0.033,0.166,0.102v0.068v0.035v0.066v0.035l0.033,0.034v0.033c0,0.103-0.033,0.17-0.1,0.17
			c-0.066,0.034-0.166-0.033-0.166-0.103v-0.033l-0.033-0.067v-0.034v-0.035v-0.066L25.712,25.251z M25.977,26.339
			c-0.033-0.067,0.033-0.136,0.1-0.17c0.066,0,0.133,0.034,0.166,0.103v0.033l0.033,0.034v0.035v0.033l0.033,0.068v0.033v0.035
			c0.031,0.067,0,0.135-0.066,0.17c-0.066,0.033-0.133-0.035-0.166-0.103l0,0l-0.033-0.067v-0.035l-0.033-0.033v-0.066l-0.033-0.035
			V26.339L25.977,26.339z M26.376,27.393c-0.035-0.067,0-0.135,0.066-0.17c0.064-0.034,0.164,0,0.197,0.068v0.034l0.033,0.034v0.033
			l0.033,0.035l0.035,0.033v0.068l0,0c0.031,0.067,0.031,0.17-0.035,0.204s-0.166,0-0.199-0.067v-0.035l-0.031-0.034v-0.034
			l-0.033-0.033l-0.033-0.068v-0.033L26.376,27.393z M26.938,28.38c-0.033-0.034-0.033-0.135,0.033-0.17
			c0.066-0.067,0.166-0.034,0.199,0.035l0,0l0.033,0.033l0.033,0.068v0.033l0.033,0.035l0.033,0.033l0,0
			c0.066,0.068,0.033,0.17,0,0.205c-0.066,0.033-0.166,0.033-0.199-0.035h-0.033V28.55l-0.033-0.033l-0.033-0.035l-0.033-0.034
			l-0.033-0.032V28.38L26.938,28.38z M27.634,29.299c-0.064-0.069-0.064-0.17,0-0.204c0.066-0.067,0.133-0.067,0.199,0l0,0
			l0.033,0.034l0.033,0.034l0.033,0.033l0.033,0.035l0.033,0.033v0.034c0.066,0.067,0.066,0.136,0,0.204
			c-0.033,0.034-0.133,0.034-0.199,0v-0.034l-0.033-0.034l-0.033-0.033L27.7,29.366l-0.033-0.034L27.634,29.299L27.634,29.299z
			 M28.43,30.081c-0.066-0.068-0.066-0.137-0.033-0.204c0.066-0.069,0.133-0.069,0.197-0.034l0.035,0.034l0.033,0.034l0.031,0.033
			h0.035l0.031,0.035l0.033,0.033l0,0c0.068,0.068,0.102,0.136,0.035,0.203c-0.035,0.07-0.135,0.07-0.166,0.035H28.63l-0.033-0.035
			l-0.033-0.033l-0.033-0.034l-0.033-0.032l-0.033-0.035H28.43L28.43,30.081z M29.325,30.727c-0.066-0.033-0.066-0.136-0.033-0.205
			c0.033-0.067,0.1-0.067,0.166-0.033h0.033l0.033,0.033l0.066,0.035h0.033l0.033,0.034l0.033,0.032l0,0
			c0.066,0.035,0.098,0.104,0.066,0.17c-0.033,0.069-0.133,0.104-0.199,0.069l0,0l-0.033-0.034l-0.033-0.035h-0.066l-0.033-0.032
			l-0.033-0.034H29.325L29.325,30.727z M30.319,31.237c-0.066-0.034-0.1-0.102-0.066-0.204c0.033-0.067,0.1-0.103,0.166-0.067
			L30.452,31h0.033l0.033,0.033h0.066l0.033,0.034h0.033h0.033c0.066,0.033,0.1,0.103,0.066,0.17
			c-0.033,0.102-0.1,0.137-0.166,0.102h-0.033l-0.033-0.033h-0.033l-0.066-0.034h-0.033l-0.033-0.034H30.319L30.319,31.237z
			 M31.38,31.578c-0.1,0-0.133-0.069-0.1-0.17c0-0.069,0.066-0.103,0.166-0.103l0.033,0.033h0.033h0.033l0.066,0.035h0.033h0.033
			c0.1,0.034,0.133,0.102,0.133,0.17c-0.033,0.067-0.1,0.137-0.166,0.102h-0.066h-0.033l-0.033-0.034h-0.066h-0.033L31.38,31.578z
			 M32.44,31.782c-0.066,0-0.1-0.068-0.1-0.137c0-0.102,0.066-0.137,0.133-0.137h0.033h0.066h0.033h0.033h0.066h0.033l0,0
			c0.066,0.035,0.133,0.103,0.133,0.17c0,0.068-0.066,0.137-0.133,0.137l0,0h-0.066l-0.033-0.033h-0.066H32.54h-0.066H32.44z
			 M33.567,31.815c-0.1,0-0.133-0.068-0.166-0.137c0-0.067,0.066-0.135,0.133-0.135H33.6h0.033l0.033-0.035h0.066h0.033H33.8
			c0.1,0,0.166,0.069,0.166,0.137c0,0.068-0.066,0.137-0.133,0.137H33.8l-0.066,0.033H33.7h-0.066H33.6H33.567z M34.661,31.678
			c-0.066,0-0.166-0.033-0.166-0.101c0-0.069,0.033-0.17,0.1-0.17h0.033l0.066-0.034h0.033h0.033h0.066l0.033-0.035
			c0.066,0,0.133,0.035,0.166,0.103c0,0.103-0.033,0.17-0.1,0.17l-0.033,0.034h-0.066h-0.033h-0.066l-0.033,0.033H34.661
			L34.661,31.678z M35.721,31.374c-0.066,0.034-0.166,0-0.166-0.068c-0.033-0.068,0-0.17,0.066-0.17l0.033-0.035h0.033l0.033-0.033
			h0.033h0.066l0.033-0.034h0.033c0.066-0.034,0.133,0,0.166,0.067c0.033,0.069,0,0.171-0.066,0.171l-0.033,0.034h-0.066
			l-0.033,0.033h-0.033l-0.033,0.035H35.721L35.721,31.374z M36.716,30.93c-0.066,0.035-0.131,0-0.166-0.067
			c-0.033-0.069,0-0.136,0.068-0.171v-0.033h0.031l0.033-0.035h0.068l0.031-0.033l0.033-0.033h0.035
			c0.064-0.035,0.131-0.035,0.164,0.033s0.033,0.171-0.033,0.203h-0.033l-0.033,0.035l-0.064,0.034h-0.035l-0.033,0.034
			l-0.031,0.033H36.716z M37.678,30.318c-0.068,0.069-0.168,0.034-0.199-0.032c-0.033-0.035-0.033-0.138,0.031-0.17v-0.035h0.035
			l0.033-0.034l0.031-0.034l0.033-0.033l0.035-0.035h0.031c0.068-0.067,0.166-0.033,0.199,0c0.033,0.068,0.033,0.17-0.033,0.204
			l-0.033,0.034l-0.033,0.033l-0.031,0.035h-0.035l-0.033,0.035L37.678,30.318L37.678,30.318z M38.507,29.604
			c-0.068,0.034-0.133,0.034-0.199,0c-0.033-0.068-0.033-0.17,0-0.203l0.031-0.035l0.035-0.034l0.033-0.033l0.031-0.034l0.035-0.035
			l0.033-0.033l0,0c0.066-0.068,0.133-0.068,0.197,0c0.035,0.033,0.035,0.136,0,0.205l0,0l-0.031,0.033l-0.033,0.034l-0.033,0.034
			l-0.033,0.033l-0.035,0.035L38.507,29.604z M39.235,28.754c-0.033,0.034-0.133,0.069-0.199,0c-0.033-0.033-0.066-0.136,0-0.169
			V28.55l0.033-0.033l0.033-0.035v-0.034l0.033-0.032l0.033-0.035v-0.034c0.066-0.067,0.133-0.067,0.199-0.034
			c0.066,0.034,0.066,0.136,0.033,0.205l0,0l-0.033,0.033l-0.033,0.068l-0.033,0.033l-0.031,0.035v0.034L39.235,28.754z
			 M39.831,27.802c-0.031,0.068-0.1,0.068-0.164,0.035c-0.066-0.035-0.1-0.103-0.066-0.17v-0.035l0.031-0.034l0.035-0.034V27.53
			l0.033-0.068l0.031-0.033v-0.035c0.035-0.067,0.1-0.067,0.168-0.035c0.064,0.035,0.1,0.104,0.064,0.172v0.033l-0.033,0.034v0.034
			L39.899,27.7l-0.033,0.034v0.034L39.831,27.802z M40.296,26.747c0,0.068-0.098,0.104-0.166,0.104
			c-0.066-0.035-0.1-0.137-0.066-0.205l0,0v-0.034l0.035-0.067v-0.035l0.031-0.034v-0.067l0,0c0.033-0.068,0.1-0.136,0.199-0.103
			c0.066,0.034,0.1,0.103,0.066,0.17v0.034l-0.033,0.035v0.067l-0.033,0.034v0.033v0.068H40.296L40.296,26.747z M40.628,25.659
			c-0.033,0.068-0.1,0.135-0.168,0.103c-0.064,0-0.131-0.069-0.098-0.17v-0.034v-0.035l0.033-0.033v-0.068v-0.033v-0.035v-0.033
			c0.033-0.068,0.1-0.104,0.164-0.104c0.068,0.035,0.135,0.104,0.1,0.172l0,0v0.033v0.068v0.033l-0.031,0.069v0.033V25.659
			L40.628,25.659z M40.759,24.536c0,0.068-0.064,0.137-0.131,0.137c-0.068,0-0.133-0.068-0.133-0.17l0,0v-0.068v-0.033v-0.069
			l0.033-0.034V24.23l0,0c0-0.068,0.066-0.136,0.131-0.136c0.068,0,0.133,0.067,0.133,0.17l0,0v0.033v0.068v0.035v0.067
			l-0.033,0.034V24.536z M40.759,23.415c0,0.066-0.031,0.135-0.131,0.135c-0.068,0-0.133-0.068-0.133-0.135V23.38v-0.068v-0.033
			v-0.035l-0.035-0.067v-0.032c0-0.07,0.068-0.138,0.135-0.138c0.064-0.034,0.133,0.033,0.133,0.103l0.031,0.033v0.067v0.034v0.068
			v0.034V23.415z M40.594,22.259c0.033,0.102-0.035,0.17-0.1,0.17c-0.066,0.033-0.133-0.035-0.166-0.103v-0.034v-0.033l-0.033-0.035
			v-0.067v-0.034l-0.033-0.035v-0.033c0-0.068,0.033-0.137,0.1-0.17c0.066,0,0.166,0.033,0.166,0.102l0,0l0.031,0.068v0.033v0.069
			l0.035,0.033v0.034V22.259z M40.296,21.169c0,0.104-0.033,0.17-0.098,0.205c-0.068,0.033-0.135-0.035-0.168-0.102l0,0
			l-0.031-0.035v-0.034l-0.035-0.034V21.1l-0.033-0.033v-0.034c-0.031-0.067,0-0.17,0.068-0.17c0.064-0.034,0.164,0,0.164,0.067
			l0.035,0.035V21l0.031,0.033l0.033,0.067v0.035L40.296,21.169L40.296,21.169z M39.8,20.149c0.031,0.066,0.031,0.17-0.035,0.203
			c-0.064,0.035-0.164,0-0.197-0.066l0,0v-0.035l-0.033-0.035l-0.033-0.032l-0.033-0.034v-0.068l-0.033-0.035
			c-0.033-0.066,0-0.136,0.033-0.168c0.066-0.07,0.164-0.035,0.199,0.032l0.033,0.034l0.031,0.035v0.033l0.033,0.067l0.035,0.034
			V20.149L39.8,20.149z M39.202,19.196c0.033,0.068,0.033,0.17-0.033,0.205c-0.066,0.033-0.133,0.033-0.199-0.035v-0.034
			l-0.033-0.033l-0.033-0.034l-0.031-0.035l-0.035-0.033v-0.034h-0.033c-0.031-0.067-0.031-0.136,0.033-0.204
			c0.066-0.033,0.133-0.033,0.199,0.035l0,0l0.033,0.033l0.033,0.034v0.034l0.033,0.033l0.033,0.034L39.202,19.196z M38.473,18.344
			c0.033,0.07,0.033,0.172,0,0.205c-0.066,0.069-0.135,0.069-0.199,0h-0.033l-0.033-0.033l-0.033-0.035l-0.033-0.033l-0.033-0.033
			V18.38h-0.033c-0.066-0.067-0.066-0.137,0-0.204c0.033-0.067,0.133-0.067,0.166,0h0.033l0.033,0.034l0.031,0.033l0.035,0.035
			l0.033,0.034l0.031,0.032H38.473z M37.61,17.632c0.068,0.033,0.068,0.136,0.033,0.203c-0.033,0.068-0.133,0.068-0.197,0.035l0,0
			l-0.035-0.035l-0.031-0.033l-0.033-0.034h-0.035l-0.064-0.033V17.7c-0.066-0.035-0.1-0.137-0.066-0.17
			c0.066-0.068,0.131-0.103,0.199-0.068l0.031,0.033l0.035,0.035h0.033l0.031,0.033l0.035,0.034L37.61,17.632L37.61,17.632z
			 M36.682,17.053c0.068,0.033,0.068,0.102,0.033,0.17c-0.033,0.068-0.098,0.103-0.166,0.068l0,0l-0.066-0.033h-0.031l-0.033-0.035
			h-0.035l-0.031-0.034l-0.033-0.033c-0.066-0.034-0.1-0.103-0.066-0.171c0.033-0.067,0.098-0.102,0.166-0.067l0.033,0.034h0.031
			l0.066,0.033h0.035l0.031,0.034l0.033,0.034H36.682z M35.655,16.611c0.066,0,0.1,0.103,0.066,0.169c0,0.07-0.1,0.104-0.166,0.07
			l0,0h-0.033l-0.066-0.035h-0.033h-0.033l-0.031-0.035h-0.033c-0.1-0.032-0.133-0.1-0.1-0.169c0.033-0.067,0.1-0.136,0.164-0.103
			h0.033l0.033,0.035h0.066l0.033,0.033h0.033L35.655,16.611L35.655,16.611z M34.594,16.304c0.066,0.034,0.1,0.103,0.1,0.17
			c0,0.069-0.1,0.137-0.166,0.103h-0.033h-0.033h-0.033l-0.064-0.033h-0.035h-0.064l0,0c-0.066,0-0.102-0.069-0.102-0.17
			c0-0.069,0.066-0.104,0.133-0.104h0.033h0.035h0.031l0.066,0.034h0.033h0.066H34.594z"/>
		<path fill="#4E5A62" d="M53.95,10.319H18.122c-0.695,0-1.227,0.544-1.227,1.258V35.49c0,0.712,0.531,1.292,1.227,1.292h13.689
			v0.68c-2.055,0.307-6.266,1.259-6.266,3.571c0,0.069,0,0.136,0,0.204c0,0.067,0,0.103,0,0.172c0,0.066,0,0.135,0,0.169
			c0,0.067,0,0.103,0,0.169c0,1.532,1.857,2.417,3.049,2.823c2.057,0.749,4.475,1.021,6.664,1.056
			c0.23,0.033,0.463,0.033,0.695,0.033c2.32,0,4.938-0.271,7.16-1.02c1.191-0.408,3.281-1.293,3.281-2.893c0-0.066,0-0.102,0-0.169
			c0-0.034,0-0.103,0-0.169c0-0.069,0-0.104,0-0.172c0-0.068,0-0.135,0-0.204c0-2.313-4.211-3.265-6.266-3.571v-0.68h13.82
			c0.697,0,1.227-0.58,1.227-1.292V11.577C55.178,10.863,54.647,10.319,53.95,10.319z M54.614,35.49
			c0,0.373-0.299,0.679-0.664,0.679H39.534v1.803c3.678,0.478,6.264,1.668,6.264,3.062c0,0.069,0,0.136,0,0.204
			c0,0.067,0,0.103,0,0.172c0,0.066,0,0.135,0,0.169c0,0.067,0,0.103,0,0.169c0,1.838-4.408,3.301-9.844,3.301
			c-0.232,0-0.463,0-0.695,0c-5.105-0.137-9.148-1.565-9.148-3.301c0-0.066,0-0.102,0.033-0.169
			c-0.033-0.034-0.033-0.103-0.033-0.169c0-0.069,0-0.104,0.033-0.172c-0.033-0.068-0.033-0.135-0.033-0.204
			c0-1.394,2.619-2.584,6.297-3.062v-1.803H18.122c-0.365,0-0.662-0.306-0.662-0.679V11.577c0-0.375,0.297-0.681,0.662-0.681H53.95
			c0.365,0,0.664,0.306,0.664,0.681V35.49L54.614,35.49z"/>
		<path fill="#E6E6E6" d="M12.421,7.936h10.475c1.457,0,2.65,1.226,2.65,2.723v24.659c0,1.497-1.193,2.722-2.65,2.722H12.421
			c-1.457,0-2.65-1.225-2.65-2.722V10.659C9.77,9.162,10.964,7.936,12.421,7.936z"/>
		<path fill="#4E5A62" d="M12.653,9.775h10.043c0.994,0,1.822,0.815,1.822,1.87v21.089c0,1.054-0.828,1.87-1.822,1.87H12.653
			c-0.994,0-1.822-0.816-1.822-1.87V11.645C10.831,10.591,11.659,9.775,12.653,9.775z"/>
		<path fill="#CCCCCC" d="M11.161,35.422h1.891c0.197,0,0.33,0.135,0.33,0.34l0,0c0,0.169-0.133,0.341-0.33,0.341h-1.891
			c-0.166,0-0.33-0.172-0.33-0.341l0,0C10.831,35.556,10.995,35.422,11.161,35.422z"/>
		<path fill="#7F8C8D" d="M16.829,35.422h2.088c0.299,0,0.531,0.237,0.531,0.544l0,0c0,0.271-0.232,0.544-0.531,0.544h-2.088
			c-0.264,0-0.529-0.272-0.529-0.544l0,0C16.3,35.659,16.565,35.422,16.829,35.422z"/>
		<path fill="#CCCCCC" d="M22.298,35.422h1.857c0.197,0,0.363,0.135,0.363,0.34l0,0c0,0.169-0.166,0.341-0.363,0.341h-1.857
			c-0.197,0-0.33-0.172-0.33-0.341l0,0C21.966,35.556,22.098,35.422,22.298,35.422z"/>
		<path fill="#FEFEFE" d="M14.973,8.448h5.402c0.199,0,0.332,0.137,0.332,0.34l0,0c0,0.205-0.133,0.34-0.332,0.34h-5.402
			c-0.199,0-0.365-0.135-0.365-0.34l0,0C14.608,8.585,14.774,8.448,14.973,8.448z"/>
		<path fill="#CCCCCC" d="M16.928,35.522h1.889c0.299,0,0.498,0.205,0.498,0.443l0,0c0,0.236-0.199,0.408-0.498,0.408h-1.889
			c-0.266,0-0.463-0.172-0.463-0.408l0,0C16.466,35.727,16.663,35.522,16.928,35.522z"/>
		<path fill="#FED5A9" d="M14.675,49.299c0.033-1.122,0.1-2.245,0.266-3.266c0.531-3.741,2.85-6.495,3.68-7.483
			c0,0,2.021-2.313,1.523-5.033c-0.463-2.416-0.895-6.395-0.695-8.674c0.266-3.231-2.121-5.238-2.686-0.544
			c-0.563,4.897-2.783,15.715-6.959,8.81V22.393c0,0-1.26-0.204-1.99,1.769c-0.695,1.974-5.369,4.423-5.336,6.293
			c0.033,1.837,1.791,3.742,2.42,8.368c0.133,1.155,0.994,2.755,1.658,4.422C8.876,45.727,11.626,47.768,14.675,49.299z"/>
		<polygon fill="#E6E6E6" points="13.448,13.21 22.729,13.21 22.729,19.57 13.448,19.57 		"/>
		<polygon fill="#CCCCCC" points="18.089,17.122 20.409,15.149 22.729,13.21 18.089,13.21 13.448,13.21 15.768,15.149 		"/>
		<path fill="#4E5A62" d="M8.809,21.577V10.659c0-2.041,1.623-3.708,3.611-3.708h10.475c1.988,0,3.611,1.667,3.611,3.708v24.659
			c0,2.042-1.623,3.708-3.611,3.708h-3.381c-0.066,0.068-0.1,0.136-0.166,0.205c-1.723,1.938-3.082,4.285-3.447,6.938
			c-0.166,1.157-0.266,2.348-0.266,3.573c-0.33-0.138-0.662-0.307-0.961-0.443c0.033-1.122,0.1-2.245,0.266-3.265
			c0.531-3.741,2.85-6.496,3.68-7.483c0,0,0.164-0.171,0.396-0.511h3.879c1.457,0,2.65-1.225,2.65-2.722V10.659
			c0-1.497-1.193-2.723-2.65-2.723H12.421c-1.457,0-2.65,1.226-2.65,2.723v11.734c-0.133,0-1.293-0.067-1.957,1.769
			c-0.695,1.974-5.369,4.423-5.336,6.293c0.033,1.838,1.791,3.742,2.42,8.368c0.133,1.155,0.994,2.755,1.658,4.422
			c-0.764-0.783-1.459-1.633-2.123-2.518c-0.23-0.578-0.43-1.189-0.496-1.769c-0.232-1.803-0.695-3.333-1.359-5.001
			c-0.43-1.088-1.027-2.313-1.061-3.503c-0.033-1.632,1.988-3.196,3.082-4.15c0.598-0.511,2.057-1.733,2.32-2.481
			c0.299-0.852,0.797-1.667,1.625-2.109C8.61,21.678,8.71,21.611,8.809,21.577z"/>
	</g>
</g>
<g>
	<g>
		<path fill="#08A9D9" d="M64.546-203.399c0-0.505-0.4-0.914-0.896-0.914H8.197c-0.495,0-0.895,0.409-0.895,0.914v28.339h57.243
			V-203.399z"/>
		<g>
			<path fill="#08A9D9" d="M7.33-148.534c0,0.504,0.4,0.914,0.895,0.914h55.453c0.496,0,0.896-0.41,0.896-0.914v-28.337H7.33
				V-148.534z"/>
		</g>
	</g>
	<g>
		<path fill="#F4F4F4" d="M35.951-197.06c-12.119,0-21.947,9.853-21.947,22.003c0,12.147,9.828,21.997,21.947,21.997
			c12.122,0,21.948-9.85,21.948-21.997C57.899-187.208,48.073-197.06,35.951-197.06z M35.9-194.45c4.971,0,9.486,1.886,12.917,4.961
			c-1.439,0.598-2.349,2.338-1.102,5.041c0.689,1.496,3.6,4.117,2.477,7.572l-5.162,13.048l-5.211-14.443
			c-0.17-0.419-0.254-0.867-0.254-1.339c0-0.698,0.303-1.231,0.904-1.6c0.602-0.367,1.447-0.551,2.53-0.551h0.89v-1.3H29.921v1.301
			c0.662,0,1.271,0.091,1.733,0.272c0.466,0.178,0.914,0.498,1.351,0.955c0.493,0.472,0.899,0.996,1.217,1.572
			c0.32,0.58,0.489,1.112,0.91,2.344l-5.153,12.817l-5.129-14.399c-0.217-0.639-0.324-1.247-0.324-1.826
			c0-0.592,0.267-0.995,0.748-1.303c0.367-0.233,0.531-0.576,1.604-0.588l-0.019-1.146l-8.625,0.017
			C21.279-189.766,28.041-194.45,35.9-194.45z M16.51-175.057c0-2.072,0.333-4.063,0.934-5.936c0.189,0.138,0.383,0.269,0.558,0.445
			c0.795,0.805,1.512,2.121,2.149,3.941l6.854,18.763C20.775-161.068,16.51-167.558,16.51-175.057z M28.385-157.181l7.294-18.25
			l6.82,18.586c-2.062,0.748-4.279,1.176-6.602,1.176C33.234-155.67,30.695-156.209,28.385-157.181z M43.489-157.213l7.699-19.575
			c0.592-1.473,1.789-4.521,2.26-6.472c1.17,2.494,1.84,5.267,1.84,8.202C55.288-167.045,50.426-160.166,43.489-157.213z"/>
		<g>
			<path fill="#F4F4F4" d="M55.288-175.06c0,0.001,0,0.002,0,0.003c0,8.013-4.862,14.892-11.799,17.845l7.02-17.848h-1.033
				l-4.445,11.232l-4.053-11.232h-5.161l6.685,18.215c-2.063,0.748-4.279,1.176-6.601,1.176c-2.664,0-5.203-0.539-7.515-1.512
				l7.146-17.879h-1.024l-4.528,11.262l-4.013-11.262h-5.251l6.29,17.217c-6.229-3.225-10.495-9.715-10.495-17.214
				c0-0.001,0-0.002,0-0.003h-2.506c0,0.001,0,0.002,0,0.003c0,12.147,9.828,21.997,21.947,21.997
				c12.122,0,21.948-9.85,21.948-21.997c0-0.001,0-0.002,0-0.003H55.288z"/>
		</g>
	</g>
</g>
<g>
	<path fill="#B0B0B0" d="M-3.209-204.227h-47.244c-2.598,0-4.724,2.124-4.724,4.717v47.174c0,2.595,2.126,4.717,4.724,4.717h47.244
		c2.599,0,4.725-2.122,4.725-4.717v-47.174C1.515-202.103-0.611-204.227-3.209-204.227z"/>
	<path id="Drupicon_2_" fill="#FFFFFF" d="M-18.682-186.537c-1.771-1.18-4.252-2.358-5.905-3.538
		c-1.063-0.708-2.362-2.123-3.542-3.537c-0.237,2.357-0.354,2.829-1.182,3.537c-1.771,1.416-3.543,2.24-4.96,3.066
		c-1.89,0.942-8.032,4.599-8.032,13.443c0,8.846,7.323,15.332,15.472,15.332c8.267,0,15.354-6.015,15.354-14.979
		C-11.36-182.292-17.5-185.83-18.682-186.537z M-19.036-161.418c-0.118,0.118-1.771,1.298-3.544,1.415
		c-1.771,0.118-4.369,0.236-5.786-1.062c-0.236-0.235-0.118-0.589,0-0.707c0.118-0.118,0.354-0.236,0.473-0.236s0.118,0,0.235,0.118
		c0.709,0.59,1.654,0.943,3.897,0.943c2.245,0,3.662-0.589,4.37-1.18c0.354-0.235,0.473,0,0.473,0.118
		C-18.8-161.889-18.8-161.653-19.036-161.418z M-24.942-164.483c0.354-0.354,0.944-0.944,1.536-1.18
		c0.59-0.235,0.944-0.235,1.417-0.235c0.59,0,1.181,0,1.535,0.354c0.354,0.235,0.591,0.943,0.826,1.179
		c0.236,0.236,0,0.589-0.235,0.706c-0.236,0.118-0.236,0.118-0.473-0.354c-0.236-0.47-0.473-0.942-1.653-0.942
		c-1.182,0-1.536,0.354-2.127,0.942c-0.589,0.472-0.826,0.709-0.943,0.354C-25.413-163.895-25.296-164.248-24.942-164.483z
		 M-16.32-164.13c-1.181-0.118-3.19-3.421-4.724-3.539c-2.009-0.118-6.024,3.539-9.448,3.539c-2.009,0-2.835-0.708-3.544-1.18
		c-1.063-0.707-2.362-2.004-2.362-3.539c0-2.711,2.717-4.717,5.906-4.717c4.015,0,7.439,3.539,9.448,3.539
		c1.652,0,4.251-3.539,5.905-3.539c1.652,0,2.361,2.478,2.361,3.539s-0.119,2.948-0.945,4.245
		C-14.43-164.601-15.375-164.013-16.32-164.13z"/>
</g>
<g>
	<polyline fill="#B0B0B0" points="-117.947,-147.62 -61.253,-147.62 -61.253,-204.315 -117.947,-204.315 -117.947,-147.62 	"/>
	<polyline fill="#FFFFFF" points="-89.754,-190.473 -103.441,-185.656 -101.278,-167.724 -89.74,-161.383 -78.142,-167.81 
		-75.98,-185.741 -89.754,-190.473 	"/>
	<polyline fill="#999999" points="-77.345,-184.706 -89.786,-188.948 -89.786,-162.897 -79.361,-168.669 -77.345,-184.706 	"/>
	<polyline fill="#B0B0B0" points="-101.905,-184.629 -100.052,-168.592 -89.786,-162.897 -89.786,-188.948 -101.905,-184.629 	"/>
	<path fill="#FFFFFF" d="M-86.693-175.887l-3.071-6.078l-2.519,5.975h2.497L-86.693-175.887 M-86.362-175.08l-3.424,1.602h-3.609
		l-1.697,4.243l-3.156,0.059l8.463-18.826L-86.362-175.08z"/>
	<polyline fill="#FFFFFF" points="-89.786,-188.003 -89.763,-181.966 -86.906,-175.987 -89.78,-175.987 -89.786,-173.482 
		-85.812,-173.478 -83.953,-169.176 -80.935,-169.12 -89.786,-188.003 	"/>
</g>
<g>
	<g>
		<polyline fill="#FBAB18" points="195.656,-147.62 252.834,-147.62 252.834,-204.448 195.656,-204.448 195.656,-147.62 		"/>
	</g>
	<g>
		<path fill="#E78724" d="M222.095-177.237c0.004-0.01,0.007-0.018,0.01-0.025c-0.003,0-0.007,0-0.012,0
			C222.094-177.255,222.094-177.245,222.095-177.237z"/>
		<path fill="#FBA919" d="M218.678-185.454c-0.021-0.059-0.048-0.125-0.077-0.193c0.035,0.119,0.049,0.197,0.049,0.197
			L218.678-185.454z"/>
		<path fill="#FFFFFF" d="M218.633-179.44c-0.012,0.078-0.02,0.158-0.024,0.242c0.02,0.168,0.157,0.975,0.995,1.254
			c0.663,0.221,1.255-0.014,1.338-0.047c-0.302-0.363-0.753-0.764-1.28-1.141c-0.301-0.217-0.624-0.424-0.958-0.611
			C218.675-179.655,218.65-179.553,218.633-179.44z"/>
		<path fill="#FFFFFF" d="M215.754-172.628c-0.003,0.002-0.004,0.004-0.006,0.006c0.001,0.002,0.002,0.004,0.002,0.008
			C215.752-172.622,215.754-172.628,215.754-172.628z"/>
		<path fill="#FFFFFF" d="M215.555-171.106c-0.066,1.871,0.796,3.033,2.002,3.531c0.369,0.152,0.771,0.242,1.188,0.271
			c0.03-0.309,0.147-0.574,0.354-0.797c0.021-0.023,0.046-0.047,0.07-0.068c0.101-0.131,0.237-0.32,0.387-0.555
			c-0.642-0.027-1.375-0.145-2.049-0.42C216.655-169.493,215.902-170.102,215.555-171.106z"/>
		<path fill="#E78724" d="M226.385-177.262c0.004,0.008,0.008,0.016,0.012,0.025c0-0.008,0-0.016,0-0.025
			C226.392-177.262,226.388-177.262,226.385-177.262z"/>
		<g>
			<path fill="#FBA919" d="M216.334-179.167c-0.134,0.988-0.484,1.416-0.697,1.59c0.528,0.588,1.869,1.051,1.869,1.051
				c0.976,0.357,1.104,1.486,1.138,2.389c0.198-0.43,0.367-1.08,0.367-1.08s0.051,1.869-0.091,3.146
				c-0.104,0.932-0.398,1.943-0.541,2.379c0.257,0.064,0.521,0.107,0.785,0.139c0.828-1.225,1.903-2.863,2.227-3.355
				c0.13-0.291,0.246-0.533,0.328-0.668c-0.295,2.115-0.95,3.996-1.274,4.857c0.189-0.025,0.396-0.045,0.636-0.045
				c0,0,2.251,0,3.162-0.002h0.008l3.161,0.002c0.24,0,0.446,0.02,0.636,0.045c-0.324-0.861-0.979-2.742-1.275-4.857
				c0.084,0.137,0.2,0.379,0.33,0.668c0.323,0.494,1.397,2.131,2.226,3.355c0.264-0.031,0.528-0.074,0.786-0.139
				c-0.145-0.436-0.438-1.447-0.543-2.379c-0.141-1.277-0.089-3.146-0.089-3.146s0.168,0.65,0.366,1.08
				c0.034-0.902,0.162-2.031,1.139-2.389c0,0,1.34-0.463,1.867-1.051c-0.213-0.174-0.563-0.602-0.696-1.59
				c-0.12-0.891-0.007-1.707,0.102-2.209c0.043-0.537,0.144-1.096,0.274-1.381c-0.01,0.264,0,0.527,0.018,0.779
				c0.021-0.045,0.045-0.086,0.07-0.119c0.174-0.217,0.641-0.947,0.506-1.439c-0.051-0.188-0.169-0.326-0.361-0.426
				c-0.203-0.104-0.479-0.156-0.816-0.156c-0.664,0-1.402,0.203-1.782,0.324c-1.359,0.43-2.999,1.672-3.47,2.043
				c-0.014,0.01-0.021,0.016-0.023,0.018l-0.301,0.209l0.188-0.316c0.005-0.006,0.137-0.221,0.383-0.529
				c0.345-0.877,1.044-2.031,1.044-2.031s0.145-0.402-0.046-0.922c-1.086-0.467-2.326-0.705-3.696-0.707
				c-1.369,0.002-2.609,0.24-3.695,0.707c-0.19,0.52-0.046,0.922-0.046,0.922s0.699,1.152,1.044,2.031
				c0.247,0.309,0.378,0.523,0.382,0.529l0.188,0.316l-0.3-0.209c-0.002-0.002-0.01-0.008-0.022-0.018
				c-0.471-0.371-2.111-1.613-3.471-2.043c-0.38-0.121-1.117-0.324-1.782-0.324c-0.338,0-0.613,0.053-0.816,0.156
				c-0.192,0.1-0.311,0.238-0.361,0.426c-0.135,0.492,0.332,1.223,0.507,1.439c0.025,0.033,0.048,0.074,0.069,0.119
				c0.018-0.252,0.026-0.516,0.018-0.779c0.131,0.283,0.231,0.842,0.274,1.379C216.34-180.876,216.455-180.059,216.334-179.167z
				 M226.558-178.727c0.24-0.227,0.435-0.596,0.629-0.873c0.611-0.869,1.621-1.248,2.427-1.311c1.374-0.107,2.026,0.379,2.026,0.379
				s-0.021,0-0.053,0.002c0.029,0.008,0.059,0.01,0.088,0.018c-0.234,0.051-0.48,0.129-0.73,0.225c0.001,0,0.002,0,0.004,0
				c0.223,0.098,0.346,0.373,0.377,0.643c0.063,0.543-0.282,1.035-0.282,1.035c-0.036-0.404-0.121-0.691-0.22-0.898
				c-0.001,0.021-0.001,0.043-0.002,0.063c0.007,0.018,0.02,0.031,0.02,0.053c0,0.553-0.158,2.527-1.699,3.082
				c-0.588,0.211-1.072,0.197-1.447,0.1c0.093,0.932,0.453,1.313,0.453,1.313s-0.672-0.215-1.016-0.643
				c0.008,0.025,0.014,0.041,0.014,0.041s-0.797-0.904-0.75-1.736c-0.004-0.01-0.008-0.018-0.012-0.025
				c-0.582-0.029-1.15-0.457-1.135-1.055c0,0,0.098,0.053,0.259,0.096C225.83-178.21,226.182-178.37,226.558-178.727z
				 M224.246-180.694c0.537,0,1.237-0.014,1.763-0.393c0,0-0.19,0.334-0.527,0.65c-0.286,0.283-0.778,0.697-1.231,0.701v0.002
				c-0.002,0-0.003-0.002-0.004-0.002c-0.002,0-0.003,0.002-0.004,0.002v-0.002c-0.455-0.004-0.948-0.42-1.233-0.703
				c-0.336-0.316-0.526-0.648-0.526-0.648C223.009-180.708,223.709-180.694,224.246-180.694z M216.85-180.532
				c0,0,0.652-0.486,2.026-0.379c0.806,0.063,1.815,0.441,2.427,1.311c0.194,0.277,0.389,0.646,0.628,0.873
				c0.378,0.357,0.73,0.518,1.051,0.506c0.161-0.043,0.259-0.096,0.259-0.096c0.016,0.598-0.553,1.025-1.136,1.055
				c-0.003,0.008-0.006,0.016-0.01,0.025c0.046,0.83-0.751,1.736-0.751,1.736s0.005-0.014,0.013-0.037
				c-0.345,0.426-1.016,0.639-1.016,0.639s0.361-0.381,0.454-1.313c-0.374,0.098-0.858,0.111-1.447-0.1
				c-1.541-0.555-1.699-2.529-1.699-3.082c0-0.021,0.013-0.035,0.02-0.051c-0.001-0.021-0.001-0.043-0.002-0.063
				c-0.099,0.205-0.185,0.492-0.22,0.896c0,0-0.345-0.492-0.282-1.035c0.03-0.27,0.155-0.545,0.377-0.643c0.001,0,0.003,0,0.004,0
				c-0.25-0.096-0.496-0.174-0.731-0.225c0.03-0.008,0.059-0.01,0.089-0.018C216.873-180.532,216.85-180.532,216.85-180.532z"/>
			<path fill="#FBA919" d="M219.883-164.253c-0.264-0.393-0.48-0.816-0.667-1.252c-0.344-0.027-0.682-0.066-1.007-0.129
				C218.559-165.116,219.1-164.571,219.883-164.253z"/>
			<path fill="#FBA919" d="M229.275-165.505c-0.188,0.436-0.403,0.859-0.666,1.252c0.781-0.318,1.321-0.863,1.672-1.379
				C229.956-165.571,229.619-165.532,229.275-165.505z"/>
			<path fill="#FBA919" d="M224.246-164.077c3.209-0.004,4.297-1.633,4.297-1.633l-0.109,0.268c0.191-0.377,0.32-0.725,0.41-0.982
				c0.197-0.568,0.182-0.988-0.047-1.248c-0.156-0.18-0.516-0.393-1.334-0.393h-0.855c-0.631,0-1.424-0.002-2.361-0.002
				c-0.938,0-1.73,0.002-2.362,0.002h-0.855c-0.818,0-1.178,0.213-1.334,0.393c-0.229,0.26-0.244,0.68-0.046,1.248
				c0.089,0.258,0.217,0.605,0.409,0.982l-0.11-0.268C219.947-165.71,221.035-164.081,224.246-164.077z M225.505-167.089
				c0.093-0.096,0.254-0.145,0.479-0.145h0.348c0.361,0,0.784,0,1.035,0h0.211c0.297,0,0.443,0.086,0.513,0.156
				s0.095,0.158,0.086,0.264h0.015c0,0-0.297,1.809-1.481,1.809c-1.007,0-1.304-1.529-1.304-1.844h0.021
				C225.42-166.925,225.43-167.012,225.505-167.089z M220.314-166.813c-0.009-0.105,0.017-0.193,0.085-0.264
				c0.071-0.07,0.217-0.156,0.514-0.156h0.211c0.251,0,0.674,0,1.036,0h0.347c0.226,0,0.387,0.049,0.479,0.145
				c0.074,0.076,0.085,0.164,0.076,0.24h0.022c0,0.314-0.297,1.844-1.304,1.844c-1.185,0-1.481-1.809-1.481-1.809H220.314z"/>
			<path fill="#FBA919" d="M220.133-186.114c-0.33-0.486-1.077-1.432-2.046-1.744c-0.306-0.1-0.628-0.15-0.957-0.15
				c-0.596,0-1.08,0.164-1.337,0.273c0.164,0.074,0.341,0.174,0.517,0.291c0.132-0.023,0.304-0.045,0.506-0.045
				c0.569,0,1.107,0.166,1.558,0.482c0.668,0.471,0.977,0.916,1.118,1.211c0.119-0.068,0.246-0.135,0.382-0.203
				C219.958-186.04,220.046-186.075,220.133-186.114z"/>
			<path fill="#FBA919" d="M230.404-187.858c-0.969,0.313-1.715,1.26-2.045,1.744c0.086,0.039,0.174,0.076,0.258,0.115
				c0.137,0.068,0.264,0.135,0.383,0.203c0.143-0.295,0.451-0.74,1.119-1.211c0.449-0.316,0.987-0.482,1.557-0.482
				c0.201,0,0.375,0.021,0.506,0.045c0.176-0.117,0.354-0.217,0.517-0.291c-0.257-0.109-0.74-0.271-1.337-0.271
				C231.031-188.007,230.711-187.958,230.404-187.858z"/>
		</g>
		<path fill="#FBA919" d="M229.887-185.641c-0.028,0.066-0.054,0.129-0.074,0.188l0.027,0.004
			C229.841-185.45,229.853-185.526,229.887-185.641z"/>
		<path fill="#FFFFFF" d="M228.83-179.132c-0.527,0.377-0.979,0.777-1.28,1.141c0.083,0.033,0.675,0.268,1.338,0.047
			c0.837-0.279,0.976-1.084,0.995-1.252c-0.005-0.086-0.013-0.166-0.025-0.244c-0.017-0.113-0.041-0.215-0.07-0.303
			C229.455-179.555,229.131-179.346,228.83-179.132z"/>
		<g>
			<path fill="#E78724" d="M219.992-169.495c0.11-0.223,0.213-0.461,0.298-0.711c0.028-0.082,0.65-1.697,1.101-2.703
				c-0.323,0.492-1.398,2.131-2.227,3.355C219.444-169.52,219.723-169.501,219.992-169.495z"/>
			<path fill="#E78724" d="M218.739-185.27c-0.015-0.049-0.034-0.109-0.061-0.184l-0.028,0.004c0,0-0.014-0.078-0.049-0.197
				c-0.122-0.281-0.313-0.619-0.597-0.844c-0.3-0.24-0.659-0.363-1.065-0.377c0.045,0.057,0.095,0.109,0.135,0.172
				c0.18,0.283,0.209,0.631,0.237,0.965c0.028,0.35,0.059,0.68,0.24,0.92c0.225,0.043,0.435,0.094,0.618,0.145
				C218.292-184.837,218.475-185.046,218.739-185.27z"/>
			<path fill="#E78724" d="M221.488-176.868c-0.049-0.172-0.106-0.328-0.162-0.461c0-0.002,0-0.002,0-0.002
				c-0.001,0.002-0.002,0.002-0.003,0.002c-0.098,0.088-0.198,0.158-0.303,0.215c-1.02,0.561-2.326-0.168-2.664-0.543
				c-0.5-0.555-0.655-1.24-0.688-1.787c-0.007,0.016-0.02,0.029-0.02,0.051c0,0.553,0.158,2.527,1.699,3.082
				c0.589,0.211,1.073,0.197,1.447,0.1c-0.093,0.932-0.454,1.313-0.454,1.313s0.671-0.213,1.016-0.639
				c0.046-0.135,0.19-0.604,0.172-1.035C221.525-176.675,221.514-176.774,221.488-176.868z"/>
			<path fill="#E78724" d="M221.318-178.792c0.624,0.717,1.305,0.668,1.664,0.57c-0.32,0.012-0.673-0.148-1.051-0.506
				c-0.239-0.227-0.434-0.596-0.628-0.873c-0.611-0.869-1.621-1.248-2.427-1.311c-1.374-0.107-2.026,0.379-2.026,0.379
				s0.022,0,0.053,0.002C219.146-181.02,220.798-179.389,221.318-178.792z"/>
			<path fill="#E78724" d="M216.54-176.073c0.154,0.084,0.309,0.168,0.456,0.252c0.47,0.27,0.976,0.906,1.032,1.852
				c0.012,0.195,0.015,0.459,0.011,0.764c-0.001,0.043-0.001,0.088-0.002,0.135c-0.009,0.455-0.032,0.992-0.064,1.541
				c-0.016,0.258-0.033,0.518-0.053,0.773c-0.023,0.311-0.05,0.613-0.076,0.895c0.173,0.068,0.353,0.123,0.535,0.17
				c0.143-0.436,0.438-1.447,0.541-2.379c0.142-1.277,0.091-3.146,0.091-3.146s-0.169,0.65-0.367,1.08
				c-0.034-0.902-0.162-2.031-1.138-2.389c0,0-1.341-0.463-1.869-1.051c0.213-0.174,0.563-0.602,0.697-1.59
				c0.121-0.893,0.006-1.709-0.102-2.211c0.029,0.355,0.033,0.701,0.003,0.951c-0.165,1.346-0.659,2.129-0.807,2.34
				c-0.027,0.037-0.046,0.063-0.046,0.063c0.043-0.086,0.096-0.418,0.146-0.809c-0.039,0.035-0.079,0.066-0.118,0.098l-0.026,0.021
				c-0.03,0.025-0.061,0.051-0.091,0.074c-0.211,0.178-0.39,0.389-0.39,0.914C214.903-176.958,215.735-176.507,216.54-176.073z"/>
			<path fill="#E78724" d="M220.55-185.323c-0.111,0.049-0.223,0.096-0.33,0.148c-0.774,0.377-1.062,0.66-1.17,0.816
				c1.194,0.531,2.044,1.42,2.498,1.988c-0.345-0.879-1.044-2.031-1.044-2.031S220.359-184.803,220.55-185.323z"/>
			<path fill="#E78724" d="M221.781-165.005c1.007,0,1.304-1.529,1.304-1.844h-0.022c-0.005,0.045-0.016,0.09-0.028,0.119
				c-0.058,0.145-0.299,0.613-0.705,1.049c-0.146,0.154-0.358,0.242-0.598,0.242c-0.233,0-0.472-0.086-0.637-0.229
				c-0.126-0.109-0.554-0.502-0.743-0.982c-0.022-0.061-0.033-0.113-0.037-0.164H220.3
				C220.3-166.813,220.596-165.005,221.781-165.005z"/>
			<path fill="#E78724" d="M228.201-170.206c0.084,0.25,0.188,0.488,0.297,0.711c0.27-0.006,0.549-0.025,0.829-0.059
				c-0.828-1.225-1.902-2.861-2.226-3.355C227.551-171.903,228.172-170.288,228.201-170.206z"/>
			<path fill="#E78724" d="M231.418-186.696c0.04-0.063,0.09-0.115,0.135-0.172c-0.406,0.014-0.766,0.137-1.066,0.377
				c-0.285,0.227-0.477,0.566-0.599,0.85c-0.034,0.115-0.047,0.191-0.047,0.191l-0.027-0.004c-0.027,0.074-0.046,0.135-0.062,0.186
				c0.264,0.225,0.447,0.432,0.568,0.602c0.185-0.051,0.395-0.102,0.619-0.145c0.182-0.24,0.211-0.57,0.24-0.92
				C231.209-186.065,231.238-186.413,231.418-186.696z"/>
			<path fill="#E78724" d="M227.47-177.114c-0.104-0.057-0.206-0.127-0.304-0.215c-0.001,0-0.001,0-0.002-0.002c0,0,0,0-0.001,0.002
				c-0.055,0.133-0.113,0.289-0.161,0.461c-0.026,0.094-0.036,0.193-0.041,0.295c-0.019,0.43,0.124,0.895,0.171,1.031
				c0.344,0.428,1.016,0.643,1.016,0.643s-0.36-0.381-0.453-1.313c0.375,0.098,0.859,0.111,1.447-0.1
				c1.541-0.555,1.699-2.529,1.699-3.082c0-0.021-0.013-0.035-0.02-0.053c-0.032,0.549-0.188,1.234-0.688,1.789
				C229.797-177.282,228.49-176.553,227.47-177.114z"/>
			<path fill="#E78724" d="M227.174-178.792c0.52-0.598,2.172-2.229,4.414-1.738c0.031-0.002,0.053-0.002,0.053-0.002
				s-0.652-0.486-2.026-0.379c-0.806,0.063-1.815,0.441-2.427,1.311c-0.194,0.277-0.389,0.646-0.629,0.873
				c-0.376,0.357-0.729,0.518-1.05,0.506C225.868-178.124,226.549-178.075,227.174-178.792z"/>
			<path fill="#E78724" d="M228.433-165.442l0.109-0.268c0,0-1.088,1.629-4.297,1.633c-3.211-0.004-4.299-1.633-4.299-1.633
				l0.11,0.268c0.574,1.127,1.729,2.518,4.183,2.523c0.002,0,0.003,0,0.006,0c0.002,0,0.004,0,0.005,0
				C226.705-162.925,227.858-164.313,228.433-165.442z"/>
			<path fill="#E78724" d="M227.987-184.401c0,0-0.699,1.154-1.044,2.031c0.454-0.568,1.303-1.457,2.496-1.988
				c-0.106-0.154-0.395-0.439-1.169-0.816c-0.106-0.053-0.218-0.1-0.329-0.148C228.132-184.803,227.987-184.401,227.987-184.401z"/>
			<path fill="#E78724" d="M226.71-165.005c1.185,0,1.481-1.809,1.481-1.809h-0.015c-0.005,0.051-0.015,0.104-0.038,0.164
				c-0.188,0.48-0.615,0.873-0.742,0.982c-0.166,0.143-0.403,0.229-0.637,0.229c-0.239,0-0.451-0.088-0.598-0.242l0,0
				c-0.406-0.436-0.648-0.904-0.705-1.049c-0.014-0.029-0.023-0.074-0.029-0.119h-0.021
				C225.406-166.534,225.703-165.005,226.71-165.005z"/>
			<path fill="#E78724" d="M232.157-179.167c0.134,0.988,0.483,1.416,0.696,1.59c-0.527,0.588-1.867,1.051-1.867,1.051
				c-0.977,0.357-1.104,1.486-1.139,2.389c-0.198-0.43-0.366-1.08-0.366-1.08s-0.052,1.869,0.089,3.146
				c0.104,0.932,0.398,1.943,0.543,2.379c0.183-0.047,0.361-0.102,0.535-0.17c-0.027-0.281-0.055-0.584-0.078-0.893
				c-0.063-0.855-0.109-1.762-0.118-2.451c-0.004-0.305-0.001-0.568,0.011-0.764c0.057-0.945,0.563-1.582,1.033-1.852
				c0.146-0.084,0.301-0.168,0.455-0.252c0.805-0.434,1.637-0.885,1.637-1.652c0-0.525-0.179-0.736-0.389-0.912
				c-0.03-0.025-0.061-0.051-0.092-0.076l-0.027-0.021c-0.037-0.031-0.078-0.064-0.117-0.098c0.05,0.391,0.103,0.723,0.145,0.809
				c0,0-0.019-0.025-0.045-0.063c-0.146-0.209-0.641-0.994-0.807-2.34c-0.029-0.248-0.025-0.594,0.003-0.949
				C232.15-180.874,232.037-180.057,232.157-179.167z"/>
			<path fill="#E78724" d="M223.009-180.438c-0.148-0.148-0.242-0.262-0.242-0.262c0.539,0.326,1.02,0.439,1.479,0.449
				c0.459-0.01,0.939-0.123,1.479-0.449c0,0-0.094,0.113-0.243,0.264c0.337-0.316,0.527-0.65,0.527-0.65
				c-0.525,0.379-1.226,0.393-1.763,0.393s-1.237-0.014-1.764-0.393C222.482-181.087,222.673-180.755,223.009-180.438z"/>
		</g>
		<path fill="#463014" d="M224.246-180.251c-0.46-0.01-0.94-0.123-1.479-0.449c0,0,0.094,0.113,0.242,0.262
			c0.285,0.283,0.778,0.699,1.233,0.703v0.002c0.001,0,0.002-0.002,0.004-0.002c0.001,0,0.002,0.002,0.004,0.002v-0.002
			c0.453-0.004,0.945-0.418,1.231-0.701c0.149-0.15,0.243-0.264,0.243-0.264C225.185-180.374,224.705-180.26,224.246-180.251z"/>
		<path fill="#FFFFFF" d="M231.25-169.264c-0.743,0.363-1.588,0.51-2.314,0.541c0.148,0.232,0.285,0.422,0.386,0.553
			c0.024,0.023,0.05,0.047,0.071,0.07c0.206,0.223,0.323,0.488,0.354,0.797c0.475-0.033,0.928-0.148,1.338-0.342
			c1.125-0.529,1.914-1.668,1.851-3.461C232.625-170.208,231.99-169.628,231.25-169.264z"/>
		<path fill="#FFFFFF" d="M232.738-172.628c0,0,0.001,0.006,0.003,0.014c0-0.004,0.001-0.006,0.002-0.008
			C232.741-172.624,232.74-172.626,232.738-172.628z"/>
		<g>
			<path fill="#C9C9C9" d="M219.603-177.944c-0.838-0.279-0.976-1.086-0.995-1.254c-0.028,0.492,0.073,1.076,0.47,1.371
				c0.882,0.656,1.745,0.27,2.057,0.09l-0.001-0.002c-0.054-0.08-0.12-0.166-0.192-0.252
				C220.858-177.958,220.266-177.723,219.603-177.944z"/>
			<path fill="#C9C9C9" d="M215.555-171.106c-0.009-0.027-0.021-0.051-0.029-0.078c-0.271,0.271-0.455,2.119,0.202,3.201
				c0.295,0.484,0.722,0.85,1.211,1.113c0.241,0.131,0.496,0.238,0.762,0.316c0.013,0.004,0.025,0.01,0.038,0.014
				c0.175,0.049,0.353,0.086,0.531,0.113c0.202,0.031,0.405,0.045,0.607,0.047c-0.033-0.1-0.061-0.197-0.082-0.291
				c-0.051-0.227-0.07-0.439-0.051-0.633c-0.417-0.029-0.818-0.119-1.188-0.271C216.351-168.073,215.489-169.235,215.555-171.106z"
				/>
			<path fill="#C9C9C9" d="M228.887-177.944c-0.663,0.221-1.255-0.014-1.338-0.047c-0.073,0.086-0.139,0.172-0.192,0.252
				l-0.001,0.002c0.31,0.18,1.174,0.566,2.057-0.09c0.396-0.295,0.497-0.877,0.47-1.369
				C229.863-179.028,229.724-178.223,228.887-177.944z"/>
			<path fill="#C9C9C9" d="M231.084-167.645c-0.41,0.193-0.863,0.309-1.338,0.342c0.02,0.193,0,0.406-0.051,0.633
				c-0.021,0.094-0.049,0.191-0.082,0.291c0.202-0.002,0.405-0.016,0.607-0.047c0.179-0.027,0.355-0.064,0.53-0.113
				c0.056-0.016,0.108-0.039,0.161-0.057c0.223-0.072,0.436-0.164,0.64-0.273c0.489-0.264,0.917-0.629,1.211-1.113
				c0.657-1.082,0.474-2.93,0.202-3.201c-0.009,0.029-0.021,0.053-0.03,0.078C232.998-169.313,232.209-168.175,231.084-167.645z"/>
		</g>
		<g>
			<path fill="#463014" d="M217.546-180.288c-0.001,0-0.003,0-0.004,0c-0.222,0.098-0.347,0.373-0.377,0.643
				c-0.063,0.543,0.282,1.035,0.282,1.035c0.035-0.404,0.121-0.691,0.22-0.896c0.001,0.02,0.001,0.041,0.002,0.063
				c0.032,0.547,0.188,1.232,0.688,1.787c0.338,0.375,1.645,1.104,2.664,0.543c0.104-0.057,0.205-0.127,0.303-0.215
				c0.001,0,0.002,0,0.003-0.002c0,0,0,0,0,0.002c0.056,0.133,0.113,0.289,0.162,0.461c0.026,0.094,0.037,0.193,0.041,0.295
				c0.019,0.432-0.126,0.9-0.172,1.035c-0.008,0.023-0.013,0.037-0.013,0.037s0.797-0.906,0.751-1.736
				c-0.001-0.008-0.001-0.018-0.002-0.025c0.005,0,0.009,0,0.012,0c0.583-0.029,1.151-0.457,1.136-1.055
				c0,0-0.098,0.053-0.259,0.096c-0.359,0.098-1.04,0.146-1.664-0.57c-0.521-0.598-2.172-2.229-4.415-1.738
				c-0.03,0.008-0.059,0.01-0.089,0.018C217.05-180.462,217.296-180.384,217.546-180.288z M220.941-177.991
				c0.072,0.086,0.139,0.172,0.192,0.252l0.001,0.002c-0.312,0.18-1.175,0.566-2.057-0.09c-0.396-0.295-0.498-0.879-0.47-1.371
				c0.005-0.084,0.013-0.164,0.024-0.242c0.018-0.113,0.042-0.215,0.07-0.303c0.334,0.188,0.657,0.395,0.958,0.611
				C220.188-178.755,220.639-178.354,220.941-177.991z"/>
			<path fill="#463014" d="M221.094-165.667c0.165,0.143,0.403,0.229,0.637,0.229c0.239,0,0.452-0.088,0.598-0.242
				c0.406-0.436,0.647-0.904,0.705-1.049c0.013-0.029,0.023-0.074,0.028-0.119c0.009-0.076-0.002-0.164-0.076-0.24
				c-0.093-0.096-0.254-0.145-0.479-0.145h-0.347c-0.362,0-0.785,0-1.036,0h-0.211c-0.297,0-0.442,0.086-0.514,0.156
				c-0.068,0.07-0.094,0.158-0.085,0.264c0.004,0.051,0.015,0.104,0.037,0.164C220.541-166.169,220.969-165.776,221.094-165.667z"/>
			<path fill="#463014" d="M227.174-178.792c-0.625,0.717-1.306,0.668-1.665,0.57c-0.161-0.043-0.259-0.096-0.259-0.096
				c-0.016,0.598,0.553,1.025,1.135,1.055c0.004,0,0.008,0,0.012,0c0,0.01,0,0.018,0,0.025c-0.047,0.832,0.75,1.736,0.75,1.736
				s-0.006-0.016-0.014-0.041c-0.047-0.137-0.189-0.602-0.171-1.031c0.005-0.102,0.015-0.201,0.041-0.295
				c0.048-0.172,0.106-0.328,0.161-0.461c0.001-0.002,0.001-0.002,0.001-0.002c0.001,0.002,0.001,0.002,0.002,0.002
				c0.098,0.088,0.199,0.158,0.304,0.215c1.02,0.561,2.326-0.168,2.663-0.543c0.501-0.555,0.656-1.24,0.688-1.789
				c0.001-0.02,0.001-0.041,0.002-0.063c0.099,0.207,0.184,0.494,0.22,0.898c0,0,0.345-0.492,0.282-1.035
				c-0.031-0.27-0.154-0.545-0.377-0.643c-0.002,0-0.003,0-0.004,0c0.25-0.096,0.496-0.174,0.73-0.225
				c-0.029-0.008-0.059-0.01-0.088-0.018C229.345-181.02,227.693-179.389,227.174-178.792z M229.883-179.196
				c0.027,0.492-0.074,1.074-0.47,1.369c-0.883,0.656-1.747,0.27-2.057,0.09l0.001-0.002c0.054-0.08,0.119-0.166,0.192-0.252
				c0.301-0.363,0.753-0.764,1.28-1.141c0.301-0.215,0.625-0.424,0.957-0.611c0.029,0.088,0.054,0.189,0.07,0.303
				C229.87-179.362,229.878-179.282,229.883-179.196z"/>
			<path fill="#463014" d="M226.162-165.68L226.162-165.68c0.146,0.154,0.358,0.242,0.598,0.242c0.233,0,0.471-0.086,0.637-0.229
				c0.127-0.109,0.554-0.502,0.742-0.982c0.023-0.061,0.033-0.113,0.038-0.164c0.009-0.105-0.017-0.193-0.086-0.264
				s-0.216-0.156-0.513-0.156h-0.211c-0.251,0-0.674,0-1.035,0h-0.348c-0.226,0-0.387,0.049-0.479,0.145
				c-0.074,0.076-0.085,0.164-0.077,0.24c0.006,0.045,0.016,0.09,0.029,0.119C225.513-166.585,225.756-166.116,226.162-165.68z"/>
			<path fill="#463014" d="M232.762-172.716c-0.005,0.033-0.015,0.063-0.02,0.094c-0.001,0.002-0.002,0.004-0.002,0.008
				c-0.155,0.926-0.708,1.746-1.312,2.264c-0.164-1.23-0.199-3.002-0.199-3.375c0-0.795,0.514-1.328,0.66-1.412
				c0.137-0.078,0.291-0.16,0.451-0.246c0.975-0.523,2.188-1.172,2.188-2.369c0-0.875-0.502-1.256-0.836-1.508
				c-0.041-0.031-0.08-0.061-0.116-0.088c-0.112-0.092-0.202-0.164-0.234-0.238c-0.235-0.529-0.192-1.854-0.091-2.035
				c0.031-0.035,0.906-1.135,0.638-2.121c-0.11-0.402-0.374-0.721-0.765-0.922c-0.287-0.146-0.645-0.225-1.059-0.24
				c-0.004-0.107-0.026-0.215-0.049-0.32c-0.031-0.143-0.063-0.287-0.05-0.438c0.022-0.252,0.042-0.49,0.117-0.609
				c0.458-0.723,1.563-0.953,1.573-0.955l0.664-0.131l-0.439-0.514c-0.008-0.01-0.937-0.947-2.508-0.947
				c-0.429,0-0.867,0.072-1.305,0.213c-1.315,0.424-2.326,1.658-2.675,2.129c-0.169-0.051-0.339-0.1-0.513-0.143
				c-0.231-0.855,0.48-2.088,0.48-2.088s-0.734-0.164-1.822,0.824c-0.142-0.352-0.438-1.111-0.096-2.016
				c-1.596,0.563-2,1.424-2.119,2.203c-0.41-0.293-0.364-1.25-0.388-1.494c-0.408,0.049-1.578,1.186-1.525,2.617
				c-0.107,0.029-0.212,0.064-0.316,0.096c-0.349-0.471-1.359-1.705-2.676-2.129c-0.438-0.141-0.876-0.213-1.305-0.213
				c-1.571,0-2.499,0.936-2.507,0.945l-0.44,0.516l0.664,0.131c0.011,0.002,1.116,0.232,1.573,0.955
				c0.075,0.119,0.096,0.357,0.117,0.609c0.013,0.148-0.02,0.295-0.05,0.436c-0.022,0.107-0.045,0.215-0.05,0.322
				c-0.412,0.016-0.771,0.094-1.058,0.24c-0.391,0.201-0.654,0.52-0.765,0.922c-0.269,0.986,0.607,2.086,0.638,2.121
				c0.102,0.182,0.145,1.506-0.091,2.035c-0.032,0.074-0.122,0.146-0.234,0.238c-0.035,0.027-0.074,0.057-0.116,0.088
				c-0.333,0.252-0.837,0.633-0.837,1.508c0,1.197,1.214,1.846,2.189,2.369c0.16,0.086,0.313,0.168,0.451,0.246
				c0.146,0.084,0.659,0.617,0.66,1.412c0,0.373-0.035,2.145-0.2,3.375c-0.604-0.518-1.156-1.338-1.312-2.264
				c0-0.004-0.001-0.006-0.002-0.008c-0.005-0.031-0.015-0.061-0.02-0.094c0,0-1.583,1.223-1.118,3.838
				c0.284,1.598,1.256,2.492,2.545,2.961c0.474,1.033,1.588,2.473,3.642,2.686c0.782,0.643,1.864,1.061,3.445,1.063l0,0
				c0.001,0,0.002,0,0.004,0c0.001,0,0.002,0,0.004,0l0,0c1.58-0.002,2.662-0.42,3.443-1.063c2.055-0.213,3.168-1.652,3.643-2.686
				c1.289-0.469,2.26-1.363,2.545-2.961C234.345-171.493,232.762-172.716,232.762-172.716z M228.609-164.253
				c0.263-0.393,0.479-0.816,0.666-1.252c0.344-0.027,0.681-0.066,1.006-0.127C229.93-165.116,229.39-164.571,228.609-164.253z
				 M224.251-162.919c-0.001,0-0.003,0-0.005,0c-0.003,0-0.004,0-0.006,0c-2.454-0.006-3.608-1.396-4.183-2.523
				c-0.192-0.377-0.32-0.725-0.409-0.982c-0.198-0.568-0.183-0.988,0.046-1.248c0.156-0.18,0.516-0.393,1.334-0.393h0.855
				c0.632,0,1.424-0.002,2.362-0.002c0.938,0,1.73,0.002,2.361,0.002h0.855c0.818,0,1.178,0.213,1.334,0.393
				c0.229,0.26,0.244,0.68,0.047,1.248c-0.09,0.258-0.219,0.605-0.41,0.982C227.858-164.313,226.705-162.925,224.251-162.919z
				 M215.293-178.639c0.03-0.023,0.061-0.049,0.091-0.074l0.026-0.021c0.039-0.031,0.079-0.063,0.118-0.098
				c-0.05,0.391-0.103,0.723-0.146,0.809c0,0,0.019-0.025,0.046-0.063c0.147-0.211,0.642-0.994,0.807-2.34
				c0.03-0.25,0.026-0.596-0.003-0.951c-0.043-0.537-0.144-1.096-0.274-1.379c0.009,0.264,0,0.527-0.018,0.779
				c-0.021-0.045-0.044-0.086-0.069-0.119c-0.175-0.217-0.642-0.947-0.507-1.439c0.051-0.188,0.169-0.326,0.361-0.426
				c0.203-0.104,0.479-0.156,0.816-0.156c0.665,0,1.402,0.203,1.782,0.324c1.359,0.43,3,1.672,3.471,2.043
				c0.013,0.01,0.021,0.016,0.022,0.018l0.3,0.209l-0.188-0.316c-0.004-0.006-0.135-0.221-0.382-0.529
				c-0.454-0.568-1.304-1.457-2.498-1.988c0.108-0.156,0.396-0.439,1.17-0.816c0.107-0.053,0.219-0.1,0.33-0.148
				c1.086-0.467,2.326-0.705,3.695-0.707c1.37,0.002,2.61,0.24,3.696,0.707c0.111,0.049,0.223,0.096,0.329,0.148
				c0.774,0.377,1.063,0.662,1.169,0.816c-1.193,0.531-2.042,1.42-2.496,1.988c-0.246,0.309-0.378,0.523-0.383,0.529l-0.188,0.316
				l0.301-0.209c0.002-0.002,0.01-0.008,0.023-0.018c0.471-0.371,2.11-1.613,3.47-2.043c0.38-0.121,1.118-0.324,1.782-0.324
				c0.338,0,0.613,0.053,0.816,0.156c0.192,0.1,0.311,0.238,0.361,0.426c0.135,0.492-0.332,1.223-0.506,1.439
				c-0.025,0.033-0.049,0.074-0.07,0.119c-0.018-0.252-0.027-0.516-0.018-0.779c-0.131,0.285-0.231,0.844-0.274,1.381
				c-0.028,0.355-0.032,0.701-0.003,0.949c0.166,1.346,0.66,2.131,0.807,2.34c0.026,0.037,0.045,0.063,0.045,0.063
				c-0.042-0.086-0.095-0.418-0.145-0.809c0.039,0.033,0.08,0.066,0.117,0.098l0.027,0.021c0.031,0.025,0.062,0.051,0.092,0.076
				c0.21,0.176,0.389,0.387,0.389,0.912c0,0.768-0.832,1.219-1.637,1.652c-0.154,0.084-0.309,0.168-0.455,0.252
				c-0.471,0.27-0.977,0.906-1.033,1.852c-0.012,0.195-0.015,0.459-0.011,0.764c0.009,0.689,0.055,1.596,0.118,2.451
				c0.023,0.309,0.051,0.611,0.078,0.893c-0.174,0.068-0.353,0.123-0.535,0.17c-0.258,0.064-0.522,0.107-0.786,0.139
				c-0.28,0.033-0.56,0.053-0.829,0.059c-0.109-0.223-0.213-0.461-0.297-0.711c-0.029-0.082-0.65-1.697-1.1-2.703
				c-0.13-0.289-0.246-0.531-0.33-0.668c0.297,2.115,0.951,3.996,1.275,4.857c-0.189-0.025-0.396-0.045-0.636-0.045l-3.161-0.002
				h-0.008c-0.911,0.002-3.162,0.002-3.162,0.002c-0.24,0-0.446,0.02-0.636,0.045c0.324-0.861,0.979-2.742,1.274-4.857
				c-0.082,0.135-0.198,0.377-0.328,0.668c-0.45,1.006-1.072,2.621-1.101,2.703c-0.085,0.25-0.188,0.488-0.298,0.711
				c-0.269-0.006-0.548-0.025-0.828-0.059c-0.264-0.031-0.528-0.074-0.785-0.139c-0.183-0.047-0.362-0.102-0.535-0.17
				c0.026-0.281,0.053-0.584,0.076-0.895c0.02-0.256,0.037-0.516,0.053-0.773c0.032-0.549,0.056-1.086,0.064-1.541
				c0.001-0.047,0.001-0.092,0.002-0.135c0.004-0.305,0.001-0.568-0.011-0.764c-0.057-0.945-0.563-1.582-1.032-1.852
				c-0.147-0.084-0.302-0.168-0.456-0.252c-0.805-0.434-1.637-0.885-1.637-1.652C214.903-178.251,215.082-178.462,215.293-178.639z
				 M217.552-184.811c-0.182-0.24-0.212-0.57-0.24-0.92c-0.028-0.334-0.058-0.682-0.237-0.965c-0.04-0.063-0.09-0.115-0.135-0.172
				c0.406,0.014,0.766,0.137,1.065,0.377c0.283,0.225,0.475,0.563,0.597,0.844c0.029,0.068,0.056,0.135,0.077,0.193
				c0.026,0.074,0.046,0.135,0.061,0.184c-0.264,0.225-0.447,0.434-0.569,0.604C217.986-184.718,217.776-184.768,217.552-184.811z
				 M218.373-187.007c-0.45-0.316-0.988-0.482-1.558-0.482c-0.202,0-0.374,0.021-0.506,0.045c-0.176-0.117-0.353-0.217-0.517-0.291
				c0.257-0.109,0.741-0.273,1.337-0.273c0.329,0,0.651,0.051,0.957,0.15c0.969,0.313,1.716,1.258,2.046,1.744
				c-0.087,0.039-0.175,0.074-0.26,0.115c-0.136,0.068-0.263,0.135-0.382,0.203C219.349-186.091,219.041-186.536,218.373-187.007z
				 M230.32-184.667c-0.121-0.17-0.305-0.377-0.568-0.602c0.016-0.051,0.034-0.111,0.062-0.186c0.021-0.059,0.046-0.121,0.074-0.188
				c0.122-0.283,0.313-0.623,0.599-0.85c0.301-0.24,0.66-0.363,1.066-0.377c-0.045,0.057-0.095,0.109-0.135,0.172
				c-0.18,0.283-0.209,0.631-0.238,0.965c-0.029,0.35-0.059,0.68-0.24,0.92C230.715-184.768,230.505-184.718,230.32-184.667z
				 M232.181-187.444c-0.131-0.023-0.305-0.045-0.506-0.045c-0.569,0-1.107,0.166-1.557,0.482c-0.668,0.471-0.977,0.916-1.119,1.211
				c-0.119-0.068-0.246-0.135-0.383-0.203c-0.084-0.039-0.172-0.076-0.258-0.115c0.33-0.484,1.076-1.432,2.045-1.744
				c0.307-0.1,0.627-0.148,0.957-0.148c0.597,0,1.08,0.162,1.337,0.271C232.535-187.661,232.357-187.561,232.181-187.444z
				 M232.934-171.106c0.01-0.025,0.021-0.049,0.03-0.078c0.271,0.271,0.455,2.119-0.202,3.201c-0.294,0.484-0.722,0.85-1.211,1.113
				c-0.204,0.109-0.417,0.201-0.64,0.273c-0.053,0.018-0.105,0.041-0.161,0.057c-0.175,0.049-0.352,0.086-0.53,0.113
				c-0.202,0.031-0.405,0.045-0.607,0.047c0.033-0.1,0.061-0.197,0.082-0.291c0.051-0.227,0.07-0.439,0.051-0.633
				c-0.03-0.309-0.147-0.574-0.354-0.797c-0.021-0.023-0.047-0.047-0.071-0.07c-0.101-0.131-0.237-0.32-0.386-0.553
				c0.727-0.031,1.571-0.178,2.314-0.541C231.99-169.628,232.625-170.208,232.934-171.106z M217.507-169.143
				c0.674,0.275,1.407,0.393,2.049,0.42c-0.149,0.234-0.286,0.424-0.387,0.555c-0.024,0.021-0.049,0.045-0.07,0.068
				c-0.206,0.223-0.323,0.488-0.354,0.797c-0.02,0.193,0,0.406,0.051,0.633c0.021,0.094,0.049,0.191,0.082,0.291
				c-0.202-0.002-0.405-0.016-0.607-0.047c-0.179-0.027-0.356-0.064-0.531-0.113c-0.013-0.004-0.025-0.01-0.038-0.014
				c-0.266-0.078-0.521-0.186-0.762-0.316c-0.489-0.264-0.916-0.629-1.211-1.113c-0.657-1.082-0.473-2.93-0.202-3.201
				c0.008,0.027,0.021,0.051,0.029,0.078C215.902-170.102,216.655-169.493,217.507-169.143z M219.216-165.505
				c0.187,0.436,0.403,0.859,0.667,1.252c-0.782-0.318-1.323-0.863-1.674-1.381C218.534-165.571,218.872-165.532,219.216-165.505z"
				/>
		</g>
	</g>
</g>
<g>
	<rect x="258.667" y="-204.313" fill="#CC6699" width="56.693" height="56.693"/>
	<g>
		<path fill="#FFFFFF" d="M294.724-178.186c-4.199,1.609-7.592,1.322-8.914,0.861c-1.667-0.574-2.646-1.666-2.876-2.299
			c-0.113-0.23-0.344-0.863,0.115-1.094c0.404-0.23,0.633,0,0.977,0.402c0.059,0.059,1.382,1.438,4.487,1.094
			c5.117-0.576,8.451-3.451,9.775-5.752c0.807-1.381,0.979-2.645,0.52-3.623c-0.23-0.518-0.865-0.977-1.785-1.322
			c-2.242-0.805-6.498-0.689-11.73,1.898c-5.923,2.932-8.97,5.98-9.144,9.086c-0.117,2.473,2.012,4.141,4.313,5.865
			c0.979,0.805,2.07,1.609,2.875,2.473l0.059,0.057c0.863-0.287,1.954-0.459,3.563-0.459c2.186-0.057,4.084,0.633,5.35,1.957
			c0.979,1.033,1.494,2.299,1.438,3.564c-0.115,2.07-1.955,2.99-2.473,3.104c-0.172,0-0.633,0.059-0.748-0.402
			c-0.057-0.344,0.172-0.516,0.461-0.689c0.344-0.229,1.035-0.746,1.148-1.609c0.059-0.461-0.057-1.207-0.631-1.955
			c-0.518-0.691-1.611-1.555-3.854-1.842c-1.15-0.115-2.186-0.115-3.162,0.115c0.689,1.84,0.574,4.83-0.921,7.072
			c-1.494,2.244-3.91,3.566-6.383,3.566c-0.633,0-1.266-0.057-1.842-0.23c-0.572-0.172-1.148-0.748-1.494-1.494
			c-0.344-0.633-0.748-2.07,0.115-4.025c1.15-2.473,5.35-4.83,6.9-5.635c-0.518-0.461-1.207-0.92-1.955-1.439
			c-2.76-1.955-6.268-4.313-6.9-7.646c-0.287-1.209,0.287-4.258,3.969-7.707c3.68-3.393,8.567-5.463,11.155-6.383
			c4.313-1.553,9.027-1.496,11.963,0.057c1.494,0.807,2.473,1.955,2.816,3.336C302.888-185.319,299.554-180.141,294.724-178.186z"/>
		<path fill="#CC6699" d="M277.749-164.188c-1.225,1.227-1.634,2.627-1.518,3.326c0.059,0.232,0.116,0.408,0.293,0.525
			c0.582,0.35,2.391-0.059,3.731-1.518c0.466-0.465,0.816-0.99,1.05-1.516c0-0.117,0.058-0.234,0.116-0.35
			c0.059-0.117,0.059-0.234,0.117-0.352c0.292-0.932,0.35-1.924,0.175-2.975C281.248-166.811,279.206-165.704,277.749-164.188z"/>
	</g>
</g>
<g>
	<rect x="-316" y="20.06" fill-rule="evenodd" clip-rule="evenodd" fill="#277000" width="56.693" height="56.693"/>
	<g>
		<path fill-rule="evenodd" clip-rule="evenodd" fill="#3F3F3E" d="M-305.095,62.796c0.703,0,1.405,0,2.107,0
			c0.154-0.131,0.322-0.25,0.461-0.396c0.326-0.34,0.708-0.578,1.164-0.699c0.602-0.16,1.137-0.463,1.669-0.775
			c0.887-0.52,1.739-1.09,2.595-1.658c1.125-0.75,2.237-1.521,3.436-2.156c1.404-0.744,2.892-1.268,4.405-1.73
			c-0.052-0.068-0.102-0.135-0.151-0.203c-0.288-0.246-0.576-0.49-0.863-0.736c-0.142-0.068-0.271-0.166-0.438-0.17
			c-0.707,0.557-1.447,1.066-2.242,1.492c-0.202,0.172-0.435,0.293-0.668,0.414c-0.818,0.479-1.626,0.977-2.48,1.393
			c-0.057,0.041-0.112,0.09-0.174,0.123c-1.581,0.861-3.173,1.701-4.808,2.457c-0.188,0.088-0.39,0.291-0.601,0.146
			c-0.196-0.131,0.028-0.357-0.028-0.568c-0.434,0.912-1.177,1.414-2.099,1.672c-0.538,0.152-1.09,0.219-1.649,0.234
			c0,0-0.288,0.057-0.533,0.363C-306.238,62.305-305.916,62.796-305.095,62.796z"/>
		<path fill-rule="evenodd" clip-rule="evenodd" fill="#AEDB59" d="M-274.583,31.17c-0.477-2.222-1.082-4.405-1.835-6.549
			c-0.056-0.16-0.079-0.344-0.325-0.15c-0.78,0.615-1.649,1.098-2.48,1.636c-1.074,0.697-2.181,1.342-3.214,2.099
			c0.154,0.012,0.229,0.095,0.278,0.2c-0.049-0.105-0.124-0.188-0.278-0.2c-1.784,1.144-3.497,2.385-5.113,3.757
			c-0.426,0.373-0.861,0.737-1.274,1.123c-1.233,1.148-2.341,2.4-3.122,3.91c-0.62,0.967-1.119,1.995-1.599,3.034
			c-0.481,1.04-0.811,2.133-1.159,3.222c-0.102,0.738-0.252,1.467-0.324,2.211c-0.053,0.558-0.066,1.115-0.022,1.666
			c0.079,0.971,0.257,1.928,0.557,2.863c0.536,1.672,1.48,2.998,3.078,3.805c0.254,0.127,0.526,0.232,0.706,0.473
			c0.167,0.004,0.297,0.102,0.439,0.17c0.824-1.746,1.646-3.492,2.474-5.236c0.065-0.139,0.067-0.281,0.077-0.424
			c-0.143-0.068-0.19-0.195-0.229-0.324c0.039,0.129,0.086,0.256,0.229,0.324c0.235-0.109,0.259-0.354,0.354-0.551
			c0.128-0.266,0.204-0.561,0.433-0.77c0.071-0.566,0.418-1.023,0.638-1.525c0.488-1.113,1.043-2.197,1.557-3.299
			c0.276-0.588,0.595-1.156,0.791-1.781l0,0c0.471-0.971,0.949-1.939,1.412-2.915c0.433-0.913,0.85-1.834,1.274-2.751
			c0.313-0.68,0.627-1.358,0.941-2.037c0.764-1.641,1.527-3.283,2.291-4.925c0.031,0.015,0.063,0.028,0.094,0.042
			c-0.23,0.548-0.459,1.098-0.692,1.646c-0.589,1.375-1.179,2.748-1.766,4.125c-0.037,0.086-0.049,0.184-0.071,0.276
			c-0.224,0.251-0.253,0.601-0.437,0.872c-0.514,1.221-1.021,2.441-1.54,3.658c-0.681,1.595-1.371,3.184-2.054,4.777
			c-0.027,0.063-0.029,0.139-0.042,0.21c0.283,0.995,0.618,1.976,0.952,2.956c-0.334-0.98-0.669-1.961-0.953-2.956
			c-0.358,0.612-0.572,1.29-0.869,1.931c-0.38,0.826-0.669,1.693-1.09,2.502c-0.446,1.063-0.892,2.127-1.341,3.191
			c-0.521,1.24-1.047,2.48-1.57,3.721c0.049,0.068,0.099,0.135,0.151,0.203c0.204,0.168,0.408,0.34,0.612,0.508
			c0.885,0.727,1.862,1.281,3.02,1.377c1.853,0.152,3.514-0.461,5.088-1.375c0.686-0.344,1.266-0.834,1.827-1.348
			c0.734-0.674,1.318-1.471,1.883-2.285c0.092-0.213,0.199-0.416,0.359-0.586c0.049-0.109,0.095-0.221,0.149-0.326
			c0.328-0.648,0.657-1.293,0.873-1.988c0.022-0.041,0.055-0.08,0.07-0.123c1.04-2.822,1.548-5.75,1.664-8.748
			C-273.589,37.344-273.926,34.242-274.583,31.17z M-284.31,40.753c0.045,0.087,0.104,0.141,0.195,0.143
			C-284.205,40.893-284.265,40.84-284.31,40.753z"/>
		<path fill-rule="evenodd" clip-rule="evenodd" fill="#7FBE43" d="M-291.416,53.798c-1.598-0.807-2.542-2.133-3.078-3.805
			c-0.3-0.936-0.479-1.893-0.557-2.863c-0.044-0.551-0.031-1.108,0.022-1.666c0.072-0.744,0.222-1.473,0.324-2.211
			c-0.784-0.546-1.589-1.055-2.455-1.463c-0.35-0.188-0.691-0.395-1.052-0.561c-1.504-0.689-3.016-1.361-4.52-2.053
			c-0.204-0.094-0.233-0.033-0.267,0.154c-0.229,1.262-0.369,2.533-0.451,3.813c-0.219,3.426,0.237,6.73,1.722,9.852
			c0.447,0.941,0.972,1.84,1.738,2.568c0.267,0.348,0.612,0.609,0.959,0.869c0.872,0.65,1.872,0.969,2.93,1.137
			c0.854-0.416,1.662-0.914,2.48-1.393c-0.406-0.684-0.805-1.369-1.221-2.047c-1.232-2.002-2.472-4.002-3.711-6
			c-0.037-0.059-0.094-0.105-0.142-0.158l0,0c-0.438-0.844-0.984-1.621-1.467-2.439c-0.317-0.538-0.66-1.063-0.987-1.595
			c-0.035-0.057-0.09-0.116-0.025-0.282c0.916,1.349,1.801,2.654,2.688,3.961c0.881,1.322,1.759,2.645,2.644,3.965
			c0.879,1.309,1.766,2.613,2.646,3.922c0.068,0.102,0.135,0.199,0.243,0.26c0.795-0.426,1.535-0.936,2.242-1.492
			C-290.89,54.03-291.162,53.925-291.416,53.798z M-301.443,43.364c-0.019-0.008-0.049-0.012-0.055-0.026
			c-0.006-0.015,0.014-0.038,0.022-0.057c0.02,0.009,0.039,0.017,0.058,0.025C-301.427,43.325-301.434,43.344-301.443,43.364z
			 M-301.299,43.587c-0.02-0.01-0.05-0.013-0.055-0.027c-0.006-0.014,0.013-0.037,0.022-0.058c0.019,0.009,0.049,0.013,0.055,0.028
			C-301.272,43.544-301.291,43.567-301.299,43.587z"/>
		<path fill-rule="evenodd" clip-rule="evenodd" fill="#3F3F3E" d="M-276.828,52.257c0.092-0.213,0.199-0.416,0.359-0.586
			c1.12,0.229,2.246,0.352,3.386,0.162c0.613-0.102,1.128-0.422,1.629-0.76c1.236-0.836,2.307-1.877,3.449-2.828
			c0.512-0.426,1.036-0.836,1.604-1.186c0.238-0.146,0.494-0.26,0.788-0.197c0.095,0.02,0.228,0.039,0.174,0.168
			c-0.092,0.223-0.063,0.451-0.085,0.678c-0.019,0.188-0.124,0.287-0.281,0.129c-0.172-0.174-0.34-0.115-0.533-0.076
			c-0.474,0.096-0.85,0.348-1.224,0.645c-1.163,0.928-2.347,1.83-3.523,2.74c-0.375,0.291-0.391,0.322-0.11,0.689
			c0.193,0.254,0.086,0.32-0.166,0.367c-0.969,0.186-1.948,0.209-2.928,0.18C-275.136,52.356-275.983,52.3-276.828,52.257z"/>
		<path fill-rule="evenodd" clip-rule="evenodd" fill="#86C242" d="M-278.03,28.226c-0.764,1.642-1.527,3.285-2.291,4.925
			c-0.314,0.679-0.628,1.357-0.941,2.037c-0.425,0.917-0.842,1.838-1.274,2.751c-0.463,0.976-0.941,1.944-1.412,2.915
			c-0.196,0.625-0.515,1.193-0.791,1.781c-0.514,1.102-1.068,2.186-1.557,3.299c-0.22,0.502-0.566,0.959-0.638,1.525
			c-0.229,0.209-0.305,0.504-0.433,0.77c-0.095,0.197-0.118,0.441-0.354,0.551c-0.01,0.143-0.012,0.285-0.077,0.424
			c-0.828,1.744-1.65,3.49-2.475,5.236c0.287,0.246,0.575,0.49,0.863,0.736c0.523-1.24,1.049-2.48,1.57-3.721
			c0.449-1.064,0.895-2.129,1.34-3.191c-0.157-0.131-0.196-0.328-0.261-0.51c-0.02-0.055-0.04-0.107-0.068-0.156
			c0.028,0.049,0.049,0.102,0.068,0.156c0.064,0.182,0.104,0.379,0.262,0.51c0.421-0.809,0.71-1.676,1.09-2.502
			c0.297-0.641,0.511-1.318,0.87-1.931c0.013-0.071,0.015-0.147,0.042-0.21c0.683-1.594,1.373-3.183,2.054-4.777
			c0.52-1.217,1.026-2.438,1.54-3.658l0,0c0.184-0.271,0.213-0.621,0.437-0.872c0.022-0.093,0.034-0.19,0.071-0.276
			c0.587-1.377,1.177-2.75,1.766-4.125c0.233-0.548,0.462-1.097,0.692-1.646C-277.967,28.254-277.998,28.24-278.03,28.226z"/>
		<g>
			<path fill-rule="evenodd" clip-rule="evenodd" fill="#549E38" d="M-293.195,55.503c-0.88-1.309-1.767-2.613-2.646-3.922
				c-0.885-1.32-1.763-2.643-2.644-3.965c-0.886-1.307-1.772-2.612-2.688-3.961c-0.065,0.166-0.01,0.226,0.025,0.282
				c0.327,0.532,0.669,1.057,0.987,1.595c0.482,0.818,1.029,1.596,1.467,2.439c0.048,0.053,0.105,0.1,0.142,0.158
				c1.239,1.998,2.479,3.998,3.711,6c0.416,0.678,0.814,1.363,1.221,2.047c0.233-0.121,0.466-0.242,0.668-0.414
				C-293.06,55.702-293.127,55.604-293.195,55.503z"/>
			<path fill-rule="evenodd" clip-rule="evenodd" fill="#549E38" d="M-301.498,43.338c0.005,0.015,0.036,0.019,0.055,0.026
				c0.009-0.02,0.017-0.039,0.025-0.058c-0.019-0.009-0.038-0.017-0.058-0.025C-301.484,43.3-301.504,43.323-301.498,43.338z"/>
			<path fill-rule="evenodd" clip-rule="evenodd" fill="#549E38" d="M-301.332,43.502c-0.009,0.021-0.028,0.044-0.022,0.058
				c0.005,0.015,0.035,0.018,0.055,0.027c0.008-0.02,0.027-0.043,0.021-0.057C-301.283,43.514-301.313,43.51-301.332,43.502z"/>
		</g>
	</g>
</g>
</svg>
