<?xml version="1.0" encoding="utf-8"?>
<!-- Generator: Adobe Illustrator 16.0.0, SVG Export Plug-In . SVG Version: 6.00 Build 0)  -->
<!DOCTYPE svg PUBLIC "-//W3C//DTD SVG 1.1//EN" "http://www.w3.org/Graphics/SVG/1.1/DTD/svg11.dtd">
<svg version="1.1" id="Calque_1" xmlns="http://www.w3.org/2000/svg" xmlns:xlink="http://www.w3.org/1999/xlink" x="0px" y="0px"
	 width="56.693px" height="56.693px" viewBox="0 0 56.693 56.693" enable-background="new 0 0 56.693 56.693" xml:space="preserve">
<g>
	<g>
		<g>
			<g>
				<polygon fill="#FCCC5A" points="181.229,33.357 178.048,-4.348 217.395,-4.348 214.215,33.357 197.724,37.884 				"/>
				<g>
					<path fill="#D9A730" d="M215.491-2.598l-2.917,34.59l-14.851,4.077l-14.854-4.077l-2.918-34.59H215.491 M219.299-6.098h-43.153
						l3.442,40.818l18.137,4.979l18.133-4.979L219.299-6.098L219.299-6.098z"/>
				</g>
			</g>
			<polygon fill="none" points="197.724,39.699 179.588,34.72 176.145,-6.098 197.724,-6.098 			"/>
		</g>
		<g>
			<g>
				<g>
					<polygon fill="#FFFEFD" points="196.643,30.812 186.871,28.426 186.871,23.624 191.609,24.781 191.609,1.298 196.643,1.298 
											"/>
				</g>
			</g>
			<g>
				<g>
					<polygon fill="#FFFEFD" points="198.996,30.804 198.996,25.947 203.98,24.521 204.911,16.868 198.996,16.868 198.996,1.377 
						211.863,1.377 211.288,6.02 204.033,6.02 204.033,12.228 210.545,12.228 208.62,28.052 					"/>
				</g>
			</g>
		</g>
	</g>
	<text transform="matrix(1 0 0 1 176.1814 -8.2209)" font-family="'MyriadPro-Regular'" font-size="9">JAVASCRIPT</text>
	<path fill="#5DA3C2" d="M204.5,8.558l0.033,0.141c0.008,0.04-0.017,0.073-0.058,0.073"/>
</g>
<g>
	<polyline fill="#3558A8" points="176.145,-33.411 232.385,-33.411 232.385,-90.703 176.145,-90.703 176.145,-33.411 	"/>
	<path fill="#FFFFFF" d="M218.838-66.109l-0.172-0.74c-0.135-0.537-0.519-0.79-1.384-0.79h-3.634c-0.085,0-0.168,0.038-0.186,0.122
		l-1.379,6.662c-0.018,0.085-0.023,0.144-0.014,0.186s0.171,0.036,0.254,0.036h1.259c0.085,0,0.238,0.005,0.282-0.013
		c0.047-0.02,0.066-0.147,0.084-0.231l0.446-2.335l0.542-2.592c0.018-0.083,0.101-0.151,0.184-0.151l3.601-0.002
		C218.805-65.957,218.858-66.026,218.838-66.109"/>
	<path fill="#FFFFFF" d="M223.962-68.809c-0.085,0.001-1.598,0-1.598,0c-0.083,0-0.191,0.091-0.238,0.161l-2.804,4.201
		c-0.047,0.07-0.102,0.068-0.12-0.016l-0.207-0.92c-0.018-0.084-0.102-0.15-0.186-0.15h-1.803c-0.082,0-0.132,0.069-0.11,0.152
		l0.808,2.883c0.023,0.084,0.026,0.219,0.005,0.301l-0.377,1.461c-0.021,0.083,0.032,0.107,0.116,0.107h1.78
		c0.082,0,0.169-0.024,0.189-0.107l0.377-1.481c0.021-0.083,0.078-0.194,0.129-0.264l4.574-6.181
		c0.052-0.067,0.044-0.148-0.039-0.148L223.962-68.809"/>
	<path fill="#FFFFFF" d="M205.205-67.634h-1.627c-0.082,0-0.168,0.031-0.184,0.113l-0.537,2.563l-0.536,2.452
		c-0.017,0.083-0.099,0.078-0.183,0.078h-1.068c-1.058,0-0.936-0.681-0.719-1.7c0.002-0.01,0.679-3.393,0.679-3.393
		c0.015-0.082-0.04-0.113-0.123-0.113h-1.549c-0.084,0-0.167,0.031-0.183,0.113l-0.624,3.389c-0.311,1.833-0.32,3.446,1.767,3.499
		c0.033,0.001,3.292,0,3.292,0c0.085,0,0.167-0.028,0.186-0.111l0.708-3.398l0.704-3.411
		C205.208-67.555,205.233-67.634,205.205-67.634"/>
	<path fill="#FFFFFF" d="M189.01-67.639h-1.743c-0.084,0-0.168,0.021-0.186,0.104l-0.315,1.385c-0.019,0.082,0.036,0.148,0.12,0.148
		h1.669c0.085,0,0.168-0.077,0.186-0.16l0.303-1.396C189.044-67.558,189.068-67.639,189.01-67.639"/>
	<path fill="#FFFFFF" d="M186.773-65.532c-0.083,0-0.168,0.066-0.186,0.15l-0.235,1.057l-0.524,2.441c0,0-0.279,1.299-0.306,1.38
		c0,0-0.235,0.938-0.796,0.901c-0.261-0.02-0.56-0.079-0.56-0.079h-0.001c-0.156-0.049-0.168,0.116-0.187,0.2l-0.347,1.522
		c-0.02,0.082,0.033,0.157,0.116,0.159c0,0,0.751,0.107,1.28,0.107h0.088c1.309,0,2.001-0.784,2.443-2.913l0.518-2.466l0.486-2.293
		c0.018-0.082-0.032-0.16-0.115-0.16"/>
	<path fill="#FFFFFF" d="M210.092-64.718c0,0.092-0.287,0.075-0.287,0.075l-2.286-0.018c-0.079,0-0.102-0.112-0.106-0.192
		c0-0.004,0.006-0.098,0.012-0.121c0.177-0.625,0.704-0.98,1.54-0.98c0.94,0,1.141,0.475,1.141,1.002 M209.318-67.65
		c-2.932,0-3.632,1.846-4.021,3.677c-0.389,1.865-0.355,3.34,2.678,3.34h0.11c1.203,0,2.666,0,2.666,0
		c0.082-0.002,0.163-0.078,0.18-0.161l0.3-1.184c0.016-0.084-0.039-0.107-0.122-0.107h-2.729c-0.988,0-1.343-0.312-1.308-1.008
		c-0.001-0.079,0.088-0.281,0.172-0.281h4.203c0.186-0.001,0.19-0.109,0.19-0.109C212.064-65.452,212.094-67.65,209.318-67.65"/>
	<path fill="#FFFFFF" d="M195.097-63.805l-0.338,1.177c-0.023,0.082-0.119,0.137-0.203,0.137h-1.742
		c-1.322,0-1.645-1.041-1.322-2.595c0.322-1.589,0.962-2.571,2.262-2.671c1.779-0.137,2.144,1.143,1.712,2.613L195.097-63.805
		 M196.646-62.558c0,0,0.821-2.033,1.008-3.207c0.255-1.572-0.518-3.852-3.501-3.852c-2.967,0-4.255,2.176-4.747,4.543
		c-0.49,2.383,0.151,4.457,3.102,4.44l4.503-0.002c0.083,0,0.17-0.069,0.19-0.15l0.381-1.473c0.02-0.084-0.031-0.151-0.115-0.151
		l-0.362-0.002l-0.362-0.002c-0.072,0-0.113-0.049-0.104-0.11C196.64-62.535,196.641-62.546,196.646-62.558"/>
	<path fill="#5DA3C2" d="M208.457-64.866c-0.009,0.037-0.019,0.086-0.025,0.119l-0.29,1.357l0.306-1.431L208.457-64.866"/>
</g>
<g>
	<g>
		<polyline fill="#FBAB18" points="170.407,106.372 227.585,106.372 227.585,49.545 170.407,49.545 170.407,106.372 		"/>
	</g>
	<g>
		<path fill="#FFFFFF" d="M185.672,79.383v-2.02h4.035v3.502c-0.768,0.574-1.445,0.965-2.035,1.175
			c-0.59,0.208-1.289,0.312-2.098,0.312c-0.996,0-1.809-0.174-2.436-0.516c-0.629-0.345-1.115-0.857-1.461-1.538
			s-0.518-1.458-0.518-2.34c0-0.928,0.188-1.733,0.566-2.42c0.377-0.687,0.932-1.205,1.66-1.562
			c0.568-0.275,1.334-0.412,2.293-0.412c0.928,0,1.621,0.088,2.08,0.262c0.461,0.174,0.842,0.445,1.146,0.813
			c0.303,0.369,0.531,0.832,0.682,1.396l-2.611,0.379c-0.1-0.269-0.266-0.473-0.504-0.616c-0.236-0.144-0.539-0.214-0.906-0.214
			c-0.547,0-0.982,0.186-1.307,0.562c-0.326,0.375-0.488,0.97-0.488,1.782c0,0.863,0.172,1.479,0.514,1.849
			c0.342,0.372,0.818,0.556,1.43,0.556c0.291,0,0.566-0.031,0.832-0.089c0.264-0.058,0.564-0.159,0.906-0.302v-0.559H185.672"/>
		<path fill="#FFFFFF" d="M191.133,76.056h2.209v1.063c0.215-0.449,0.436-0.757,0.664-0.925c0.227-0.171,0.508-0.253,0.844-0.253
			c0.35,0,0.732,0.104,1.15,0.311l-0.736,1.758c-0.281-0.113-0.504-0.171-0.666-0.171c-0.313,0-0.553,0.125-0.725,0.378
			c-0.244,0.352-0.367,1.014-0.367,1.983v2.032h-2.373V76.056"/>
		<path fill="#FFFFFF" d="M203.181,82.232h-2.217v-1.043c-0.33,0.421-0.66,0.717-0.996,0.894c-0.334,0.18-0.746,0.269-1.234,0.269
			c-0.648,0-1.158-0.195-1.527-0.583c-0.371-0.391-0.555-0.985-0.555-1.794v-3.918h2.373v3.342c0,0.381,0.072,0.652,0.215,0.812
			c0.143,0.161,0.344,0.24,0.604,0.24c0.281,0,0.514-0.106,0.693-0.32c0.18-0.213,0.27-0.595,0.27-1.147V76.06h2.373v6.172"/>
		<path fill="#FFFFFF" d="M204.605,76.056h2.211v1.047c0.328-0.418,0.662-0.717,0.998-0.895c0.336-0.18,0.748-0.268,1.232-0.268
			c0.652,0,1.164,0.191,1.533,0.579c0.369,0.391,0.555,0.989,0.555,1.8v3.912h-2.375v-3.344c0-0.385-0.07-0.653-0.213-0.813
			c-0.145-0.158-0.344-0.237-0.604-0.237c-0.285,0-0.518,0.106-0.697,0.32c-0.178,0.214-0.266,0.599-0.266,1.15v2.923h-2.375V76.056
			"/>
		<path fill="#FFFFFF" d="M215.408,73.683v2.373h1.305v1.782h-1.305v2.233c0,0.269,0.025,0.445,0.078,0.534
			c0.08,0.134,0.219,0.201,0.418,0.201c0.178,0,0.43-0.052,0.752-0.155l0.176,1.522c-0.59,0.115-1.143,0.177-1.656,0.177
			c-0.594,0-1.033-0.076-1.314-0.223c-0.281-0.149-0.49-0.375-0.625-0.681c-0.135-0.302-0.203-0.793-0.203-1.471v-2.139h-0.83
			v-1.782h0.83v-1.145L215.408,73.683"/>
		<polyline fill="#5DA3C2" points="196.105,77.762 195.945,78.332 196.105,77.762 196.105,77.762 		"/>
	</g>
</g>
<g>
	<polyline fill="#9C57A3" points="103.892,-33.611 160.786,-33.611 160.786,-90.504 103.892,-90.504 103.892,-33.611 	"/>
	<path fill="#FFFFFF" d="M116.051-57.64v-2.312c0.43,0.355,0.896,0.621,1.397,0.799c0.502,0.177,1.01,0.267,1.521,0.267
		c0.301,0,0.563-0.03,0.787-0.087c0.225-0.057,0.412-0.136,0.563-0.236c0.15-0.1,0.262-0.219,0.336-0.355
		c0.074-0.136,0.11-0.283,0.11-0.443c0-0.206-0.058-0.391-0.176-0.552c-0.117-0.163-0.277-0.313-0.479-0.451
		c-0.203-0.138-0.443-0.271-0.721-0.399c-0.279-0.128-0.579-0.259-0.9-0.393c-0.82-0.344-1.432-0.765-1.834-1.261
		c-0.402-0.498-0.604-1.098-0.604-1.802c0-0.552,0.111-1.024,0.334-1.421c0.222-0.396,0.525-0.723,0.91-0.979
		c0.384-0.258,0.828-0.446,1.334-0.566c0.506-0.121,1.04-0.181,1.605-0.181c0.555,0,1.047,0.032,1.475,0.099
		c0.43,0.065,0.824,0.168,1.186,0.303v2.184c-0.176-0.126-0.367-0.238-0.576-0.334c-0.207-0.097-0.421-0.177-0.641-0.24
		c-0.221-0.063-0.439-0.109-0.656-0.141c-0.217-0.03-0.424-0.045-0.62-0.045c-0.269,0-0.512,0.027-0.732,0.081
		c-0.22,0.054-0.405,0.129-0.558,0.228c-0.15,0.098-0.268,0.216-0.352,0.354c-0.082,0.137-0.124,0.29-0.124,0.459
		c0,0.178,0.046,0.337,0.139,0.477c0.093,0.141,0.226,0.273,0.396,0.398c0.172,0.125,0.379,0.248,0.623,0.369
		c0.244,0.122,0.52,0.245,0.827,0.373c0.419,0.177,0.797,0.365,1.131,0.564c0.334,0.2,0.621,0.426,0.86,0.676
		c0.239,0.252,0.422,0.539,0.549,0.86c0.127,0.323,0.189,0.698,0.189,1.126c0,0.591-0.113,1.086-0.34,1.488
		c-0.227,0.4-0.533,0.726-0.922,0.974c-0.388,0.249-0.839,0.428-1.354,0.536c-0.516,0.108-1.059,0.163-1.631,0.163
		c-0.588,0-1.146-0.049-1.676-0.146C116.898-57.303,116.439-57.448,116.051-57.64"/>
	<path fill="#FFFFFF" d="M130.394-61.472l-1.15-3.58c-0.085-0.267-0.144-0.586-0.176-0.956h-0.062
		c-0.021,0.313-0.085,0.621-0.193,0.924l-1.154,3.611L130.394-61.472 M134.339-57.215h-2.628l-0.677-2.129h-3.969l-0.683,2.129
		h-2.613l3.899-10.646h2.86L134.339-57.215z"/>
	<path fill="#FFFFFF" d="M135.214-57.64v-2.312c0.429,0.355,0.895,0.621,1.397,0.799c0.502,0.177,1.009,0.267,1.521,0.267
		c0.301,0,0.563-0.03,0.788-0.087c0.224-0.057,0.411-0.136,0.563-0.236c0.149-0.1,0.262-0.219,0.335-0.355
		c0.074-0.136,0.11-0.283,0.11-0.443c0-0.206-0.059-0.391-0.176-0.552c-0.116-0.163-0.276-0.313-0.48-0.451
		c-0.201-0.138-0.442-0.271-0.721-0.399c-0.277-0.128-0.577-0.259-0.899-0.393c-0.82-0.344-1.432-0.765-1.834-1.261
		c-0.402-0.498-0.604-1.098-0.604-1.802c0-0.552,0.111-1.024,0.334-1.421s0.525-0.723,0.91-0.979
		c0.383-0.258,0.829-0.446,1.334-0.566c0.506-0.121,1.04-0.181,1.606-0.181c0.555,0,1.047,0.032,1.475,0.099
		c0.428,0.065,0.823,0.168,1.185,0.303v2.184c-0.177-0.126-0.368-0.238-0.576-0.334c-0.207-0.097-0.42-0.177-0.641-0.24
		c-0.22-0.063-0.438-0.109-0.656-0.141c-0.217-0.03-0.423-0.045-0.62-0.045c-0.268,0-0.512,0.027-0.732,0.081
		c-0.22,0.054-0.405,0.129-0.557,0.228c-0.151,0.098-0.269,0.216-0.352,0.354c-0.083,0.137-0.125,0.29-0.125,0.459
		c0,0.178,0.048,0.337,0.14,0.477c0.093,0.141,0.225,0.273,0.396,0.398c0.17,0.125,0.379,0.248,0.622,0.369
		c0.244,0.122,0.52,0.245,0.827,0.373c0.42,0.177,0.797,0.365,1.131,0.564c0.334,0.2,0.621,0.426,0.86,0.676
		c0.239,0.252,0.422,0.539,0.549,0.86c0.127,0.323,0.19,0.698,0.19,1.126c0,0.591-0.113,1.086-0.34,1.488
		c-0.227,0.4-0.534,0.726-0.921,0.974c-0.39,0.249-0.842,0.428-1.355,0.536c-0.515,0.108-1.059,0.163-1.631,0.163
		c-0.587,0-1.146-0.049-1.676-0.146S135.602-57.448,135.214-57.64"/>
	<path fill="#FFFFFF" d="M143.73-57.64v-2.312c0.429,0.355,0.895,0.621,1.397,0.799c0.502,0.177,1.009,0.267,1.521,0.267
		c0.302,0,0.563-0.03,0.788-0.087c0.224-0.057,0.411-0.136,0.562-0.236c0.15-0.1,0.263-0.219,0.336-0.355
		c0.074-0.136,0.11-0.283,0.11-0.443c0-0.206-0.058-0.391-0.175-0.552c-0.118-0.163-0.278-0.313-0.479-0.451
		c-0.204-0.138-0.444-0.271-0.722-0.399c-0.278-0.128-0.578-0.259-0.899-0.393c-0.82-0.344-1.433-0.765-1.835-1.261
		c-0.402-0.498-0.604-1.098-0.604-1.802c0-0.552,0.111-1.024,0.333-1.421c0.224-0.396,0.526-0.723,0.911-0.979
		c0.385-0.258,0.828-0.446,1.335-0.566c0.505-0.121,1.041-0.181,1.605-0.181c0.554,0,1.046,0.032,1.475,0.099
		c0.428,0.065,0.823,0.168,1.184,0.303v2.184c-0.175-0.126-0.366-0.238-0.573-0.334c-0.209-0.097-0.423-0.177-0.642-0.24
		c-0.221-0.063-0.439-0.109-0.656-0.141c-0.218-0.03-0.425-0.045-0.62-0.045c-0.269,0-0.512,0.027-0.732,0.081
		c-0.22,0.054-0.405,0.129-0.557,0.228c-0.151,0.098-0.269,0.216-0.353,0.354c-0.083,0.137-0.125,0.29-0.125,0.459
		c0,0.178,0.047,0.337,0.139,0.477c0.093,0.141,0.226,0.273,0.396,0.398c0.173,0.125,0.379,0.248,0.623,0.369
		c0.243,0.122,0.52,0.245,0.827,0.373c0.419,0.177,0.798,0.365,1.131,0.564c0.335,0.2,0.621,0.426,0.861,0.676
		c0.238,0.252,0.422,0.539,0.549,0.86c0.126,0.323,0.189,0.698,0.189,1.126c0,0.591-0.113,1.086-0.339,1.488
		c-0.228,0.4-0.534,0.726-0.923,0.974c-0.388,0.249-0.839,0.428-1.354,0.536c-0.515,0.108-1.058,0.163-1.63,0.163
		c-0.588,0-1.146-0.049-1.678-0.146C144.577-57.303,144.118-57.448,143.73-57.64"/>
</g>
<g>
	<rect x="290.5" y="21.041" fill="#5BD3BF" width="56.693" height="57.006"/>
	<g>
		<g>
			
				<linearGradient id="bottom_1_" gradientUnits="userSpaceOnUse" x1="506.447" y1="574.4558" x2="506.447" y2="608.4163" gradientTransform="matrix(1 0 0 1 -187.5996 -549.9902)">
				<stop  offset="0" style="stop-color:#002E3B"/>
				<stop  offset="1" style="stop-color:#002639"/>
			</linearGradient>
			
				<linearGradient id="bottom_2_" gradientUnits="userSpaceOnUse" x1="506.4441" y1="570.6599" x2="506.4441" y2="608.855" gradientTransform="matrix(1 0 0 1 -187.5996 -549.9902)">
				<stop  offset="0" style="stop-color:#002E3B"/>
				<stop  offset="1" style="stop-color:#002639"/>
			</linearGradient>
			<polygon id="bottom" fill="url(#bottom_1_)" stroke="url(#bottom_2_)" points="318.835,53.566 313.905,51.162 313.911,51.16 
				313.909,51.16 308.672,53.713 318.839,58.674 329.021,53.724 323.765,51.121 			"/>
			
				<radialGradient id="right_2_" cx="447.9636" cy="-180.2815" r="30.2187" gradientTransform="matrix(1 0 0 -1 -137.6001 -123.2974)" gradientUnits="userSpaceOnUse">
				<stop  offset="0" style="stop-color:#00BC85"/>
				<stop  offset="1" style="stop-color:#149D91"/>
			</radialGradient>
			
				<radialGradient id="right_3_" cx="447.7673" cy="-181.448" r="34.5943" gradientTransform="matrix(1 0 0 -1 -137.6001 -123.2974)" gradientUnits="userSpaceOnUse">
				<stop  offset="0" style="stop-color:#00BC85"/>
				<stop  offset="1" style="stop-color:#149D91"/>
			</radialGradient>
			<polygon id="right_1_" fill="url(#right_2_)" stroke="url(#right_3_)" points="308.684,53.73 308.684,48.62 313.724,46.163 
				318.909,48.719 			"/>
			
				<radialGradient id="right-2_1_" cx="508.073" cy="572.822" r="36.5126" gradientTransform="matrix(1 0 0 1 -187.5996 -549.9902)" gradientUnits="userSpaceOnUse">
				<stop  offset="0" style="stop-color:#00BC85"/>
				<stop  offset="1" style="stop-color:#149D91"/>
			</radialGradient>
			
				<radialGradient id="right-2_2_" cx="507.3445" cy="571.5183" r="39.5624" gradientTransform="matrix(1 0 0 1 -187.5996 -549.9902)" gradientUnits="userSpaceOnUse">
				<stop  offset="0" style="stop-color:#00BC85"/>
				<stop  offset="1" style="stop-color:#149D91"/>
			</radialGradient>
			<polygon id="right-2" fill="url(#right-2_1_)" stroke="url(#right-2_2_)" points="324.427,32.702 324.427,40.78 324.427,40.78 
				324.427,40.78 318.794,43.528 323.975,46.108 329.02,43.651 329.02,29.831 			"/>
			
				<radialGradient id="left_2_" cx="498.616" cy="570.1462" r="69.7941" gradientTransform="matrix(1 0 0 1 -187.5996 -549.9902)" gradientUnits="userSpaceOnUse">
				<stop  offset="0" style="stop-color:#004473"/>
				<stop  offset="1" style="stop-color:#00345F"/>
			</radialGradient>
			
				<radialGradient id="left_3_" cx="498.2859" cy="568.7849" r="73.7617" gradientTransform="matrix(1 0 0 1 -187.5996 -549.9902)" gradientUnits="userSpaceOnUse">
				<stop  offset="0" style="stop-color:#004473"/>
				<stop  offset="1" style="stop-color:#00345F"/>
			</radialGradient>
			<polygon id="left_1_" fill="url(#left_2_)" stroke="url(#left_3_)" points="329.021,53.726 329.021,53.726 329.021,48.618 
				313.278,40.776 313.278,32.696 308.684,29.826 308.684,43.647 			"/>
			
				<linearGradient id="top_1_" gradientUnits="userSpaceOnUse" x1="506.4363" y1="574.6326" x2="506.4363" y2="608.4158" gradientTransform="matrix(1 0 0 1 -187.5996 -549.9902)">
				<stop  offset="0" style="stop-color:#002E3B"/>
				<stop  offset="1" style="stop-color:#002639"/>
			</linearGradient>
			
				<linearGradient id="top_2_" gradientUnits="userSpaceOnUse" x1="506.4363" y1="574.1355" x2="506.4363" y2="612.0289" gradientTransform="matrix(1 0 0 1 -187.5996 -549.9902)">
				<stop  offset="0" style="stop-color:#002E3B"/>
				<stop  offset="1" style="stop-color:#002639"/>
			</linearGradient>
			<polygon id="top" fill="url(#top_1_)" stroke="url(#top_2_)" points="313.264,32.688 313.264,32.686 318.839,29.968 
				324.413,32.686 329,29.821 318.835,24.862 308.672,29.819 308.672,29.823 313.26,32.69 			"/>
		</g>
		<rect x="296.721" y="65.226" fill="none" width="44.25" height="9"/>
		<text transform="matrix(1 0 0 1 296.7214 72.0662)" fill="#FFFFFF" font-family="'OpenSans'" font-size="9">SNAP.SVG</text>
	</g>
</g>
<g>
	<rect x="112.667" y="84.667" fill="#CCFFCC" width="56.693" height="56.693"/>
	<g id="Responsive_Design_1_">
		<path fill="#757575" d="M158.464,120.736c0,0.067,0,0.103,0,0.169c0,1.838-4.408,3.301-9.844,3.301s-9.844-1.463-9.844-3.301
			c0-0.066,0-0.102,0.033-0.169c-0.033-0.034-0.033-0.103-0.033-0.169c0-1.805,4.408-3.301,9.844-3.301s9.844,1.496,9.844,3.301
			C158.464,120.634,158.464,120.702,158.464,120.736z"/>
		<path fill="#696969" d="M158.464,120.736c0,0.067,0,0.103,0,0.169c0,1.838-4.408,3.301-9.844,3.301c-0.232,0-0.465,0-0.695,0
			v-6.905c0.23-0.034,0.463-0.034,0.695-0.034c5.436,0,9.844,1.496,9.844,3.301C158.464,120.634,158.464,120.702,158.464,120.736z"
			/>
		<path fill="#757575" d="M147.925,117.301c0.23-0.034,0.463-0.034,0.695-0.034c5.27,0,9.545,1.395,9.844,3.129
			c-0.299,1.734-4.574,3.096-9.844,3.096c-0.232,0-0.463,0-0.695,0V117.301z"/>
		<ellipse fill="#8D8D8D" cx="148.62" cy="120.191" rx="9.844" ry="3.3"/>
		<path fill="#7F7F7F" d="M148.62,116.927c5.436,0,9.844,1.463,9.844,3.266c0,1.837-4.408,3.299-9.844,3.299
			c-0.232,0-0.463,0-0.695,0v-6.564C148.155,116.927,148.387,116.927,148.62,116.927z"/>
		<polygon fill="#CCCCCC" points="145.073,110.599 152.2,110.599 152.2,119.374 145.073,119.374 		"/>
		<polygon fill="#B8B8B8" points="152.2,115.327 152.2,119.374 147.925,119.374 147.925,115.327 		"/>
		<polygon fill="#B8B8B8" points="145.604,111.177 151.802,111.177 151.802,118.831 145.604,118.831 		"/>
		<polygon fill="#A6A6A6" points="151.802,115.327 151.802,118.831 147.925,118.831 147.925,115.327 		"/>
		<path fill="#A9ABAE" d="M130.788,90.054h35.828c0.365,0,0.664,0.306,0.664,0.681v23.913c0,0.373-0.299,0.679-0.664,0.679h-35.828
			c-0.364,0-0.662-0.306-0.662-0.679V90.735C130.126,90.36,130.424,90.054,130.788,90.054z"/>
		<path fill="#669999" d="M132.214,91.042h33.607c0.266,0,0.496,0.238,0.496,0.544v21.667c0,0.306-0.23,0.545-0.496,0.545h-34.203
			c-0.299,0-0.531-0.239-0.531-0.545V92.197C131.087,91.552,131.584,91.042,132.214,91.042z"/>
		<path fill="#CCCCCC" d="M148.719,113.933c0.273,0,0.496,0.229,0.496,0.51s-0.223,0.511-0.496,0.511
			c-0.275,0-0.498-0.229-0.498-0.511S148.444,113.933,148.719,113.933z"/>
		<ellipse fill="#B3B3B3" cx="148.719" cy="114.443" rx="0.365" ry="0.374"/>
		<path fill="#336666" d="M133.208,91.756h31.553c0.266,0,0.465,0.204,0.465,0.476v20.375c0,0.273-0.199,0.477-0.465,0.477h-32.115
			c-0.266,0-0.465-0.203-0.465-0.477V92.81C132.18,92.231,132.645,91.756,133.208,91.756z"/>
		<rect x="135.329" y="94.307" fill="#E6E6E6" width="21.113" height="17.721"/>
		<rect x="132.711" y="94.272" fill="#66FFCC" width="1.806" height="17.73"/>
		<rect x="157.071" y="94.409" fill="#E6E6E6" width="4.375" height="17.551"/>
		<rect x="162.44" y="94.272" fill="#E6E6E6" width="1.807" height="17.73"/>
		<rect x="157.403" y="94.783" fill="#CCCCCC" width="3.779" height="5"/>
		<rect x="157.403" y="100.327" fill="#CCCCCC" width="3.777" height="2.858"/>
		<rect x="157.403" y="103.932" fill="#CCCCCC" width="3.777" height="1.814"/>
		<rect x="157.403" y="106.382" fill="#CCCCCC" width="3.779" height="5.035"/>
		<path fill="#33CC99" d="M162.639,94.783h0.564v0.578h-0.564V94.783z M163.468,110.94h0.564v0.578h-0.564V110.94z M162.639,110.94
			h0.564v0.578h-0.564V110.94z M163.468,110.158h0.564v0.611h-0.564V110.158z M162.639,110.158h0.564v0.611h-0.564V110.158z
			 M163.468,109.409h0.564v0.578h-0.564V109.409z M162.639,109.409h0.564v0.578h-0.564V109.409z M163.468,108.627h0.564v0.578
			h-0.564V108.627z M162.639,108.627h0.564v0.578h-0.564V108.627z M163.468,107.844h0.564v0.612h-0.564V107.844z M162.639,107.844
			h0.564v0.612h-0.564V107.844z M163.468,107.096h0.564v0.578h-0.564V107.096z M162.639,107.096h0.564v0.578h-0.564V107.096z
			 M163.468,106.314h0.564v0.612h-0.564V106.314z M162.639,106.314h0.564v0.612h-0.564V106.314z M163.468,105.532h0.564v0.611
			h-0.564V105.532z M162.639,105.532h0.564v0.611h-0.564V105.532z M163.468,104.783h0.564v0.578h-0.564V104.783z M162.639,104.783
			h0.564v0.578h-0.564V104.783z M163.468,104.001h0.564v0.612h-0.564V104.001z M162.639,104.001h0.564v0.612h-0.564V104.001z
			 M163.468,103.253h0.564v0.578h-0.564V103.253z M162.639,103.253h0.564v0.578h-0.564V103.253z M163.468,102.469h0.564v0.579
			h-0.564V102.469z M162.639,102.469h0.564v0.579h-0.564V102.469z M163.468,101.688h0.564v0.613h-0.564V101.688z M162.639,101.688
			h0.564v0.613h-0.564V101.688z M163.468,100.938h0.564v0.58h-0.564V100.938z M162.639,100.938h0.564v0.58h-0.564V100.938z
			 M163.468,100.157h0.564v0.612h-0.564V100.157z M162.639,100.157h0.564v0.612h-0.564V100.157z M163.468,99.374h0.564v0.613h-0.564
			V99.374z M162.639,99.374h0.564v0.613h-0.564V99.374z M163.468,98.627h0.564v0.577h-0.564V98.627z M162.639,98.627h0.564v0.577
			h-0.564V98.627z M163.468,97.844h0.564v0.612h-0.564V97.844z M162.639,97.844h0.564v0.612h-0.564V97.844z M163.468,97.096h0.564
			v0.578h-0.564V97.096z M162.639,97.096h0.564v0.578h-0.564V97.096z M163.468,96.313h0.564v0.579h-0.564V96.313z M162.639,96.313
			h0.564v0.579h-0.564V96.313z M163.468,95.532h0.564v0.611h-0.564V95.532z M162.639,95.532h0.564v0.611h-0.564V95.532z
			 M163.468,94.783h0.564v0.578h-0.564V94.783z"/>
		<rect x="133.705" y="92.13" fill="#999999" width="30.005" height="1.465"/>
		<ellipse fill="#B3B3B3" cx="134.7" cy="92.878" rx="0.363" ry="0.375"/>
		<path fill="#B3B3B3" d="M136.555,92.504c0.201,0,0.364,0.169,0.364,0.374c0,0.207-0.163,0.375-0.364,0.375
			s-0.364-0.168-0.364-0.375C136.191,92.673,136.354,92.504,136.555,92.504z"/>
		<path fill="#B3B3B3" d="M138.411,92.504c0.202,0,0.365,0.169,0.365,0.374c0,0.207-0.163,0.375-0.365,0.375
			c-0.201,0-0.364-0.168-0.364-0.375C138.047,92.673,138.21,92.504,138.411,92.504z"/>
		<path fill="#B3B3B3" d="M140.235,92.504c0.2,0,0.364,0.169,0.364,0.374c0,0.207-0.164,0.375-0.364,0.375
			c-0.202,0-0.365-0.168-0.365-0.375C139.87,92.673,140.033,92.504,140.235,92.504z"/>
		<ellipse fill="#B3B3B3" cx="142.091" cy="92.878" rx="0.363" ry="0.375"/>
		<ellipse fill="#B3B3B3" cx="143.946" cy="92.878" rx="0.365" ry="0.375"/>
		<ellipse fill="#B3B3B3" cx="145.803" cy="92.878" rx="0.363" ry="0.375"/>
		<ellipse fill="#B3B3B3" cx="147.659" cy="92.878" rx="0.365" ry="0.375"/>
		<ellipse fill="#B3B3B3" cx="149.481" cy="92.878" rx="0.365" ry="0.375"/>
		<path fill="#B3B3B3" d="M151.337,92.504c0.201,0,0.365,0.169,0.365,0.374c0,0.207-0.164,0.375-0.365,0.375
			c-0.199,0-0.363-0.168-0.363-0.375C150.973,92.673,151.137,92.504,151.337,92.504z"/>
		<ellipse fill="#B3B3B3" cx="153.194" cy="92.878" rx="0.363" ry="0.375"/>
		<ellipse fill="#B3B3B3" cx="155.05" cy="92.878" rx="0.365" ry="0.375"/>
		<ellipse fill="#B3B3B3" cx="156.872" cy="92.878" rx="0.365" ry="0.375"/>
		<ellipse fill="#B3B3B3" cx="158.729" cy="92.878" rx="0.363" ry="0.375"/>
		<path fill="#B3B3B3" d="M160.585,92.504c0.201,0,0.365,0.169,0.365,0.374c0,0.207-0.164,0.375-0.365,0.375
			s-0.365-0.168-0.365-0.375C160.219,92.673,160.384,92.504,160.585,92.504z"/>
		<ellipse fill="#B3B3B3" cx="162.44" cy="92.878" rx="0.365" ry="0.375"/>
		<polygon fill="#FFCC00" points="145.901,97.946 148.091,99.239 150.276,100.532 150.276,103.151 150.276,105.769 148.091,107.062 
			145.901,108.354 143.714,107.062 141.528,105.769 141.528,103.151 141.528,100.532 143.714,99.239 		"/>
		<polygon fill="#FFAB00" points="145.901,97.946 148.091,99.239 150.276,100.532 150.276,102.878 141.528,102.878 141.528,100.532 
			143.714,99.239 		"/>
		<path fill="#CCCCCC" d="M145.868,95.633L145.868,95.633h-0.031h-0.066h-0.035c-0.064,0-0.131-0.067-0.131-0.136
			c0-0.102,0.066-0.136,0.131-0.17h0.035h0.066h0.031l0,0h0.068h0.033h0.064l0.033,0.034h0.066h0.033
			c0.066,0,0.133,0.067,0.133,0.136c-0.033,0.068-0.066,0.136-0.166,0.136H146.1h-0.033h-0.033h-0.064h-0.033H145.868z
			 M144.907,95.395c0.066,0,0.133,0.067,0.166,0.137c0,0.068-0.066,0.135-0.133,0.135l0,0l-0.033,0.035h-0.064h-0.035h-0.033h-0.066
			l-0.031,0.033c-0.066,0-0.135-0.068-0.135-0.135c-0.031-0.07,0.035-0.138,0.1-0.138l0.035-0.034h0.031h0.066h0.033l0.066-0.033
			H144.907L144.907,95.395z M143.846,95.633c0.066-0.032,0.133,0.034,0.166,0.103c0,0.068-0.033,0.137-0.1,0.171h-0.033h-0.033
			l-0.066,0.032h-0.033l-0.033,0.035h-0.064l0,0c-0.068,0.033-0.133,0-0.166-0.067c-0.033-0.103,0-0.171,0.098-0.204l0,0h0.035
			l0.066-0.035h0.031h0.033l0.066-0.034H143.846L143.846,95.633z M142.786,96.009c0.066-0.035,0.166,0,0.199,0.067
			s0,0.169-0.066,0.204h-0.033l-0.066,0.033h-0.033l-0.033,0.034l-0.033,0.034h-0.066l0,0c-0.066,0.033-0.131,0-0.166-0.068
			c-0.033-0.068,0-0.136,0.066-0.17l0,0l0.033-0.035h0.033l0.066-0.032l0.033-0.034h0.033L142.786,96.009z M141.825,96.552
			c0.066-0.033,0.133-0.033,0.199,0.034c0.033,0.067,0,0.17-0.066,0.204l-0.033,0.033h-0.033l-0.033,0.035l-0.033,0.034
			l-0.033,0.033h-0.033l0,0c-0.066,0.067-0.166,0.034-0.199-0.033c-0.031-0.034-0.031-0.137,0.033-0.171v-0.033h0.033l0.066-0.035
			l0.033-0.033l0.033-0.034h0.033L141.825,96.552z M140.93,97.231c0.066-0.033,0.133-0.033,0.199,0c0.033,0.068,0.033,0.17,0,0.205
			l-0.033,0.034l-0.033,0.032h-0.033l-0.033,0.035l-0.033,0.035l-0.033,0.033v0.033c-0.066,0.033-0.166,0.033-0.199-0.033
			c-0.066-0.033-0.066-0.136,0-0.17l0.033-0.035l0.033-0.033l0.033-0.034l0.033-0.034l0.033-0.033h0.033V97.231L140.93,97.231z
			 M140.169,98.049c0.033-0.069,0.132-0.069,0.165-0.034c0.065,0.068,0.065,0.137,0.033,0.204l0,0l-0.033,0.034l-0.033,0.033
			l-0.033,0.034l-0.032,0.034l-0.033,0.033v0.035c-0.067,0.067-0.133,0.067-0.199,0.034c-0.066-0.069-0.066-0.137-0.033-0.204
			l0.033-0.034l0.033-0.034l0.033-0.033l0.033-0.035v-0.033l0.033-0.034H140.169z M139.505,98.932
			c0.033-0.034,0.1-0.068,0.166-0.034s0.1,0.138,0.066,0.204l-0.033,0.035l-0.033,0.033l-0.033,0.033v0.035l-0.033,0.068
			l-0.033,0.034l0,0c-0.033,0.067-0.099,0.067-0.164,0.032c-0.068-0.032-0.101-0.102-0.068-0.17v-0.033l0.034-0.033l0.032-0.035
			v-0.034l0.033-0.032l0.034-0.035L139.505,98.932z M138.975,99.953c0.032-0.067,0.1-0.102,0.166-0.067
			c0.065,0.034,0.098,0.102,0.065,0.169v0.034l-0.033,0.068v0.034l-0.032,0.034v0.033l-0.033,0.068l0,0
			c-0.033,0.068-0.101,0.102-0.166,0.068c-0.066-0.034-0.1-0.102-0.1-0.17l0.033-0.034v-0.034l0.033-0.033v-0.035l0.033-0.067
			v-0.034L138.975,99.953z M138.577,101.009c0.033-0.07,0.1-0.103,0.166-0.103c0.1,0.032,0.133,0.103,0.1,0.204l0,0v0.033
			l-0.033,0.035v0.066v0.035l-0.033,0.033v0.034c0,0.103-0.1,0.137-0.166,0.103c-0.066,0-0.1-0.068-0.1-0.17v-0.035l0.033-0.034
			v-0.067l0.033-0.035v-0.033V101.009L138.577,101.009z M138.379,102.13c0-0.068,0.065-0.135,0.132-0.135
			c0.066,0.033,0.133,0.102,0.133,0.169v0.034l-0.033,0.033v0.07v0.032v0.069v0.033l0,0c0,0.068-0.066,0.137-0.166,0.137
			c-0.065,0-0.133-0.069-0.099-0.17l0,0v-0.035v-0.066v-0.035v-0.068v-0.034L138.379,102.13z M138.311,103.253
			c0-0.067,0.033-0.137,0.133-0.137c0.066,0,0.133,0.069,0.133,0.137v0.067v0.034v0.034v0.068v0.033v0.034
			c0,0.103-0.066,0.172-0.133,0.172c-0.065,0-0.133-0.069-0.133-0.137v-0.035v-0.067v-0.034v-0.068v-0.034V103.253z
			 M138.379,104.409c0-0.068,0.065-0.17,0.132-0.17s0.133,0.033,0.166,0.102v0.068v0.035v0.066v0.035l0.033,0.034v0.033
			c0,0.103-0.033,0.17-0.1,0.17c-0.066,0.034-0.166-0.033-0.166-0.103v-0.033l-0.033-0.067v-0.034v-0.035v-0.066L138.379,104.409z
			 M138.643,105.497c-0.033-0.067,0.033-0.136,0.1-0.17c0.066,0,0.133,0.034,0.166,0.103v0.033l0.033,0.034v0.035v0.033l0.033,0.068
			v0.033v0.035c0.032,0.067,0,0.135-0.066,0.17c-0.066,0.033-0.133-0.035-0.166-0.103l0,0l-0.033-0.067v-0.035l-0.033-0.033v-0.066
			l-0.033-0.035V105.497L138.643,105.497z M139.042,106.552c-0.034-0.067,0-0.135,0.066-0.17c0.065-0.034,0.165,0,0.198,0.068v0.034
			l0.033,0.034v0.033l0.033,0.035l0.034,0.033v0.068l0,0c0.031,0.067,0.031,0.17-0.034,0.204c-0.066,0.034-0.166,0-0.199-0.067
			v-0.035l-0.032-0.034v-0.034l-0.033-0.033l-0.033-0.068v-0.033L139.042,106.552z M139.604,107.538
			c-0.033-0.034-0.033-0.135,0.033-0.17c0.066-0.067,0.166-0.034,0.199,0.035l0,0l0.033,0.033l0.033,0.068v0.033l0.033,0.035
			l0.033,0.033l0,0c0.066,0.068,0.033,0.17,0,0.205c-0.066,0.033-0.166,0.033-0.199-0.035h-0.033v-0.068l-0.033-0.033l-0.033-0.035
			l-0.033-0.034l-0.033-0.032V107.538L139.604,107.538z M140.301,108.457c-0.065-0.069-0.065-0.17,0-0.204
			c0.066-0.067,0.133-0.067,0.198,0l0,0l0.034,0.034l0.032,0.034l0.034,0.033l0.033,0.035l0.032,0.033v0.034
			c0.066,0.067,0.066,0.136,0,0.204c-0.032,0.034-0.132,0.034-0.198,0v-0.034l-0.033-0.034l-0.034-0.033l-0.032-0.035l-0.033-0.034
			L140.301,108.457L140.301,108.457z M141.096,109.239c-0.066-0.068-0.066-0.137-0.033-0.204c0.066-0.069,0.133-0.069,0.198-0.034
			l0.034,0.034l0.033,0.034l0.032,0.033h0.034l0.032,0.035l0.033,0.033l0,0c0.067,0.068,0.101,0.136,0.034,0.203
			c-0.034,0.07-0.134,0.07-0.166,0.035h-0.033l-0.033-0.035l-0.033-0.033l-0.033-0.034l-0.033-0.032l-0.033-0.035H141.096
			L141.096,109.239z M141.991,109.885c-0.066-0.033-0.066-0.136-0.033-0.205c0.033-0.067,0.1-0.067,0.166-0.033h0.033l0.033,0.033
			l0.066,0.035h0.033l0.033,0.034l0.033,0.032l0,0c0.066,0.035,0.098,0.104,0.066,0.17c-0.033,0.069-0.133,0.104-0.199,0.069l0,0
			l-0.033-0.034l-0.033-0.035h-0.066l-0.033-0.032l-0.033-0.034H141.991L141.991,109.885z M142.985,110.395
			c-0.066-0.034-0.1-0.102-0.066-0.204c0.033-0.067,0.1-0.103,0.166-0.067l0.033,0.034h0.033l0.033,0.033h0.066l0.033,0.034h0.033
			h0.033c0.066,0.033,0.1,0.103,0.066,0.17c-0.033,0.102-0.1,0.137-0.166,0.102h-0.033l-0.033-0.033h-0.033l-0.066-0.034h-0.033
			l-0.033-0.034H142.985L142.985,110.395z M144.046,110.736c-0.1,0-0.133-0.069-0.1-0.17c0-0.069,0.066-0.103,0.166-0.103
			l0.033,0.033h0.033h0.033l0.066,0.035h0.033h0.033c0.1,0.034,0.133,0.102,0.133,0.17c-0.033,0.067-0.1,0.137-0.166,0.102h-0.066
			h-0.033l-0.033-0.034h-0.066h-0.033L144.046,110.736z M145.106,110.94c-0.066,0-0.1-0.068-0.1-0.137
			c0-0.102,0.066-0.137,0.133-0.137h0.033h0.066h0.033h0.033h0.066h0.033l0,0c0.066,0.035,0.133,0.103,0.133,0.17
			c0,0.068-0.066,0.137-0.133,0.137l0,0h-0.066l-0.033-0.033h-0.066h-0.033h-0.066H145.106z M146.233,110.973
			c-0.1,0-0.133-0.068-0.166-0.137c0-0.067,0.066-0.135,0.133-0.135h0.066h0.033l0.033-0.035h0.066h0.033h0.033
			c0.1,0,0.166,0.069,0.166,0.137c0,0.068-0.066,0.137-0.133,0.137h-0.033l-0.066,0.033h-0.033H146.3h-0.033H146.233z
			 M147.327,110.837c-0.066,0-0.166-0.033-0.166-0.101c0-0.069,0.033-0.17,0.1-0.17h0.033l0.066-0.034h0.033h0.033h0.066
			l0.033-0.035c0.066,0,0.133,0.035,0.166,0.103c0,0.103-0.033,0.17-0.1,0.17l-0.033,0.034h-0.066h-0.033h-0.066l-0.033,0.033
			H147.327L147.327,110.837z M148.387,110.532c-0.066,0.034-0.166,0-0.166-0.068c-0.033-0.068,0-0.17,0.066-0.17l0.033-0.035h0.033
			l0.033-0.033h0.033h0.066l0.033-0.034h0.033c0.066-0.034,0.133,0,0.166,0.067c0.033,0.069,0,0.171-0.066,0.171l-0.033,0.034
			h-0.066l-0.033,0.033h-0.033l-0.033,0.035H148.387L148.387,110.532z M149.382,110.089c-0.066,0.035-0.131,0-0.166-0.067
			c-0.033-0.069,0-0.136,0.068-0.171v-0.033h0.031l0.033-0.035h0.068l0.031-0.033l0.033-0.033h0.035
			c0.064-0.035,0.131-0.035,0.164,0.033s0.033,0.171-0.033,0.203h-0.033l-0.033,0.035l-0.064,0.034h-0.035l-0.033,0.034
			l-0.031,0.033H149.382z M150.344,109.476c-0.068,0.069-0.168,0.034-0.199-0.032c-0.033-0.035-0.033-0.138,0.031-0.17v-0.035h0.035
			l0.033-0.034l0.031-0.034l0.033-0.033l0.035-0.035h0.031c0.068-0.067,0.166-0.033,0.199,0c0.033,0.068,0.033,0.17-0.033,0.204
			l-0.033,0.034l-0.033,0.033l-0.031,0.035h-0.035l-0.033,0.035L150.344,109.476L150.344,109.476z M151.173,108.762
			c-0.068,0.034-0.133,0.034-0.199,0c-0.033-0.068-0.033-0.17,0-0.203l0.031-0.035l0.035-0.034l0.033-0.033l0.031-0.034l0.035-0.035
			l0.033-0.033l0,0c0.066-0.068,0.133-0.068,0.197,0c0.035,0.033,0.035,0.136,0,0.205l0,0l-0.031,0.033l-0.033,0.034l-0.033,0.034
			l-0.033,0.033l-0.035,0.035L151.173,108.762z M151.901,107.912c-0.033,0.034-0.133,0.069-0.199,0
			c-0.033-0.033-0.066-0.136,0-0.169v-0.035l0.033-0.033l0.033-0.035v-0.034l0.033-0.032l0.033-0.035v-0.034
			c0.066-0.067,0.133-0.067,0.199-0.034c0.066,0.034,0.066,0.136,0.033,0.205l0,0l-0.033,0.033l-0.033,0.068l-0.033,0.033
			l-0.031,0.035v0.034L151.901,107.912z M152.497,106.96c-0.031,0.068-0.1,0.068-0.164,0.035c-0.066-0.035-0.1-0.103-0.066-0.17
			v-0.035l0.031-0.034l0.035-0.034v-0.033l0.033-0.068l0.031-0.033v-0.035c0.035-0.067,0.1-0.067,0.168-0.035
			c0.064,0.035,0.1,0.104,0.064,0.172v0.033l-0.033,0.034v0.034l-0.031,0.068l-0.033,0.034v0.034L152.497,106.96z M152.962,105.905
			c0,0.068-0.098,0.104-0.166,0.104c-0.066-0.035-0.1-0.137-0.066-0.205l0,0v-0.034l0.035-0.067v-0.035l0.031-0.034v-0.067l0,0
			c0.033-0.068,0.1-0.136,0.199-0.103c0.066,0.034,0.1,0.103,0.066,0.17v0.034l-0.033,0.035v0.067l-0.033,0.034v0.033v0.068H152.962
			L152.962,105.905z M153.294,104.817c-0.033,0.068-0.1,0.135-0.168,0.103c-0.064,0-0.131-0.069-0.098-0.17v-0.034v-0.035
			l0.033-0.033v-0.068v-0.033v-0.035v-0.033c0.033-0.068,0.1-0.104,0.164-0.104c0.068,0.035,0.135,0.104,0.1,0.172l0,0v0.033v0.068
			v0.033l-0.031,0.069v0.033V104.817L153.294,104.817z M153.425,103.694c0,0.068-0.064,0.137-0.131,0.137
			c-0.068,0-0.133-0.068-0.133-0.17l0,0v-0.068v-0.033v-0.069l0.033-0.034v-0.067l0,0c0-0.068,0.066-0.136,0.131-0.136
			c0.068,0,0.133,0.067,0.133,0.17l0,0v0.033v0.068v0.035v0.067l-0.033,0.034V103.694z M153.425,102.573
			c0,0.066-0.031,0.135-0.131,0.135c-0.068,0-0.133-0.068-0.133-0.135v-0.035v-0.068v-0.033v-0.035l-0.035-0.067v-0.032
			c0-0.07,0.068-0.138,0.135-0.138c0.064-0.034,0.133,0.033,0.133,0.103l0.031,0.033v0.067v0.034v0.068v0.034V102.573z
			 M153.26,101.417c0.033,0.102-0.035,0.17-0.1,0.17c-0.066,0.033-0.133-0.035-0.166-0.103v-0.034v-0.033l-0.033-0.035v-0.067
			v-0.034l-0.033-0.035v-0.033c0-0.068,0.033-0.137,0.1-0.17c0.066,0,0.166,0.033,0.166,0.102l0,0l0.031,0.068v0.033v0.069
			l0.035,0.033v0.034V101.417z M152.962,100.327c0,0.104-0.033,0.17-0.098,0.205c-0.068,0.033-0.135-0.035-0.168-0.102l0,0
			l-0.031-0.035v-0.034l-0.035-0.034v-0.068l-0.033-0.033v-0.034c-0.031-0.067,0-0.17,0.068-0.17c0.064-0.034,0.164,0,0.164,0.067
			l0.035,0.035v0.034l0.031,0.033l0.033,0.067v0.035L152.962,100.327L152.962,100.327z M152.466,99.307
			c0.031,0.066,0.031,0.17-0.035,0.203c-0.064,0.035-0.164,0-0.197-0.066l0,0v-0.035l-0.033-0.035l-0.033-0.032l-0.033-0.034v-0.068
			l-0.033-0.035c-0.033-0.066,0-0.136,0.033-0.168c0.066-0.07,0.164-0.035,0.199,0.032l0.033,0.034l0.031,0.035v0.033l0.033,0.067
			l0.035,0.034V99.307L152.466,99.307z M151.868,98.354c0.033,0.068,0.033,0.17-0.033,0.205c-0.066,0.033-0.133,0.033-0.199-0.035
			V98.49l-0.033-0.033l-0.033-0.034l-0.031-0.035l-0.035-0.033V98.32h-0.033c-0.031-0.067-0.031-0.136,0.033-0.204
			c0.066-0.033,0.133-0.033,0.199,0.035l0,0l0.033,0.033l0.033,0.034v0.034l0.033,0.033l0.033,0.034L151.868,98.354z
			 M151.139,97.503c0.033,0.07,0.033,0.172,0,0.205c-0.066,0.069-0.135,0.069-0.199,0h-0.033l-0.033-0.033l-0.033-0.035
			l-0.033-0.033l-0.033-0.033v-0.035h-0.033c-0.066-0.067-0.066-0.137,0-0.204c0.033-0.067,0.133-0.067,0.166,0h0.033l0.033,0.034
			l0.031,0.033l0.035,0.035l0.033,0.034l0.031,0.032H151.139z M150.276,96.79c0.068,0.033,0.068,0.136,0.033,0.203
			c-0.033,0.068-0.133,0.068-0.197,0.035l0,0l-0.035-0.035l-0.031-0.033l-0.033-0.034h-0.035l-0.064-0.033v-0.034
			c-0.066-0.035-0.1-0.137-0.066-0.17c0.066-0.068,0.131-0.103,0.199-0.068l0.031,0.033l0.035,0.035h0.033l0.031,0.033l0.035,0.034
			L150.276,96.79L150.276,96.79z M149.348,96.212c0.068,0.033,0.068,0.102,0.033,0.17c-0.033,0.068-0.098,0.103-0.166,0.068l0,0
			l-0.066-0.033h-0.031l-0.033-0.035h-0.035l-0.031-0.034l-0.033-0.033c-0.066-0.034-0.1-0.103-0.066-0.171
			c0.033-0.067,0.098-0.102,0.166-0.067l0.033,0.034h0.031l0.066,0.033h0.035l0.031,0.034l0.033,0.034H149.348z M148.321,95.769
			c0.066,0,0.1,0.103,0.066,0.169c0,0.07-0.1,0.104-0.166,0.07l0,0h-0.033l-0.066-0.035h-0.033h-0.033l-0.031-0.035h-0.033
			c-0.1-0.032-0.133-0.1-0.1-0.169c0.033-0.067,0.1-0.136,0.164-0.103h0.033l0.033,0.035h0.066l0.033,0.033h0.033L148.321,95.769
			L148.321,95.769z M147.26,95.463c0.066,0.034,0.1,0.103,0.1,0.17c0,0.069-0.1,0.137-0.166,0.103h-0.033h-0.033h-0.033
			l-0.064-0.033h-0.035h-0.064l0,0c-0.066,0-0.102-0.069-0.102-0.17c0-0.069,0.066-0.104,0.133-0.104h0.033h0.035h0.031l0.066,0.034
			h0.033h0.066H147.26z"/>
		<path fill="#4E5A62" d="M166.616,89.477h-35.828c-0.695,0-1.227,0.544-1.227,1.258v23.913c0,0.712,0.531,1.292,1.227,1.292h13.689
			v0.68c-2.055,0.307-6.265,1.259-6.265,3.571c0,0.069,0,0.136,0,0.204c0,0.067,0,0.103,0,0.172c0,0.066,0,0.135,0,0.169
			c0,0.067,0,0.103,0,0.169c0,1.532,1.856,2.417,3.049,2.823c2.056,0.749,4.474,1.021,6.663,1.056
			c0.23,0.033,0.463,0.033,0.695,0.033c2.32,0,4.938-0.271,7.16-1.02c1.191-0.408,3.281-1.293,3.281-2.893c0-0.066,0-0.102,0-0.169
			c0-0.034,0-0.103,0-0.169c0-0.069,0-0.104,0-0.172c0-0.068,0-0.135,0-0.204c0-2.313-4.211-3.265-6.266-3.571v-0.68h13.82
			c0.697,0,1.227-0.58,1.227-1.292V90.735C167.844,90.021,167.313,89.477,166.616,89.477z M167.28,114.648
			c0,0.373-0.299,0.679-0.664,0.679H152.2v1.803c3.678,0.478,6.264,1.668,6.264,3.062c0,0.069,0,0.136,0,0.204
			c0,0.067,0,0.103,0,0.172c0,0.066,0,0.135,0,0.169c0,0.067,0,0.103,0,0.169c0,1.838-4.408,3.301-9.844,3.301
			c-0.232,0-0.463,0-0.695,0c-5.105-0.137-9.148-1.565-9.148-3.301c0-0.066,0-0.102,0.033-0.169
			c-0.033-0.034-0.033-0.103-0.033-0.169c0-0.069,0-0.104,0.033-0.172c-0.033-0.068-0.033-0.135-0.033-0.204
			c0-1.394,2.619-2.584,6.297-3.062v-1.803h-14.285c-0.364,0-0.662-0.306-0.662-0.679V90.735c0-0.375,0.298-0.681,0.662-0.681
			h35.828c0.365,0,0.664,0.306,0.664,0.681V114.648L167.28,114.648z"/>
		<path fill="#E6E6E6" d="M125.088,87.094h10.474c1.458,0,2.651,1.226,2.651,2.723v24.659c0,1.497-1.193,2.722-2.651,2.722h-10.474
			c-1.458,0-2.651-1.225-2.651-2.722V89.817C122.436,88.32,123.63,87.094,125.088,87.094z"/>
		<path fill="#4E5A62" d="M125.319,88.933h10.043c0.994,0,1.823,0.815,1.823,1.87v21.089c0,1.054-0.829,1.87-1.823,1.87h-10.043
			c-0.994,0-1.822-0.816-1.822-1.87V90.803C123.497,89.749,124.325,88.933,125.319,88.933z"/>
		<path fill="#CCCCCC" d="M123.828,114.58h1.89c0.198,0,0.331,0.135,0.331,0.34l0,0c0,0.169-0.133,0.341-0.331,0.341h-1.89
			c-0.166,0-0.331-0.172-0.331-0.341l0,0C123.497,114.715,123.662,114.58,123.828,114.58z"/>
		<path fill="#7F8C8D" d="M129.495,114.58h2.089c0.299,0,0.53,0.237,0.53,0.544l0,0c0,0.271-0.231,0.544-0.53,0.544h-2.089
			c-0.264,0-0.529-0.272-0.529-0.544l0,0C128.966,114.817,129.231,114.58,129.495,114.58z"/>
		<path fill="#CCCCCC" d="M134.965,114.58h1.856c0.198,0,0.364,0.135,0.364,0.34l0,0c0,0.169-0.166,0.341-0.364,0.341h-1.856
			c-0.198,0-0.331-0.172-0.331-0.341l0,0C134.633,114.715,134.765,114.58,134.965,114.58z"/>
		<path fill="#FEFEFE" d="M127.639,87.606h5.402c0.199,0,0.332,0.137,0.332,0.34l0,0c0,0.205-0.133,0.34-0.332,0.34h-5.402
			c-0.198,0-0.364-0.135-0.364-0.34l0,0C127.275,87.743,127.441,87.606,127.639,87.606z"/>
		<path fill="#CCCCCC" d="M129.594,114.68h1.889c0.3,0,0.498,0.205,0.498,0.443l0,0c0,0.236-0.198,0.408-0.498,0.408h-1.889
			c-0.265,0-0.463-0.172-0.463-0.408l0,0C129.132,114.885,129.33,114.68,129.594,114.68z"/>
		<path fill="#FED5A9" d="M127.341,128.457c0.034-1.122,0.101-2.245,0.266-3.266c0.531-3.741,2.851-6.495,3.68-7.483
			c0,0,2.021-2.313,1.523-5.033c-0.463-2.416-0.895-6.395-0.695-8.674c0.266-3.231-2.121-5.238-2.686-0.544
			c-0.563,4.897-2.783,15.715-6.959,8.81v-10.715c0,0-1.26-0.204-1.99,1.769c-0.695,1.974-5.369,4.423-5.336,6.293
			c0.033,1.837,1.791,3.742,2.42,8.368c0.133,1.155,0.994,2.755,1.658,4.422C121.542,124.885,124.292,126.927,127.341,128.457z"/>
		<polygon fill="#E6E6E6" points="126.115,92.368 135.395,92.368 135.395,98.728 126.115,98.728 		"/>
		<polygon fill="#CCCCCC" points="130.755,96.28 133.075,94.307 135.395,92.368 130.755,92.368 126.115,92.368 128.435,94.307 		"/>
		<path fill="#4E5A62" d="M121.475,100.735V89.817c0-2.041,1.623-3.708,3.612-3.708h10.474c1.988,0,3.612,1.667,3.612,3.708v24.659
			c0,2.042-1.624,3.708-3.612,3.708h-3.381c-0.066,0.068-0.1,0.136-0.166,0.205c-1.723,1.938-3.082,4.285-3.447,6.938
			c-0.166,1.157-0.265,2.348-0.265,3.573c-0.331-0.138-0.663-0.307-0.962-0.443c0.034-1.122,0.101-2.245,0.266-3.265
			c0.531-3.741,2.851-6.496,3.68-7.483c0,0,0.165-0.171,0.396-0.511h3.879c1.458,0,2.651-1.225,2.651-2.722V89.817
			c0-1.497-1.193-2.723-2.651-2.723h-10.474c-1.458,0-2.651,1.226-2.651,2.723v11.734c-0.133,0-1.293-0.067-1.957,1.769
			c-0.695,1.974-5.368,4.423-5.336,6.293c0.033,1.838,1.791,3.742,2.42,8.368c0.133,1.155,0.994,2.755,1.658,4.422
			c-0.763-0.783-1.459-1.633-2.122-2.518c-0.231-0.578-0.431-1.189-0.497-1.769c-0.231-1.803-0.695-3.333-1.358-5.001
			c-0.431-1.088-1.028-2.313-1.062-3.503c-0.033-1.632,1.989-3.196,3.083-4.15c0.597-0.511,2.056-1.733,2.32-2.481
			c0.298-0.852,0.796-1.667,1.624-2.109C121.276,100.837,121.376,100.769,121.475,100.735z"/>
	</g>
	<text transform="matrix(0.9744 0 0 1 119.196 136.6287)" font-family="'MyriadPro-Regular'" font-size="5.213">RESPONSIVE DESIGN</text>
</g>
<g>
	<path fill="#08A9D9" d="M56.955,0.914c0-0.505-0.4-0.914-0.896-0.914H0.606C0.111,0-0.288,0.409-0.288,0.914v28.339h57.243V0.914z"
		/>
	<g>
		<path fill="#08A9D9" d="M-0.261,55.779c0,0.504,0.4,0.914,0.895,0.914h55.453c0.496,0,0.896-0.41,0.896-0.914V27.442H-0.261
			V55.779z"/>
	</g>
</g>
<g>
	<path fill="#F4F4F4" d="M28.346,6.346c-12.119,0-21.947,9.853-21.947,22.003c0,12.147,9.828,21.997,21.947,21.997
		c12.122,0,21.948-9.85,21.948-21.997C50.295,16.199,40.469,6.346,28.346,6.346z M28.296,8.957c4.971,0,9.486,1.886,12.917,4.961
		c-1.439,0.598-2.349,2.338-1.102,5.041c0.689,1.496,3.6,4.117,2.477,7.572l-5.162,13.048l-5.211-14.443
		c-0.17-0.419-0.254-0.867-0.254-1.339c0-0.698,0.303-1.231,0.904-1.6c0.602-0.367,1.447-0.551,2.53-0.551h0.89v-1.3H22.316v1.301
		c0.662,0,1.271,0.091,1.733,0.272c0.466,0.178,0.914,0.498,1.351,0.955c0.493,0.472,0.899,0.996,1.217,1.572
		c0.32,0.58,0.489,1.112,0.91,2.344l-5.153,12.817l-5.129-14.399c-0.217-0.639-0.324-1.247-0.324-1.826
		c0-0.592,0.267-0.995,0.748-1.303c0.367-0.233,0.531-0.576,1.604-0.588l-0.019-1.146l-8.625,0.017
		C13.675,13.64,20.436,8.957,28.296,8.957z M8.905,28.349c0-2.072,0.333-4.063,0.934-5.936c0.189,0.138,0.383,0.269,0.558,0.445
		c0.795,0.805,1.512,2.121,2.149,3.941L19.4,45.563C13.171,42.339,8.905,35.848,8.905,28.349z M20.781,46.225l7.294-18.25
		l6.82,18.586c-2.062,0.748-4.279,1.176-6.602,1.176C25.63,47.737,23.091,47.198,20.781,46.225z M35.885,46.194l7.699-19.575
		c0.592-1.473,1.789-4.521,2.26-6.472c1.17,2.494,1.84,5.267,1.84,8.202C47.683,36.362,42.821,43.241,35.885,46.194z"/>
	<g>
		<path fill="#F4F4F4" d="M47.683,28.346c0,0.001,0,0.002,0,0.003c0,8.013-4.862,14.892-11.799,17.845l7.02-17.848h-1.033
			l-4.445,11.232l-4.053-11.232h-5.161l6.685,18.215c-2.063,0.748-4.279,1.176-6.601,1.176c-2.664,0-5.203-0.539-7.515-1.512
			l7.146-17.879h-1.024l-4.528,11.262l-4.013-11.262H13.11l6.29,17.217c-6.229-3.225-10.495-9.715-10.495-17.214
			c0-0.001,0-0.002,0-0.003H6.399c0,0.001,0,0.002,0,0.003c0,12.147,9.828,21.997,21.947,21.997c12.122,0,21.948-9.85,21.948-21.997
			c0-0.001,0-0.002,0-0.003H47.683z"/>
	</g>
</g>
</svg>
